<?xml version="1.0" standalone="no"?>
<!DOCTYPE svg PUBLIC "-//W3C//DTD SVG 1.1//EN" "http://www.w3.org/Graphics/SVG/1.1/DTD/svg11.dtd" >
<svg>
<metadata>
Created by FontForge 20090622 at Wed Mar  9 06:56:50 2016
 By deploy user
Copyright (c) 2012by Kimberly Geswein. All rights reserved.
</metadata>
<defs>
<font id="TheGreatEscape" horiz-adv-x="516" >
  <font-face 
    font-family="The Great Escape"
    font-weight="400"
    font-variant="small-caps"
    font-stretch="normal"
    units-per-em="1024"
    panose-1="2 0 5 3 0 0 0 2 0 3"
    ascent="819"
    descent="-205"
    x-height="589"
    cap-height="845.5"
    bbox="-265 -672.851 1186.22 1169"
    underline-thickness="0"
    underline-position="0"
    unicode-range="U+0020-U+F6C3"
  />
<missing-glyph horiz-adv-x="500" 
 />
    <glyph glyph-name=".notdef" horiz-adv-x="500" 
 />
    <glyph glyph-name=".null" horiz-adv-x="0" 
 />
    <glyph glyph-name="nonmarkingreturn" horiz-adv-x="500" 
 />
    <glyph glyph-name="space" unicode=" " horiz-adv-x="500" 
 />
    <glyph glyph-name="space" unicode="&#xa0;" horiz-adv-x="500" 
 />
    <glyph glyph-name="W" unicode="W" horiz-adv-x="910" 
d="M190 30q-15 89 -41.5 189.5l-55 205l-55.5 208.5t-44 201v4q2 3 6.5 8.5t9.5 10l9 8t5 3.5q42 -79 66 -167.5t43 -179.5t40 -180.5t57 -170.5q14 15 26.5 56.5t24 95l23 111.5t23 106.5t24.5 79.5t29 31q33 -12 63.5 -41.5t59 -68.5t54.5 -84l48.5 -87.5l41 -79.5
t33.5 -59q13 16 26.5 57t27 95.5t27.5 117l28.5 122t30 110.5t31.5 82.5t33.5 37.5t35.5 -24q-24 -56 -45 -123.5t-39 -140.5t-34 -148l-30 -146.5l-27 -135.5t-25 -114q-26 4 -38.5 15t-19.5 26t-10.5 33t-11.5 36l-44 97.5t-56 117t-66 112.5t-74 83q-15 -36 -28 -83.5
t-27.5 -110l-32 -141t-42.5 -175.5q-8 -13 -19 -20t-22 -7t-21.5 6.5t-17.5 20.5z" />
    <glyph glyph-name="Z" unicode="Z" horiz-adv-x="710" 
d="M140 0q-14 5 -23 15t-13.5 22.5t-3 26.5t9.5 26l59 88.5l68 107.5t68.5 118t60 121.5t42.5 117t16 105.5q-39 -2 -77 -7t-76.5 -8t-76.5 -2.5t-77 9.5q-11 4 -16.5 14t-5.5 20.5t5.5 20.5t16.5 15q47 -3 88.5 0t81 7.5l80 9t85.5 4.5q30 0 48 -9t18 -42q4 -26 -6.5 -69.5
t-30.5 -97t-47 -113t-56.5 -117.5l-58 -110l-52 -91.5t-39 -61.5t-18.5 -20v-6q46 -10 99.5 -2.5t107 22t103 30.5t87.5 23.5t61 0.5t23 -38q7 -15 -15 -29t-63.5 -27t-98.5 -24t-120.5 -20t-129 -17t-124.5 -13z" />
    <glyph glyph-name="X" unicode="X" horiz-adv-x="580" 
d="M38 25q15 23 36 65t42.5 91.5l42.5 100.5l37 92t25 67.5t7 26.5q2 30 -12.5 64t-38 68t-52 66.5t-55 59.5l-47 47t-27.5 29v5q0 6 3.5 14t9.5 15t13 11.5t14 4.5q12 -1 32.5 -21.5t45.5 -51t51.5 -66.5l50.5 -68l42 -56t26 -29q15 0 35 23.5t43 58l48 75.5t50 75.5
t48.5 58t43.5 23.5q11 0 25 -3.5t16 -16.5q-10 -28 -31 -60.5t-48 -67l-56 -68.5l-55 -64.5l-46.5 -55t-28.5 -40.5q26 -47 53.5 -109t58.5 -123.5t65.5 -116t74.5 -85.5q0 -19 -2.5 -28t-22.5 -9q-25 -11 -48 9.5t-45 58.5t-43 88.5l-42 100.5t-42.5 93t-42.5 67
q-37 -66 -60.5 -130l-43.5 -122t-43 -107t-60 -86h-16.5t-15 2.5t-11 7.5t-4.5 16z" />
    <glyph glyph-name="V" unicode="V" horiz-adv-x="780" 
d="M10 802q0 20 13.5 25t38.5 5q37 -92 83 -179t97.5 -172l106 -169.5l107.5 -171.5q3 5 7 15.5t13 36.5l26 72.5l47 123l75.5 189l111.5 269.5q12 15 22 18.5t17 -2.5t9 -20t-2 -34q-17 -33 -37.5 -86.5t-42.5 -118.5l-45 -136.5l-45 -140.5l-43 -131t-38.5 -107.5
t-31.5 -70t-23 -18.5q-6 0 -16.5 6t-30.5 31.5t-52.5 76.5t-82.5 140l-119.5 223z" />
    <glyph glyph-name="H" unicode="H" horiz-adv-x="640" 
d="M177 -65q1 64 1.5 108t-1 84.5t-5 84.5t-10.5 108q-26 0 -51.5 -5.5t-51.5 -5.5q-8 0 -16.5 1t-15.5 4t-11.5 9t-4.5 17q0 19 11.5 27t28 10.5t36.5 2.5t36.5 3t28 11.5t11.5 29.5q-17 110 -32 220.5t-11 222.5q25 15 41 3t26 -41t15 -71t8.5 -88t7.5 -92t11.5 -83
t20 -61t32.5 -25q17 0 49 3t63.5 9.5t55 17.5t23.5 28q0 54 -8 106t-17.5 104.5t-18 105.5t-9.5 109q30 26 49.5 14.5t31.5 -48t18.5 -90t10 -110.5l6.5 -110t8 -89q12 0 39.5 1t57.5 4t56 9.5t35 16.5q23 -35 21 -52t-20 -24t-45.5 -8t-54 -2.5t-47 -8t-24.5 -25.5
q3 -61 8 -102l9.5 -78.5t8 -79.5t3.5 -103q-2 -35 -14.5 -45.5t-26.5 -0.5t-25.5 38.5t-12.5 72.5q0 55 -2.5 89.5t-5.5 64t-5.5 63.5t-2.5 89q-15 0 -51.5 -2t-76 -7.5t-73.5 -15t-43 -23.5q-2 -57 -3 -91t-1 -63t1 -62t3 -89q4 -17 -1.5 -40.5t-16.5 -41t-26.5 -23
t-30.5 14.5z" />
    <glyph glyph-name="y" unicode="y" horiz-adv-x="498" 
d="M318 -562q-19 -21 -36 -24t-28.5 6.5t-16.5 27t-1 36.5l23 110t17 84.5l12.5 68.5t9 61.5t6 64t4.5 75.5q-13 18 -38.5 57l-57 89l-65.5 105l-63.5 105l-52.5 88.5t-31 56.5q0 6 4.5 14.5t10.5 16t13 12.5t12 4l81.5 -130.5l76 -124l69 -106.5t61.5 -77q13 54 25 122.5
t21 141.5t16 144.5t12 130.5q38 0 53 -15t17 -58q-9 -95 -23.5 -200t-34.5 -234l-44 -288.5z" />
    <glyph glyph-name="exclam" unicode="!" horiz-adv-x="188" 
d="M72 336q3 44 3.5 77.5t-1 65t-2.5 63.5t-1 72t3 92.5t10 123.5h5q14 0 29.5 -6.5t15.5 -23.5q8 -70 8.5 -124.5t-1 -100.5t-4.5 -85.5t-3 -79t4.5 -81.5t17.5 -92q-18 -19 -31.5 -22.5t-23.5 3.5t-16 22t-9 32t-4 34.5t0 29.5zM63 44q0 18 13 25t28 7q8 0 18 -5t18.5 -13
t13.5 -18t2 -20q-5 -21 -19.5 -25t-30 2t-28 19.5t-15.5 27.5z" />
    <glyph glyph-name="cedilla" unicode="&#xb8;" horiz-adv-x="368" 
d="M36 -288q11 9 28.5 12t38.5 4t44.5 2t46.5 4.5t44 12t38 25.5q17 48 9 72.5t-30.5 33t-55 6.5t-63 -7.5t-55 -9t-30.5 2.5q3 36 2 53t-2.5 30.5l-3.5 30.5t-2 53q0 18 13 30.5t30 12.5q18 0 26 -9t11 -22t2 -29t-2 -29t-0.5 -22t6.5 -9q74 0 116.5 -8t63.5 -21t26 -28
t5 -29q10 -54 0.5 -92.5t-32.5 -64t-56.5 -40t-70 -20t-74 -4.5t-68.5 7q-7 0 -8.5 5t-1 12.5t2.5 17t2 17.5z" />
    <glyph glyph-name="florin" unicode="&#x192;" 
d="M45 300q-14 0 -21.5 8.5t-8.5 20.5t4 23.5t16 17.5q19 -1 47.5 -1t60 1.5t62 5.5t52.5 10q-19 96 -7 171t40.5 128.5t66.5 83.5t70 37.5t51 -9.5t11 -59q-47 11 -78.5 1.5t-52 -33.5t-31 -59.5t-14 -77t-2.5 -85t4 -84.5q46 -6 85.5 5t75 31.5t69.5 46t70 47.5
q-2 -5 4.5 -20.5t5.5 -29.5q-23 -33 -60 -59t-80 -46.5t-86.5 -36t-78.5 -26.5q-1 -57 5 -98t13 -76.5t12 -70.5t2 -79q-8 -47 -28 -77t-47.5 -46.5t-58.5 -21t-59 -0.5t-51 15t-34 25.5t-7 30.5t29 30q3 -14 20 -25.5t40.5 -16.5t49.5 -1.5t46 20.5t30 49t3 84
q-2 14 -5.5 49t-9 74.5t-12 74t-13.5 48.5h-200v0z" />
    <glyph glyph-name="e" unicode="e" horiz-adv-x="472" 
d="M-35 391q14 0 27 -3.5l26.5 -7l27 -7t27.5 -3.5q7 0 16 16.5l22.5 41t33 53t46.5 53t63 41t83 16.5q21 0 40.5 -8.5t34 -23t23 -33t8.5 -38.5q0 -45 -13.5 -73.5t-36.5 -45.5t-53.5 -25.5t-65.5 -13.5t-72.5 -9.5t-73.5 -13.5q-13 -51 -4.5 -97t31.5 -80.5t57 -54.5
t71 -20.5t73.5 22t65.5 73.5q9 0 13.5 -5.5t6 -13t1.5 -16t-1 -15.5q-46 -63 -93.5 -86.5t-91.5 -18t-82 35.5t-66 74.5t-43.5 98t-13.5 106.5q-12 12 -27 17t-28.5 11t-22.5 17.5t-9 35.5zM326 521q-44 -3 -75.5 -19.5t-52.5 -40t-33 -49t-17 -46.5q-1 3 16 4t43 4.5
t56.5 9t58 17t47.5 29.5t24 46q0 13 -6.5 21.5t-16.5 13.5t-22 7.5t-22 2.5z" />
    <glyph glyph-name="a" unicode="a" horiz-adv-x="576" 
d="M486 439q-17 -35 -42 -79.5t-55 -91t-63.5 -91t-68.5 -79.5t-69.5 -57t-67 -22.5t-60.5 24.5t-50 82q-10 98 8 171t54 125t86.5 86t106 54t112 28t105.5 8q4 2 13.5 3t18 0t14.5 -5.5t4 -12.5l29 -554q2 -12 -4 -20t-16 -10t-23 3t-26 19zM480 524q-37 14 -79 11
t-84.5 -19.5t-83 -44t-74.5 -62t-59 -74t-35.5 -80.5t-4.5 -80.5t33 -73.5q17 -23 49 -9.5t71 50.5t81.5 90t80 107.5t65.5 104t40 80.5z" />
    <glyph glyph-name="b" unicode="b" horiz-adv-x="620" 
d="M71 23q-25 14 -28.5 32t8.5 48q38 -4 88.5 8t103 36.5t103.5 59t91 75.5t64.5 85.5t24.5 88.5q0 48 -18.5 64t-63.5 16q-44 4 -82.5 -12t-72.5 -44t-62.5 -65.5t-52.5 -78t-43.5 -80l-34.5 -72.5q-14 -23 -26 -35.5t-19.5 -10t-10 23.5t2.5 65l5.5 72.5l7.5 102.5
l8.5 121t8.5 127t7 121.5t4 103.5q1 7 4 17.5t8 20t12 16.5t16 7q5 0 12.5 -1.5t7.5 -9.5q-2 -66 -7 -132l-10.5 -133.5t-10 -136t-5.5 -140.5l75 77.5t70 63.5t78.5 47.5t100.5 30.5q77 0 119 -37t42 -119q0 -58 -25 -109.5t-66 -95t-95 -79t-112.5 -63t-117 -47
t-109.5 -29.5z" />
    <glyph glyph-name="c" unicode="c" horiz-adv-x="420" 
d="M19 212q0 35 14 78.5t38.5 89t57.5 89t70.5 77.5t78 54.5t79.5 20.5q10 0 18.5 -4.5t14 -12t5.5 -18t-7 -22.5q-65 -30 -119.5 -66t-94 -82t-62 -103t-23.5 -129q0 -20 8 -39t21.5 -33.5t32 -23.5t38.5 -9q32 0 62.5 16.5t58 36l51.5 36t43 16.5q13 -16 8 -36.5
t-22.5 -41.5t-43.5 -41t-55.5 -35.5t-58 -24t-49.5 -6.5q-41 0 -71.5 21t-51 52.5t-31 69t-10.5 70.5z" />
    <glyph glyph-name="d" unicode="d" horiz-adv-x="544" 
d="M424 228q-19 -15 -44 -37.5l-51.5 -47l-53.5 -48t-52.5 -42t-46.5 -29t-36 -8.5q-56 19 -84.5 56t-34 84t8.5 100.5t43 105t70.5 97.5t89.5 78.5t101 47.5t105 5q4 0 8 4t6 28t3.5 75t1.5 144q0 14 5.5 27.5t15.5 22t22.5 9.5t26.5 -9q-2 -36 -6 -67.5t-7.5 -65
t-6.5 -71.5t-4 -87q19 -8 24.5 -20.5t3 -26.5t-10.5 -28t-17 -25q-5 -63 -9 -131.5t-6 -137.5t-2.5 -137.5t1.5 -132.5q-6 -17 -17 -27.5t-22 -11.5t-20 8t-11 31zM432 524q-24 19 -56.5 15t-68.5 -23.5t-72 -52t-66.5 -72t-53 -83t-30.5 -84.5t0 -76.5t39 -59.5
q14 -8 36 1.5t48 29.5t55.5 48t58 58l55 58l47.5 49q8 34 10 51.5t1.5 33.5t-2 39t-1.5 68z" />
    <glyph glyph-name="grave" unicode="`" horiz-adv-x="172" 
d="M20 728q0 18 5.5 27.5t25.5 9.5q7 -12 20.5 -24.5l28 -26l27.5 -26.5t18.5 -25.5t0.5 -23.5t-26 -19q-16 19 -30 29.5t-26 20.5t-23 22.5t-21 35.5z" />
    <glyph glyph-name="f" unicode="f" horiz-adv-x="544" 
d="M214 20q8 106 -2.5 216.5t-27.5 213.5q-21 0 -49 -5.5t-58 -12.5l-59.5 -13.5t-53.5 -8.5h-5q-25 0 -36 19t-9 41q13 6 35 10l48.5 8.5t54.5 8.5t52.5 8.5t43 10.5t26.5 14q5 33 9.5 75t12.5 85t21.5 84.5t35.5 75t55 55.5t81 26q20 0 53.5 -14t65 -35.5t54.5 -47
t23 -49.5q0 -15 -12 -20.5t-23 -5.5q-21 0 -35.5 17.5t-28 38t-30 38t-42.5 17.5q-47 -2 -76.5 -36.5t-46 -83t-22.5 -101t-5 -89.5q40 2 81 10t82.5 18.5l83.5 22t83 19.5q25 0 39.5 -12t17.5 -27t-6 -30t-31 -21q-35 -4 -84 -8t-99.5 -12t-95.5 -22t-71 -38q0 -100 9 -198
t31 -202q-3 -20 -12 -34t-21 -20.5t-27 -3.5t-30 18z" />
    <glyph glyph-name="h" unicode="h" horiz-adv-x="512" 
d="M30 58q29 190 30.5 392t-4.5 418q9 21 21 29.5t23 4t19.5 -22t10.5 -49.5q0 -30 1 -84t1.5 -118.5t0.5 -132.5t-2 -127t-7 -102t-14 -56q24 40 44.5 84.5l40 87.5t39.5 82t42.5 67.5t50.5 45t63 14.5q37 3 59 -25t31.5 -76.5t8 -112t-9.5 -131t-21.5 -133t-29.5 -117.5
h-14.5t-16 1.5t-12.5 6t-5 12.5q4 51 13 107.5l18 111.5t15 105t4.5 89t-13 63t-37.5 28q-19 0 -40.5 -21t-42.5 -53t-40 -70.5l-35 -74t-27 -63.5l-15 -38l-14 -35.5l-21.5 -54.5l-21 -54.5l-13.5 -35.5q-13 -18 -26.5 -21.5t-25 4t-19.5 22.5t-9 33z" />
    <glyph glyph-name="i" unicode="i" horiz-adv-x="270" 
d="M60 616q8 33 22 34.5t26.5 -13t19 -37t-0.5 -35.5q3 -28 0.5 -71t-6.5 -91.5t-7.5 -98.5t-3.5 -93t5.5 -74t19 -42t38 3.5t62.5 62.5q22 -17 18.5 -42t-20 -49.5t-40.5 -44t-43 -25.5q-38 -8 -58.5 13t-31 54.5t-12.5 70t-2 58.5zM75 870q0 17 9 29t26 12q7 0 17.5 -1.5
t21 -5t18 -9.5t9.5 -15q5 -33 -8 -48t-31.5 -15t-37 14t-24.5 39z" />
    <glyph glyph-name="j" unicode="j" horiz-adv-x="228" 
d="M-265 -457q0 5 4.5 13.5t10.5 16t13 13t12 5.5q3 -8 11 -33t21 -54t31 -57t40.5 -42t50 -8.5t59.5 43.5q44 85 66.5 173t31 176t6.5 176t-5.5 173t-6 166t5.5 156q-1 23 12.5 29t28.5 0t25.5 -20.5t3.5 -32.5q-11 -56 -11 -135.5t3 -172t4.5 -192.5t-8 -196.5t-34.5 -184
t-74 -155.5q-35 -53 -77.5 -67t-84.5 5.5t-79 71.5t-60 133zM51 758q0 17 9 29t26 12q7 0 17.5 -1.5t21 -5t18 -9.5t9.5 -15q5 -35 -10 -49.5t-35.5 -13.5t-38 15.5t-17.5 37.5z" />
    <glyph glyph-name="k" unicode="k" horiz-adv-x="556" 
d="M29 49q1 32 6.5 63l11.5 62t10 62t3 64q-5 10 -7.5 24.5t-0.5 28t8.5 24t19.5 13.5q14 24 21 62.5t9.5 85t2.5 97.5t1 98.5t4 89t12 69.5q16 0 29 -1t21 -19q0 -49 -3 -109t-7 -124.5t-7 -128.5t-3 -120l69 35t69.5 42.5t60.5 53.5t41 69q13 0 30.5 -10t20.5 -25
q0 -1 -0.5 -1.5t-0.5 -1.5v-2q-54 -81 -129 -137.5t-171 -82.5q9 -79 51 -133.5t102.5 -83.5t131.5 -32.5t137 19.5q13 0 19.5 -6t7.5 -15t-1.5 -19.5t-7.5 -19.5q-31 -21 -72 -28t-86.5 -2.5t-92 20t-88 40t-75 56.5t-52.5 70q-5 -5 -7.5 -21.5t-4 -37.5t-3 -44.5
t-3.5 -43.5t-5.5 -33.5t-10.5 -15.5q-8 -2 -18.5 2.5t-20 12.5t-16 17t-6.5 17z" />
    <glyph glyph-name="l" unicode="l" horiz-adv-x="152" 
d="M52 24q-6 84 -4.5 194t5.5 226t7 226t2 194q1 19 5.5 33t13 20.5t21 4t30.5 -17.5q2 -60 0 -134.5t-5 -156t-6.5 -166.5t-6 -166t-2.5 -154t4 -131q-17 -24 -36 -20t-28 48z" />
    <glyph glyph-name="m" unicode="m" horiz-adv-x="810" 
d="M750 70q-5 -39 -19.5 -55t-29.5 -13t-25.5 21t-5.5 47q19 84 31.5 162.5t10 139t-22 96t-63.5 32.5h-6q-48 -38 -77.5 -85.5t-52 -100t-42.5 -107.5t-48 -107q-7 -14 -19 -19t-23 -0.5t-19.5 18t-8.5 35.5q4 35 5.5 76.5t0 83.5t-6 81t-12.5 69.5t-19.5 49t-26.5 18.5
q-24 1 -42 -21t-32.5 -58t-26 -82.5t-21.5 -94.5l-19 -94t-19.5 -81t-22.5 -55.5t-28 -17.5q-4 1 -11.5 8.5t-8.5 11.5q-3 58 -5 129t-3.5 144t-2 143.5t-0.5 129.5q-9 19 -4 43t17.5 39.5t28.5 15t29 -31.5l10 -270q4 11 8.5 32t12 46.5t19 52t28.5 47.5t41 33t57 10
q25 0 44 -14.5t33 -37.5t24 -51.5t17 -56.5t12 -52.5t9 -39.5q6 0 16.5 17.5l25 43l33 56t39.5 56t45 43t50 17.5q69 10 105.5 -26.5t48 -106.5t2.5 -165.5t-30 -203.5z" />
    <glyph glyph-name="n" unicode="n" 
d="M399 34q1 57 5.5 113.5t7 108.5t0.5 97.5t-12.5 79.5t-33 54.5t-61.5 22.5q-46 -13 -78.5 -49.5t-54.5 -85.5t-35.5 -104.5t-22.5 -106t-15.5 -91.5t-14.5 -61h-9t-18 -0.5t-18 -1t-9 0.5q0 57 -0.5 119.5t1 127.5t6 131t13.5 131q-3 10 4.5 23.5t18.5 19t21.5 -2.5
t13.5 -40q0 -19 0.5 -28t0.5 -19t0.5 -25.5t0.5 -47.5q15 24 29.5 55.5t35 60t51.5 47t79 17.5q58 2 93 -19t53.5 -59.5t24 -92t4.5 -116t-5 -132.5t-5 -141q-6 -13 -17.5 -18t-23 -2.5t-20.5 11t-10 23.5z" />
    <glyph glyph-name="o" unicode="o" horiz-adv-x="510" 
d="M29 179q1 53 15 113.5t40 119t63 110.5t83 88q13 -3 16.5 -9.5t3.5 -13.5t1 -14t9 -13q67 -2 112.5 -27t71 -65t32 -89.5t-2.5 -101.5t-33 -101.5t-60 -88t-83 -62.5t-102 -25q-39 0 -69.5 14.5t-52 39t-33 57t-11.5 68.5zM90 185q0 -47 26 -76.5t71 -29.5q53 -3 98.5 24
t77 70t46 95.5t7 100.5t-40 84t-95.5 47q-33 0 -59.5 -17t-47.5 -44t-36.5 -61.5t-26 -69.5t-15.5 -67.5t-5 -55.5z" />
    <glyph glyph-name="p" unicode="p" horiz-adv-x="670" 
d="M174 -541q-21 15 -38 42.5t-22.5 51.5t4.5 37.5t42 -0.5q5 44 10 100t7.5 112.5t1 109t-8.5 88.5l-16 10l-24 15l-24.5 15t-15.5 10q-14 10 -14 22.5v31.5q15 0 26 -3.5t21 -9l21 -11.5t26 -10v370q0 13 10 19t22 5t21 -7t7 -17q4 -12 6 -38.5t2.5 -61t1 -74.5l1 -78.5
t2.5 -72t7 -55.5q28 2 62.5 5t69.5 9t68.5 16t59.5 26.5t42.5 40.5t18.5 58q0 35 -18 68t-47.5 62.5t-67.5 54.5t-77.5 43t-77 28t-66.5 10q-47 0 -75 -14.5t-42 -41t-17.5 -63.5t-2.5 -82q-1 0 -2.5 -0.5t-2.5 -0.5q-16 0 -25 13.5t-13.5 32.5t-6 38t-1.5 30q0 27 10 52
t28 44t42 30.5t52 11.5q81 -1 164.5 -25.5t152.5 -67t114.5 -99.5t48.5 -124q0 -46 -19 -80.5t-51 -59.5t-73 -40.5t-84 -24t-86 -10.5t-78 0q-8 -7 -11 -33.5t-3.5 -66t0 -87.5t0 -97t-3 -95.5t-9 -82t-18.5 -57.5t-31 -22z" />
    <glyph glyph-name="q" unicode="q" horiz-adv-x="560" 
d="M510 -541q-64 7 -94.5 42t-40 89t-2.5 123t19 143l24.5 150t13.5 144q-18 -29 -42.5 -61t-54.5 -60t-65.5 -47.5t-75.5 -22.5q-42 0 -72.5 22.5t-50.5 57t-29.5 75t-9.5 76.5q0 49 15.5 101t45.5 94t74 69t101 27q20 0 43 -1.5t45.5 -6.5t42.5 -15t33 -28
q-56 6 -116.5 -4.5t-110 -39t-81.5 -75t-32 -111.5q0 -23 4.5 -51.5t15.5 -53.5t30.5 -43.5t49.5 -21.5q55 9 103 52t85 103t61 130t31 135q-3 21 2 30.5t14 11t21 -2.5t23 -9q6 -53 -1.5 -118.5t-18 -133.5t-19.5 -133.5t-7 -118.5q87 18 150 6t104 -44t59.5 -79t17 -99
t-22.5 -104.5t-59.5 -95t-94.5 -70.5t-128 -31zM456 -144q-6 -14 -12.5 -42t-10 -63t-2 -72t11 -70t29 -57t52.5 -32q28 -3 68.5 13t78.5 49t66 81t31 109q-4 44 -23.5 75.5t-48 51t-62.5 26.5t-67.5 1.5t-63 -23t-47.5 -47.5z" />
    <glyph glyph-name="r" unicode="r" horiz-adv-x="448" 
d="M28 583q32 14 49.5 7t25.5 -27.5t10 -49.5t1.5 -58.5t-0.5 -55.5t6 -39q18 69 52 122t80.5 84t104 37t123.5 -19q-1 -1 -1.5 -7t-0.5 -12.5t-0.5 -11.5t-1.5 -5q-94 0 -156.5 -29t-99.5 -91.5t-49.5 -161t-6.5 -238.5q-5 -11 -14 -18t-19 -8.5t-18.5 2.5t-12.5 16
q-10 29 -14.5 71t-7 91t-4.5 103t-7 107t-14 102t-25 89z" />
    <glyph glyph-name="s" unicode="s" horiz-adv-x="560" 
d="M60 50q5 16 16 28.5t28 12.5q15 -8 40.5 -11t55 -1.5t62 7.5t61 15t52 21.5t35.5 27.5q-95 -3 -162.5 -2t-112.5 15t-70 45t-35 87q0 66 30 124t80 101t114.5 68t133.5 25q10 1 30.5 -2.5t38.5 -11t26 -19.5t-7 -28q-40 5 -84 -4t-86.5 -27.5t-81 -45.5t-67.5 -57
t-45 -61.5t-15 -60t23 -51t70 -35.5q32 -7 70.5 -5t77.5 6.5l75 9t64.5 2t45.5 -14t17 -38.5q-16 -27 -51.5 -55.5t-81 -52.5t-97 -40.5t-100 -20.5t-88.5 7t-62 42z" />
    <glyph glyph-name="t" unicode="t" horiz-adv-x="392" 
d="M162 20q-4 67 -1.5 124.5t6.5 113.5l8.5 114t4.5 126l-204 14q-12 1 -21.5 12.5t-10.5 25t8.5 25t35.5 13.5q9 -7 33.5 -9t55.5 -2t62 1t53 0l-0.5 13.5t-1.5 31.5l-2 36.5t0 28.5q1 15 1 38t1 48.5t4.5 51.5t12.5 46.5t23.5 33.5t38.5 13q0 -29 -1 -66t-2.5 -76
t-2.5 -76.5t-1 -67.5v-45q34 2 56.5 2.5t43 -0.5t44 -2t59.5 -2q10 -2 10.5 -13t0.5 -17q-15 -20 -37 -27t-46 -7t-48 2.5t-44 2t-33.5 -8.5t-15.5 -30q-12 -38 -12.5 -84.5t2.5 -96t5 -97.5t-4 -87.5t-24.5 -67t-56.5 -35.5z" />
    <glyph glyph-name="u" unicode="u" horiz-adv-x="568" 
d="M400 260q-3 -10 -13.5 -33.5t-26.5 -52.5t-37 -60.5t-45 -56t-50.5 -38.5t-54.5 -10q-51 14 -79.5 47t-41 78.5t-13.5 100t4 112t12 115.5t9 110q5 13 18 21t26.5 8t23 -8.5t8.5 -27.5q-3 -41 -10 -94t-13 -108.5t-9 -108.5t2.5 -94t21.5 -65.5t48 -22.5q33 5 61.5 30.5
t52 63.5t42 84t31.5 92.5t19.5 90t7.5 75.5q5 25 7.5 43t8.5 28.5t18 12.5t36 -4q3 -71 2 -142.5t5.5 -141.5t26 -136.5t62.5 -127.5q-2 -8 -3.5 -16.5t-5.5 -14.5t-11 -9.5t-20 -0.5q-22 0 -38 15t-28 39t-20 54t-14 59l-11 54t-9 40z" />
    <glyph glyph-name="x" unicode="x" 
d="M62 -84q0 52 16.5 98.5t36 92.5t35.5 94t16 103q-17 22 -44.5 49.5l-54 56.5t-46.5 59t-23 56q-9 16 -6.5 31t12.5 23.5t25.5 8t33.5 -13.5q21 -33 32.5 -53.5l23 -39.5t29 -41t52.5 -56l17 31t26 45t33 50.5t37.5 46.5t40 34.5t40.5 13.5q6 0 14 -2t15 -5.5t10.5 -9
t2.5 -12.5q-23 -36 -53 -67t-57 -62.5t-45.5 -66.5t-18.5 -78v-4q28 -26 51 -57l47.5 -61.5t53.5 -57.5t69 -45q18 -11 21 -23.5t-4 -23.5t-21.5 -18.5t-30.5 -7.5q-17 0 -36.5 14.5t-39.5 36t-39 46.5l-36 46.5t-30.5 36t-22.5 14.5q-31 -29 -49.5 -67.5t-29 -82
t-14.5 -88.5t-6 -85q-15 -23 -30.5 -25t-28.5 8t-20 26.5t-4 31.5z" />
    <glyph glyph-name="glyph35" horiz-adv-x="508" 
d="M52 -208q-2 24 2.5 40t11.5 22.5t14 2t12 -20.5q6 -11 10.5 -30t11 -41.5t16 -45.5t26.5 -41.5t42 -30.5t62 -12q53 8 81 40.5t40 83.5t11.5 117.5t-4 144.5t-6 164t5.5 175q-31 -54 -55.5 -115.5t-51.5 -113.5t-61 -86.5t-83 -35.5q-44 2 -69.5 29t-37 70t-11.5 98.5
t5.5 112.5t15.5 112l18 99q-3 16 8.5 29t26 18t26 -1.5t10.5 -29.5q-12 -42 -21.5 -91t-15.5 -98.5t-7.5 -95t4 -81t19 -57.5t36.5 -24q29 0 59.5 38.5t58.5 96.5t53.5 125.5t45 125.5l32 96.5t15.5 38.5q25 17 42.5 10.5t17.5 -30.5q-15 -86 -18.5 -176t-2 -178t5.5 -172
t4.5 -158.5t-6.5 -137.5t-27 -109.5t-56.5 -73.5t-95.5 -30q-47 0 -86 19t-68 50.5t-46 72.5t-20 85z" />
    <glyph glyph-name="z" unicode="z" 
d="M28 74q0 36 25 74t63 77t82 77t82 74.5t63 69.5t25 62q-76 9 -150.5 6t-146.5 -17q-18 0 -29 8.5t-14.5 19t-1 20.5t11.5 13l64 11.5t58.5 10t57 7t59.5 2.5q21 0 48.5 -0.5t53 -7.5t43 -23.5t17.5 -47.5q-7 -44 -29.5 -80t-54 -67.5t-67.5 -61.5l-70.5 -61.5t-63 -68
t-44.5 -81.5q10 -4 20.5 -5.5t27 0.5t42 8t65.5 17.5l97.5 28.5l137.5 41q44 0 55 -9t-2 -23t-46 -32t-77 -36l-75 -27t-79.5 -26t-81.5 -19.5t-80 -7.5q-15 0 -30.5 5.5t-27.5 15.5t-20 23.5t-8 29.5z" />
    <glyph glyph-name="w" unicode="w" horiz-adv-x="830" 
d="M16 550q0 10 7.5 15.5t17.5 6.5t20 -1.5t15 -9.5q11 -43 22.5 -106.5t26.5 -129t35 -124.5t47 -94q39 38 55 88t22.5 105t9 111.5t13.5 107.5q2 19 7.5 31t28.5 12q13 4 28 -16.5t32 -55.5t36 -81l40 -93t44 -90.5t48 -73.5q16 39 24.5 78t14.5 78l12.5 77.5t19 76
t33.5 74t57 71.5q18 13 34.5 18.5t28 4t17 -9.5t1.5 -21q-63 -62 -98 -132t-50.5 -145.5t-16.5 -154.5t3 -158q-6 -10 -15 -12t-19 1t-19.5 8.5t-16.5 10.5l-223 393q-5 -50 -10 -109t-19.5 -116t-42.5 -107t-79 -81q-18 0 -39 35.5t-42.5 90.5t-41 121.5t-35 128t-24.5 110
t-9 67.5z" />
    <glyph glyph-name="v" unicode="v" horiz-adv-x="560" 
d="M19 575q0 16 8 24t19 9.5t23.5 -3.5t20.5 -15q34 -111 79.5 -214t100.5 -206q16 24 32 61t32 79l34 86t38.5 82t44.5 65.5t54 38.5q17 0 21.5 -11.5t4.5 -26.5q-72 -123 -128.5 -252t-82.5 -272q-20 -20 -34 -18.5t-36 18.5q-18 66 -53.5 135l-72.5 139.5t-67.5 141
t-37.5 139.5z" />
    <glyph glyph-name="g" unicode="g" horiz-adv-x="520" 
d="M364 -417q-31 -3 -63.5 7t-60 29t-48 44.5t-28.5 54.5t-1 58.5t35 56.5q11 0 25.5 -4.5t20.5 -15.5q-23 -26 -20.5 -54.5t20 -52t45 -39t55.5 -15.5q31 -7 50.5 21t30 77.5t13.5 114t2 131.5t-4.5 130.5t-7 110.5t-5 71t2.5 13q-20 -23 -42 -54.5l-46 -66t-51.5 -68
t-58.5 -60t-67 -43t-77 -16.5q-25 0 -39 18t-21 42.5t-9 49.5t-2 40q5 84 37.5 157.5t79.5 130t102 93.5t104 49.5t86 -3.5t48 -65q14 -207 20.5 -355t5.5 -251t-9.5 -165.5t-25 -98.5t-41 -51t-56.5 -21zM83 172q-5 -55 7 -75.5t35.5 -16t55 30.5t65 64.5t66 85.5
t57.5 93.5t39.5 89t11.5 72.5q-56 9 -113 -13.5t-105 -69t-80.5 -113.5t-38.5 -148z" />
    <glyph glyph-name="A" unicode="A" horiz-adv-x="812" 
d="M86 -1q-33 -4 -50.5 5t-23.5 24t-2 31.5t15.5 26.5t28.5 10.5t36 -16.5q49 20 82.5 62.5t57.5 87.5h-22.5t-30.5 2t-29.5 6.5t-20 13t-2 23t24.5 35.5q31 -2 65.5 -1t64.5 11q16 26 34.5 76t38 110.5l40 123t40.5 114t39.5 84.5t37.5 33q40 -36 65.5 -83.5t43.5 -101.5
t33.5 -112t37.5 -114l162 56q12 0 20.5 -9.5t12.5 -22t2.5 -24t-11.5 -14.5q-24 -15 -47.5 -20.5t-44.5 -11t-38 -16t-27 -37.5q0 -34 11.5 -71t25 -74.5t25 -74.5t11.5 -71q0 -10 -2.5 -21.5t-7.5 -21t-13.5 -16t-21.5 -6.5h-5q-21 36 -31.5 82.5t-19 94.5t-19.5 94.5
t-32 83.5q-37 -16 -74 -25.5t-74.5 -18t-75.5 -18.5t-76 -28q-21 -8 -38 -30.5t-32.5 -51.5l-32.5 -60.5t-38.5 -58t-48.5 -43.5t-64 -17zM510 720q-21 -42 -41.5 -91t-38 -98.5t-30.5 -96.5t-20 -84q56 10 120.5 28t121.5 32q0 33 -9.5 75t-25 85t-36 82.5t-41.5 67.5z" />
    <glyph glyph-name="B" unicode="B" horiz-adv-x="784" 
d="M257 -25q-51 14 -79 30.5t-36 30.5t1 24.5t31 13.5t54.5 -3t70.5 -25q30 1 68 10t77.5 24t78.5 35t72.5 44t58 52t35.5 58q18 46 -4.5 79.5t-70 53.5t-112.5 28t-132.5 2t-130.5 -24.5t-106 -50.5q-3 -10 -4.5 -32.5t-1 -51t1 -60.5t1 -60.5t0 -51t-2.5 -31.5
q-7 -7 -19.5 -16.5t-23.5 -11.5q-13 14 -17 52t-3 91t5.5 116.5t8 128t4 126.5t-5.5 112q14 48 47 76t75 39.5t89 7.5t89 -19.5t75 -42t48 -60.5t7 -74t-48 -83q32 0 69.5 -7t74.5 -21t69.5 -35.5t55.5 -50.5t32.5 -65.5t-0.5 -80.5q-14 -37 -45.5 -76t-74.5 -74.5
t-93.5 -65t-102 -48t-100 -23t-86.5 9.5zM157 448q36 7 78.5 20t81.5 32.5t70 47.5t45 66q9 29 -5.5 49.5t-43.5 33t-66 16.5t-72 0.5t-63 -14t-37 -27.5z" />
    <glyph glyph-name="C" unicode="C" horiz-adv-x="480" 
d="M20 260q-3 49 4.5 111t25 125t46 123t69 106.5t92 73.5t115.5 25q18 -3 31.5 -11.5t21 -20t6.5 -23.5t-12 -21q-73 21 -131 -9.5t-99.5 -94t-66 -152t-30.5 -184.5q-2 -69 18 -116t52.5 -74.5t74 -37t84 -4t80.5 25t64 50.5q1 -40 -17.5 -70t-48.5 -49.5t-66.5 -28
t-69.5 -5.5q-54 0 -98.5 20.5t-77 55.5t-50 83t-17.5 102z" />
    <glyph glyph-name="D" unicode="D" horiz-adv-x="588" 
d="M104 8q-12 7 -18.5 11.5t-9.5 9.5t-4 12.5t-1 19.5h83l6.5 23t3.5 18t0.5 23t-2.5 38.5t-5.5 64t-8 100t-9.5 145.5t-11 202q-12 -3 -24.5 -9.5t-24.5 -13.5t-23.5 -12.5t-22.5 -5.5q-17 0 -22 15t-5 27q0 19 13 29.5t31 16.5t37 10.5t31 12.5q-1 6 -2.5 20.5t0 30.5
t7 28t18.5 12q16 0 24 -9.5t12 -24t7 -31.5t10 -32q114 2 192.5 -31.5t124.5 -89t61 -126.5t2.5 -143.5t-50.5 -140t-98.5 -116.5t-142 -73.5t-179.5 -10.5zM188 672q7 -38 11 -88.5t6.5 -107.5l5 -117t6 -115.5t9 -103t14.5 -80.5q79 25 134.5 68.5t89 96.5t45.5 112
t5 114.5t-32.5 104t-67 80t-99 43t-127.5 -6.5z" />
    <glyph glyph-name="E" unicode="E" horiz-adv-x="628" 
d="M103 96q8 19 5 58t-12.5 89t-22.5 107.5t-24.5 114.5t-20 109.5t-8.5 93t10.5 64.5t36.5 24q43 0 94 -1t104 1.5t104.5 10.5t96.5 27q24 -6 24.5 -29.5t-14.5 -48.5q-36 2 -84 -4.5t-98 -14.5l-98 -15t-84 -6q-22 0 -26 -22.5t2.5 -59.5t18.5 -83.5t22 -94.5q1 0 31.5 6
l74.5 15l95.5 19l95.5 18.5l74 14t32 4.5q27 -12 18 -27.5t-43.5 -32t-88 -32.5t-114.5 -29l-29 -7.5l-45 -11.5l-45 -11t-29 -6q-7 -99 7 -155t44 -80t73.5 -21.5t95.5 20.5q24 5 57 17.5l66.5 25t62 21.5t44.5 7.5t14 -17.5t-30 -53q-45 -18 -94.5 -35t-100 -31.5
t-101.5 -25t-100 -13.5q-45 11 -82.5 34t-55.5 43.5t-9.5 29.5t56.5 -7z" />
    <glyph glyph-name="F" unicode="F" horiz-adv-x="676" 
d="M315 0q-21 4 -29.5 12t-10 25.5t1.5 46.5t4 73t-2.5 105t-16.5 144q-13 -5 -40 -6t-51 4.5t-35.5 20t6.5 41.5q7 -1 22.5 -2t33.5 -1t35.5 3t28.5 10q0 53 -0.5 104.5t-19.5 105.5q-24 0 -45 -11t-40.5 -24t-39 -24t-40.5 -11q-27 3 -36 19t-5 33.5t19 32t37 15.5
l31.5 10l48 15l48.5 15t32 10q9 21 16 28.5t16 7.5t21.5 -5.5t31.5 -10.5q32 0 72 6.5t81 15.5t80.5 19.5l71.5 18.5q21 -7 29.5 -14.5t9 -17t-5 -21.5t-13.5 -27q-38 0 -81.5 -1.5t-87.5 -8.5t-86 -21t-75 -39q0 -50 -0.5 -99t10.5 -101q47 -10 82 -13.5t67 0t66 14.5
t79 31q1 0 1.5 -0.5t1.5 -0.5h2q20 -20 20 -38t-12 -31t-33 -19t-43 -2l-236 -31l14 -369q0 -16 -8 -26.5t-28 -10.5z" />
    <glyph glyph-name="G" unicode="G" horiz-adv-x="736" 
d="M612 -203q0 16 2 49l4.5 74.5t5 88t4 89t2 77.5t-1.5 53q-29 -48 -64 -90.5t-78 -75t-95 -52.5t-114 -23q-95 22 -148 76.5t-72.5 128t-11 158.5t37.5 167.5t74 155.5t97 122.5t106.5 68.5t103.5 -7q11 -4 14 -11t0 -14t-11 -11t-19 -1q-43 6 -84.5 -13.5t-78.5 -57.5
t-69 -91t-56 -115.5t-38 -131.5t-15 -137q15 -91 49 -140t78 -66t93.5 -6.5t96.5 38.5t87.5 68.5t65 84t29 85t-18.5 70.5q-17 0 -44 -13.5t-60 -34l-70 -44t-73 -44t-70 -34t-61 -13.5q0 8 6.5 19t15 22t17.5 19.5t14 11.5q41 18 85 44.5l89.5 55.5l91 56.5t89.5 45.5
q17 9 31.5 5.5t24.5 -27t16 -70t7.5 -124.5t-2 -190t-12.5 -266l-15 -35t-14.5 -23t-17.5 -3t-23 25v6z" />
    <glyph glyph-name="I" unicode="I" horiz-adv-x="160" 
d="M40 40q1 44 2 105t2 130l2 142.5l2 143t2 131.5t2 108q1 14 7 27t14 18.5t17.5 0t17.5 -29.5q4 -71 6.5 -148t3.5 -154.5t0.5 -152t-1.5 -140.5t-3 -120t-4 -91q-7 -9 -18.5 -9t-22.5 5.5t-19.5 14.5t-9.5 19z" />
    <glyph glyph-name="asciicircum" unicode="^" horiz-adv-x="370" 
d="M12 320q6 33 24 73t43.5 77t55.5 66t59 41q15 0 39 -23.5t46 -55.5t38 -64t16 -49q0 -10 -6 -16t-14 -9t-18 -4t-17 -1q-21 0 -34 13t-21.5 31.5t-15 39.5t-15.5 37q-1 0 -2.5 0.5t-2.5 0.5q-14 0 -23.5 -12.5t-18 -32t-17 -41.5t-19 -41.5t-24 -32t-33.5 -12.5h-10
t-13.5 1.5t-11.5 4.5t-5 9z" />
    <glyph glyph-name="J" unicode="J" horiz-adv-x="540" 
d="M520 115q3 -47 -22.5 -74.5t-68.5 -40t-96.5 -12t-105.5 10t-96 26t-68 36.5t-21 41t44 40q12 -32 46 -52t76.5 -29t87.5 -8t79.5 10.5t51.5 27.5t4 43q7 -20 5 -9.5t-10.5 44l-21.5 85l-28 111.5l-30.5 125t-28 125.5t-20.5 111.5t-9 85q0 8 4.5 13.5t11 7.5t13 0
t11.5 -9q9 -41 23 -97l31.5 -120l36 -132l37 -132.5l35 -122l29.5 -100.5v-5v0z" />
    <glyph glyph-name="K" unicode="K" horiz-adv-x="596" 
d="M104 36q1 12 0 56.5t-4 109.5t-8.5 144.5t-14 162.5t-19.5 163t-26 145q0 6 2.5 15.5t7 18.5t11 15t15.5 6q18 0 29.5 -36t18.5 -91.5t11 -121t8.5 -124.5t9.5 -103t15 -56q17 3 39.5 22.5t47 47.5t49 62.5t45.5 67.5t36.5 62.5t22.5 47.5q2 61 13 82t24.5 16t26 -29.5
t17.5 -54.5q0 -44 -25.5 -96t-61.5 -102.5t-76 -94l-68 -71.5q29 -18 73 -41.5t92 -43.5t95.5 -32.5t83.5 -9.5q13 0 23.5 -8t14 -18.5t-1.5 -20.5t-22 -14q-54 -6 -111.5 7t-115 35t-113.5 46t-108 40l2 -3.5t5 -23t4.5 -60.5t0.5 -117q-9 -40 -18 -54t-18 -10t-17 22
t-15 42z" />
    <glyph glyph-name="L" unicode="L" 
d="M42 738q0 42 4 58.5t11 18t17 -8.5l22 -22q16 -50 20.5 -112.5t3.5 -129t-4.5 -132.5t-3.5 -125t6 -106t24.5 -74.5t52 -31.5t87.5 23l188 104q3 0 5.5 -5.5t4 -13t2.5 -14.5t1 -11q-5 -17 -36 -41t-71.5 -47.5t-82 -43t-67.5 -25.5q-69 -3 -108 34t-57 99t-21 142t0 163
l6 162t-4 139z" />
    <glyph glyph-name="M" unicode="M" horiz-adv-x="824" 
d="M723 29l-17.5 157t-18.5 155t-23 154t-31 154q-1 0 -2.5 0.5t-2.5 0.5q-15 -27 -27 -73.5l-25 -100t-28.5 -109t-36.5 -101t-50 -75.5t-68 -32q-25 -4 -46.5 17.5t-39.5 57t-34 79l-32 85t-32.5 74.5t-35.5 47q1 -40 1.5 -87t-3 -96.5t-12.5 -98t-25.5 -92t-42 -79
t-63.5 -58.5q-18 0 -27.5 6t-9.5 26q52 72 78 151t36 163t9.5 171t-1.5 174q4 6 12 11t17 7.5t17.5 0.5t13.5 -9q32 -56 57 -114.5l50 -117l51.5 -116t61.5 -112.5q14 -9 30.5 19t34 78t36 115.5l38 131t39 124t38.5 94.5q14 29 31.5 30t32.5 -32q22 -94 36 -189.5
t26.5 -191.5t27.5 -192.5t40 -191.5q0 -7 -3 -16.5t-11.5 -14.5t-24 -3t-41.5 19z" />
    <glyph glyph-name="N" unicode="N" horiz-adv-x="708" 
d="M127 682q-9 12 -22 23.5t-27 22.5l-27.5 21.5t-23.5 22.5q0 8 -0.5 17t1.5 16.5t7.5 12.5t16.5 6q18 0 45 -29t60.5 -76.5t71.5 -108l78 -124l79.5 -124t76 -108t68 -76.5t54.5 -29q20 -2 31 26t14 76t-2.5 112t-18.5 135t-33 144.5t-47 141.5q-4 12 -3 25t5 20.5t11.5 7
t17.5 -14.5q26 -34 46.5 -87t36.5 -116t25.5 -131.5t13.5 -134t1 -123.5t-13 -99t-27.5 -61t-42.5 -10q-48 13 -89 47t-76.5 80t-67.5 100.5l-63 108.5l-62.5 104t-65.5 88q-7 -37 -7.5 -87.5t3 -106t10 -113.5l13 -111l12 -97.5t7.5 -73.5q-26 -18 -41.5 -13.5t-23.5 24
t-9.5 51.5t0.5 71q-3 29 -6 73t-4.5 95l-3 106t-2 106.5t0 95.5t2.5 74z" />
    <glyph glyph-name="O" unicode="O" horiz-adv-x="460" 
d="M29 322l4.5 89.5t9 106.5t19 109.5t33.5 99.5t52.5 75.5t76.5 37.5h5q36 2 68.5 -30t58.5 -87.5t44 -127.5t24 -148.5t-2 -152t-32 -137.5t-67.5 -104.5t-108.5 -53.5q-37 0 -65.5 16t-49 42.5t-34 60.5t-21.5 70t-11.5 71t-3.5 63zM214 770q-16 2 -34 -27.5t-34 -80
t-29 -115t-19.5 -131.5t-5 -131t15 -113.5t39.5 -78t69 -24.5q44 11 75 45t49.5 82t25.5 106.5t4 119t-15 118.5t-32.5 106t-48 81t-60.5 43z" />
    <glyph glyph-name="P" unicode="P" horiz-adv-x="744" 
d="M430 20q-31 -9 -44.5 -6t-18 19.5t-3 46t-0.5 71.5t-11 97.5t-33 123.5q-23 -5 -51 -16t-54 -16q-41 12 -50 23t2 21t34.5 19t48 16l42.5 12.5t18 8.5q0 9 -3 36.5t-8 63t-12 74.5t-14.5 71.5t-16 53.5t-15.5 21q-30 0 -57 -8t-52.5 -17l-48 -17t-43.5 -8q-5 1 -10 9
t-9 18t-7 19.5t-4 13.5q2 9 18.5 15.5t40.5 11t53 7l56 5t49 5t33 6.5q1 10 2 26t5.5 30t13.5 24.5t24 10.5q19 0 24 -11t5 -26t1.5 -30t14.5 -24q20 -7 53 -9l72 -4.5t80 -8.5t76.5 -21.5t62 -43t37.5 -73.5q-1 -31 -18.5 -59.5t-45.5 -53.5t-63.5 -47.5t-71.5 -42
t-71 -36.5t-61 -31q0 -46 5 -91.5t11 -91.5t10.5 -92.5t3.5 -94.5zM328 765q-3 -51 3 -98t15.5 -86t19 -67.5l14.5 -43.5q161 49 232 100t60.5 93.5t-99 70.5t-245.5 31z" />
    <glyph glyph-name="Q" unicode="Q" horiz-adv-x="580" 
d="M431 72q-27 -15 -46 -24.5t-37 -15.5t-38 -8.5t-49 -2.5q-64 0 -111 22.5t-78 61.5t-46.5 91.5t-15.5 112.5q0 31 3.5 81.5t14.5 108.5t32 116.5t56 105.5t86 76t123 27q60 -7 104 -49.5t72.5 -105.5t41 -140t10 -153t-19.5 -143t-49 -110q5 -29 22 -50t39 -36t45 -25
t41 -19t26.5 -17.5t2.5 -19.5q0 -18 -6 -27.5t-25 -7.5zM300 780q-44 5 -84 -30.5t-71.5 -94.5t-51.5 -134t-25 -149.5t8 -141t47.5 -108.5t93 -51.5t145.5 29.5q-9 6 -28 17l-42 25.5l-47.5 31t-44.5 32.5t-33 31t-13 26q0 19 8.5 30t25.5 11l244 -154q41 48 58.5 113.5
t15.5 136t-19.5 139.5t-46 123t-65 86.5t-75.5 31.5z" />
    <glyph glyph-name="R" unicode="R" horiz-adv-x="704" 
d="M38 682q-4 46 17 82t58 61t86 39.5t101 17.5t102.5 -5.5t90 -28.5t63.5 -52t24 -76q0 -41 -22 -91.5t-55 -99t-71.5 -90t-71.5 -63.5q10 -10 39 -30.5l66.5 -46.5l78.5 -56t74.5 -59.5t54.5 -56.5t19 -47q0 -12 -2.5 -20t-21.5 -8q-34 18 -70.5 48l-75 64l-78.5 67
t-82 56t-85.5 31.5t-88.5 -6.5q0 -30 9 -65t20 -71.5t20.5 -72.5t10.5 -67q1 -12 -7 -20t-19 -10.5t-23.5 1t-21.5 14.5zM116 708q4 -16 8.5 -54.5t11 -85.5t16 -94.5t24.5 -81.5q28 -11 64.5 1.5t73.5 39.5t72.5 64.5t61.5 78t39.5 79.5t7.5 69q0 29 -18.5 47t-45 28
t-56 13.5t-51.5 3.5t-57.5 -6t-69 -19.5t-57.5 -34t-24 -48.5z" />
    <glyph glyph-name="S" unicode="S" horiz-adv-x="604" 
d="M79 147q2 -30 29 -47.5t67 -23.5t89 -2t96 15.5t87 29.5t62.5 40t22 47.5t-33.5 51.5q-88 33 -172 59t-151 55t-110.5 67.5t-50.5 96.5q-4 31 16 71.5t57 81.5t87 79.5t105.5 65.5t113 39t109.5 1q20 -1 30 -20t10 -40q-1 -2 -4.5 -5.5t-5.5 -4.5q-47 15 -97.5 10.5
t-98.5 -22t-92 -47t-77 -64t-52.5 -73t-20.5 -74.5q6 -43 42 -72t87.5 -51t110 -38.5t110.5 -33.5t89 -37t45 -48q21 -43 11 -80.5t-41 -67.5t-78 -52t-101 -34.5t-110 -15t-104.5 6.5t-84 30.5t-48.5 56.5q-6 10 -2 22t13 21t20.5 11.5t20.5 -6.5h2q1 0 1.5 0.5t1.5 0.5z
" />
    <glyph glyph-name="T" unicode="T" horiz-adv-x="740" 
d="M593 2q-10 6 -23 20t-26 31.5t-22.5 36.5t-12.5 35t3 26.5t26 11.5q-2 27 -3 71t-2.5 96t-3.5 109t-5 110t-7 98t-10 75q-56 4 -111 -3.5t-110 -18l-109.5 -20t-109.5 -9.5q-17 -5 -34.5 2.5t-28 21t-9 29.5t21.5 28q47 1 103 2t114 3t115.5 5.5t107.5 9.5q9 6 22 22.5
t30 28t39 10t49 -30.5q36 5 82 8l93.5 6t93 7t81.5 11q21 0 33 -12.5t14 -27.5t-5.5 -28t-24.5 -14q-31 5 -83.5 6.5t-109 -1.5t-107 -11.5t-77.5 -23.5q-5 -72 -1.5 -155t11 -164.5l15 -156.5t10 -131t-3.5 -87.5t-25 -25.5z" />
    <glyph glyph-name="U" unicode="U" horiz-adv-x="640" 
d="M450 360q-8 -14 -12 -47t-10.5 -74t-17 -85t-31.5 -79.5t-54.5 -57t-85.5 -17.5q-63 0 -102 40t-60 106.5t-28 152.5t-6 177.5t6 181t7 164.5q4 11 10.5 21t19.5 10q14 0 19.5 -33.5t7 -88.5t0.5 -125t0.5 -143.5t7 -143.5t20.5 -125t40.5 -88.5t66.5 -33.5q44 0 71 37.5
t43 100t22.5 143t9 164.5t4 165.5t7.5 146.5q0 8 7.5 16t18.5 11.5t22 1.5t19 -14q2 -100 7.5 -200.5t20.5 -201t41 -201.5t70 -201q0 -42 -43 -42q-7 0 -12 2t-11 12.5t-13 32.5t-18 62.5l-26.5 102z" />
    <glyph glyph-name="asciitilde" unicode="~" horiz-adv-x="436" 
d="M412 432q1 -53 -8.5 -81t-25.5 -37.5t-37.5 -4.5t-46 18t-50.5 30.5l-51 33t-47 25.5t-38 8q-15 -7 -22 -19t-10 -25t-4 -25t-5 -19t-12.5 -8t-25.5 9q-12 3 -11 29.5t12.5 57t32 56t47.5 28.5q23 -6 48 -21.5t49.5 -34l47 -37t41 -30t31 -12.5t17.5 15q11 12 12 27
t-2.5 32t-8.5 35t-5 36q22 11 36.5 4.5t22 -21.5t10.5 -34.5t3 -34.5z" />
    <glyph glyph-name="Y" unicode="Y" horiz-adv-x="550" 
d="M229 50l40.5 89t34 89.5t22 93t4.5 98.5l-82 94l-81 90t-77 92t-70 100q0 17 6.5 31t23.5 14q14 -2 36 -21t48.5 -48.5l56 -65.5l59 -72.5l58 -69t52.5 -54.5q23 36 35.5 77.5t22 84.5l18.5 86t24 82q10 0 21 1t19.5 -1t14.5 -8t6 -21l-27 -119l-31.5 -135l-34.5 -142
l-36.5 -141l-36.5 -131.5t-35 -112.5q-7 -20 -21.5 -27.5t-30 -4.5t-27 16.5t-12.5 35.5z" />
    <glyph glyph-name="zero" unicode="0" horiz-adv-x="600" 
d="M300 -1q-76 2 -128 41.5t-82.5 102.5t-41 143t-2 162t33.5 159.5t65.5 136t94.5 91t120 25.5q57 -8 100 -48.5t71.5 -101t42 -135.5t11 -152.5t-20.5 -151.5t-53.5 -133t-88 -96.5t-122.5 -42.5zM374 790q-43 16 -83.5 -6t-75 -69t-61 -112t-40 -136.5t-12 -143
t22.5 -129.5t63.5 -97.5t111.5 -46.5q51 4 89.5 36.5t65.5 83t42.5 114t19.5 130t-3 131t-25 116.5t-47 86.5t-68 42.5z" />
    <glyph glyph-name="one" unicode="1" horiz-adv-x="190" 
d="M80 40q-1 53 -5 116.5t-9.5 131.5t-10.5 139t-6.5 140t0.5 133.5t11 119.5q4 10 11.5 19.5t16 11t17 -7.5t15.5 -35l-4 -186.5t0.5 -191.5t12 -188.5t31.5 -177.5q9 -24 -2 -41t-28 -22t-33 4t-17 35z" />
    <glyph glyph-name="two" unicode="2" horiz-adv-x="760" 
d="M140 70l52 81t58.5 98.5t57 108.5t49 111.5t34.5 108t13 98.5q0 106 -108 106q-35 0 -58.5 -13.5t-39.5 -34t-27 -44t-22 -44t-24 -34t-33 -13.5q-18 0 -27.5 18t-11.5 33q11 39 34.5 75t55 64t70 45t80.5 17q88 0 139.5 -51t51.5 -139q0 -41 -12 -88t-31 -97t-42.5 -101
l-47.5 -100l-45.5 -93.5t-35.5 -81.5l219 58l221 62q16 -1 26.5 -14t13 -29t-4 -30t-25.5 -17q-70 0 -137 -16t-133 -37.5l-132 -43.5t-133 -34q-15 -4 -23.5 2.5t-13 17.5t-6 24.5l-2.5 22.5v4z" />
    <glyph glyph-name="three" unicode="3" horiz-adv-x="536" 
d="M217 76q29 7 64.5 41t69 81.5t59 102.5t36 104t0 85.5t-50.5 48.5q-44 0 -83 -17.5t-72 -43.5t-61 -56.5l-50 -56.5t-39.5 -43.5t-29.5 -17.5q-16 0 -22.5 5.5t-8 14.5t0.5 20t2 23l65 77l68.5 80t60.5 78.5t41.5 73.5t12 65.5t-29.5 53.5q-29 1 -54.5 -19.5t-48 -49
t-41.5 -58.5t-34 -46q-17 0 -19 14t-2 33q0 46 25 81t61 59t76 36t69 12q39 -12 50 -44t7.5 -70t-15 -76t-16.5 -63q52 10 93.5 10.5t69.5 -15.5t43 -50t15 -91q-2 -57 -29 -118t-66 -119.5t-83.5 -112l-80.5 -96.5q-24 -16 -35 -15t-15 12.5t-3.5 30t0.5 36.5z" />
    <glyph glyph-name="four" unicode="4" horiz-adv-x="510" 
d="M220 44q10 23 15.5 52t5 59.5t-7.5 60.5t-23 54q-56 -19 -92.5 -11.5t-58.5 32.5t-31.5 63.5t-12 81.5t-0.5 86t5 78q0 23 9.5 33t21.5 9.5t23 -11.5t16 -31q4 -18 2.5 -43.5t-4 -53.5t-2.5 -56.5t6.5 -51.5t22 -38t45.5 -17q2 0 9 1t15.5 3.5t15.5 6t10 9.5
q6 44 1.5 91.5t-13 96t-16 96t-6.5 93t13.5 87t45.5 77.5q35 15 43.5 -4.5t-10.5 -56.5q-15 -42 -19 -101.5t0.5 -121.5t16.5 -120t29 -98q1 0 2.5 0.5t2.5 0.5l69.5 57.5t90.5 82.5h2q1 0 1.5 0.5t1.5 0.5q14 0 20 -12t6 -23q0 -23 -24.5 -50t-57.5 -54.5l-66.5 -54
t-52.5 -47.5q0 -46 9.5 -90.5t11.5 -93.5q-3 -23 -13 -52.5t-23 -47.5t-28 -15.5t-27 43.5z" />
    <glyph glyph-name="five" unicode="5" horiz-adv-x="460" 
d="M30 85q0 10 8.5 15t20 8t23 5t18.5 7q26 -35 57 -37t62.5 18.5t60 56.5t50 76.5t33 80t8.5 65.5q0 18 -2.5 39t-10.5 39.5t-22.5 30.5t-39.5 12q-31 0 -51.5 -13.5t-34.5 -33.5t-24.5 -43.5t-21 -43.5t-24.5 -33.5t-35 -13.5q-12 0 -21.5 29t-17.5 73t-13 95l-9 95.5
t-5.5 75t-1.5 32.5q0 7 -0.5 22t0.5 31.5t5.5 30.5t15.5 18q41 6 78 10.5t73 11t72.5 15.5t76.5 23q13 1 17.5 -5t4.5 -15q-7 -30 -30 -46t-53 -25.5t-62.5 -14.5t-60.5 -12t-46.5 -19.5t-19.5 -36.5q0 -19 1.5 -52t4.5 -68t7 -67.5t9 -50.5l29 33.5t34.5 34t40 25t46.5 7.5
q40 -3 70 -19.5t50 -42t30 -58.5t10 -70q1 -42 -10.5 -87.5t-32 -89t-48 -82.5t-59.5 -68t-66.5 -45.5t-68.5 -15.5t-66 23t-59 70z" />
    <glyph glyph-name="six" unicode="6" horiz-adv-x="480" 
d="M86 128q-31 51 -45.5 110.5t-14 122t14.5 126t38.5 123t58.5 112t74 94.5q13 0 20.5 -2.5t9.5 -22.5l-74 -143t-59.5 -150t-24 -146.5t31.5 -133.5q3 7 11 28.5t20.5 50t29 60t37 59t44.5 47.5t52 26q36 0 63.5 -17.5t46 -44.5t28 -60t9.5 -65q0 -60 -22 -111.5
t-61 -85.5t-92.5 -48t-115.5 1q-14 -7 -11 -16.5t12 -20.5l19 -22.5t11 -20.5q0 -17 -16.5 -24t-31.5 -7q-19 1 -30 24t-17.5 53.5t-9.5 60t-6 43.5zM166 148q29 -31 58 -37t55.5 6t49.5 38t38.5 58t23.5 66.5t5 64t-18.5 50t-45.5 24.5q-25 -1 -46 -15.5t-38 -38t-30 -52.5
t-23 -59t-17 -57.5z" />
    <glyph glyph-name="seven" unicode="7" horiz-adv-x="520" 
d="M430 738q-81 -13 -137.5 -24l-96.5 -18.5t-65 -11t-43 0t-31 14.5t-27 32q-2 9 3 14.5t12.5 9t16 5t13.5 1.5q32 -16 64 -18.5t63.5 3t63 16.5l63.5 22t63.5 19t63.5 9q14 0 29 -12.5t15 -28.5l-20 -711q0 -12 -3 -22t-10.5 -14.5t-21 -1t-35.5 17.5z" />
    <glyph glyph-name="eight" unicode="8" horiz-adv-x="604" 
d="M277 -1q-43 -4 -72 11.5t-46.5 44t-24 66t-4.5 77t12 76.5t26 64q-34 17 -60.5 53t-44 81.5t-25 97t-4.5 100t18 89t42.5 65.5t69 29t97.5 -21q49 15 82 3t53.5 -41.5t29 -71t9.5 -86t-5 -87t-15 -72.5q78 -3 120 -38.5t52.5 -87t-7.5 -111t-59.5 -111.5t-103.5 -88.5
t-140 -41.5zM519 315q-13 51 -41 71.5t-62 18t-71 -23.5t-67.5 -52.5t-51.5 -69.5t-24 -74t16.5 -66.5t69.5 -47.5q42 0 83.5 18.5t74 51.5t53 77.5t20.5 96.5zM178 785q-32 -9 -50.5 -39t-25 -70t-1 -84t21 -81.5t40 -63t57.5 -27.5q10 0 29.5 7.5t40 19t38.5 24.5t26 24
q13 30 23 71.5t9.5 83t-15.5 75.5t-54 48h-5q-40 -12 -61 -34.5t-32 -45.5t-16 -42t-14 -23q-3 -1 -8.5 0.5l-12.5 3.5t-12.5 4t-8.5 2q3 12 9.5 30.5l14 38t13 37.5t5.5 29q-1 2 -5 6.5t-6 5.5z" />
    <glyph glyph-name="nine" unicode="9" horiz-adv-x="560" 
d="M450 65q2 35 6.5 95.5t6 131t-1 142.5t-13.5 130q-1 0 -2.5 0.5t-2.5 0.5q-17 -47 -52.5 -83.5t-80 -59t-92.5 -27.5t-88.5 11.5t-68.5 57t-33 110.5q0 50 22.5 98t59 86.5t83 64.5t95.5 31q27 -11 54 -16.5t49 -13t36 -19t13 -32.5q-29 0 -56.5 6t-56.5 6
q-36 0 -78 -18.5t-77.5 -49t-59.5 -69.5t-24 -79q0 -48 31 -77t74 -29q49 1 85.5 18.5t63.5 45.5t46.5 64t35.5 74.5t29.5 75.5t28.5 67q9 6 16.5 12.5t12.5 7.5t9.5 -6t7.5 -28l-8 -754q0 -23 -10.5 -32.5t-23 -6t-24 19.5t-12.5 44z" />
    <glyph glyph-name="colon" unicode=":" horiz-adv-x="216" 
d="M76 213q0 21 5 25.5t27 9.5h5q16 2 27 -8t14.5 -25t0 -31t-16.5 -26h-4q-27 0 -42.5 14.5t-15.5 40.5zM57 426q0 18 16 24t30 6q30 -12 40 -29t6.5 -32t-16 -26t-27.5 -10t-29 16t-20 51z" />
    <glyph glyph-name="semicolon" unicode=";" horiz-adv-x="268" 
d="M81 -220q2 -4 9 11t15 41.5t14 61t6 69.5t-8 67t-29 54q0 8 7 21.5t18 13.5q19 -7 32 -31.5t21 -58t10.5 -73t0 -76.5t-10 -68t-19.5 -47.5t-28.5 -14.5t-37.5 30zM103 341q-19 6 -28 20.5t-8 32t12.5 33.5t33.5 24q20 3 31.5 -5t15.5 -22t1.5 -30.5t-10 -30t-20 -20.5
t-28.5 -2z" />
    <glyph glyph-name="parenleft" unicode="(" horiz-adv-x="340" 
d="M232 -64q-75 10 -119.5 51.5t-65 104t-19.5 139.5t16.5 157t42 158t58 142t65 108t62.5 58q9 0 14.5 -4.5t5.5 -17.5l-40 -72t-51 -99t-52 -118t-42 -128t-22.5 -129.5t7 -122t47 -106t97.5 -81.5q45 -7 56.5 -16.5t4 -17t-27 -10t-37.5 3.5z" />
    <glyph glyph-name="parenright" unicode=")" horiz-adv-x="420" 
d="M64 -128q-35 7 -40 24t16 56q65 42 96.5 106t39 140.5t-4.5 160.5t-34 165t-48.5 154.5l-48.5 129.5q-11 20 -12.5 33.5t4.5 18.5t18.5 0.5t29.5 -20.5q93 -191 131.5 -340.5t32.5 -266.5t-53.5 -205t-126.5 -156z" />
    <glyph glyph-name="braceleft" unicode="{" horiz-adv-x="400" 
d="M322 -92q-64 14 -103 44.5t-59.5 69.5t-25.5 83.5t-0.5 87t14.5 79.5t20 62q-15 0 -33 1.5t-33.5 8t-26 21t-10.5 40.5q0 15 15 33.5t33 38.5t33 41t15 42q-56 2 -80 36t-22.5 85.5t24.5 113t60.5 119.5t85.5 104.5t100 68.5q14 7 20.5 4t7 -12t-5 -21t-15.5 -22
q-40 -26 -81.5 -73t-74.5 -101t-52 -107t-13.5 -92t41.5 -55.5t112 3.5q8 -10 -1.5 -28.5t-29 -40.5t-43 -45.5t-42 -44t-27.5 -35.5t1 -21t43 0.5t99 28.5q-13 -26 -30.5 -70t-30.5 -94.5t-17.5 -102t10 -92.5t51.5 -66.5t106 -22.5q15 -8 16 -19.5t-6 -22t-19.5 -18.5
t-25.5 -9z" />
    <glyph glyph-name="braceright" unicode="}" horiz-adv-x="356" 
d="M58 -117q-29 0 -34 18.5t5 47.5q42 -12 74.5 6t54.5 53.5t33.5 83t10 96t-16.5 91.5t-44 69q15 32 26 50.5t19 30l14 19.5t10 20q-17 13 -40.5 25t-45.5 27t-39 35.5t-20 50.5q33 39 50.5 89t22 101.5t-2 100.5t-20.5 87.5t-34.5 62t-43.5 23.5q5 17 11.5 18.5t20.5 2.5
q52 -11 82 -52t37.5 -105.5t-6.5 -150.5t-50 -186q15 -14 39.5 -22t47.5 -18.5t41 -26.5t20 -45q0 -20 -9.5 -35t-20.5 -30t-20.5 -32t-9.5 -40q18 -44 26 -96t5.5 -104t-15 -100t-36.5 -84.5t-59.5 -58.5t-82.5 -22z" />
    <glyph glyph-name="bracketleft" unicode="[" horiz-adv-x="440" 
d="M58 58q5 76 0 163t-13.5 173.5l-17 166t-11.5 140.5t3.5 98t28.5 39q32 -3 63.5 3t62.5 14.5t62 16t62 7.5q19 0 30 -11.5t11 -29.5q0 -14 -15.5 -24t-39.5 -17.5t-53 -13t-54.5 -9.5t-44.5 -8t-24 -8v-51.5t1 -62t2.5 -83.5l3.5 -116.5t5 -161t8 -215.5q9 -33 33 -45.5
t54.5 -15t64 -0.5t62.5 -1t50 -16.5t26 -46.5q0 -6 -3.5 -14t-9.5 -15t-13 -11.5t-14 -4.5q-29 16 -65 21t-72.5 7t-71 5.5t-60 15.5t-40 38t-11.5 73z" />
    <glyph glyph-name="bracketright" unicode="]" horiz-adv-x="430" 
d="M70 50q-3 8 0.5 19t10 21.5t15 18.5t14.5 11q2 1 10 -4.5t10 -5.5q1 0 6 -0.5t8 -0.5q2 0 16 0.5t33.5 2.5t42 5t41 7.5t31 10.5t12.5 15v350q0 42 -9.5 82t-20.5 80.5t-20.5 81.5t-9.5 83q-5 0 -16 0.5t-24 1.5t-24.5 1h-15.5q-2 0 -7.5 -1.5l-12.5 -3.5t-13 -3.5
t-7 -1.5q-17 0 -38 1.5t-39.5 8.5t-31 19.5t-12.5 35.5q0 12 3.5 19t16.5 7q18 0 34.5 -10.5t30.5 -10.5q60 0 112.5 10t103.5 30h5q17 0 26 -12t9 -28q0 -35 -10.5 -69t-10.5 -71q0 -29 5 -49t12 -37.5t14 -37t10 -46.5q3 -20 2 -36.5l-2 -31.5t0.5 -29.5t9.5 -32.5v-370
q0 -6 -6.5 -10.5t-15 -6.5t-16.5 -3t-12 -1q-3 0 -7.5 -0.5t-9 0.5t-8.5 3.5t-5 7.5q-10 -15 -26.5 -20.5t-34.5 -7l-36.5 -3t-32.5 -9.5q-2 -1 -6 -5.5t-9 -9.5l-9.5 -9.5l-5.5 -5.5q-8 -3 -21 3t-26 15.5t-22.5 19t-10.5 12.5z" />
    <glyph glyph-name="plus" unicode="+" horiz-adv-x="536" 
d="M256 312q-31 4 -49 3.5t-33.5 -2.5t-33.5 -5t-48 -4q-12 0 -16.5 7.5t-5 18.5t1 23t1.5 21q19 5 45.5 7.5t52.5 4t46.5 2.5t28.5 4v110q0 13 9 21t21 9.5t23.5 -3.5t16.5 -17q1 -32 4 -55.5t11.5 -38t24.5 -21.5t43 -6q14 0 25.5 2l22.5 4t22.5 3t26.5 0q8 -17 15 -26.5
t9.5 -16.5t-2.5 -14.5t-22 -20.5q-8 0 -31 1.5t-49.5 1.5t-49.5 -3t-30 -10l12 -168l-88 12z" />
    <glyph glyph-name="underscore" unicode="_" horiz-adv-x="440" 
d="M19 30q18 26 57 32t90 3.5t110 -7.5t116 1q19 0 27.5 -3.5t8.5 -23.5t-24 -30t-61.5 -13.5t-82.5 -2.5t-87 4.5t-74.5 6.5t-45.5 3q-14 0 -24 7.5t-10 22.5z" />
    <glyph glyph-name="Euro" unicode="&#x20ac;" horiz-adv-x="624" 
d="M201 271q-7 1 -24.5 -1.5l-37 -5.5t-37.5 -5.5t-25 -1.5q-17 -4 -24 7t-7 26t6.5 29.5t15.5 17.5l132 14q1 0 6 19t6 47q-1 22 -19 27.5t-42 3t-47 -9t-35 -7.5q-26 -3 -38.5 7.5t-10.5 25t19 29t49 19.5q31 10 70 15l83 11q24 64 59.5 126t77.5 109t88.5 74t93.5 22
q18 1 34.5 -11t24.5 -25.5t3 -23.5t-30 -5q-16 3 -50 -9.5t-73 -40t-75.5 -71.5t-58.5 -105q27 -3 52 -1.5t50 5l50 7t51 5.5q0 -43 -17 -64t-43 -28.5t-56 -7t-57 -0.5t-45.5 -8t-21.5 -29l-22 -93q48 0 79 -2.5t57.5 -2t56 7t74.5 24.5q8 0 18.5 -1.5t10.5 -19.5
q0 -24 -17 -38t-43.5 -21.5t-59 -10.5t-63.5 -4t-56.5 -2.5t-37.5 -6.5q-4 -77 11 -119.5t41 -58.5t59.5 -10.5t65.5 25t59 48.5t41 59q14 0 21 -16.5t7 -39.5q-25 -59 -64.5 -94.5t-84.5 -48.5t-89.5 -4t-80.5 39.5t-58.5 81.5t-21.5 122z" />
    <glyph glyph-name="sterling" unicode="&#xa3;" horiz-adv-x="820" 
d="M255 -1q-13 -3 -26.5 -3t-22.5 5.5t-11.5 17t5.5 31.5l18 63.5t14.5 65.5t6 66t-8.5 65q-47 -9 -93 -10t-97 0q-6 4 -13 14t-7 16q0 18 27 26.5t63 12.5t70.5 5.5t49.5 5.5q-5 68 10 131t44.5 116t70 94t85 64t90.5 26t86 -19q45 -28 56 -53.5t2.5 -39.5t-30 -12
t-40.5 29q-27 25 -58.5 27.5t-63 -14t-61 -48.5t-52 -76t-36 -96.5t-13.5 -108.5h104.5t113.5 10q14 1 22.5 -7.5t8.5 -20t-10.5 -23t-34.5 -15.5l-184 -14q-22 -4 -31 -32.5t-10.5 -65.5t0.5 -74t2 -57q52 16 105.5 25t107 9t106.5 -10.5t105 -34.5h5q9 34 21.5 40.5t24 -4
t19 -31.5t6.5 -41t-14 -34t-42 -10q-47 19 -103 33.5t-119 17t-131 -11t-137 -50.5z" />
    <glyph glyph-name="dollar" unicode="$" horiz-adv-x="584" 
d="M296 76q-6 0 -24.5 -3t-43 -6.5t-52 -6.5t-51 -3.5t-39.5 2.5t-17 13q0 28 3 40t7.5 15t9.5 1.5t8 -1.5q15 -11 43 -10t58.5 8t59 17.5t45.5 19.5q-1 7 -1.5 15.5t-2.5 17t-5.5 16t-10.5 11.5q-32 -4 -75 -1t-82.5 16.5t-67 39.5t-27.5 69q1 42 20 82.5t46.5 79.5
t58.5 76.5t57 72.5q0 15 -4.5 29t-10.5 27.5t-10.5 26.5t-4.5 27q0 4 4 12.5t10 16.5t13 13.5t13 2.5q12 -5 22 -18.5t18 -29t13 -30.5t7 -22q29 0 50 11.5t40.5 25.5t40.5 27t49 16q16 0 23.5 -12t7.5 -24q0 -15 -13.5 -26t-33.5 -21t-43.5 -18.5t-43.5 -17.5t-33.5 -20
t-13.5 -25q0 -34 9 -76t21 -86l23.5 -86.5t16.5 -77.5q70 12 112 6t60 -23t13.5 -41.5t-28 -50t-63.5 -47.5t-94 -34q4 -57 -3.5 -98t-21 -52t-30.5 14.5t-32 99.5zM383 192l38.5 14.5t25.5 12.5t-6.5 6.5t-57.5 -3.5v-30zM112 361q0 -30 23 -45.5t54 -21.5t61.5 -6h45.5
q3 27 0 64.5t-11.5 75t-21.5 71t-30 53.5q-13 0 -33.5 -25.5t-40 -58.5t-33.5 -64t-14 -43z" />
    <glyph glyph-name="numbersign" unicode="#" horiz-adv-x="748" 
d="M437 270q-20 0 -47.5 3t-52 1.5t-41.5 -12.5t-17 -39t6 -54.5t6 -54.5q-33 -7 -48.5 0.5t-22 26.5t-9.5 47.5t-11 63.5h-140q-8 0 -9.5 8t-1.5 12q0 15 10.5 22.5t26.5 10.5t35.5 3.5t37 2t31.5 6t20 15.5q3 28 1.5 55.5t-4.5 55t-5.5 54.5t-1.5 55q-44 -6 -85 -15.5
t-85 -14.5q-17 12 -20 32.5t10 37.5q16 4 37.5 7.5l44.5 7.5t46 7.5t42 7.5v110q0 7 4 11.5t9.5 6.5t11.5 3t10 1q20 0 25 -17.5t10 -39t17.5 -39t48.5 -17.5q12 0 23.5 1.5t21 6t15 12.5t5.5 22q0 11 -5 29t-7 35.5t3 31t24 14.5q22 0 30.5 -17.5t13.5 -38t11 -38t23 -17.5
q30 0 48 3.5t34.5 7.5t35 7.5t48.5 3.5q24 -27 19.5 -39.5t-24 -17t-49.5 -5t-56.5 -2.5t-45 -10t-15.5 -27q11 -49 14.5 -90.5t6.5 -73.5t9.5 -53.5t23.5 -32t48.5 -9t84.5 16.5q18 -2 30 -8t12 -21q0 -11 -5.5 -18t-16.5 -13l-171 -19l7 -150q-9 -9 -22 -14.5t-24.5 -4
t-19.5 10t-6 28.5zM290 332q15 0 36.5 -2t43 -2t41 5t29.5 19q0 64 -8 126.5t-22 133.5h-10q-13 -3 -30 -6t-34.5 -8t-32.5 -13.5t-23 -22.5z" />
    <glyph glyph-name="asterisk" unicode="*" horiz-adv-x="688" 
d="M83 87q14 46 38.5 89.5l49 88t45.5 91t28 97.5q-7 23 -19 43.5t-25.5 39.5l-26 37t-20.5 38q1 22 10.5 31.5t25 11.5t34 -2.5t36.5 -10.5l34.5 -11.5t26.5 -6.5q9 0 12.5 12t5.5 30t3.5 38.5t6 38.5t14 30t27.5 12q24 -3 35.5 -30t14.5 -61.5t1 -68t-4 -48.5
q9 -4 36 -12.5t58.5 -20.5t62.5 -26t48.5 -29t16 -29t-33.5 -26q-27 -20 -53 -34t-51.5 -25.5l-49.5 -23t-46 -27.5q0 -14 9.5 -41t15.5 -54t2 -49t-31 -27q-24 0 -34.5 14t-17.5 32t-15.5 34.5t-29.5 21.5q-34 -14 -59 -40t-48.5 -56l-47.5 -58.5t-55 -47.5
q-15 0 -22.5 10.5t-7.5 24.5zM300 377q-5 0 -10 -9t-9 -20.5t-6.5 -22.5t-2.5 -15q6 0 16.5 1t20.5 3.5t16.5 7t5.5 11.5zM400 495q0 -2 -1 -15t0.5 -28t7 -27.5t17.5 -12.5q25 0 50.5 15t39.5 36l-55.5 22t-58.5 10zM294 553q-4 0 -6.5 -7.5t-4 -16.5t-0.5 -16.5t5 -7.5
q17 4 26 13.5t10 18.5t-6.5 14.5t-23.5 1.5z" />
    <glyph glyph-name="period" unicode="." horiz-adv-x="184" 
d="M53 65q0 17 12 26.5t29 9.5q10 0 21 -6t20 -15t14.5 -19.5t5.5 -19.5q0 -12 -2.5 -27.5t-17.5 -15.5q-12 0 -26.5 5.5t-27 15t-20.5 21.5t-8 25z" />
    <glyph glyph-name="breve" unicode="&#x2d8;" horiz-adv-x="376" 
d="M15 752q0 8 5.5 13.5t14 8.5t18.5 4.5t19 1.5q7 -35 25.5 -60t41.5 -38t47 -14t42 12t26.5 41.5t0.5 74.5v3q0 1 1 2q5 8 15 18.5t20 12.5q34 -38 41 -73t-5 -64t-38.5 -50t-59.5 -32t-69 -10t-67 17t-52.5 48.5t-25.5 83.5z" />
    <glyph glyph-name="caron" unicode="&#x2c7;" horiz-adv-x="388" 
d="M112 812l96 -120q14 30 22 50t17 36.5t22.5 32t40.5 34.5q15 0 21.5 -5t8.5 -13t1 -19.5t-1 -23.5q-31 -16 -42.5 -37t-17.5 -45.5t-14 -52.5t-30 -57q-16 0 -43 23t-55.5 52.5t-52 57.5t-31.5 39z" />
    <glyph glyph-name="acute" unicode="&#xb4;" horiz-adv-x="172" 
d="M144 725q-11 -22 -23 -34.5t-25 -22l-28 -20t-33 -28.5q-23 8 -28 18.5t0.5 22.5t20 25l30 26l30.5 25.5t22 23.5q22 0 28 -9.5t6 -26.5z" />
    <glyph glyph-name="slash" unicode="/" horiz-adv-x="384" 
d="M13 25q8 31 29.5 95.5l50 144.5l60 167l59 163.5l47 134t24.5 77.5q1 26 18 41t33.5 16t25.5 -13.5t-4 -46.5q-26 -106 -62.5 -202.5l-74 -192.5t-70 -195t-49.5 -209q-6 -19 -22.5 -26.5t-32 -4.5t-26.5 16t-6 35z" />
    <glyph glyph-name="backslash" unicode="\" horiz-adv-x="408" 
d="M287 -25q-9 22 -23.5 66l-32.5 101.5l-38.5 124l-41 134l-40.5 132l-36.5 118l-29 91.5t-18.5 53q-14 16 -11.5 33.5t14 27.5t27.5 7.5t30 -27.5q42 -99 71 -204l58 -210t63.5 -207.5t87.5 -198.5q0 -1 1 -2v-2q0 -1 1 -1q8 -19 -0.5 -34.5t-23.5 -22.5t-32 -3t-26 24z
" />
    <glyph glyph-name="fraction" unicode="&#x2044;" horiz-adv-x="384" 
d="M13 25q8 31 29.5 95.5l50 144.5l60 167l59 163.5l47 134t24.5 77.5q1 26 18 41t33.5 16t25.5 -13.5t-4 -46.5q-26 -106 -62.5 -202.5l-74 -192.5t-70 -195t-49.5 -209q-6 -19 -22.5 -26.5t-32 -4.5t-26.5 16t-6 35z" />
    <glyph glyph-name="bar" unicode="|" horiz-adv-x="190" 
d="M80 40q-1 53 -5 116.5t-9.5 131.5t-10.5 139t-6.5 140t0.5 133.5t11 119.5q4 10 11.5 19.5t16 11t17 -7.5t15.5 -35l-4 -186.5t0.5 -191.5t12 -188.5t31.5 -177.5q9 -24 -2 -41t-28 -22t-33 4t-17 35z" />
    <glyph glyph-name="macron" unicode="&#xaf;" horiz-adv-x="456" 
d="M23 651q18 26 57 32t90 3.5t110 -7.5t116 1q19 0 27.5 -3.5t8.5 -23.5t-24 -30t-61.5 -13.5t-82.5 -2.5t-87 4.5t-74.5 6.5t-45.5 3q-14 0 -24 7.5t-10 22.5z" />
    <glyph glyph-name="ampersand" unicode="&#x26;" horiz-adv-x="588" 
d="M312 16q-1 -27 -19 -35.5t-37.5 -3.5t-32.5 22t-2 42q6 21 6.5 48t5.5 50q-7 2 -19 4t-25.5 4.5t-25.5 6t-18 8.5q-45 34 -63 65.5t-14.5 61t26 58.5t60.5 60q-46 24 -67.5 75t2.5 122q9 12 25 23.5t35.5 22t42 18.5t44.5 13q-1 31 -1.5 61t-0.5 60q7 27 17 36t19.5 7
t18 -11.5t13.5 -19.5q5 -31 8 -64t5 -69q16 -4 25.5 -10t23.5 -17t24.5 -21t0.5 -23q-16 -1 -32 1.5t-41 4.5q0 -39 2 -86.5t-1 -89.5q21 0 30 1.5t17 4t20 5t39 3.5q9 -7 18.5 -12.5t16 -11.5t7 -14t-8.5 -20q-7 -9 -16 -12t-24.5 -5.5t-40.5 -5t-63 -9.5
q-2 -23 -1.5 -41.5t2 -36.5t2 -36.5t-0.5 -39.5q34 -2 54.5 0t34 8t25 15.5l28.5 22.5q14 -11 29 -21.5t21.5 -20.5t1.5 -18.5t-31 -15.5q-36 0 -54.5 -6.5t-32.5 -15t-31.5 -16.5t-50.5 -10q-2 -29 1 -60.5t3 -55.5zM155 590q-9 -30 -5.5 -54.5t16.5 -42.5t34 -29.5
t45 -16.5q1 39 -2.5 86t-4.5 86q-23 -2 -48 -8t-35 -21zM156 306q-11 -18 -8 -31t15.5 -23.5t34 -17.5t48.5 -13q2 18 1.5 32.5t-2 28.5l-3 28.5t-0.5 32.5q-10 -5 -22 -7.5t-24 -6.5t-22.5 -9t-17.5 -14z" />
    <glyph glyph-name="quotesingle" unicode="'" horiz-adv-x="148" 
d="M60 644q11 15 14 40.5t1 52.5t-7 51.5l-8 39.5q5 3 15.5 5t18.5 -7q10 -9 16.5 -29.5t8.5 -46t-1 -53t-11 -49.5q5 -4 -1.5 -7t-16 -3.5t-19 0.5t-10.5 6z" />
    <glyph glyph-name="quoteright" unicode="&#x2019;" horiz-adv-x="148" 
d="M60 644q11 15 14 40.5t1 52.5t-7 51.5l-8 39.5q5 3 15.5 5t18.5 -7q10 -9 16.5 -29.5t8.5 -46t-1 -53t-11 -49.5q5 -4 -1.5 -7t-16 -3.5t-19 0.5t-10.5 6z" />
    <glyph glyph-name="quoteleft" unicode="&#x2018;" horiz-adv-x="148" 
d="M116 644q-1 -5 -12 -6t-23 -0.5t-20 3.5t-2 7q-10 22 -13 49.5t-0.5 53t10 46t19.5 29.5q9 9 22 7t19 -5q-4 -15 -9.5 -39.5t-8 -51.5t0.5 -52.5t17 -40.5z" />
    <glyph glyph-name="quotedbl" unicode="&#x22;" horiz-adv-x="228" 
d="M60 644q11 15 14 40.5t1 52.5t-7 51.5l-8 39.5q5 3 15.5 5t18.5 -7q10 -9 16.5 -29.5t8.5 -46t-1 -53t-11 -49.5q5 -4 -1.5 -7t-16 -3.5t-19 0.5t-10.5 6zM137 648q11 15 14 40.5t1 52.5t-7 51.5l-8 39.5q5 3 15.5 5t18.5 -7q10 -9 16.5 -29.5t8.5 -46t-1 -53t-11 -49.5
q5 -4 -1.5 -7t-16 -3.5t-19 0.5t-10.5 6z" />
    <glyph glyph-name="quotedblleft" unicode="&#x201c;" horiz-adv-x="228" 
d="M204 648q-1 -5 -12 -6t-23 -0.5t-19.5 3.5t-1.5 7q-10 22 -13.5 48.5t-1 52t10 45.5t19.5 28q9 9 22 7t19 -5q-4 -14 -9.5 -38.5t-8 -51t0.5 -51t17 -39.5zM112 652q-1 -5 -12 -6t-23 -0.5t-19.5 3.5t-1.5 7q-10 22 -13 48.5t-0.5 52t10 45.5t19.5 28q9 9 21.5 7t18.5 -5
q-4 -14 -9.5 -38.5t-8 -51t0.5 -51t17 -39.5z" />
    <glyph glyph-name="quotedblright" unicode="&#x201d;" horiz-adv-x="228" 
d="M60 644q11 15 14 40.5t1 52.5t-7 51.5l-8 39.5q5 3 15.5 5t18.5 -7q10 -9 16.5 -29.5t8.5 -46t-1 -53t-11 -49.5q5 -4 -1.5 -7t-16 -3.5t-19 0.5t-10.5 6zM137 648q11 15 14 40.5t1 52.5t-7 51.5l-8 39.5q5 3 15.5 5t18.5 -7q10 -9 16.5 -29.5t8.5 -46t-1 -53t-11 -49.5
q5 -4 -1.5 -7t-16 -3.5t-19 0.5t-10.5 6z" />
    <glyph glyph-name="quotedblbase" unicode="&#x201e;" horiz-adv-x="228" 
d="M53 20q11 15 14 40.5t1 52.5t-7 51.5l-8 39.5q5 3 15.5 5t18.5 -7q10 -9 16.5 -29.5t8.5 -46t-1 -53t-11 -49.5q5 -4 -1.5 -7t-16 -3.5t-19 0.5t-10.5 6zM130 24q11 15 14 40.5t1 52.5t-7 51.5l-8 39.5q5 3 15.5 5t18.5 -7q10 -9 16.5 -29.5t8.5 -46t-1 -53t-11 -49.5
q5 -4 -1.5 -7t-16 -3.5t-19 0.5t-10.5 6z" />
    <glyph glyph-name="quotesinglbase" unicode="&#x201a;" horiz-adv-x="148" 
d="M52 4q11 15 14 40.5t1 52.5t-7 51.5l-8 39.5q5 3 15.5 5t18.5 -7q10 -9 16.5 -29.5t8.5 -46t-1 -53t-11 -49.5q5 -4 -1.5 -7t-16 -3.5t-19 0.5t-10.5 6z" />
    <glyph glyph-name="ellipsis" unicode="&#x2026;" horiz-adv-x="552" 
d="M53 65q0 17 12 26.5t29 9.5q10 0 21 -6t20 -15t14.5 -19.5t5.5 -19.5q0 -12 -2.5 -27.5t-17.5 -15.5q-12 0 -26.5 5.5t-27 15t-20.5 21.5t-8 25zM237 65q0 17 12 26.5t29 9.5q10 0 21 -6t20 -15t14.5 -19.5t5.5 -19.5q0 -12 -2.5 -27.5t-17.5 -15.5q-12 0 -26.5 5.5
t-27 15t-20.5 21.5t-8 25zM421 65q0 17 12 26.5t29 9.5q10 0 21 -6t20 -15t14.5 -19.5t5.5 -19.5q0 -12 -2.5 -27.5t-17.5 -15.5q-12 0 -26.5 5.5t-27 15t-20.5 21.5t-8 25z" />
    <glyph glyph-name="dieresis" unicode="&#xa8;" horiz-adv-x="348" 
d="M23 680q0 17 12 26.5t29 9.5q10 0 21 -6t20 -15t14.5 -19.5t5.5 -19.5q0 -12 -2.5 -27.5t-17.5 -15.5q-12 0 -26.5 5.5t-27 15t-20.5 21.5t-8 25zM207 680q0 17 12 26.5t29 9.5q10 0 21 -6t20 -15t14.5 -19.5t5.5 -19.5q0 -12 -2.5 -27.5t-17.5 -15.5q-12 0 -26.5 5.5
t-27 15t-20.5 21.5t-8 25z" />
    <glyph glyph-name="hyphen" unicode="-" horiz-adv-x="396" 
d="M40 280q-14 3 -18 13.5t-2 22.5t8 22t12 12q6 0 20 1t43 2t79 2.5t128 4.5q34 0 49 -10.5t14 -24t-17.5 -25t-45.5 -12.5z" />
    <glyph glyph-name="emdash" unicode="&#x2014;" horiz-adv-x="508" 
d="M40 280q-14 3 -18 13.5t-2 22.5t8 22t12 12q6 0 37.5 1t82.5 2t118.5 2.5t145.5 4.5q34 0 49 -10.5t14 -24t-17.5 -25t-45.5 -12.5z" />
    <glyph glyph-name="endash" unicode="&#x2013;" horiz-adv-x="432" 
d="M40 280q-14 3 -18 13.5t-2 22.5t8 22t12 12h24.5t53.5 0.5t89.5 1.5t132.5 4q34 0 49 -10.5t14 -24t-17.5 -25t-45.5 -12.5z" />
    <glyph glyph-name="question" unicode="?" horiz-adv-x="604" 
d="M152 477q54 17 108.5 26.5t101 19.5t81 25t49.5 44q27 51 13 96.5t-68 73.5t-147.5 32.5t-225.5 -26.5q-9 16 -7 28t10 19t19 10.5t20 3.5q159 15 261 -3t154.5 -57.5t60 -93.5t-21.5 -111q-18 -35 -49 -57t-75 -36.5t-101 -24.5l-127 -22q0 -18 1 -39t1.5 -41t0.5 -36.5
t-1 -26.5q-3 -39 -11 -57.5t-17.5 -18.5t-18.5 18t-13 52q-2 13 -2 41t0.5 58.5t1.5 59t2 43.5zM138 78q0 18 16 24t30 6q30 -12 40 -29t6.5 -32t-16 -26t-27.5 -10t-29 16t-20 51z" />
    <glyph glyph-name="less" unicode="&#x3c;" horiz-adv-x="368" 
d="M302 86q-32 22 -65 52t-62 60.5t-50.5 59.5t-30.5 50q1 10 16.5 27.5t38.5 37.5t50.5 40.5t54 36.5t48.5 25.5t33 8.5q10 -2 14.5 -6t6 -9.5t0.5 -12.5l-2 -14q-15 -17 -44 -37l-59.5 -39.5l-57.5 -36t-37 -25.5l166 -166q10 -13 13 -25t0 -20.5t-11.5 -11t-21.5 4.5z
" />
    <glyph glyph-name="greater" unicode="&#x3e;" horiz-adv-x="392" 
d="M98 94q-15 -7 -24.5 -4.5t-13 10.5t0 20t14.5 25l188 163q-12 9 -42 25l-65 35t-67.5 39t-49.5 36l-2 14t0.5 12.5t6.5 9t17 5.5q13 1 37.5 -8.5t54.5 -25t61.5 -35.5t57.5 -39.5t43 -37t19 -27.5q-10 -20 -34.5 -48.5t-57.5 -58.5t-70.5 -59t-73.5 -51z" />
    <glyph glyph-name="equal" unicode="=" horiz-adv-x="456" 
d="M84 208q-14 3 -18 13.5t-2 22.5t8 22t12 12q6 0 20 1t43 2t79 2.5t128 4.5q34 0 49 -10.5t14 -24t-17.5 -25t-45.5 -12.5zM94 324q-14 3 -18 13.5t-2 22.5t8 22t12 12q6 0 20 1t43 2t79 2.5t128 4.5q34 0 49 -10.5t14 -24t-17.5 -25t-45.5 -12.5z" />
    <glyph glyph-name="at" unicode="@" horiz-adv-x="932" 
d="M564 48q17 8 35 9.5t32 -2t21 -11.5t1.5 -18t-26.5 -21t-63 -21q-124 -19 -214.5 4t-149 74t-86.5 123t-26 151.5t32.5 160t88.5 147.5t142 114t194 61q77 5 136 -23t99.5 -79.5t62 -121.5t23 -148t-17.5 -159.5t-60 -156.5q-11 -10 -29 -23.5t-37.5 -19.5t-39.5 0.5
t-36 36t-25.5 87.5t-8.5 156q-16 -36 -41 -77t-56 -76t-66 -58t-71.5 -23.5t-71.5 26.5t-66 93q-14 67 -2 125.5t41.5 106t72 83t89 57t91.5 27.5t80 -4.5t55 -40t16 -78.5q-21 -142 -22.5 -226.5t9 -123t30.5 -37t40.5 30.5t39.5 79.5t27.5 110t4 122.5t-30 116.5t-75.5 92
t-132 49.5q-89 6 -162.5 -25.5t-128 -86t-87.5 -125.5t-41 -143.5t11 -139.5t68 -113.5t130.5 -65.5t199.5 4zM621 517q3 38 -13.5 55t-44.5 17.5t-63.5 -14t-70.5 -39.5t-66 -58.5t-50 -72.5t-22 -80.5t18 -82.5q15 -40 41 -49.5t57 4t64 46t62.5 77t52.5 95.5t35 102z" />
    <glyph glyph-name="comma" unicode="," horiz-adv-x="268" 
d="M88 -156q3 -6 15 18.5t19 63t2 82t-36 76.5q0 8 7 21.5t18 13.5q27 -2 45 -30t25.5 -67t5 -81t-14 -72t-33.5 -40t-53 15z" />
    <glyph glyph-name="percent" unicode="%" horiz-adv-x="632" 
d="M177 520q-35 -1 -56.5 17.5t-30.5 47t-6.5 63.5t14 68t32 60.5t47.5 41.5q44 1 96.5 8l104.5 14t99.5 10.5t80 -1.5t46.5 -22t0 -51q-21 -54 -54 -112t-72 -119.5l-81 -127t-80 -134t-68 -140.5t-46 -147q-8 -21 -23 -31.5t-28 -9t-19.5 16t3.5 43.5q6 29 25.5 75
t47.5 103l61.5 120.5l68.5 126l68 121l59.5 105.5l44 78t20.5 40q-18 -5 -59.5 -7.5t-91 -3.5t-98.5 -1.5t-82 -3.5q32 -1 50 -20t24 -46t1.5 -59t-17.5 -59t-34 -45.5t-47 -18.5zM485 278q33 -8 52 -28.5t26 -47.5t3.5 -56t-16 -54t-32.5 -42.5t-45 -20.5q-40 -1 -64 16.5
t-33.5 44.5t-6 59t18 60t39.5 47.5t58 21.5zM468 75q22 9 35 30t15.5 43.5t-5.5 42t-28 25.5q-18 0 -32.5 -10t-23 -24.5t-11.5 -32t1 -33t16 -27t33 -14.5zM203 722q-29 -14 -45 -37.5t-19 -46.5t7 -39.5t33 -16.5q20 0 34.5 20t19.5 45t-1.5 47.5t-28.5 27.5z" />
    <glyph glyph-name="ring" unicode="&#x2da;" horiz-adv-x="312" 
d="M216 597q-24 -3 -51.5 -1.5t-54.5 6.5t-51.5 14.5t-42.5 23.5q1 5 3.5 6.5t5.5 2t6.5 1.5t5.5 4q-4 32 12 52.5t42.5 30.5t58.5 10t60.5 -9.5t49.5 -27.5t25 -44q2 -14 -2.5 -25.5t-14 -20.5t-23 -15t-29.5 -8zM82 664q5 -15 24.5 -21t42.5 -5t44.5 7t30.5 15
q-3 19 -25 30.5t-47.5 13t-47 -8t-22.5 -31.5z" />
    <glyph glyph-name="dotlessi" unicode="&#x131;" horiz-adv-x="270" 
d="M60 616q8 33 22 34.5t26.5 -13t19 -37t-0.5 -35.5q3 -28 0.5 -71t-6.5 -91.5t-7.5 -98.5t-3.5 -93t5.5 -74t19 -42t38 3.5t62.5 62.5q22 -17 18.5 -42t-20 -49.5t-40.5 -44t-43 -25.5q-38 -8 -58.5 13t-31 54.5t-12.5 70t-2 58.5z" />
    <glyph glyph-name="ogonek" unicode="&#x2db;" horiz-adv-x="220" 
d="M200 -144q-9 -13 -21 -23t-25 -16t-25 -8.5t-21 0.5q-35 15 -49 42.5t-14 60t11 65.5t28 59l39 -20q-17 -33 -19 -65.5t7 -51.5t27 -18.5t41 34.5z" />
    <glyph glyph-name="hungarumlaut" unicode="&#x2dd;" horiz-adv-x="344" 
d="M184 736q-11 -22 -23 -34.5t-25 -22l-28 -20t-33 -28.5q-23 8 -28 18.5t0.5 22.5t20 25l30 26l30.5 25.5t22 23.5q22 0 28 -9.5t6 -26.5zM316 725q-11 -22 -23 -34.5t-25 -22l-28 -20t-33 -28.5q-23 8 -28 18.5t0.5 22.5t20 25l30 26l30.5 25.5t22 23.5q22 0 28 -9.5
t6 -26.5z" />
    <glyph glyph-name="dotaccent" unicode="&#x2d9;" horiz-adv-x="184" 
d="M43 684q0 18 13 25t28 7q8 0 18 -5t18.5 -13t13.5 -18t2 -20q-5 -21 -19.5 -25t-30 2t-28 19.5t-15.5 27.5z" />
    <glyph glyph-name="exclamdown" unicode="&#xa1;" horiz-adv-x="188" 
d="M38.623 450.979q3.19238 -41.2529 3.72461 -72.6611t-1.06445 -60.9414q-1.5957 -29.5332 -2.66016 -59.5352t-1.06445 -67.5039q0 -37.5029 3.19336 -86.7246q3.19238 -49.2217 10.6416 -115.789h5.32129q14.8984 0 31.3936 6.09375q16.4951 6.09473 16.4951 22.0332
q8.51367 65.6289 9.0459 116.727q0.532227 51.0967 -1.06348 94.2246q-1.59668 43.1279 -4.78906 80.1611q-3.19336 37.0342 -3.19336 74.0674q0 37.0342 4.78906 76.4111q4.78906 39.3779 18.624 86.2559q-19.1553 17.8135 -33.5225 21.0957
q-14.3672 3.28125 -25.0088 -3.28223q-10.6426 -6.5625 -17.0273 -20.626q-6.38574 -14.0635 -9.57812 -30.002t-4.25684 -32.3457t0 -27.6582zM29.0449 724.747q0 -16.876 13.835 -23.4385q13.835 -6.56348 29.7979 -6.56348q8.51367 0 19.1562 4.68848
q10.6416 4.6875 19.6875 12.1875q9.0459 7.50098 14.3672 16.877q5.32031 9.375 2.12793 18.751q-5.32129 19.6885 -20.752 23.4385q-15.4307 3.75098 -31.9268 -1.875q-16.4951 -5.625 -29.7979 -18.2822q-13.3018 -12.6572 -16.4951 -25.7832z" />
    <glyph glyph-name="tilde" unicode="&#x2dc;" horiz-adv-x="436" 
d="M424 728q1 -53 -8.5 -81t-25.5 -37.5t-37.5 -4.5t-46 18t-50.5 30.5l-51 33t-47 25.5t-38 8q-15 -7 -22 -19t-10 -25t-4 -25t-5 -19t-12.5 -8t-25.5 9q-12 3 -11 29.5t12.5 57t32 56t47.5 28.5q23 -6 48 -21.5t49.5 -34l47 -37t41 -30t31 -12.5t17.5 15q11 12 12 27
t-2.5 32t-8.5 35t-5 36q22 11 36.5 4.5t22 -21.5t10.5 -34.5t3 -34.5z" />
    <glyph glyph-name="circumflex" unicode="&#x2c6;" horiz-adv-x="370" 
d="M20 632q6 33 24 73t43.5 77t55.5 66t59 41q15 0 39 -23.5t46 -55.5t38 -64t16 -49q0 -10 -6 -16t-14 -9t-18 -4t-17 -1q-21 0 -34 13t-21.5 31.5t-15 39.5t-15.5 37q-1 0 -2.5 0.5t-2.5 0.5q-14 0 -23.5 -12.5t-18 -32t-17 -41.5t-19 -41.5t-24 -32t-33.5 -12.5h-10
t-13.5 1.5t-11.5 4.5t-5 9z" />
    <glyph glyph-name="questiondown" unicode="&#xbf;" horiz-adv-x="604" 
d="M464.113 366.726q-51.8271 -17.5801 -104.136 -27.4043q-52.3076 -9.82422 -96.9375 -20.165q-44.6299 -10.3418 -77.7422 -25.8535t-47.5088 -45.501q-25.9141 -52.7402 -12.4766 -99.792q13.4365 -47.0527 65.2646 -76.0078q51.8281 -28.9561 141.567 -33.6094
t216.43 27.4043q8.6377 -16.5459 6.71875 -28.9551q-1.91992 -12.4102 -9.59766 -19.6484q-7.67871 -7.23926 -18.2363 -10.8584t-19.1953 -3.61914q-152.604 -15.5117 -250.502 3.10254q-97.8975 18.6133 -148.286 59.4609q-50.3877 40.8486 -57.5869 96.6904
q-7.19824 55.8428 20.6357 114.787q17.2764 36.1943 47.0293 58.9453q29.7529 22.75 71.9834 37.7451q42.2305 14.9941 96.9375 25.3359l121.892 22.75q0 18.6143 -0.959961 40.3311t-1.43945 42.3994q-0.479492 20.6816 -0.479492 37.7451q0 17.0625 0.958984 27.4043
q2.87988 40.3301 10.5576 59.4619q7.67871 19.1309 16.7969 19.1309q9.11719 0 17.7559 -18.6143q8.6377 -18.6143 12.4766 -53.7744q1.91992 -13.4434 1.91992 -42.3984t-0.480469 -60.4961q-0.479492 -31.541 -1.43945 -61.0127q-0.959961 -29.4727 -1.91992 -44.9844z
M477.551 779.339q0 -18.6143 -15.3564 -24.8193q-15.3564 -6.2041 -28.7939 -6.2041q-28.793 12.4092 -38.3906 29.9893t-6.23828 33.0918t15.3564 26.8867q11.9971 11.376 26.3936 10.3418t27.834 -16.5459q13.4365 -15.5117 19.1953 -52.7402z" />
    <glyph glyph-name="germandbls" unicode="&#xdf;" horiz-adv-x="784" 
d="M108 -92q-7 -7 -19.5 -16.5t-23.5 -11.5q-13 14 -15.5 59.5t1.5 109t12 139.5t14 151.5t8.5 144.5t-3.5 119q-6 68 15.5 110t59 62t85.5 20t95 -15t86.5 -42.5t60.5 -63.5t17.5 -77.5t-43.5 -84.5q32 0 69.5 -7t74.5 -21t69.5 -35.5t55.5 -50.5t32.5 -65.5t-0.5 -80.5
q-14 -37 -45 -69t-73 -57t-91 -42.5t-99.5 -25t-98.5 -5.5t-86 16q-51 15 -79 31t-36 30t1 24.5t31 13.5t54.5 -3t70.5 -25q30 1 67 3t76 6.5t77 12.5t70 21.5t56 34.5t35 51q15 38 1 68t-47.5 50.5t-82 32t-103.5 14t-112 -4t-108 -22.5l11 77q31 10 59.5 20.5t53 25.5
t43 35t28.5 49t-11.5 54.5t-58 40.5t-81 18t-81 -12t-58 -51.5t-12.5 -99.5z" />
    <glyph glyph-name="minus" unicode="&#x2212;" horiz-adv-x="396" 
d="M40 280q-14 3 -18 13.5t-2 22.5t8 22t12 12q6 0 20 1t43 2t79 2.5t128 4.5q34 0 49 -10.5t14 -24t-17.5 -25t-45.5 -12.5z" />
    <glyph glyph-name="divide" unicode="&#xf7;" horiz-adv-x="416" 
d="M196 189q0 21 5 25.5t27 9.5h5q16 2 27 -8t14.5 -25t0 -31t-16.5 -26h-4q-27 0 -42.5 14.5t-15.5 40.5zM148 436q0 18 16 24t30 6q30 -12 40 -29t6.5 -32t-16 -26t-27.5 -10t-29 16t-20 51zM67 256q-14 3 -18 13.5t-2 22.5t8 22t12 12q6 0 20 1t43 2t79 2.5t128 4.5
q34 0 49 -10.5t14 -24t-17.5 -25t-45.5 -12.5z" />
    <glyph glyph-name="commaaccent" unicode="&#xf6c3;" horiz-adv-x="256" 
d="M84 -312q3 -6 15 18.5t19 63t2 82t-36 76.5q0 8 7 21.5t18 13.5q27 -2 45 -30t25.5 -67t5 -81t-14 -72t-33.5 -40t-53 15z" />
    <glyph glyph-name="Aacute" unicode="&#xc1;" horiz-adv-x="812" 
d="M86 -1q-33 -4 -50.5 5t-23.5 24t-2 31.5t15.5 26.5t28.5 10.5t36 -16.5q49 20 82.5 62.5t57.5 87.5h-22.5t-30.5 2t-29.5 6.5t-20 13t-2 23t24.5 35.5q31 -2 65.5 -1t64.5 11q16 26 34.5 76t38 110.5l40 123t40.5 114t39.5 84.5t37.5 33q40 -36 65.5 -83.5t43.5 -101.5
t33.5 -112t37.5 -114l162 56q12 0 20.5 -9.5t12.5 -22t2.5 -24t-11.5 -14.5q-24 -15 -47.5 -20.5t-44.5 -11t-38 -16t-27 -37.5q0 -34 11.5 -71t25 -74.5t25 -74.5t11.5 -71q0 -10 -2.5 -21.5t-7.5 -21t-13.5 -16t-21.5 -6.5h-5q-21 36 -31.5 82.5t-19 94.5t-19.5 94.5
t-32 83.5q-37 -16 -74 -25.5t-74.5 -18t-75.5 -18.5t-76 -28q-21 -8 -38 -30.5t-32.5 -51.5l-32.5 -60.5t-38.5 -58t-48.5 -43.5t-64 -17zM510 720q-21 -42 -41.5 -91t-38 -98.5t-30.5 -96.5t-20 -84q56 10 120.5 28t121.5 32q0 33 -9.5 75t-25 85t-36 82.5t-41.5 67.5z
M506 1005q-11 -22 -23 -34.5t-25 -22l-28 -20t-33 -28.5q-23 8 -28 18.5t0.5 22.5t20 25l30 26l30.5 25.5t22 23.5q22 0 28 -9.5t6 -26.5z" />
    <glyph glyph-name="Abreve" unicode="&#x102;" horiz-adv-x="812" 
d="M86 -1q-33 -4 -50.5 5t-23.5 24t-2 31.5t15.5 26.5t28.5 10.5t36 -16.5q49 20 82.5 62.5t57.5 87.5h-22.5t-30.5 2t-29.5 6.5t-20 13t-2 23t24.5 35.5q31 -2 65.5 -1t64.5 11q16 26 34.5 76t38 110.5l40 123t40.5 114t39.5 84.5t37.5 33q40 -36 65.5 -83.5t43.5 -101.5
t33.5 -112t37.5 -114l162 56q12 0 20.5 -9.5t12.5 -22t2.5 -24t-11.5 -14.5q-24 -15 -47.5 -20.5t-44.5 -11t-38 -16t-27 -37.5q0 -34 11.5 -71t25 -74.5t25 -74.5t11.5 -71q0 -10 -2.5 -21.5t-7.5 -21t-13.5 -16t-21.5 -6.5h-5q-21 36 -31.5 82.5t-19 94.5t-19.5 94.5
t-32 83.5q-37 -16 -74 -25.5t-74.5 -18t-75.5 -18.5t-76 -28q-21 -8 -38 -30.5t-32.5 -51.5l-32.5 -60.5t-38.5 -58t-48.5 -43.5t-64 -17zM510 720q-21 -42 -41.5 -91t-38 -98.5t-30.5 -96.5t-20 -84q56 10 120.5 28t121.5 32q0 33 -9.5 75t-25 85t-36 82.5t-41.5 67.5z
M338 1060q0 8 5.5 13.5t14 8.5t18.5 4.5t19 1.5q7 -35 25.5 -60t41.5 -38t47 -14t42 12t26.5 41.5t0.5 74.5v3q0 1 1 2q5 8 15 18.5t20 12.5q34 -38 41 -73t-5 -64t-38.5 -50t-59.5 -32t-69 -10t-67 17t-52.5 48.5t-25.5 83.5z" />
    <glyph glyph-name="Acircumflex" unicode="&#xc2;" horiz-adv-x="812" 
d="M86 -1q-33 -4 -50.5 5t-23.5 24t-2 31.5t15.5 26.5t28.5 10.5t36 -16.5q49 20 82.5 62.5t57.5 87.5h-22.5t-30.5 2t-29.5 6.5t-20 13t-2 23t24.5 35.5q31 -2 65.5 -1t64.5 11q16 26 34.5 76t38 110.5l40 123t40.5 114t39.5 84.5t37.5 33q40 -36 65.5 -83.5t43.5 -101.5
t33.5 -112t37.5 -114l162 56q12 0 20.5 -9.5t12.5 -22t2.5 -24t-11.5 -14.5q-24 -15 -47.5 -20.5t-44.5 -11t-38 -16t-27 -37.5q0 -34 11.5 -71t25 -74.5t25 -74.5t11.5 -71q0 -10 -2.5 -21.5t-7.5 -21t-13.5 -16t-21.5 -6.5h-5q-21 36 -31.5 82.5t-19 94.5t-19.5 94.5
t-32 83.5q-37 -16 -74 -25.5t-74.5 -18t-75.5 -18.5t-76 -28q-21 -8 -38 -30.5t-32.5 -51.5l-32.5 -60.5t-38.5 -58t-48.5 -43.5t-64 -17zM510 720q-21 -42 -41.5 -91t-38 -98.5t-30.5 -96.5t-20 -84q56 10 120.5 28t121.5 32q0 33 -9.5 75t-25 85t-36 82.5t-41.5 67.5z
M333 900q6 33 24 73t43.5 77t55.5 66t59 41q15 0 39 -23.5t46 -55.5t38 -64t16 -49q0 -10 -6 -16t-14 -9t-18 -4t-17 -1q-21 0 -34 13t-21.5 31.5t-15 39.5t-15.5 37q-1 0 -2.5 0.5t-2.5 0.5q-14 0 -23.5 -12.5t-18 -32t-17 -41.5t-19 -41.5t-24 -32t-33.5 -12.5h-10
t-13.5 1.5t-11.5 4.5t-5 9z" />
    <glyph glyph-name="Agrave" unicode="&#xc0;" horiz-adv-x="812" 
d="M86 -1q-33 -4 -50.5 5t-23.5 24t-2 31.5t15.5 26.5t28.5 10.5t36 -16.5q49 20 82.5 62.5t57.5 87.5h-22.5t-30.5 2t-29.5 6.5t-20 13t-2 23t24.5 35.5q31 -2 65.5 -1t64.5 11q16 26 34.5 76t38 110.5l40 123t40.5 114t39.5 84.5t37.5 33q40 -36 65.5 -83.5t43.5 -101.5
t33.5 -112t37.5 -114l162 56q12 0 20.5 -9.5t12.5 -22t2.5 -24t-11.5 -14.5q-24 -15 -47.5 -20.5t-44.5 -11t-38 -16t-27 -37.5q0 -34 11.5 -71t25 -74.5t25 -74.5t11.5 -71q0 -10 -2.5 -21.5t-7.5 -21t-13.5 -16t-21.5 -6.5h-5q-21 36 -31.5 82.5t-19 94.5t-19.5 94.5
t-32 83.5q-37 -16 -74 -25.5t-74.5 -18t-75.5 -18.5t-76 -28q-21 -8 -38 -30.5t-32.5 -51.5l-32.5 -60.5t-38.5 -58t-48.5 -43.5t-64 -17zM510 720q-21 -42 -41.5 -91t-38 -98.5t-30.5 -96.5t-20 -84q56 10 120.5 28t121.5 32q0 33 -9.5 75t-25 85t-36 82.5t-41.5 67.5z
M414 1024q0 18 5.5 27.5t25.5 9.5q7 -12 20.5 -24.5l28 -26l27.5 -26.5t18.5 -25.5t0.5 -23.5t-26 -19q-16 19 -30 29.5t-26 20.5t-23 22.5t-21 35.5z" />
    <glyph glyph-name="Adieresis" unicode="&#xc4;" horiz-adv-x="812" 
d="M86 -1q-33 -4 -50.5 5t-23.5 24t-2 31.5t15.5 26.5t28.5 10.5t36 -16.5q49 20 82.5 62.5t57.5 87.5h-22.5t-30.5 2t-29.5 6.5t-20 13t-2 23t24.5 35.5q31 -2 65.5 -1t64.5 11q16 26 34.5 76t38 110.5l40 123t40.5 114t39.5 84.5t37.5 33q40 -36 65.5 -83.5t43.5 -101.5
t33.5 -112t37.5 -114l162 56q12 0 20.5 -9.5t12.5 -22t2.5 -24t-11.5 -14.5q-24 -15 -47.5 -20.5t-44.5 -11t-38 -16t-27 -37.5q0 -34 11.5 -71t25 -74.5t25 -74.5t11.5 -71q0 -10 -2.5 -21.5t-7.5 -21t-13.5 -16t-21.5 -6.5h-5q-21 36 -31.5 82.5t-19 94.5t-19.5 94.5
t-32 83.5q-37 -16 -74 -25.5t-74.5 -18t-75.5 -18.5t-76 -28q-21 -8 -38 -30.5t-32.5 -51.5l-32.5 -60.5t-38.5 -58t-48.5 -43.5t-64 -17zM510 720q-21 -42 -41.5 -91t-38 -98.5t-30.5 -96.5t-20 -84q56 10 120.5 28t121.5 32q0 33 -9.5 75t-25 85t-36 82.5t-41.5 67.5z
M375 972q0 17 12 26.5t29 9.5q10 0 21 -6t20 -15t14.5 -19.5t5.5 -19.5q0 -12 -2.5 -27.5t-17.5 -15.5q-12 0 -26.5 5.5t-27 15t-20.5 21.5t-8 25zM559 972q0 17 12 26.5t29 9.5q10 0 21 -6t20 -15t14.5 -19.5t5.5 -19.5q0 -12 -2.5 -27.5t-17.5 -15.5q-12 0 -26.5 5.5
t-27 15t-20.5 21.5t-8 25z" />
    <glyph glyph-name="Amacron" unicode="&#x100;" horiz-adv-x="812" 
d="M86 -1q-33 -4 -50.5 5t-23.5 24t-2 31.5t15.5 26.5t28.5 10.5t36 -16.5q49 20 82.5 62.5t57.5 87.5h-22.5t-30.5 2t-29.5 6.5t-20 13t-2 23t24.5 35.5q31 -2 65.5 -1t64.5 11q16 26 34.5 76t38 110.5l40 123t40.5 114t39.5 84.5t37.5 33q40 -36 65.5 -83.5t43.5 -101.5
t33.5 -112t37.5 -114l162 56q12 0 20.5 -9.5t12.5 -22t2.5 -24t-11.5 -14.5q-24 -15 -47.5 -20.5t-44.5 -11t-38 -16t-27 -37.5q0 -34 11.5 -71t25 -74.5t25 -74.5t11.5 -71q0 -10 -2.5 -21.5t-7.5 -21t-13.5 -16t-21.5 -6.5h-5q-21 36 -31.5 82.5t-19 94.5t-19.5 94.5
t-32 83.5q-37 -16 -74 -25.5t-74.5 -18t-75.5 -18.5t-76 -28q-21 -8 -38 -30.5t-32.5 -51.5l-32.5 -60.5t-38.5 -58t-48.5 -43.5t-64 -17zM510 720q-21 -42 -41.5 -91t-38 -98.5t-30.5 -96.5t-20 -84q56 10 120.5 28t121.5 32q0 33 -9.5 75t-25 85t-36 82.5t-41.5 67.5z
M317 951q18 26 57 32t90 3.5t110 -7.5t116 1q19 0 27.5 -3.5t8.5 -23.5t-24 -30t-61.5 -13.5t-82.5 -2.5t-87 4.5t-74.5 6.5t-45.5 3q-14 0 -24 7.5t-10 22.5z" />
    <glyph glyph-name="Aogonek" unicode="&#x104;" horiz-adv-x="812" 
d="M86 -1q-33 -4 -50.5 5t-23.5 24t-2 31.5t15.5 26.5t28.5 10.5t36 -16.5q49 20 82.5 62.5t57.5 87.5h-22.5t-30.5 2t-29.5 6.5t-20 13t-2 23t24.5 35.5q31 -2 65.5 -1t64.5 11q16 26 34.5 76t38 110.5l40 123t40.5 114t39.5 84.5t37.5 33q40 -36 65.5 -83.5t43.5 -101.5
t33.5 -112t37.5 -114l162 56q12 0 20.5 -9.5t12.5 -22t2.5 -24t-11.5 -14.5q-24 -15 -47.5 -20.5t-44.5 -11t-38 -16t-27 -37.5q0 -34 11.5 -71t25 -74.5t25 -74.5t11.5 -71q0 -10 -2.5 -21.5t-7.5 -21t-13.5 -16t-21.5 -6.5h-5q-21 36 -31.5 82.5t-19 94.5t-19.5 94.5
t-32 83.5q-37 -16 -74 -25.5t-74.5 -18t-75.5 -18.5t-76 -28q-21 -8 -38 -30.5t-32.5 -51.5l-32.5 -60.5t-38.5 -58t-48.5 -43.5t-64 -17zM510 720q-21 -42 -41.5 -91t-38 -98.5t-30.5 -96.5t-20 -84q56 10 120.5 28t121.5 32q0 33 -9.5 75t-25 85t-36 82.5t-41.5 67.5z
M842 -128q-9 -13 -21 -23t-25 -16t-25 -8.5t-21 0.5q-35 15 -49 42.5t-14 60t11 65.5t28 59l39 -20q-17 -33 -19 -65.5t7 -51.5t27 -18.5t41 34.5z" />
    <glyph glyph-name="Aring" unicode="&#xc5;" horiz-adv-x="812" 
d="M86 -1q-33 -4 -50.5 5t-23.5 24t-2 31.5t15.5 26.5t28.5 10.5t36 -16.5q49 20 82.5 62.5t57.5 87.5h-22.5t-30.5 2t-29.5 6.5t-20 13t-2 23t24.5 35.5q31 -2 65.5 -1t64.5 11q16 26 34.5 76t38 110.5l40 123t40.5 114t39.5 84.5t37.5 33q40 -36 65.5 -83.5t43.5 -101.5
t33.5 -112t37.5 -114l162 56q12 0 20.5 -9.5t12.5 -22t2.5 -24t-11.5 -14.5q-24 -15 -47.5 -20.5t-44.5 -11t-38 -16t-27 -37.5q0 -34 11.5 -71t25 -74.5t25 -74.5t11.5 -71q0 -10 -2.5 -21.5t-7.5 -21t-13.5 -16t-21.5 -6.5h-5q-21 36 -31.5 82.5t-19 94.5t-19.5 94.5
t-32 83.5q-37 -16 -74 -25.5t-74.5 -18t-75.5 -18.5t-76 -28q-21 -8 -38 -30.5t-32.5 -51.5l-32.5 -60.5t-38.5 -58t-48.5 -43.5t-64 -17zM510 720q-21 -42 -41.5 -91t-38 -98.5t-30.5 -96.5t-20 -84q56 10 120.5 28t121.5 32q0 33 -9.5 75t-25 85t-36 82.5t-41.5 67.5z
M548 857q-24 -3 -51.5 -1.5t-54.5 6.5t-51.5 14.5t-42.5 23.5q1 5 3.5 6.5t5.5 2t6.5 1.5t5.5 4q-4 32 12 52.5t42.5 30.5t58.5 10t60.5 -9.5t49.5 -27.5t25 -44q2 -14 -2.5 -25.5t-14 -20.5t-23 -15t-29.5 -8zM414 924q5 -15 24.5 -21t42.5 -5t44.5 7t30.5 15
q-3 19 -25 30.5t-47.5 13t-47 -8t-22.5 -31.5z" />
    <glyph glyph-name="Atilde" unicode="&#xc3;" horiz-adv-x="812" 
d="M86 -1q-33 -4 -50.5 5t-23.5 24t-2 31.5t15.5 26.5t28.5 10.5t36 -16.5q49 20 82.5 62.5t57.5 87.5h-22.5t-30.5 2t-29.5 6.5t-20 13t-2 23t24.5 35.5q31 -2 65.5 -1t64.5 11q16 26 34.5 76t38 110.5l40 123t40.5 114t39.5 84.5t37.5 33q40 -36 65.5 -83.5t43.5 -101.5
t33.5 -112t37.5 -114l162 56q12 0 20.5 -9.5t12.5 -22t2.5 -24t-11.5 -14.5q-24 -15 -47.5 -20.5t-44.5 -11t-38 -16t-27 -37.5q0 -34 11.5 -71t25 -74.5t25 -74.5t11.5 -71q0 -10 -2.5 -21.5t-7.5 -21t-13.5 -16t-21.5 -6.5h-5q-21 36 -31.5 82.5t-19 94.5t-19.5 94.5
t-32 83.5q-37 -16 -74 -25.5t-74.5 -18t-75.5 -18.5t-76 -28q-21 -8 -38 -30.5t-32.5 -51.5l-32.5 -60.5t-38.5 -58t-48.5 -43.5t-64 -17zM510 720q-21 -42 -41.5 -91t-38 -98.5t-30.5 -96.5t-20 -84q56 10 120.5 28t121.5 32q0 33 -9.5 75t-25 85t-36 82.5t-41.5 67.5z
M736 1004q1 -53 -8.5 -81t-25.5 -37.5t-37.5 -4.5t-46 18t-50.5 30.5l-51 33t-47 25.5t-38 8q-15 -7 -22 -19t-10 -25t-4 -25t-5 -19t-12.5 -8t-25.5 9q-12 3 -11 29.5t12.5 57t32 56t47.5 28.5q23 -6 48 -21.5t49.5 -34l47 -37t41 -30t31 -12.5t17.5 15q11 12 12 27
t-2.5 32t-8.5 35t-5 36q22 11 36.5 4.5t22 -21.5t10.5 -34.5t3 -34.5z" />
    <glyph glyph-name="AE" unicode="&#xc6;" horiz-adv-x="1204" 
d="M80 -28q-33 -4 -50.5 5t-23.5 24t-2 31.5t15.5 26.5t28.5 10.5t36 -16.5q49 20 82.5 62.5t57.5 87.5h-22.5t-30.5 2t-29.5 6.5t-20 13t-2 23t24.5 35.5q31 -2 65.5 -1t64.5 11q16 26 34.5 76t38 110.5l40 123t40.5 114t39.5 84.5t37.5 33q18 -16 32.5 -34.5t26.5 -38.5
l-2 8q-8 28 16 39.5t66 13t97 -2.5t110 -7.5t103.5 -2.5t78.5 14q24 -6 24.5 -29.5t-14.5 -48.5q-36 2 -84 -4.5t-98 -14.5l-98 -15t-84 -6q-22 0 -26 -22.5t2.5 -59.5t18.5 -83.5t22 -94.5q1 0 15.5 2.5t57 11l121.5 23.5l209 40q28 -12 28.5 -24.5t-18.5 -24.5t-53 -23.5
t-75 -23l-84 -23t-79.5 -22.5t-63 -21t-33.5 -20q-1 -21 -0.5 -40t1.5 -36q8 -31 20 -62t23 -63q15 -16 34 -23t41.5 -7.5t48.5 5t54 15.5q24 5 57 17.5l66.5 25t62 21.5t44.5 7.5t14 -17.5t-30 -53q-42 -17 -88 -33t-93.5 -30t-95 -24.5t-93.5 -15.5q-2 -20 -12 -39.5
t-33 -19.5h-5q-21 36 -31.5 82.5t-19 94.5t-19.5 94.5t-32 83.5q-37 -16 -74 -25.5t-74.5 -18t-75.5 -18.5t-76 -28q-21 -8 -38 -30.5t-32.5 -51.5l-32.5 -60.5t-38.5 -58t-48.5 -43.5t-64 -17zM504 693q-21 -42 -41.5 -91t-38 -98.5t-30.5 -96.5t-20 -84q56 10 120.5 28
t121.5 32q0 33 -9.5 75t-25 85t-36 82.5t-41.5 67.5z" />
    <glyph glyph-name="AEacute" unicode="&#x1fc;" horiz-adv-x="1204" 
d="M80 -28q-33 -4 -50.5 5t-23.5 24t-2 31.5t15.5 26.5t28.5 10.5t36 -16.5q49 20 82.5 62.5t57.5 87.5h-22.5t-30.5 2t-29.5 6.5t-20 13t-2 23t24.5 35.5q31 -2 65.5 -1t64.5 11q16 26 34.5 76t38 110.5l40 123t40.5 114t39.5 84.5t37.5 33q18 -16 32.5 -34.5t26.5 -38.5
l-2 8q-8 28 16 39.5t66 13t97 -2.5t110 -7.5t103.5 -2.5t78.5 14q24 -6 24.5 -29.5t-14.5 -48.5q-36 2 -84 -4.5t-98 -14.5l-98 -15t-84 -6q-22 0 -26 -22.5t2.5 -59.5t18.5 -83.5t22 -94.5q1 0 15.5 2.5t57 11l121.5 23.5l209 40q28 -12 28.5 -24.5t-18.5 -24.5t-53 -23.5
t-75 -23l-84 -23t-79.5 -22.5t-63 -21t-33.5 -20q-1 -21 -0.5 -40t1.5 -36q8 -31 20 -62t23 -63q15 -16 34 -23t41.5 -7.5t48.5 5t54 15.5q24 5 57 17.5l66.5 25t62 21.5t44.5 7.5t14 -17.5t-30 -53q-42 -17 -88 -33t-93.5 -30t-95 -24.5t-93.5 -15.5q-2 -20 -12 -39.5
t-33 -19.5h-5q-21 36 -31.5 82.5t-19 94.5t-19.5 94.5t-32 83.5q-37 -16 -74 -25.5t-74.5 -18t-75.5 -18.5t-76 -28q-21 -8 -38 -30.5t-32.5 -51.5l-32.5 -60.5t-38.5 -58t-48.5 -43.5t-64 -17zM504 693q-21 -42 -41.5 -91t-38 -98.5t-30.5 -96.5t-20 -84q56 10 120.5 28
t121.5 32q0 33 -9.5 75t-25 85t-36 82.5t-41.5 67.5zM702 1005q-11 -22 -23 -34.5t-25 -22l-28 -20t-33 -28.5q-23 8 -28 18.5t0.5 22.5t20 25l30 26l30.5 25.5t22 23.5q22 0 28 -9.5t6 -26.5z" />
    <glyph glyph-name="Cacute" unicode="&#x106;" horiz-adv-x="480" 
d="M20 260q-3 49 4.5 111t25 125t46 123t69 106.5t92 73.5t115.5 25q18 -3 31.5 -11.5t21 -20t6.5 -23.5t-12 -21q-73 21 -131 -9.5t-99.5 -94t-66 -152t-30.5 -184.5q-2 -69 18 -116t52.5 -74.5t74 -37t84 -4t80.5 25t64 50.5q1 -40 -17.5 -70t-48.5 -49.5t-66.5 -28
t-69.5 -5.5q-54 0 -98.5 20.5t-77 55.5t-50 83t-17.5 102zM340 1005q-11 -22 -23 -34.5t-25 -22l-28 -20t-33 -28.5q-23 8 -28 18.5t0.5 22.5t20 25l30 26l30.5 25.5t22 23.5q22 0 28 -9.5t6 -26.5z" />
    <glyph glyph-name="Ccaron" unicode="&#x10c;" horiz-adv-x="480" 
d="M20 260q-3 49 4.5 111t25 125t46 123t69 106.5t92 73.5t115.5 25q18 -3 31.5 -11.5t21 -20t6.5 -23.5t-12 -21q-73 21 -131 -9.5t-99.5 -94t-66 -152t-30.5 -184.5q-2 -69 18 -116t52.5 -74.5t74 -37t84 -4t80.5 25t64 50.5q1 -40 -17.5 -70t-48.5 -49.5t-66.5 -28
t-69.5 -5.5q-54 0 -98.5 20.5t-77 55.5t-50 83t-17.5 102zM152 1092l96 -120q14 30 22 50t17 36.5t22.5 32t40.5 34.5q15 0 21.5 -5t8.5 -13t1 -19.5t-1 -23.5q-31 -16 -42.5 -37t-17.5 -45.5t-14 -52.5t-30 -57q-16 0 -43 23t-55.5 52.5t-52 57.5t-31.5 39z" />
    <glyph glyph-name="Ccedilla" unicode="&#xc7;" horiz-adv-x="480" 
d="M20 260q-3 49 4.5 111t25 125t46 123t69 106.5t92 73.5t115.5 25q18 -3 31.5 -11.5t21 -20t6.5 -23.5t-12 -21q-73 21 -131 -9.5t-99.5 -94t-66 -152t-30.5 -184.5q-2 -69 18 -116t52.5 -74.5t74 -37t84 -4t80.5 25t64 50.5q1 -40 -17.5 -70t-48.5 -49.5t-66.5 -28
t-69.5 -5.5q-54 0 -98.5 20.5t-77 55.5t-50 83t-17.5 102zM205 -299q11 9 28.5 12t38.5 4t44.5 2t46.5 4.5t44 12t38 25.5q17 48 9 72.5t-30.5 33t-55 6.5t-63 -7.5t-55 -9t-30.5 2.5q3 36 2 53t-2.5 30.5l-3.5 30.5t-2 53q0 18 13 30.5t30 12.5q18 0 26 -9t11 -22t2 -29
t-2 -29t-0.5 -22t6.5 -9q74 0 116.5 -8t63.5 -21t26 -28t5 -29q10 -54 0.5 -92.5t-32.5 -64t-56.5 -40t-70 -20t-74 -4.5t-68.5 7q-7 0 -8.5 5t-1 12.5t2.5 17t2 17.5z" />
    <glyph glyph-name="Ccircumflex" unicode="&#x108;" horiz-adv-x="480" 
d="M20 260q-3 49 4.5 111t25 125t46 123t69 106.5t92 73.5t115.5 25q18 -3 31.5 -11.5t21 -20t6.5 -23.5t-12 -21q-73 21 -131 -9.5t-99.5 -94t-66 -152t-30.5 -184.5q-2 -69 18 -116t52.5 -74.5t74 -37t84 -4t80.5 25t64 50.5q1 -40 -17.5 -70t-48.5 -49.5t-66.5 -28
t-69.5 -5.5q-54 0 -98.5 20.5t-77 55.5t-50 83t-17.5 102zM135 828q6 33 24 73t43.5 77t55.5 66t59 41q15 0 39 -23.5t46 -55.5t38 -64t16 -49q0 -10 -6 -16t-14 -9t-18 -4t-17 -1q-21 0 -34 13t-21.5 31.5t-15 39.5t-15.5 37q-1 0 -2.5 0.5t-2.5 0.5q-14 0 -23.5 -12.5
t-18 -32t-17 -41.5t-19 -41.5t-24 -32t-33.5 -12.5h-10t-13.5 1.5t-11.5 4.5t-5 9z" />
    <glyph glyph-name="Cdotaccent" unicode="&#x10a;" horiz-adv-x="480" 
d="M20 260q-3 49 4.5 111t25 125t46 123t69 106.5t92 73.5t115.5 25q18 -3 31.5 -11.5t21 -20t6.5 -23.5t-12 -21q-73 21 -131 -9.5t-99.5 -94t-66 -152t-30.5 -184.5q-2 -69 18 -116t52.5 -74.5t74 -37t84 -4t80.5 25t64 50.5q1 -40 -17.5 -70t-48.5 -49.5t-66.5 -28
t-69.5 -5.5q-54 0 -98.5 20.5t-77 55.5t-50 83t-17.5 102zM290 940q0 18 13 25t28 7q8 0 18 -5t18.5 -13t13.5 -18t2 -20q-5 -21 -19.5 -25t-30 2t-28 19.5t-15.5 27.5z" />
    <glyph glyph-name="Dcaron" unicode="&#x10e;" horiz-adv-x="588" 
d="M104 8q-12 7 -18.5 11.5t-9.5 9.5t-4 12.5t-1 19.5h83l6.5 23t3.5 18t0.5 23t-2.5 38.5t-5.5 64t-8 100t-9.5 145.5t-11 202q-12 -3 -24.5 -9.5t-24.5 -13.5t-23.5 -12.5t-22.5 -5.5q-17 0 -22 15t-5 27q0 19 13 29.5t31 16.5t37 10.5t31 12.5q-1 6 -2.5 20.5t0 30.5
t7 28t18.5 12q16 0 24 -9.5t12 -24t7 -31.5t10 -32q114 2 192.5 -31.5t124.5 -89t61 -126.5t2.5 -143.5t-50.5 -140t-98.5 -116.5t-142 -73.5t-179.5 -10.5zM188 672q7 -38 11 -88.5t6.5 -107.5l5 -117t6 -115.5t9 -103t14.5 -80.5q79 25 134.5 68.5t89 96.5t45.5 112
t5 114.5t-32.5 104t-67 80t-99 43t-127.5 -6.5zM206 1092l96 -120q14 30 22 50t17 36.5t22.5 32t40.5 34.5q15 0 21.5 -5t8.5 -13t1 -19.5t-1 -23.5q-31 -16 -42.5 -37t-17.5 -45.5t-14 -52.5t-30 -57q-16 0 -43 23t-55.5 52.5t-52 57.5t-31.5 39z" />
    <glyph glyph-name="Dcroat" unicode="&#x110;" horiz-adv-x="588" 
d="M104 8q-12 7 -18.5 11.5t-9.5 9.5t-4 12.5t-1 19.5h83l6.5 23t3.5 18t0.5 23t-2.5 38.5t-5.5 64t-8 100t-9.5 145.5t-11 202q-12 -3 -24.5 -9.5t-24.5 -13.5t-23.5 -12.5t-22.5 -5.5q-17 0 -22 15t-5 27q0 19 13 29.5t31 16.5t37 10.5t31 12.5q-1 6 -2.5 20.5t0 30.5
t7 28t18.5 12q16 0 24 -9.5t12 -24t7 -31.5t10 -32q114 2 192.5 -31.5t124.5 -89t61 -126.5t2.5 -143.5t-50.5 -140t-98.5 -116.5t-142 -73.5t-179.5 -10.5zM188 672q7 -38 11 -88.5t6.5 -107.5l5 -117t6 -115.5t9 -103t14.5 -80.5q79 25 134.5 68.5t89 96.5t45.5 112
t5 114.5t-32.5 104t-67 80t-99 43t-127.5 -6.5zM-14 404q18 26 57 32t90 3.5t110 -7.5t116 1q19 0 27.5 -3.5t8.5 -23.5t-24 -30t-61.5 -13.5t-82.5 -2.5t-87 4.5t-74.5 6.5t-45.5 3q-14 0 -24 7.5t-10 22.5z" />
    <glyph glyph-name="Eacute" unicode="&#xc9;" horiz-adv-x="628" 
d="M103 96q8 19 5 58t-12.5 89t-22.5 107.5t-24.5 114.5t-20 109.5t-8.5 93t10.5 64.5t36.5 24q43 0 94 -1t104 1.5t104.5 10.5t96.5 27q24 -6 24.5 -29.5t-14.5 -48.5q-36 2 -84 -4.5t-98 -14.5l-98 -15t-84 -6q-22 0 -26 -22.5t2.5 -59.5t18.5 -83.5t22 -94.5q1 0 31.5 6
l74.5 15l95.5 19l95.5 18.5l74 14t32 4.5q27 -12 18 -27.5t-43.5 -32t-88 -32.5t-114.5 -29l-29 -7.5l-45 -11.5l-45 -11t-29 -6q-7 -99 7 -155t44 -80t73.5 -21.5t95.5 20.5q24 5 57 17.5l66.5 25t62 21.5t44.5 7.5t14 -17.5t-30 -53q-45 -18 -94.5 -35t-100 -31.5
t-101.5 -25t-100 -13.5q-45 11 -82.5 34t-55.5 43.5t-9.5 29.5t56.5 -7zM414 1005q-11 -22 -23 -34.5t-25 -22l-28 -20t-33 -28.5q-23 8 -28 18.5t0.5 22.5t20 25l30 26l30.5 25.5t22 23.5q22 0 28 -9.5t6 -26.5z" />
    <glyph glyph-name="Ebreve" unicode="&#x114;" horiz-adv-x="628" 
d="M103 96q8 19 5 58t-12.5 89t-22.5 107.5t-24.5 114.5t-20 109.5t-8.5 93t10.5 64.5t36.5 24q43 0 94 -1t104 1.5t104.5 10.5t96.5 27q24 -6 24.5 -29.5t-14.5 -48.5q-36 2 -84 -4.5t-98 -14.5l-98 -15t-84 -6q-22 0 -26 -22.5t2.5 -59.5t18.5 -83.5t22 -94.5q1 0 31.5 6
l74.5 15l95.5 19l95.5 18.5l74 14t32 4.5q27 -12 18 -27.5t-43.5 -32t-88 -32.5t-114.5 -29l-29 -7.5l-45 -11.5l-45 -11t-29 -6q-7 -99 7 -155t44 -80t73.5 -21.5t95.5 20.5q24 5 57 17.5l66.5 25t62 21.5t44.5 7.5t14 -17.5t-30 -53q-45 -18 -94.5 -35t-100 -31.5
t-101.5 -25t-100 -13.5q-45 11 -82.5 34t-55.5 43.5t-9.5 29.5t56.5 -7zM86 1032q0 8 5.5 13.5t14 8.5t18.5 4.5t19 1.5q7 -35 25.5 -60t41.5 -38t47 -14t42 12t26.5 41.5t0.5 74.5v3q0 1 1 2q5 8 15 18.5t20 12.5q34 -38 41 -73t-5 -64t-38.5 -50t-59.5 -32t-69 -10t-67 17
t-52.5 48.5t-25.5 83.5z" />
    <glyph glyph-name="Ecaron" unicode="&#x11a;" horiz-adv-x="628" 
d="M103 96q8 19 5 58t-12.5 89t-22.5 107.5t-24.5 114.5t-20 109.5t-8.5 93t10.5 64.5t36.5 24q43 0 94 -1t104 1.5t104.5 10.5t96.5 27q24 -6 24.5 -29.5t-14.5 -48.5q-36 2 -84 -4.5t-98 -14.5l-98 -15t-84 -6q-22 0 -26 -22.5t2.5 -59.5t18.5 -83.5t22 -94.5q1 0 31.5 6
l74.5 15l95.5 19l95.5 18.5l74 14t32 4.5q27 -12 18 -27.5t-43.5 -32t-88 -32.5t-114.5 -29l-29 -7.5l-45 -11.5l-45 -11t-29 -6q-7 -99 7 -155t44 -80t73.5 -21.5t95.5 20.5q24 5 57 17.5l66.5 25t62 21.5t44.5 7.5t14 -17.5t-30 -53q-45 -18 -94.5 -35t-100 -31.5
t-101.5 -25t-100 -13.5q-45 11 -82.5 34t-55.5 43.5t-9.5 29.5t56.5 -7zM226 1092l96 -120q14 30 22 50t17 36.5t22.5 32t40.5 34.5q15 0 21.5 -5t8.5 -13t1 -19.5t-1 -23.5q-31 -16 -42.5 -37t-17.5 -45.5t-14 -52.5t-30 -57q-16 0 -43 23t-55.5 52.5t-52 57.5t-31.5 39z
" />
    <glyph glyph-name="Ecircumflex" unicode="&#xca;" horiz-adv-x="628" 
d="M103 96q8 19 5 58t-12.5 89t-22.5 107.5t-24.5 114.5t-20 109.5t-8.5 93t10.5 64.5t36.5 24q43 0 94 -1t104 1.5t104.5 10.5t96.5 27q24 -6 24.5 -29.5t-14.5 -48.5q-36 2 -84 -4.5t-98 -14.5l-98 -15t-84 -6q-22 0 -26 -22.5t2.5 -59.5t18.5 -83.5t22 -94.5q1 0 31.5 6
l74.5 15l95.5 19l95.5 18.5l74 14t32 4.5q27 -12 18 -27.5t-43.5 -32t-88 -32.5t-114.5 -29l-29 -7.5l-45 -11.5l-45 -11t-29 -6q-7 -99 7 -155t44 -80t73.5 -21.5t95.5 20.5q24 5 57 17.5l66.5 25t62 21.5t44.5 7.5t14 -17.5t-30 -53q-45 -18 -94.5 -35t-100 -31.5
t-101.5 -25t-100 -13.5q-45 11 -82.5 34t-55.5 43.5t-9.5 29.5t56.5 -7zM153 912q6 33 24 73t43.5 77t55.5 66t59 41q15 0 39 -23.5t46 -55.5t38 -64t16 -49q0 -10 -6 -16t-14 -9t-18 -4t-17 -1q-21 0 -34 13t-21.5 31.5t-15 39.5t-15.5 37q-1 0 -2.5 0.5t-2.5 0.5
q-14 0 -23.5 -12.5t-18 -32t-17 -41.5t-19 -41.5t-24 -32t-33.5 -12.5h-10t-13.5 1.5t-11.5 4.5t-5 9z" />
    <glyph glyph-name="Edieresis" unicode="&#xcb;" horiz-adv-x="628" 
d="M103 96q8 19 5 58t-12.5 89t-22.5 107.5t-24.5 114.5t-20 109.5t-8.5 93t10.5 64.5t36.5 24q43 0 94 -1t104 1.5t104.5 10.5t96.5 27q24 -6 24.5 -29.5t-14.5 -48.5q-36 2 -84 -4.5t-98 -14.5l-98 -15t-84 -6q-22 0 -26 -22.5t2.5 -59.5t18.5 -83.5t22 -94.5q1 0 31.5 6
l74.5 15l95.5 19l95.5 18.5l74 14t32 4.5q27 -12 18 -27.5t-43.5 -32t-88 -32.5t-114.5 -29l-29 -7.5l-45 -11.5l-45 -11t-29 -6q-7 -99 7 -155t44 -80t73.5 -21.5t95.5 20.5q24 5 57 17.5l66.5 25t62 21.5t44.5 7.5t14 -17.5t-30 -53q-45 -18 -94.5 -35t-100 -31.5
t-101.5 -25t-100 -13.5q-45 11 -82.5 34t-55.5 43.5t-9.5 29.5t56.5 -7zM171 960q0 17 12 26.5t29 9.5q10 0 21 -6t20 -15t14.5 -19.5t5.5 -19.5q0 -12 -2.5 -27.5t-17.5 -15.5q-12 0 -26.5 5.5t-27 15t-20.5 21.5t-8 25zM355 960q0 17 12 26.5t29 9.5q10 0 21 -6t20 -15
t14.5 -19.5t5.5 -19.5q0 -12 -2.5 -27.5t-17.5 -15.5q-12 0 -26.5 5.5t-27 15t-20.5 21.5t-8 25z" />
    <glyph glyph-name="Edotaccent" unicode="&#x116;" horiz-adv-x="628" 
d="M103 96q8 19 5 58t-12.5 89t-22.5 107.5t-24.5 114.5t-20 109.5t-8.5 93t10.5 64.5t36.5 24q43 0 94 -1t104 1.5t104.5 10.5t96.5 27q24 -6 24.5 -29.5t-14.5 -48.5q-36 2 -84 -4.5t-98 -14.5l-98 -15t-84 -6q-22 0 -26 -22.5t2.5 -59.5t18.5 -83.5t22 -94.5q1 0 31.5 6
l74.5 15l95.5 19l95.5 18.5l74 14t32 4.5q27 -12 18 -27.5t-43.5 -32t-88 -32.5t-114.5 -29l-29 -7.5l-45 -11.5l-45 -11t-29 -6q-7 -99 7 -155t44 -80t73.5 -21.5t95.5 20.5q24 5 57 17.5l66.5 25t62 21.5t44.5 7.5t14 -17.5t-30 -53q-45 -18 -94.5 -35t-100 -31.5
t-101.5 -25t-100 -13.5q-45 11 -82.5 34t-55.5 43.5t-9.5 29.5t56.5 -7zM264 964q0 18 13 25t28 7q8 0 18 -5t18.5 -13t13.5 -18t2 -20q-5 -21 -19.5 -25t-30 2t-28 19.5t-15.5 27.5z" />
    <glyph glyph-name="Egrave" unicode="&#xc8;" horiz-adv-x="628" 
d="M103 96q8 19 5 58t-12.5 89t-22.5 107.5t-24.5 114.5t-20 109.5t-8.5 93t10.5 64.5t36.5 24q43 0 94 -1t104 1.5t104.5 10.5t96.5 27q24 -6 24.5 -29.5t-14.5 -48.5q-36 2 -84 -4.5t-98 -14.5l-98 -15t-84 -6q-22 0 -26 -22.5t2.5 -59.5t18.5 -83.5t22 -94.5q1 0 31.5 6
l74.5 15l95.5 19l95.5 18.5l74 14t32 4.5q27 -12 18 -27.5t-43.5 -32t-88 -32.5t-114.5 -29l-29 -7.5l-45 -11.5l-45 -11t-29 -6q-7 -99 7 -155t44 -80t73.5 -21.5t95.5 20.5q24 5 57 17.5l66.5 25t62 21.5t44.5 7.5t14 -17.5t-30 -53q-45 -18 -94.5 -35t-100 -31.5
t-101.5 -25t-100 -13.5q-45 11 -82.5 34t-55.5 43.5t-9.5 29.5t56.5 -7zM222 1008q0 18 5.5 27.5t25.5 9.5q7 -12 20.5 -24.5l28 -26l27.5 -26.5t18.5 -25.5t0.5 -23.5t-26 -19q-16 19 -30 29.5t-26 20.5t-23 22.5t-21 35.5z" />
    <glyph glyph-name="Emacron" unicode="&#x112;" horiz-adv-x="628" 
d="M103 96q8 19 5 58t-12.5 89t-22.5 107.5t-24.5 114.5t-20 109.5t-8.5 93t10.5 64.5t36.5 24q43 0 94 -1t104 1.5t104.5 10.5t96.5 27q24 -6 24.5 -29.5t-14.5 -48.5q-36 2 -84 -4.5t-98 -14.5l-98 -15t-84 -6q-22 0 -26 -22.5t2.5 -59.5t18.5 -83.5t22 -94.5q1 0 31.5 6
l74.5 15l95.5 19l95.5 18.5l74 14t32 4.5q27 -12 18 -27.5t-43.5 -32t-88 -32.5t-114.5 -29l-29 -7.5l-45 -11.5l-45 -11t-29 -6q-7 -99 7 -155t44 -80t73.5 -21.5t95.5 20.5q24 5 57 17.5l66.5 25t62 21.5t44.5 7.5t14 -17.5t-30 -53q-45 -18 -94.5 -35t-100 -31.5
t-101.5 -25t-100 -13.5q-45 11 -82.5 34t-55.5 43.5t-9.5 29.5t56.5 -7zM109 931q18 26 57 32t90 3.5t110 -7.5t116 1q19 0 27.5 -3.5t8.5 -23.5t-24 -30t-61.5 -13.5t-82.5 -2.5t-87 4.5t-74.5 6.5t-45.5 3q-14 0 -24 7.5t-10 22.5z" />
    <glyph glyph-name="Eogonek" unicode="&#x118;" horiz-adv-x="628" 
d="M103 96q8 19 5 58t-12.5 89t-22.5 107.5t-24.5 114.5t-20 109.5t-8.5 93t10.5 64.5t36.5 24q43 0 94 -1t104 1.5t104.5 10.5t96.5 27q24 -6 24.5 -29.5t-14.5 -48.5q-36 2 -84 -4.5t-98 -14.5l-98 -15t-84 -6q-22 0 -26 -22.5t2.5 -59.5t18.5 -83.5t22 -94.5q1 0 31.5 6
l74.5 15l95.5 19l95.5 18.5l74 14t32 4.5q27 -12 18 -27.5t-43.5 -32t-88 -32.5t-114.5 -29l-29 -7.5l-45 -11.5l-45 -11t-29 -6q-7 -99 7 -155t44 -80t73.5 -21.5t95.5 20.5q24 5 57 17.5l66.5 25t62 21.5t44.5 7.5t14 -17.5t-30 -53q-45 -18 -94.5 -35t-100 -31.5
t-101.5 -25t-100 -13.5q-45 11 -82.5 34t-55.5 43.5t-9.5 29.5t56.5 -7zM606 -64q-9 -13 -21 -23t-25 -16t-25 -8.5t-21 0.5q-35 15 -49 42.5t-14 60t11 65.5t28 59l39 -20q-17 -33 -19 -65.5t7 -51.5t27 -18.5t41 34.5z" />
    <glyph glyph-name="Gbreve" unicode="&#x11e;" horiz-adv-x="736" 
d="M612 -203q0 16 2 49l4.5 74.5t5 88t4 89t2 77.5t-1.5 53q-29 -48 -64 -90.5t-78 -75t-95 -52.5t-114 -23q-95 22 -148 76.5t-72.5 128t-11 158.5t37.5 167.5t74 155.5t97 122.5t106.5 68.5t103.5 -7q11 -4 14 -11t0 -14t-11 -11t-19 -1q-43 6 -84.5 -13.5t-78.5 -57.5
t-69 -91t-56 -115.5t-38 -131.5t-15 -137q15 -91 49 -140t78 -66t93.5 -6.5t96.5 38.5t87.5 68.5t65 84t29 85t-18.5 70.5q-17 0 -44 -13.5t-60 -34l-70 -44t-73 -44t-70 -34t-61 -13.5q0 8 6.5 19t15 22t17.5 19.5t14 11.5q41 18 85 44.5l89.5 55.5l91 56.5t89.5 45.5
q17 9 31.5 5.5t24.5 -27t16 -70t7.5 -124.5t-2 -190t-12.5 -266l-15 -35t-14.5 -23t-17.5 -3t-23 25v6zM164 1064q0 8 5.5 13.5t14 8.5t18.5 4.5t19 1.5q7 -35 25.5 -60t41.5 -38t47 -14t42 12t26.5 41.5t0.5 74.5v3q0 1 1 2q5 8 15 18.5t20 12.5q34 -38 41 -73t-5 -64
t-38.5 -50t-59.5 -32t-69 -10t-67 17t-52.5 48.5t-25.5 83.5z" />
    <glyph glyph-name="Gcircumflex" unicode="&#x11c;" horiz-adv-x="736" 
d="M612 -203q0 16 2 49l4.5 74.5t5 88t4 89t2 77.5t-1.5 53q-29 -48 -64 -90.5t-78 -75t-95 -52.5t-114 -23q-95 22 -148 76.5t-72.5 128t-11 158.5t37.5 167.5t74 155.5t97 122.5t106.5 68.5t103.5 -7q11 -4 14 -11t0 -14t-11 -11t-19 -1q-43 6 -84.5 -13.5t-78.5 -57.5
t-69 -91t-56 -115.5t-38 -131.5t-15 -137q15 -91 49 -140t78 -66t93.5 -6.5t96.5 38.5t87.5 68.5t65 84t29 85t-18.5 70.5q-17 0 -44 -13.5t-60 -34l-70 -44t-73 -44t-70 -34t-61 -13.5q0 8 6.5 19t15 22t17.5 19.5t14 11.5q41 18 85 44.5l89.5 55.5l91 56.5t89.5 45.5
q17 9 31.5 5.5t24.5 -27t16 -70t7.5 -124.5t-2 -190t-12.5 -266l-15 -35t-14.5 -23t-17.5 -3t-23 25v6zM207 912q6 33 24 73t43.5 77t55.5 66t59 41q15 0 39 -23.5t46 -55.5t38 -64t16 -49q0 -10 -6 -16t-14 -9t-18 -4t-17 -1q-21 0 -34 13t-21.5 31.5t-15 39.5t-15.5 37
q-1 0 -2.5 0.5t-2.5 0.5q-14 0 -23.5 -12.5t-18 -32t-17 -41.5t-19 -41.5t-24 -32t-33.5 -12.5h-10t-13.5 1.5t-11.5 4.5t-5 9z" />
    <glyph glyph-name="Gcommaaccent" unicode="&#x122;" horiz-adv-x="736" 
d="M612 -203q0 16 2 49l4.5 74.5t5 88t4 89t2 77.5t-1.5 53q-29 -48 -64 -90.5t-78 -75t-95 -52.5t-114 -23q-95 22 -148 76.5t-72.5 128t-11 158.5t37.5 167.5t74 155.5t97 122.5t106.5 68.5t103.5 -7q11 -4 14 -11t0 -14t-11 -11t-19 -1q-43 6 -84.5 -13.5t-78.5 -57.5
t-69 -91t-56 -115.5t-38 -131.5t-15 -137q15 -91 49 -140t78 -66t93.5 -6.5t96.5 38.5t87.5 68.5t65 84t29 85t-18.5 70.5q-17 0 -44 -13.5t-60 -34l-70 -44t-73 -44t-70 -34t-61 -13.5q0 8 6.5 19t15 22t17.5 19.5t14 11.5q41 18 85 44.5l89.5 55.5l91 56.5t89.5 45.5
q17 9 31.5 5.5t24.5 -27t16 -70t7.5 -124.5t-2 -190t-12.5 -266l-15 -35t-14.5 -23t-17.5 -3t-23 25v6zM300 -312q3 -6 15 18.5t19 63t2 82t-36 76.5q0 8 7 21.5t18 13.5q27 -2 45 -30t25.5 -67t5 -81t-14 -72t-33.5 -40t-53 15z" />
    <glyph glyph-name="Gdotaccent" unicode="&#x120;" horiz-adv-x="736" 
d="M612 -203q0 16 2 49l4.5 74.5t5 88t4 89t2 77.5t-1.5 53q-29 -48 -64 -90.5t-78 -75t-95 -52.5t-114 -23q-95 22 -148 76.5t-72.5 128t-11 158.5t37.5 167.5t74 155.5t97 122.5t106.5 68.5t103.5 -7q11 -4 14 -11t0 -14t-11 -11t-19 -1q-43 6 -84.5 -13.5t-78.5 -57.5
t-69 -91t-56 -115.5t-38 -131.5t-15 -137q15 -91 49 -140t78 -66t93.5 -6.5t96.5 38.5t87.5 68.5t65 84t29 85t-18.5 70.5q-17 0 -44 -13.5t-60 -34l-70 -44t-73 -44t-70 -34t-61 -13.5q0 8 6.5 19t15 22t17.5 19.5t14 11.5q41 18 85 44.5l89.5 55.5l91 56.5t89.5 45.5
q17 9 31.5 5.5t24.5 -27t16 -70t7.5 -124.5t-2 -190t-12.5 -266l-15 -35t-14.5 -23t-17.5 -3t-23 25v6zM318 964q0 18 13 25t28 7q8 0 18 -5t18.5 -13t13.5 -18t2 -20q-5 -21 -19.5 -25t-30 2t-28 19.5t-15.5 27.5z" />
    <glyph glyph-name="Hbar" unicode="&#x126;" horiz-adv-x="640" 
d="M177 -65q1 64 1.5 108t-1 84.5t-5 84.5t-10.5 108q-26 0 -51.5 -5.5t-51.5 -5.5q-8 0 -16.5 1t-15.5 4t-11.5 9t-4.5 17q0 19 11.5 27t28 10.5t36.5 2.5t36.5 3t28 11.5t11.5 29.5q-17 110 -32 220.5t-11 222.5q25 15 41 3t26 -41t15 -71t8.5 -88t7.5 -92t11.5 -83
t20 -61t32.5 -25q17 0 49 3t63.5 9.5t55 17.5t23.5 28q0 54 -8 106t-17.5 104.5t-18 105.5t-9.5 109q30 26 49.5 14.5t31.5 -48t18.5 -90t10 -110.5l6.5 -110t8 -89q12 0 39.5 1t57.5 4t56 9.5t35 16.5q23 -35 21 -52t-20 -24t-45.5 -8t-54 -2.5t-47 -8t-24.5 -25.5
q3 -61 8 -102l9.5 -78.5t8 -79.5t3.5 -103q-2 -35 -14.5 -45.5t-26.5 -0.5t-25.5 38.5t-12.5 72.5q0 55 -2.5 89.5t-5.5 64t-5.5 63.5t-2.5 89q-15 0 -51.5 -2t-76 -7.5t-73.5 -15t-43 -23.5q-2 -57 -3 -91t-1 -63t1 -62t3 -89q4 -17 -1.5 -40.5t-16.5 -41t-26.5 -23
t-30.5 14.5zM52.2666 601.427q24.4707 21.7842 77.4883 26.8105q53.0176 5.02734 122.35 2.93262q69.3311 -2.09473 149.538 -6.2832q80.2061 -4.18945 157.694 0.837891q25.8291 0 37.3838 -2.93262q11.5557 -2.93262 11.5557 -19.6895t-32.626 -25.1348
q-32.627 -8.37793 -83.6055 -11.3105q-50.9795 -2.93262 -112.154 -2.09473q-61.1738 0.837891 -118.271 3.77051t-101.278 5.44531q-44.1816 2.51367 -61.8535 2.51367q-19.0322 0 -32.627 6.28418q-13.5947 6.2832 -13.5947 18.8506z" />
    <glyph glyph-name="Hcircumflex" unicode="&#x124;" horiz-adv-x="640" 
d="M177 -65q1 64 1.5 108t-1 84.5t-5 84.5t-10.5 108q-26 0 -51.5 -5.5t-51.5 -5.5q-8 0 -16.5 1t-15.5 4t-11.5 9t-4.5 17q0 19 11.5 27t28 10.5t36.5 2.5t36.5 3t28 11.5t11.5 29.5q-17 110 -32 220.5t-11 222.5q25 15 41 3t26 -41t15 -71t8.5 -88t7.5 -92t11.5 -83
t20 -61t32.5 -25q17 0 49 3t63.5 9.5t55 17.5t23.5 28q0 54 -8 106t-17.5 104.5t-18 105.5t-9.5 109q30 26 49.5 14.5t31.5 -48t18.5 -90t10 -110.5l6.5 -110t8 -89q12 0 39.5 1t57.5 4t56 9.5t35 16.5q23 -35 21 -52t-20 -24t-45.5 -8t-54 -2.5t-47 -8t-24.5 -25.5
q3 -61 8 -102l9.5 -78.5t8 -79.5t3.5 -103q-2 -35 -14.5 -45.5t-26.5 -0.5t-25.5 38.5t-12.5 72.5q0 55 -2.5 89.5t-5.5 64t-5.5 63.5t-2.5 89q-15 0 -51.5 -2t-76 -7.5t-73.5 -15t-43 -23.5q-2 -57 -3 -91t-1 -63t1 -62t3 -89q4 -17 -1.5 -40.5t-16.5 -41t-26.5 -23
t-30.5 14.5zM159 912q6 33 24 73t43.5 77t55.5 66t59 41q15 0 39 -23.5t46 -55.5t38 -64t16 -49q0 -10 -6 -16t-14 -9t-18 -4t-17 -1q-21 0 -34 13t-21.5 31.5t-15 39.5t-15.5 37q-1 0 -2.5 0.5t-2.5 0.5q-14 0 -23.5 -12.5t-18 -32t-17 -41.5t-19 -41.5t-24 -32
t-33.5 -12.5h-10t-13.5 1.5t-11.5 4.5t-5 9z" />
    <glyph glyph-name="Iacute" unicode="&#xcd;" horiz-adv-x="160" 
d="M40 40q1 44 2 105t2 130l2 142.5l2 143t2 131.5t2 108q1 14 7 27t14 18.5t17.5 0t17.5 -29.5q4 -71 6.5 -148t3.5 -154.5t0.5 -152t-1.5 -140.5t-3 -120t-4 -91q-7 -9 -18.5 -9t-22.5 5.5t-19.5 14.5t-9.5 19zM180 1005q-11 -22 -23 -34.5t-25 -22l-28 -20t-33 -28.5
q-23 8 -28 18.5t0.5 22.5t20 25l30 26l30.5 25.5t22 23.5q22 0 28 -9.5t6 -26.5z" />
    <glyph glyph-name="Ibreve" unicode="&#x12c;" horiz-adv-x="160" 
d="M40 40q1 44 2 105t2 130l2 142.5l2 143t2 131.5t2 108q1 14 7 27t14 18.5t17.5 0t17.5 -29.5q4 -71 6.5 -148t3.5 -154.5t0.5 -152t-1.5 -140.5t-3 -120t-4 -91q-7 -9 -18.5 -9t-22.5 5.5t-19.5 14.5t-9.5 19zM-147 1032q0 8 5.5 13.5t14 8.5t18.5 4.5t19 1.5
q7 -35 25.5 -60t41.5 -38t47 -14t42 12t26.5 41.5t0.5 74.5v3q0 1 1 2q5 8 15 18.5t20 12.5q34 -38 41 -73t-5 -64t-38.5 -50t-59.5 -32t-69 -10t-67 17t-52.5 48.5t-25.5 83.5z" />
    <glyph glyph-name="Icircumflex" unicode="&#xce;" horiz-adv-x="160" 
d="M40 40q1 44 2 105t2 130l2 142.5l2 143t2 131.5t2 108q1 14 7 27t14 18.5t17.5 0t17.5 -29.5q4 -71 6.5 -148t3.5 -154.5t0.5 -152t-1.5 -140.5t-3 -120t-4 -91q-7 -9 -18.5 -9t-22.5 5.5t-19.5 14.5t-9.5 19zM-79 912q6 33 24 73t43.5 77t55.5 66t59 41q15 0 39 -23.5
t46 -55.5t38 -64t16 -49q0 -10 -6 -16t-14 -9t-18 -4t-17 -1q-21 0 -34 13t-21.5 31.5t-15 39.5t-15.5 37q-1 0 -2.5 0.5t-2.5 0.5q-14 0 -23.5 -12.5t-18 -32t-17 -41.5t-19 -41.5t-24 -32t-33.5 -12.5h-10t-13.5 1.5t-11.5 4.5t-5 9z" />
    <glyph glyph-name="Idotaccent" unicode="&#x130;" horiz-adv-x="160" 
d="M40 40q1 44 2 105t2 130l2 142.5l2 143t2 131.5t2 108q1 14 7 27t14 18.5t17.5 0t17.5 -29.5q4 -71 6.5 -148t3.5 -154.5t0.5 -152t-1.5 -140.5t-3 -120t-4 -91q-7 -9 -18.5 -9t-22.5 5.5t-19.5 14.5t-9.5 19zM31 964q0 18 13 25t28 7q8 0 18 -5t18.5 -13t13.5 -18t2 -20
q-5 -21 -19.5 -25t-30 2t-28 19.5t-15.5 27.5z" />
    <glyph glyph-name="Idieresis" unicode="&#xcf;" horiz-adv-x="160" 
d="M40 40q1 44 2 105t2 130l2 142.5l2 143t2 131.5t2 108q1 14 7 27t14 18.5t17.5 0t17.5 -29.5q4 -71 6.5 -148t3.5 -154.5t0.5 -152t-1.5 -140.5t-3 -120t-4 -91q-7 -9 -18.5 -9t-22.5 5.5t-19.5 14.5t-9.5 19zM-62 960q0 17 12 26.5t29 9.5q10 0 21 -6t20 -15t14.5 -19.5
t5.5 -19.5q0 -12 -2.5 -27.5t-17.5 -15.5q-12 0 -26.5 5.5t-27 15t-20.5 21.5t-8 25zM122 960q0 17 12 26.5t29 9.5q10 0 21 -6t20 -15t14.5 -19.5t5.5 -19.5q0 -12 -2.5 -27.5t-17.5 -15.5q-12 0 -26.5 5.5t-27 15t-20.5 21.5t-8 25z" />
    <glyph glyph-name="Iogonek" unicode="&#x12e;" horiz-adv-x="160" 
d="M40 40q1 44 2 105t2 130l2 142.5l2 143t2 131.5t2 108q1 14 7 27t14 18.5t17.5 0t17.5 -29.5q4 -71 6.5 -148t3.5 -154.5t0.5 -152t-1.5 -140.5t-3 -120t-4 -91q-7 -9 -18.5 -9t-22.5 5.5t-19.5 14.5t-9.5 19zM161 -112q-9 -13 -21 -23t-25 -16t-25 -8.5t-21 0.5
q-35 15 -49 42.5t-14 60t11 65.5t28 59l39 -20q-17 -33 -19 -65.5t7 -51.5t27 -18.5t41 34.5z" />
    <glyph glyph-name="Igrave" unicode="&#xcc;" horiz-adv-x="160" 
d="M40 40q1 44 2 105t2 130l2 142.5l2 143t2 131.5t2 108q1 14 7 27t14 18.5t17.5 0t17.5 -29.5q4 -71 6.5 -148t3.5 -154.5t0.5 -152t-1.5 -140.5t-3 -120t-4 -91q-7 -9 -18.5 -9t-22.5 5.5t-19.5 14.5t-9.5 19zM-11 1008q0 18 5.5 27.5t25.5 9.5q7 -12 20.5 -24.5l28 -26
l27.5 -26.5t18.5 -25.5t0.5 -23.5t-26 -19q-16 19 -30 29.5t-26 20.5t-23 22.5t-21 35.5z" />
    <glyph glyph-name="Imacron" unicode="&#x12a;" horiz-adv-x="160" 
d="M40 40q1 44 2 105t2 130l2 142.5l2 143t2 131.5t2 108q1 14 7 27t14 18.5t17.5 0t17.5 -29.5q4 -71 6.5 -148t3.5 -154.5t0.5 -152t-1.5 -140.5t-3 -120t-4 -91q-7 -9 -18.5 -9t-22.5 5.5t-19.5 14.5t-9.5 19zM-123 931q18 26 57 32t90 3.5t110 -7.5t116 1
q19 0 27.5 -3.5t8.5 -23.5t-24 -30t-61.5 -13.5t-82.5 -2.5t-87 4.5t-74.5 6.5t-45.5 3q-14 0 -24 7.5t-10 22.5z" />
    <glyph glyph-name="Itilde" unicode="&#x128;" horiz-adv-x="160" 
d="M40 40q1 44 2 105t2 130l2 142.5l2 143t2 131.5t2 108q1 14 7 27t14 18.5t17.5 0t17.5 -29.5q4 -71 6.5 -148t3.5 -154.5t0.5 -152t-1.5 -140.5t-3 -120t-4 -91q-7 -9 -18.5 -9t-22.5 5.5t-19.5 14.5t-9.5 19zM288 1008q1 -53 -8.5 -81t-25.5 -37.5t-37.5 -4.5t-46 18
t-50.5 30.5l-51 33t-47 25.5t-38 8q-15 -7 -22 -19t-10 -25t-4 -25t-5 -19t-12.5 -8t-25.5 9q-12 3 -11 29.5t12.5 57t32 56t47.5 28.5q23 -6 48 -21.5t49.5 -34l47 -37t41 -30t31 -12.5t17.5 15q11 12 12 27t-2.5 32t-8.5 35t-5 36q22 11 36.5 4.5t22 -21.5t10.5 -34.5
t3 -34.5z" />
    <glyph glyph-name="Jcircumflex" unicode="&#x134;" horiz-adv-x="540" 
d="M520 115q3 -47 -22.5 -74.5t-68.5 -40t-96.5 -12t-105.5 10t-96 26t-68 36.5t-21 41t44 40q12 -32 46 -52t76.5 -29t87.5 -8t79.5 10.5t51.5 27.5t4 43q7 -20 5 -9.5t-10.5 44l-21.5 85l-28 111.5l-30.5 125t-28 125.5t-20.5 111.5t-9 85q0 8 4.5 13.5t11 7.5t13 0
t11.5 -9q9 -41 23 -97l31.5 -120l36 -132l37 -132.5l35 -122l29.5 -100.5v-5v0zM109 912q6 33 24 73t43.5 77t55.5 66t59 41q15 0 39 -23.5t46 -55.5t38 -64t16 -49q0 -10 -6 -16t-14 -9t-18 -4t-17 -1q-21 0 -34 13t-21.5 31.5t-15 39.5t-15.5 37q-1 0 -2.5 0.5t-2.5 0.5
q-14 0 -23.5 -12.5t-18 -32t-17 -41.5t-19 -41.5t-24 -32t-33.5 -12.5h-10t-13.5 1.5t-11.5 4.5t-5 9z" />
    <glyph glyph-name="Kcommaaccent" unicode="&#x136;" horiz-adv-x="596" 
d="M104 36q1 12 0 56.5t-4 109.5t-8.5 144.5t-14 162.5t-19.5 163t-26 145q0 6 2.5 15.5t7 18.5t11 15t15.5 6q18 0 29.5 -36t18.5 -91.5t11 -121t8.5 -124.5t9.5 -103t15 -56q17 3 39.5 22.5t47 47.5t49 62.5t45.5 67.5t36.5 62.5t22.5 47.5q2 61 13 82t24.5 16t26 -29.5
t17.5 -54.5q0 -44 -25.5 -96t-61.5 -102.5t-76 -94l-68 -71.5q29 -18 73 -41.5t92 -43.5t95.5 -32.5t83.5 -9.5q13 0 23.5 -8t14 -18.5t-1.5 -20.5t-22 -14q-54 -6 -111.5 7t-115 35t-113.5 46t-108 40l2 -3.5t5 -23t4.5 -60.5t0.5 -117q-9 -40 -18 -54t-18 -10t-17 22
t-15 42zM230 -312q3 -6 15 18.5t19 63t2 82t-36 76.5q0 8 7 21.5t18 13.5q27 -2 45 -30t25.5 -67t5 -81t-14 -72t-33.5 -40t-53 15z" />
    <glyph glyph-name="Lacute" unicode="&#x139;" 
d="M42 738q0 42 4 58.5t11 18t17 -8.5l22 -22q16 -50 20.5 -112.5t3.5 -129t-4.5 -132.5t-3.5 -125t6 -106t24.5 -74.5t52 -31.5t87.5 23l188 104q3 0 5.5 -5.5t4 -13t2.5 -14.5t1 -11q-5 -17 -36 -41t-71.5 -47.5t-82 -43t-67.5 -25.5q-69 -3 -108 34t-57 99t-21 142t0 163
l6 162t-4 139zM358 1005q-11 -22 -23 -34.5t-25 -22l-28 -20t-33 -28.5q-23 8 -28 18.5t0.5 22.5t20 25l30 26l30.5 25.5t22 23.5q22 0 28 -9.5t6 -26.5z" />
    <glyph glyph-name="Lcaron" unicode="&#x13d;" 
d="M42 738q0 42 4 58.5t11 18t17 -8.5l22 -22q16 -50 20.5 -112.5t3.5 -129t-4.5 -132.5t-3.5 -125t6 -106t24.5 -74.5t52 -31.5t87.5 23l188 104q3 0 5.5 -5.5t4 -13t2.5 -14.5t1 -11q-5 -17 -36 -41t-71.5 -47.5t-82 -43t-67.5 -25.5q-69 -3 -108 34t-57 99t-21 142t0 163
l6 162t-4 139zM223 924q11 15 14 40.5t1 52.5t-7 51.5l-8 39.5q5 3 15.5 5t18.5 -7q10 -9 16.5 -29.5t8.5 -46t-1 -53t-11 -49.5q5 -4 -1.5 -7t-16 -3.5t-19 0.5t-10.5 6z" />
    <glyph glyph-name="Lcommaaccent" unicode="&#x13b;" 
d="M42 738q0 42 4 58.5t11 18t17 -8.5l22 -22q16 -50 20.5 -112.5t3.5 -129t-4.5 -132.5t-3.5 -125t6 -106t24.5 -74.5t52 -31.5t87.5 23l188 104q3 0 5.5 -5.5t4 -13t2.5 -14.5t1 -11q-5 -17 -36 -41t-71.5 -47.5t-82 -43t-67.5 -25.5q-69 -3 -108 34t-57 99t-21 142t0 163
l6 162t-4 139zM190 -312q3 -6 15 18.5t19 63t2 82t-36 76.5q0 8 7 21.5t18 13.5q27 -2 45 -30t25.5 -67t5 -81t-14 -72t-33.5 -40t-53 15z" />
    <glyph glyph-name="Ldot" unicode="&#x13f;" 
d="M42 738q0 42 4 58.5t11 18t17 -8.5l22 -22q16 -50 20.5 -112.5t3.5 -129t-4.5 -132.5t-3.5 -125t6 -106t24.5 -74.5t52 -31.5t87.5 23l188 104q3 0 5.5 -5.5t4 -13t2.5 -14.5t1 -11q-5 -17 -36 -41t-71.5 -47.5t-82 -43t-67.5 -25.5q-69 -3 -108 34t-57 99t-21 142t0 163
l6 162t-4 139zM284 441q0 18 13 25t28 7q8 0 18 -5t18.5 -13t13.5 -18t2 -20q-5 -21 -19.5 -25t-30 2t-28 19.5t-15.5 27.5z" />
    <glyph glyph-name="Lslash" unicode="&#x141;" 
d="M-24 291q-14 -3 -22 5t-10.5 20t-1 23.5t6.5 15.5q6 3 23 10l49 21l82 35.5l121 54.5q31 13 49 9t22 -16.5t-6.5 -29.5t-37.5 -29zM42 738q0 42 4 58.5t11 18t17 -8.5l22 -22q16 -50 20.5 -112.5t3.5 -129t-4.5 -132.5t-3.5 -125t6 -106t24.5 -74.5t52 -31.5t87.5 23
l188 104q3 0 5.5 -5.5t4 -13t2.5 -14.5t1 -11q-5 -17 -36 -41t-71.5 -47.5t-82 -43t-67.5 -25.5q-69 -3 -108 34t-57 99t-21 142t0 163l6 162t-4 139z" />
    <glyph glyph-name="Nacute" unicode="&#x143;" horiz-adv-x="708" 
d="M127 682q-9 12 -22 23.5t-27 22.5l-27.5 21.5t-23.5 22.5q0 8 -0.5 17t1.5 16.5t7.5 12.5t16.5 6q18 0 45 -29t60.5 -76.5t71.5 -108l78 -124l79.5 -124t76 -108t68 -76.5t54.5 -29q20 -2 31 26t14 76t-2.5 112t-18.5 135t-33 144.5t-47 141.5q-4 12 -3 25t5 20.5t11.5 7
t17.5 -14.5q26 -34 46.5 -87t36.5 -116t25.5 -131.5t13.5 -134t1 -123.5t-13 -99t-27.5 -61t-42.5 -10q-48 13 -89 47t-76.5 80t-67.5 100.5l-63 108.5l-62.5 104t-65.5 88q-7 -37 -7.5 -87.5t3 -106t10 -113.5l13 -111l12 -97.5t7.5 -73.5q-26 -18 -41.5 -13.5t-23.5 24
t-9.5 51.5t0.5 71q-3 29 -6 73t-4.5 95l-3 106t-2 106.5t0 95.5t2.5 74zM454 1005q-11 -22 -23 -34.5t-25 -22l-28 -20t-33 -28.5q-23 8 -28 18.5t0.5 22.5t20 25l30 26l30.5 25.5t22 23.5q22 0 28 -9.5t6 -26.5z" />
    <glyph glyph-name="Ncaron" unicode="&#x147;" horiz-adv-x="708" 
d="M127 682q-9 12 -22 23.5t-27 22.5l-27.5 21.5t-23.5 22.5q0 8 -0.5 17t1.5 16.5t7.5 12.5t16.5 6q18 0 45 -29t60.5 -76.5t71.5 -108l78 -124l79.5 -124t76 -108t68 -76.5t54.5 -29q20 -2 31 26t14 76t-2.5 112t-18.5 135t-33 144.5t-47 141.5q-4 12 -3 25t5 20.5t11.5 7
t17.5 -14.5q26 -34 46.5 -87t36.5 -116t25.5 -131.5t13.5 -134t1 -123.5t-13 -99t-27.5 -61t-42.5 -10q-48 13 -89 47t-76.5 80t-67.5 100.5l-63 108.5l-62.5 104t-65.5 88q-7 -37 -7.5 -87.5t3 -106t10 -113.5l13 -111l12 -97.5t7.5 -73.5q-26 -18 -41.5 -13.5t-23.5 24
t-9.5 51.5t0.5 71q-3 29 -6 73t-4.5 95l-3 106t-2 106.5t0 95.5t2.5 74zM266 1092l96 -120q14 30 22 50t17 36.5t22.5 32t40.5 34.5q15 0 21.5 -5t8.5 -13t1 -19.5t-1 -23.5q-31 -16 -42.5 -37t-17.5 -45.5t-14 -52.5t-30 -57q-16 0 -43 23t-55.5 52.5t-52 57.5t-31.5 39z
" />
    <glyph glyph-name="Ncommaaccent" unicode="&#x145;" horiz-adv-x="708" 
d="M127 682q-9 12 -22 23.5t-27 22.5l-27.5 21.5t-23.5 22.5q0 8 -0.5 17t1.5 16.5t7.5 12.5t16.5 6q18 0 45 -29t60.5 -76.5t71.5 -108l78 -124l79.5 -124t76 -108t68 -76.5t54.5 -29q20 -2 31 26t14 76t-2.5 112t-18.5 135t-33 144.5t-47 141.5q-4 12 -3 25t5 20.5t11.5 7
t17.5 -14.5q26 -34 46.5 -87t36.5 -116t25.5 -131.5t13.5 -134t1 -123.5t-13 -99t-27.5 -61t-42.5 -10q-48 13 -89 47t-76.5 80t-67.5 100.5l-63 108.5l-62.5 104t-65.5 88q-7 -37 -7.5 -87.5t3 -106t10 -113.5l13 -111l12 -97.5t7.5 -73.5q-26 -18 -41.5 -13.5t-23.5 24
t-9.5 51.5t0.5 71q-3 29 -6 73t-4.5 95l-3 106t-2 106.5t0 95.5t2.5 74zM286 -312q3 -6 15 18.5t19 63t2 82t-36 76.5q0 8 7 21.5t18 13.5q27 -2 45 -30t25.5 -67t5 -81t-14 -72t-33.5 -40t-53 15z" />
    <glyph glyph-name="Ntilde" unicode="&#xd1;" horiz-adv-x="708" 
d="M127 682q-9 12 -22 23.5t-27 22.5l-27.5 21.5t-23.5 22.5q0 8 -0.5 17t1.5 16.5t7.5 12.5t16.5 6q18 0 45 -29t60.5 -76.5t71.5 -108l78 -124l79.5 -124t76 -108t68 -76.5t54.5 -29q20 -2 31 26t14 76t-2.5 112t-18.5 135t-33 144.5t-47 141.5q-4 12 -3 25t5 20.5t11.5 7
t17.5 -14.5q26 -34 46.5 -87t36.5 -116t25.5 -131.5t13.5 -134t1 -123.5t-13 -99t-27.5 -61t-42.5 -10q-48 13 -89 47t-76.5 80t-67.5 100.5l-63 108.5l-62.5 104t-65.5 88q-7 -37 -7.5 -87.5t3 -106t10 -113.5l13 -111l12 -97.5t7.5 -73.5q-26 -18 -41.5 -13.5t-23.5 24
t-9.5 51.5t0.5 71q-3 29 -6 73t-4.5 95l-3 106t-2 106.5t0 95.5t2.5 74zM560 1008q1 -53 -8.5 -81t-25.5 -37.5t-37.5 -4.5t-46 18t-50.5 30.5l-51 33t-47 25.5t-38 8q-15 -7 -22 -19t-10 -25t-4 -25t-5 -19t-12.5 -8t-25.5 9q-12 3 -11 29.5t12.5 57t32 56t47.5 28.5
q23 -6 48 -21.5t49.5 -34l47 -37t41 -30t31 -12.5t17.5 15q11 12 12 27t-2.5 32t-8.5 35t-5 36q22 11 36.5 4.5t22 -21.5t10.5 -34.5t3 -34.5z" />
    <glyph glyph-name="Oacute" unicode="&#xd3;" horiz-adv-x="460" 
d="M29 322l4.5 89.5t9 106.5t19 109.5t33.5 99.5t52.5 75.5t76.5 37.5h5q36 2 68.5 -30t58.5 -87.5t44 -127.5t24 -148.5t-2 -152t-32 -137.5t-67.5 -104.5t-108.5 -53.5q-37 0 -65.5 16t-49 42.5t-34 60.5t-21.5 70t-11.5 71t-3.5 63zM214 770q-16 2 -34 -27.5t-34 -80
t-29 -115t-19.5 -131.5t-5 -131t15 -113.5t39.5 -78t69 -24.5q44 11 75 45t49.5 82t25.5 106.5t4 119t-15 118.5t-32.5 106t-48 81t-60.5 43zM330 1005q-11 -22 -23 -34.5t-25 -22l-28 -20t-33 -28.5q-23 8 -28 18.5t0.5 22.5t20 25l30 26l30.5 25.5t22 23.5q22 0 28 -9.5
t6 -26.5z" />
    <glyph glyph-name="Obreve" unicode="&#x14e;" horiz-adv-x="460" 
d="M29 322l4.5 89.5t9 106.5t19 109.5t33.5 99.5t52.5 75.5t76.5 37.5h5q36 2 68.5 -30t58.5 -87.5t44 -127.5t24 -148.5t-2 -152t-32 -137.5t-67.5 -104.5t-108.5 -53.5q-37 0 -65.5 16t-49 42.5t-34 60.5t-21.5 70t-11.5 71t-3.5 63zM214 770q-16 2 -34 -27.5t-34 -80
t-29 -115t-19.5 -131.5t-5 -131t15 -113.5t39.5 -78t69 -24.5q44 11 75 45t49.5 82t25.5 106.5t4 119t-15 118.5t-32.5 106t-48 81t-60.5 43zM3 1032q0 8 5.5 13.5t14 8.5t18.5 4.5t19 1.5q7 -35 25.5 -60t41.5 -38t47 -14t42 12t26.5 41.5t0.5 74.5v3q0 1 1 2q5 8 15 18.5
t20 12.5q34 -38 41 -73t-5 -64t-38.5 -50t-59.5 -32t-69 -10t-67 17t-52.5 48.5t-25.5 83.5z" />
    <glyph glyph-name="Ocircumflex" unicode="&#xd4;" horiz-adv-x="460" 
d="M29 322l4.5 89.5t9 106.5t19 109.5t33.5 99.5t52.5 75.5t76.5 37.5h5q36 2 68.5 -30t58.5 -87.5t44 -127.5t24 -148.5t-2 -152t-32 -137.5t-67.5 -104.5t-108.5 -53.5q-37 0 -65.5 16t-49 42.5t-34 60.5t-21.5 70t-11.5 71t-3.5 63zM214 770q-16 2 -34 -27.5t-34 -80
t-29 -115t-19.5 -131.5t-5 -131t15 -113.5t39.5 -78t69 -24.5q44 11 75 45t49.5 82t25.5 106.5t4 119t-15 118.5t-32.5 106t-48 81t-60.5 43zM69 912q6 33 24 73t43.5 77t55.5 66t59 41q15 0 39 -23.5t46 -55.5t38 -64t16 -49q0 -10 -6 -16t-14 -9t-18 -4t-17 -1
q-21 0 -34 13t-21.5 31.5t-15 39.5t-15.5 37q-1 0 -2.5 0.5t-2.5 0.5q-14 0 -23.5 -12.5t-18 -32t-17 -41.5t-19 -41.5t-24 -32t-33.5 -12.5h-10t-13.5 1.5t-11.5 4.5t-5 9z" />
    <glyph glyph-name="Odieresis" unicode="&#xd6;" horiz-adv-x="460" 
d="M29 322l4.5 89.5t9 106.5t19 109.5t33.5 99.5t52.5 75.5t76.5 37.5h5q36 2 68.5 -30t58.5 -87.5t44 -127.5t24 -148.5t-2 -152t-32 -137.5t-67.5 -104.5t-108.5 -53.5q-37 0 -65.5 16t-49 42.5t-34 60.5t-21.5 70t-11.5 71t-3.5 63zM214 770q-16 2 -34 -27.5t-34 -80
t-29 -115t-19.5 -131.5t-5 -131t15 -113.5t39.5 -78t69 -24.5q44 11 75 45t49.5 82t25.5 106.5t4 119t-15 118.5t-32.5 106t-48 81t-60.5 43zM87 960q0 17 12 26.5t29 9.5q10 0 21 -6t20 -15t14.5 -19.5t5.5 -19.5q0 -12 -2.5 -27.5t-17.5 -15.5q-12 0 -26.5 5.5t-27 15
t-20.5 21.5t-8 25zM271 960q0 17 12 26.5t29 9.5q10 0 21 -6t20 -15t14.5 -19.5t5.5 -19.5q0 -12 -2.5 -27.5t-17.5 -15.5q-12 0 -26.5 5.5t-27 15t-20.5 21.5t-8 25z" />
    <glyph glyph-name="Ograve" unicode="&#xd2;" horiz-adv-x="460" 
d="M29 322l4.5 89.5t9 106.5t19 109.5t33.5 99.5t52.5 75.5t76.5 37.5h5q36 2 68.5 -30t58.5 -87.5t44 -127.5t24 -148.5t-2 -152t-32 -137.5t-67.5 -104.5t-108.5 -53.5q-37 0 -65.5 16t-49 42.5t-34 60.5t-21.5 70t-11.5 71t-3.5 63zM214 770q-16 2 -34 -27.5t-34 -80
t-29 -115t-19.5 -131.5t-5 -131t15 -113.5t39.5 -78t69 -24.5q44 11 75 45t49.5 82t25.5 106.5t4 119t-15 118.5t-32.5 106t-48 81t-60.5 43zM138 1008q0 18 5.5 27.5t25.5 9.5q7 -12 20.5 -24.5l28 -26l27.5 -26.5t18.5 -25.5t0.5 -23.5t-26 -19q-16 19 -30 29.5t-26 20.5
t-23 22.5t-21 35.5z" />
    <glyph glyph-name="Ohungarumlaut" unicode="&#x150;" horiz-adv-x="460" 
d="M29 322l4.5 89.5t9 106.5t19 109.5t33.5 99.5t52.5 75.5t76.5 37.5h5q36 2 68.5 -30t58.5 -87.5t44 -127.5t24 -148.5t-2 -152t-32 -137.5t-67.5 -104.5t-108.5 -53.5q-37 0 -65.5 16t-49 42.5t-34 60.5t-21.5 70t-11.5 71t-3.5 63zM214 770q-16 2 -34 -27.5t-34 -80
t-29 -115t-19.5 -131.5t-5 -131t15 -113.5t39.5 -78t69 -24.5q44 11 75 45t49.5 82t25.5 106.5t4 119t-15 118.5t-32.5 106t-48 81t-60.5 43zM264 1016q-11 -22 -23 -34.5t-25 -22l-28 -20t-33 -28.5q-23 8 -28 18.5t0.5 22.5t20 25l30 26l30.5 25.5t22 23.5q22 0 28 -9.5
t6 -26.5zM396 1005q-11 -22 -23 -34.5t-25 -22l-28 -20t-33 -28.5q-23 8 -28 18.5t0.5 22.5t20 25l30 26l30.5 25.5t22 23.5q22 0 28 -9.5t6 -26.5z" />
    <glyph glyph-name="Oslash" unicode="&#xd8;" horiz-adv-x="460" 
d="M29 322l4.5 89.5t9 106.5t19 109.5t33.5 99.5t52.5 75.5t76.5 37.5h5q36 2 68.5 -30t58.5 -87.5t44 -127.5t24 -148.5t-2 -152t-32 -137.5t-67.5 -104.5t-108.5 -53.5q-37 0 -65.5 16t-49 42.5t-34 60.5t-21.5 70t-11.5 71t-3.5 63zM214 770q-16 2 -34 -27.5t-34 -80
t-29 -115t-19.5 -131.5t-5 -131t15 -113.5t39.5 -78t69 -24.5q44 11 75 45t49.5 82t25.5 106.5t4 119t-15 118.5t-32.5 106t-48 81t-60.5 43zM47 25q8 31 29.5 95.5l50 144.5l60 167l59 163.5l47 134t24.5 77.5q1 26 18 41t33.5 16t25.5 -13.5t-4 -46.5
q-26 -106 -62.5 -202.5l-74 -192.5t-70 -195t-49.5 -209q-6 -19 -22.5 -26.5t-32 -4.5t-26.5 16t-6 35z" />
    <glyph glyph-name="Omacron" unicode="&#x14c;" horiz-adv-x="460" 
d="M29 322l4.5 89.5t9 106.5t19 109.5t33.5 99.5t52.5 75.5t76.5 37.5h5q36 2 68.5 -30t58.5 -87.5t44 -127.5t24 -148.5t-2 -152t-32 -137.5t-67.5 -104.5t-108.5 -53.5q-37 0 -65.5 16t-49 42.5t-34 60.5t-21.5 70t-11.5 71t-3.5 63zM214 770q-16 2 -34 -27.5t-34 -80
t-29 -115t-19.5 -131.5t-5 -131t15 -113.5t39.5 -78t69 -24.5q44 11 75 45t49.5 82t25.5 106.5t4 119t-15 118.5t-32.5 106t-48 81t-60.5 43zM25 931q18 26 57 32t90 3.5t110 -7.5t116 1q19 0 27.5 -3.5t8.5 -23.5t-24 -30t-61.5 -13.5t-82.5 -2.5t-87 4.5t-74.5 6.5
t-45.5 3q-14 0 -24 7.5t-10 22.5z" />
    <glyph glyph-name="Oslashacute" unicode="&#x1fe;" horiz-adv-x="460" 
d="M29 322l4.5 89.5t9 106.5t19 109.5t33.5 99.5t52.5 75.5t76.5 37.5h5q36 2 68.5 -30t58.5 -87.5t44 -127.5t24 -148.5t-2 -152t-32 -137.5t-67.5 -104.5t-108.5 -53.5q-37 0 -65.5 16t-49 42.5t-34 60.5t-21.5 70t-11.5 71t-3.5 63zM214 770q-16 2 -34 -27.5t-34 -80
t-29 -115t-19.5 -131.5t-5 -131t15 -113.5t39.5 -78t69 -24.5q44 11 75 45t49.5 82t25.5 106.5t4 119t-15 118.5t-32.5 106t-48 81t-60.5 43zM47 25q8 31 29.5 95.5l50 144.5l60 167l59 163.5l47 134t24.5 77.5q1 26 18 41t33.5 16t25.5 -13.5t-4 -46.5
q-26 -106 -62.5 -202.5l-74 -192.5t-70 -195t-49.5 -209q-6 -19 -22.5 -26.5t-32 -4.5t-26.5 16t-6 35zM330 1005q-11 -22 -23 -34.5t-25 -22l-28 -20t-33 -28.5q-23 8 -28 18.5t0.5 22.5t20 25l30 26l30.5 25.5t22 23.5q22 0 28 -9.5t6 -26.5z" />
    <glyph glyph-name="Otilde" unicode="&#xd5;" horiz-adv-x="460" 
d="M29 322l4.5 89.5t9 106.5t19 109.5t33.5 99.5t52.5 75.5t76.5 37.5h5q36 2 68.5 -30t58.5 -87.5t44 -127.5t24 -148.5t-2 -152t-32 -137.5t-67.5 -104.5t-108.5 -53.5q-37 0 -65.5 16t-49 42.5t-34 60.5t-21.5 70t-11.5 71t-3.5 63zM214 770q-16 2 -34 -27.5t-34 -80
t-29 -115t-19.5 -131.5t-5 -131t15 -113.5t39.5 -78t69 -24.5q44 11 75 45t49.5 82t25.5 106.5t4 119t-15 118.5t-32.5 106t-48 81t-60.5 43zM436 1008q1 -53 -8.5 -81t-25.5 -37.5t-37.5 -4.5t-46 18t-50.5 30.5l-51 33t-47 25.5t-38 8q-15 -7 -22 -19t-10 -25t-4 -25
t-5 -19t-12.5 -8t-25.5 9q-12 3 -11 29.5t12.5 57t32 56t47.5 28.5q23 -6 48 -21.5t49.5 -34l47 -37t41 -30t31 -12.5t17.5 15q11 12 12 27t-2.5 32t-8.5 35t-5 36q22 11 36.5 4.5t22 -21.5t10.5 -34.5t3 -34.5z" />
    <glyph glyph-name="OE" unicode="&#x152;" horiz-adv-x="952" 
d="M29 322l4.5 89.5t9 106.5t19 109.5t33.5 99.5t52.5 75.5t76.5 37.5h5q36 2 68.5 -30t58.5 -87.5t44 -127.5t24 -148.5t-2 -152t-32 -137.5t-67.5 -104.5t-108.5 -53.5q-37 0 -65.5 16t-49 42.5t-34 60.5t-21.5 70t-11.5 71t-3.5 63zM214 770q-16 2 -34 -27.5t-34 -80
t-29 -115t-19.5 -131.5t-5 -131t15 -113.5t39.5 -78t69 -24.5q44 11 75 45t49.5 82t25.5 106.5t4 119t-15 118.5t-32.5 106t-48 81t-60.5 43zM419 120q8 19 5 58t-12.5 89t-22.5 107.5t-24.5 114.5t-20 109.5t-8.5 93t10.5 64.5t36.5 24q43 0 94 -1t104 1.5t104.5 10.5
t96.5 27q24 -6 24.5 -29.5t-14.5 -48.5q-36 2 -84 -4.5t-98 -14.5l-98 -15t-84 -6q-22 0 -26 -22.5t2.5 -59.5t18.5 -83.5t22 -94.5q1 0 31.5 6l74.5 15l95.5 19l95.5 18.5l74 14t32 4.5q27 -12 18 -27.5t-43.5 -32t-88 -32.5t-114.5 -29l-29 -7.5l-45 -11.5l-45 -11t-29 -6
q-7 -99 7 -155t44 -80t73.5 -21.5t95.5 20.5q24 5 57 17.5l66.5 25t62 21.5t44.5 7.5t14 -17.5t-30 -53q-45 -18 -94.5 -35t-100 -31.5t-101.5 -25t-100 -13.5q-45 11 -82.5 34t-55.5 43.5t-9.5 29.5t56.5 -7z" />
    <glyph glyph-name="Racute" unicode="&#x154;" horiz-adv-x="704" 
d="M38 682q-4 46 17 82t58 61t86 39.5t101 17.5t102.5 -5.5t90 -28.5t63.5 -52t24 -76q0 -41 -22 -91.5t-55 -99t-71.5 -90t-71.5 -63.5q10 -10 39 -30.5l66.5 -46.5l78.5 -56t74.5 -59.5t54.5 -56.5t19 -47q0 -12 -2.5 -20t-21.5 -8q-34 18 -70.5 48l-75 64l-78.5 67
t-82 56t-85.5 31.5t-88.5 -6.5q0 -30 9 -65t20 -71.5t20.5 -72.5t10.5 -67q1 -12 -7 -20t-19 -10.5t-23.5 1t-21.5 14.5zM116 708q4 -16 8.5 -54.5t11 -85.5t16 -94.5t24.5 -81.5q28 -11 64.5 1.5t73.5 39.5t72.5 64.5t61.5 78t39.5 79.5t7.5 69q0 29 -18.5 47t-45 28
t-56 13.5t-51.5 3.5t-57.5 -6t-69 -19.5t-57.5 -34t-24 -48.5zM336 1017q-11 -22 -23 -34.5t-25 -22l-28 -20t-33 -28.5q-23 8 -28 18.5t0.5 22.5t20 25l30 26l30.5 25.5t22 23.5q22 0 28 -9.5t6 -26.5z" />
    <glyph glyph-name="Rcaron" unicode="&#x158;" horiz-adv-x="704" 
d="M38 682q-4 46 17 82t58 61t86 39.5t101 17.5t102.5 -5.5t90 -28.5t63.5 -52t24 -76q0 -41 -22 -91.5t-55 -99t-71.5 -90t-71.5 -63.5q10 -10 39 -30.5l66.5 -46.5l78.5 -56t74.5 -59.5t54.5 -56.5t19 -47q0 -12 -2.5 -20t-21.5 -8q-34 18 -70.5 48l-75 64l-78.5 67
t-82 56t-85.5 31.5t-88.5 -6.5q0 -30 9 -65t20 -71.5t20.5 -72.5t10.5 -67q1 -12 -7 -20t-19 -10.5t-23.5 1t-21.5 14.5zM116 708q4 -16 8.5 -54.5t11 -85.5t16 -94.5t24.5 -81.5q28 -11 64.5 1.5t73.5 39.5t72.5 64.5t61.5 78t39.5 79.5t7.5 69q0 29 -18.5 47t-45 28
t-56 13.5t-51.5 3.5t-57.5 -6t-69 -19.5t-57.5 -34t-24 -48.5zM144 1136l96 -120q14 30 22 50t17 36.5t22.5 32t40.5 34.5q15 0 21.5 -5t8.5 -13t1 -19.5t-1 -23.5q-31 -16 -42.5 -37t-17.5 -45.5t-14 -52.5t-30 -57q-16 0 -43 23t-55.5 52.5t-52 57.5t-31.5 39z" />
    <glyph glyph-name="Rcommaaccent" unicode="&#x156;" horiz-adv-x="704" 
d="M38 682q-4 46 17 82t58 61t86 39.5t101 17.5t102.5 -5.5t90 -28.5t63.5 -52t24 -76q0 -41 -22 -91.5t-55 -99t-71.5 -90t-71.5 -63.5q10 -10 39 -30.5l66.5 -46.5l78.5 -56t74.5 -59.5t54.5 -56.5t19 -47q0 -12 -2.5 -20t-21.5 -8q-34 18 -70.5 48l-75 64l-78.5 67
t-82 56t-85.5 31.5t-88.5 -6.5q0 -30 9 -65t20 -71.5t20.5 -72.5t10.5 -67q1 -12 -7 -20t-19 -10.5t-23.5 1t-21.5 14.5zM116 708q4 -16 8.5 -54.5t11 -85.5t16 -94.5t24.5 -81.5q28 -11 64.5 1.5t73.5 39.5t72.5 64.5t61.5 78t39.5 79.5t7.5 69q0 29 -18.5 47t-45 28
t-56 13.5t-51.5 3.5t-57.5 -6t-69 -19.5t-57.5 -34t-24 -48.5zM284 -312q3 -6 15 18.5t19 63t2 82t-36 76.5q0 8 7 21.5t18 13.5q27 -2 45 -30t25.5 -67t5 -81t-14 -72t-33.5 -40t-53 15z" />
    <glyph glyph-name="Sacute" unicode="&#x15a;" horiz-adv-x="604" 
d="M79 147q2 -30 29 -47.5t67 -23.5t89 -2t96 15.5t87 29.5t62.5 40t22 47.5t-33.5 51.5q-88 33 -172 59t-151 55t-110.5 67.5t-50.5 96.5q-4 31 16 71.5t57 81.5t87 79.5t105.5 65.5t113 39t109.5 1q20 -1 30 -20t10 -40q-1 -2 -4.5 -5.5t-5.5 -4.5q-47 15 -97.5 10.5
t-98.5 -22t-92 -47t-77 -64t-52.5 -73t-20.5 -74.5q6 -43 42 -72t87.5 -51t110 -38.5t110.5 -33.5t89 -37t45 -48q21 -43 11 -80.5t-41 -67.5t-78 -52t-101 -34.5t-110 -15t-104.5 6.5t-84 30.5t-48.5 56.5q-6 10 -2 22t13 21t20.5 11.5t20.5 -6.5h2q1 0 1.5 0.5t1.5 0.5z
M402 1005q-11 -22 -23 -34.5t-25 -22l-28 -20t-33 -28.5q-23 8 -28 18.5t0.5 22.5t20 25l30 26l30.5 25.5t22 23.5q22 0 28 -9.5t6 -26.5z" />
    <glyph glyph-name="Scaron" unicode="&#x160;" horiz-adv-x="604" 
d="M79 147q2 -30 29 -47.5t67 -23.5t89 -2t96 15.5t87 29.5t62.5 40t22 47.5t-33.5 51.5q-88 33 -172 59t-151 55t-110.5 67.5t-50.5 96.5q-4 31 16 71.5t57 81.5t87 79.5t105.5 65.5t113 39t109.5 1q20 -1 30 -20t10 -40q-1 -2 -4.5 -5.5t-5.5 -4.5q-47 15 -97.5 10.5
t-98.5 -22t-92 -47t-77 -64t-52.5 -73t-20.5 -74.5q6 -43 42 -72t87.5 -51t110 -38.5t110.5 -33.5t89 -37t45 -48q21 -43 11 -80.5t-41 -67.5t-78 -52t-101 -34.5t-110 -15t-104.5 6.5t-84 30.5t-48.5 56.5q-6 10 -2 22t13 21t20.5 11.5t20.5 -6.5h2q1 0 1.5 0.5t1.5 0.5z
M218 1128l96 -120q14 30 22 50t17 36.5t22.5 32t40.5 34.5q15 0 21.5 -5t8.5 -13t1 -19.5t-1 -23.5q-31 -16 -42.5 -37t-17.5 -45.5t-14 -52.5t-30 -57q-16 0 -43 23t-55.5 52.5t-52 57.5t-31.5 39z" />
    <glyph glyph-name="Scircumflex" unicode="&#x15c;" horiz-adv-x="604" 
d="M79 147q2 -30 29 -47.5t67 -23.5t89 -2t96 15.5t87 29.5t62.5 40t22 47.5t-33.5 51.5q-88 33 -172 59t-151 55t-110.5 67.5t-50.5 96.5q-4 31 16 71.5t57 81.5t87 79.5t105.5 65.5t113 39t109.5 1q20 -1 30 -20t10 -40q-1 -2 -4.5 -5.5t-5.5 -4.5q-47 15 -97.5 10.5
t-98.5 -22t-92 -47t-77 -64t-52.5 -73t-20.5 -74.5q6 -43 42 -72t87.5 -51t110 -38.5t110.5 -33.5t89 -37t45 -48q21 -43 11 -80.5t-41 -67.5t-78 -52t-101 -34.5t-110 -15t-104.5 6.5t-84 30.5t-48.5 56.5q-6 10 -2 22t13 21t20.5 11.5t20.5 -6.5h2q1 0 1.5 0.5t1.5 0.5z
M141 912q6 33 24 73t43.5 77t55.5 66t59 41q15 0 39 -23.5t46 -55.5t38 -64t16 -49q0 -10 -6 -16t-14 -9t-18 -4t-17 -1q-21 0 -34 13t-21.5 31.5t-15 39.5t-15.5 37q-1 0 -2.5 0.5t-2.5 0.5q-14 0 -23.5 -12.5t-18 -32t-17 -41.5t-19 -41.5t-24 -32t-33.5 -12.5h-10
t-13.5 1.5t-11.5 4.5t-5 9z" />
    <glyph glyph-name="Scedilla" unicode="&#x15e;" horiz-adv-x="604" 
d="M79 147q2 -30 29 -47.5t67 -23.5t89 -2t96 15.5t87 29.5t62.5 40t22 47.5t-33.5 51.5q-88 33 -172 59t-151 55t-110.5 67.5t-50.5 96.5q-4 31 16 71.5t57 81.5t87 79.5t105.5 65.5t113 39t109.5 1q20 -1 30 -20t10 -40q-1 -2 -4.5 -5.5t-5.5 -4.5q-47 15 -97.5 10.5
t-98.5 -22t-92 -47t-77 -64t-52.5 -73t-20.5 -74.5q6 -43 42 -72t87.5 -51t110 -38.5t110.5 -33.5t89 -37t45 -48q21 -43 11 -80.5t-41 -67.5t-78 -52t-101 -34.5t-110 -15t-104.5 6.5t-84 30.5t-48.5 56.5q-6 10 -2 22t13 21t20.5 11.5t20.5 -6.5h2q1 0 1.5 0.5t1.5 0.5z
M231 -307q11 9 28.5 12t38.5 4t44.5 2t46.5 4.5t44 12t38 25.5q17 48 9 72.5t-30.5 33t-55 6.5t-63 -7.5t-55 -9t-30.5 2.5q3 36 2 53t-2.5 30.5l-3.5 30.5t-2 53q0 18 13 30.5t30 12.5q18 0 26 -9t11 -22t2 -29t-2 -29t-0.5 -22t6.5 -9q74 0 116.5 -8t63.5 -21t26 -28
t5 -29q10 -54 0.5 -92.5t-32.5 -64t-56.5 -40t-70 -20t-74 -4.5t-68.5 7q-7 0 -8.5 5t-1 12.5t2.5 17t2 17.5z" />
    <glyph glyph-name="Scommaaccent" unicode="&#x218;" horiz-adv-x="604" 
d="M79 147q2 -30 29 -47.5t67 -23.5t89 -2t96 15.5t87 29.5t62.5 40t22 47.5t-33.5 51.5q-88 33 -172 59t-151 55t-110.5 67.5t-50.5 96.5q-4 31 16 71.5t57 81.5t87 79.5t105.5 65.5t113 39t109.5 1q20 -1 30 -20t10 -40q-1 -2 -4.5 -5.5t-5.5 -4.5q-47 15 -97.5 10.5
t-98.5 -22t-92 -47t-77 -64t-52.5 -73t-20.5 -74.5q6 -43 42 -72t87.5 -51t110 -38.5t110.5 -33.5t89 -37t45 -48q21 -43 11 -80.5t-41 -67.5t-78 -52t-101 -34.5t-110 -15t-104.5 6.5t-84 30.5t-48.5 56.5q-6 10 -2 22t13 21t20.5 11.5t20.5 -6.5h2q1 0 1.5 0.5t1.5 0.5z
M234 -312q3 -6 15 18.5t19 63t2 82t-36 76.5q0 8 7 21.5t18 13.5q27 -2 45 -30t25.5 -67t5 -81t-14 -72t-33.5 -40t-53 15z" />
    <glyph glyph-name="Tbar" unicode="&#x166;" horiz-adv-x="740" 
d="M593 2q-10 6 -23 20t-26 31.5t-22.5 36.5t-12.5 35t3 26.5t26 11.5q-2 27 -3 71t-2.5 96t-3.5 109t-5 110t-7 98t-10 75q-56 4 -111 -3.5t-110 -18l-109.5 -20t-109.5 -9.5q-17 -5 -34.5 2.5t-28 21t-9 29.5t21.5 28q47 1 103 2t114 3t115.5 5.5t107.5 9.5q9 6 22 22.5
t30 28t39 10t49 -30.5q36 5 82 8l93.5 6t93 7t81.5 11q21 0 33 -12.5t14 -27.5t-5.5 -28t-24.5 -14q-31 5 -83.5 6.5t-109 -1.5t-107 -11.5t-77.5 -23.5q-5 -72 -1.5 -155t11 -164.5l15 -156.5t10 -131t-3.5 -87.5t-25 -25.5zM353 548q18 26 57 32t90 3.5t110 -7.5t116 1
q19 0 27.5 -3.5t8.5 -23.5t-24 -30t-61.5 -13.5t-82.5 -2.5t-87 4.5t-74.5 6.5t-45.5 3q-14 0 -24 7.5t-10 22.5z" />
    <glyph glyph-name="Tcaron" unicode="&#x164;" horiz-adv-x="740" 
d="M593 2q-10 6 -23 20t-26 31.5t-22.5 36.5t-12.5 35t3 26.5t26 11.5q-2 27 -3 71t-2.5 96t-3.5 109t-5 110t-7 98t-10 75q-56 4 -111 -3.5t-110 -18l-109.5 -20t-109.5 -9.5q-17 -5 -34.5 2.5t-28 21t-9 29.5t21.5 28q47 1 103 2t114 3t115.5 5.5t107.5 9.5q9 6 22 22.5
t30 28t39 10t49 -30.5q36 5 82 8l93.5 6t93 7t81.5 11q21 0 33 -12.5t14 -27.5t-5.5 -28t-24.5 -14q-31 5 -83.5 6.5t-109 -1.5t-107 -11.5t-77.5 -23.5q-5 -72 -1.5 -155t11 -164.5l15 -156.5t10 -131t-3.5 -87.5t-25 -25.5zM422 1100l96 -120q14 30 22 50t17 36.5t22.5 32
t40.5 34.5q15 0 21.5 -5t8.5 -13t1 -19.5t-1 -23.5q-31 -16 -42.5 -37t-17.5 -45.5t-14 -52.5t-30 -57q-16 0 -43 23t-55.5 52.5t-52 57.5t-31.5 39z" />
    <glyph glyph-name="Tcommaaccent" unicode="&#x162;" horiz-adv-x="740" 
d="M593 2q-10 6 -23 20t-26 31.5t-22.5 36.5t-12.5 35t3 26.5t26 11.5q-2 27 -3 71t-2.5 96t-3.5 109t-5 110t-7 98t-10 75q-56 4 -111 -3.5t-110 -18l-109.5 -20t-109.5 -9.5q-17 -5 -34.5 2.5t-28 21t-9 29.5t21.5 28q47 1 103 2t114 3t115.5 5.5t107.5 9.5q9 6 22 22.5
t30 28t39 10t49 -30.5q36 5 82 8l93.5 6t93 7t81.5 11q21 0 33 -12.5t14 -27.5t-5.5 -28t-24.5 -14q-31 5 -83.5 6.5t-109 -1.5t-107 -11.5t-77.5 -23.5q-5 -72 -1.5 -155t11 -164.5l15 -156.5t10 -131t-3.5 -87.5t-25 -25.5zM526 -339q3 -6 15 18.5t19 63t2 82t-36 76.5
q0 8 7 21.5t18 13.5q27 -2 45 -30t25.5 -67t5 -81t-14 -72t-33.5 -40t-53 15z" />
    <glyph glyph-name="Uacute" unicode="&#xda;" horiz-adv-x="640" 
d="M450 360q-8 -14 -12 -47t-10.5 -74t-17 -85t-31.5 -79.5t-54.5 -57t-85.5 -17.5q-63 0 -102 40t-60 106.5t-28 152.5t-6 177.5t6 181t7 164.5q4 11 10.5 21t19.5 10q14 0 19.5 -33.5t7 -88.5t0.5 -125t0.5 -143.5t7 -143.5t20.5 -125t40.5 -88.5t66.5 -33.5q44 0 71 37.5
t43 100t22.5 143t9 164.5t4 165.5t7.5 146.5q0 8 7.5 16t18.5 11.5t22 1.5t19 -14q2 -100 7.5 -200.5t20.5 -201t41 -201.5t70 -201q0 -42 -43 -42q-7 0 -12 2t-11 12.5t-13 32.5t-18 62.5l-26.5 102zM368 993q-11 -22 -23 -34.5t-25 -22l-28 -20t-33 -28.5q-23 8 -28 18.5
t0.5 22.5t20 25l30 26l30.5 25.5t22 23.5q22 0 28 -9.5t6 -26.5z" />
    <glyph glyph-name="Ubreve" unicode="&#x16c;" horiz-adv-x="640" 
d="M450 360q-8 -14 -12 -47t-10.5 -74t-17 -85t-31.5 -79.5t-54.5 -57t-85.5 -17.5q-63 0 -102 40t-60 106.5t-28 152.5t-6 177.5t6 181t7 164.5q4 11 10.5 21t19.5 10q14 0 19.5 -33.5t7 -88.5t0.5 -125t0.5 -143.5t7 -143.5t20.5 -125t40.5 -88.5t66.5 -33.5q44 0 71 37.5
t43 100t22.5 143t9 164.5t4 165.5t7.5 146.5q0 8 7.5 16t18.5 11.5t22 1.5t19 -14q2 -100 7.5 -200.5t20.5 -201t41 -201.5t70 -201q0 -42 -43 -42q-7 0 -12 2t-11 12.5t-13 32.5t-18 62.5l-26.5 102zM92 1032q0 8 5.5 13.5t14 8.5t18.5 4.5t19 1.5q7 -35 25.5 -60t41.5 -38
t47 -14t42 12t26.5 41.5t0.5 74.5v3q0 1 1 2q5 8 15 18.5t20 12.5q34 -38 41 -73t-5 -64t-38.5 -50t-59.5 -32t-69 -10t-67 17t-52.5 48.5t-25.5 83.5z" />
    <glyph glyph-name="Ucircumflex" unicode="&#xdb;" horiz-adv-x="640" 
d="M450 360q-8 -14 -12 -47t-10.5 -74t-17 -85t-31.5 -79.5t-54.5 -57t-85.5 -17.5q-63 0 -102 40t-60 106.5t-28 152.5t-6 177.5t6 181t7 164.5q4 11 10.5 21t19.5 10q14 0 19.5 -33.5t7 -88.5t0.5 -125t0.5 -143.5t7 -143.5t20.5 -125t40.5 -88.5t66.5 -33.5q44 0 71 37.5
t43 100t22.5 143t9 164.5t4 165.5t7.5 146.5q0 8 7.5 16t18.5 11.5t22 1.5t19 -14q2 -100 7.5 -200.5t20.5 -201t41 -201.5t70 -201q0 -42 -43 -42q-7 0 -12 2t-11 12.5t-13 32.5t-18 62.5l-26.5 102zM111 904q6 33 24 73t43.5 77t55.5 66t59 41q15 0 39 -23.5t46 -55.5
t38 -64t16 -49q0 -10 -6 -16t-14 -9t-18 -4t-17 -1q-21 0 -34 13t-21.5 31.5t-15 39.5t-15.5 37q-1 0 -2.5 0.5t-2.5 0.5q-14 0 -23.5 -12.5t-18 -32t-17 -41.5t-19 -41.5t-24 -32t-33.5 -12.5h-10t-13.5 1.5t-11.5 4.5t-5 9z" />
    <glyph glyph-name="Udieresis" unicode="&#xdc;" horiz-adv-x="640" 
d="M450 360q-8 -14 -12 -47t-10.5 -74t-17 -85t-31.5 -79.5t-54.5 -57t-85.5 -17.5q-63 0 -102 40t-60 106.5t-28 152.5t-6 177.5t6 181t7 164.5q4 11 10.5 21t19.5 10q14 0 19.5 -33.5t7 -88.5t0.5 -125t0.5 -143.5t7 -143.5t20.5 -125t40.5 -88.5t66.5 -33.5q44 0 71 37.5
t43 100t22.5 143t9 164.5t4 165.5t7.5 146.5q0 8 7.5 16t18.5 11.5t22 1.5t19 -14q2 -100 7.5 -200.5t20.5 -201t41 -201.5t70 -201q0 -42 -43 -42q-7 0 -12 2t-11 12.5t-13 32.5t-18 62.5l-26.5 102zM121 972q0 17 12 26.5t29 9.5q10 0 21 -6t20 -15t14.5 -19.5t5.5 -19.5
q0 -12 -2.5 -27.5t-17.5 -15.5q-12 0 -26.5 5.5t-27 15t-20.5 21.5t-8 25zM305 972q0 17 12 26.5t29 9.5q10 0 21 -6t20 -15t14.5 -19.5t5.5 -19.5q0 -12 -2.5 -27.5t-17.5 -15.5q-12 0 -26.5 5.5t-27 15t-20.5 21.5t-8 25z" />
    <glyph glyph-name="Ugrave" unicode="&#xd9;" horiz-adv-x="640" 
d="M450 360q-8 -14 -12 -47t-10.5 -74t-17 -85t-31.5 -79.5t-54.5 -57t-85.5 -17.5q-63 0 -102 40t-60 106.5t-28 152.5t-6 177.5t6 181t7 164.5q4 11 10.5 21t19.5 10q14 0 19.5 -33.5t7 -88.5t0.5 -125t0.5 -143.5t7 -143.5t20.5 -125t40.5 -88.5t66.5 -33.5q44 0 71 37.5
t43 100t22.5 143t9 164.5t4 165.5t7.5 146.5q0 8 7.5 16t18.5 11.5t22 1.5t19 -14q2 -100 7.5 -200.5t20.5 -201t41 -201.5t70 -201q0 -42 -43 -42q-7 0 -12 2t-11 12.5t-13 32.5t-18 62.5l-26.5 102zM228 1008q0 18 5.5 27.5t25.5 9.5q7 -12 20.5 -24.5l28 -26l27.5 -26.5
t18.5 -25.5t0.5 -23.5t-26 -19q-16 19 -30 29.5t-26 20.5t-23 22.5t-21 35.5z" />
    <glyph glyph-name="Uhungarumlaut" unicode="&#x170;" horiz-adv-x="640" 
d="M450 360q-8 -14 -12 -47t-10.5 -74t-17 -85t-31.5 -79.5t-54.5 -57t-85.5 -17.5q-63 0 -102 40t-60 106.5t-28 152.5t-6 177.5t6 181t7 164.5q4 11 10.5 21t19.5 10q14 0 19.5 -33.5t7 -88.5t0.5 -125t0.5 -143.5t7 -143.5t20.5 -125t40.5 -88.5t66.5 -33.5q44 0 71 37.5
t43 100t22.5 143t9 164.5t4 165.5t7.5 146.5q0 8 7.5 16t18.5 11.5t22 1.5t19 -14q2 -100 7.5 -200.5t20.5 -201t41 -201.5t70 -201q0 -42 -43 -42q-7 0 -12 2t-11 12.5t-13 32.5t-18 62.5l-26.5 102zM278 1008q-11 -22 -23 -34.5t-25 -22l-28 -20t-33 -28.5q-23 8 -28 18.5
t0.5 22.5t20 25l30 26l30.5 25.5t22 23.5q22 0 28 -9.5t6 -26.5zM410 997q-11 -22 -23 -34.5t-25 -22l-28 -20t-33 -28.5q-23 8 -28 18.5t0.5 22.5t20 25l30 26l30.5 25.5t22 23.5q22 0 28 -9.5t6 -26.5z" />
    <glyph glyph-name="Umacron" unicode="&#x16a;" horiz-adv-x="640" 
d="M450 360q-8 -14 -12 -47t-10.5 -74t-17 -85t-31.5 -79.5t-54.5 -57t-85.5 -17.5q-63 0 -102 40t-60 106.5t-28 152.5t-6 177.5t6 181t7 164.5q4 11 10.5 21t19.5 10q14 0 19.5 -33.5t7 -88.5t0.5 -125t0.5 -143.5t7 -143.5t20.5 -125t40.5 -88.5t66.5 -33.5q44 0 71 37.5
t43 100t22.5 143t9 164.5t4 165.5t7.5 146.5q0 8 7.5 16t18.5 11.5t22 1.5t19 -14q2 -100 7.5 -200.5t20.5 -201t41 -201.5t70 -201q0 -42 -43 -42q-7 0 -12 2t-11 12.5t-13 32.5t-18 62.5l-26.5 102zM43 959q18 26 57 32t90 3.5t110 -7.5t116 1q19 0 27.5 -3.5t8.5 -23.5
t-24 -30t-61.5 -13.5t-82.5 -2.5t-87 4.5t-74.5 6.5t-45.5 3q-14 0 -24 7.5t-10 22.5z" />
    <glyph glyph-name="Uogonek" unicode="&#x172;" horiz-adv-x="640" 
d="M450 360q-8 -14 -12 -47t-10.5 -74t-17 -85t-31.5 -79.5t-54.5 -57t-85.5 -17.5q-63 0 -102 40t-60 106.5t-28 152.5t-6 177.5t6 181t7 164.5q4 11 10.5 21t19.5 10q14 0 19.5 -33.5t7 -88.5t0.5 -125t0.5 -143.5t7 -143.5t20.5 -125t40.5 -88.5t66.5 -33.5q44 0 71 37.5
t43 100t22.5 143t9 164.5t4 165.5t7.5 146.5q0 8 7.5 16t18.5 11.5t22 1.5t19 -14q2 -100 7.5 -200.5t20.5 -201t41 -201.5t70 -201q0 -42 -43 -42q-7 0 -12 2t-11 12.5t-13 32.5t-18 62.5l-26.5 102zM659 -120q-9 -13 -21 -23t-25 -16t-25 -8.5t-21 0.5q-35 15 -49 42.5
t-14 60t11 65.5t28 59l39 -20q-17 -33 -19 -65.5t7 -51.5t27 -18.5t41 34.5z" />
    <glyph glyph-name="Uring" unicode="&#x16e;" horiz-adv-x="640" 
d="M450 360q-8 -14 -12 -47t-10.5 -74t-17 -85t-31.5 -79.5t-54.5 -57t-85.5 -17.5q-63 0 -102 40t-60 106.5t-28 152.5t-6 177.5t6 181t7 164.5q4 11 10.5 21t19.5 10q14 0 19.5 -33.5t7 -88.5t0.5 -125t0.5 -143.5t7 -143.5t20.5 -125t40.5 -88.5t66.5 -33.5q44 0 71 37.5
t43 100t22.5 143t9 164.5t4 165.5t7.5 146.5q0 8 7.5 16t18.5 11.5t22 1.5t19 -14q2 -100 7.5 -200.5t20.5 -201t41 -201.5t70 -201q0 -42 -43 -42q-7 0 -12 2t-11 12.5t-13 32.5t-18 62.5l-26.5 102zM322 869q-24 -3 -51.5 -1.5t-54.5 6.5t-51.5 14.5t-42.5 23.5
q1 5 3.5 6.5t5.5 2t6.5 1.5t5.5 4q-4 32 12 52.5t42.5 30.5t58.5 10t60.5 -9.5t49.5 -27.5t25 -44q2 -14 -2.5 -25.5t-14 -20.5t-23 -15t-29.5 -8zM188 936q5 -15 24.5 -21t42.5 -5t44.5 7t30.5 15q-3 19 -25 30.5t-47.5 13t-47 -8t-22.5 -31.5z" />
    <glyph glyph-name="Utilde" unicode="&#x168;" horiz-adv-x="640" 
d="M450 360q-8 -14 -12 -47t-10.5 -74t-17 -85t-31.5 -79.5t-54.5 -57t-85.5 -17.5q-63 0 -102 40t-60 106.5t-28 152.5t-6 177.5t6 181t7 164.5q4 11 10.5 21t19.5 10q14 0 19.5 -33.5t7 -88.5t0.5 -125t0.5 -143.5t7 -143.5t20.5 -125t40.5 -88.5t66.5 -33.5q44 0 71 37.5
t43 100t22.5 143t9 164.5t4 165.5t7.5 146.5q0 8 7.5 16t18.5 11.5t22 1.5t19 -14q2 -100 7.5 -200.5t20.5 -201t41 -201.5t70 -201q0 -42 -43 -42q-7 0 -12 2t-11 12.5t-13 32.5t-18 62.5l-26.5 102zM442 1048q1 -53 -8.5 -81t-25.5 -37.5t-37.5 -4.5t-46 18t-50.5 30.5
l-51 33t-47 25.5t-38 8q-15 -7 -22 -19t-10 -25t-4 -25t-5 -19t-12.5 -8t-25.5 9q-12 3 -11 29.5t12.5 57t32 56t47.5 28.5q23 -6 48 -21.5t49.5 -34l47 -37t41 -30t31 -12.5t17.5 15q11 12 12 27t-2.5 32t-8.5 35t-5 36q22 11 36.5 4.5t22 -21.5t10.5 -34.5t3 -34.5z" />
    <glyph glyph-name="Wacute" unicode="&#x1e82;" horiz-adv-x="910" 
d="M190 30q-15 89 -41.5 189.5l-55 205l-55.5 208.5t-44 201v4q2 3 6.5 8.5t9.5 10l9 8t5 3.5q42 -79 66 -167.5t43 -179.5t40 -180.5t57 -170.5q14 15 26.5 56.5t24 95l23 111.5t23 106.5t24.5 79.5t29 31q33 -12 63.5 -41.5t59 -68.5t54.5 -84l48.5 -87.5l41 -79.5
t33.5 -59q13 16 26.5 57t27 95.5t27.5 117l28.5 122t30 110.5t31.5 82.5t33.5 37.5t35.5 -24q-24 -56 -45 -123.5t-39 -140.5t-34 -148l-30 -146.5l-27 -135.5t-25 -114q-26 4 -38.5 15t-19.5 26t-10.5 33t-11.5 36l-44 97.5t-56 117t-66 112.5t-74 83q-15 -36 -28 -83.5
t-27.5 -110l-32 -141t-42.5 -175.5q-8 -13 -19 -20t-22 -7t-21.5 6.5t-17.5 20.5zM555 1005q-11 -22 -23 -34.5t-25 -22l-28 -20t-33 -28.5q-23 8 -28 18.5t0.5 22.5t20 25l30 26l30.5 25.5t22 23.5q22 0 28 -9.5t6 -26.5z" />
    <glyph glyph-name="Wcircumflex" unicode="&#x174;" horiz-adv-x="910" 
d="M190 30q-15 89 -41.5 189.5l-55 205l-55.5 208.5t-44 201v4q2 3 6.5 8.5t9.5 10l9 8t5 3.5q42 -79 66 -167.5t43 -179.5t40 -180.5t57 -170.5q14 15 26.5 56.5t24 95l23 111.5t23 106.5t24.5 79.5t29 31q33 -12 63.5 -41.5t59 -68.5t54.5 -84l48.5 -87.5l41 -79.5
t33.5 -59q13 16 26.5 57t27 95.5t27.5 117l28.5 122t30 110.5t31.5 82.5t33.5 37.5t35.5 -24q-24 -56 -45 -123.5t-39 -140.5t-34 -148l-30 -146.5l-27 -135.5t-25 -114q-26 4 -38.5 15t-19.5 26t-10.5 33t-11.5 36l-44 97.5t-56 117t-66 112.5t-74 83q-15 -36 -28 -83.5
t-27.5 -110l-32 -141t-42.5 -175.5q-8 -13 -19 -20t-22 -7t-21.5 6.5t-17.5 20.5zM294 912q6 33 24 73t43.5 77t55.5 66t59 41q15 0 39 -23.5t46 -55.5t38 -64t16 -49q0 -10 -6 -16t-14 -9t-18 -4t-17 -1q-21 0 -34 13t-21.5 31.5t-15 39.5t-15.5 37q-1 0 -2.5 0.5t-2.5 0.5
q-14 0 -23.5 -12.5t-18 -32t-17 -41.5t-19 -41.5t-24 -32t-33.5 -12.5h-10t-13.5 1.5t-11.5 4.5t-5 9z" />
    <glyph glyph-name="Wdieresis" unicode="&#x1e84;" horiz-adv-x="910" 
d="M190 30q-15 89 -41.5 189.5l-55 205l-55.5 208.5t-44 201v4q2 3 6.5 8.5t9.5 10l9 8t5 3.5q42 -79 66 -167.5t43 -179.5t40 -180.5t57 -170.5q14 15 26.5 56.5t24 95l23 111.5t23 106.5t24.5 79.5t29 31q33 -12 63.5 -41.5t59 -68.5t54.5 -84l48.5 -87.5l41 -79.5
t33.5 -59q13 16 26.5 57t27 95.5t27.5 117l28.5 122t30 110.5t31.5 82.5t33.5 37.5t35.5 -24q-24 -56 -45 -123.5t-39 -140.5t-34 -148l-30 -146.5l-27 -135.5t-25 -114q-26 4 -38.5 15t-19.5 26t-10.5 33t-11.5 36l-44 97.5t-56 117t-66 112.5t-74 83q-15 -36 -28 -83.5
t-27.5 -110l-32 -141t-42.5 -175.5q-8 -13 -19 -20t-22 -7t-21.5 6.5t-17.5 20.5zM312 960q0 17 12 26.5t29 9.5q10 0 21 -6t20 -15t14.5 -19.5t5.5 -19.5q0 -12 -2.5 -27.5t-17.5 -15.5q-12 0 -26.5 5.5t-27 15t-20.5 21.5t-8 25zM496 960q0 17 12 26.5t29 9.5q10 0 21 -6
t20 -15t14.5 -19.5t5.5 -19.5q0 -12 -2.5 -27.5t-17.5 -15.5q-12 0 -26.5 5.5t-27 15t-20.5 21.5t-8 25z" />
    <glyph glyph-name="Wgrave" unicode="&#x1e80;" horiz-adv-x="910" 
d="M190 30q-15 89 -41.5 189.5l-55 205l-55.5 208.5t-44 201v4q2 3 6.5 8.5t9.5 10l9 8t5 3.5q42 -79 66 -167.5t43 -179.5t40 -180.5t57 -170.5q14 15 26.5 56.5t24 95l23 111.5t23 106.5t24.5 79.5t29 31q33 -12 63.5 -41.5t59 -68.5t54.5 -84l48.5 -87.5l41 -79.5
t33.5 -59q13 16 26.5 57t27 95.5t27.5 117l28.5 122t30 110.5t31.5 82.5t33.5 37.5t35.5 -24q-24 -56 -45 -123.5t-39 -140.5t-34 -148l-30 -146.5l-27 -135.5t-25 -114q-26 4 -38.5 15t-19.5 26t-10.5 33t-11.5 36l-44 97.5t-56 117t-66 112.5t-74 83q-15 -36 -28 -83.5
t-27.5 -110l-32 -141t-42.5 -175.5q-8 -13 -19 -20t-22 -7t-21.5 6.5t-17.5 20.5zM363 1008q0 18 5.5 27.5t25.5 9.5q7 -12 20.5 -24.5l28 -26l27.5 -26.5t18.5 -25.5t0.5 -23.5t-26 -19q-16 19 -30 29.5t-26 20.5t-23 22.5t-21 35.5z" />
    <glyph glyph-name="Yacute" unicode="&#xdd;" horiz-adv-x="550" 
d="M229 50l40.5 89t34 89.5t22 93t4.5 98.5l-82 94l-81 90t-77 92t-70 100q0 17 6.5 31t23.5 14q14 -2 36 -21t48.5 -48.5l56 -65.5l59 -72.5l58 -69t52.5 -54.5q23 36 35.5 77.5t22 84.5l18.5 86t24 82q10 0 21 1t19.5 -1t14.5 -8t6 -21l-27 -119l-31.5 -135l-34.5 -142
l-36.5 -141l-36.5 -131.5t-35 -112.5q-7 -20 -21.5 -27.5t-30 -4.5t-27 16.5t-12.5 35.5zM375 1005q-11 -22 -23 -34.5t-25 -22l-28 -20t-33 -28.5q-23 8 -28 18.5t0.5 22.5t20 25l30 26l30.5 25.5t22 23.5q22 0 28 -9.5t6 -26.5z" />
    <glyph glyph-name="Ycircumflex" unicode="&#x176;" horiz-adv-x="550" 
d="M229 50l40.5 89t34 89.5t22 93t4.5 98.5l-82 94l-81 90t-77 92t-70 100q0 17 6.5 31t23.5 14q14 -2 36 -21t48.5 -48.5l56 -65.5l59 -72.5l58 -69t52.5 -54.5q23 36 35.5 77.5t22 84.5l18.5 86t24 82q10 0 21 1t19.5 -1t14.5 -8t6 -21l-27 -119l-31.5 -135l-34.5 -142
l-36.5 -141l-36.5 -131.5t-35 -112.5q-7 -20 -21.5 -27.5t-30 -4.5t-27 16.5t-12.5 35.5zM114 912q6 33 24 73t43.5 77t55.5 66t59 41q15 0 39 -23.5t46 -55.5t38 -64t16 -49q0 -10 -6 -16t-14 -9t-18 -4t-17 -1q-21 0 -34 13t-21.5 31.5t-15 39.5t-15.5 37q-1 0 -2.5 0.5
t-2.5 0.5q-14 0 -23.5 -12.5t-18 -32t-17 -41.5t-19 -41.5t-24 -32t-33.5 -12.5h-10t-13.5 1.5t-11.5 4.5t-5 9z" />
    <glyph glyph-name="Ydieresis" unicode="&#x178;" horiz-adv-x="550" 
d="M229 50l40.5 89t34 89.5t22 93t4.5 98.5l-82 94l-81 90t-77 92t-70 100q0 17 6.5 31t23.5 14q14 -2 36 -21t48.5 -48.5l56 -65.5l59 -72.5l58 -69t52.5 -54.5q23 36 35.5 77.5t22 84.5l18.5 86t24 82q10 0 21 1t19.5 -1t14.5 -8t6 -21l-27 -119l-31.5 -135l-34.5 -142
l-36.5 -141l-36.5 -131.5t-35 -112.5q-7 -20 -21.5 -27.5t-30 -4.5t-27 16.5t-12.5 35.5zM132 960q0 17 12 26.5t29 9.5q10 0 21 -6t20 -15t14.5 -19.5t5.5 -19.5q0 -12 -2.5 -27.5t-17.5 -15.5q-12 0 -26.5 5.5t-27 15t-20.5 21.5t-8 25zM316 960q0 17 12 26.5t29 9.5
q10 0 21 -6t20 -15t14.5 -19.5t5.5 -19.5q0 -12 -2.5 -27.5t-17.5 -15.5q-12 0 -26.5 5.5t-27 15t-20.5 21.5t-8 25z" />
    <glyph glyph-name="Ygrave" unicode="&#x1ef2;" horiz-adv-x="550" 
d="M229 50l40.5 89t34 89.5t22 93t4.5 98.5l-82 94l-81 90t-77 92t-70 100q0 17 6.5 31t23.5 14q14 -2 36 -21t48.5 -48.5l56 -65.5l59 -72.5l58 -69t52.5 -54.5q23 36 35.5 77.5t22 84.5l18.5 86t24 82q10 0 21 1t19.5 -1t14.5 -8t6 -21l-27 -119l-31.5 -135l-34.5 -142
l-36.5 -141l-36.5 -131.5t-35 -112.5q-7 -20 -21.5 -27.5t-30 -4.5t-27 16.5t-12.5 35.5zM183 1008q0 18 5.5 27.5t25.5 9.5q7 -12 20.5 -24.5l28 -26l27.5 -26.5t18.5 -25.5t0.5 -23.5t-26 -19q-16 19 -30 29.5t-26 20.5t-23 22.5t-21 35.5z" />
    <glyph glyph-name="Zacute" unicode="&#x179;" horiz-adv-x="710" 
d="M140 0q-14 5 -23 15t-13.5 22.5t-3 26.5t9.5 26l59 88.5l68 107.5t68.5 118t60 121.5t42.5 117t16 105.5q-39 -2 -77 -7t-76.5 -8t-76.5 -2.5t-77 9.5q-11 4 -16.5 14t-5.5 20.5t5.5 20.5t16.5 15q47 -3 88.5 0t81 7.5l80 9t85.5 4.5q30 0 48 -9t18 -42q4 -26 -6.5 -69.5
t-30.5 -97t-47 -113t-56.5 -117.5l-58 -110l-52 -91.5t-39 -61.5t-18.5 -20v-6q46 -10 99.5 -2.5t107 22t103 30.5t87.5 23.5t61 0.5t23 -38q7 -15 -15 -29t-63.5 -27t-98.5 -24t-120.5 -20t-129 -17t-124.5 -13zM455 1005q-11 -22 -23 -34.5t-25 -22l-28 -20t-33 -28.5
q-23 8 -28 18.5t0.5 22.5t20 25l30 26l30.5 25.5t22 23.5q22 0 28 -9.5t6 -26.5z" />
    <glyph glyph-name="Zcaron" unicode="&#x17d;" horiz-adv-x="710" 
d="M140 0q-14 5 -23 15t-13.5 22.5t-3 26.5t9.5 26l59 88.5l68 107.5t68.5 118t60 121.5t42.5 117t16 105.5q-39 -2 -77 -7t-76.5 -8t-76.5 -2.5t-77 9.5q-11 4 -16.5 14t-5.5 20.5t5.5 20.5t16.5 15q47 -3 88.5 0t81 7.5l80 9t85.5 4.5q30 0 48 -9t18 -42q4 -26 -6.5 -69.5
t-30.5 -97t-47 -113t-56.5 -117.5l-58 -110l-52 -91.5t-39 -61.5t-18.5 -20v-6q46 -10 99.5 -2.5t107 22t103 30.5t87.5 23.5t61 0.5t23 -38q7 -15 -15 -29t-63.5 -27t-98.5 -24t-120.5 -20t-129 -17t-124.5 -13zM267 1092l96 -120q14 30 22 50t17 36.5t22.5 32t40.5 34.5
q15 0 21.5 -5t8.5 -13t1 -19.5t-1 -23.5q-31 -16 -42.5 -37t-17.5 -45.5t-14 -52.5t-30 -57q-16 0 -43 23t-55.5 52.5t-52 57.5t-31.5 39z" />
    <glyph glyph-name="Zdotaccent" unicode="&#x17b;" horiz-adv-x="710" 
d="M140 0q-14 5 -23 15t-13.5 22.5t-3 26.5t9.5 26l59 88.5l68 107.5t68.5 118t60 121.5t42.5 117t16 105.5q-39 -2 -77 -7t-76.5 -8t-76.5 -2.5t-77 9.5q-11 4 -16.5 14t-5.5 20.5t5.5 20.5t16.5 15q47 -3 88.5 0t81 7.5l80 9t85.5 4.5q30 0 48 -9t18 -42q4 -26 -6.5 -69.5
t-30.5 -97t-47 -113t-56.5 -117.5l-58 -110l-52 -91.5t-39 -61.5t-18.5 -20v-6q46 -10 99.5 -2.5t107 22t103 30.5t87.5 23.5t61 0.5t23 -38q7 -15 -15 -29t-63.5 -27t-98.5 -24t-120.5 -20t-129 -17t-124.5 -13zM305 964q0 18 13 25t28 7q8 0 18 -5t18.5 -13t13.5 -18
t2 -20q-5 -21 -19.5 -25t-30 2t-28 19.5t-15.5 27.5z" />
    <glyph glyph-name="aacute" unicode="&#xe1;" horiz-adv-x="576" 
d="M486 439q-17 -35 -42 -79.5t-55 -91t-63.5 -91t-68.5 -79.5t-69.5 -57t-67 -22.5t-60.5 24.5t-50 82q-10 98 8 171t54 125t86.5 86t106 54t112 28t105.5 8q4 2 13.5 3t18 0t14.5 -5.5t4 -12.5l29 -554q2 -12 -4 -20t-16 -10t-23 3t-26 19zM480 524q-37 14 -79 11
t-84.5 -19.5t-83 -44t-74.5 -62t-59 -74t-35.5 -80.5t-4.5 -80.5t33 -73.5q17 -23 49 -9.5t71 50.5t81.5 90t80 107.5t65.5 104t40 80.5zM460 781q-11 -22 -23 -34.5t-25 -22l-28 -20t-33 -28.5q-23 8 -28 18.5t0.5 22.5t20 25l30 26l30.5 25.5t22 23.5q22 0 28 -9.5
t6 -26.5z" />
    <glyph glyph-name="abreve" unicode="&#x103;" horiz-adv-x="576" 
d="M486 439q-17 -35 -42 -79.5t-55 -91t-63.5 -91t-68.5 -79.5t-69.5 -57t-67 -22.5t-60.5 24.5t-50 82q-10 98 8 171t54 125t86.5 86t106 54t112 28t105.5 8q4 2 13.5 3t18 0t14.5 -5.5t4 -12.5l29 -554q2 -12 -4 -20t-16 -10t-23 3t-26 19zM480 524q-37 14 -79 11
t-84.5 -19.5t-83 -44t-74.5 -62t-59 -74t-35.5 -80.5t-4.5 -80.5t33 -73.5q17 -23 49 -9.5t71 50.5t81.5 90t80 107.5t65.5 104t40 80.5zM208 816q0 8 5.5 13.5t14 8.5t18.5 4.5t19 1.5q7 -35 25.5 -60t41.5 -38t47 -14t42 12t26.5 41.5t0.5 74.5v3q0 1 1 2q5 8 15 18.5
t20 12.5q34 -38 41 -73t-5 -64t-38.5 -50t-59.5 -32t-69 -10t-67 17t-52.5 48.5t-25.5 83.5z" />
    <glyph glyph-name="acircumflex" unicode="&#xe2;" horiz-adv-x="576" 
d="M486 439q-17 -35 -42 -79.5t-55 -91t-63.5 -91t-68.5 -79.5t-69.5 -57t-67 -22.5t-60.5 24.5t-50 82q-10 98 8 171t54 125t86.5 86t106 54t112 28t105.5 8q4 2 13.5 3t18 0t14.5 -5.5t4 -12.5l29 -554q2 -12 -4 -20t-16 -10t-23 3t-26 19zM480 524q-37 14 -79 11
t-84.5 -19.5t-83 -44t-74.5 -62t-59 -74t-35.5 -80.5t-4.5 -80.5t33 -73.5q17 -23 49 -9.5t71 50.5t81.5 90t80 107.5t65.5 104t40 80.5zM251 652q6 33 24 73t43.5 77t55.5 66t59 41q15 0 39 -23.5t46 -55.5t38 -64t16 -49q0 -10 -6 -16t-14 -9t-18 -4t-17 -1q-21 0 -34 13
t-21.5 31.5t-15 39.5t-15.5 37q-1 0 -2.5 0.5t-2.5 0.5q-14 0 -23.5 -12.5t-18 -32t-17 -41.5t-19 -41.5t-24 -32t-33.5 -12.5h-10t-13.5 1.5t-11.5 4.5t-5 9z" />
    <glyph glyph-name="adieresis" unicode="&#xe4;" horiz-adv-x="576" 
d="M486 439q-17 -35 -42 -79.5t-55 -91t-63.5 -91t-68.5 -79.5t-69.5 -57t-67 -22.5t-60.5 24.5t-50 82q-10 98 8 171t54 125t86.5 86t106 54t112 28t105.5 8q4 2 13.5 3t18 0t14.5 -5.5t4 -12.5l29 -554q2 -12 -4 -20t-16 -10t-23 3t-26 19zM480 524q-37 14 -79 11
t-84.5 -19.5t-83 -44t-74.5 -62t-59 -74t-35.5 -80.5t-4.5 -80.5t33 -73.5q17 -23 49 -9.5t71 50.5t81.5 90t80 107.5t65.5 104t40 80.5zM253 756q0 17 12 26.5t29 9.5q10 0 21 -6t20 -15t14.5 -19.5t5.5 -19.5q0 -12 -2.5 -27.5t-17.5 -15.5q-12 0 -26.5 5.5t-27 15
t-20.5 21.5t-8 25zM437 756q0 17 12 26.5t29 9.5q10 0 21 -6t20 -15t14.5 -19.5t5.5 -19.5q0 -12 -2.5 -27.5t-17.5 -15.5q-12 0 -26.5 5.5t-27 15t-20.5 21.5t-8 25z" />
    <glyph glyph-name="agrave" unicode="&#xe0;" horiz-adv-x="576" 
d="M486 439q-17 -35 -42 -79.5t-55 -91t-63.5 -91t-68.5 -79.5t-69.5 -57t-67 -22.5t-60.5 24.5t-50 82q-10 98 8 171t54 125t86.5 86t106 54t112 28t105.5 8q4 2 13.5 3t18 0t14.5 -5.5t4 -12.5l29 -554q2 -12 -4 -20t-16 -10t-23 3t-26 19zM480 524q-37 14 -79 11
t-84.5 -19.5t-83 -44t-74.5 -62t-59 -74t-35.5 -80.5t-4.5 -80.5t33 -73.5q17 -23 49 -9.5t71 50.5t81.5 90t80 107.5t65.5 104t40 80.5zM316 788q0 18 5.5 27.5t25.5 9.5q7 -12 20.5 -24.5l28 -26l27.5 -26.5t18.5 -25.5t0.5 -23.5t-26 -19q-16 19 -30 29.5t-26 20.5
t-23 22.5t-21 35.5z" />
    <glyph glyph-name="amacron" unicode="&#x101;" horiz-adv-x="576" 
d="M486 439q-17 -35 -42 -79.5t-55 -91t-63.5 -91t-68.5 -79.5t-69.5 -57t-67 -22.5t-60.5 24.5t-50 82q-10 98 8 171t54 125t86.5 86t106 54t112 28t105.5 8q4 2 13.5 3t18 0t14.5 -5.5t4 -12.5l29 -554q2 -12 -4 -20t-16 -10t-23 3t-26 19zM480 524q-37 14 -79 11
t-84.5 -19.5t-83 -44t-74.5 -62t-59 -74t-35.5 -80.5t-4.5 -80.5t33 -73.5q17 -23 49 -9.5t71 50.5t81.5 90t80 107.5t65.5 104t40 80.5zM227 731q18 26 57 32t90 3.5t110 -7.5t116 1q19 0 27.5 -3.5t8.5 -23.5t-24 -30t-61.5 -13.5t-82.5 -2.5t-87 4.5t-74.5 6.5t-45.5 3
q-14 0 -24 7.5t-10 22.5z" />
    <glyph glyph-name="aogonek" unicode="&#x105;" horiz-adv-x="576" 
d="M486 439q-17 -35 -42 -79.5t-55 -91t-63.5 -91t-68.5 -79.5t-69.5 -57t-67 -22.5t-60.5 24.5t-50 82q-10 98 8 171t54 125t86.5 86t106 54t112 28t105.5 8q4 2 13.5 3t18 0t14.5 -5.5t4 -12.5l29 -554q2 -12 -4 -20t-16 -10t-23 3t-26 19zM480 524q-37 14 -79 11
t-84.5 -19.5t-83 -44t-74.5 -62t-59 -74t-35.5 -80.5t-4.5 -80.5t33 -73.5q17 -23 49 -9.5t71 50.5t81.5 90t80 107.5t65.5 104t40 80.5zM606 -120q-9 -13 -21 -23t-25 -16t-25 -8.5t-21 0.5q-35 15 -49 42.5t-14 60t11 65.5t28 59l39 -20q-17 -33 -19 -65.5t7 -51.5
t27 -18.5t41 34.5z" />
    <glyph glyph-name="aring" unicode="&#xe5;" horiz-adv-x="576" 
d="M486 439q-17 -35 -42 -79.5t-55 -91t-63.5 -91t-68.5 -79.5t-69.5 -57t-67 -22.5t-60.5 24.5t-50 82q-10 98 8 171t54 125t86.5 86t106 54t112 28t105.5 8q4 2 13.5 3t18 0t14.5 -5.5t4 -12.5l29 -554q2 -12 -4 -20t-16 -10t-23 3t-26 19zM480 524q-37 14 -79 11
t-84.5 -19.5t-83 -44t-74.5 -62t-59 -74t-35.5 -80.5t-4.5 -80.5t33 -73.5q17 -23 49 -9.5t71 50.5t81.5 90t80 107.5t65.5 104t40 80.5zM410 649q-24 -3 -51.5 -1.5t-54.5 6.5t-51.5 14.5t-42.5 23.5q1 5 3.5 6.5t5.5 2t6.5 1.5t5.5 4q-4 32 12 52.5t42.5 30.5t58.5 10
t60.5 -9.5t49.5 -27.5t25 -44q2 -14 -2.5 -25.5t-14 -20.5t-23 -15t-29.5 -8zM276 716q5 -15 24.5 -21t42.5 -5t44.5 7t30.5 15q-3 19 -25 30.5t-47.5 13t-47 -8t-22.5 -31.5z" />
    <glyph glyph-name="atilde" unicode="&#xe3;" horiz-adv-x="576" 
d="M486 439q-17 -35 -42 -79.5t-55 -91t-63.5 -91t-68.5 -79.5t-69.5 -57t-67 -22.5t-60.5 24.5t-50 82q-10 98 8 171t54 125t86.5 86t106 54t112 28t105.5 8q4 2 13.5 3t18 0t14.5 -5.5t4 -12.5l29 -554q2 -12 -4 -20t-16 -10t-23 3t-26 19zM480 524q-37 14 -79 11
t-84.5 -19.5t-83 -44t-74.5 -62t-59 -74t-35.5 -80.5t-4.5 -80.5t33 -73.5q17 -23 49 -9.5t71 50.5t81.5 90t80 107.5t65.5 104t40 80.5zM566 792q1 -53 -8.5 -81t-25.5 -37.5t-37.5 -4.5t-46 18t-50.5 30.5l-51 33t-47 25.5t-38 8q-15 -7 -22 -19t-10 -25t-4 -25t-5 -19
t-12.5 -8t-25.5 9q-12 3 -11 29.5t12.5 57t32 56t47.5 28.5q23 -6 48 -21.5t49.5 -34l47 -37t41 -30t31 -12.5t17.5 15q11 12 12 27t-2.5 32t-8.5 35t-5 36q22 11 36.5 4.5t22 -21.5t10.5 -34.5t3 -34.5z" />
    <glyph glyph-name="ae" unicode="&#xe6;" horiz-adv-x="928" 
d="M486 439q-17 -35 -42 -79.5t-55 -91t-63.5 -91t-68.5 -79.5t-69.5 -57t-67 -22.5t-60.5 24.5t-50 82q-10 98 8 171t54 125t86.5 86t106 54t112 28t105.5 8q4 2 13.5 3t18 0t14.5 -5.5t4 -12.5l9 -167l31.5 55.5t46.5 60t66.5 48.5t91.5 20q21 0 40.5 -8.5t34 -23t23 -33
t8.5 -38.5q0 -45 -13.5 -73.5t-36.5 -45.5t-53.5 -25.5t-65.5 -13.5t-72.5 -9.5t-73.5 -13.5q-13 -51 -4.5 -97t31.5 -80.5t57 -54.5t71 -20.5t73.5 22t65.5 73.5q9 0 13.5 -5.5t6 -13t1.5 -16t-1 -15.5q-45 -61 -91 -85t-88.5 -20t-80 30.5t-65.5 67.5l4 -73q2 -12 -4 -20
t-16 -10t-23 3t-26 19zM480 524q-37 14 -79 11t-84.5 -19.5t-83 -44t-74.5 -62t-59 -74t-35.5 -80.5t-4.5 -80.5t33 -73.5q17 -23 49 -9.5t71 50.5t81.5 90t80 107.5t65.5 104t40 80.5zM766 529q-44 -3 -75.5 -19.5t-52.5 -40t-33 -49t-17 -46.5q-1 2 16 3.5t43 5t56.5 9
t58 17t47.5 29.5t24 46q0 13 -6.5 21.5t-16.5 13.5t-22 7.5t-22 2.5z" />
    <glyph glyph-name="aeacute" unicode="&#x1fd;" horiz-adv-x="928" 
d="M486 439q-17 -35 -42 -79.5t-55 -91t-63.5 -91t-68.5 -79.5t-69.5 -57t-67 -22.5t-60.5 24.5t-50 82q-10 98 8 171t54 125t86.5 86t106 54t112 28t105.5 8q4 2 13.5 3t18 0t14.5 -5.5t4 -12.5l9 -167l31.5 55.5t46.5 60t66.5 48.5t91.5 20q21 0 40.5 -8.5t34 -23t23 -33
t8.5 -38.5q0 -45 -13.5 -73.5t-36.5 -45.5t-53.5 -25.5t-65.5 -13.5t-72.5 -9.5t-73.5 -13.5q-13 -51 -4.5 -97t31.5 -80.5t57 -54.5t71 -20.5t73.5 22t65.5 73.5q9 0 13.5 -5.5t6 -13t1.5 -16t-1 -15.5q-45 -61 -91 -85t-88.5 -20t-80 30.5t-65.5 67.5l4 -73q2 -12 -4 -20
t-16 -10t-23 3t-26 19zM480 524q-37 14 -79 11t-84.5 -19.5t-83 -44t-74.5 -62t-59 -74t-35.5 -80.5t-4.5 -80.5t33 -73.5q17 -23 49 -9.5t71 50.5t81.5 90t80 107.5t65.5 104t40 80.5zM766 529q-44 -3 -75.5 -19.5t-52.5 -40t-33 -49t-17 -46.5q-1 2 16 3.5t43 5t56.5 9
t58 17t47.5 29.5t24 46q0 13 -6.5 21.5t-16.5 13.5t-22 7.5t-22 2.5zM632 769q-11 -22 -23 -34.5t-25 -22l-28 -20t-33 -28.5q-23 8 -28 18.5t0.5 22.5t20 25l30 26l30.5 25.5t22 23.5q22 0 28 -9.5t6 -26.5z" />
    <glyph glyph-name="cacute" unicode="&#x107;" horiz-adv-x="420" 
d="M19 212q0 35 14 78.5t38.5 89t57.5 89t70.5 77.5t78 54.5t79.5 20.5q10 0 18.5 -4.5t14 -12t5.5 -18t-7 -22.5q-65 -30 -119.5 -66t-94 -82t-62 -103t-23.5 -129q0 -20 8 -39t21.5 -33.5t32 -23.5t38.5 -9q32 0 62.5 16.5t58 36l51.5 36t43 16.5q13 -16 8 -36.5
t-22.5 -41.5t-43.5 -41t-55.5 -35.5t-58 -24t-49.5 -6.5q-41 0 -71.5 21t-51 52.5t-31 69t-10.5 70.5zM310 725q-11 -22 -23 -34.5t-25 -22l-28 -20t-33 -28.5q-23 8 -28 18.5t0.5 22.5t20 25l30 26l30.5 25.5t22 23.5q22 0 28 -9.5t6 -26.5z" />
    <glyph glyph-name="ccaron" unicode="&#x10d;" horiz-adv-x="420" 
d="M19 212q0 35 14 78.5t38.5 89t57.5 89t70.5 77.5t78 54.5t79.5 20.5q10 0 18.5 -4.5t14 -12t5.5 -18t-7 -22.5q-65 -30 -119.5 -66t-94 -82t-62 -103t-23.5 -129q0 -20 8 -39t21.5 -33.5t32 -23.5t38.5 -9q32 0 62.5 16.5t58 36l51.5 36t43 16.5q13 -16 8 -36.5
t-22.5 -41.5t-43.5 -41t-55.5 -35.5t-58 -24t-49.5 -6.5q-41 0 -71.5 21t-51 52.5t-31 69t-10.5 70.5zM138 868l96 -120q14 30 22 50t17 36.5t22.5 32t40.5 34.5q15 0 21.5 -5t8.5 -13t1 -19.5t-1 -23.5q-31 -16 -42.5 -37t-17.5 -45.5t-14 -52.5t-30 -57q-16 0 -43 23
t-55.5 52.5t-52 57.5t-31.5 39z" />
    <glyph glyph-name="ccedilla" unicode="&#xe7;" horiz-adv-x="420" 
d="M19 212q0 35 14 78.5t38.5 89t57.5 89t70.5 77.5t78 54.5t79.5 20.5q10 0 18.5 -4.5t14 -12t5.5 -18t-7 -22.5q-65 -30 -119.5 -66t-94 -82t-62 -103t-23.5 -129q0 -20 8 -39t21.5 -33.5t32 -23.5t38.5 -9q32 0 62.5 16.5t58 36l51.5 36t43 16.5q13 -16 8 -36.5
t-22.5 -41.5t-43.5 -41t-55.5 -35.5t-58 -24t-49.5 -6.5q-41 0 -71.5 21t-51 52.5t-31 69t-10.5 70.5zM163 -299q11 9 28.5 12t38.5 4t44.5 2t46.5 4.5t44 12t38 25.5q17 48 9 72.5t-30.5 33t-55 6.5t-63 -7.5t-55 -9t-30.5 2.5q3 36 2 53t-2.5 30.5l-3.5 30.5t-2 53
q0 18 13 30.5t30 12.5q18 0 26 -9t11 -22t2 -29t-2 -29t-0.5 -22t6.5 -9q74 0 116.5 -8t63.5 -21t26 -28t5 -29q10 -54 0.5 -92.5t-32.5 -64t-56.5 -40t-70 -20t-74 -4.5t-68.5 7q-7 0 -8.5 5t-1 12.5t2.5 17t2 17.5z" />
    <glyph glyph-name="ccircumflex" unicode="&#x109;" horiz-adv-x="420" 
d="M19 212q0 35 14 78.5t38.5 89t57.5 89t70.5 77.5t78 54.5t79.5 20.5q10 0 18.5 -4.5t14 -12t5.5 -18t-7 -22.5q-65 -30 -119.5 -66t-94 -82t-62 -103t-23.5 -129q0 -20 8 -39t21.5 -33.5t32 -23.5t38.5 -9q32 0 62.5 16.5t58 36l51.5 36t43 16.5q13 -16 8 -36.5
t-22.5 -41.5t-43.5 -41t-55.5 -35.5t-58 -24t-49.5 -6.5q-41 0 -71.5 21t-51 52.5t-31 69t-10.5 70.5zM153 636q6 33 24 73t43.5 77t55.5 66t59 41q15 0 39 -23.5t46 -55.5t38 -64t16 -49q0 -10 -6 -16t-14 -9t-18 -4t-17 -1q-21 0 -34 13t-21.5 31.5t-15 39.5t-15.5 37
q-1 0 -2.5 0.5t-2.5 0.5q-14 0 -23.5 -12.5t-18 -32t-17 -41.5t-19 -41.5t-24 -32t-33.5 -12.5h-10t-13.5 1.5t-11.5 4.5t-5 9z" />
    <glyph glyph-name="cdotaccent" unicode="&#x10b;" horiz-adv-x="420" 
d="M19 212q0 35 14 78.5t38.5 89t57.5 89t70.5 77.5t78 54.5t79.5 20.5q10 0 18.5 -4.5t14 -12t5.5 -18t-7 -22.5q-65 -30 -119.5 -66t-94 -82t-62 -103t-23.5 -129q0 -20 8 -39t21.5 -33.5t32 -23.5t38.5 -9q32 0 62.5 16.5t58 36l51.5 36t43 16.5q13 -16 8 -36.5
t-22.5 -41.5t-43.5 -41t-55.5 -35.5t-58 -24t-49.5 -6.5q-41 0 -71.5 21t-51 52.5t-31 69t-10.5 70.5zM260 732q0 18 13 25t28 7q8 0 18 -5t18.5 -13t13.5 -18t2 -20q-5 -21 -19.5 -25t-30 2t-28 19.5t-15.5 27.5z" />
    <glyph glyph-name="dcaron" unicode="&#x10f;" horiz-adv-x="692" 
d="M424 228q-19 -15 -44 -37.5l-51.5 -47l-53.5 -48t-52.5 -42t-46.5 -29t-36 -8.5q-56 19 -84.5 56t-34 84t8.5 100.5t43 105t70.5 97.5t89.5 78.5t101 47.5t105 5q4 0 8 4t6 28t3.5 75t1.5 144q0 14 5.5 27.5t15.5 22t22.5 9.5t26.5 -9q-2 -36 -6 -67.5t-7.5 -65
t-6.5 -71.5t-4 -87q19 -8 24.5 -20.5t3 -26.5t-10.5 -28t-17 -25q-5 -63 -9 -131.5t-6 -137.5t-2.5 -137.5t1.5 -132.5q-6 -17 -17 -27.5t-22 -11.5t-20 8t-11 31zM432 524q-24 19 -56.5 15t-68.5 -23.5t-72 -52t-66.5 -72t-53 -83t-30.5 -84.5t0 -76.5t39 -59.5
q14 -8 36 1.5t48 29.5t55.5 48t58 58l55 58l47.5 49q8 34 10 51.5t1.5 33.5t-2 39t-1.5 68zM604 644q11 15 14 40.5t1 52.5t-7 51.5l-8 39.5q5 3 15.5 5t18.5 -7q10 -9 16.5 -29.5t8.5 -46t-1 -53t-11 -49.5q5 -4 -1.5 -7t-16 -3.5t-19 0.5t-10.5 6z" />
    <glyph glyph-name="dcroat" unicode="&#x111;" horiz-adv-x="544" 
d="M424 228q-19 -15 -44 -37.5l-51.5 -47l-53.5 -48t-52.5 -42t-46.5 -29t-36 -8.5q-56 19 -84.5 56t-34 84t8.5 100.5t43 105t70.5 97.5t89.5 78.5t101 47.5t105 5q4 0 8 4t6 28t3.5 75t1.5 144q0 14 5.5 27.5t15.5 22t22.5 9.5t26.5 -9q-2 -36 -6 -67.5t-7.5 -65
t-6.5 -71.5t-4 -87q19 -8 24.5 -20.5t3 -26.5t-10.5 -28t-17 -25q-5 -63 -9 -131.5t-6 -137.5t-2.5 -137.5t1.5 -132.5q-6 -17 -17 -27.5t-22 -11.5t-20 8t-11 31zM432 524q-24 19 -56.5 15t-68.5 -23.5t-72 -52t-66.5 -72t-53 -83t-30.5 -84.5t0 -76.5t39 -59.5
q14 -8 36 1.5t48 29.5t55.5 48t58 58l55 58l47.5 49q8 34 10 51.5t1.5 33.5t-2 39t-1.5 68zM319 660q-14 3 -18 13.5t-2 22.5t8 22t12 12q6 0 20 1t43 2t79 2.5t128 4.5q34 0 49 -10.5t14 -24t-17.5 -25t-45.5 -12.5z" />
    <glyph glyph-name="eacute" unicode="&#xe9;" horiz-adv-x="472" 
d="M-35 391q14 0 27 -3.5l26.5 -7l27 -7t27.5 -3.5q7 0 16 16.5l22.5 41t33 53t46.5 53t63 41t83 16.5q21 0 40.5 -8.5t34 -23t23 -33t8.5 -38.5q0 -45 -13.5 -73.5t-36.5 -45.5t-53.5 -25.5t-65.5 -13.5t-72.5 -9.5t-73.5 -13.5q-13 -51 -4.5 -97t31.5 -80.5t57 -54.5
t71 -20.5t73.5 22t65.5 73.5q9 0 13.5 -5.5t6 -13t1.5 -16t-1 -15.5q-46 -63 -93.5 -86.5t-91.5 -18t-82 35.5t-66 74.5t-43.5 98t-13.5 106.5q-12 12 -27 17t-28.5 11t-22.5 17.5t-9 35.5zM326 521q-44 -3 -75.5 -19.5t-52.5 -40t-33 -49t-17 -46.5q-1 3 16 4t43 4.5
t56.5 9t58 17t47.5 29.5t24 46q0 13 -6.5 21.5t-16.5 13.5t-22 7.5t-22 2.5zM336 725q-11 -22 -23 -34.5t-25 -22l-28 -20t-33 -28.5q-23 8 -28 18.5t0.5 22.5t20 25l30 26l30.5 25.5t22 23.5q22 0 28 -9.5t6 -26.5z" />
    <glyph glyph-name="ebreve" unicode="&#x115;" horiz-adv-x="472" 
d="M-35 391q14 0 27 -3.5l26.5 -7l27 -7t27.5 -3.5q7 0 16 16.5l22.5 41t33 53t46.5 53t63 41t83 16.5q21 0 40.5 -8.5t34 -23t23 -33t8.5 -38.5q0 -45 -13.5 -73.5t-36.5 -45.5t-53.5 -25.5t-65.5 -13.5t-72.5 -9.5t-73.5 -13.5q-13 -51 -4.5 -97t31.5 -80.5t57 -54.5
t71 -20.5t73.5 22t65.5 73.5q9 0 13.5 -5.5t6 -13t1.5 -16t-1 -15.5q-46 -63 -93.5 -86.5t-91.5 -18t-82 35.5t-66 74.5t-43.5 98t-13.5 106.5q-12 12 -27 17t-28.5 11t-22.5 17.5t-9 35.5zM326 521q-44 -3 -75.5 -19.5t-52.5 -40t-33 -49t-17 -46.5q-1 3 16 4t43 4.5
t56.5 9t58 17t47.5 29.5t24 46q0 13 -6.5 21.5t-16.5 13.5t-22 7.5t-22 2.5zM88 784q0 8 5.5 13.5t14 8.5t18.5 4.5t19 1.5q7 -35 25.5 -60t41.5 -38t47 -14t42 12t26.5 41.5t0.5 74.5v3q0 1 1 2q5 8 15 18.5t20 12.5q34 -38 41 -73t-5 -64t-38.5 -50t-59.5 -32t-69 -10
t-67 17t-52.5 48.5t-25.5 83.5z" />
    <glyph glyph-name="ecaron" unicode="&#x11b;" horiz-adv-x="472" 
d="M-35 391q14 0 27 -3.5l26.5 -7l27 -7t27.5 -3.5q7 0 16 16.5l22.5 41t33 53t46.5 53t63 41t83 16.5q21 0 40.5 -8.5t34 -23t23 -33t8.5 -38.5q0 -45 -13.5 -73.5t-36.5 -45.5t-53.5 -25.5t-65.5 -13.5t-72.5 -9.5t-73.5 -13.5q-13 -51 -4.5 -97t31.5 -80.5t57 -54.5
t71 -20.5t73.5 22t65.5 73.5q9 0 13.5 -5.5t6 -13t1.5 -16t-1 -15.5q-46 -63 -93.5 -86.5t-91.5 -18t-82 35.5t-66 74.5t-43.5 98t-13.5 106.5q-12 12 -27 17t-28.5 11t-22.5 17.5t-9 35.5zM326 521q-44 -3 -75.5 -19.5t-52.5 -40t-33 -49t-17 -46.5q-1 3 16 4t43 4.5
t56.5 9t58 17t47.5 29.5t24 46q0 13 -6.5 21.5t-16.5 13.5t-22 7.5t-22 2.5zM184 860l96 -120q14 30 22 50t17 36.5t22.5 32t40.5 34.5q15 0 21.5 -5t8.5 -13t1 -19.5t-1 -23.5q-31 -16 -42.5 -37t-17.5 -45.5t-14 -52.5t-30 -57q-16 0 -43 23t-55.5 52.5t-52 57.5t-31.5 39
z" />
    <glyph glyph-name="ecircumflex" unicode="&#xea;" horiz-adv-x="472" 
d="M-35 391q14 0 27 -3.5l26.5 -7l27 -7t27.5 -3.5q7 0 16 16.5l22.5 41t33 53t46.5 53t63 41t83 16.5q21 0 40.5 -8.5t34 -23t23 -33t8.5 -38.5q0 -45 -13.5 -73.5t-36.5 -45.5t-53.5 -25.5t-65.5 -13.5t-72.5 -9.5t-73.5 -13.5q-13 -51 -4.5 -97t31.5 -80.5t57 -54.5
t71 -20.5t73.5 22t65.5 73.5q9 0 13.5 -5.5t6 -13t1.5 -16t-1 -15.5q-46 -63 -93.5 -86.5t-91.5 -18t-82 35.5t-66 74.5t-43.5 98t-13.5 106.5q-12 12 -27 17t-28.5 11t-22.5 17.5t-9 35.5zM326 521q-44 -3 -75.5 -19.5t-52.5 -40t-33 -49t-17 -46.5q-1 3 16 4t43 4.5
t56.5 9t58 17t47.5 29.5t24 46q0 13 -6.5 21.5t-16.5 13.5t-22 7.5t-22 2.5zM135 632q6 33 24 73t43.5 77t55.5 66t59 41q15 0 39 -23.5t46 -55.5t38 -64t16 -49q0 -10 -6 -16t-14 -9t-18 -4t-17 -1q-21 0 -34 13t-21.5 31.5t-15 39.5t-15.5 37q-1 0 -2.5 0.5t-2.5 0.5
q-14 0 -23.5 -12.5t-18 -32t-17 -41.5t-19 -41.5t-24 -32t-33.5 -12.5h-10t-13.5 1.5t-11.5 4.5t-5 9z" />
    <glyph glyph-name="edieresis" unicode="&#xeb;" horiz-adv-x="472" 
d="M-35 391q14 0 27 -3.5l26.5 -7l27 -7t27.5 -3.5q7 0 16 16.5l22.5 41t33 53t46.5 53t63 41t83 16.5q21 0 40.5 -8.5t34 -23t23 -33t8.5 -38.5q0 -45 -13.5 -73.5t-36.5 -45.5t-53.5 -25.5t-65.5 -13.5t-72.5 -9.5t-73.5 -13.5q-13 -51 -4.5 -97t31.5 -80.5t57 -54.5
t71 -20.5t73.5 22t65.5 73.5q9 0 13.5 -5.5t6 -13t1.5 -16t-1 -15.5q-46 -63 -93.5 -86.5t-91.5 -18t-82 35.5t-66 74.5t-43.5 98t-13.5 106.5q-12 12 -27 17t-28.5 11t-22.5 17.5t-9 35.5zM326 521q-44 -3 -75.5 -19.5t-52.5 -40t-33 -49t-17 -46.5q-1 3 16 4t43 4.5
t56.5 9t58 17t47.5 29.5t24 46q0 13 -6.5 21.5t-16.5 13.5t-22 7.5t-22 2.5zM153 716q0 17 12 26.5t29 9.5q10 0 21 -6t20 -15t14.5 -19.5t5.5 -19.5q0 -12 -2.5 -27.5t-17.5 -15.5q-12 0 -26.5 5.5t-27 15t-20.5 21.5t-8 25zM337 716q0 17 12 26.5t29 9.5q10 0 21 -6
t20 -15t14.5 -19.5t5.5 -19.5q0 -12 -2.5 -27.5t-17.5 -15.5q-12 0 -26.5 5.5t-27 15t-20.5 21.5t-8 25z" />
    <glyph glyph-name="edotaccent" unicode="&#x117;" horiz-adv-x="472" 
d="M-35 391q14 0 27 -3.5l26.5 -7l27 -7t27.5 -3.5q7 0 16 16.5l22.5 41t33 53t46.5 53t63 41t83 16.5q21 0 40.5 -8.5t34 -23t23 -33t8.5 -38.5q0 -45 -13.5 -73.5t-36.5 -45.5t-53.5 -25.5t-65.5 -13.5t-72.5 -9.5t-73.5 -13.5q-13 -51 -4.5 -97t31.5 -80.5t57 -54.5
t71 -20.5t73.5 22t65.5 73.5q9 0 13.5 -5.5t6 -13t1.5 -16t-1 -15.5q-46 -63 -93.5 -86.5t-91.5 -18t-82 35.5t-66 74.5t-43.5 98t-13.5 106.5q-12 12 -27 17t-28.5 11t-22.5 17.5t-9 35.5zM326 521q-44 -3 -75.5 -19.5t-52.5 -40t-33 -49t-17 -46.5q-1 3 16 4t43 4.5
t56.5 9t58 17t47.5 29.5t24 46q0 13 -6.5 21.5t-16.5 13.5t-22 7.5t-22 2.5zM262 712q0 18 13 25t28 7q8 0 18 -5t18.5 -13t13.5 -18t2 -20q-5 -21 -19.5 -25t-30 2t-28 19.5t-15.5 27.5z" />
    <glyph glyph-name="egrave" unicode="&#xe8;" horiz-adv-x="472" 
d="M-35 391q14 0 27 -3.5l26.5 -7l27 -7t27.5 -3.5q7 0 16 16.5l22.5 41t33 53t46.5 53t63 41t83 16.5q21 0 40.5 -8.5t34 -23t23 -33t8.5 -38.5q0 -45 -13.5 -73.5t-36.5 -45.5t-53.5 -25.5t-65.5 -13.5t-72.5 -9.5t-73.5 -13.5q-13 -51 -4.5 -97t31.5 -80.5t57 -54.5
t71 -20.5t73.5 22t65.5 73.5q9 0 13.5 -5.5t6 -13t1.5 -16t-1 -15.5q-46 -63 -93.5 -86.5t-91.5 -18t-82 35.5t-66 74.5t-43.5 98t-13.5 106.5q-12 12 -27 17t-28.5 11t-22.5 17.5t-9 35.5zM326 521q-44 -3 -75.5 -19.5t-52.5 -40t-33 -49t-17 -46.5q-1 3 16 4t43 4.5
t56.5 9t58 17t47.5 29.5t24 46q0 13 -6.5 21.5t-16.5 13.5t-22 7.5t-22 2.5zM276 788q0 18 5.5 27.5t25.5 9.5q7 -12 20.5 -24.5l28 -26l27.5 -26.5t18.5 -25.5t0.5 -23.5t-26 -19q-16 19 -30 29.5t-26 20.5t-23 22.5t-21 35.5z" />
    <glyph glyph-name="emacron" unicode="&#x113;" horiz-adv-x="472" 
d="M-35 391q14 0 27 -3.5l26.5 -7l27 -7t27.5 -3.5q7 0 16 16.5l22.5 41t33 53t46.5 53t63 41t83 16.5q21 0 40.5 -8.5t34 -23t23 -33t8.5 -38.5q0 -45 -13.5 -73.5t-36.5 -45.5t-53.5 -25.5t-65.5 -13.5t-72.5 -9.5t-73.5 -13.5q-13 -51 -4.5 -97t31.5 -80.5t57 -54.5
t71 -20.5t73.5 22t65.5 73.5q9 0 13.5 -5.5t6 -13t1.5 -16t-1 -15.5q-46 -63 -93.5 -86.5t-91.5 -18t-82 35.5t-66 74.5t-43.5 98t-13.5 106.5q-12 12 -27 17t-28.5 11t-22.5 17.5t-9 35.5zM326 521q-44 -3 -75.5 -19.5t-52.5 -40t-33 -49t-17 -46.5q-1 3 16 4t43 4.5
t56.5 9t58 17t47.5 29.5t24 46q0 13 -6.5 21.5t-16.5 13.5t-22 7.5t-22 2.5zM143 711q18 26 57 32t90 3.5t110 -7.5t116 1q19 0 27.5 -3.5t8.5 -23.5t-24 -30t-61.5 -13.5t-82.5 -2.5t-87 4.5t-74.5 6.5t-45.5 3q-14 0 -24 7.5t-10 22.5z" />
    <glyph glyph-name="eogonek" unicode="&#x119;" horiz-adv-x="472" 
d="M-35 391q14 0 27 -3.5l26.5 -7l27 -7t27.5 -3.5q7 0 16 16.5l22.5 41t33 53t46.5 53t63 41t83 16.5q21 0 40.5 -8.5t34 -23t23 -33t8.5 -38.5q0 -45 -13.5 -73.5t-36.5 -45.5t-53.5 -25.5t-65.5 -13.5t-72.5 -9.5t-73.5 -13.5q-13 -51 -4.5 -97t31.5 -80.5t57 -54.5
t71 -20.5t73.5 22t65.5 73.5q9 0 13.5 -5.5t6 -13t1.5 -16t-1 -15.5q-46 -63 -93.5 -86.5t-91.5 -18t-82 35.5t-66 74.5t-43.5 98t-13.5 106.5q-12 12 -27 17t-28.5 11t-22.5 17.5t-9 35.5zM326 521q-44 -3 -75.5 -19.5t-52.5 -40t-33 -49t-17 -46.5q-1 3 16 4t43 4.5
t56.5 9t58 17t47.5 29.5t24 46q0 13 -6.5 21.5t-16.5 13.5t-22 7.5t-22 2.5zM446 -144q-9 -13 -21 -23t-25 -16t-25 -8.5t-21 0.5q-35 15 -49 42.5t-14 60t11 65.5t28 59l39 -20q-17 -33 -19 -65.5t7 -51.5t27 -18.5t41 34.5z" />
    <glyph glyph-name="gbreve" unicode="&#x11f;" horiz-adv-x="520" 
d="M364 -417q-31 -3 -63.5 7t-60 29t-48 44.5t-28.5 54.5t-1 58.5t35 56.5q11 0 25.5 -4.5t20.5 -15.5q-23 -26 -20.5 -54.5t20 -52t45 -39t55.5 -15.5q31 -7 50.5 21t30 77.5t13.5 114t2 131.5t-4.5 130.5t-7 110.5t-5 71t2.5 13q-20 -23 -42 -54.5l-46 -66t-51.5 -68
t-58.5 -60t-67 -43t-77 -16.5q-25 0 -39 18t-21 42.5t-9 49.5t-2 40q5 84 37.5 157.5t79.5 130t102 93.5t104 49.5t86 -3.5t48 -65q14 -207 20.5 -355t5.5 -251t-9.5 -165.5t-25 -98.5t-41 -51t-56.5 -21zM83 172q-5 -55 7 -75.5t35.5 -16t55 30.5t65 64.5t66 85.5
t57.5 93.5t39.5 89t11.5 72.5q-56 9 -113 -13.5t-105 -69t-80.5 -113.5t-38.5 -148zM124 796q0 8 5.5 13.5t14 8.5t18.5 4.5t19 1.5q7 -35 25.5 -60t41.5 -38t47 -14t42 12t26.5 41.5t0.5 74.5v3q0 1 1 2q5 8 15 18.5t20 12.5q34 -38 41 -73t-5 -64t-38.5 -50t-59.5 -32
t-69 -10t-67 17t-52.5 48.5t-25.5 83.5z" />
    <glyph glyph-name="gcircumflex" unicode="&#x11d;" horiz-adv-x="520" 
d="M364 -417q-31 -3 -63.5 7t-60 29t-48 44.5t-28.5 54.5t-1 58.5t35 56.5q11 0 25.5 -4.5t20.5 -15.5q-23 -26 -20.5 -54.5t20 -52t45 -39t55.5 -15.5q31 -7 50.5 21t30 77.5t13.5 114t2 131.5t-4.5 130.5t-7 110.5t-5 71t2.5 13q-20 -23 -42 -54.5l-46 -66t-51.5 -68
t-58.5 -60t-67 -43t-77 -16.5q-25 0 -39 18t-21 42.5t-9 49.5t-2 40q5 84 37.5 157.5t79.5 130t102 93.5t104 49.5t86 -3.5t48 -65q14 -207 20.5 -355t5.5 -251t-9.5 -165.5t-25 -98.5t-41 -51t-56.5 -21zM83 172q-5 -55 7 -75.5t35.5 -16t55 30.5t65 64.5t66 85.5
t57.5 93.5t39.5 89t11.5 72.5q-56 9 -113 -13.5t-105 -69t-80.5 -113.5t-38.5 -148zM187 613q6 33 24 73t43.5 77t55.5 66t59 41q15 0 39 -23.5t46 -55.5t38 -64t16 -49q0 -10 -6 -16t-14 -9t-18 -4t-17 -1q-21 0 -34 13t-21.5 31.5t-15 39.5t-15.5 37q-1 0 -2.5 0.5
t-2.5 0.5q-14 0 -23.5 -12.5t-18 -32t-17 -41.5t-19 -41.5t-24 -32t-33.5 -12.5h-10t-13.5 1.5t-11.5 4.5t-5 9z" />
    <glyph glyph-name="gcommaaccent" unicode="&#x123;" horiz-adv-x="520" 
d="M364 -417q-31 -3 -63.5 7t-60 29t-48 44.5t-28.5 54.5t-1 58.5t35 56.5q11 0 25.5 -4.5t20.5 -15.5q-23 -26 -20.5 -54.5t20 -52t45 -39t55.5 -15.5q31 -7 50.5 21t30 77.5t13.5 114t2 131.5t-4.5 130.5t-7 110.5t-5 71t2.5 13q-20 -23 -42 -54.5l-46 -66t-51.5 -68
t-58.5 -60t-67 -43t-77 -16.5q-25 0 -39 18t-21 42.5t-9 49.5t-2 40q5 84 37.5 157.5t79.5 130t102 93.5t104 49.5t86 -3.5t48 -65q14 -207 20.5 -355t5.5 -251t-9.5 -165.5t-25 -98.5t-41 -51t-56.5 -21zM83 172q-5 -55 7 -75.5t35.5 -16t55 30.5t65 64.5t66 85.5
t57.5 93.5t39.5 89t11.5 72.5q-56 9 -113 -13.5t-105 -69t-80.5 -113.5t-38.5 -148zM389 692q-1 -5 -12 -6t-23 -0.5t-20 3.5t-2 7q-10 22 -13 49.5t-0.5 53t10 46t19.5 29.5q9 9 22 7t19 -5q-4 -15 -9.5 -39.5t-8 -51.5t0.5 -52.5t17 -40.5z" />
    <glyph glyph-name="gdotaccent" unicode="&#x121;" horiz-adv-x="520" 
d="M364 -417q-31 -3 -63.5 7t-60 29t-48 44.5t-28.5 54.5t-1 58.5t35 56.5q11 0 25.5 -4.5t20.5 -15.5q-23 -26 -20.5 -54.5t20 -52t45 -39t55.5 -15.5q31 -7 50.5 21t30 77.5t13.5 114t2 131.5t-4.5 130.5t-7 110.5t-5 71t2.5 13q-20 -23 -42 -54.5l-46 -66t-51.5 -68
t-58.5 -60t-67 -43t-77 -16.5q-25 0 -39 18t-21 42.5t-9 49.5t-2 40q5 84 37.5 157.5t79.5 130t102 93.5t104 49.5t86 -3.5t48 -65q14 -207 20.5 -355t5.5 -251t-9.5 -165.5t-25 -98.5t-41 -51t-56.5 -21zM83 172q-5 -55 7 -75.5t35.5 -16t55 30.5t65 64.5t66 85.5
t57.5 93.5t39.5 89t11.5 72.5q-56 9 -113 -13.5t-105 -69t-80.5 -113.5t-38.5 -148zM342 716q0 18 13 25t28 7q8 0 18 -5t18.5 -13t13.5 -18t2 -20q-5 -21 -19.5 -25t-30 2t-28 19.5t-15.5 27.5z" />
    <glyph glyph-name="hbar" unicode="&#x127;" horiz-adv-x="512" 
d="M30 58q29 190 30.5 392t-4.5 418q9 21 21 29.5t23 4t19.5 -22t10.5 -49.5q0 -30 1 -84t1.5 -118.5t0.5 -132.5t-2 -127t-7 -102t-14 -56q24 40 44.5 84.5l40 87.5t39.5 82t42.5 67.5t50.5 45t63 14.5q37 3 59 -25t31.5 -76.5t8 -112t-9.5 -131t-21.5 -133t-29.5 -117.5
h-14.5t-16 1.5t-12.5 6t-5 12.5q4 51 13 107.5l18 111.5t15 105t4.5 89t-13 63t-37.5 28q-19 0 -40.5 -21t-42.5 -53t-40 -70.5l-35 -74t-27 -63.5l-15 -38l-14 -35.5l-21.5 -54.5l-21 -54.5l-13.5 -35.5q-13 -18 -26.5 -21.5t-25 4t-19.5 22.5t-9 33zM-116 655q18 26 57 32
t90 3.5t110 -7.5t116 1q19 0 27.5 -3.5t8.5 -23.5t-24 -30t-61.5 -13.5t-82.5 -2.5t-87 4.5t-74.5 6.5t-45.5 3q-14 0 -24 7.5t-10 22.5z" />
    <glyph glyph-name="hcircumflex" unicode="&#x125;" horiz-adv-x="512" 
d="M30 58q29 190 30.5 392t-4.5 418q9 21 21 29.5t23 4t19.5 -22t10.5 -49.5q0 -30 1 -84t1.5 -118.5t0.5 -132.5t-2 -127t-7 -102t-14 -56q24 40 44.5 84.5l40 87.5t39.5 82t42.5 67.5t50.5 45t63 14.5q37 3 59 -25t31.5 -76.5t8 -112t-9.5 -131t-21.5 -133t-29.5 -117.5
h-14.5t-16 1.5t-12.5 6t-5 12.5q4 51 13 107.5l18 111.5t15 105t4.5 89t-13 63t-37.5 28q-19 0 -40.5 -21t-42.5 -53t-40 -70.5l-35 -74t-27 -63.5l-15 -38l-14 -35.5l-21.5 -54.5l-21 -54.5l-13.5 -35.5q-13 -18 -26.5 -21.5t-25 4t-19.5 22.5t-9 33zM215 708q6 33 24 73
t43.5 77t55.5 66t59 41q15 0 39 -23.5t46 -55.5t38 -64t16 -49q0 -10 -6 -16t-14 -9t-18 -4t-17 -1q-21 0 -34 13t-21.5 31.5t-15 39.5t-15.5 37q-1 0 -2.5 0.5t-2.5 0.5q-14 0 -23.5 -12.5t-18 -32t-17 -41.5t-19 -41.5t-24 -32t-33.5 -12.5h-10t-13.5 1.5t-11.5 4.5t-5 9z
" />
    <glyph glyph-name="iacute" unicode="&#xed;" horiz-adv-x="270" 
d="M60 616q8 33 22 34.5t26.5 -13t19 -37t-0.5 -35.5q3 -28 0.5 -71t-6.5 -91.5t-7.5 -98.5t-3.5 -93t5.5 -74t19 -42t38 3.5t62.5 62.5q22 -17 18.5 -42t-20 -49.5t-40.5 -44t-43 -25.5q-38 -8 -58.5 13t-31 54.5t-12.5 70t-2 58.5zM175 833q-11 -22 -23 -34.5t-25 -22
l-28 -20t-33 -28.5q-23 8 -28 18.5t0.5 22.5t20 25l30 26l30.5 25.5t22 23.5q22 0 28 -9.5t6 -26.5z" />
    <glyph glyph-name="ibreve" unicode="&#x12d;" horiz-adv-x="270" 
d="M60 616q8 33 22 34.5t26.5 -13t19 -37t-0.5 -35.5q3 -28 0.5 -71t-6.5 -91.5t-7.5 -98.5t-3.5 -93t5.5 -74t19 -42t38 3.5t62.5 62.5q22 -17 18.5 -42t-20 -49.5t-40.5 -44t-43 -25.5q-38 -8 -58.5 13t-31 54.5t-12.5 70t-2 58.5zM-68 860q0 8 5.5 13.5t14 8.5t18.5 4.5
t19 1.5q7 -35 25.5 -60t41.5 -38t47 -14t42 12t26.5 41.5t0.5 74.5v3q0 1 1 2q5 8 15 18.5t20 12.5q34 -38 41 -73t-5 -64t-38.5 -50t-59.5 -32t-69 -10t-67 17t-52.5 48.5t-25.5 83.5z" />
    <glyph glyph-name="icircumflex" unicode="&#xee;" horiz-adv-x="270" 
d="M60 616q8 33 22 34.5t26.5 -13t19 -37t-0.5 -35.5q3 -28 0.5 -71t-6.5 -91.5t-7.5 -98.5t-3.5 -93t5.5 -74t19 -42t38 3.5t62.5 62.5q22 -17 18.5 -42t-20 -49.5t-40.5 -44t-43 -25.5q-38 -8 -58.5 13t-31 54.5t-12.5 70t-2 58.5zM-76 700q6 33 24 73t43.5 77t55.5 66
t59 41q15 0 39 -23.5t46 -55.5t38 -64t16 -49q0 -10 -6 -16t-14 -9t-18 -4t-17 -1q-21 0 -34 13t-21.5 31.5t-15 39.5t-15.5 37q-1 0 -2.5 0.5t-2.5 0.5q-14 0 -23.5 -12.5t-18 -32t-17 -41.5t-19 -41.5t-24 -32t-33.5 -12.5h-10t-13.5 1.5t-11.5 4.5t-5 9z" />
    <glyph glyph-name="idieresis" unicode="&#xef;" horiz-adv-x="270" 
d="M60 616q8 33 22 34.5t26.5 -13t19 -37t-0.5 -35.5q3 -28 0.5 -71t-6.5 -91.5t-7.5 -98.5t-3.5 -93t5.5 -74t19 -42t38 3.5t62.5 62.5q22 -17 18.5 -42t-20 -49.5t-40.5 -44t-43 -25.5q-38 -8 -58.5 13t-31 54.5t-12.5 70t-2 58.5zM-67 804q0 17 12 26.5t29 9.5
q10 0 21 -6t20 -15t14.5 -19.5t5.5 -19.5q0 -12 -2.5 -27.5t-17.5 -15.5q-12 0 -26.5 5.5t-27 15t-20.5 21.5t-8 25zM117 804q0 17 12 26.5t29 9.5q10 0 21 -6t20 -15t14.5 -19.5t5.5 -19.5q0 -12 -2.5 -27.5t-17.5 -15.5q-12 0 -26.5 5.5t-27 15t-20.5 21.5t-8 25z" />
    <glyph glyph-name="igrave" unicode="&#xec;" horiz-adv-x="270" 
d="M60 616q8 33 22 34.5t26.5 -13t19 -37t-0.5 -35.5q3 -28 0.5 -71t-6.5 -91.5t-7.5 -98.5t-3.5 -93t5.5 -74t19 -42t38 3.5t62.5 62.5q22 -17 18.5 -42t-20 -49.5t-40.5 -44t-43 -25.5q-38 -8 -58.5 13t-31 54.5t-12.5 70t-2 58.5zM23 812q0 18 5.5 27.5t25.5 9.5
q7 -12 20.5 -24.5l28 -26l27.5 -26.5t18.5 -25.5t0.5 -23.5t-26 -19q-16 19 -30 29.5t-26 20.5t-23 22.5t-21 35.5z" />
    <glyph glyph-name="imacron" unicode="&#x12b;" horiz-adv-x="270" 
d="M60 616q8 33 22 34.5t26.5 -13t19 -37t-0.5 -35.5q3 -28 0.5 -71t-6.5 -91.5t-7.5 -98.5t-3.5 -93t5.5 -74t19 -42t38 3.5t62.5 62.5q22 -17 18.5 -42t-20 -49.5t-40.5 -44t-43 -25.5q-38 -8 -58.5 13t-31 54.5t-12.5 70t-2 58.5zM-72 771q18 26 57 32t90 3.5t110 -7.5
t116 1q19 0 27.5 -3.5t8.5 -23.5t-24 -30t-61.5 -13.5t-82.5 -2.5t-87 4.5t-74.5 6.5t-45.5 3q-14 0 -24 7.5t-10 22.5z" />
    <glyph glyph-name="iogonek" unicode="&#x12f;" horiz-adv-x="270" 
d="M60 616q8 33 22 34.5t26.5 -13t19 -37t-0.5 -35.5q3 -28 0.5 -71t-6.5 -91.5t-7.5 -98.5t-3.5 -93t5.5 -74t19 -42t38 3.5t62.5 62.5q22 -17 18.5 -42t-20 -49.5t-40.5 -44t-43 -25.5q-38 -8 -58.5 13t-31 54.5t-12.5 70t-2 58.5zM75 870q0 17 9 29t26 12q7 0 17.5 -1.5
t21 -5t18 -9.5t9.5 -15q5 -33 -8 -48t-31.5 -15t-37 14t-24.5 39zM227 -144q-9 -13 -21 -23t-25 -16t-25 -8.5t-21 0.5q-35 15 -49 42.5t-14 60t11 65.5t28 59l39 -20q-17 -33 -19 -65.5t7 -51.5t27 -18.5t41 34.5z" />
    <glyph glyph-name="itilde" unicode="&#x129;" horiz-adv-x="270" 
d="M60 616q8 33 22 34.5t26.5 -13t19 -37t-0.5 -35.5q3 -28 0.5 -71t-6.5 -91.5t-7.5 -98.5t-3.5 -93t5.5 -74t19 -42t38 3.5t62.5 62.5q22 -17 18.5 -42t-20 -49.5t-40.5 -44t-43 -25.5q-38 -8 -58.5 13t-31 54.5t-12.5 70t-2 58.5zM307 820q1 -53 -8.5 -81t-25.5 -37.5
t-37.5 -4.5t-46 18t-50.5 30.5l-51 33t-47 25.5t-38 8q-15 -7 -22 -19t-10 -25t-4 -25t-5 -19t-12.5 -8t-25.5 9q-12 3 -11 29.5t12.5 57t32 56t47.5 28.5q23 -6 48 -21.5t49.5 -34l47 -37t41 -30t31 -12.5t17.5 15q11 12 12 27t-2.5 32t-8.5 35t-5 36q22 11 36.5 4.5
t22 -21.5t10.5 -34.5t3 -34.5z" />
    <glyph glyph-name="dotlessj" unicode="&#x237;" horiz-adv-x="228" 
d="M-265 -457q0 5 4.5 13.5t10.5 16t13 13t12 5.5q3 -8 11 -33t21 -54t31 -57t40.5 -42t50 -8.5t59.5 43.5q44 85 66.5 173t31 176t6.5 176t-5.5 173t-6 166t5.5 156q-1 23 12.5 29t28.5 0t25.5 -20.5t3.5 -32.5q-11 -56 -11 -135.5t3 -172t4.5 -192.5t-8 -196.5t-34.5 -184
t-74 -155.5q-35 -53 -77.5 -67t-84.5 5.5t-79 71.5t-60 133z" />
    <glyph glyph-name="jcircumflex" unicode="&#x135;" horiz-adv-x="228" 
d="M-265 -457q0 5 4.5 13.5t10.5 16t13 13t12 5.5q3 -8 11 -33t21 -54t31 -57t40.5 -42t50 -8.5t59.5 43.5q44 85 66.5 173t31 176t6.5 176t-5.5 173t-6 166t5.5 156q-1 23 12.5 29t28.5 0t25.5 -20.5t3.5 -32.5q-11 -56 -11 -135.5t3 -172t4.5 -192.5t-8 -196.5t-34.5 -184
t-74 -155.5q-35 -53 -77.5 -67t-84.5 5.5t-79 71.5t-60 133zM-45 632q6 33 24 73t43.5 77t55.5 66t59 41q15 0 39 -23.5t46 -55.5t38 -64t16 -49q0 -10 -6 -16t-14 -9t-18 -4t-17 -1q-21 0 -34 13t-21.5 31.5t-15 39.5t-15.5 37q-1 0 -2.5 0.5t-2.5 0.5q-14 0 -23.5 -12.5
t-18 -32t-17 -41.5t-19 -41.5t-24 -32t-33.5 -12.5h-10t-13.5 1.5t-11.5 4.5t-5 9z" />
    <glyph glyph-name="kcommaaccent" unicode="&#x137;" horiz-adv-x="556" 
d="M29 49q1 32 6.5 63l11.5 62t10 62t3 64q-5 10 -7.5 24.5t-0.5 28t8.5 24t19.5 13.5q14 24 21 62.5t9.5 85t2.5 97.5t1 98.5t4 89t12 69.5q16 0 29 -1t21 -19q0 -49 -3 -109t-7 -124.5t-7 -128.5t-3 -120l69 35t69.5 42.5t60.5 53.5t41 69q13 0 30.5 -10t20.5 -25
q0 -1 -0.5 -1.5t-0.5 -1.5v-2q-54 -81 -129 -137.5t-171 -82.5q9 -79 51 -133.5t102.5 -83.5t131.5 -32.5t137 19.5q13 0 19.5 -6t7.5 -15t-1.5 -19.5t-7.5 -19.5q-31 -21 -72 -28t-86.5 -2.5t-92 20t-88 40t-75 56.5t-52.5 70q-5 -5 -7.5 -21.5t-4 -37.5t-3 -44.5
t-3.5 -43.5t-5.5 -33.5t-10.5 -15.5q-8 -2 -18.5 2.5t-20 12.5t-16 17t-6.5 17zM210 -312q3 -6 15 18.5t19 63t2 82t-36 76.5q0 8 7 21.5t18 13.5q27 -2 45 -30t25.5 -67t5 -81t-14 -72t-33.5 -40t-53 15z" />
    <glyph glyph-name="lacute" unicode="&#x13a;" horiz-adv-x="152" 
d="M52 24q-6 84 -4.5 194t5.5 226t7 226t2 194q1 19 5.5 33t13 20.5t21 4t30.5 -17.5q2 -60 0 -134.5t-5 -156t-6.5 -166.5t-6 -166t-2.5 -154t4 -131q-17 -24 -36 -20t-28 48zM168 1069q-11 -22 -23 -34.5t-25 -22l-28 -20t-33 -28.5q-23 8 -28 18.5t0.5 22.5t20 25l30 26
l30.5 25.5t22 23.5q22 0 28 -9.5t6 -26.5z" />
    <glyph glyph-name="lcaron" unicode="&#x13e;" horiz-adv-x="300" 
d="M52 24q-6 84 -4.5 194t5.5 226t7 226t2 194q1 19 5.5 33t13 20.5t21 4t30.5 -17.5q2 -60 0 -134.5t-5 -156t-6.5 -166.5t-6 -166t-2.5 -154t4 -131q-17 -24 -36 -20t-28 48zM212 644q11 15 14 40.5t1 52.5t-7 51.5l-8 39.5q5 3 15.5 5t18.5 -7q10 -9 16.5 -29.5t8.5 -46
t-1 -53t-11 -49.5q5 -4 -1.5 -7t-16 -3.5t-19 0.5t-10.5 6z" />
    <glyph glyph-name="lcommaaccent" unicode="&#x13c;" horiz-adv-x="152" 
d="M52 24q-6 84 -4.5 194t5.5 226t7 226t2 194q1 19 5.5 33t13 20.5t21 4t30.5 -17.5q2 -60 0 -134.5t-5 -156t-6.5 -166.5t-6 -166t-2.5 -154t4 -131q-17 -24 -36 -20t-28 48zM10 -312q3 -6 15 18.5t19 63t2 82t-36 76.5q0 8 7 21.5t18 13.5q27 -2 45 -30t25.5 -67t5 -81
t-14 -72t-33.5 -40t-53 15z" />
    <glyph glyph-name="ldot" unicode="&#x140;" horiz-adv-x="292" 
d="M52 24q-6 84 -4.5 194t5.5 226t7 226t2 194q1 19 5.5 33t13 20.5t21 4t30.5 -17.5q2 -60 0 -134.5t-5 -156t-6.5 -166.5t-6 -166t-2.5 -154t4 -131q-17 -24 -36 -20t-28 48zM178 505q0 18 13 25t28 7q8 0 18 -5t18.5 -13t13.5 -18t2 -20q-5 -21 -19.5 -25t-30 2t-28 19.5
t-15.5 27.5z" />
    <glyph glyph-name="lslash" unicode="&#x142;" horiz-adv-x="152" 
d="M-24 291q-14 -3 -22 5t-10.5 20t-1 23.5t6.5 15.5q6 3 23 10l49 21l82 35.5l121 54.5q31 13 49 9t22 -16.5t-6.5 -29.5t-37.5 -29zM52 24q-6 84 -4.5 194t5.5 226t7 226t2 194q1 19 5.5 33t13 20.5t21 4t30.5 -17.5q2 -60 0 -134.5t-5 -156t-6.5 -166.5t-6 -166
t-2.5 -154t4 -131q-17 -24 -36 -20t-28 48z" />
    <glyph glyph-name="nacute" unicode="&#x144;" 
d="M399 34q1 57 5.5 113.5t7 108.5t0.5 97.5t-12.5 79.5t-33 54.5t-61.5 22.5q-46 -13 -78.5 -49.5t-54.5 -85.5t-35.5 -104.5t-22.5 -106t-15.5 -91.5t-14.5 -61h-9t-18 -0.5t-18 -1t-9 0.5q0 57 -0.5 119.5t1 127.5t6 131t13.5 131q-3 10 4.5 23.5t18.5 19t21.5 -2.5
t13.5 -40q0 -19 0.5 -28t0.5 -19t0.5 -25.5t0.5 -47.5q15 24 29.5 55.5t35 60t51.5 47t79 17.5q58 2 93 -19t53.5 -59.5t24 -92t4.5 -116t-5 -132.5t-5 -141q-6 -13 -17.5 -18t-23 -2.5t-20.5 11t-10 23.5zM358 725q-11 -22 -23 -34.5t-25 -22l-28 -20t-33 -28.5
q-23 8 -28 18.5t0.5 22.5t20 25l30 26l30.5 25.5t22 23.5q22 0 28 -9.5t6 -26.5z" />
    <glyph glyph-name="napostrophe" unicode="&#x149;" 
d="M388 42q1 57 5.5 113.5t7 108.5t0.5 97.5t-12.5 79.5t-33 54.5t-61.5 22.5q-46 -13 -78.5 -49.5t-54.5 -85.5t-35.5 -104.5t-22.5 -106t-15.5 -91.5t-14.5 -61h-9t-18 -0.5t-18 -1t-9 0.5q0 57 -0.5 119.5t1 127.5t6 131t13.5 131q-3 10 4.5 23.5t18.5 19t21.5 -2.5
t13.5 -40q0 -19 0.5 -28t0.5 -19t0.5 -25.5t0.5 -47.5q15 24 29.5 55.5t35 60t51.5 47t79 17.5q58 2 93 -19t53.5 -59.5t24 -92t4.5 -116t-5 -132.5t-5 -141q-6 -13 -17.5 -18t-23 -2.5t-20.5 11t-10 23.5zM105 648q3 -6 15 18.5t19 63t2 82t-36 76.5q0 8 7 21.5t18 13.5
q27 -2 45 -30t25.5 -67t5 -81t-14 -72t-33.5 -40t-53 15z" />
    <glyph glyph-name="ncaron" unicode="&#x148;" 
d="M399 34q1 57 5.5 113.5t7 108.5t0.5 97.5t-12.5 79.5t-33 54.5t-61.5 22.5q-46 -13 -78.5 -49.5t-54.5 -85.5t-35.5 -104.5t-22.5 -106t-15.5 -91.5t-14.5 -61h-9t-18 -0.5t-18 -1t-9 0.5q0 57 -0.5 119.5t1 127.5t6 131t13.5 131q-3 10 4.5 23.5t18.5 19t21.5 -2.5
t13.5 -40q0 -19 0.5 -28t0.5 -19t0.5 -25.5t0.5 -47.5q15 24 29.5 55.5t35 60t51.5 47t79 17.5q58 2 93 -19t53.5 -59.5t24 -92t4.5 -116t-5 -132.5t-5 -141q-6 -13 -17.5 -18t-23 -2.5t-20.5 11t-10 23.5zM174 856l96 -120q14 30 22 50t17 36.5t22.5 32t40.5 34.5
q15 0 21.5 -5t8.5 -13t1 -19.5t-1 -23.5q-31 -16 -42.5 -37t-17.5 -45.5t-14 -52.5t-30 -57q-16 0 -43 23t-55.5 52.5t-52 57.5t-31.5 39z" />
    <glyph glyph-name="ncommaaccent" unicode="&#x146;" 
d="M399 34q1 57 5.5 113.5t7 108.5t0.5 97.5t-12.5 79.5t-33 54.5t-61.5 22.5q-46 -13 -78.5 -49.5t-54.5 -85.5t-35.5 -104.5t-22.5 -106t-15.5 -91.5t-14.5 -61h-9t-18 -0.5t-18 -1t-9 0.5q0 57 -0.5 119.5t1 127.5t6 131t13.5 131q-3 10 4.5 23.5t18.5 19t21.5 -2.5
t13.5 -40q0 -19 0.5 -28t0.5 -19t0.5 -25.5t0.5 -47.5q15 24 29.5 55.5t35 60t51.5 47t79 17.5q58 2 93 -19t53.5 -59.5t24 -92t4.5 -116t-5 -132.5t-5 -141q-6 -13 -17.5 -18t-23 -2.5t-20.5 11t-10 23.5zM190 -312q3 -6 15 18.5t19 63t2 82t-36 76.5q0 8 7 21.5t18 13.5
q27 -2 45 -30t25.5 -67t5 -81t-14 -72t-33.5 -40t-53 15z" />
    <glyph glyph-name="ntilde" unicode="&#xf1;" 
d="M399 34q1 57 5.5 113.5t7 108.5t0.5 97.5t-12.5 79.5t-33 54.5t-61.5 22.5q-46 -13 -78.5 -49.5t-54.5 -85.5t-35.5 -104.5t-22.5 -106t-15.5 -91.5t-14.5 -61h-9t-18 -0.5t-18 -1t-9 0.5q0 57 -0.5 119.5t1 127.5t6 131t13.5 131q-3 10 4.5 23.5t18.5 19t21.5 -2.5
t13.5 -40q0 -19 0.5 -28t0.5 -19t0.5 -25.5t0.5 -47.5q15 24 29.5 55.5t35 60t51.5 47t79 17.5q58 2 93 -19t53.5 -59.5t24 -92t4.5 -116t-5 -132.5t-5 -141q-6 -13 -17.5 -18t-23 -2.5t-20.5 11t-10 23.5zM464 728q1 -53 -8.5 -81t-25.5 -37.5t-37.5 -4.5t-46 18
t-50.5 30.5l-51 33t-47 25.5t-38 8q-15 -7 -22 -19t-10 -25t-4 -25t-5 -19t-12.5 -8t-25.5 9q-12 3 -11 29.5t12.5 57t32 56t47.5 28.5q23 -6 48 -21.5t49.5 -34l47 -37t41 -30t31 -12.5t17.5 15q11 12 12 27t-2.5 32t-8.5 35t-5 36q22 11 36.5 4.5t22 -21.5t10.5 -34.5
t3 -34.5z" />
    <glyph glyph-name="oacute" unicode="&#xf3;" horiz-adv-x="510" 
d="M29 179q1 53 15 113.5t40 119t63 110.5t83 88q13 -3 16.5 -9.5t3.5 -13.5t1 -14t9 -13q67 -2 112.5 -27t71 -65t32 -89.5t-2.5 -101.5t-33 -101.5t-60 -88t-83 -62.5t-102 -25q-39 0 -69.5 14.5t-52 39t-33 57t-11.5 68.5zM90 185q0 -47 26 -76.5t71 -29.5q53 -3 98.5 24
t77 70t46 95.5t7 100.5t-40 84t-95.5 47q-33 0 -59.5 -17t-47.5 -44t-36.5 -61.5t-26 -69.5t-15.5 -67.5t-5 -55.5zM323 797q-11 -22 -23 -34.5t-25 -22l-28 -20t-33 -28.5q-23 8 -28 18.5t0.5 22.5t20 25l30 26l30.5 25.5t22 23.5q22 0 28 -9.5t6 -26.5z" />
    <glyph glyph-name="obreve" unicode="&#x14f;" horiz-adv-x="510" 
d="M29 179q1 53 15 113.5t40 119t63 110.5t83 88q13 -3 16.5 -9.5t3.5 -13.5t1 -14t9 -13q67 -2 112.5 -27t71 -65t32 -89.5t-2.5 -101.5t-33 -101.5t-60 -88t-83 -62.5t-102 -25q-39 0 -69.5 14.5t-52 39t-33 57t-11.5 68.5zM90 185q0 -47 26 -76.5t71 -29.5q53 -3 98.5 24
t77 70t46 95.5t7 100.5t-40 84t-95.5 47q-33 0 -59.5 -17t-47.5 -44t-36.5 -61.5t-26 -69.5t-15.5 -67.5t-5 -55.5zM51 836q0 8 5.5 13.5t14 8.5t18.5 4.5t19 1.5q7 -35 25.5 -60t41.5 -38t47 -14t42 12t26.5 41.5t0.5 74.5v3q0 1 1 2q5 8 15 18.5t20 12.5q34 -38 41 -73
t-5 -64t-38.5 -50t-59.5 -32t-69 -10t-67 17t-52.5 48.5t-25.5 83.5z" />
    <glyph glyph-name="ocircumflex" unicode="&#xf4;" horiz-adv-x="510" 
d="M29 179q1 53 15 113.5t40 119t63 110.5t83 88q13 -3 16.5 -9.5t3.5 -13.5t1 -14t9 -13q67 -2 112.5 -27t71 -65t32 -89.5t-2.5 -101.5t-33 -101.5t-60 -88t-83 -62.5t-102 -25q-39 0 -69.5 14.5t-52 39t-33 57t-11.5 68.5zM90 185q0 -47 26 -76.5t71 -29.5q53 -3 98.5 24
t77 70t46 95.5t7 100.5t-40 84t-95.5 47q-33 0 -59.5 -17t-47.5 -44t-36.5 -61.5t-26 -69.5t-15.5 -67.5t-5 -55.5zM94 632q6 33 24 73t43.5 77t55.5 66t59 41q15 0 39 -23.5t46 -55.5t38 -64t16 -49q0 -10 -6 -16t-14 -9t-18 -4t-17 -1q-21 0 -34 13t-21.5 31.5t-15 39.5
t-15.5 37q-1 0 -2.5 0.5t-2.5 0.5q-14 0 -23.5 -12.5t-18 -32t-17 -41.5t-19 -41.5t-24 -32t-33.5 -12.5h-10t-13.5 1.5t-11.5 4.5t-5 9z" />
    <glyph glyph-name="odieresis" unicode="&#xf6;" horiz-adv-x="510" 
d="M29 179q1 53 15 113.5t40 119t63 110.5t83 88q13 -3 16.5 -9.5t3.5 -13.5t1 -14t9 -13q67 -2 112.5 -27t71 -65t32 -89.5t-2.5 -101.5t-33 -101.5t-60 -88t-83 -62.5t-102 -25q-39 0 -69.5 14.5t-52 39t-33 57t-11.5 68.5zM90 185q0 -47 26 -76.5t71 -29.5q53 -3 98.5 24
t77 70t46 95.5t7 100.5t-40 84t-95.5 47q-33 0 -59.5 -17t-47.5 -44t-36.5 -61.5t-26 -69.5t-15.5 -67.5t-5 -55.5zM104 732q0 17 12 26.5t29 9.5q10 0 21 -6t20 -15t14.5 -19.5t5.5 -19.5q0 -12 -2.5 -27.5t-17.5 -15.5q-12 0 -26.5 5.5t-27 15t-20.5 21.5t-8 25zM288 732
q0 17 12 26.5t29 9.5q10 0 21 -6t20 -15t14.5 -19.5t5.5 -19.5q0 -12 -2.5 -27.5t-17.5 -15.5q-12 0 -26.5 5.5t-27 15t-20.5 21.5t-8 25z" />
    <glyph glyph-name="ograve" unicode="&#xf2;" horiz-adv-x="510" 
d="M29 179q1 53 15 113.5t40 119t63 110.5t83 88q13 -3 16.5 -9.5t3.5 -13.5t1 -14t9 -13q67 -2 112.5 -27t71 -65t32 -89.5t-2.5 -101.5t-33 -101.5t-60 -88t-83 -62.5t-102 -25q-39 0 -69.5 14.5t-52 39t-33 57t-11.5 68.5zM90 185q0 -47 26 -76.5t71 -29.5q53 -3 98.5 24
t77 70t46 95.5t7 100.5t-40 84t-95.5 47q-33 0 -59.5 -17t-47.5 -44t-36.5 -61.5t-26 -69.5t-15.5 -67.5t-5 -55.5zM159 784q0 18 5.5 27.5t25.5 9.5q7 -12 20.5 -24.5l28 -26l27.5 -26.5t18.5 -25.5t0.5 -23.5t-26 -19q-16 19 -30 29.5t-26 20.5t-23 22.5t-21 35.5z" />
    <glyph glyph-name="ohungarumlaut" unicode="&#x151;" horiz-adv-x="510" 
d="M29 179q1 53 15 113.5t40 119t63 110.5t83 88q13 -3 16.5 -9.5t3.5 -13.5t1 -14t9 -13q67 -2 112.5 -27t71 -65t32 -89.5t-2.5 -101.5t-33 -101.5t-60 -88t-83 -62.5t-102 -25q-39 0 -69.5 14.5t-52 39t-33 57t-11.5 68.5zM90 185q0 -47 26 -76.5t71 -29.5q53 -3 98.5 24
t77 70t46 95.5t7 100.5t-40 84t-95.5 47q-33 0 -59.5 -17t-47.5 -44t-36.5 -61.5t-26 -69.5t-15.5 -67.5t-5 -55.5zM289 736q-11 -22 -23 -34.5t-25 -22l-28 -20t-33 -28.5q-23 8 -28 18.5t0.5 22.5t20 25l30 26l30.5 25.5t22 23.5q22 0 28 -9.5t6 -26.5zM421 725
q-11 -22 -23 -34.5t-25 -22l-28 -20t-33 -28.5q-23 8 -28 18.5t0.5 22.5t20 25l30 26l30.5 25.5t22 23.5q22 0 28 -9.5t6 -26.5z" />
    <glyph glyph-name="omacron" unicode="&#x14d;" horiz-adv-x="510" 
d="M29 179q1 53 15 113.5t40 119t63 110.5t83 88q13 -3 16.5 -9.5t3.5 -13.5t1 -14t9 -13q67 -2 112.5 -27t71 -65t32 -89.5t-2.5 -101.5t-33 -101.5t-60 -88t-83 -62.5t-102 -25q-39 0 -69.5 14.5t-52 39t-33 57t-11.5 68.5zM90 185q0 -47 26 -76.5t71 -29.5q53 -3 98.5 24
t77 70t46 95.5t7 100.5t-40 84t-95.5 47q-33 0 -59.5 -17t-47.5 -44t-36.5 -61.5t-26 -69.5t-15.5 -67.5t-5 -55.5zM62 719q18 26 57 32t90 3.5t110 -7.5t116 1q19 0 27.5 -3.5t8.5 -23.5t-24 -30t-61.5 -13.5t-82.5 -2.5t-87 4.5t-74.5 6.5t-45.5 3q-14 0 -24 7.5t-10 22.5
z" />
    <glyph glyph-name="oslash" unicode="&#xf8;" horiz-adv-x="510" 
d="M29 179q1 53 15 113.5t40 119t63 110.5t83 88q13 -3 16.5 -9.5t3.5 -13.5t1 -14t9 -13q67 -2 112.5 -27t71 -65t32 -89.5t-2.5 -101.5t-33 -101.5t-60 -88t-83 -62.5t-102 -25q-39 0 -69.5 14.5t-52 39t-33 57t-11.5 68.5zM90 185q0 -47 26 -76.5t71 -29.5q53 -3 98.5 24
t77 70t46 95.5t7 100.5t-40 84t-95.5 47q-33 0 -59.5 -17t-47.5 -44t-36.5 -61.5t-26 -69.5t-15.5 -67.5t-5 -55.5zM72.5996 4.46875q8.36914 21.6602 30.8613 66.7285l52.3076 100.967l62.7686 116.688l61.7217 114.242l49.1689 93.6299q20.4004 40.1768 25.6309 54.1514
q1.0459 18.168 18.8301 28.6484q17.7852 10.4805 35.0459 11.1797q17.2617 0.699219 26.6768 -9.43262t-4.18457 -32.4912q-27.2002 -74.0654 -65.3838 -141.493l-77.415 -134.505q-39.2295 -67.0781 -73.2295 -136.253t-51.7842 -146.034
q-6.27637 -13.2764 -23.5381 -18.5166q-17.2617 -5.24121 -33.4766 -3.14453t-27.7227 11.1797t-6.27734 24.4561z" />
    <glyph glyph-name="oslashacute" unicode="&#x1ff;" horiz-adv-x="510" 
d="M29 179q1 53 15 113.5t40 119t63 110.5t83 88q13 -3 16.5 -9.5t3.5 -13.5t1 -14t9 -13q67 -2 112.5 -27t71 -65t32 -89.5t-2.5 -101.5t-33 -101.5t-60 -88t-83 -62.5t-102 -25q-39 0 -69.5 14.5t-52 39t-33 57t-11.5 68.5zM90 185q0 -47 26 -76.5t71 -29.5q53 -3 98.5 24
t77 70t46 95.5t7 100.5t-40 84t-95.5 47q-33 0 -59.5 -17t-47.5 -44t-36.5 -61.5t-26 -69.5t-15.5 -67.5t-5 -55.5zM73.8008 4.25488q9.10742 21.3955 33.585 65.9121l56.9248 99.7324l68.3086 115.261l67.1709 112.846l53.5098 92.4844q22.2002 39.6855 27.8926 53.4893
q1.13867 17.9453 20.4932 28.2979q19.3535 10.3525 38.1387 11.043t29.0312 -9.31738q10.2471 -10.0078 -4.55371 -32.0938q-29.6006 -73.1592 -71.1553 -139.763l-84.248 -132.86t-79.6943 -134.587q-37.001 -68.3281 -56.3555 -144.248q-6.83105 -13.1133 -25.6162 -18.29
q-18.7842 -5.17676 -36.4316 -3.10645q-17.6465 2.07129 -30.1699 11.043q-12.5234 8.97266 -6.83008 24.1572zM347 765q-11 -22 -23 -34.5t-25 -22l-28 -20t-33 -28.5q-23 8 -28 18.5t0.5 22.5t20 25l30 26l30.5 25.5t22 23.5q22 0 28 -9.5t6 -26.5z" />
    <glyph glyph-name="otilde" unicode="&#xf5;" horiz-adv-x="510" 
d="M29 179q1 53 15 113.5t40 119t63 110.5t83 88q13 -3 16.5 -9.5t3.5 -13.5t1 -14t9 -13q67 -2 112.5 -27t71 -65t32 -89.5t-2.5 -101.5t-33 -101.5t-60 -88t-83 -62.5t-102 -25q-39 0 -69.5 14.5t-52 39t-33 57t-11.5 68.5zM90 185q0 -47 26 -76.5t71 -29.5q53 -3 98.5 24
t77 70t46 95.5t7 100.5t-40 84t-95.5 47q-33 0 -59.5 -17t-47.5 -44t-36.5 -61.5t-26 -69.5t-15.5 -67.5t-5 -55.5zM461 728q1 -53 -8.5 -81t-25.5 -37.5t-37.5 -4.5t-46 18t-50.5 30.5l-51 33t-47 25.5t-38 8q-15 -7 -22 -19t-10 -25t-4 -25t-5 -19t-12.5 -8t-25.5 9
q-12 3 -11 29.5t12.5 57t32 56t47.5 28.5q23 -6 48 -21.5t49.5 -34l47 -37t41 -30t31 -12.5t17.5 15q11 12 12 27t-2.5 32t-8.5 35t-5 36q22 11 36.5 4.5t22 -21.5t10.5 -34.5t3 -34.5z" />
    <glyph glyph-name="oe" unicode="&#x153;" horiz-adv-x="832" 
d="M29 179q1 53 15 113.5t40 119t63 110.5t83 88q13 -3 16.5 -9.5t3.5 -13.5t1 -14t9 -13q47 -2 83 -14.5t62 -34t42 -50t24 -61.5q13 24 32 55.5t46.5 60t66 48t91.5 19.5q21 0 40.5 -8.5t34 -23t23 -33t8.5 -38.5q0 -45 -13.5 -73.5t-36.5 -45.5t-53.5 -25.5t-65.5 -13.5
t-72.5 -9.5t-73.5 -13.5q-13 -51 -4.5 -97t31.5 -80.5t57 -54.5t71 -20.5t73.5 22t65.5 73.5q9 0 13.5 -5.5t6 -13t1.5 -16t-1 -15.5q-37 -51 -75.5 -76t-75 -29t-70.5 9.5t-62.5 40t-51 63t-36.5 78.5q-18 -37 -43 -69t-56 -56t-68 -38.5t-79 -14.5q-39 0 -69.5 14.5
t-52 39t-33 57t-11.5 68.5zM90 185q0 -47 26 -76.5t71 -29.5q53 -3 98.5 24t77 70t46 95.5t7 100.5t-40 84t-95.5 47q-33 0 -59.5 -17t-47.5 -44t-36.5 -61.5t-26 -69.5t-15.5 -67.5t-5 -55.5zM696 513q-44 -3 -75.5 -19.5t-52.5 -40t-33 -49t-17 -46.5q-1 2 16 3.5t43 5
t56.5 9t58 17t47.5 29.5t24 46q0 13 -6.5 21.5t-16.5 13.5t-22 7.5t-22 2.5z" />
    <glyph glyph-name="racute" unicode="&#x155;" horiz-adv-x="448" 
d="M28 583q32 14 49.5 7t25.5 -27.5t10 -49.5t1.5 -58.5t-0.5 -55.5t6 -39q18 69 52 122t80.5 84t104 37t123.5 -19q-1 -1 -1.5 -7t-0.5 -12.5t-0.5 -11.5t-1.5 -5q-94 0 -156.5 -29t-99.5 -91.5t-49.5 -161t-6.5 -238.5q-5 -11 -14 -18t-19 -8.5t-18.5 2.5t-12.5 16
q-10 29 -14.5 71t-7 91t-4.5 103t-7 107t-14 102t-25 89zM324 725q-11 -22 -23 -34.5t-25 -22l-28 -20t-33 -28.5q-23 8 -28 18.5t0.5 22.5t20 25l30 26l30.5 25.5t22 23.5q22 0 28 -9.5t6 -26.5z" />
    <glyph glyph-name="rcaron" unicode="&#x159;" horiz-adv-x="448" 
d="M28 583q32 14 49.5 7t25.5 -27.5t10 -49.5t1.5 -58.5t-0.5 -55.5t6 -39q18 69 52 122t80.5 84t104 37t123.5 -19q-1 -1 -1.5 -7t-0.5 -12.5t-0.5 -11.5t-1.5 -5q-94 0 -156.5 -29t-99.5 -91.5t-49.5 -161t-6.5 -238.5q-5 -11 -14 -18t-19 -8.5t-18.5 2.5t-12.5 16
q-10 29 -14.5 71t-7 91t-4.5 103t-7 107t-14 102t-25 89zM132 864l96 -120q14 30 22 50t17 36.5t22.5 32t40.5 34.5q15 0 21.5 -5t8.5 -13t1 -19.5t-1 -23.5q-31 -16 -42.5 -37t-17.5 -45.5t-14 -52.5t-30 -57q-16 0 -43 23t-55.5 52.5t-52 57.5t-31.5 39z" />
    <glyph glyph-name="rcommaaccent" unicode="&#x157;" horiz-adv-x="448" 
d="M28 583q32 14 49.5 7t25.5 -27.5t10 -49.5t1.5 -58.5t-0.5 -55.5t6 -39q18 69 52 122t80.5 84t104 37t123.5 -19q-1 -1 -1.5 -7t-0.5 -12.5t-0.5 -11.5t-1.5 -5q-94 0 -156.5 -29t-99.5 -91.5t-49.5 -161t-6.5 -238.5q-5 -11 -14 -18t-19 -8.5t-18.5 2.5t-12.5 16
q-10 29 -14.5 71t-7 91t-4.5 103t-7 107t-14 102t-25 89zM156 -312q3 -6 15 18.5t19 63t2 82t-36 76.5q0 8 7 21.5t18 13.5q27 -2 45 -30t25.5 -67t5 -81t-14 -72t-33.5 -40t-53 15z" />
    <glyph glyph-name="sacute" unicode="&#x15b;" horiz-adv-x="560" 
d="M60 50q5 16 16 28.5t28 12.5q15 -8 40.5 -11t55 -1.5t62 7.5t61 15t52 21.5t35.5 27.5q-95 -3 -162.5 -2t-112.5 15t-70 45t-35 87q0 66 30 124t80 101t114.5 68t133.5 25q10 1 30.5 -2.5t38.5 -11t26 -19.5t-7 -28q-40 5 -84 -4t-86.5 -27.5t-81 -45.5t-67.5 -57
t-45 -61.5t-15 -60t23 -51t70 -35.5q32 -7 70.5 -5t77.5 6.5l75 9t64.5 2t45.5 -14t17 -38.5q-16 -27 -51.5 -55.5t-81 -52.5t-97 -40.5t-100 -20.5t-88.5 7t-62 42zM384 785q-11 -22 -23 -34.5t-25 -22l-28 -20t-33 -28.5q-23 8 -28 18.5t0.5 22.5t20 25l30 26l30.5 25.5
t22 23.5q22 0 28 -9.5t6 -26.5z" />
    <glyph glyph-name="scaron" unicode="&#x161;" horiz-adv-x="560" 
d="M60 50q5 16 16 28.5t28 12.5q15 -8 40.5 -11t55 -1.5t62 7.5t61 15t52 21.5t35.5 27.5q-95 -3 -162.5 -2t-112.5 15t-70 45t-35 87q0 66 30 124t80 101t114.5 68t133.5 25q10 1 30.5 -2.5t38.5 -11t26 -19.5t-7 -28q-40 5 -84 -4t-86.5 -27.5t-81 -45.5t-67.5 -57
t-45 -61.5t-15 -60t23 -51t70 -35.5q32 -7 70.5 -5t77.5 6.5l75 9t64.5 2t45.5 -14t17 -38.5q-16 -27 -51.5 -55.5t-81 -52.5t-97 -40.5t-100 -20.5t-88.5 7t-62 42zM192 872l96 -120q14 30 22 50t17 36.5t22.5 32t40.5 34.5q15 0 21.5 -5t8.5 -13t1 -19.5t-1 -23.5
q-31 -16 -42.5 -37t-17.5 -45.5t-14 -52.5t-30 -57q-16 0 -43 23t-55.5 52.5t-52 57.5t-31.5 39z" />
    <glyph glyph-name="scedilla" unicode="&#x15f;" horiz-adv-x="560" 
d="M60 50q5 16 16 28.5t28 12.5q15 -8 40.5 -11t55 -1.5t62 7.5t61 15t52 21.5t35.5 27.5q-95 -3 -162.5 -2t-112.5 15t-70 45t-35 87q0 66 30 124t80 101t114.5 68t133.5 25q10 1 30.5 -2.5t38.5 -11t26 -19.5t-7 -28q-40 5 -84 -4t-86.5 -27.5t-81 -45.5t-67.5 -57
t-45 -61.5t-15 -60t23 -51t70 -35.5q32 -7 70.5 -5t77.5 6.5l75 9t64.5 2t45.5 -14t17 -38.5q-16 -27 -51.5 -55.5t-81 -52.5t-97 -40.5t-100 -20.5t-88.5 7t-62 42zM197 -295q11 9 28.5 12t38.5 4t44.5 2t46.5 4.5t44 12t38 25.5q17 48 9 72.5t-30.5 33t-55 6.5t-63 -7.5
t-55 -9t-30.5 2.5q3 36 2 53t-2.5 30.5l-3.5 30.5t-2 53q0 18 13 30.5t30 12.5q18 0 26 -9t11 -22t2 -29t-2 -29t-0.5 -22t6.5 -9q74 0 116.5 -8t63.5 -21t26 -28t5 -29q10 -54 0.5 -92.5t-32.5 -64t-56.5 -40t-70 -20t-74 -4.5t-68.5 7q-7 0 -8.5 5t-1 12.5t2.5 17t2 17.5z
" />
    <glyph glyph-name="scircumflex" unicode="&#x15d;" horiz-adv-x="560" 
d="M60 50q5 16 16 28.5t28 12.5q15 -8 40.5 -11t55 -1.5t62 7.5t61 15t52 21.5t35.5 27.5q-95 -3 -162.5 -2t-112.5 15t-70 45t-35 87q0 66 30 124t80 101t114.5 68t133.5 25q10 1 30.5 -2.5t38.5 -11t26 -19.5t-7 -28q-40 5 -84 -4t-86.5 -27.5t-81 -45.5t-67.5 -57
t-45 -61.5t-15 -60t23 -51t70 -35.5q32 -7 70.5 -5t77.5 6.5l75 9t64.5 2t45.5 -14t17 -38.5q-16 -27 -51.5 -55.5t-81 -52.5t-97 -40.5t-100 -20.5t-88.5 7t-62 42zM119 632q6 33 24 73t43.5 77t55.5 66t59 41q15 0 39 -23.5t46 -55.5t38 -64t16 -49q0 -10 -6 -16t-14 -9
t-18 -4t-17 -1q-21 0 -34 13t-21.5 31.5t-15 39.5t-15.5 37q-1 0 -2.5 0.5t-2.5 0.5q-14 0 -23.5 -12.5t-18 -32t-17 -41.5t-19 -41.5t-24 -32t-33.5 -12.5h-10t-13.5 1.5t-11.5 4.5t-5 9z" />
    <glyph glyph-name="scommaaccent" unicode="&#x219;" horiz-adv-x="560" 
d="M60 50q5 16 16 28.5t28 12.5q15 -8 40.5 -11t55 -1.5t62 7.5t61 15t52 21.5t35.5 27.5q-95 -3 -162.5 -2t-112.5 15t-70 45t-35 87q0 66 30 124t80 101t114.5 68t133.5 25q10 1 30.5 -2.5t38.5 -11t26 -19.5t-7 -28q-40 5 -84 -4t-86.5 -27.5t-81 -45.5t-67.5 -57
t-45 -61.5t-15 -60t23 -51t70 -35.5q32 -7 70.5 -5t77.5 6.5l75 9t64.5 2t45.5 -14t17 -38.5q-16 -27 -51.5 -55.5t-81 -52.5t-97 -40.5t-100 -20.5t-88.5 7t-62 42zM212 -312q3 -6 15 18.5t19 63t2 82t-36 76.5q0 8 7 21.5t18 13.5q27 -2 45 -30t25.5 -67t5 -81t-14 -72
t-33.5 -40t-53 15z" />
    <glyph glyph-name="tbar" unicode="&#x167;" horiz-adv-x="392" 
d="M162 20q-4 67 -1.5 124.5t6.5 113.5l8.5 114t4.5 126l-204 14q-12 1 -21.5 12.5t-10.5 25t8.5 25t35.5 13.5q9 -7 33.5 -9t55.5 -2t62 1t53 0l-0.5 13.5t-1.5 31.5l-2 36.5t0 28.5q1 15 1 38t1 48.5t4.5 51.5t12.5 46.5t23.5 33.5t38.5 13q0 -29 -1 -66t-2.5 -76
t-2.5 -76.5t-1 -67.5v-45q34 2 56.5 2.5t43 -0.5t44 -2t59.5 -2q10 -2 10.5 -13t0.5 -17q-15 -20 -37 -27t-46 -7t-48 2.5t-44 2t-33.5 -8.5t-15.5 -30q-12 -38 -12.5 -84.5t2.5 -96t5 -97.5t-4 -87.5t-24.5 -67t-56.5 -35.5zM9 412q18 26 57 32t90 3.5t110 -7.5t116 1
q19 0 27.5 -3.5t8.5 -23.5t-24 -30t-61.5 -13.5t-82.5 -2.5t-87 4.5t-74.5 6.5t-45.5 3q-14 0 -24 7.5t-10 22.5z" />
    <glyph glyph-name="tcaron" unicode="&#x165;" horiz-adv-x="444" 
d="M162 20q-4 67 -1.5 124.5t6.5 113.5l8.5 114t4.5 126l-204 14q-12 1 -21.5 12.5t-10.5 25t8.5 25t35.5 13.5q9 -7 33.5 -9t55.5 -2t62 1t53 0l-0.5 13.5t-1.5 31.5l-2 36.5t0 28.5q1 15 1 38t1 48.5t4.5 51.5t12.5 46.5t23.5 33.5t38.5 13q0 -29 -1 -66t-2.5 -76
t-2.5 -76.5t-1 -67.5v-45q34 2 56.5 2.5t43 -0.5t44 -2t59.5 -2q10 -2 10.5 -13t0.5 -17q-15 -20 -37 -27t-46 -7t-48 2.5t-44 2t-33.5 -8.5t-15.5 -30q-12 -38 -12.5 -84.5t2.5 -96t5 -97.5t-4 -87.5t-24.5 -67t-56.5 -35.5zM328 720q11 15 14 40.5t1 52.5t-7 51.5l-8 39.5
q5 3 15.5 5t18.5 -7q10 -9 16.5 -29.5t8.5 -46t-1 -53t-11 -49.5q5 -4 -1.5 -7t-16 -3.5t-19 0.5t-10.5 6z" />
    <glyph glyph-name="tcommaaccent" unicode="&#x163;" horiz-adv-x="392" 
d="M162 20q-4 67 -1.5 124.5t6.5 113.5l8.5 114t4.5 126l-204 14q-12 1 -21.5 12.5t-10.5 25t8.5 25t35.5 13.5q9 -7 33.5 -9t55.5 -2t62 1t53 0l-0.5 13.5t-1.5 31.5l-2 36.5t0 28.5q1 15 1 38t1 48.5t4.5 51.5t12.5 46.5t23.5 33.5t38.5 13q0 -29 -1 -66t-2.5 -76
t-2.5 -76.5t-1 -67.5v-45q34 2 56.5 2.5t43 -0.5t44 -2t59.5 -2q10 -2 10.5 -13t0.5 -17q-15 -20 -37 -27t-46 -7t-48 2.5t-44 2t-33.5 -8.5t-15.5 -30q-12 -38 -12.5 -84.5t2.5 -96t5 -97.5t-4 -87.5t-24.5 -67t-56.5 -35.5zM128 -312q3 -6 15 18.5t19 63t2 82t-36 76.5
q0 8 7 21.5t18 13.5q27 -2 45 -30t25.5 -67t5 -81t-14 -72t-33.5 -40t-53 15z" />
    <glyph glyph-name="uacute" unicode="&#xfa;" horiz-adv-x="568" 
d="M400 260q-3 -10 -13.5 -33.5t-26.5 -52.5t-37 -60.5t-45 -56t-50.5 -38.5t-54.5 -10q-51 14 -79.5 47t-41 78.5t-13.5 100t4 112t12 115.5t9 110q5 13 18 21t26.5 8t23 -8.5t8.5 -27.5q-3 -41 -10 -94t-13 -108.5t-9 -108.5t2.5 -94t21.5 -65.5t48 -22.5q33 5 61.5 30.5
t52 63.5t42 84t31.5 92.5t19.5 90t7.5 75.5q5 25 7.5 43t8.5 28.5t18 12.5t36 -4q3 -71 2 -142.5t5.5 -141.5t26 -136.5t62.5 -127.5q-2 -8 -3.5 -16.5t-5.5 -14.5t-11 -9.5t-20 -0.5q-22 0 -38 15t-28 39t-20 54t-14 59l-11 54t-9 40zM380 761q-11 -22 -23 -34.5t-25 -22
l-28 -20t-33 -28.5q-23 8 -28 18.5t0.5 22.5t20 25l30 26l30.5 25.5t22 23.5q22 0 28 -9.5t6 -26.5z" />
    <glyph glyph-name="ubreve" unicode="&#x16d;" horiz-adv-x="568" 
d="M400 260q-3 -10 -13.5 -33.5t-26.5 -52.5t-37 -60.5t-45 -56t-50.5 -38.5t-54.5 -10q-51 14 -79.5 47t-41 78.5t-13.5 100t4 112t12 115.5t9 110q5 13 18 21t26.5 8t23 -8.5t8.5 -27.5q-3 -41 -10 -94t-13 -108.5t-9 -108.5t2.5 -94t21.5 -65.5t48 -22.5q33 5 61.5 30.5
t52 63.5t42 84t31.5 92.5t19.5 90t7.5 75.5q5 25 7.5 43t8.5 28.5t18 12.5t36 -4q3 -71 2 -142.5t5.5 -141.5t26 -136.5t62.5 -127.5q-2 -8 -3.5 -16.5t-5.5 -14.5t-11 -9.5t-20 -0.5q-22 0 -38 15t-28 39t-20 54t-14 59l-11 54t-9 40zM112 820q0 8 5.5 13.5t14 8.5
t18.5 4.5t19 1.5q7 -35 25.5 -60t41.5 -38t47 -14t42 12t26.5 41.5t0.5 74.5v3q0 1 1 2q5 8 15 18.5t20 12.5q34 -38 41 -73t-5 -64t-38.5 -50t-59.5 -32t-69 -10t-67 17t-52.5 48.5t-25.5 83.5z" />
    <glyph glyph-name="ucircumflex" unicode="&#xfb;" horiz-adv-x="568" 
d="M400 260q-3 -10 -13.5 -33.5t-26.5 -52.5t-37 -60.5t-45 -56t-50.5 -38.5t-54.5 -10q-51 14 -79.5 47t-41 78.5t-13.5 100t4 112t12 115.5t9 110q5 13 18 21t26.5 8t23 -8.5t8.5 -27.5q-3 -41 -10 -94t-13 -108.5t-9 -108.5t2.5 -94t21.5 -65.5t48 -22.5q33 5 61.5 30.5
t52 63.5t42 84t31.5 92.5t19.5 90t7.5 75.5q5 25 7.5 43t8.5 28.5t18 12.5t36 -4q3 -71 2 -142.5t5.5 -141.5t26 -136.5t62.5 -127.5q-2 -8 -3.5 -16.5t-5.5 -14.5t-11 -9.5t-20 -0.5q-22 0 -38 15t-28 39t-20 54t-14 59l-11 54t-9 40zM127 664q6 33 24 73t43.5 77t55.5 66
t59 41q15 0 39 -23.5t46 -55.5t38 -64t16 -49q0 -10 -6 -16t-14 -9t-18 -4t-17 -1q-21 0 -34 13t-21.5 31.5t-15 39.5t-15.5 37q-1 0 -2.5 0.5t-2.5 0.5q-14 0 -23.5 -12.5t-18 -32t-17 -41.5t-19 -41.5t-24 -32t-33.5 -12.5h-10t-13.5 1.5t-11.5 4.5t-5 9z" />
    <glyph glyph-name="udieresis" unicode="&#xfc;" horiz-adv-x="568" 
d="M400 260q-3 -10 -13.5 -33.5t-26.5 -52.5t-37 -60.5t-45 -56t-50.5 -38.5t-54.5 -10q-51 14 -79.5 47t-41 78.5t-13.5 100t4 112t12 115.5t9 110q5 13 18 21t26.5 8t23 -8.5t8.5 -27.5q-3 -41 -10 -94t-13 -108.5t-9 -108.5t2.5 -94t21.5 -65.5t48 -22.5q33 5 61.5 30.5
t52 63.5t42 84t31.5 92.5t19.5 90t7.5 75.5q5 25 7.5 43t8.5 28.5t18 12.5t36 -4q3 -71 2 -142.5t5.5 -141.5t26 -136.5t62.5 -127.5q-2 -8 -3.5 -16.5t-5.5 -14.5t-11 -9.5t-20 -0.5q-22 0 -38 15t-28 39t-20 54t-14 59l-11 54t-9 40zM145 768q0 17 12 26.5t29 9.5
q10 0 21 -6t20 -15t14.5 -19.5t5.5 -19.5q0 -12 -2.5 -27.5t-17.5 -15.5q-12 0 -26.5 5.5t-27 15t-20.5 21.5t-8 25zM329 768q0 17 12 26.5t29 9.5q10 0 21 -6t20 -15t14.5 -19.5t5.5 -19.5q0 -12 -2.5 -27.5t-17.5 -15.5q-12 0 -26.5 5.5t-27 15t-20.5 21.5t-8 25z" />
    <glyph glyph-name="uhungarumlaut" unicode="&#x171;" horiz-adv-x="568" 
d="M400 260q-3 -10 -13.5 -33.5t-26.5 -52.5t-37 -60.5t-45 -56t-50.5 -38.5t-54.5 -10q-51 14 -79.5 47t-41 78.5t-13.5 100t4 112t12 115.5t9 110q5 13 18 21t26.5 8t23 -8.5t8.5 -27.5q-3 -41 -10 -94t-13 -108.5t-9 -108.5t2.5 -94t21.5 -65.5t48 -22.5q33 5 61.5 30.5
t52 63.5t42 84t31.5 92.5t19.5 90t7.5 75.5q5 25 7.5 43t8.5 28.5t18 12.5t36 -4q3 -71 2 -142.5t5.5 -141.5t26 -136.5t62.5 -127.5q-2 -8 -3.5 -16.5t-5.5 -14.5t-11 -9.5t-20 -0.5q-22 0 -38 15t-28 39t-20 54t-14 59l-11 54t-9 40zM338 792q-11 -22 -23 -34.5t-25 -22
l-28 -20t-33 -28.5q-23 8 -28 18.5t0.5 22.5t20 25l30 26l30.5 25.5t22 23.5q22 0 28 -9.5t6 -26.5zM470 781q-11 -22 -23 -34.5t-25 -22l-28 -20t-33 -28.5q-23 8 -28 18.5t0.5 22.5t20 25l30 26l30.5 25.5t22 23.5q22 0 28 -9.5t6 -26.5z" />
    <glyph glyph-name="ugrave" unicode="&#xf9;" horiz-adv-x="568" 
d="M400 260q-3 -10 -13.5 -33.5t-26.5 -52.5t-37 -60.5t-45 -56t-50.5 -38.5t-54.5 -10q-51 14 -79.5 47t-41 78.5t-13.5 100t4 112t12 115.5t9 110q5 13 18 21t26.5 8t23 -8.5t8.5 -27.5q-3 -41 -10 -94t-13 -108.5t-9 -108.5t2.5 -94t21.5 -65.5t48 -22.5q33 5 61.5 30.5
t52 63.5t42 84t31.5 92.5t19.5 90t7.5 75.5q5 25 7.5 43t8.5 28.5t18 12.5t36 -4q3 -71 2 -142.5t5.5 -141.5t26 -136.5t62.5 -127.5q-2 -8 -3.5 -16.5t-5.5 -14.5t-11 -9.5t-20 -0.5q-22 0 -38 15t-28 39t-20 54t-14 59l-11 54t-9 40zM204 764q0 18 5.5 27.5t25.5 9.5
q7 -12 20.5 -24.5l28 -26l27.5 -26.5t18.5 -25.5t0.5 -23.5t-26 -19q-16 19 -30 29.5t-26 20.5t-23 22.5t-21 35.5z" />
    <glyph glyph-name="umacron" unicode="&#x16b;" horiz-adv-x="568" 
d="M400 260q-3 -10 -13.5 -33.5t-26.5 -52.5t-37 -60.5t-45 -56t-50.5 -38.5t-54.5 -10q-51 14 -79.5 47t-41 78.5t-13.5 100t4 112t12 115.5t9 110q5 13 18 21t26.5 8t23 -8.5t8.5 -27.5q-3 -41 -10 -94t-13 -108.5t-9 -108.5t2.5 -94t21.5 -65.5t48 -22.5q33 5 61.5 30.5
t52 63.5t42 84t31.5 92.5t19.5 90t7.5 75.5q5 25 7.5 43t8.5 28.5t18 12.5t36 -4q3 -71 2 -142.5t5.5 -141.5t26 -136.5t62.5 -127.5q-2 -8 -3.5 -16.5t-5.5 -14.5t-11 -9.5t-20 -0.5q-22 0 -38 15t-28 39t-20 54t-14 59l-11 54t-9 40zM91 719q18 26 57 32t90 3.5t110 -7.5
t116 1q19 0 27.5 -3.5t8.5 -23.5t-24 -30t-61.5 -13.5t-82.5 -2.5t-87 4.5t-74.5 6.5t-45.5 3q-14 0 -24 7.5t-10 22.5z" />
    <glyph glyph-name="uogonek" unicode="&#x173;" horiz-adv-x="568" 
d="M400 260q-3 -10 -13.5 -33.5t-26.5 -52.5t-37 -60.5t-45 -56t-50.5 -38.5t-54.5 -10q-51 14 -79.5 47t-41 78.5t-13.5 100t4 112t12 115.5t9 110q5 13 18 21t26.5 8t23 -8.5t8.5 -27.5q-3 -41 -10 -94t-13 -108.5t-9 -108.5t2.5 -94t21.5 -65.5t48 -22.5q33 5 61.5 30.5
t52 63.5t42 84t31.5 92.5t19.5 90t7.5 75.5q5 25 7.5 43t8.5 28.5t18 12.5t36 -4q3 -71 2 -142.5t5.5 -141.5t26 -136.5t62.5 -127.5q-2 -8 -3.5 -16.5t-5.5 -14.5t-11 -9.5t-20 -0.5q-22 0 -38 15t-28 39t-20 54t-14 59l-11 54t-9 40zM572 -100q-9 -13 -21 -23t-25 -16
t-25 -8.5t-21 0.5q-35 15 -49 42.5t-14 60t11 65.5t28 59l39 -20q-17 -33 -19 -65.5t7 -51.5t27 -18.5t41 34.5z" />
    <glyph glyph-name="uring" unicode="&#x16f;" horiz-adv-x="568" 
d="M400 260q-3 -10 -13.5 -33.5t-26.5 -52.5t-37 -60.5t-45 -56t-50.5 -38.5t-54.5 -10q-51 14 -79.5 47t-41 78.5t-13.5 100t4 112t12 115.5t9 110q5 13 18 21t26.5 8t23 -8.5t8.5 -27.5q-3 -41 -10 -94t-13 -108.5t-9 -108.5t2.5 -94t21.5 -65.5t48 -22.5q33 5 61.5 30.5
t52 63.5t42 84t31.5 92.5t19.5 90t7.5 75.5q5 25 7.5 43t8.5 28.5t18 12.5t36 -4q3 -71 2 -142.5t5.5 -141.5t26 -136.5t62.5 -127.5q-2 -8 -3.5 -16.5t-5.5 -14.5t-11 -9.5t-20 -0.5q-22 0 -38 15t-28 39t-20 54t-14 59l-11 54t-9 40zM346 597q-24 -3 -51.5 -1.5t-54.5 6.5
t-51.5 14.5t-42.5 23.5q1 5 3.5 6.5t5.5 2t6.5 1.5t5.5 4q-4 32 12 52.5t42.5 30.5t58.5 10t60.5 -9.5t49.5 -27.5t25 -44q2 -14 -2.5 -25.5t-14 -20.5t-23 -15t-29.5 -8zM212 664q5 -15 24.5 -21t42.5 -5t44.5 7t30.5 15q-3 19 -25 30.5t-47.5 13t-47 -8t-22.5 -31.5z" />
    <glyph glyph-name="utilde" unicode="&#x169;" horiz-adv-x="568" 
d="M400 260q-3 -10 -13.5 -33.5t-26.5 -52.5t-37 -60.5t-45 -56t-50.5 -38.5t-54.5 -10q-51 14 -79.5 47t-41 78.5t-13.5 100t4 112t12 115.5t9 110q5 13 18 21t26.5 8t23 -8.5t8.5 -27.5q-3 -41 -10 -94t-13 -108.5t-9 -108.5t2.5 -94t21.5 -65.5t48 -22.5q33 5 61.5 30.5
t52 63.5t42 84t31.5 92.5t19.5 90t7.5 75.5q5 25 7.5 43t8.5 28.5t18 12.5t36 -4q3 -71 2 -142.5t5.5 -141.5t26 -136.5t62.5 -127.5q-2 -8 -3.5 -16.5t-5.5 -14.5t-11 -9.5t-20 -0.5q-22 0 -38 15t-28 39t-20 54t-14 59l-11 54t-9 40zM482 788q1 -53 -8.5 -81t-25.5 -37.5
t-37.5 -4.5t-46 18t-50.5 30.5l-51 33t-47 25.5t-38 8q-15 -7 -22 -19t-10 -25t-4 -25t-5 -19t-12.5 -8t-25.5 9q-12 3 -11 29.5t12.5 57t32 56t47.5 28.5q23 -6 48 -21.5t49.5 -34l47 -37t41 -30t31 -12.5t17.5 15q11 12 12 27t-2.5 32t-8.5 35t-5 36q22 11 36.5 4.5
t22 -21.5t10.5 -34.5t3 -34.5z" />
    <glyph glyph-name="wacute" unicode="&#x1e83;" horiz-adv-x="830" 
d="M16 550q0 10 7.5 15.5t17.5 6.5t20 -1.5t15 -9.5q11 -43 22.5 -106.5t26.5 -129t35 -124.5t47 -94q39 38 55 88t22.5 105t9 111.5t13.5 107.5q2 19 7.5 31t28.5 12q13 4 28 -16.5t32 -55.5t36 -81l40 -93t44 -90.5t48 -73.5q16 39 24.5 78t14.5 78l12.5 77.5t19 76
t33.5 74t57 71.5q18 13 34.5 18.5t28 4t17 -9.5t1.5 -21q-63 -62 -98 -132t-50.5 -145.5t-16.5 -154.5t3 -158q-6 -10 -15 -12t-19 1t-19.5 8.5t-16.5 10.5l-223 393q-5 -50 -10 -109t-19.5 -116t-42.5 -107t-79 -81q-18 0 -39 35.5t-42.5 90.5t-41 121.5t-35 128t-24.5 110
t-9 67.5zM487 829q-11 -22 -23 -34.5t-25 -22l-28 -20t-33 -28.5q-23 8 -28 18.5t0.5 22.5t20 25l30 26l30.5 25.5t22 23.5q22 0 28 -9.5t6 -26.5z" />
    <glyph glyph-name="wcircumflex" unicode="&#x175;" horiz-adv-x="830" 
d="M16 550q0 10 7.5 15.5t17.5 6.5t20 -1.5t15 -9.5q11 -43 22.5 -106.5t26.5 -129t35 -124.5t47 -94q39 38 55 88t22.5 105t9 111.5t13.5 107.5q2 19 7.5 31t28.5 12q13 4 28 -16.5t32 -55.5t36 -81l40 -93t44 -90.5t48 -73.5q16 39 24.5 78t14.5 78l12.5 77.5t19 76
t33.5 74t57 71.5q18 13 34.5 18.5t28 4t17 -9.5t1.5 -21q-63 -62 -98 -132t-50.5 -145.5t-16.5 -154.5t3 -158q-6 -10 -15 -12t-19 1t-19.5 8.5t-16.5 10.5l-223 393q-5 -50 -10 -109t-19.5 -116t-42.5 -107t-79 -81q-18 0 -39 35.5t-42.5 90.5t-41 121.5t-35 128t-24.5 110
t-9 67.5zM214 708q6 33 24 73t43.5 77t55.5 66t59 41q15 0 39 -23.5t46 -55.5t38 -64t16 -49q0 -10 -6 -16t-14 -9t-18 -4t-17 -1q-21 0 -34 13t-21.5 31.5t-15 39.5t-15.5 37q-1 0 -2.5 0.5t-2.5 0.5q-14 0 -23.5 -12.5t-18 -32t-17 -41.5t-19 -41.5t-24 -32t-33.5 -12.5
h-10t-13.5 1.5t-11.5 4.5t-5 9z" />
    <glyph glyph-name="wdieresis" unicode="&#x1e85;" horiz-adv-x="830" 
d="M16 550q0 10 7.5 15.5t17.5 6.5t20 -1.5t15 -9.5q11 -43 22.5 -106.5t26.5 -129t35 -124.5t47 -94q39 38 55 88t22.5 105t9 111.5t13.5 107.5q2 19 7.5 31t28.5 12q13 4 28 -16.5t32 -55.5t36 -81l40 -93t44 -90.5t48 -73.5q16 39 24.5 78t14.5 78l12.5 77.5t19 76
t33.5 74t57 71.5q18 13 34.5 18.5t28 4t17 -9.5t1.5 -21q-63 -62 -98 -132t-50.5 -145.5t-16.5 -154.5t3 -158q-6 -10 -15 -12t-19 1t-19.5 8.5t-16.5 10.5l-223 393q-5 -50 -10 -109t-19.5 -116t-42.5 -107t-79 -81q-18 0 -39 35.5t-42.5 90.5t-41 121.5t-35 128t-24.5 110
t-9 67.5zM180 764q0 17 12 26.5t29 9.5q10 0 21 -6t20 -15t14.5 -19.5t5.5 -19.5q0 -12 -2.5 -27.5t-17.5 -15.5q-12 0 -26.5 5.5t-27 15t-20.5 21.5t-8 25zM364 764q0 17 12 26.5t29 9.5q10 0 21 -6t20 -15t14.5 -19.5t5.5 -19.5q0 -12 -2.5 -27.5t-17.5 -15.5
q-12 0 -26.5 5.5t-27 15t-20.5 21.5t-8 25z" />
    <glyph glyph-name="wgrave" unicode="&#x1e81;" horiz-adv-x="830" 
d="M16 550q0 10 7.5 15.5t17.5 6.5t20 -1.5t15 -9.5q11 -43 22.5 -106.5t26.5 -129t35 -124.5t47 -94q39 38 55 88t22.5 105t9 111.5t13.5 107.5q2 19 7.5 31t28.5 12q13 4 28 -16.5t32 -55.5t36 -81l40 -93t44 -90.5t48 -73.5q16 39 24.5 78t14.5 78l12.5 77.5t19 76
t33.5 74t57 71.5q18 13 34.5 18.5t28 4t17 -9.5t1.5 -21q-63 -62 -98 -132t-50.5 -145.5t-16.5 -154.5t3 -158q-6 -10 -15 -12t-19 1t-19.5 8.5t-16.5 10.5l-223 393q-5 -50 -10 -109t-19.5 -116t-42.5 -107t-79 -81q-18 0 -39 35.5t-42.5 90.5t-41 121.5t-35 128t-24.5 110
t-9 67.5zM263 808q0 18 5.5 27.5t25.5 9.5q7 -12 20.5 -24.5l28 -26l27.5 -26.5t18.5 -25.5t0.5 -23.5t-26 -19q-16 19 -30 29.5t-26 20.5t-23 22.5t-21 35.5z" />
    <glyph glyph-name="yacute" unicode="&#xfd;" horiz-adv-x="498" 
d="M318 -562q-19 -21 -36 -24t-28.5 6.5t-16.5 27t-1 36.5l23 110t17 84.5l12.5 68.5t9 61.5t6 64t4.5 75.5q-13 18 -38.5 57l-57 89l-65.5 105l-63.5 105l-52.5 88.5t-31 56.5q0 6 4.5 14.5t10.5 16t13 12.5t12 4l81.5 -130.5l76 -124l69 -106.5t61.5 -77q13 54 25 122.5
t21 141.5t16 144.5t12 130.5q38 0 53 -15t17 -58q-9 -95 -23.5 -200t-34.5 -234l-44 -288.5zM349 725q-11 -22 -23 -34.5t-25 -22l-28 -20t-33 -28.5q-23 8 -28 18.5t0.5 22.5t20 25l30 26l30.5 25.5t22 23.5q22 0 28 -9.5t6 -26.5z" />
    <glyph glyph-name="ycircumflex" unicode="&#x177;" horiz-adv-x="498" 
d="M318 -562q-19 -21 -36 -24t-28.5 6.5t-16.5 27t-1 36.5l23 110t17 84.5l12.5 68.5t9 61.5t6 64t4.5 75.5q-13 18 -38.5 57l-57 89l-65.5 105l-63.5 105l-52.5 88.5t-31 56.5q0 6 4.5 14.5t10.5 16t13 12.5t12 4l81.5 -130.5l76 -124l69 -106.5t61.5 -77q13 54 25 122.5
t21 141.5t16 144.5t12 130.5q38 0 53 -15t17 -58q-9 -95 -23.5 -200t-34.5 -234l-44 -288.5zM88 632q6 33 24 73t43.5 77t55.5 66t59 41q15 0 39 -23.5t46 -55.5t38 -64t16 -49q0 -10 -6 -16t-14 -9t-18 -4t-17 -1q-21 0 -34 13t-21.5 31.5t-15 39.5t-15.5 37q-1 0 -2.5 0.5
t-2.5 0.5q-14 0 -23.5 -12.5t-18 -32t-17 -41.5t-19 -41.5t-24 -32t-33.5 -12.5h-10t-13.5 1.5t-11.5 4.5t-5 9z" />
    <glyph glyph-name="ydieresis" unicode="&#xff;" horiz-adv-x="498" 
d="M318 -562q-19 -21 -36 -24t-28.5 6.5t-16.5 27t-1 36.5l23 110t17 84.5l12.5 68.5t9 61.5t6 64t4.5 75.5q-13 18 -38.5 57l-57 89l-65.5 105l-63.5 105l-52.5 88.5t-31 56.5q0 6 4.5 14.5t10.5 16t13 12.5t12 4l81.5 -130.5l76 -124l69 -106.5t61.5 -77q13 54 25 122.5
t21 141.5t16 144.5t12 130.5q38 0 53 -15t17 -58q-9 -95 -23.5 -200t-34.5 -234l-44 -288.5zM58 728q0 17 12 26.5t29 9.5q10 0 21 -6t20 -15t14.5 -19.5t5.5 -19.5q0 -12 -2.5 -27.5t-17.5 -15.5q-12 0 -26.5 5.5t-27 15t-20.5 21.5t-8 25zM242 728q0 17 12 26.5t29 9.5
q10 0 21 -6t20 -15t14.5 -19.5t5.5 -19.5q0 -12 -2.5 -27.5t-17.5 -15.5q-12 0 -26.5 5.5t-27 15t-20.5 21.5t-8 25z" />
    <glyph glyph-name="ygrave" unicode="&#x1ef3;" horiz-adv-x="498" 
d="M318 -562q-19 -21 -36 -24t-28.5 6.5t-16.5 27t-1 36.5l23 110t17 84.5l12.5 68.5t9 61.5t6 64t4.5 75.5q-13 18 -38.5 57l-57 89l-65.5 105l-63.5 105l-52.5 88.5t-31 56.5q0 6 4.5 14.5t10.5 16t13 12.5t12 4l81.5 -130.5l76 -124l69 -106.5t61.5 -77q13 54 25 122.5
t21 141.5t16 144.5t12 130.5q38 0 53 -15t17 -58q-9 -95 -23.5 -200t-34.5 -234l-44 -288.5zM157 728q0 18 5.5 27.5t25.5 9.5q7 -12 20.5 -24.5l28 -26l27.5 -26.5t18.5 -25.5t0.5 -23.5t-26 -19q-16 19 -30 29.5t-26 20.5t-23 22.5t-21 35.5z" />
    <glyph glyph-name="zacute" unicode="&#x17a;" 
d="M28 74q0 36 25 74t63 77t82 77t82 74.5t63 69.5t25 62q-76 9 -150.5 6t-146.5 -17q-18 0 -29 8.5t-14.5 19t-1 20.5t11.5 13l64 11.5t58.5 10t57 7t59.5 2.5q21 0 48.5 -0.5t53 -7.5t43 -23.5t17.5 -47.5q-7 -44 -29.5 -80t-54 -67.5t-67.5 -61.5l-70.5 -61.5t-63 -68
t-44.5 -81.5q10 -4 20.5 -5.5t27 0.5t42 8t65.5 17.5l97.5 28.5l137.5 41q44 0 55 -9t-2 -23t-46 -32t-77 -36l-75 -27t-79.5 -26t-81.5 -19.5t-80 -7.5q-15 0 -30.5 5.5t-27.5 15.5t-20 23.5t-8 29.5zM358 725q-11 -22 -23 -34.5t-25 -22l-28 -20t-33 -28.5q-23 8 -28 18.5
t0.5 22.5t20 25l30 26l30.5 25.5t22 23.5q22 0 28 -9.5t6 -26.5z" />
    <glyph glyph-name="zcaron" unicode="&#x17e;" 
d="M28 74q0 36 25 74t63 77t82 77t82 74.5t63 69.5t25 62q-76 9 -150.5 6t-146.5 -17q-18 0 -29 8.5t-14.5 19t-1 20.5t11.5 13l64 11.5t58.5 10t57 7t59.5 2.5q21 0 48.5 -0.5t53 -7.5t43 -23.5t17.5 -47.5q-7 -44 -29.5 -80t-54 -67.5t-67.5 -61.5l-70.5 -61.5t-63 -68
t-44.5 -81.5q10 -4 20.5 -5.5t27 0.5t42 8t65.5 17.5l97.5 28.5l137.5 41q44 0 55 -9t-2 -23t-46 -32t-77 -36l-75 -27t-79.5 -26t-81.5 -19.5t-80 -7.5q-15 0 -30.5 5.5t-27.5 15.5t-20 23.5t-8 29.5zM162 880l96 -120q14 30 22 50t17 36.5t22.5 32t40.5 34.5q15 0 21.5 -5
t8.5 -13t1 -19.5t-1 -23.5q-31 -16 -42.5 -37t-17.5 -45.5t-14 -52.5t-30 -57q-16 0 -43 23t-55.5 52.5t-52 57.5t-31.5 39z" />
    </font>
</defs>
</svg>
