<?xml version="1.0" encoding="utf-8"?>
<!-- Generator: Adobe Illustrator 26.1.0, SVG Export Plug-In . SVG Version: 6.00 Build 0)  -->
<svg version="1.1" id="Layer_1" xmlns="http://www.w3.org/2000/svg" xmlns:xlink="http://www.w3.org/1999/xlink" x="0px" y="0px"
	 viewBox="0 0 183 50" style="enable-background:new 0 0 183 50;" xml:space="preserve">
<style type="text/css">
	.st0{enable-background:new    ;}
	.st1{fill:#FFFFFF;}
	.st2{clip-path:url(#SVGID_00000140710980101521585330000006612668756629905288_);}
	.st3{fill:url(#SVGID_00000083810086330641415450000002602447650580399776_);}
	.st4{clip-path:url(#SVGID_00000170262976363613591930000016647170672781096333_);}
	.st5{fill:url(#SVGID_00000001642770795195454420000017626883220507637888_);}
	.st6{clip-path:url(#SVGID_00000049932417124138463410000001548990797443200940_);}
	.st7{fill:url(#SVGID_00000179628024563794013960000000759407290875983263_);}
	.st8{clip-path:url(#SVGID_00000155826461574464323820000000350722224841702288_);}
	.st9{fill:url(#SVGID_00000169519431438439315810000014943976010290905003_);}
	.st10{clip-path:url(#SVGID_00000072271003912133378740000003146373335801723294_);}
	.st11{fill:url(#SVGID_00000121267379570534589040000010397642351090165681_);}
	.st12{clip-path:url(#SVGID_00000009592153814199517720000014725116083175593659_);}
	.st13{fill:url(#SVGID_00000038388023668882685000000005194030607568164021_);}
	.st14{clip-path:url(#SVGID_00000098195920171661461270000009695831119561552831_);}
	.st15{fill:url(#SVGID_00000082348812773324147940000009387016043017634715_);}
</style>
<g transform="translate(-179 -60)">
	<g class="st0">
		<path class="st1" d="M261.1,84.5c0,3-0.9,5.6-2.8,7.8l2.4,2.5l-3.2,2.9l-2.5-2.6c-1.8,1-3.7,1.5-5.8,1.5c-3.3,0-6.1-1.2-8.5-3.5
			c-2.3-2.3-3.5-5.2-3.5-8.5s1.2-6.2,3.5-8.5c2.3-2.3,5.2-3.5,8.5-3.5c3.3,0,6.2,1.2,8.5,3.5C259.9,78.2,261.1,81.1,261.1,84.5z
			 M249.1,92c0.9,0,1.7-0.1,2.6-0.4l-3.8-4l3.2-2.9l4,4.2c0.9-1.3,1.4-2.8,1.4-4.5c0-2.2-0.7-4-2.1-5.4c-1.4-1.4-3.2-2.1-5.3-2.1
			c-2.1,0-3.9,0.7-5.3,2.1c-1.4,1.4-2.1,3.2-2.1,5.4c0,2.2,0.7,4,2.1,5.4C245.2,91.3,247,92,249.1,92z"/>
		<path class="st1" d="M275,96.5c-2.6,0-4.7-0.7-6.3-2.2c-1.6-1.5-2.5-3.4-2.5-5.8V72.9h4.5v15.2c0,1.2,0.3,2.2,1,2.9
			c0.7,0.7,1.8,1.1,3.2,1.1s2.6-0.4,3.3-1.1c0.7-0.7,1-1.7,1-2.9V72.9h4.6v15.5c0,2.4-0.8,4.4-2.5,5.8S277.6,96.5,275,96.5z"/>
		<path class="st1" d="M290,72.9h4.6V96H290V72.9z"/>
		<path class="st1" d="M314.1,72.9h4.6V96h-3.5l-9.9-14.1V96h-4.6V72.9h3.5l9.9,14.1V72.9z"/>
		<path class="st1" d="M340.2,72.9v4.4H334V96h-4.6V77.3h-6.2v-4.4H340.2z"/>
	</g>
	<g transform="translate(179 68)">
		<g>
			<g>
				<defs>
					<polygon id="SVGID_1_" points="0,0 0,4.7 0,4.7 0,28 0,28 0,32.7 23.4,32.7 23.4,28 4.7,28 4.7,4.7 28,4.7 28,42 42,42 
						42,37.4 32.7,37.4 32.7,0 					"/>
				</defs>
				<clipPath id="SVGID_00000107571440218520803850000002889261034782400929_">
					<use xlink:href="#SVGID_1_"  style="overflow:visible;"/>
				</clipPath>
				<g style="clip-path:url(#SVGID_00000107571440218520803850000002889261034782400929_);">
					
						<linearGradient id="SVGID_00000026121725488258992090000012174718627896406708_" gradientUnits="userSpaceOnUse" x1="-126.9048" y1="-395.1757" x2="-126.9008" y2="-395.1757" gradientTransform="matrix(42 0 0 42 5330 16618.3809)">
						<stop  offset="0" style="stop-color:#78F0CA"/>
						<stop  offset="1" style="stop-color:#78F0CA"/>
					</linearGradient>
					<rect style="fill:url(#SVGID_00000026121725488258992090000012174718627896406708_);" width="42" height="42"/>
				</g>
			</g>
		</g>
		<g transform="translate(4.672 4.672)">
			<g>
				<g>
					<defs>
						<polygon id="SVGID_00000026135923443246844880000009918744621387590056_" points="0,23.4 1,22.3 9.6,15.1 9.6,6.4 0,0 						
							"/>
					</defs>
					<clipPath id="SVGID_00000044886942810297436060000016490414605526456963_">
						<use xlink:href="#SVGID_00000026135923443246844880000009918744621387590056_"  style="overflow:visible;"/>
					</clipPath>
					<g style="clip-path:url(#SVGID_00000044886942810297436060000016490414605526456963_);">
						
							<linearGradient id="SVGID_00000110435516600210474540000017675064200025295545_" gradientUnits="userSpaceOnUse" x1="-126.3481" y1="-387.8209" x2="-126.3311" y2="-387.8209" gradientTransform="matrix(9.644 0 0 23.358 1213.8336 9070.4199)">
							<stop  offset="0" style="stop-color:#4A998A"/>
							<stop  offset="5.000000e-03" style="stop-color:#4A998A"/>
							<stop  offset="0.561" style="stop-color:#78F0CA"/>
							<stop  offset="1" style="stop-color:#4B9B8C"/>
						</linearGradient>
						
							<rect x="0" y="0" style="fill:url(#SVGID_00000110435516600210474540000017675064200025295545_);" width="9.6" height="23.4"/>
					</g>
				</g>
			</g>
		</g>
		<g transform="translate(4.672 4.672)">
			<g>
				<g>
					<defs>
						<polygon id="SVGID_00000092436328781377667550000012614898702568471691_" points="0,0 1,0.6 22.1,0.7 23.4,0 						"/>
					</defs>
					<clipPath id="SVGID_00000004525653629149761030000011968536924673740677_">
						<use xlink:href="#SVGID_00000092436328781377667550000012614898702568471691_"  style="overflow:visible;"/>
					</clipPath>
					<g style="clip-path:url(#SVGID_00000004525653629149761030000011968536924673740677_);">
						
							<linearGradient id="SVGID_00000144314924216747043050000017443601389500607625_" gradientUnits="userSpaceOnUse" x1="-133.9825" y1="161.4112" x2="-133.9755" y2="161.4112" gradientTransform="matrix(23.375 0 0 0.684 3127.166 -110.0553)">
							<stop  offset="0" style="stop-color:#4A998A"/>
							<stop  offset="5.000000e-03" style="stop-color:#4A998A"/>
							<stop  offset="0.561" style="stop-color:#78F0CA"/>
							<stop  offset="1" style="stop-color:#4B9B8C"/>
						</linearGradient>
						
							<rect x="0" y="0" style="fill:url(#SVGID_00000144314924216747043050000017443601389500607625_);" width="23.4" height="0.7"/>
					</g>
				</g>
			</g>
		</g>
		<g transform="translate(4.672 4.672)">
			<g>
				<g>
					<defs>
						<polygon id="SVGID_00000120523096693890252060000018334375017223842220_" points="0,23.4 1,22.3 1,0.6 0,0 						"/>
					</defs>
					<clipPath id="SVGID_00000173158322633462616200000003118247784459576224_">
						<use xlink:href="#SVGID_00000120523096693890252060000018334375017223842220_"  style="overflow:visible;"/>
					</clipPath>
					<g style="clip-path:url(#SVGID_00000173158322633462616200000003118247784459576224_);">
						
							<linearGradient id="SVGID_00000009563885293349953420000003795759997715094463_" gradientUnits="userSpaceOnUse" x1="-9.6064" y1="-387.8209" x2="-9.4284" y2="-387.8209" gradientTransform="matrix(0.966 0 0 23.358 4.6064 9070.4199)">
							<stop  offset="0" style="stop-color:#4A998A"/>
							<stop  offset="5.000000e-03" style="stop-color:#4A998A"/>
							<stop  offset="0.561" style="stop-color:#78F0CA"/>
							<stop  offset="1" style="stop-color:#4B9B8C"/>
						</linearGradient>
						<rect x="0" y="0" style="fill:url(#SVGID_00000009563885293349953420000003795759997715094463_);" width="1" height="23.4"/>
					</g>
				</g>
			</g>
		</g>
		<g transform="translate(4.672 26.956)">
			<g>
				<g>
					<defs>
						<polygon id="SVGID_00000123399372332632376630000000078358574946999715_" points="1,0 0,1.1 18.7,1.1 17.6,0 						"/>
					</defs>
					<clipPath id="SVGID_00000036961206771464473120000016263295753771265440_">
						<use xlink:href="#SVGID_00000123399372332632376630000000078358574946999715_"  style="overflow:visible;"/>
					</clipPath>
					<g style="clip-path:url(#SVGID_00000036961206771464473120000016263295753771265440_);">
						
							<linearGradient id="SVGID_00000050629326660926830310000009305736652125298330_" gradientUnits="userSpaceOnUse" x1="-442.2303" y1="-397.1696" x2="-442.0993" y2="-397.1696" gradientTransform="matrix(1.710800e-02 -1.316 18.699 0.2431 7443.4082 -470.8792)">
							<stop  offset="0" style="stop-color:#4A998A"/>
							<stop  offset="5.000000e-03" style="stop-color:#4A998A"/>
							<stop  offset="0.561" style="stop-color:#78F0CA"/>
							<stop  offset="1" style="stop-color:#4B9B8C"/>
						</linearGradient>
						<polygon style="fill:url(#SVGID_00000050629326660926830310000009305736652125298330_);" points="0,1.1 0,-0.2 18.7,0 
							18.7,1.3 						"/>
					</g>
				</g>
			</g>
		</g>
		<g transform="translate(26.796 4.672)">
			<g>
				<g>
					<defs>
						<polygon id="SVGID_00000165229749165181523650000005203816138811203981_" points="0,0.7 0,36.5 1.2,37.4 1.2,0 						"/>
					</defs>
					<clipPath id="SVGID_00000095329277734053439250000001274309436649502858_">
						<use xlink:href="#SVGID_00000165229749165181523650000005203816138811203981_"  style="overflow:visible;"/>
					</clipPath>
					<g style="clip-path:url(#SVGID_00000095329277734053439250000001274309436649502858_);">
						
							<linearGradient id="SVGID_00000012448821137081145490000012557172392095354544_" gradientUnits="userSpaceOnUse" x1="-99.8861" y1="-394.0346" x2="-99.7461" y2="-394.0346" gradientTransform="matrix(1.233 0 0 37.373 96.369 14744.9551)">
							<stop  offset="0" style="stop-color:#4A998A"/>
							<stop  offset="5.000000e-03" style="stop-color:#4A998A"/>
							<stop  offset="0.561" style="stop-color:#78F0CA"/>
							<stop  offset="1" style="stop-color:#4B9B8C"/>
						</linearGradient>
						
							<rect x="0" y="0" style="fill:url(#SVGID_00000012448821137081145490000012557172392095354544_);" width="1.2" height="37.4"/>
					</g>
				</g>
			</g>
		</g>
		<g transform="translate(32.676 36.285)">
			<g>
				<g>
					<defs>
						<polygon id="SVGID_00000048460077432135614590000000848301275545561499_" points="0,0 0,1.1 9.4,1.1 8.2,0 						"/>
					</defs>
					<clipPath id="SVGID_00000050659869445390344200000001121314832810805914_">
						<use xlink:href="#SVGID_00000048460077432135614590000000848301275545561499_"  style="overflow:visible;"/>
					</clipPath>
					<g style="clip-path:url(#SVGID_00000050659869445390344200000001121314832810805914_);">
						
							<linearGradient id="SVGID_00000017477448151244028830000015340116525728395927_" gradientUnits="userSpaceOnUse" x1="-184.9645" y1="-48.3582" x2="-184.9454" y2="-48.3582" gradientTransform="matrix(9.369 0 0 1.087 1700.2529 53.1154)">
							<stop  offset="0" style="stop-color:#4A998A"/>
							<stop  offset="5.000000e-03" style="stop-color:#4A998A"/>
							<stop  offset="0.561" style="stop-color:#78F0CA"/>
							<stop  offset="1" style="stop-color:#4B9B8C"/>
						</linearGradient>
						<rect x="0" y="0" style="fill:url(#SVGID_00000017477448151244028830000015340116525728395927_);" width="9.4" height="1.1"/>
					</g>
				</g>
			</g>
		</g>
	</g>
</g>
</svg>
