<svg width="16" height="16" viewBox="0 0 16 16" fill="none" xmlns="http://www.w3.org/2000/svg">
<path d="M4.64592 1.646C4.69236 1.59944 4.74754 1.5625 4.80828 1.53729C4.86903 1.51208 4.93415 1.49911 4.99992 1.49911C5.06568 1.49911 5.13081 1.51208 5.19155 1.53729C5.2523 1.5625 5.30747 1.59944 5.35392 1.646L11.3539 7.646C11.4005 7.69245 11.4374 7.74762 11.4626 7.80837C11.4878 7.86911 11.5008 7.93423 11.5008 8C11.5008 8.06577 11.4878 8.13089 11.4626 8.19163C11.4374 8.25238 11.4005 8.30756 11.3539 8.354L5.35392 14.354C5.26003 14.4479 5.13269 14.5006 4.99992 14.5006C4.86714 14.5006 4.7398 14.4479 4.64592 14.354C4.55203 14.2601 4.49929 14.1328 4.49929 14C4.49929 13.8672 4.55203 13.7399 4.64592 13.646L10.2929 8L4.64592 2.354C4.59935 2.30756 4.56241 2.25238 4.5372 2.19163C4.512 2.13089 4.49902 2.06577 4.49902 2C4.49902 1.93423 4.512 1.86911 4.5372 1.80837C4.56241 1.74762 4.59935 1.69245 4.64592 1.646V1.646Z" fill="black"/>
</svg>
