<svg width="16" height="16" viewBox="0 0 16 16" fill="none" xmlns="http://www.w3.org/2000/svg">
<path d="M11.3539 1.646C11.4005 1.69245 11.4374 1.74762 11.4626 1.80837C11.4878 1.86911 11.5008 1.93423 11.5008 2C11.5008 2.06577 11.4878 2.13089 11.4626 2.19163C11.4374 2.25238 11.4005 2.30756 11.3539 2.354L5.70692 8L11.3539 13.646C11.4478 13.7399 11.5005 13.8672 11.5005 14C11.5005 14.1328 11.4478 14.2601 11.3539 14.354C11.26 14.4479 11.1327 14.5006 10.9999 14.5006C10.8671 14.5006 10.7398 14.4479 10.6459 14.354L4.64592 8.354C4.59935 8.30756 4.56241 8.25238 4.5372 8.19163C4.512 8.13089 4.49902 8.06577 4.49902 8C4.49902 7.93423 4.512 7.86911 4.5372 7.80837C4.56241 7.74762 4.59935 7.69245 4.64592 7.646L10.6459 1.646C10.6924 1.59944 10.7475 1.5625 10.8083 1.53729C10.869 1.51208 10.9341 1.49911 10.9999 1.49911C11.0657 1.49911 11.1308 1.51208 11.1916 1.53729C11.2523 1.5625 11.3075 1.59944 11.3539 1.646V1.646Z" fill="black"/>
</svg>
