<svg xmlns="http://www.w3.org/2000/svg" width="59" height="48" viewBox="0 0 59 48"><g fill="#FFFFFF"><path d="M57.538,30.501 L57.538,36.933 C57.538,37.584 57.008,38.114 56.356,38.114 L2.598,38.114 C1.947,38.114 1.417,37.584 1.417,36.933 L1.417,3.597 C1.417,2.946 1.947,2.416 2.598,2.416 L56.356,2.416 C57.008,2.416 57.538,2.946 57.538,3.597 L57.538,30.501 Z M39.366,46.583 L19.588,46.583 L23.41,39.531 L35.545,39.531 L39.366,46.583 Z M2.598,0.999 C1.165,0.999 0,2.164 0,3.597 L0,36.933 C0,38.366 1.165,39.531 2.598,39.531 L21.798,39.531 L17.977,46.583 L13.814,46.583 L13.814,48 L45.2,48 L45.2,46.583 L40.978,46.583 L37.156,39.531 L56.356,39.531 C57.79,39.531 58.955,38.366 58.955,36.933 L58.955,3.597 C58.955,2.164 57.79,0.999 56.356,0.999 L2.598,0.999 Z"/><polyline points="44.099 6.928 44.099 8.146 46.342 8.146 31.456 23.032 22.588 14.164 11.356 25.396 12.218 26.257 15.181 23.294 15.181 33.253 16.641 33.253 16.641 21.834 20.295 18.18 20.295 33.253 21.755 33.253 21.755 16.72 22.588 15.887 25.41 18.708 25.41 33.253 26.87 33.253 26.87 20.169 30.524 23.823 30.524 33.253 31.984 33.253 31.984 24.226 36.369 19.841 36.369 33.253 37.829 33.253 37.829 18.381 41.483 14.727 41.483 33.253 42.944 33.253 42.944 13.352 42.859 13.352 47.184 9.027 47.184 11.393 48.402 11.393 48.402 6.928 44.099 6.928"/><polygon points="4.938 6.907 6.398 6.907 6.398 5.447 4.938 5.447"/><polygon points="8.592 6.907 10.052 6.907 10.052 5.447 8.592 5.447"/><polygon points="12.245 6.907 13.705 6.907 13.705 5.447 12.245 5.447"/><polygon points=".914 33.824 57.538 33.824 57.538 32.578 .914 32.578"/></g></svg>