<svg xmlns="http://www.w3.org/2000/svg" width="58" height="53" viewBox="0 0 58 53"><g fill="#FFFFFF" fill-rule="evenodd"><path d="M20.291,19.138 L20.286,18.803 L20.03,18.585 C19.418,18.066 17.839,16.424 17.867,15.08 C17.882,14.358 18.079,14.357 18.166,14.356 C18.518,14.351 18.85,14.196 19.078,13.933 C19.302,13.673 19.405,13.33 19.359,12.988 C19.301,12.567 19.277,12.18 19.284,11.836 C19.289,11.572 19.277,11.247 19.263,10.883 C19.157,8.183 19.278,5.937 21.853,5.789 L22.448,5.755 L22.543,5.166 C22.548,5.139 23.037,2.405 27.295,2.403 C28.423,2.467 31.666,2.784 33.084,3.478 C33.171,3.526 33.641,3.768 34.388,3.768 C34.689,3.768 35.072,3.727 35.513,3.59 C35.362,3.839 35.157,4.124 34.876,4.44 L33.954,5.495 L35.352,5.67 C35.443,5.681 37.568,5.99 37.379,9.803 L37.061,13.087 C37.033,13.37 37.126,13.655 37.318,13.868 C37.508,14.079 37.779,14.199 38.06,14.199 L38.304,14.17 C38.369,14.153 38.431,14.145 38.483,14.145 C38.695,14.145 38.748,14.547 38.755,14.884 C38.784,16.222 37.204,17.868 36.593,18.389 L36.332,18.612 L36.332,18.954 C36.332,24.327 32.959,28.899 28.311,28.899 C23.753,28.899 20.38,24.404 20.291,19.138 Z M3.524,52.25 L5.383,42.322 C5.849,39.835 7.742,37.858 10.207,37.286 L18.679,35.32 L20.001,34.52 L23.257,28.857 C24.699,29.829 26.415,30.383 28.311,30.383 C30.24,30.383 31.977,29.819 33.428,28.831 L36.685,34.285 L38.008,35.081 L47.404,37.283 C49.854,37.857 51.741,39.825 52.211,42.297 L54.109,52.25 L55.618,52.25 L53.668,42.019 C53.089,38.972 50.763,36.546 47.742,35.837 L37.975,33.549 L34.602,27.877 C36.537,26.014 37.737,22.568 37.813,19.289 C38.516,18.633 40.28,16.788 40.238,14.853 C40.2,12.979 39.081,12.697 38.592,12.664 L38.859,9.91 C39.025,6.571 37.673,5.172 36.634,4.592 C37.613,3.131 37.409,2.163 37.349,1.958 L37.046,0.936 L36.193,1.576 C35.575,2.039 34.951,2.283 34.388,2.283 C34.018,2.283 33.803,2.179 33.773,2.163 C31.754,1.176 27.556,0.932 27.337,0.921 C23.083,0.921 21.677,3.253 21.249,4.36 C20.71,4.441 20.262,4.602 19.874,4.813 L18.749,5.787 C18.014,6.787 17.804,8.13 17.763,9.318 C17.803,11.459 17.701,12.172 17.701,12.172 C17.748,12.284 17.791,12.399 17.834,12.514 C17.843,12.645 17.837,12.763 17.853,12.899 C17.31,12.996 16.418,13.407 16.383,15.049 C16.356,16.386 17.187,17.669 17.937,18.558 C18.641,19.096 18.878,20.257 18.878,20.257 C19.02,21.733 19.394,23.764 19.966,24.966 L20.754,26.339 C21.146,26.915 21.588,27.44 22.077,27.906 L18.707,33.79 L9.872,35.841 C6.833,36.546 4.498,38.983 3.924,42.05 L2.014,52.25 L3.524,52.25 L3.524,52.25 Z"/><polyline points="34.061 52.429 32.768 52.071 36.86 34.345 38.153 34.702 34.061 52.429"/><polyline points="22.623 52.429 18.531 34.702 19.824 34.345 23.916 52.071 22.623 52.429"/><g transform="translate(0 30)"><path d="M29.514,11.235 L27.113,11.235 L26.046,7.881 L30.58,7.881 L29.514,11.235 Z M36.405,1.095 L35.254,0.404 L31.659,6.397 L25.352,6.397 L21.757,0.404 L20.607,1.095 L24.078,6.881 C24.002,7.086 24.013,7.314 24.123,7.507 L25.917,12.135 L24.022,22.25 L25.512,22.25 L27.355,12.719 L29.269,12.719 L31.111,22.25 L32.601,22.25 L30.705,12.141 L32.503,7.507 C32.533,7.456 32.553,7.401 32.569,7.347 L32.631,7.385 L36.405,1.095 L36.405,1.095 Z"/><polygon points=".06 22.94 57.632 22.94 57.632 21.5 .06 21.5"/></g></g></svg>