<svg width="18" height="18" viewBox="0 0 18 18" fill="none" xmlns="http://www.w3.org/2000/svg">
<path d="M16.9524 16.6746H9.60864V11.784C9.86779 11.6437 10.0844 11.4361 10.2356 11.1832C10.3868 10.9302 10.4671 10.6412 10.468 10.3465C10.4666 10.2571 10.4561 10.1681 10.4368 10.0809C10.4813 10.1589 10.5337 10.2322 10.593 10.2996C10.9017 10.6083 11.3205 10.7818 11.7571 10.7818C12.1937 10.7818 12.6124 10.6083 12.9211 10.2996C13.2299 9.99089 13.4033 9.57217 13.4033 9.13556C13.4033 8.69895 13.2299 8.28022 12.9211 7.9715C12.8537 7.91215 12.7804 7.8598 12.7024 7.81525C12.7897 7.83457 12.8786 7.84504 12.968 7.8465C13.4031 7.8465 13.8204 7.67365 14.1281 7.36597C14.4358 7.05829 14.6086 6.64099 14.6086 6.20587C14.6086 5.77075 14.4358 5.35345 14.1281 5.04577C13.8204 4.7381 13.4031 4.56525 12.968 4.56525C12.8786 4.5667 12.7897 4.57717 12.7024 4.5965C12.7804 4.55195 12.8537 4.49959 12.9211 4.44025C13.074 4.28738 13.1953 4.1059 13.278 3.90617C13.3607 3.70644 13.4033 3.49237 13.4033 3.27618C13.4033 3.06 13.3607 2.84593 13.278 2.6462C13.1953 2.44647 13.074 2.26499 12.9211 2.11212C12.7683 1.95925 12.5868 1.83799 12.3871 1.75526C12.1873 1.67253 11.9733 1.62995 11.7571 1.62995C11.5409 1.62995 11.3268 1.67253 11.1271 1.75526C10.9274 1.83799 10.7459 1.95925 10.593 2.11212C10.5337 2.17957 10.4813 2.25286 10.4368 2.33087C10.4561 2.24361 10.4666 2.15461 10.468 2.06525C10.468 1.63013 10.2952 1.21283 9.98749 0.905149C9.67981 0.597473 9.26251 0.424622 8.82739 0.424622C8.39227 0.424622 7.97497 0.597473 7.6673 0.905149C7.35962 1.21283 7.18677 1.63013 7.18677 2.06525C7.18822 2.15461 7.19869 2.24361 7.21802 2.33087C7.17347 2.25286 7.12112 2.17957 7.06177 2.11212C6.75304 1.80339 6.33431 1.62995 5.89771 1.62995C5.4611 1.62995 5.04237 1.80339 4.73364 2.11212C4.42491 2.42085 4.25147 2.83958 4.25147 3.27618C4.25147 3.71279 4.42491 4.13152 4.73364 4.44025C4.80109 4.49959 4.87438 4.55195 4.95239 4.5965C4.86513 4.57717 4.77614 4.5667 4.68677 4.56525C4.25165 4.56525 3.83435 4.7381 3.52667 5.04577C3.21899 5.35345 3.04614 5.77075 3.04614 6.20587C3.04614 6.64099 3.21899 7.05829 3.52667 7.36597C3.83435 7.67365 4.25165 7.8465 4.68677 7.8465C4.77614 7.84504 4.86513 7.83457 4.95239 7.81525C4.87438 7.8598 4.80109 7.91215 4.73364 7.9715C4.42491 8.28022 4.25147 8.69895 4.25147 9.13556C4.25147 9.57217 4.42491 9.99089 4.73364 10.2996C5.04237 10.6083 5.4611 10.7818 5.89771 10.7818C6.33431 10.7818 6.75304 10.6083 7.06177 10.2996C7.12112 10.2322 7.17347 10.1589 7.21802 10.0809C7.19869 10.1681 7.18822 10.2571 7.18677 10.3465C7.1877 10.6412 7.26799 10.9302 7.41921 11.1832C7.57043 11.4361 7.78699 11.6437 8.04614 11.784V16.6746H0.702393C0.536632 16.6746 0.377661 16.7405 0.260451 16.8577C0.143241 16.9749 0.0773926 17.1339 0.0773926 17.2996C0.0773926 17.4654 0.143241 17.6244 0.260451 17.7416C0.377661 17.8588 0.536632 17.9246 0.702393 17.9246H16.9524C17.1182 17.9246 17.2771 17.8588 17.3943 17.7416C17.5115 17.6244 17.5774 17.4654 17.5774 17.2996C17.5774 17.1339 17.5115 16.9749 17.3943 16.8577C17.2771 16.7405 17.1182 16.6746 16.9524 16.6746ZM12.468 9.8465C12.2782 10.0326 12.0229 10.1368 11.7571 10.1368C11.4912 10.1368 11.236 10.0326 11.0461 9.8465C10.6845 9.26679 10.4157 8.63417 10.2493 7.9715C10.3859 7.87031 10.5116 7.7551 10.6243 7.62775C11.275 7.79278 11.8968 8.05623 12.468 8.409C12.5625 8.50333 12.6375 8.61536 12.6886 8.7387C12.7398 8.86203 12.7661 8.99423 12.7661 9.12775C12.7661 9.26126 12.7398 9.39347 12.6886 9.5168C12.6375 9.64013 12.5625 9.75217 12.468 9.8465ZM13.9836 6.20587C13.9836 6.47523 13.8766 6.73356 13.6862 6.92403C13.4957 7.11449 13.2374 7.2215 12.968 7.2215C12.6555 7.2215 11.9211 6.89337 11.2024 6.51837C11.2415 6.34921 11.2625 6.17636 11.2649 6.00275V5.86212C11.9524 5.50275 12.6711 5.19025 12.9836 5.19025C13.2503 5.19435 13.5046 5.30316 13.6917 5.49319C13.8788 5.68321 13.9837 5.9392 13.9836 6.20587ZM11.0461 2.56525C11.2417 2.41856 11.4837 2.34735 11.7275 2.36468C11.9714 2.38201 12.2008 2.48672 12.3737 2.65959C12.5465 2.83246 12.6513 3.06189 12.6686 3.30575C12.6859 3.54961 12.6147 3.79154 12.468 3.98712C11.9763 4.30611 11.4389 4.54847 10.8743 4.70587C10.7357 4.48135 10.5615 4.28083 10.3586 4.11212C10.5774 3.409 10.843 2.75275 11.0461 2.54962V2.56525ZM8.82739 1.04962C9.09675 1.04962 9.35508 1.15662 9.54555 1.34709C9.73601 1.53756 9.84302 1.79589 9.84302 2.06525C9.84302 2.33087 9.57739 2.9715 9.24927 3.61212C8.97043 3.56002 8.68435 3.56002 8.40552 3.61212C8.1287 3.12479 7.92845 2.5978 7.81177 2.04962C7.81587 1.78298 7.92468 1.52865 8.11471 1.34155C8.30473 1.15445 8.56072 1.04959 8.82739 1.04962ZM5.18677 2.56525C5.37662 2.37916 5.63186 2.27492 5.89771 2.27492C6.16355 2.27492 6.41879 2.37916 6.60864 2.56525C6.92956 3.03698 7.16736 3.56016 7.31177 4.11212C7.10332 4.27956 6.92384 4.48016 6.78052 4.70587C6.21416 4.55331 5.67604 4.31062 5.18677 3.98712C5.00068 3.79727 4.89644 3.54203 4.89644 3.27618C4.89644 3.01034 5.00068 2.7551 5.18677 2.56525ZM3.67114 6.20587C3.67114 5.93651 3.77815 5.67818 3.96861 5.48772C4.15908 5.29725 4.41741 5.19025 4.68677 5.19025C4.98364 5.19025 5.70239 5.50275 6.40552 5.86212V6.01837C6.40389 6.18621 6.41959 6.35376 6.45239 6.51837C5.90448 6.84411 5.30861 7.0814 4.68677 7.2215C4.41741 7.2215 4.15908 7.11449 3.96861 6.92403C3.77815 6.73356 3.67114 6.47523 3.67114 6.20587ZM6.60864 9.8465C6.41306 9.99318 6.17113 10.0644 5.92727 10.0471C5.68341 10.0297 5.45398 9.92502 5.28111 9.75215C5.10824 9.57928 5.00353 9.34985 4.9862 9.10599C4.96887 8.86213 5.04008 8.6202 5.18677 8.42462C5.40552 8.19025 6.23364 7.87775 7.03052 7.64337C7.14398 7.76527 7.26964 7.87522 7.40552 7.9715C7.24375 8.63318 6.98019 9.26572 6.62427 9.8465H6.60864ZM8.59302 8.42462H9.06177C9.45239 9.17462 9.84302 10.0184 9.84302 10.3465C9.84302 10.6159 9.73601 10.8742 9.54555 11.0647C9.35508 11.2551 9.09675 11.3621 8.82739 11.3621C8.55803 11.3621 8.2997 11.2551 8.10924 11.0647C7.91877 10.8742 7.81177 10.6159 7.81177 10.3465C7.81177 10.034 8.20239 9.19025 8.59302 8.42462ZM6.32739 15.4246C3.82739 15.4246 2.57739 14.1746 2.57739 11.6746C5.07739 11.6746 6.32739 12.9246 6.32739 15.4246ZM15.0774 11.6746C15.0774 14.1746 13.8274 15.4246 11.3274 15.4246C11.3274 12.9246 12.5774 11.6746 15.0774 11.6746Z" fill="#BDA76E"/>
</svg>
