<svg width="21" height="21" viewBox="0 0 21 21" fill="none" xmlns="http://www.w3.org/2000/svg">
<path d="M10.4873 0.174622C4.96886 0.174622 0.487305 4.65618 0.487305 10.1746C0.487305 15.6931 4.96886 20.1746 10.4873 20.1746C16.0057 20.1746 20.4873 15.6931 20.4873 10.1746C20.4873 4.65618 16.0057 0.174622 10.4873 0.174622ZM10.7361 0.918844C13.2407 0.984696 15.4954 2.04284 17.1232 3.7147C15.18 5.26507 14.0067 7.43744 13.8806 9.75203C13.614 9.75573 13.3476 9.75781 13.0811 9.75899C13.0466 7.49447 12.7306 5.40758 12.2107 3.76114C11.828 2.54921 11.3495 1.55499 10.7361 0.918844ZM9.5339 0.963807L9.53086 0.972177C10.2004 1.21314 10.9732 2.30151 11.5044 3.98403C11.9951 5.53803 12.3052 7.56055 12.3402 9.75862C11.8237 9.75625 11.3086 9.74929 10.7963 9.73736C10.5648 6.77833 7.99405 4.25796 4.34627 3.2427C5.75686 1.9924 7.55212 1.1661 9.5339 0.963807ZM3.72486 3.84736C7.34516 4.71092 9.79634 7.06684 10.0506 9.71684C6.84271 9.61233 3.78886 9.31951 1.3219 8.85455C1.5959 6.93107 2.45975 5.19914 3.72486 3.84736ZM17.6194 4.26618C18.8036 5.69447 19.5665 7.48499 19.7185 9.44833C18.0784 9.60181 16.3583 9.69766 14.6226 9.73781C14.7521 7.65203 15.8206 5.68596 17.6194 4.26618ZM1.24671 9.59433C3.76516 10.0647 6.8416 10.3579 10.0641 10.4612C9.90042 13.1802 7.42212 15.6191 3.72397 16.5008C2.17582 14.8462 1.22805 12.6223 1.22805 10.1746C1.22805 9.97966 1.23486 9.78633 1.24671 9.59433ZM19.7464 10.1898C19.7429 12.4274 18.9479 14.4774 17.626 16.0754C15.7899 14.6288 14.7131 12.6132 14.6169 10.4808C16.3615 10.4402 18.0918 10.3437 19.7464 10.1898ZM10.8053 10.4814C11.3149 10.4931 11.8274 10.4999 12.341 10.502C12.3117 12.8348 11.9735 14.9656 11.4412 16.5596C10.9089 18.1534 10.1596 19.1582 9.51264 19.3831C7.53879 19.1771 5.75079 18.352 4.34508 17.1056C8.04664 16.0758 10.6395 13.4963 10.8053 10.4814ZM13.8762 10.4949C13.9767 12.8464 15.1583 15.0571 17.1303 16.6274C15.5023 18.3031 13.2452 19.3641 10.7375 19.4304C11.3128 18.8306 11.7712 17.9103 12.1438 16.7943C12.7094 15.1005 13.0526 12.9039 13.0817 10.5022C13.3466 10.5009 13.6115 10.4987 13.8762 10.4949Z" fill="#BDA76E"/>
</svg>
