<svg width="17" height="19" viewBox="0 0 17 19" fill="none" xmlns="http://www.w3.org/2000/svg">
<path d="M12.8274 6.24341L13.5149 3.69653C13.5349 3.61623 13.5707 3.5407 13.6202 3.47433C13.6696 3.40797 13.7318 3.35209 13.803 3.30993C13.8742 3.26778 13.9531 3.24019 14.0351 3.22877C14.1171 3.21735 14.2005 3.22233 14.2805 3.24341C14.3611 3.26501 14.4366 3.30253 14.5025 3.35377C14.5684 3.40501 14.6233 3.46892 14.6641 3.54174C14.7049 3.61455 14.7306 3.6948 14.7399 3.77774C14.7492 3.86068 14.7417 3.94464 14.718 4.02466L14.3586 5.35278L15.5618 4.66528C15.6325 4.62295 15.7109 4.59502 15.7924 4.5831C15.874 4.57119 15.9571 4.57552 16.037 4.59585C16.1168 4.61618 16.1919 4.65211 16.2578 4.70157C16.3238 4.75103 16.3793 4.81304 16.4211 4.88403C16.4628 4.95569 16.4899 5.03491 16.5006 5.11711C16.5114 5.1993 16.5057 5.28282 16.4839 5.3628C16.4621 5.44278 16.4246 5.51761 16.3736 5.58296C16.3226 5.6483 16.2591 5.70284 16.1868 5.74341L14.9836 6.43091L16.3274 6.80591C16.4867 6.84976 16.6222 6.95493 16.7042 7.09841C16.7862 7.24189 16.808 7.412 16.7649 7.57153C16.721 7.73086 16.6159 7.86634 16.4724 7.94832C16.3289 8.03031 16.1588 8.05214 15.9993 8.00903L13.4524 7.32153L11.0305 8.72778C10.9589 8.76947 10.8796 8.79649 10.7974 8.80727C10.7152 8.81804 10.6317 8.81236 10.5518 8.79055C10.4718 8.76874 10.3969 8.73123 10.3316 8.68022C10.2663 8.62921 10.2117 8.5657 10.1711 8.49341C10.1295 8.42176 10.1024 8.34253 10.0917 8.26033C10.0809 8.17814 10.0866 8.09462 10.1084 8.01464C10.1302 7.93467 10.1677 7.85983 10.2187 7.79448C10.2697 7.72914 10.3332 7.6746 10.4055 7.63403L12.8274 6.24341ZM7.24927 10.9153C7.32027 10.8734 7.38228 10.8179 7.43174 10.752C7.48119 10.686 7.51712 10.611 7.53745 10.5311C7.55779 10.4512 7.56212 10.3681 7.5502 10.2866C7.53829 10.205 7.51036 10.1266 7.46802 10.0559C7.38613 9.91409 7.25184 9.81008 7.09405 9.76625C6.93626 9.72242 6.76758 9.74227 6.62427 9.82153L4.18677 11.2278L1.6399 10.5559C1.55988 10.5322 1.47592 10.5248 1.39298 10.534C1.31004 10.5433 1.22979 10.5691 1.15697 10.6098C1.08416 10.6506 1.02025 10.7056 0.969008 10.7714C0.91777 10.8373 0.880245 10.9128 0.858646 10.9934C0.835173 11.0745 0.82836 11.1595 0.83862 11.2432C0.848879 11.327 0.875997 11.4078 0.91834 11.4808C0.960682 11.5538 1.01737 11.6175 1.08499 11.668C1.15261 11.7185 1.22975 11.7548 1.31177 11.7747L2.62427 12.1184L1.4524 12.7903C1.3814 12.8322 1.31939 12.8877 1.26993 12.9536C1.22047 13.0195 1.18454 13.0946 1.16421 13.1745C1.14388 13.2543 1.13955 13.3374 1.15146 13.419C1.16338 13.5005 1.19131 13.5789 1.23365 13.6497C1.31554 13.7915 1.44982 13.8955 1.60761 13.9393C1.7654 13.9831 1.93409 13.9633 2.0774 13.884L3.29615 13.1809L2.92115 14.5559C2.90006 14.6359 2.89509 14.7194 2.90651 14.8013C2.91793 14.8833 2.94551 14.9622 2.98767 15.0334C3.02982 15.1047 3.08571 15.1668 3.15207 15.2163C3.21844 15.2657 3.29396 15.3015 3.37427 15.3215C3.45431 15.3426 3.53773 15.3476 3.61971 15.3362C3.70168 15.3248 3.78057 15.2972 3.8518 15.255C3.92303 15.2129 3.98517 15.157 4.03463 15.0906C4.08408 15.0242 4.11987 14.9487 4.1399 14.8684L4.8274 12.3059L7.24927 10.9153ZM8.2024 4.30591V7.08716C8.2024 7.25292 8.26824 7.41189 8.38545 7.5291C8.50266 7.64631 8.66164 7.71216 8.8274 7.71216C8.99316 7.71216 9.15213 7.64631 9.26934 7.5291C9.38655 7.41189 9.4524 7.25292 9.4524 7.08716V4.27466L11.3118 2.41528C11.4263 2.29845 11.4904 2.14138 11.4904 1.97778C11.4904 1.81419 11.4263 1.65711 11.3118 1.54028C11.2536 1.48123 11.1843 1.43433 11.1078 1.40232C11.0314 1.37031 10.9493 1.35383 10.8665 1.35383C10.7836 1.35383 10.7015 1.37031 10.6251 1.40232C10.5486 1.43433 10.4793 1.48123 10.4211 1.54028L9.4524 2.50903V1.14966C9.4524 0.983898 9.38655 0.824927 9.26934 0.707716C9.15213 0.590506 8.99316 0.524658 8.8274 0.524658C8.66164 0.524658 8.50266 0.590506 8.38545 0.707716C8.26824 0.824927 8.2024 0.983898 8.2024 1.14966V2.54028L7.2024 1.54028C7.08557 1.42577 6.92849 1.36162 6.7649 1.36162C6.6013 1.36162 6.44423 1.42577 6.3274 1.54028C6.26834 1.59844 6.22145 1.66776 6.18944 1.74421C6.15743 1.82066 6.14094 1.90271 6.14094 1.9856C6.14094 2.06848 6.15743 2.15053 6.18944 2.22698C6.22145 2.30343 6.26834 2.37275 6.3274 2.43091L8.2024 4.30591ZM16.7649 10.9934C16.721 10.8341 16.6159 10.6986 16.4724 10.6166C16.3289 10.5346 16.1588 10.5128 15.9993 10.5559L13.4524 11.2278L11.0305 9.82153C10.9589 9.77984 10.8796 9.75282 10.7974 9.74205C10.7152 9.73127 10.6317 9.73696 10.5518 9.75877C10.4718 9.78058 10.3969 9.81808 10.3316 9.8691C10.2663 9.92011 10.2117 9.98361 10.1711 10.0559C10.1295 10.1276 10.1024 10.2068 10.0917 10.289C10.0809 10.3712 10.0866 10.4547 10.1084 10.5347C10.1302 10.6146 10.1677 10.6895 10.2187 10.7548C10.2697 10.8202 10.3332 10.8747 10.4055 10.9153L12.8274 12.3059L13.4993 14.8684C13.5431 15.0277 13.6483 15.1632 13.7918 15.2452C13.9353 15.3272 14.1054 15.349 14.2649 15.3059C14.4242 15.2621 14.5597 15.1569 14.6417 15.0134C14.7237 14.8699 14.7455 14.6998 14.7024 14.5403L14.343 13.1809L15.5461 13.884C15.6178 13.9257 15.697 13.9527 15.7792 13.9635C15.8614 13.9743 15.9449 13.9686 16.0249 13.9468C16.1049 13.925 16.1797 13.8875 16.2451 13.8365C16.3104 13.7855 16.365 13.722 16.4055 13.6497C16.4848 13.5064 16.5046 13.3377 16.4608 13.1799C16.417 13.0221 16.313 12.8878 16.1711 12.8059L14.9836 12.1184L16.3274 11.759C16.4867 11.7152 16.6222 11.61 16.7042 11.4665C16.7862 11.3231 16.808 11.1529 16.7649 10.9934ZM9.4524 14.2434V11.4622C9.4524 11.2964 9.38655 11.1374 9.26934 11.0202C9.15213 10.903 8.99316 10.8372 8.8274 10.8372C8.66164 10.8372 8.50266 10.903 8.38545 11.0202C8.26824 11.1374 8.2024 11.2964 8.2024 11.4622V14.2747L6.34302 16.134C6.2285 16.2509 6.16436 16.4079 6.16436 16.5715C6.16436 16.7351 6.2285 16.8922 6.34302 17.009C6.40118 17.0681 6.4705 17.115 6.54695 17.147C6.6234 17.179 6.70545 17.1955 6.78833 17.1955C6.87121 17.1955 6.95327 17.179 7.02972 17.147C7.10617 17.115 7.17549 17.0681 7.23365 17.009L8.2024 16.0403V17.3997C8.2024 17.5654 8.26824 17.7244 8.38545 17.8416C8.50266 17.9588 8.66164 18.0247 8.8274 18.0247C8.99316 18.0247 9.15213 17.9588 9.26934 17.8416C9.38655 17.7244 9.4524 17.5654 9.4524 17.3997V16.009L10.4524 17.009C10.5692 17.1236 10.7263 17.1877 10.8899 17.1877C11.0535 17.1877 11.2106 17.1236 11.3274 17.009C11.3864 16.9509 11.4333 16.8816 11.4654 16.8051C11.4974 16.7287 11.5139 16.6466 11.5139 16.5637C11.5139 16.4808 11.4974 16.3988 11.4654 16.3223C11.4333 16.2459 11.3864 16.1766 11.3274 16.1184L9.4524 14.2434ZM0.889896 7.55591C0.933852 7.7118 1.03661 7.84454 1.17652 7.92616C1.31643 8.00777 1.48256 8.03188 1.6399 7.99341L4.18677 7.32153L6.60865 8.72778C6.6803 8.76947 6.75953 8.79649 6.84172 8.80727C6.92392 8.81804 7.00743 8.81236 7.08741 8.79055C7.16739 8.76874 7.24223 8.73123 7.30757 8.68022C7.37291 8.62921 7.42746 8.5657 7.46802 8.49341C7.51036 8.42269 7.53829 8.3443 7.5502 8.26274C7.56212 8.18119 7.55779 8.09808 7.53745 8.01821C7.51712 7.93833 7.48119 7.86327 7.43174 7.79734C7.38228 7.7314 7.32027 7.6759 7.24927 7.63403L4.8274 6.24341L4.15552 3.68091C4.13392 3.60029 4.0964 3.52482 4.04516 3.45895C3.99392 3.39307 3.93001 3.33812 3.85719 3.29734C3.78437 3.25657 3.70413 3.23079 3.62119 3.22152C3.53825 3.21226 3.45429 3.2197 3.37427 3.24341C3.21494 3.28726 3.07947 3.39243 2.99748 3.53591C2.91549 3.67939 2.89366 3.8495 2.93677 4.00903L3.29615 5.36841L2.09302 4.66528C1.94972 4.58602 1.78103 4.56617 1.62324 4.61C1.46545 4.65383 1.33116 4.75784 1.24927 4.89966C1.20694 4.97038 1.17901 5.04877 1.16709 5.13032C1.15517 5.21188 1.15951 5.29499 1.17984 5.37486C1.20017 5.45473 1.2361 5.5298 1.28556 5.59573C1.33502 5.66166 1.39703 5.71716 1.46802 5.75903L2.65552 6.43091L1.3274 6.79028C1.24709 6.81031 1.17156 6.8461 1.1052 6.89555C1.03883 6.94501 0.982948 7.00715 0.940794 7.07838C0.898639 7.14961 0.871051 7.2285 0.859632 7.31047C0.848212 7.39245 0.853188 7.47587 0.874271 7.55591H0.889896Z" fill="#BDA76E"/>
</svg>
