<svg width="21" height="21" viewBox="0 0 21 21" fill="none" xmlns="http://www.w3.org/2000/svg">
<path d="M13.7961 14.984C13.6081 15.4655 13.3226 15.9029 12.9575 16.2687C12.5924 16.6346 12.1556 16.9211 11.6746 17.1101C11.1935 17.2991 10.6786 17.3867 10.1621 17.3673C9.64556 17.3478 9.13865 17.2218 8.67315 16.9972C8.20766 16.7725 7.79363 16.4541 7.45705 16.0618C7.12048 15.6696 6.86863 15.212 6.71732 14.7177C6.566 14.2235 6.51849 13.7033 6.57776 13.1899C6.63703 12.6764 6.80181 12.1808 7.06175 11.734L6.45237 9.43713C5.93067 9.97686 5.52228 10.6155 5.25126 11.3156C4.98023 12.0156 4.85206 12.7628 4.87429 13.5131C4.89652 14.2634 5.06871 15.0017 5.3807 15.6844C5.6927 16.3672 6.13819 16.9805 6.69092 17.4884C7.24366 17.9963 7.89246 18.3884 8.5991 18.6417C9.30574 18.8949 10.0559 19.0042 10.8054 18.963C11.555 18.9218 12.2886 18.731 12.9633 18.4019C13.6379 18.0728 14.2399 17.6119 14.7336 17.0465L13.7961 14.984Z" fill="#BDA76E"/>
<path d="M9.57739 5.37463C10.6129 5.37463 11.4524 4.53517 11.4524 3.49963C11.4524 2.4641 10.6129 1.62463 9.57739 1.62463C8.54186 1.62463 7.70239 2.4641 7.70239 3.49963C7.70239 4.53517 8.54186 5.37463 9.57739 5.37463Z" fill="#BDA76E"/>
<path d="M17.5462 17.8121C17.4008 17.8557 17.2445 17.8448 17.1065 17.7816C16.9685 17.7183 16.8582 17.607 16.7962 17.4684L14.9681 13.3746L10.3587 13.4996C10.0473 13.5098 9.74322 13.4033 9.5062 13.201C9.26918 12.9987 9.11629 12.7151 9.0775 12.4059C8.73375 10.8017 8.33271 9.20273 7.87437 7.60898C7.67125 6.93711 8.12437 6.28086 8.90562 6.17148L10.3119 5.95273C11.1087 5.82773 11.8587 6.28086 11.9369 6.96836L12.0931 8.31211L15.3587 8.49961C15.5245 8.49961 15.6835 8.56546 15.8007 8.68267C15.9179 8.79988 15.9837 8.95885 15.9837 9.12461C15.9837 9.29037 15.9179 9.44934 15.8007 9.56655C15.6835 9.68376 15.5245 9.74961 15.3587 9.74961L12.2806 9.92148L12.3744 11.0465L15.3587 11.1246C15.9837 11.1559 16.2806 11.4684 16.39 11.7809L17.9838 17.0309C18.0075 17.1109 18.0149 17.1948 18.0056 17.2778C17.9964 17.3607 17.9706 17.441 17.9298 17.5138C17.889 17.5866 17.8341 17.6505 17.7682 17.7017C17.7023 17.753 17.6269 17.7905 17.5462 17.8121Z" fill="#BDA76E"/>
</svg>
