<svg width="21" height="21" viewBox="0 0 21 21" fill="none" xmlns="http://www.w3.org/2000/svg">
<path d="M10.5027 8.26276C9.50388 8.26276 8.54903 8.69256 7.88306 9.44201L8.75903 10.2205C9.20282 9.72104 9.83837 9.43463 10.5027 9.43463C11.167 9.43463 11.8026 9.72108 12.2464 10.2205L13.1224 9.44201C12.4563 8.6926 11.5015 8.26276 10.5027 8.26276Z" fill="#BDA76E"/>
<path d="M13.8968 8.75543L14.7728 7.97699C13.6875 6.75562 12.1311 6.05511 10.5027 6.05511C8.87438 6.05511 7.31802 6.75562 6.23267 7.97699L7.10864 8.75543C7.97181 7.7841 9.20895 7.22703 10.5028 7.22703C11.7966 7.22703 13.0337 7.7841 13.8968 8.75543Z" fill="#BDA76E"/>
<path d="M18.7553 10.209L19.6596 11.1133L20.4873 10.2856L18.101 7.89919V1.82427H14.0139V3.81204L10.4764 0.274658L0.496445 10.2547L1.32418 11.0824L2.19758 10.209V19.1041H0.487305V20.2747H20.4655V19.1041H18.7553V10.209ZM15.1844 2.99489H16.9303V6.7286L15.1844 4.98267V2.99489ZM3.3682 9.03837L10.4764 1.93017L17.5847 9.03837V19.1041H11.0732V17.4054C12.2642 17.1375 13.1569 16.0721 13.1569 14.8014V12.8973H12.2452V11.4099H11.0733V12.8973H9.90129V11.4099H8.72941V12.8973H7.81773V14.8014C7.81773 16.0721 8.71039 17.1375 9.90137 17.4054V19.1041H3.3682V9.03837ZM8.98961 14.0692H11.985V14.8014C11.985 15.6272 11.3131 16.2991 10.4873 16.2991C9.66148 16.2991 8.98961 15.6272 8.98961 14.8014V14.0692Z" fill="#BDA76E"/>
</svg>
