<svg width="21" height="21" viewBox="0 0 21 21" fill="none" xmlns="http://www.w3.org/2000/svg">
<path d="M19.732 0.374634H0.583057C0.406768 0.374634 0.263916 0.517524 0.263916 0.693774V3.24698C0.263916 3.42323 0.406768 3.56612 0.583057 3.56612H1.11497V20.0555C1.11497 20.2317 1.25782 20.3746 1.43411 20.3746H18.8809C19.0572 20.3746 19.2001 20.2317 19.2001 20.0555V3.56612H19.732C19.9083 3.56612 20.0511 3.42323 20.0511 3.24698V0.693774C20.0511 0.517524 19.9083 0.374634 19.732 0.374634ZM16.0085 19.7364H4.30646V18.247H16.0085V19.7364ZM12.0733 15.6938C11.8725 15.9606 11.7533 16.2923 11.7533 16.6512C11.7533 17.0102 11.8725 17.3418 12.0733 17.6087H6.96603C6.4381 17.6087 6.00856 17.1792 6.00856 16.6512C6.00856 16.1233 6.4381 15.6938 6.96603 15.6938H12.0733ZM7.53224 12.4302C7.53224 11.852 7.71396 11.3056 8.05868 10.8489L10.1575 8.036L12.2574 10.8504C12.6011 11.3057 12.7828 11.852 12.7828 12.4302C12.7828 13.8778 11.6051 15.0555 10.1575 15.0555C8.70989 15.0555 7.53224 13.8778 7.53224 12.4302ZM12.3915 16.6512C12.3915 16.1233 12.8211 15.6938 13.349 15.6938C13.8769 15.6938 14.3065 16.1233 14.3065 16.6512C14.3065 17.1792 13.8769 17.6087 13.349 17.6087C12.8211 17.6087 12.3915 17.1791 12.3915 16.6512ZM18.5618 19.7364H16.6468V13.0685C16.6468 12.8923 16.504 12.7494 16.3277 12.7494C16.1514 12.7494 16.0085 12.8923 16.0085 13.0685V17.6087H14.6247C14.8255 17.3418 14.9447 17.0102 14.9447 16.6512C14.9447 15.7713 14.2289 15.0555 13.349 15.0555H12.0936C12.8982 14.4605 13.4211 13.5054 13.4211 12.4302C13.4211 11.7121 13.1949 11.0327 12.7679 10.4672L10.4133 7.31143C10.3531 7.23073 10.2582 7.18315 10.1575 7.18315C10.0568 7.18315 9.96192 7.23073 9.90173 7.31143L7.5481 10.4658C7.12009 11.0328 6.89388 11.712 6.89388 12.4302C6.89388 13.5054 7.41677 14.4605 8.22138 15.0555H6.96603C6.0861 15.0555 5.37028 15.7713 5.37028 16.6512C5.37028 17.0102 5.4895 17.3417 5.69032 17.6087H4.30646V6.11932H16.0085V11.7919C16.0085 11.9682 16.1513 12.111 16.3276 12.111C16.5039 12.111 16.6468 11.9682 16.6468 11.7919V6.11932H17.6043C17.7806 6.11932 17.9234 5.97643 17.9234 5.80018C17.9234 5.62393 17.7806 5.48104 17.6043 5.48104H2.71071C2.53442 5.48104 2.39157 5.62393 2.39157 5.80018C2.39157 5.97643 2.53442 6.11932 2.71071 6.11932H3.66817V19.7364H1.75325V3.56612H18.5618V19.7364ZM19.4128 2.92784H0.902197V1.01292H19.4128V2.92784Z" fill="#BDA76E"/>
</svg>
