<svg width="20" height="20" viewBox="0 0 20 20" fill="none" xmlns="http://www.w3.org/2000/svg">
<path fill-rule="evenodd" clip-rule="evenodd" d="M9.65747 0.724609C4.40872 0.724609 0.157471 4.97586 0.157471 10.2246C0.157471 15.4734 4.40872 19.7246 9.65747 19.7246C14.9062 19.7246 19.1575 15.4734 19.1575 10.2246C19.1575 4.97586 14.9062 0.724609 9.65747 0.724609ZM9.65747 18.9329C4.85205 18.9329 0.949137 15.0379 0.949137 10.2246C0.949137 5.41128 4.85205 1.51628 9.65747 1.51628C14.4629 1.51628 18.3658 5.41919 18.3658 10.2246C18.3658 15.03 14.4629 18.9329 9.65747 18.9329ZM10.0533 5.47461H6.4908V14.5788C6.4908 14.6838 6.53251 14.7844 6.60674 14.8587C6.68097 14.9329 6.78166 14.9746 6.88664 14.9746C6.99162 14.9746 7.0923 14.9329 7.16653 14.8587C7.24077 14.7844 7.28247 14.6838 7.28247 14.5788V11.0163H10.0533C11.5812 11.0163 12.8241 9.77336 12.8241 8.24544C12.8241 6.71753 11.5812 5.47461 10.0533 5.47461ZM10.0533 10.2246H7.28247V6.26628H10.0533C11.1458 6.26628 12.0325 7.15294 12.0325 8.24544C12.0325 9.33794 11.1458 10.2246 10.0533 10.2246Z" fill="#BDA76E"/>
</svg>
