<svg width="20" height="12" viewBox="0 0 20 12" fill="none" xmlns="http://www.w3.org/2000/svg">
<path fill-rule="evenodd" clip-rule="evenodd" d="M17.904 4.54128V2.56211C17.9038 2.36795 17.856 2.17679 17.7647 2.00539C17.6735 1.83399 17.5416 1.68757 17.3807 1.57897C17.2197 1.47036 17.0346 1.40288 16.8415 1.38244C16.6484 1.36199 16.4533 1.38921 16.2731 1.4617C16.1938 1.18906 16.0194 0.953871 15.7816 0.798765C15.5438 0.64366 15.2582 0.578907 14.9768 0.616245C14.6953 0.653584 14.4365 0.790542 14.2473 1.00229C14.0582 1.21404 13.9511 1.48656 13.9456 1.77045V4.54128H6.02897V1.77045C6.02897 1.4555 5.90386 1.15346 5.68116 0.930757C5.45846 0.708058 5.15642 0.582947 4.84147 0.582947C4.2873 0.582947 3.83605 0.95503 3.70147 1.4617C3.52134 1.38921 3.32619 1.36199 3.1331 1.38244C2.94001 1.40288 2.75488 1.47036 2.59393 1.57897C2.43297 1.68757 2.30111 1.83399 2.20988 2.00539C2.11865 2.17679 2.07084 2.36795 2.07064 2.56211V4.54128C1.1998 4.54128 0.487305 5.24586 0.487305 6.12461C0.487305 7.00336 1.19189 7.70795 2.07064 7.70795V9.68711C2.07084 9.88128 2.11865 10.0724 2.20988 10.2438C2.30111 10.4152 2.43297 10.5617 2.59393 10.6703C2.75488 10.7789 2.94001 10.8463 3.1331 10.8668C3.32619 10.8872 3.52134 10.86 3.70147 10.7875C3.78079 11.0602 3.95518 11.2954 4.19301 11.4505C4.43084 11.6056 4.71638 11.6703 4.99785 11.633C5.27933 11.5956 5.53811 11.4587 5.72727 11.2469C5.91644 11.0352 6.02348 10.7627 6.02897 10.4788V7.70795H13.9456V10.4788C13.9456 10.7937 14.0708 11.0958 14.2934 11.3185C14.5161 11.5412 14.8182 11.6663 15.1331 11.6663C15.6873 11.6663 16.1386 11.2942 16.2731 10.7875C16.4526 10.8598 16.6471 10.8871 16.8396 10.867C17.032 10.847 17.2167 10.7802 17.3774 10.6725C17.5382 10.5648 17.6702 10.4194 17.762 10.2491C17.8537 10.0787 17.9025 9.88853 17.904 9.69503V7.70795C18.7827 7.70795 19.4873 7.00336 19.4873 6.12461C19.4873 5.24586 18.7748 4.54128 17.904 4.54128ZM2.07064 6.91628C1.6273 6.91628 1.27897 6.56003 1.27897 6.12461C1.27897 5.91465 1.36238 5.71329 1.51085 5.56482C1.65931 5.41635 1.86067 5.33295 2.07064 5.33295V6.91628ZM3.25814 10.0829C3.15316 10.0829 3.05247 10.0412 2.97824 9.96701C2.90401 9.89278 2.8623 9.7921 2.8623 9.68711V2.56211C2.8623 2.34045 3.03647 2.16628 3.25814 2.16628C3.4798 2.16628 3.65397 2.34045 3.65397 2.56211V9.69503C3.65397 9.80001 3.61227 9.90069 3.53803 9.97493C3.4638 10.0492 3.36312 10.0909 3.25814 10.0909V10.0829ZM5.2373 10.4788C5.2373 10.5838 5.1956 10.6844 5.12137 10.7587C5.04713 10.8329 4.94645 10.8746 4.84147 10.8746C4.73649 10.8746 4.63581 10.8329 4.56157 10.7587C4.48734 10.6844 4.44564 10.5838 4.44564 10.4788V1.77045C4.44564 1.66547 4.48734 1.56478 4.56157 1.49055C4.63581 1.41632 4.73649 1.37461 4.84147 1.37461C4.94645 1.37461 5.04713 1.41632 5.12137 1.49055C5.1956 1.56478 5.2373 1.66547 5.2373 1.77045V10.4788ZM13.9456 6.91628H6.02897V5.33295H13.9456V6.91628ZM15.529 2.56211V10.4788C15.529 10.5838 15.4873 10.6844 15.413 10.7587C15.3388 10.8329 15.2381 10.8746 15.1331 10.8746C15.0282 10.8746 14.9275 10.8329 14.8532 10.7587C14.779 10.6844 14.7373 10.5838 14.7373 10.4788V1.77045C14.7373 1.66547 14.779 1.56478 14.8532 1.49055C14.9275 1.41632 15.0282 1.37461 15.1331 1.37461C15.2381 1.37461 15.3388 1.41632 15.413 1.49055C15.4873 1.56478 15.529 1.66547 15.529 1.77045V2.56211ZM17.1123 9.69503C17.1123 9.80001 17.0706 9.90069 16.9964 9.97493C16.9221 10.0492 16.8215 10.0909 16.7165 10.0909C16.6115 10.0909 16.5108 10.0492 16.4366 9.97493C16.3623 9.90069 16.3206 9.80001 16.3206 9.69503V2.56211C16.3206 2.34045 16.4948 2.16628 16.7165 2.16628C16.9381 2.16628 17.1123 2.34045 17.1123 2.56211V9.69503ZM17.904 6.91628V5.33295C18.1139 5.33295 18.3153 5.41635 18.4638 5.56482C18.6122 5.71329 18.6956 5.91465 18.6956 6.12461C18.6956 6.56795 18.3473 6.91628 17.904 6.91628Z" fill="#BDA76E"/>
</svg>
