<svg width="18" height="19" viewBox="0 0 18 19" fill="none" xmlns="http://www.w3.org/2000/svg">
<path d="M4.59497 2.35279C4.51383 2.2446 4.46997 2.11302 4.46997 1.97779C4.46997 1.84255 4.51383 1.71097 4.59497 1.60279L5.21997 0.774661C5.26922 0.709 5.33091 0.653681 5.40154 0.611864C5.47216 0.570047 5.55033 0.54255 5.63158 0.530942C5.71283 0.519335 5.79558 0.523845 5.87508 0.544215C5.95459 0.564584 6.02931 0.600415 6.09497 0.649661C6.16063 0.698906 6.21595 0.760603 6.25777 0.831227C6.29958 0.901852 6.32708 0.980021 6.33869 1.06127C6.3503 1.14252 6.34579 1.22527 6.32542 1.30477C6.30505 1.38428 6.26922 1.459 6.21997 1.52466L5.87622 1.99341L6.21997 2.44654C6.30111 2.55472 6.34497 2.6863 6.34497 2.82154C6.34497 2.95677 6.30111 3.08835 6.21997 3.19654L5.59497 4.02466C5.54573 4.09032 5.48403 4.14564 5.4134 4.18746C5.34278 4.22927 5.26461 4.25677 5.18336 4.26838C5.10211 4.27999 5.01937 4.27548 4.93986 4.25511C4.86035 4.23474 4.78563 4.19891 4.71997 4.14966C4.65431 4.10042 4.59899 4.03872 4.55717 3.96809C4.51536 3.89747 4.48786 3.8193 4.47625 3.73805C4.46464 3.6568 4.46915 3.57406 4.48952 3.49455C4.50989 3.41504 4.54572 3.34032 4.59497 3.27466L4.93872 2.80591L4.59497 2.35279ZM8.68872 2.82154L8.34497 3.27466C8.24551 3.40727 8.20281 3.57395 8.22625 3.73805C8.24969 3.90214 8.33736 4.0502 8.46997 4.14966C8.60258 4.24912 8.76927 4.29182 8.93336 4.26838C9.09745 4.24494 9.24551 4.15727 9.34497 4.02466L9.96997 3.19654C10.0511 3.08835 10.095 2.95677 10.095 2.82154C10.095 2.6863 10.0511 2.55472 9.96997 2.44654L9.62622 1.97779L9.96997 1.52466C10.0192 1.459 10.055 1.38428 10.0754 1.30477C10.0958 1.22527 10.1003 1.14252 10.0887 1.06127C10.0771 0.980021 10.0496 0.901852 10.0078 0.831227C9.96595 0.760603 9.91063 0.698906 9.84497 0.649661C9.77931 0.600415 9.70459 0.564584 9.62508 0.544215C9.54558 0.523845 9.46283 0.519335 9.38158 0.530942C9.30033 0.54255 9.22216 0.570047 9.15154 0.611864C9.08091 0.653681 9.01922 0.709 8.96997 0.774661L8.34497 1.60279C8.26383 1.71097 8.21997 1.84255 8.21997 1.97779C8.21997 2.11302 8.26383 2.2446 8.34497 2.35279L8.68872 2.82154ZM12.4387 2.82154L12.095 3.27466C11.9955 3.40727 11.9528 3.57395 11.9763 3.73805C11.9997 3.90214 12.0874 4.0502 12.22 4.14966C12.3526 4.24912 12.5193 4.29182 12.6834 4.26838C12.8475 4.24494 12.9955 4.15727 13.095 4.02466L13.72 3.19654C13.8011 3.08835 13.845 2.95677 13.845 2.82154C13.845 2.6863 13.8011 2.55472 13.72 2.44654L13.3762 1.97779L13.72 1.52466C13.8194 1.39205 13.8621 1.22537 13.8387 1.06127C13.8152 0.897178 13.7276 0.749117 13.595 0.649661C13.4624 0.550205 13.2957 0.5075 13.1316 0.530942C12.9675 0.554384 12.8194 0.642053 12.72 0.774661L12.095 1.60279C12.0138 1.71097 11.97 1.84255 11.97 1.97779C11.97 2.11302 12.0138 2.2446 12.095 2.35279L12.4387 2.82154ZM17.9075 7.27466V16.1497C17.9061 16.5909 17.7491 17.0175 17.4642 17.3544C17.1792 17.6913 16.7846 17.917 16.3497 17.9916C15.9148 18.0663 15.4676 17.9852 15.0866 17.7626C14.7056 17.54 14.4153 17.1902 14.2668 16.7747H12.7981C12.668 17.1388 12.4285 17.4537 12.1124 17.6764C11.7963 17.8991 11.4191 18.0186 11.0325 18.0186C10.6458 18.0186 10.2686 17.8991 9.95255 17.6764C9.63647 17.4537 9.39697 17.1388 9.26685 16.7747H7.7981C7.66797 17.1388 7.42847 17.4537 7.11239 17.6764C6.79631 17.8991 6.41912 18.0186 6.03247 18.0186C5.64582 18.0186 5.26863 17.8991 4.95255 17.6764C4.63647 17.4537 4.39697 17.1388 4.26685 16.7747H2.90747V18.0247H0.407471V16.7747H1.65747V6.61841H0.407471V5.36841H2.90747V6.64966H4.26685C4.39697 6.28557 4.63647 5.9706 4.95255 5.74791C5.26863 5.52522 5.64582 5.40569 6.03247 5.40569C6.41912 5.40569 6.79631 5.52522 7.11239 5.74791C7.42847 5.9706 7.66797 6.28557 7.7981 6.64966H9.26685C9.39697 6.28557 9.63647 5.9706 9.95255 5.74791C10.2686 5.52522 10.6458 5.40569 11.0325 5.40569C11.4191 5.40569 11.7963 5.52522 12.1124 5.74791C12.4285 5.9706 12.668 6.28557 12.7981 6.64966H14.2668C14.4153 6.23416 14.7056 5.88433 15.0866 5.66174C15.4676 5.43914 15.9148 5.35804 16.3497 5.43269C16.7846 5.50735 17.1792 5.73299 17.4642 6.0699C17.7491 6.40681 17.9061 6.83342 17.9075 7.27466ZM12.9075 7.89966V15.5247H14.1575V7.89966H12.9075ZM7.90747 7.89966V15.5247H9.15747V7.89966H7.90747ZM2.90747 15.5247H4.15747V7.89966H2.90747V15.5247ZM6.65747 7.27466C6.65747 7.1089 6.59162 6.94993 6.47441 6.83272C6.3572 6.71551 6.19823 6.64966 6.03247 6.64966C5.86671 6.64966 5.70774 6.71551 5.59053 6.83272C5.47332 6.94993 5.40747 7.1089 5.40747 7.27466V16.1497C5.40747 16.3154 5.47332 16.4744 5.59053 16.5916C5.70774 16.7088 5.86671 16.7747 6.03247 16.7747C6.19823 16.7747 6.3572 16.7088 6.47441 16.5916C6.59162 16.4744 6.65747 16.3154 6.65747 16.1497V7.27466ZM11.6575 16.1497V7.27466C11.6575 7.1089 11.5916 6.94993 11.4744 6.83272C11.3572 6.71551 11.1982 6.64966 11.0325 6.64966C10.8667 6.64966 10.7077 6.71551 10.5905 6.83272C10.4733 6.94993 10.4075 7.1089 10.4075 7.27466V16.1497C10.4075 16.3154 10.4733 16.4744 10.5905 16.5916C10.7077 16.7088 10.8667 16.7747 11.0325 16.7747C11.1982 16.7747 11.3572 16.7088 11.4744 16.5916C11.5916 16.4744 11.6575 16.3154 11.6575 16.1497ZM16.6575 7.27466C16.6575 7.1089 16.5916 6.94993 16.4744 6.83272C16.3572 6.71551 16.1982 6.64966 16.0325 6.64966C15.8667 6.64966 15.7077 6.71551 15.5905 6.83272C15.4733 6.94993 15.4075 7.1089 15.4075 7.27466V16.1497C15.4075 16.3154 15.4733 16.4744 15.5905 16.5916C15.7077 16.7088 15.8667 16.7747 16.0325 16.7747C16.1982 16.7747 16.3572 16.7088 16.4744 16.5916C16.5916 16.4744 16.6575 16.3154 16.6575 16.1497V7.27466Z" fill="#BDA76E"/>
</svg>
