<svg width="20" height="20" viewBox="0 0 20 20" fill="none" xmlns="http://www.w3.org/2000/svg">
<path fill-rule="evenodd" clip-rule="evenodd" d="M19.4315 18.9329H19.0356V10.1533C19.2673 10.0727 19.468 9.92182 19.6099 9.72175C19.7518 9.52169 19.8278 9.28236 19.8273 9.03709C19.8273 8.72214 19.7022 8.4201 19.4795 8.1974C19.2568 7.9747 18.9547 7.84959 18.6398 7.84959H2.02271C1.74422 7.85175 1.47535 7.95172 1.2631 8.13202C1.05086 8.31233 0.908728 8.56149 0.861568 8.83596C0.814408 9.11043 0.865215 9.39275 1.00511 9.63356C1.145 9.87437 1.36508 10.0583 1.62687 10.1533V18.9329H1.23104C1.12606 18.9329 1.02538 18.9746 0.951142 19.0489C0.876909 19.1231 0.835205 19.2238 0.835205 19.3288C0.835205 19.4337 0.876909 19.5344 0.951142 19.6087C1.02538 19.6829 1.12606 19.7246 1.23104 19.7246H19.4394C19.5444 19.7246 19.645 19.6829 19.7193 19.6087C19.7935 19.5344 19.8352 19.4337 19.8352 19.3288C19.8352 19.2238 19.7935 19.1231 19.7193 19.0489C19.645 18.9746 19.5444 18.9329 19.4394 18.9329H19.4315ZM3.99396 18.9329H2.41062V10.2246H3.99396V18.9329ZM6.36896 18.9329H4.78562V10.2246H6.36896V18.9329ZM8.74396 18.9329H7.16062V10.2246H8.74396V18.9329ZM11.119 18.9329H9.53562V10.2246H11.119V18.9329ZM13.494 18.9329H11.9106V10.2246H13.494V18.9329ZM15.869 18.9329H14.2856V10.2246H15.869V18.9329ZM18.244 18.9329H16.6606V10.2246H18.244V18.9329ZM18.244 9.43292H2.01479C1.90981 9.43292 1.80913 9.39122 1.73489 9.31699C1.66066 9.24275 1.61896 9.14207 1.61896 9.03709C1.61896 8.81542 1.79312 8.64126 2.01479 8.64126H18.6319C18.7369 8.64126 18.8375 8.68296 18.9118 8.75719C18.986 8.83143 19.0277 8.93211 19.0277 9.03709C19.0277 9.25876 18.8535 9.43292 18.6319 9.43292H18.244ZM9.63062 3.66167C8.90229 2.66417 9.02896 1.77751 9.67812 1.14417C9.8312 0.990791 10.0075 0.862545 10.2006 0.764172C10.2479 0.737293 10.3002 0.720435 10.3542 0.71465C10.4083 0.708865 10.4629 0.714276 10.5148 0.730546C10.5667 0.746817 10.6146 0.773598 10.6557 0.809219C10.6968 0.844841 10.7301 0.88854 10.7535 0.937592C10.7769 0.986644 10.79 1.04 10.7919 1.09433C10.7938 1.14866 10.7845 1.2028 10.7646 1.25337C10.7447 1.30395 10.7145 1.34988 10.6761 1.3883C10.6376 1.42672 10.5916 1.4568 10.541 1.47667C10.4246 1.53698 10.3179 1.61436 10.2244 1.70626C9.84437 2.07834 9.78104 2.52959 10.2323 3.15501C11.8869 4.95209 11.8869 6.52751 10.5015 7.02626C10.4036 7.05855 10.297 7.05141 10.2043 7.00636C10.1117 6.96131 10.0402 6.8819 10.0052 6.785C9.97012 6.6881 9.97424 6.58136 10.0166 6.48744C10.0591 6.39353 10.1364 6.31986 10.2323 6.28209C10.9765 6.01292 10.9765 5.12626 9.6227 3.65376L9.63062 3.66167ZM12.7973 3.66167C12.069 2.66417 12.1956 1.77751 12.8448 1.14417C12.9979 0.990791 13.1742 0.862545 13.3673 0.764172C13.4145 0.737293 13.4668 0.720435 13.5209 0.71465C13.5749 0.708865 13.6296 0.714276 13.6815 0.730546C13.7333 0.746817 13.7813 0.773598 13.8224 0.809219C13.8634 0.844841 13.8967 0.88854 13.9202 0.937592C13.9436 0.986644 13.9567 1.04 13.9586 1.09433C13.9605 1.14866 13.9512 1.2028 13.9313 1.25337C13.9113 1.30395 13.8812 1.34988 13.8427 1.3883C13.8043 1.42672 13.7583 1.4568 13.7077 1.47667C13.5913 1.53698 13.4846 1.61436 13.391 1.70626C13.011 2.07834 12.9477 2.52959 13.399 3.15501C15.0535 4.95209 15.0535 6.52751 13.6681 7.02626C13.5703 7.05855 13.4637 7.05141 13.371 7.00636C13.2783 6.96131 13.2069 6.8819 13.1718 6.785C13.1368 6.6881 13.1409 6.58136 13.1833 6.48744C13.2257 6.39353 13.3031 6.31986 13.399 6.28209C14.1431 6.01292 14.1431 5.12626 12.7894 3.65376L12.7973 3.66167ZM6.46395 3.66167C5.73562 2.66417 5.86229 1.77751 6.51146 1.14417C6.66453 0.990791 6.84087 0.862545 7.03396 0.764172C7.08121 0.737293 7.13349 0.720435 7.18755 0.71465C7.2416 0.708865 7.29627 0.714276 7.34814 0.730546C7.40001 0.746817 7.44797 0.773598 7.48904 0.809219C7.53011 0.844841 7.5634 0.88854 7.58683 0.937592C7.61027 0.986644 7.62335 1.04 7.62526 1.09433C7.62717 1.14866 7.61787 1.2028 7.59793 1.25337C7.578 1.30395 7.54786 1.34988 7.5094 1.3883C7.47094 1.42672 7.42497 1.4568 7.37437 1.47667C7.25796 1.53698 7.15122 1.61436 7.0577 1.70626C6.6777 2.07834 6.61437 2.52959 7.06562 3.15501C8.72021 4.95209 8.72021 6.52751 7.33479 7.02626C7.23694 7.05855 7.13035 7.05141 7.03768 7.00636C6.945 6.96131 6.87355 6.8819 6.8385 6.785C6.80345 6.6881 6.80757 6.58136 6.84998 6.48744C6.89239 6.39353 6.96975 6.31986 7.06562 6.28209C7.80979 6.01292 7.80979 5.12626 6.45604 3.65376L6.46395 3.66167Z" fill="#BDA76E"/>
</svg>
