<svg width="13" height="20" viewBox="0 0 13 20" fill="none" xmlns="http://www.w3.org/2000/svg">
<path fill-rule="evenodd" clip-rule="evenodd" d="M5.13997 0.624634C5.03499 0.624634 4.93431 0.666338 4.86008 0.740571C4.78584 0.814804 4.74414 0.915486 4.74414 1.02047V6.56213C4.74416 6.66576 4.70355 6.76526 4.63102 6.83927C4.55849 6.91328 4.45983 6.95589 4.35622 6.95797H3.16081V1.02047C3.16081 0.915486 3.1191 0.814804 3.04487 0.740571C2.97064 0.666338 2.86996 0.624634 2.76497 0.624634C2.65999 0.624634 2.55931 0.666338 2.48508 0.740571C2.41084 0.814804 2.36914 0.915486 2.36914 1.02047V6.95797H1.17372C1.07012 6.95589 0.971461 6.91328 0.898932 6.83927C0.826402 6.76526 0.785787 6.66576 0.785807 6.56213V1.02047C0.785807 0.915486 0.744103 0.814804 0.66987 0.740571C0.595637 0.666338 0.494955 0.624634 0.389974 0.624634C0.284992 0.624634 0.184311 0.666338 0.110078 0.740571C0.0358445 0.814804 -0.00585938 0.915486 -0.00585938 1.02047V6.56213C-0.00585938 7.21922 0.524557 7.74963 1.17372 7.74963H2.36914V11.708C2.36914 11.7317 2.37706 11.7555 2.38497 11.7792C2.15038 11.8572 1.94622 12.0069 1.80133 12.2072C1.65643 12.4075 1.57813 12.6483 1.57747 12.8955V18.4371C1.57747 19.0942 2.10789 19.6246 2.76497 19.6246C3.42206 19.6246 3.95247 19.0942 3.95247 18.4371V12.8955C3.95247 12.373 3.61206 11.9376 3.14497 11.7792C3.15289 11.7555 3.16081 11.7317 3.16081 11.708V7.74963H4.35622C4.6698 7.74754 4.96981 7.62151 5.1908 7.39904C5.41179 7.17656 5.53581 6.87571 5.53581 6.56213V1.02047C5.53581 0.915486 5.4941 0.814804 5.41987 0.740571C5.34564 0.666338 5.24496 0.624634 5.13997 0.624634ZM3.16081 12.8955V18.4371C3.16081 18.5421 3.1191 18.6428 3.04487 18.717C2.97064 18.7913 2.86996 18.833 2.76497 18.833C2.65999 18.833 2.55931 18.7913 2.48508 18.717C2.41084 18.6428 2.36914 18.5421 2.36914 18.4371V12.8955C2.36914 12.6738 2.54331 12.4996 2.76497 12.4996C2.98664 12.4996 3.16081 12.6738 3.16081 12.8955ZM12.265 0.624634H10.6816C9.57331 0.624634 8.70247 1.47172 8.70247 2.6038V8.14547C8.70247 9.27755 9.57331 10.1246 10.6816 10.1246H11.8691V11.7792C11.7422 11.733 11.6084 11.7089 11.4733 11.708C10.8162 11.708 10.2858 12.2384 10.2858 12.8955V18.4371C10.2858 19.0942 10.8162 19.6246 11.4733 19.6246C12.1304 19.6246 12.6608 19.0942 12.6608 18.4371V0.624634H12.265ZM10.6816 9.33297C10.0008 9.33297 9.49414 8.83422 9.49414 8.14547V2.6038C9.49414 1.91505 10.0087 1.4163 10.6816 1.4163H11.8691V9.33297H10.6816ZM11.8691 18.4371C11.8691 18.5421 11.8274 18.6428 11.7532 18.717C11.679 18.7913 11.5783 18.833 11.4733 18.833C11.3683 18.833 11.2676 18.7913 11.1934 18.717C11.1192 18.6428 11.0775 18.5421 11.0775 18.4371V12.8955C11.0775 12.6738 11.2516 12.4996 11.4733 12.4996C11.695 12.4996 11.8691 12.6738 11.8691 12.8955V18.4371Z" fill="#BDA76E"/>
</svg>
