<svg width="20" height="20" viewBox="0 0 20 20" fill="none" xmlns="http://www.w3.org/2000/svg">
<path fill-rule="evenodd" clip-rule="evenodd" d="M4.1158 3.39547C4.1158 3.23952 4.08509 3.0851 4.02541 2.94103C3.96573 2.79696 3.87826 2.66605 3.76799 2.55578C3.65772 2.44551 3.52681 2.35804 3.38274 2.29836C3.23867 2.23868 3.08425 2.20797 2.9283 2.20797C2.77236 2.20797 2.61794 2.23868 2.47387 2.29836C2.32979 2.35804 2.19888 2.44551 2.08861 2.55578C1.97835 2.66605 1.89087 2.79696 1.8312 2.94103C1.77152 3.0851 1.7408 3.23952 1.7408 3.39547C1.7408 3.71041 1.86592 4.01246 2.08861 4.23516C2.31131 4.45786 2.61336 4.58297 2.9283 4.58297C3.24325 4.58297 3.54529 4.45786 3.76799 4.23516C3.99069 4.01246 4.1158 3.71041 4.1158 3.39547ZM2.9283 3.7913C2.82332 3.7913 2.72264 3.7496 2.64841 3.67536C2.57417 3.60113 2.53247 3.50045 2.53247 3.39547C2.53247 3.29049 2.57417 3.1898 2.64841 3.11557C2.72264 3.04134 2.82332 2.99963 2.9283 2.99963C3.03329 2.99963 3.13397 3.04134 3.2082 3.11557C3.28243 3.1898 3.32414 3.29049 3.32414 3.39547C3.32414 3.50045 3.28243 3.60113 3.2082 3.67536C3.13397 3.7496 3.03329 3.7913 2.9283 3.7913ZM6.09497 4.58297C6.25092 4.58297 6.40533 4.55225 6.54941 4.49257C6.69348 4.4329 6.82439 4.34543 6.93466 4.23516C7.04493 4.12489 7.1324 3.99398 7.19208 3.8499C7.25176 3.70583 7.28247 3.55141 7.28247 3.39547C7.28247 3.23952 7.25176 3.0851 7.19208 2.94103C7.1324 2.79696 7.04493 2.66605 6.93466 2.55578C6.82439 2.44551 6.69348 2.35804 6.54941 2.29836C6.40533 2.23868 6.25092 2.20797 6.09497 2.20797C5.78003 2.20797 5.47798 2.33308 5.25528 2.55578C5.03258 2.77848 4.90747 3.08052 4.90747 3.39547C4.90747 3.71041 5.03258 4.01246 5.25528 4.23516C5.47798 4.45786 5.78003 4.58297 6.09497 4.58297ZM6.09497 2.99963C6.19995 2.99963 6.30063 3.04134 6.37487 3.11557C6.4491 3.1898 6.4908 3.29049 6.4908 3.39547C6.4908 3.50045 6.4491 3.60113 6.37487 3.67536C6.30063 3.7496 6.19995 3.7913 6.09497 3.7913C5.98999 3.7913 5.88931 3.7496 5.81507 3.67536C5.74084 3.60113 5.69914 3.50045 5.69914 3.39547C5.69914 3.29049 5.74084 3.1898 5.81507 3.11557C5.88931 3.04134 5.98999 2.99963 6.09497 2.99963ZM9.65747 5.37463C6.16622 5.37463 3.32414 8.21672 3.32414 11.708C3.32414 15.1992 6.16622 18.0413 9.65747 18.0413C13.1487 18.0413 15.9908 15.1992 15.9908 11.708C15.9908 8.21672 13.1487 5.37463 9.65747 5.37463ZM9.65747 17.2496C6.67289 17.2496 4.24247 14.8826 4.12372 11.9217C4.4008 11.7396 4.78872 11.4705 4.79664 11.4705C6.09497 10.6392 7.41705 10.6313 9.42789 12.0326C11.7079 13.6238 13.3783 13.608 14.9379 12.6105L15.1358 12.4759C14.7637 15.1676 12.4521 17.2496 9.65747 17.2496ZM14.5104 11.9455C13.2121 12.7767 11.89 12.7846 9.87914 11.3834C7.59914 9.79213 5.92872 9.80797 4.36914 10.8055L4.17122 10.9401C4.55122 8.24838 6.86289 6.1663 9.65747 6.1663C12.6421 6.1663 15.0725 8.53338 15.1912 11.4942C14.9141 11.6763 14.5262 11.9455 14.5183 11.9455H14.5104ZM17.1783 0.624634H2.13664C1.61237 0.626718 1.11017 0.835906 0.739458 1.20662C0.368743 1.57734 0.159555 2.07953 0.157471 2.6038L0.157471 17.6455C0.157471 18.738 1.04414 19.6246 2.13664 19.6246H17.1783C18.2708 19.6246 19.1575 18.738 19.1575 17.6455V2.6038C19.1575 1.51922 18.2708 0.624634 17.1783 0.624634ZM18.3658 17.6455C18.3658 18.3026 17.8275 18.833 17.1783 18.833H2.13664C1.47955 18.833 0.949137 18.2946 0.949137 17.6455V2.6038C0.949137 1.95463 1.48747 1.4163 2.13664 1.4163H17.1783C17.8354 1.4163 18.3658 1.95463 18.3658 2.6038V17.6455Z" fill="#BDA76E"/>
</svg>
