<svg width="18" height="14" viewBox="0 0 18 14" fill="none" xmlns="http://www.w3.org/2000/svg">
<path d="M16.9524 0.824646H0.702393C0.536632 0.824646 0.377661 0.890494 0.260451 1.0077C0.143241 1.12491 0.0773926 1.28389 0.0773926 1.44965V11.4496C0.0773926 11.6154 0.143241 11.7744 0.260451 11.8916C0.377661 12.0088 0.536632 12.0746 0.702393 12.0746H6.32739V12.6996C6.32739 12.8654 6.39324 13.0244 6.51045 13.1416C6.62766 13.2588 6.78663 13.3246 6.95239 13.3246H10.7024C10.8682 13.3246 11.0271 13.2588 11.1443 13.1416C11.2615 13.0244 11.3274 12.8654 11.3274 12.6996V12.0746H16.9524C17.1182 12.0746 17.2771 12.0088 17.3943 11.8916C17.5115 11.7744 17.5774 11.6154 17.5774 11.4496V1.44965C17.5774 1.28389 17.5115 1.12491 17.3943 1.0077C17.2771 0.890494 17.1182 0.824646 16.9524 0.824646ZM16.1711 10.8246H1.32739V2.07465H16.1711V10.8246Z" fill="#BDA76E"/>
</svg>
