<svg width="21" height="21" viewBox="0 0 21 21" fill="none" xmlns="http://www.w3.org/2000/svg">
<path d="M3.979 0.274658V17.1117L7.03341 18.7104H8.15532V20.2747H9.32724V18.7104H12.3277V20.2747H13.4996V18.7104H14.6215L17.6759 17.1117V0.274658H3.979ZM16.5039 16.4023L14.3332 17.5385H7.32158L5.15092 16.4023V14.608H16.5039V16.4023H16.5039ZM16.5039 13.4362H5.15092V1.44657H16.5039V13.4362H16.5039Z" fill="#BDA76E"/>
<path d="M11.1702 3.13107L10.8274 2.88361L10.4845 3.13107C10.4267 3.17275 9.0686 4.16911 9.0686 5.58309C9.0686 6.5529 9.85759 7.34184 10.8274 7.34184C11.7972 7.34184 12.5862 6.5529 12.5862 5.58309C12.5862 4.16907 11.2281 3.17275 11.1702 3.13107ZM10.8274 6.16997C10.5038 6.16997 10.2405 5.90673 10.2405 5.58313C10.2405 5.1822 10.4769 4.80829 10.6752 4.56517C10.7264 4.50247 10.7779 4.44474 10.8274 4.39263C10.8769 4.44474 10.9284 4.50247 10.9796 4.56517C11.1779 4.80825 11.4143 5.18216 11.4143 5.58313C11.4143 5.90669 11.151 6.16997 10.8274 6.16997Z" fill="#BDA76E"/>
<path d="M12.9136 11.0905H8.74121V12.2624H12.9136V11.0905Z" fill="#BDA76E"/>
</svg>
