<svg width="21" height="21" viewBox="0 0 21 21" fill="none" xmlns="http://www.w3.org/2000/svg">
<path d="M18.4836 17.3515C18.0878 17.6298 17.8018 17.8309 17.1538 17.8309C16.5058 17.8309 16.2199 17.6298 15.8241 17.3515C15.3853 17.043 14.8391 16.659 13.8204 16.659C12.8016 16.659 12.2555 17.043 11.8167 17.3515C11.4209 17.6299 11.135 17.8309 10.487 17.8309C9.8391 17.8309 9.55316 17.6299 9.15742 17.3515C8.71863 17.043 8.1725 16.659 7.15383 16.659C6.13512 16.659 5.58898 17.043 5.15016 17.3515C4.75441 17.6299 4.46848 17.8309 3.82055 17.8309C3.17262 17.8309 2.88672 17.6299 2.49098 17.3515C2.05215 17.043 1.50602 16.659 0.487305 16.659V17.8309C1.13523 17.8309 1.42117 18.0319 1.81691 18.3102C2.2557 18.6187 2.80184 19.0027 3.82055 19.0027C4.83926 19.0027 5.38539 18.6187 5.82422 18.3102C6.21992 18.0319 6.50586 17.8309 7.15383 17.8309C7.80176 17.8309 8.08766 18.0319 8.4834 18.3102C8.92223 18.6187 9.46836 19.0027 10.487 19.0027C11.5057 19.0027 12.0519 18.6187 12.4907 18.3102C12.8864 18.0319 13.1724 17.8309 13.8204 17.8309C14.4684 17.8309 14.7543 18.0319 15.1501 18.3102C15.5889 18.6188 16.1351 19.0027 17.1538 19.0027C18.1726 19.0027 18.7188 18.6188 19.1576 18.3102C19.5534 18.0319 19.8393 17.8309 20.4873 17.8309V16.659C19.4686 16.659 18.9224 17.043 18.4836 17.3515Z" fill="#BDA76E"/>
<path d="M18.4836 14.2265C18.0878 14.5048 17.8018 14.7059 17.1538 14.7059C16.5058 14.7059 16.2199 14.5048 15.8241 14.2265C15.478 13.9832 15.065 13.6931 14.4063 13.5813V1.3465H13.2344V3.33868H7.73977V1.3465H6.56789V13.5813C5.90922 13.6931 5.49621 13.9833 5.15016 14.2266C4.75441 14.5049 4.46848 14.7059 3.82055 14.7059C3.17262 14.7059 2.88672 14.5049 2.49098 14.2265C2.05215 13.918 1.50602 13.534 0.487305 13.534V14.7059C1.13523 14.7059 1.42117 14.9069 1.81691 15.1852C2.2557 15.4937 2.80184 15.8777 3.82055 15.8777C4.83926 15.8777 5.38539 15.4937 5.82422 15.1852C6.21992 14.9069 6.50586 14.7059 7.15383 14.7059C7.80176 14.7059 8.08766 14.9069 8.4834 15.1852C8.92223 15.4937 9.46836 15.8777 10.487 15.8777C11.5057 15.8777 12.0519 15.4937 12.4907 15.1852C12.8864 14.9069 13.1724 14.7059 13.8204 14.7059C14.4684 14.7059 14.7543 14.9069 15.1501 15.1852C15.5889 15.4938 16.1351 15.8777 17.1538 15.8777C18.1726 15.8777 18.7188 15.4938 19.1576 15.1852C19.5534 14.9069 19.8393 14.7059 20.4873 14.7059V13.534C19.4686 13.534 18.9224 13.918 18.4836 14.2265ZM7.73977 4.51056H13.2344V6.85431H7.73977V4.51056ZM13.2344 13.5813C12.5757 13.6931 12.1627 13.9833 11.8167 14.2265C11.4209 14.5049 11.135 14.7059 10.487 14.7059C9.8391 14.7059 9.55316 14.5049 9.15742 14.2265C8.81137 13.9832 8.39836 13.6931 7.73973 13.5813V11.5418H13.2344V13.5813ZM13.2345 10.3699H13.2344H7.73977V8.02618H13.2345V10.3699Z" fill="#BDA76E"/>
</svg>
