<svg width="20" height="20" viewBox="0 0 20 20" fill="none" xmlns="http://www.w3.org/2000/svg">
<path fill-rule="evenodd" clip-rule="evenodd" d="M12.9003 12.008C13.6682 12.008 14.2857 11.2955 14.2857 10.4246C14.2857 9.55379 13.6603 8.84129 12.9003 8.84129C12.1403 8.84129 11.5149 9.55379 11.5149 10.4246C11.5149 11.2955 12.1403 12.008 12.9003 12.008ZM12.9003 12.7996C11.697 12.7996 10.7232 11.7309 10.7232 10.4246C10.7232 9.11837 11.697 8.04962 12.9003 8.04962C14.1036 8.04962 15.0774 9.11837 15.0774 10.4246C15.0774 11.7309 14.1036 12.7996 12.9003 12.7996ZM15.5207 8.10504L15.7028 8.46129L16.4074 8.09712L16.2253 7.74087C15.4891 6.32635 14.3179 5.18574 12.8845 4.48712L12.5282 4.31296L12.1799 5.02545L12.5361 5.19962C13.8194 5.82212 14.8685 6.84071 15.5286 8.10504H15.5207ZM16.2253 13.1084L16.4074 12.7521L15.7028 12.388L15.5207 12.7442C14.8606 14.0085 13.8115 15.0271 12.5282 15.6496L12.172 15.8238L12.5203 16.5363L12.8766 16.3621C14.31 15.6635 15.4812 14.5229 16.2174 13.1084H16.2253ZM16.7082 13.5121C15.9799 14.9213 14.7766 16.093 13.3199 16.7975L12.9636 16.9717L13.312 17.6842L13.6682 17.51C15.2708 16.7302 16.5807 15.4565 17.4049 13.8763L17.587 13.528L16.8824 13.1638L16.7082 13.5121ZM19.0357 10.4246C19.0357 5.6192 15.1328 1.71629 10.3274 1.71629C5.52198 1.71629 1.61906 5.6192 1.61906 10.4246C1.61906 15.23 5.52198 19.133 10.3274 19.133C15.1328 19.133 19.0357 15.23 19.0357 10.4246ZM19.8274 10.4246C19.8274 15.6655 15.5682 19.9246 10.3274 19.9246C5.08656 19.9246 0.827393 15.6655 0.827393 10.4246C0.827393 5.18379 5.08656 0.924622 10.3274 0.924622C15.5682 0.924622 19.8274 5.18379 19.8274 10.4246ZM4.43739 7.74087L4.25531 8.09712L4.95989 8.46129L5.14198 8.10504C5.80209 6.84071 6.85121 5.82212 8.13448 5.19962L8.49073 5.02545L8.14239 4.31296L7.78614 4.48712C6.35268 5.18574 5.18154 6.32635 4.44531 7.74087H4.43739ZM3.95448 13.5121L3.77239 13.1638L3.06781 13.528L3.24989 13.8763C4.07413 15.4565 5.38398 16.7302 6.98656 17.51L7.34281 17.6842L7.69114 16.9717L7.33489 16.7975C5.87823 16.085 4.67489 14.9213 3.94656 13.5121H3.95448ZM3.95448 7.33712C4.68281 5.92796 5.88614 4.75629 7.34281 4.05171L7.69906 3.87754L7.35073 3.16504L6.99448 3.33921C5.39189 4.119 4.08204 5.39277 3.25781 6.97295L3.07573 7.32129L3.78031 7.68545L3.95448 7.33712ZM5.14198 12.7442L4.95989 12.388L4.25531 12.7521L4.43739 13.1084C5.17362 14.5229 6.34476 15.6635 7.77823 16.3621L8.13448 16.5363L8.48281 15.8238L8.12656 15.6496C6.8433 15.0271 5.79417 14.0085 5.13406 12.7442H5.14198ZM7.83364 8.84129C8.41156 8.84129 8.93406 9.21337 9.17156 9.78337L9.90781 9.48254C9.55156 8.61171 8.73614 8.04962 7.83364 8.04962C6.59073 8.04962 5.57739 9.11837 5.57739 10.4246C5.57739 11.7309 6.59073 12.7996 7.83364 12.7996C8.73614 12.7996 9.54364 12.2375 9.90781 11.3667L9.17156 11.0659C8.93406 11.6359 8.41156 12.008 7.83364 12.008C7.02614 12.008 6.36906 11.2955 6.36906 10.4246C6.36906 9.55379 7.02614 8.84129 7.83364 8.84129ZM16.7082 7.33712L16.8903 7.68545L17.5949 7.32129L17.4128 6.97295C16.5886 5.39277 15.2787 4.119 13.6761 3.33921L13.3199 3.16504L12.9716 3.87754L13.3278 4.05171C14.7845 4.7642 15.9878 5.92796 16.7161 7.33712H16.7082ZM18.2441 10.4246C18.2441 10.6346 18.1607 10.8359 18.0122 10.9844C17.8637 11.1329 17.6624 11.2163 17.4524 11.2163C17.2424 11.2163 17.0411 11.1329 16.8926 10.9844C16.7441 10.8359 16.6607 10.6346 16.6607 10.4246C16.6607 10.2147 16.7441 10.0133 16.8926 9.86483C17.0411 9.71636 17.2424 9.63296 17.4524 9.63296C17.6624 9.63296 17.8637 9.71636 18.0122 9.86483C18.1607 10.0133 18.2441 10.2147 18.2441 10.4246Z" fill="#BDA76E"/>
</svg>
