<svg width="17" height="19" viewBox="0 0 17 19" fill="none" xmlns="http://www.w3.org/2000/svg">
<path d="M12.4873 6.24341L13.1748 3.69653C13.1948 3.61623 13.2306 3.5407 13.2801 3.47433C13.3295 3.40797 13.3917 3.35209 13.4629 3.30993C13.5341 3.26778 13.613 3.24019 13.695 3.22877C13.777 3.21735 13.8604 3.22233 13.9404 3.24341C14.021 3.26501 14.0965 3.30253 14.1624 3.35377C14.2283 3.40501 14.2832 3.46892 14.324 3.54174C14.3648 3.61455 14.3906 3.6948 14.3998 3.77774C14.4091 3.86068 14.4016 3.94464 14.3779 4.02466L14.0186 5.35278L15.2217 4.66528C15.2924 4.62295 15.3708 4.59502 15.4523 4.5831C15.5339 4.57119 15.617 4.57552 15.6969 4.59585C15.7768 4.61618 15.8518 4.65211 15.9178 4.70157C15.9837 4.75103 16.0392 4.81304 16.0811 4.88403C16.1227 4.95569 16.1498 5.03491 16.1605 5.11711C16.1713 5.1993 16.1656 5.28282 16.1438 5.3628C16.122 5.44278 16.0845 5.51761 16.0335 5.58296C15.9825 5.6483 15.919 5.70284 15.8467 5.74341L14.6436 6.43091L15.9873 6.80591C16.1466 6.84976 16.2821 6.95493 16.3641 7.09841C16.4461 7.24189 16.4679 7.412 16.4248 7.57153C16.381 7.73086 16.2758 7.86634 16.1323 7.94832C15.9888 8.03031 15.8187 8.05214 15.6592 8.00903L13.1123 7.32153L10.6904 8.72778C10.6188 8.76947 10.5396 8.79649 10.4574 8.80727C10.3752 8.81804 10.2916 8.81236 10.2117 8.79055C10.1317 8.76874 10.0569 8.73123 9.99151 8.68022C9.92617 8.62921 9.87162 8.5657 9.83106 8.49341C9.78937 8.42176 9.76235 8.34253 9.75157 8.26033C9.7408 8.17814 9.74648 8.09462 9.76829 8.01464C9.7901 7.93467 9.82761 7.85983 9.87862 7.79448C9.92964 7.72914 9.99314 7.6746 10.0654 7.63403L12.4873 6.24341ZM6.90918 10.9153C6.98018 10.8734 7.04219 10.8179 7.09165 10.752C7.14111 10.686 7.17704 10.611 7.19737 10.5311C7.2177 10.4512 7.22203 10.3681 7.21011 10.2866C7.1982 10.205 7.17027 10.1266 7.12793 10.0559C7.04604 9.91409 6.91176 9.81008 6.75397 9.76625C6.59618 9.72242 6.42749 9.74227 6.28418 9.82153L3.84668 11.2278L1.29981 10.5559C1.21979 10.5322 1.13583 10.5248 1.05289 10.534C0.96995 10.5433 0.889704 10.5691 0.816887 10.6098C0.74407 10.6506 0.680158 10.7056 0.62892 10.7714C0.577682 10.8373 0.540157 10.9128 0.518558 10.9934C0.495085 11.0745 0.488272 11.1595 0.498532 11.2432C0.508791 11.327 0.53591 11.4078 0.578252 11.4808C0.620594 11.5538 0.677283 11.6175 0.744901 11.668C0.812518 11.7185 0.889663 11.7548 0.971683 11.7747L2.28418 12.1184L1.11231 12.7903C1.04131 12.8322 0.979303 12.8877 0.929844 12.9536C0.880385 13.0195 0.844456 13.0946 0.824124 13.1745C0.803792 13.2543 0.79946 13.3374 0.811376 13.419C0.823293 13.5005 0.851223 13.5789 0.893558 13.6497C0.97545 13.7915 1.10973 13.8955 1.26752 13.9393C1.42531 13.9831 1.594 13.9633 1.73731 13.884L2.95606 13.1809L2.58106 14.5559C2.55998 14.6359 2.555 14.7194 2.56642 14.8013C2.57784 14.8833 2.60543 14.9622 2.64758 15.0334C2.68974 15.1047 2.74562 15.1668 2.81198 15.2163C2.87835 15.2657 2.95388 15.3015 3.03418 15.3215C3.11422 15.3426 3.19765 15.3476 3.27962 15.3362C3.3616 15.3248 3.44049 15.2972 3.51171 15.255C3.58294 15.2129 3.64508 15.157 3.69454 15.0906C3.744 15.0242 3.77978 14.9487 3.79981 14.8684L4.48731 12.3059L6.90918 10.9153ZM7.86231 4.30591V7.08716C7.86231 7.25292 7.92816 7.41189 8.04537 7.5291C8.16258 7.64631 8.32155 7.71216 8.48731 7.71216C8.65307 7.71216 8.81204 7.64631 8.92925 7.5291C9.04646 7.41189 9.11231 7.25292 9.11231 7.08716V4.27466L10.9717 2.41528C11.0862 2.29845 11.1503 2.14138 11.1503 1.97778C11.1503 1.81419 11.0862 1.65711 10.9717 1.54028C10.9135 1.48123 10.8442 1.43433 10.7678 1.40232C10.6913 1.37031 10.6093 1.35383 10.5264 1.35383C10.4435 1.35383 10.3614 1.37031 10.285 1.40232C10.2085 1.43433 10.1392 1.48123 10.0811 1.54028L9.11231 2.50903V1.14966C9.11231 0.983898 9.04646 0.824927 8.92925 0.707716C8.81204 0.590506 8.65307 0.524658 8.48731 0.524658C8.32155 0.524658 8.16258 0.590506 8.04537 0.707716C7.92816 0.824927 7.86231 0.983898 7.86231 1.14966V2.54028L6.86231 1.54028C6.74548 1.42577 6.5884 1.36162 6.42481 1.36162C6.26121 1.36162 6.10414 1.42577 5.98731 1.54028C5.92825 1.59844 5.88136 1.66776 5.84935 1.74421C5.81734 1.82066 5.80085 1.90271 5.80085 1.9856C5.80085 2.06848 5.81734 2.15053 5.84935 2.22698C5.88136 2.30343 5.92825 2.37275 5.98731 2.43091L7.86231 4.30591ZM16.4248 10.9934C16.381 10.8341 16.2758 10.6986 16.1323 10.6166C15.9888 10.5346 15.8187 10.5128 15.6592 10.5559L13.1123 11.2278L10.6904 9.82153C10.6188 9.77984 10.5396 9.75282 10.4574 9.74205C10.3752 9.73127 10.2916 9.73696 10.2117 9.75877C10.1317 9.78058 10.0569 9.81808 9.99151 9.8691C9.92617 9.92011 9.87162 9.98361 9.83106 10.0559C9.78937 10.1276 9.76235 10.2068 9.75157 10.289C9.7408 10.3712 9.74648 10.4547 9.76829 10.5347C9.7901 10.6146 9.82761 10.6895 9.87862 10.7548C9.92964 10.8202 9.99314 10.8747 10.0654 10.9153L12.4873 12.3059L13.1592 14.8684C13.203 15.0277 13.3082 15.1632 13.4517 15.2452C13.5952 15.3272 13.7653 15.349 13.9248 15.3059C14.0841 15.2621 14.2196 15.1569 14.3016 15.0134C14.3836 14.8699 14.4054 14.6998 14.3623 14.5403L14.0029 13.1809L15.2061 13.884C15.2777 13.9257 15.3569 13.9527 15.4391 13.9635C15.5213 13.9743 15.6048 13.9686 15.6848 13.9468C15.7648 13.925 15.8396 13.8875 15.905 13.8365C15.9703 13.7855 16.0249 13.722 16.0654 13.6497C16.1447 13.5064 16.1645 13.3377 16.1207 13.1799C16.0769 13.0221 15.9729 12.8878 15.8311 12.8059L14.6436 12.1184L15.9873 11.759C16.1466 11.7152 16.2821 11.61 16.3641 11.4665C16.4461 11.3231 16.4679 11.1529 16.4248 10.9934ZM9.11231 14.2434V11.4622C9.11231 11.2964 9.04646 11.1374 8.92925 11.0202C8.81204 10.903 8.65307 10.8372 8.48731 10.8372C8.32155 10.8372 8.16258 10.903 8.04537 11.0202C7.92816 11.1374 7.86231 11.2964 7.86231 11.4622V14.2747L6.00293 16.134C5.88842 16.2509 5.82427 16.4079 5.82427 16.5715C5.82427 16.7351 5.88842 16.8922 6.00293 17.009C6.06109 17.0681 6.13041 17.115 6.20686 17.147C6.28331 17.179 6.36536 17.1955 6.44825 17.1955C6.53113 17.1955 6.61318 17.179 6.68963 17.147C6.76608 17.115 6.8354 17.0681 6.89356 17.009L7.86231 16.0403V17.3997C7.86231 17.5654 7.92816 17.7244 8.04537 17.8416C8.16258 17.9588 8.32155 18.0247 8.48731 18.0247C8.65307 18.0247 8.81204 17.9588 8.92925 17.8416C9.04646 17.7244 9.11231 17.5654 9.11231 17.3997V16.009L10.1123 17.009C10.2291 17.1236 10.3862 17.1877 10.5498 17.1877C10.7134 17.1877 10.8705 17.1236 10.9873 17.009C11.0464 16.9509 11.0933 16.8816 11.1253 16.8051C11.1573 16.7287 11.1738 16.6466 11.1738 16.5637C11.1738 16.4808 11.1573 16.3988 11.1253 16.3223C11.0933 16.2459 11.0464 16.1766 10.9873 16.1184L9.11231 14.2434ZM0.549808 7.55591C0.593764 7.7118 0.696525 7.84454 0.836434 7.92616C0.976342 8.00777 1.14247 8.03188 1.29981 7.99341L3.84668 7.32153L6.26856 8.72778C6.34021 8.76947 6.41944 8.79649 6.50163 8.80727C6.58383 8.81804 6.66735 8.81236 6.74732 8.79055C6.8273 8.76874 6.90214 8.73123 6.96748 8.68022C7.03283 8.62921 7.08737 8.5657 7.12793 8.49341C7.17027 8.42269 7.1982 8.3443 7.21011 8.26274C7.22203 8.18119 7.2177 8.09808 7.19737 8.01821C7.17704 7.93833 7.14111 7.86327 7.09165 7.79734C7.04219 7.7314 6.98018 7.6759 6.90918 7.63403L4.48731 6.24341L3.81543 3.68091C3.79383 3.60029 3.75631 3.52482 3.70507 3.45895C3.65383 3.39307 3.58992 3.33812 3.5171 3.29734C3.44429 3.25657 3.36404 3.23079 3.2811 3.22152C3.19816 3.21226 3.1142 3.2197 3.03418 3.24341C2.87486 3.28726 2.73938 3.39243 2.65739 3.53591C2.5754 3.67939 2.55358 3.8495 2.59668 4.00903L2.95606 5.36841L1.75293 4.66528C1.60963 4.58602 1.44094 4.56617 1.28315 4.61C1.12536 4.65383 0.991075 4.75784 0.909183 4.89966C0.866848 4.97038 0.838918 5.04877 0.827002 5.13032C0.815085 5.21188 0.819417 5.29499 0.839749 5.37486C0.860081 5.45473 0.89601 5.5298 0.945469 5.59573C0.994928 5.66166 1.05694 5.71716 1.12793 5.75903L2.31543 6.43091L0.987308 6.79028C0.907002 6.81031 0.831474 6.8461 0.765108 6.89555C0.698742 6.94501 0.64286 7.00715 0.600706 7.07838C0.558551 7.14961 0.530963 7.2285 0.519544 7.31047C0.508124 7.39245 0.5131 7.47587 0.534183 7.55591H0.549808Z" fill="#BDA76E"/>
</svg>
