<svg width="20" height="20" viewBox="0 0 20 20" fill="none" xmlns="http://www.w3.org/2000/svg">
<path fill-rule="evenodd" clip-rule="evenodd" d="M4.44564 3.69546C4.44564 3.53951 4.41492 3.38509 4.35525 3.24102C4.29557 3.09694 4.2081 2.96604 4.09783 2.85577C3.98756 2.7455 3.85665 2.65803 3.71257 2.59835C3.5685 2.53867 3.41408 2.50795 3.25814 2.50795C3.10219 2.50795 2.94778 2.53867 2.8037 2.59835C2.65963 2.65803 2.52872 2.7455 2.41845 2.85577C2.30818 2.96604 2.22071 3.09694 2.16103 3.24102C2.10135 3.38509 2.07064 3.53951 2.07064 3.69546C2.07064 4.0104 2.19575 4.31244 2.41845 4.53514C2.64115 4.75784 2.94319 4.88296 3.25814 4.88296C3.57308 4.88296 3.87513 4.75784 4.09783 4.53514C4.32053 4.31244 4.44564 4.0104 4.44564 3.69546ZM3.25814 4.09129C3.15316 4.09129 3.05247 4.04958 2.97824 3.97535C2.90401 3.90112 2.8623 3.80044 2.8623 3.69546C2.8623 3.59047 2.90401 3.48979 2.97824 3.41556C3.05247 3.34133 3.15316 3.29962 3.25814 3.29962C3.36312 3.29962 3.4638 3.34133 3.53803 3.41556C3.61227 3.48979 3.65397 3.59047 3.65397 3.69546C3.65397 3.80044 3.61227 3.90112 3.53803 3.97535C3.4638 4.04958 3.36312 4.09129 3.25814 4.09129ZM6.4248 4.88296C6.58075 4.88296 6.73517 4.85224 6.87924 4.79256C7.02332 4.73288 7.15422 4.64541 7.26449 4.53514C7.37476 4.42487 7.46223 4.29397 7.52191 4.14989C7.58159 4.00582 7.6123 3.8514 7.6123 3.69546C7.6123 3.53951 7.58159 3.38509 7.52191 3.24102C7.46223 3.09694 7.37476 2.96604 7.26449 2.85577C7.15422 2.7455 7.02332 2.65803 6.87924 2.59835C6.73517 2.53867 6.58075 2.50795 6.4248 2.50795C6.10986 2.50795 5.80781 2.63307 5.58512 2.85577C5.36242 3.07847 5.2373 3.38051 5.2373 3.69546C5.2373 4.0104 5.36242 4.31244 5.58512 4.53514C5.80781 4.75784 6.10986 4.88296 6.4248 4.88296ZM6.4248 3.29962C6.52979 3.29962 6.63047 3.34133 6.7047 3.41556C6.77893 3.48979 6.82064 3.59047 6.82064 3.69546C6.82064 3.80044 6.77893 3.90112 6.7047 3.97535C6.63047 4.04958 6.52979 4.09129 6.4248 4.09129C6.31982 4.09129 6.21914 4.04958 6.14491 3.97535C6.07068 3.90112 6.02897 3.80044 6.02897 3.69546C6.02897 3.59047 6.07068 3.48979 6.14491 3.41556C6.21914 3.34133 6.31982 3.29962 6.4248 3.29962ZM9.9873 5.67462C6.49606 5.67462 3.65397 8.51671 3.65397 12.008C3.65397 15.4992 6.49606 18.3413 9.9873 18.3413C13.4786 18.3413 16.3206 15.4992 16.3206 12.008C16.3206 8.51671 13.4786 5.67462 9.9873 5.67462ZM9.9873 17.5496C7.00272 17.5496 4.57231 15.1825 4.45355 12.2217C4.73064 12.0396 5.11856 11.7705 5.12647 11.7705C6.42481 10.9392 7.74689 10.9313 9.75772 12.3325C12.0377 13.9238 13.7081 13.908 15.2677 12.9105L15.4656 12.7759C15.0936 15.4675 12.7819 17.5496 9.9873 17.5496ZM14.8402 12.2455C13.5419 13.0767 12.2198 13.0846 10.209 11.6834C7.92897 10.0921 6.25855 10.108 4.69897 11.1055L4.50105 11.24C4.88105 8.54837 7.19272 6.46629 9.9873 6.46629C12.9719 6.46629 15.4023 8.83337 15.5211 11.7942C15.244 11.9763 14.8561 12.2455 14.8481 12.2455H14.8402ZM17.5081 0.924622H2.46647C1.94221 0.926706 1.44001 1.13589 1.06929 1.50661C0.698577 1.87732 0.489389 2.37952 0.487305 2.90379L0.487305 17.9455C0.487305 19.038 1.37397 19.9246 2.46647 19.9246H17.5081C18.6006 19.9246 19.4873 19.038 19.4873 17.9455V2.90379C19.4873 1.8192 18.6006 0.924622 17.5081 0.924622ZM18.6956 17.9455C18.6956 18.6025 18.1573 19.133 17.5081 19.133H2.46647C1.80939 19.133 1.27897 18.5946 1.27897 17.9455V2.90379C1.27897 2.25462 1.8173 1.71629 2.46647 1.71629H17.5081C18.1652 1.71629 18.6956 2.25462 18.6956 2.90379V17.9455Z" fill="#BDA76E"/>
</svg>
