<svg width="21" height="21" viewBox="0 0 21 21" fill="none" xmlns="http://www.w3.org/2000/svg">
<path d="M15.0711 4.68599L14.6285 4.17548L14.1859 4.68603C14.1374 4.74192 13.1471 5.88942 12.0482 7.51907C11.6423 6.74442 11.1686 5.93513 10.627 5.09216C9.05767 2.64981 7.51247 0.860205 7.44747 0.785205L7.00489 0.274658L6.56228 0.785166C6.49724 0.860127 4.95208 2.64978 3.38278 5.09212C1.24458 8.41974 0.1604 11.225 0.1604 13.4302C0.1604 17.2043 3.23083 20.2747 7.00485 20.2747C8.51353 20.2747 9.90942 19.7836 11.042 18.9536C12.0408 19.8089 13.2956 20.2747 14.6285 20.2747C17.6756 20.2747 20.1546 17.7956 20.1546 14.7485C20.1546 10.5976 15.2787 4.92544 15.0711 4.68599ZM7.00481 19.1031C3.87677 19.1031 1.33192 16.5583 1.33192 13.4302C1.33192 9.43067 5.59931 3.82462 7.00493 2.08677C8.41056 3.82372 12.6777 9.427 12.6777 13.4302C12.6777 16.5583 10.1329 19.1031 7.00481 19.1031ZM14.6285 19.1031C13.6368 19.1031 12.6999 18.7758 11.9359 18.1719C13.12 16.9409 13.8493 15.2692 13.8493 13.4302C13.8493 12.0852 13.4452 10.5165 12.6453 8.74259C13.4019 7.56431 14.1652 6.56837 14.6282 5.99075C15.8158 7.47423 18.9831 11.7154 18.9831 14.7486C18.9831 17.1497 17.0296 19.1031 14.6285 19.1031Z" fill="#BDA76E"/>
<path d="M11.618 13.2207C11.5746 12.0569 11.1252 11.2075 11.1061 11.1719L10.074 11.7261C10.0774 11.7324 10.4145 12.3832 10.4474 13.2644C10.4916 14.4499 9.97814 15.476 8.92139 16.3141L9.64939 17.232C11.3498 15.8834 11.6585 14.3063 11.618 13.2207Z" fill="#BDA76E"/>
<path d="M18.232 14.661C18.2012 13.8353 17.8942 13.2414 17.8593 13.1764L17.3432 13.4535L16.8254 13.7273C16.8277 13.7317 17.0509 14.1674 17.0624 14.746C17.077 15.4793 16.7481 16.1177 16.085 16.6436L16.813 17.5615C18.0389 16.5892 18.2613 15.4476 18.232 14.661Z" fill="#BDA76E"/>
</svg>
