<svg width="20" height="20" viewBox="0 0 20 20" fill="none" xmlns="http://www.w3.org/2000/svg">
<path fill-rule="evenodd" clip-rule="evenodd" d="M9.65742 12.7996C9.02753 12.7996 8.42344 13.0498 7.97804 13.4952C7.53265 13.9406 7.28242 14.5447 7.28242 15.1746C7.28242 15.8045 7.53265 16.4086 7.97804 16.854C8.42344 17.2994 9.02753 17.5496 9.65742 17.5496C10.2873 17.5496 10.8914 17.2994 11.3368 16.854C11.7822 16.4086 12.0324 15.8045 12.0324 15.1746C12.0324 14.5447 11.7822 13.9406 11.3368 13.4952C10.8914 13.0498 10.2873 12.7996 9.65742 12.7996ZM9.65742 16.758C9.2375 16.758 8.83477 16.5911 8.53784 16.2942C8.24091 15.9973 8.07409 15.5945 8.07409 15.1746C8.07409 14.7547 8.24091 14.352 8.53784 14.055C8.83477 13.7581 9.2375 13.5913 9.65742 13.5913C10.0773 13.5913 10.4801 13.7581 10.777 14.055C11.0739 14.352 11.2408 14.7547 11.2408 15.1746C11.2408 15.5945 11.0739 15.9973 10.777 16.2942C10.4801 16.5911 10.0773 16.758 9.65742 16.758ZM14.3441 12.1821C14.3727 12.2258 14.3924 12.2747 14.4021 12.3259C14.4118 12.3772 14.4113 12.4299 14.4006 12.481C14.39 12.5321 14.3694 12.5806 14.34 12.6237C14.3106 12.6668 14.273 12.7037 14.2293 12.7323C14.1856 12.7609 14.1368 12.7806 14.0855 12.7903C14.0342 12.8 13.9815 12.7995 13.9304 12.7889C13.8793 12.7782 13.8308 12.7576 13.7877 12.7282C13.7446 12.6988 13.7077 12.6612 13.6791 12.6175C12.737 11.1846 11.2487 10.4246 9.65742 10.4246C8.06617 10.4246 6.57784 11.1846 5.63576 12.6255C5.57802 12.7136 5.48761 12.7753 5.38443 12.7968C5.28124 12.8183 5.17373 12.798 5.08555 12.7402C4.99736 12.6825 4.93573 12.5921 4.9142 12.4889C4.89267 12.3857 4.91302 12.2782 4.97076 12.19C6.06326 10.5275 7.80492 9.63296 9.65742 9.63296C11.5099 9.63296 13.2516 10.5275 14.3441 12.19V12.1821ZM16.7033 9.78337C16.7389 9.82402 16.7658 9.87154 16.7823 9.92298C16.7988 9.97442 16.8047 10.0287 16.7994 10.0825C16.7942 10.1363 16.778 10.1884 16.7519 10.2357C16.7257 10.283 16.6902 10.3244 16.6474 10.3574C16.6046 10.3905 16.5555 10.4144 16.5032 10.4277C16.4508 10.4411 16.3963 10.4435 16.3429 10.435C16.2895 10.4265 16.2385 10.4071 16.1929 10.3781C16.1473 10.3491 16.1082 10.311 16.0778 10.2663C14.7637 8.57212 11.9453 7.25796 9.65742 7.25796C7.41701 7.25796 4.70159 8.54045 3.22909 10.2821C3.16085 10.3619 3.06371 10.4113 2.95905 10.4195C2.85438 10.4276 2.75075 10.3939 2.67097 10.3257C2.59118 10.2574 2.54177 10.1603 2.5336 10.0556C2.52544 9.95095 2.55919 9.84732 2.62742 9.76754C4.25034 7.85171 7.17951 6.46629 9.65742 6.46629C12.1828 6.46629 15.2387 7.89129 16.7033 9.78337ZM19.0387 7.93879C19.0008 7.97487 18.9562 8.0031 18.9074 8.02185C18.8586 8.0406 18.8066 8.0495 18.7543 8.04802C18.7021 8.04655 18.6506 8.03474 18.6029 8.01328C18.5553 7.99181 18.5123 7.96111 18.4766 7.92296C16.1491 5.49254 13.1645 4.09129 9.65742 4.09129C6.15034 4.09129 3.16576 5.49254 0.838257 7.93087C0.763977 7.99767 0.667185 8.03392 0.567298 8.03234C0.46741 8.03075 0.371816 7.99146 0.299689 7.92234C0.227562 7.85322 0.184239 7.75938 0.178409 7.65965C0.17258 7.55992 0.204675 7.46168 0.268257 7.38462C2.73826 4.79587 5.92076 3.29962 9.65742 3.29962C13.3941 3.29962 16.5766 4.79587 19.0466 7.38462C19.0827 7.42245 19.1109 7.46706 19.1297 7.51586C19.1484 7.56467 19.1573 7.6167 19.1558 7.66896C19.1544 7.72122 19.1425 7.77268 19.1211 7.82035C19.0996 7.86802 19.0689 7.91096 19.0308 7.9467L19.0387 7.93879Z" fill="#BDA76E"/>
</svg>
