<?xml version="1.0" encoding="utf-8"?>
<!-- Generator: Adobe Illustrator 26.0.1, SVG Export Plug-In . SVG Version: 6.00 Build 0)  -->
<svg version="1.1" id="Layer_1" xmlns="http://www.w3.org/2000/svg" xmlns:xlink="http://www.w3.org/1999/xlink" x="0px" y="0px"
	 viewBox="0 0 442 692" style="enable-background:new 0 0 442 692;" xml:space="preserve">
<style type="text/css">
	.st0{fill:#C0FCFC;}
	.st1{opacity:0.5;fill-rule:evenodd;clip-rule:evenodd;fill:url(#SVGID_1_);enable-background:new    ;}
	.st2{fill-rule:evenodd;clip-rule:evenodd;fill:url(#SVGID_00000046313104714180895870000000176134838602790565_);}
	.st3{fill-rule:evenodd;clip-rule:evenodd;fill:#7548CF;}
	
		.st4{opacity:0.5;fill-rule:evenodd;clip-rule:evenodd;fill:url(#SVGID_00000088835105062600093490000007298910981874186635_);enable-background:new    ;}
	
		.st5{opacity:0.3;fill-rule:evenodd;clip-rule:evenodd;fill:url(#SVGID_00000183940832580523477790000002201073715100496537_);enable-background:new    ;}
	.st6{fill-rule:evenodd;clip-rule:evenodd;fill:url(#SVGID_00000119113708642789041100000003653166263213131953_);}
	
		.st7{opacity:0.3;fill-rule:evenodd;clip-rule:evenodd;fill:url(#SVGID_00000170974218785434156310000008623943296984003510_);enable-background:new    ;}
	
		.st8{opacity:0.3;fill-rule:evenodd;clip-rule:evenodd;fill:url(#SVGID_00000017499151492141859270000004785693909260937883_);enable-background:new    ;}
	
		.st9{opacity:0.3;fill-rule:evenodd;clip-rule:evenodd;fill:url(#SVGID_00000119797988995752592830000001661002024255767701_);enable-background:new    ;}
	.st10{fill-rule:evenodd;clip-rule:evenodd;fill:url(#SVGID_00000021086385210006715390000005112746420145886351_);}
	
		.st11{opacity:0.5;fill-rule:evenodd;clip-rule:evenodd;fill:url(#SVGID_00000023256539813383080870000011284674692884517514_);enable-background:new    ;}
	.st12{fill-rule:evenodd;clip-rule:evenodd;fill:url(#SVGID_00000023983788106493809570000003117881826965282726_);}
	
		.st13{opacity:0.5;fill-rule:evenodd;clip-rule:evenodd;fill:url(#SVGID_00000052790302213599669970000000039190554237389470_);enable-background:new    ;}
	.st14{fill-rule:evenodd;clip-rule:evenodd;fill:#5242A4;}
	.st15{fill-rule:evenodd;clip-rule:evenodd;fill:url(#SVGID_00000024714777882716232520000005052837640097670579_);}
	
		.st16{opacity:0.5;fill-rule:evenodd;clip-rule:evenodd;fill:url(#SVGID_00000088102263859397777320000013519265204053010057_);enable-background:new    ;}
	.st17{fill-rule:evenodd;clip-rule:evenodd;fill:url(#SVGID_00000142875266506678864570000014790422953925393071_);}
	
		.st18{opacity:0.5;fill-rule:evenodd;clip-rule:evenodd;fill:url(#SVGID_00000177464229018462881870000015909516632305395631_);enable-background:new    ;}
	
		.st19{opacity:0.5;fill-rule:evenodd;clip-rule:evenodd;fill:url(#SVGID_00000002359266988807498300000006823147484832744069_);enable-background:new    ;}
	
		.st20{opacity:0.5;fill-rule:evenodd;clip-rule:evenodd;fill:url(#SVGID_00000048461728246606302940000016919681543016786349_);enable-background:new    ;}
	
		.st21{opacity:0.5;fill-rule:evenodd;clip-rule:evenodd;fill:url(#SVGID_00000101084334414071144380000015372554408292293521_);enable-background:new    ;}
	
		.st22{opacity:0.5;fill-rule:evenodd;clip-rule:evenodd;fill:url(#SVGID_00000090283175228946258770000014115020731533059239_);enable-background:new    ;}
	.st23{opacity:0.3;fill:url(#SVGID_00000026158643585261216450000002769761975405328818_);enable-background:new    ;}
	.st24{fill:url(#SVGID_00000076600858711247280670000013539531515607995834_);}
	.st25{fill:#F26B29;}
	.st26{fill:url(#SVGID_00000080172817736748300470000015981394914692829573_);}
	.st27{fill:url(#SVGID_00000178179592057846280430000011712241838060317852_);}
	.st28{fill:url(#SVGID_00000049922997916517093730000013453066021005762208_);}
	.st29{fill:url(#SVGID_00000124137797531804248490000003486570200754583945_);}
	.st30{fill-rule:evenodd;clip-rule:evenodd;fill:url(#SVGID_00000130639052337788297110000007964505717611566743_);}
	.st31{fill-rule:evenodd;clip-rule:evenodd;fill:#54345F;}
	.st32{fill:#FFFFFF;}
	.st33{fill:#F89B4F;}
	.st34{fill:none;}
	.st35{clip-path:url(#SVGID_00000124158849311230769600000011253832385884359848_);}
	.st36{clip-path:url(#SVGID_00000046329771984775699820000009112099591388424101_);}
	.st37{clip-path:url(#SVGID_00000046312287785519407850000000410316199544744088_);}
	.st38{fill:#FFDEB2;}
	.st39{fill:#FCFADB;}
	.st40{clip-path:url(#SVGID_00000089550281109992685190000001855938964783191696_);}
	.st41{clip-path:url(#SVGID_00000082357552018291846980000006171417998759219363_);}
	.st42{clip-path:url(#SVGID_00000078734223818727486130000013065285778227848628_);}
	.st43{fill:#F47D41;}
	.st44{fill:#F9AD9B;}
	.st45{fill:#1D1C1A;}
	.st46{clip-path:url(#SVGID_00000047050298199993175890000010790744387700363142_);}
	.st47{clip-path:url(#SVGID_00000026123114753696372580000003224100037903332522_);}
	.st48{clip-path:url(#SVGID_00000084492446754061620750000014738924685603404170_);}
	.st49{fill:#F36D49;}
	.st50{fill:#F5F5F5;}
	
		.st51{clip-path:url(#SVGID_00000003818946276440930040000015870546881035167891_);fill:url(#SVGID_00000183930999798271748470000012289679833180604351_);}
	.st52{clip-path:url(#SVGID_00000101077263872379712490000005196126850823668917_);fill:#1D1C1A;}
	.st53{clip-path:url(#SVGID_00000139267356052138273620000009105498266037050009_);fill:#FFFFFF;}
	.st54{fill:#B2B2B2;}
	.st55{fill:url(#SVGID_00000140709283629800270970000013903969843035442585_);}
	.st56{fill:url(#SVGID_00000057834732924540175630000013667536665291706798_);}
	.st57{opacity:0.1;fill:#33243A;enable-background:new    ;}
	.st58{fill:#54345F;}
	.st59{fill:url(#SVGID_00000032650516477623460090000003692601992052062856_);}
	.st60{fill:url(#SVGID_00000106852418097097984620000003145394290597043862_);}
	.st61{fill:url(#SVGID_00000003783575042349028910000001052655136619969200_);}
	.st62{fill:url(#SVGID_00000167386249436241442310000011799564000846406795_);}
	.st63{fill:#684D73;}
	.st64{fill:#F37D42;}
	.st65{fill:#33243A;}
	.st66{opacity:0.3;fill:#FFFFFF;enable-background:new    ;}
</style>
<g>
	<path class="st0" d="M330.6,287.1c0.2-0.4,0.4-0.8,0.5-1.2C330.8,286.5,330.6,286.9,330.6,287.1z"/>
	<path class="st0" d="M331.3,285.4c0-0.1,0.1-0.2,0.1-0.3C331.4,285.2,331.4,285.3,331.3,285.4z"/>
</g>
<g>
	<g>
		
			<linearGradient id="SVGID_1_" gradientUnits="userSpaceOnUse" x1="235.3736" y1="-99.6103" x2="235.3736" y2="67.8897" gradientTransform="matrix(1 0 0 -1 0 541.8897)">
			<stop  offset="0" style="stop-color:#745EBD"/>
			<stop  offset="1" style="stop-color:#542E77"/>
		</linearGradient>
		<path class="st1" d="M77.8,474c0,0-6.5,32.3-5.8,40s15.5,24.8,15.5,24.8s15.6,33.5,20.5,49.9s21.8,37.2,21.8,37.2
			s100.9,15.6,128.4,15.6c27.6,0,41.5-12.9,41.5-12.9s38.9-67.5,42.3-70.9s22.8-10.3,22.8-10.3s31.5-56.9,34-71.9l-87.7,3.6
			L77.8,474z"/>
		<g>
			
				<linearGradient id="SVGID_00000078019426976493173710000011111648535613600949_" gradientUnits="userSpaceOnUse" x1="71.9473" y1="-15.8603" x2="398.8" y2="-15.8603" gradientTransform="matrix(1 0 0 -1 0 541.8897)">
				<stop  offset="0" style="stop-color:#941ECE"/>
				<stop  offset="0.9811" style="stop-color:#2A1E81"/>
			</linearGradient>
			<path style="fill-rule:evenodd;clip-rule:evenodd;fill:url(#SVGID_00000078019426976493173710000011111648535613600949_);" d="
				M77.8,474c0,0-6.5,32.3-5.8,40s15.5,24.8,15.5,24.8s15.6,33.5,20.5,49.9s21.8,37.2,21.8,37.2s100.9,15.6,128.4,15.6
				c27.6,0,41.5-12.9,41.5-12.9s38.9-67.5,42.3-70.9s22.8-10.3,22.8-10.3s31.5-56.9,34-71.9l-87.7,3.6L77.8,474z"/>
			<path class="st3" d="M77.8,473.8l41.4-5.2l24.1-4.1c0,0,114,0.3,146.7,2.2c0,0,27.3-11,34.8-11.3c7.4-0.2,21.8,13.2,21.8,13.2
				l52.2,6.8c0,0-23.8,8.3-42.2,7.9l17.5,5.9c0,0-4.1,3.4-11.1,5.6c-7,2.1-59.2,3.6-84,3.4c-24.8-0.3-35.7-8.9-35.7-8.9l11.4-4.3
				l-13.4-1.6c0,0-40.5,7.1-56,7.6s-35.4-3.3-35.4-3.3l-1.5-5.3C148.5,482.4,106.5,480.1,77.8,473.8z"/>
			
				<linearGradient id="SVGID_00000096748731638199690770000004500858200344256436_" gradientUnits="userSpaceOnUse" x1="171.05" y1="-96.7029" x2="171.05" y2="62.5971" gradientTransform="matrix(1 0 0 -1 0 541.8897)">
				<stop  offset="0" style="stop-color:#745EBD"/>
				<stop  offset="1" style="stop-color:#542E77"/>
			</linearGradient>
			
				<path style="opacity:0.5;fill-rule:evenodd;clip-rule:evenodd;fill:url(#SVGID_00000096748731638199690770000004500858200344256436_);enable-background:new    ;" d="
				M138.7,481.9v22.5l-22.9,3.9c0,0-1,0.4-3.5,6.9c-2.5,6.5-14.2,22.4-14.2,22.4l-10.6,1.2l8.5,19c0,0,12.2,0.1,17.1,3.1
				s15.6,12,15.6,12l6.5,17.7c0,0,6.5-32.8,6.9-38s6.7-27.4,5.7-31.2s0.4-18.4,0.4-18.4l1.7-15.3c0,0,33.1,4.5,36.6,5.8
				s5,15.1,5,15.1l11.3,26l-12.7,38l4.9,32.2l1.5,24.2l10.6,7.5l14.4,1.8c0,0,18.8-53.1,19.7-57s-3.1-12.9-3.1-12.9l5.7-39.6
				l-0.6-39.7l11.4-4.3l-13.4-1.6c0,0-42.1,6.3-49.1,6.9s-42.4-5.9-42.4-5.9l21.2-5.2L138.7,481.9z"/>
			
				<linearGradient id="SVGID_00000164476223334701361960000017574645231785496734_" gradientUnits="userSpaceOnUse" x1="343.2" y1="-92.1103" x2="343.2" y2="66.2897" gradientTransform="matrix(1 0 0 -1 0 541.8897)">
				<stop  offset="0" style="stop-color:#745EBD"/>
				<stop  offset="1" style="stop-color:#542E77"/>
			</linearGradient>
			
				<path style="opacity:0.3;fill-rule:evenodd;clip-rule:evenodd;fill:url(#SVGID_00000164476223334701361960000017574645231785496734_);enable-background:new    ;" d="
				M320.5,498.4l28.4,4.7l-4.5,10.8L332,543.7l-14.8,14.1l-16.7,6.2l-12.9,9h11.2l-0.9,12l-6,28.6l-0.3,20.4l7.6-1
				c0,0,30.4-55,42.8-75.2c0,0,20.6-6.4,22.8-10.3c2.1-3.9,31.3-58.5,34-71.9l-42.2,7.9l17.5,5.9c0,0-12.3,5.5-20.5,6.8
				C345.4,497.5,320.5,498.4,320.5,498.4z"/>
			
				<linearGradient id="SVGID_00000044879157924524560690000016795138805630953642_" gradientUnits="userSpaceOnUse" x1="295.5" y1="73.6397" x2="347.9" y2="73.6397" gradientTransform="matrix(1 0 0 -1 0 541.8897)">
				<stop  offset="0" style="stop-color:#745EBD"/>
				<stop  offset="1" style="stop-color:#542E77"/>
			</linearGradient>
			<path style="fill-rule:evenodd;clip-rule:evenodd;fill:url(#SVGID_00000044879157924524560690000016795138805630953642_);" d="
				M347.9,468.9l-8.9,5l-13.9,0.3h-29.6c0,0,22.8-2,26.2-2.7c3.4-0.7,16.6-4.8,16.6-4.8l0.8-4.4L347.9,468.9z"/>
			
				<linearGradient id="SVGID_00000005248711807148614510000002570582402445812619_" gradientUnits="userSpaceOnUse" x1="348.5161" y1="-26.0986" x2="96.9848" y2="60.3653" gradientTransform="matrix(1 0 0 -1 0 541.8897)">
				<stop  offset="0" style="stop-color:#745EBD"/>
				<stop  offset="1" style="stop-color:#542E77"/>
			</linearGradient>
			
				<polygon style="opacity:0.3;fill-rule:evenodd;clip-rule:evenodd;fill:url(#SVGID_00000005248711807148614510000002570582402445812619_);enable-background:new    ;" points="
				138.7,504.4 148.3,526.8 149.9,484.6 171.2,479.4 138.7,481.9 			"/>
			
				<linearGradient id="SVGID_00000127035813341608657440000007119473823588970684_" gradientUnits="userSpaceOnUse" x1="377.7" y1="-2.3103" x2="377.7" y2="66.3897" gradientTransform="matrix(1 0 0 -1 0 541.8897)">
				<stop  offset="0" style="stop-color:#745EBD"/>
				<stop  offset="1" style="stop-color:#542E77"/>
			</linearGradient>
			
				<path style="opacity:0.3;fill-rule:evenodd;clip-rule:evenodd;fill:url(#SVGID_00000127035813341608657440000007119473823588970684_);enable-background:new    ;" d="
				M356.6,483.5l17.5,5.9l-7.6,54.8c0,0,23.6-44.9,32.3-68.7L356.6,483.5z"/>
			
				<linearGradient id="SVGID_00000034811696917518002970000011297183985661912765_" gradientUnits="userSpaceOnUse" x1="354.5061" y1="-8.6733" x2="102.9748" y2="77.7906" gradientTransform="matrix(1 0 0 -1 0 541.8897)">
				<stop  offset="0" style="stop-color:#745EBD"/>
				<stop  offset="1" style="stop-color:#542E77"/>
			</linearGradient>
			
				<polygon style="opacity:0.3;fill-rule:evenodd;clip-rule:evenodd;fill:url(#SVGID_00000034811696917518002970000011297183985661912765_);enable-background:new    ;" points="
				192.3,490.5 214.7,512.1 228.5,526.8 231.3,539.4 243.6,531.5 243.4,489.4 254.8,485.1 241.4,483.5 			"/>
		</g>
		<g>
			
				<linearGradient id="SVGID_00000098911254872569208030000003833014758425300920_" gradientUnits="userSpaceOnUse" x1="121.699" y1="79.9253" x2="147.8376" y2="77.9148" gradientTransform="matrix(0.9328 0.3605 0.3605 -0.9328 -73.0931 474.2986)">
				<stop  offset="0" style="stop-color:#941ECE"/>
				<stop  offset="0.9811" style="stop-color:#2A1E81"/>
			</linearGradient>
			
				<polygon style="fill-rule:evenodd;clip-rule:evenodd;fill:url(#SVGID_00000098911254872569208030000003833014758425300920_);" points="
				96.6,457.7 90.6,445.8 81.3,446.6 72.1,453 97.7,462.9 			"/>
			
				<linearGradient id="SVGID_00000124871627118351694310000008769015175235134605_" gradientUnits="userSpaceOnUse" x1="2873.5288" y1="72.1431" x2="2873.5288" y2="81.504" gradientTransform="matrix(-0.9328 -0.3605 0.3605 -0.9328 2739.3291 1561.1287)">
				<stop  offset="0" style="stop-color:#745EBD"/>
				<stop  offset="1" style="stop-color:#542E77"/>
			</linearGradient>
			
				<polygon style="opacity:0.5;fill-rule:evenodd;clip-rule:evenodd;fill:url(#SVGID_00000124871627118351694310000008769015175235134605_);enable-background:new    ;" points="
				96.6,457.7 82.2,453.5 81.3,446.6 72.1,453 97.7,462.9 			"/>
		</g>
		<g>
			
				<linearGradient id="SVGID_00000008841502492551559350000017567243315513978021_" gradientUnits="userSpaceOnUse" x1="334.3913" y1="-78.5247" x2="368.0698" y2="-74.5034" gradientTransform="matrix(1 0 0 -1 0 541.8897)">
				<stop  offset="0" style="stop-color:#941ECE"/>
				<stop  offset="0.9811" style="stop-color:#2A1E81"/>
			</linearGradient>
			
				<polygon style="fill-rule:evenodd;clip-rule:evenodd;fill:url(#SVGID_00000008841502492551559350000017567243315513978021_);" points="
				392.1,637.5 373.4,605 359,593.5 353,595.8 336.2,615.5 361.2,626.8 			"/>
			
				<linearGradient id="SVGID_00000054944905118072836850000005440054384905995392_" gradientUnits="userSpaceOnUse" x1="2497.27" y1="-390.6686" x2="2497.27" y2="-365.7795" gradientTransform="matrix(-0.9113 -0.4118 0.4118 -0.9113 2800.2019 1300.16)">
				<stop  offset="0" style="stop-color:#745EBD"/>
				<stop  offset="1" style="stop-color:#542E77"/>
			</linearGradient>
			
				<polygon style="opacity:0.5;fill-rule:evenodd;clip-rule:evenodd;fill:url(#SVGID_00000054944905118072836850000005440054384905995392_);enable-background:new    ;" points="
				373.4,605 360.3,600.8 357.5,615.4 341,612.3 350.6,598.6 336.2,615.5 361.2,626.8 392.1,637.5 			"/>
			<polygon class="st14" points="360.3,600.8 356.3,594.6 359,593.5 373.4,605 			"/>
		</g>
		<g>
			
				<linearGradient id="SVGID_00000031927831310551444650000015718674762893062289_" gradientUnits="userSpaceOnUse" x1="387.287" y1="46.8118" x2="418.4521" y2="47.8172" gradientTransform="matrix(1 0 0 -1 0 541.8897)">
				<stop  offset="0" style="stop-color:#941ECE"/>
				<stop  offset="0.9811" style="stop-color:#2A1E81"/>
			</linearGradient>
			
				<polygon style="fill-rule:evenodd;clip-rule:evenodd;fill:url(#SVGID_00000031927831310551444650000015718674762893062289_);" points="
				435,514.2 425.6,484.8 420.7,476.6 406.4,473.8 403.1,477.5 403.1,514.3 			"/>
			
				<linearGradient id="SVGID_00000124136783875603395540000008435604527605352846_" gradientUnits="userSpaceOnUse" x1="2596.0823" y1="27.552" x2="2596.0823" y2="65.3358" gradientTransform="matrix(-1 0 0 -1 3015.1323 541.8897)">
				<stop  offset="0" style="stop-color:#745EBD"/>
				<stop  offset="1" style="stop-color:#542E77"/>
			</linearGradient>
			
				<polygon style="opacity:0.5;fill-rule:evenodd;clip-rule:evenodd;fill:url(#SVGID_00000124136783875603395540000008435604527605352846_);enable-background:new    ;" points="
				420.7,476.6 414.4,477.4 410.8,478.3 413.5,501.3 411.9,504.1 408.8,484.8 407.9,484.8 409.3,505 403.1,514.3 435,514.2 
				425.6,484.8 			"/>
			<polygon class="st14" points="420.7,476.6 410.8,478.3 403.1,477.5 406.4,473.8 			"/>
		</g>
		<g>
			
				<linearGradient id="SVGID_00000095297858391866230700000010486050465594778011_" gradientUnits="userSpaceOnUse" x1="352.4797" y1="99.6845" x2="369.0967" y2="103.839" gradientTransform="matrix(1 0 0 -1 0 541.8897)">
				<stop  offset="0" style="stop-color:#941ECE"/>
				<stop  offset="0.9811" style="stop-color:#2A1E81"/>
			</linearGradient>
			
				<polygon style="fill-rule:evenodd;clip-rule:evenodd;fill:url(#SVGID_00000095297858391866230700000010486050465594778011_);" points="
				359.8,435 363.8,434.1 373,437.8 371.2,442.9 356.7,441.1 			"/>
			
				<linearGradient id="SVGID_00000074431347862323032600000001643854247214926009_" gradientUnits="userSpaceOnUse" x1="2650.2822" y1="98.9897" x2="2650.2822" y2="106.9112" gradientTransform="matrix(-1 0 0 -1 3015.1323 541.8897)">
				<stop  offset="0" style="stop-color:#745EBD"/>
				<stop  offset="1" style="stop-color:#542E77"/>
			</linearGradient>
			
				<polygon style="opacity:0.5;fill-rule:evenodd;clip-rule:evenodd;fill:url(#SVGID_00000074431347862323032600000001643854247214926009_);enable-background:new    ;" points="
				373,437.8 366.1,439.3 359.7,438.5 359.8,435 356.7,441.1 371.2,442.9 			"/>
		</g>
	</g>
	
		<linearGradient id="SVGID_00000104672506269514385440000002813895007742231424_" gradientUnits="userSpaceOnUse" x1="338.4543" y1="40.8546" x2="336.7289" y2="50.6316" gradientTransform="matrix(1 0 0 -1 0 541.8897)">
		<stop  offset="0" style="stop-color:#745EBD"/>
		<stop  offset="1" style="stop-color:#542E77"/>
	</linearGradient>
	
		<path style="opacity:0.5;fill-rule:evenodd;clip-rule:evenodd;fill:url(#SVGID_00000104672506269514385440000002813895007742231424_);enable-background:new    ;" d="
		M347.2,488.6l-31.3,3l1.7,1.3c2.2,1.6,4.8,2.4,7.6,2.3c2.1-0.1,4.1-0.1,6.2-0.2l26-1.6c0.6,0,0.7-0.8,0.1-1L347.2,488.6z"/>
	
		<linearGradient id="SVGID_00000146467276277071974920000003535988544452214693_" gradientUnits="userSpaceOnUse" x1="292.4591" y1="51.3519" x2="257.5358" y2="66.319" gradientTransform="matrix(1 0 0 -1 0 541.8897)">
		<stop  offset="0" style="stop-color:#745EBD"/>
		<stop  offset="1" style="stop-color:#542E77"/>
	</linearGradient>
	
		<path style="opacity:0.5;fill-rule:evenodd;clip-rule:evenodd;fill:url(#SVGID_00000146467276277071974920000003535988544452214693_);enable-background:new    ;" d="
		M254.8,473.4l-10.5,3.8c-1.7,1.4-1,4.1,1.1,4.5l9.1,1.9c0.2,0,0.3,0.1,0.5,0.1h35.5c1.2,0,2.3-0.9,2.5-2.1l0,0
		c0.2-1.4-0.6-2.7-1.9-3L272,474C271.1,473.8,255.4,472.9,254.8,473.4z"/>
	
		<linearGradient id="SVGID_00000155146764458746612370000017995226488443642285_" gradientUnits="userSpaceOnUse" x1="189.6707" y1="46.7657" x2="185.5222" y2="64.1895" gradientTransform="matrix(1 0 0 -1 0 541.8897)">
		<stop  offset="0" style="stop-color:#745EBD"/>
		<stop  offset="1" style="stop-color:#542E77"/>
	</linearGradient>
	
		<path style="opacity:0.5;fill-rule:evenodd;clip-rule:evenodd;fill:url(#SVGID_00000155146764458746612370000017995226488443642285_);enable-background:new    ;" d="
		M201.2,480.1l-36.9,1.1l11.7,2.3c1.1,0.2,17.4,0.3,24.5,0.4c1.8,0,3.6-0.3,5.3-0.8c0.6-0.2,1.2-0.5,1.7-0.9l0.9-0.6
		c0.3-0.7-0.9-0.8-1.7-0.9L201.2,480.1L201.2,480.1z"/>
	
		<linearGradient id="SVGID_00000088843570426648372460000014814600475556625065_" gradientUnits="userSpaceOnUse" x1="152.8322" y1="47.4203" x2="136.3699" y2="65.5287" gradientTransform="matrix(1 0 0 -1 0 541.8897)">
		<stop  offset="0" style="stop-color:#745EBD"/>
		<stop  offset="1" style="stop-color:#542E77"/>
	</linearGradient>
	
		<path style="opacity:0.5;fill-rule:evenodd;clip-rule:evenodd;fill:url(#SVGID_00000088843570426648372460000014814600475556625065_);enable-background:new    ;" d="
		M144.4,472.7l-27.4,4l23,3.3c0.4,0.1,0.8,0.1,1.1,0l8-0.6l7.9-0.6c0.6,0,0.7-0.9,0.2-1.1L144.4,472.7z"/>
</g>
<g>
	<g>
		
			<radialGradient id="SVGID_00000093894766364674701690000014846099907566747051_" cx="104.0933" cy="368.9703" r="89.7993" gradientTransform="matrix(0.9995 3.066388e-02 3.066388e-02 -0.9995 -13.2483 511.9431)" gradientUnits="userSpaceOnUse">
			<stop  offset="0" style="stop-color:#0E173A"/>
			<stop  offset="1" style="stop-color:#60C9E5"/>
		</radialGradient>
		<path style="opacity:0.3;fill:url(#SVGID_00000093894766364674701690000014846099907566747051_);enable-background:new    ;" d="
			M176.5,200.5c26.2-43.1,19.9-95.3-10-122.6C126.2,41,51.3,57.4,22.9,107.2C0.4,146.6,10.7,200,49.8,233.6
			c7.9-8.3,28.9-27.6,63.3-35.3C141.8,191.8,165.4,197.2,176.5,200.5z"/>
		
			<linearGradient id="SVGID_00000022521334391201446460000013561314972656225960_" gradientUnits="userSpaceOnUse" x1="78.7133" y1="403.1311" x2="163.2478" y2="309.4302" gradientTransform="matrix(0.9995 3.066388e-02 3.066388e-02 -0.9995 -13.2483 511.9431)">
			<stop  offset="0" style="stop-color:#FFFFFF"/>
			<stop  offset="1" style="stop-color:#9479A6"/>
		</linearGradient>
		<path style="fill:url(#SVGID_00000022521334391201446460000013561314972656225960_);" d="M57.2,225.9
			c-2.7-9.6-13.8-53.3,10.9-94.6c17.9-29.9,60.7-68.7,106.1-53.9c39.8,13,60.1,60.1,54.3,99.1c-4.7,31.9-26.1,51.9-33.5,58.2
			c-8.1-3.7-55.5-24.4-100.1-1.5C82.1,239.8,72.7,248.4,66,256c-5.6-4.9-11.3-9.8-16.9-14.6c-2.3-2-2.4-5.5-0.2-7.6L57.2,225.9z"/>
		<path class="st25" d="M201.7,253.6c0.4-0.9,2.4-5.9,0.1-11.5c-1.9-4.6-5.6-6.8-6.7-7.4c-4.7-2.2-70.7-31.7-112.3,1.6
			c-5.4,4.4-11.5,10.6-16.7,19.7c-0.2,0.4-2.9,6.1,0.4,11.6c2.7,4.3,7.3,5.2,8,5.4v-0.1c-1.2-7.6,1.6-15.3,7.4-20.3
			c5.3-4.5,10.4-7.7,14.7-10C142.6,218.5,196,250.1,201.7,253.6z"/>
		<g>
			
				<linearGradient id="SVGID_00000147900193440678502370000009144290304785580440_" gradientUnits="userSpaceOnUse" x1="55.5717" y1="365.3212" x2="194.3724" y2="365.3212" gradientTransform="matrix(0.9995 3.066388e-02 3.066388e-02 -0.9995 -13.2483 511.9431)">
				<stop  offset="0" style="stop-color:#007D7E"/>
				<stop  offset="1" style="stop-color:#0E173A"/>
			</linearGradient>
			<path style="fill:url(#SVGID_00000147900193440678502370000009144290304785580440_);" d="M176.2,199.7
				c26.2-43.1,19.9-95.3-10-122.6c-0.8-0.7-1.6-1.4-2.4-2.1c-41.4-6.4-79.2,28.8-95.8,56.4c-24.7,41.2-13.6,85-10.9,94.6l0,0
				c10.9-9.6,29.4-22.6,55.5-28.5C141.4,191,165,196.3,176.2,199.7z"/>
			
				<linearGradient id="SVGID_00000151544689056181154860000012503105354860339646_" gradientUnits="userSpaceOnUse" x1="53.7826" y1="279.97" x2="53.8602" y2="279.97" gradientTransform="matrix(0.9995 3.066388e-02 3.066388e-02 -0.9995 -13.2483 511.9431)">
				<stop  offset="0" style="stop-color:#007D7E"/>
				<stop  offset="1" style="stop-color:#0E173A"/>
			</linearGradient>
			<path style="fill:url(#SVGID_00000151544689056181154860000012503105354860339646_);" d="M49.1,233.8
				C49.1,233.7,49.1,233.7,49.1,233.8L49.1,233.8L49.1,233.8z"/>
		</g>
		<g>
			
				<linearGradient id="SVGID_00000116200076247992266940000018426048098271672739_" gradientUnits="userSpaceOnUse" x1="17.9311" y1="426.4495" x2="238.8727" y2="342.7243" gradientTransform="matrix(1 0 0 -1 0 541.8897)">
				<stop  offset="0" style="stop-color:#F883AF"/>
				<stop  offset="4.209606e-02" style="stop-color:#F47FB0"/>
				<stop  offset="8.673100e-02" style="stop-color:#E772B4"/>
				<stop  offset="0.1325" style="stop-color:#D25DBB"/>
				<stop  offset="0.1789" style="stop-color:#B53FC4"/>
				<stop  offset="0.2207" style="stop-color:#941ECE"/>
				<stop  offset="0.5342" style="stop-color:#13084B"/>
			</linearGradient>
			<path style="fill:url(#SVGID_00000116200076247992266940000018426048098271672739_);" d="M176.2,199.7
				c26.2-43.1,19.9-95.3-10-122.6c-0.8-0.7-1.6-1.4-2.4-2.1c-41.4-6.4-79.2,28.8-95.8,56.4c-24.7,41.2-13.6,85-10.9,94.6l0,0
				c10.9-9.6,29.4-22.6,55.5-28.5C141.4,191,165,196.3,176.2,199.7z"/>
			
				<linearGradient id="SVGID_00000110434750892156683560000017716242336549681792_" gradientUnits="userSpaceOnUse" x1="-58.3465" y1="348.8438" x2="140.4835" y2="273.4977" gradientTransform="matrix(1 0 0 -1 0 541.8897)">
				<stop  offset="0" style="stop-color:#F883AF"/>
				<stop  offset="4.209606e-02" style="stop-color:#F47FB0"/>
				<stop  offset="8.673100e-02" style="stop-color:#E772B4"/>
				<stop  offset="0.1325" style="stop-color:#D25DBB"/>
				<stop  offset="0.1789" style="stop-color:#B53FC4"/>
				<stop  offset="0.2207" style="stop-color:#941ECE"/>
				<stop  offset="0.5342" style="stop-color:#2A1E81"/>
			</linearGradient>
			<path style="fill:url(#SVGID_00000110434750892156683560000017716242336549681792_);" d="M49.1,233.8
				C49.1,233.7,49.1,233.7,49.1,233.8L49.1,233.8L49.1,233.8z"/>
		</g>
		
			<linearGradient id="SVGID_00000097474788037445415530000003497639390524829834_" gradientUnits="userSpaceOnUse" x1="209.22" y1="291.1614" x2="208.7108" y2="351.7614" gradientTransform="matrix(0.9995 3.066388e-02 3.066388e-02 -0.9995 -13.2483 511.9431)">
			<stop  offset="0" style="stop-color:#CFBBDB"/>
			<stop  offset="1" style="stop-color:#F2DAE9"/>
		</linearGradient>
		<path style="fill-rule:evenodd;clip-rule:evenodd;fill:url(#SVGID_00000097474788037445415530000003497639390524829834_);" d="
			M216.6,206.3c-7.4,5.1-19.1,1.4-17.5-21.7c1.6-23.2,17.3-44.1,17.3-44.1c-19.3,0-21.9,40.1-21.9,40.1c0.1,1.7,0.3,3.4,0.5,4.9v0.2
			C199.2,217.9,215.2,207.3,216.6,206.3z"/>
		<path class="st31" d="M228.8,156.3c-1.9-9.4-7.3-16-12.4-16.1c-5.1-0.1-19.7,23.3-17.8,50.6c1.9,27.2,19.4,19.2,23.1,9.1l2.2-5.4
			c0,0-13.9,16.4-19.9-0.4c-6.8-19.2,9.1-42.7,16.7-39.2s8.2,18.8,8.2,18.8S230.1,162.5,228.8,156.3z"/>
		<polygon class="st32" points="203.4,158.4 199.6,156.7 197.5,163.2 201.3,165 		"/>
		<g>
			<g>
				<path class="st33" d="M170.7,114.2v-1.6c0-0.2,0-0.5,0-0.7V111c0-1.8-0.1-3.5-0.1-5c0-0.5,0-1.1-0.1-1.6v-0.2c0-0.3,0-0.6,0-0.9
					s0-0.6,0-0.9c0-0.5,0-0.9-0.1-1.3c-0.1-1.7-0.2-3.3-0.3-4.8c-0.1-1.6-0.3-3-0.5-4.2c0-0.3-0.1-0.6-0.1-0.9s-0.1-0.6-0.1-0.8
					c0-0.2-0.1-0.4-0.1-0.5c0-0.3-0.1-0.6-0.2-0.9c0-0.2-0.1-0.4-0.1-0.5s-0.1-0.3-0.1-0.5c0-0.1,0-0.1,0-0.2
					c-0.1-0.3-0.2-0.6-0.2-0.9c-0.1-0.2-0.2-0.5-0.2-0.7c-0.1-0.3-0.2-0.6-0.4-0.8c-0.1-0.3-0.3-0.5-0.5-0.7l-0.1-0.1l-0.1-0.1
					c-0.3-0.3-0.6-0.4-0.9-0.5c-1.9-0.3-5.3,5.1-12,15.9c-2,3.3-3.4,5.6-4.5,7.3c-0.1,0.1-0.1,0.2-0.2,0.2l-0.1,0.1
					c0,0.1-0.1,0.2-0.2,0.3l0,0l0,0c-0.1,0.1-0.2,0.2-0.2,0.4c0,0,0,0.1-0.1,0.1l0,0c-0.1,0.1-0.1,0.1-0.2,0.2l-0.1,0.1
					c0,0,0,0.1-0.1,0.1l-0.1,0.1l-0.1,0.1c0,0.1-0.1,0.1-0.1,0.2c0,0,0,0,0,0.1l0,0l0,0c0,0.1-0.1,0.1-0.1,0.2
					c-0.4,0.4-0.8,0.8-1.2,1.1c-0.1,0-0.1,0.1-0.2,0.1c0,0,0,0-0.1,0c0,0,0,0-0.1,0s-0.1,0.1-0.2,0.1c0,0-0.1,0-0.1,0.1
					c-0.1,0-0.2,0.1-0.3,0.2c-0.1,0-0.1,0.1-0.2,0.1h-0.1c-0.1,0.1-0.2,0.1-0.3,0.2h-0.1l0,0h-0.1l0,0h-0.1l0,0h-0.1l0,0h-0.1l0,0
					H145l0,0h-0.1l0,0l0,0c-0.1,0-0.2,0-0.2,0.1l0,0l0,0c0,0,0,0-0.1,0l0,0h-0.1l0,0h-0.1l0,0l0,0h-0.1l0,0c-0.1,0-0.1,0-0.2,0l0,0
					l0,0H144c0,0,0,0-0.1,0s-0.2,0-0.4,0h-0.1h-0.1l0,0c-0.1,0-0.1,0-0.2,0l0,0c-0.1,0-0.1,0-0.2,0h-0.2l0,0h-0.3c0,0-0.1,0-0.2,0
					h-0.1c-0.1,0-0.1,0-0.2,0h-0.6c-0.1,0-0.2,0-0.3,0h-1h-0.1h-0.2c-0.1,0-0.2,0-0.2,0h-0.1c-0.1,0-0.2,0-0.3,0H139
					c-0.1,0-0.2,0-0.2,0h-0.1c-0.1,0-0.2,0-0.3,0c-1.9-0.2-4.2-0.6-7.3-1.2c-6.3-1.4-9.2-2.5-11.3-3.3v-0.1l0,0
					c-0.1-0.5-0.2-1-0.3-1.5c-0.1-0.5-0.2-1.1-0.3-1.6c-0.4-1.9-0.7-3.8-1.1-5.7c-0.1-0.5-0.2-1.1-0.4-1.6c-0.2-1.1-0.5-2.1-0.7-3.2
					c-0.2-1-0.5-2.1-0.7-3.1s-0.5-2-0.8-3c-0.2-0.7-0.4-1.4-0.6-2c-0.1-0.4-0.2-0.9-0.4-1.3c-0.2-0.6-0.4-1.2-0.5-1.7V82
					c-0.1-0.3-0.2-0.6-0.3-0.9V81c-0.1-0.2-0.1-0.3-0.2-0.5l0,0c-0.1-0.3-0.2-0.6-0.3-0.9c-0.1-0.3-0.2-0.6-0.3-0.9
					c-0.1-0.2-0.1-0.4-0.2-0.6s-0.1-0.4-0.2-0.5c-0.2-0.4-0.4-0.9-0.5-1.3c-0.1-0.2-0.1-0.3-0.2-0.5s-0.2-0.5-0.4-0.7
					c-0.1-0.3-0.3-0.5-0.4-0.8c-0.1-0.1-0.2-0.3-0.2-0.4c-0.1-0.1-0.1-0.3-0.2-0.4c0-0.1-0.1-0.1-0.1-0.2c-0.1-0.1-0.1-0.2-0.2-0.4
					c0-0.1-0.1-0.1-0.1-0.2s-0.1-0.1-0.1-0.2s-0.1-0.1-0.1-0.1c-0.1-0.2-0.2-0.3-0.4-0.4c-0.7-0.9-1.5-1.4-2.3-1.5l0,0
					c-0.1,0-0.1,0-0.2,0l0,0c-0.1,0-0.2,0-0.3,0c-1.3,0.1-2.8,1.6-6,8.2c-0.9,1.9-1.8,3.9-2.7,6.2c-0.3,0.6-0.5,1.2-0.7,1.8
					c-0.5,1.2-1,2.5-1.4,3.8l0,0c-0.2,0.7-0.5,1.3-0.7,2c-0.1,0.2-0.1,0.5-0.2,0.7c-0.1,0.3-0.2,0.7-0.3,1c-0.1,0.1-0.1,0.3-0.1,0.4
					c-0.1,0.4-0.2,0.8-0.4,1.3c-0.1,0.4-0.2,0.7-0.3,1.1c-0.1,0.2-0.1,0.4-0.2,0.6c0,0.2-0.1,0.4-0.2,0.6c0,0.2-0.1,0.4-0.1,0.6
					c-0.1,0.4-0.2,0.8-0.3,1.2c-0.1,0.2-0.1,0.4-0.2,0.6c-0.1,0.4-0.2,0.8-0.3,1.2c-0.2,0.8-0.4,1.7-0.6,2.5
					c-0.1,0.7-0.3,1.4-0.5,2.1c-0.1,0.3-0.1,0.6-0.2,0.8c-0.3,1.6-0.6,3.2-0.9,4.9c0,0.1,0,0.2,0,0.2c-1.1,0.9-2.2,2-3.1,3.1
					c-4.3,5.2-5,10.7-11.2,13.3c-1.6,0.6-3.2,0.8-6,1h-0.1c-0.6,0-1.3,0.1-2.1,0.1c-0.2,0-0.4,0-0.6,0c-1,0-1.9,0-2.8,0
					c-0.7,0-1.4,0-2,0c-1.1,0-2.1-0.1-3-0.1c-0.1,0-0.3,0-0.4,0l-0.7-0.1c-0.1,0-0.2,0-0.4,0s-0.5,0-0.7-0.1c-0.3,0-0.6-0.1-0.9-0.1
					c-0.4,0-0.8-0.1-1.2-0.1h-0.1l0,0c-0.7-0.1-1.3-0.1-1.8-0.2h-0.1c-0.3,0-0.5,0-0.8,0h-0.9c-0.3,0-0.6,0.1-0.8,0.1
					c-0.1,0-0.2,0.1-0.3,0.1c-0.5,0.1-1,0.4-1.5,0.7c-0.3,0.2-0.6,0.5-0.9,0.7c-0.1,0.1-0.1,0.1-0.2,0.2c-0.1,0.1-0.2,0.2-0.3,0.4
					c-0.1,0.1-0.2,0.3-0.3,0.4c0,0-0.1,0.1-0.1,0.2v0.1l0,0l0,0c-0.2,0.3-0.3,0.6-0.5,1c-0.1,0.2-0.1,0.4-0.2,0.5
					c-0.2,0.5-0.3,1.1-0.4,1.7c0,0.1-0.1,0.3-0.1,0.4v0.1c-0.1,0.5-0.1,1-0.1,1.5c0,0.3,0,0.6,0,0.9c-0.1,1.3,0,2.7,0.1,4.1
					c0,0.4,0,0.9,0.1,1.3c0,0.5,0.1,1,0.1,1.5c0.1,0.5,0.1,1,0.2,1.5c0,0.2,0,0.5,0.1,0.8c0.1,0.5,0.1,1,0.2,1.6
					c0,0.2,0.1,0.5,0.1,0.8c0.1,0.6,0.1,1.1,0.2,1.7c0,0.3,0.1,0.6,0.1,0.9c0,0.3,0.1,0.6,0.1,0.9v0.1c0,0.1,0,0.3,0,0.4l0,0v0.1
					l0,0c0,0.3,0.1,0.7,0.1,1v0.1c0.1,0.3,0.1,0.6,0.1,1v0.1c0,0.1,0,0.2,0,0.3l0,0l0,0v0.1l0,0l0,0l0,0c0,0.2,0.1,0.4,0.1,0.6v0.1
					c0.1,0.7,0.3,1.5,0.4,2.2c0,0,0,0,0,0.1c0.3,1.2,0.6,2.3,1,3.5c0.1,0.4,0.3,0.8,0.4,1.2c0,0,0,0.1,0.1,0.1c0,0,0,0,0,0.1v0.1
					c0,0,0,0.1,0.1,0.1v0.1c0,0.1,0.1,0.2,0.1,0.3v0.1c0.1,0.1,0.1,0.2,0.2,0.4c0.1,0.3,0.3,0.6,0.5,0.9c0,0.1,0.1,0.1,0.1,0.1
					c0.1,0.1,0.1,0.3,0.2,0.4c0,0.1,0.1,0.1,0.1,0.2c0,0.1,0.1,0.1,0.1,0.2c0.1,0.1,0.1,0.2,0.2,0.2c0,0.1,0.1,0.2,0.1,0.2
					c0.1,0.2,0.3,0.4,0.4,0.6c0.1,0.1,0.1,0.2,0.2,0.3l0,0c0.1,0.1,0.1,0.2,0.2,0.3c0.1,0.1,0.1,0.2,0.2,0.3
					c0.1,0.1,0.1,0.2,0.2,0.3l0,0c0.1,0.1,0.1,0.2,0.2,0.3c0.4,0.5,0.9,1,1.4,1.4c0.1,0.1,0.2,0.2,0.3,0.2l0,0c0,0,0,0,0.1,0.1l0,0
					c0.1,0.1,0.3,0.2,0.4,0.4l0,0c0.1,0.1,0.2,0.2,0.4,0.3c0.1,0.1,0.3,0.2,0.4,0.3c0.1,0.1,0.3,0.2,0.4,0.3
					c0.3,0.2,0.5,0.4,0.8,0.6c0.3,0.2,0.5,0.4,0.8,0.5c3.3,2,6.7,2.9,9.3,3.6c0,0,0,0,0.1,0H67c0.1,0,0.1,0,0.2,0.1l0,0
					c0.2,0,0.4,0.1,0.6,0.1c0.1,0,0.1,0,0.2,0h0.1l0,0c1.3,0.3,3.4,0.9,5.5,1.7l0,0c0.1,0.1,0.2,0.4,0.3,0.7c0,0,0,0.1,0.1,0.1
					c0,0.2,0.1,0.4,0.1,0.6c0,0.1,0.1,0.2,0.1,0.3s0,0.2,0,0.2v0.1l0.1,0.4c0,0.1,0,0.2,0,0.2v0.1c0,0.1,0,0.2,0,0.4
					c0,0.1,0,0.3,0,0.4c0.2,1.3,0.3,2.9,0.4,4.4c0,0.1,0,0.3,0,0.4c0,0.4,0.1,0.8,0.1,1.2c0,0.3,0,0.6,0.1,0.9c0,0.2,0,0.4,0.1,0.7
					c0,0.7,0.1,1.3,0.2,1.9c0,0.1,0,0.2,0,0.3s0,0.2,0,0.3s0,0.2,0,0.3s0,0.2,0,0.4s0.1,0.5,0.1,0.7c0,0.1,0,0.2,0,0.4
					c0,0.1,0,0.2,0,0.4c0,0.1,0,0.2,0,0.4c0,0.1,0,0.1,0,0.2c0,0.1,0,0.2,0,0.4c0,0.1,0,0.3,0,0.4c0,0.2,0,0.5,0.1,0.7
					c0,0.1,0,0.3,0,0.4c0,0.2,0,0.4,0,0.6c0,0.1,0,0.1,0,0.2v0.1c0,0.3,0,0.6,0.1,1v0.2c0,0.1,0,0.3,0,0.4v0.2c0,0.2,0,0.4,0,0.5
					c0,0.2,0,0.4,0,0.5v0.1c0,0.2,0,0.4,0,0.6c0,0.2,0,0.4,0,0.6c0,0.2,0,0.5,0,0.8c0,0.1,0,0.1,0,0.2c0,0.2,0,0.3,0,0.5v0.1
					c0,0,0,0.1,0,0.2v0.1c0,0.1,0,0.2,0,0.3v0.3c0,0.1,0,0.2,0,0.3s0,0.2,0,0.3c0,0.5,0,1.1,0.1,1.8c0,0.3,0,0.7,0,1l0,0
					c0,0.3,0,0.5,0,0.8v0.1c0,0.1,0,0.2,0,0.4c0,0.1,0,0.2,0,0.3c0,0.3,0,0.6,0,0.9c0,0.1,0,0.2,0,0.2v0.4c0,0.1,0,0.2,0,0.3v0.1
					c1.2-0.7,2.5-1.5,3.8-2.2c10.3-5.7,21.3-9.9,32.7-12.5c3.3-0.7,7.1-1.4,10.4-1.8c1.6-0.2,4.5-0.6,6.1-0.8c1.2-0.1,1.7,0,2.9-0.1
					c6.5-0.5,12.5-0.4,18.1,0c6.3,0.5,11.1,1.2,15.8,2.2c0.7,0.1,0.9,0.2,1.5,0.3l0.3,0.1c0-0.2,0-0.3,0.1-0.5v-0.1
					c0-0.3,0.1-0.6,0.1-0.9c0.1-0.9,0.2-1.7,0.2-2.6l0,0c0-0.4,0-0.9,0.1-1.3v-0.4c0-0.5,0-1,0.1-1.5v-2.8c0-0.2,0-0.5,0-0.7
					s0-0.5,0-0.7c0-0.5,0-0.9-0.1-1.4c0-0.2,0-0.3,0-0.5s0-0.5,0-0.7s0-0.5-0.1-0.7c0-0.1,0-0.3,0-0.5s0-0.5,0-0.7s-0.1-0.5-0.1-0.7
					s0-0.3,0-0.5c-0.1-0.6-0.1-1.2-0.2-1.8c0-0.1,0-0.3,0-0.4v-0.1v-0.1v-0.1c0-0.5-0.1-1-0.1-1.5c0-0.2,0-0.4-0.1-0.6
					c0-0.4-0.1-0.7-0.1-1.1c-0.1-0.6-0.1-1.1-0.2-1.7c0-0.1,0-0.1,0-0.2c-0.1-0.5-0.1-1-0.2-1.5l0,0l0,0c0-0.2,0-0.3,0-0.5
					c0-0.3-0.1-0.6-0.1-1c0-0.2,0-0.3,0-0.5c0-0.3-0.1-0.7-0.1-1c0-0.4-0.1-0.9-0.1-1.3c0-0.3,0-0.6,0-0.9c0-0.2,0-0.4,0-0.5
					c0-0.2,0-0.4,0-0.5c0-0.2,0-0.4,0-0.6c0-0.6,0-1.1,0-1.6v-1.1c0-0.6,0-1.1,0-1.7c0-0.3,0-0.7,0-1s0-0.6,0-1c0-0.1,0-0.2,0-0.4
					s0-0.2,0-0.4c0-0.1,0-0.1,0-0.2c0-0.1,0-0.3,0-0.4v-0.1c0-0.2,0-0.3,0-0.5c0-0.1,0-0.2,0-0.3c0.1-0.9,0.2-1.8,0.3-2.7
					c0-0.1,0-0.3,0.1-0.4c0-0.1,0-0.1,0-0.2c0-0.1,0-0.2,0-0.3c0.1-0.5,0.1-1,0.2-1.5c0-0.2,0.1-0.3,0.1-0.5c0-0.1,0-0.2,0-0.3
					c0.1-0.4,0.1-0.9,0.2-1.3c0-0.1,0-0.2,0-0.4c0-0.1,0-0.2,0.1-0.3c0.1-0.6,0.2-1.2,0.3-1.8s0.2-1.2,0.3-1.9v-0.1
					c0-0.2,0.1-0.4,0.1-0.6c0,0,0,0,0-0.1c0-0.2,0.1-0.5,0.1-0.7c0.1-0.6,0.2-1.2,0.2-1.8c0-0.2,0-0.4,0.1-0.6c0-0.2,0-0.4,0.1-0.6
					c0-0.1,0-0.1,0-0.2c0-0.1,0-0.2,0-0.2c0-0.3,0.1-0.6,0.1-0.9c0-0.2,0-0.5,0.1-0.7c0-0.1,0-0.1,0-0.2c0-0.2,0-0.4,0.1-0.6
					c0.2-2.1,0.4-4.5,0.5-7.1c0-0.2,0-0.4,0-0.6c0.1-1,0.1-2.1,0.1-3.2c0-0.5,0-0.9,0.1-1.4c0-0.2,0-0.4,0-0.6v-1.4v-0.6
					c0-0.3,0-0.6,0-0.9c0-0.5,0-1,0-1.5l0,0l0,0c0-0.2,0-0.4,0-0.6v-1.8c0-0.8,0-1.7,0-2.5v-0.7
					C170.7,114.6,170.7,114.4,170.7,114.2z"/>
				<path class="st34" d="M170.7,112.4v-1.5c0-0.3,0-0.6,0-0.9l0,0c0-1.8-0.1-3.5-0.1-5c0-0.5,0-1,0-1.5v-0.2c0-0.3,0-0.6,0-0.9
					s0-0.6,0-0.9c0-0.5,0-0.9,0-1.3c-0.1-1.7-0.2-3.3-0.3-4.7c-0.1-1.6-0.3-3-0.4-4.2c0-0.3-0.1-0.6-0.1-0.9s-0.1-0.6-0.1-0.8
					c0-0.2-0.1-0.4-0.1-0.5c-0.1-0.3-0.1-0.6-0.2-0.9c0-0.2-0.1-0.4-0.1-0.5s-0.1-0.3-0.1-0.5c0-0.1,0-0.1-0.1-0.2
					c-0.1-0.3-0.1-0.6-0.2-0.9c-0.1-0.2-0.2-0.5-0.2-0.7c-0.1-0.3-0.2-0.6-0.4-0.8l-0.1-0.1c-0.1-0.3-0.3-0.5-0.5-0.7l-0.1-0.1
					c-0.3-0.3-0.6-0.4-0.9-0.5c-1.9-0.3-5.3,5.1-12.1,15.9c-2,3.2-3.4,5.5-4.5,7.2l0,0l0,0c-0.1,0.1-0.1,0.2-0.2,0.2l-0.1,0.1
					c-0.1,0.1-0.1,0.2-0.2,0.2c-0.1,0.2-0.2,0.3-0.3,0.4c0,0,0,0.1-0.1,0.1l0,0c-0.1,0.1-0.2,0.2-0.3,0.3c0,0,0,0.1-0.1,0.1
					c0,0,0,0.1-0.1,0.1l-0.1,0.1c-0.1,0.1-0.1,0.1-0.1,0.2c0,0,0,0-0.1,0.1l0,0c-0.1,0.1-0.1,0.1-0.2,0.2c-0.4,0.4-0.8,0.8-1.2,1.1
					c-0.1,0-0.1,0.1-0.2,0.1c0,0,0,0-0.1,0c-0.1,0.1-0.2,0.1-0.3,0.2c-0.1,0-0.2,0.1-0.3,0.2c-0.1,0-0.1,0.1-0.2,0.1
					c0,0-0.1,0-0.1,0.1c-0.1,0-0.2,0.1-0.3,0.1h-0.1l0,0l0,0h-0.1l0,0h-0.1l0,0l0,0h-0.1l0,0H145h-0.1l0,0l0,0h-0.1c0,0,0,0-0.1,0
					s-0.2,0-0.2,0.1l0,0l0,0c-0.1,0-0.2,0-0.2,0.1c-0.1,0-0.1,0-0.2,0l0,0c-0.1,0-0.2,0-0.3,0.1c-0.1,0-0.1,0-0.1,0
					c-0.1,0-0.3,0-0.4,0h-0.1h-0.1l0,0c-0.1,0-0.1,0-0.2,0l0,0H142c0,0,0,0-0.1,0h-1.6l0,0h-0.5h-0.1h-0.1c-0.1,0-0.1,0-0.2,0
					c0,0,0,0-0.1,0s-0.2,0-0.3,0h-0.1c-0.1,0-0.2,0-0.2,0h-0.1c-0.1,0-0.2,0-0.3,0c-1.9-0.2-4.2-0.6-7.3-1.3
					c-6.3-1.4-9.2-2.5-11.3-3.3c-0.1-0.5-0.2-1.1-0.3-1.6c-0.1-0.5-0.2-1-0.3-1.5v-0.1l0,0c-0.2-1.1-0.4-2.2-0.6-3.2
					c-0.2-1.1-0.4-2.2-0.7-3.2c0-0.2-0.1-0.5-0.1-0.7c-0.2-1.1-0.5-2.1-0.7-3.2c-0.1-0.3-0.1-0.6-0.2-0.8c-0.1-0.7-0.3-1.5-0.5-2.2
					c-0.2-0.8-0.4-1.6-0.6-2.3c0-0.2-0.1-0.5-0.2-0.7s-0.1-0.5-0.2-0.8c-0.3-1.2-0.6-2.3-1-3.4c-0.1-0.3-0.2-0.6-0.2-0.9
					c0,0,0,0,0-0.1c-0.1-0.3-0.2-0.6-0.3-0.9v-0.1l0,0c0-0.2-0.1-0.3-0.1-0.5l0,0c-0.2-0.6-0.4-1.3-0.7-1.9
					c-0.1-0.2-0.1-0.3-0.2-0.5s-0.1-0.4-0.2-0.5c-0.3-0.7-0.6-1.5-0.9-2.1c-0.1-0.1-0.1-0.3-0.2-0.4s-0.1-0.3-0.2-0.4
					c-0.2-0.4-0.4-0.8-0.7-1.2c0-0.1-0.1-0.1-0.1-0.2c-0.1-0.1-0.1-0.2-0.2-0.2c0-0.1-0.1-0.2-0.2-0.2c0-0.1-0.1-0.1-0.1-0.2
					l-0.1-0.1c-0.2-0.2-0.4-0.4-0.5-0.6c-0.1-0.1-0.3-0.3-0.4-0.4l0,0c-0.1-0.1-0.3-0.3-0.5-0.4c-0.1-0.1-0.3-0.2-0.5-0.2l0,0
					c-0.2-0.1-0.3-0.1-0.5-0.2c-0.1,0-0.2,0-0.3,0l0,0c-0.1,0-0.1,0-0.2,0l0,0c-0.1,0-0.2,0-0.3,0c-0.2,0-0.4,0.1-0.5,0.2
					c-0.3,0.1-0.6,0.3-0.9,0.6c-1,1-2.4,3.1-4.5,7.4c-0.5,1.1-1.1,2.3-1.6,3.5c-0.6,1.3-1.1,2.6-1.7,4.1c-0.1,0.1-0.1,0.3-0.2,0.5
					c-0.5,1.2-1,2.5-1.4,3.8l0,0c-0.2,0.7-0.5,1.3-0.7,2c-0.1,0.2-0.1,0.5-0.2,0.7c-0.1,0.3-0.2,0.7-0.3,1c-0.1,0.1-0.1,0.3-0.1,0.4
					c-0.1,0.4-0.2,0.7-0.4,1.1c-0.1,0.4-0.2,0.7-0.3,1.1s-0.2,0.8-0.3,1.2c0,0.1-0.1,0.3-0.1,0.4c-1.1,4.2-2.2,8.7-3,13.8
					c-1.1,0.9-2.2,2-3.2,3.1c-4.3,5.1-5,10.7-11.3,13.2c-1.9,0.7-3.9,0.9-7.9,1h-0.2c-2.4,0.1-4.4,0.1-6.2,0c-0.3,0-0.6,0-0.9,0
					c-0.9,0-1.7-0.1-2.4-0.2c-0.1,0-0.2,0-0.4,0c-0.1,0-0.2,0-0.3,0c-0.3,0-0.6-0.1-0.9-0.1c-0.1,0-0.3,0-0.4,0
					c-0.4,0-0.7-0.1-1-0.1c-0.2,0-0.5-0.1-0.7-0.1c-0.4,0-0.7-0.1-1-0.1c-0.1,0-0.2,0-0.3,0c0,0-0.1,0-0.2,0c-0.3,0-0.5,0-0.8,0
					h-0.1c-0.3,0-0.5,0-0.7,0c-0.1,0-0.2,0-0.4,0c-0.1,0-0.3,0-0.4,0.1h-0.1c-0.1,0-0.2,0-0.3,0.1c-0.1,0-0.2,0.1-0.4,0.1
					c-0.2,0.1-0.5,0.2-0.7,0.4c-0.1,0-0.2,0.1-0.4,0.2c-0.2,0.1-0.3,0.2-0.4,0.3c-0.1,0.1-0.1,0.1-0.2,0.1c-0.1,0-0.1,0.1-0.2,0.2
					l-0.1,0.1c-0.1,0.1-0.1,0.1-0.2,0.2c-0.1,0.1-0.2,0.2-0.3,0.4l-0.1,0.1c-0.1,0.1-0.1,0.2-0.2,0.3l-0.1,0.1v0.1c0,0,0,0,0,0.1
					l0,0c-0.1,0.1-0.1,0.2-0.2,0.4c0,0.1-0.1,0.1-0.1,0.2l0,0c0,0.1-0.1,0.1-0.1,0.2l0,0c0,0.1-0.1,0.1-0.1,0.2
					c-0.1,0.2-0.1,0.4-0.2,0.5c0,0.1-0.1,0.2-0.1,0.3s-0.1,0.2-0.1,0.3s0,0.2-0.1,0.3c0,0.1,0,0.2-0.1,0.3l0,0
					c0,0.2-0.1,0.4-0.1,0.6c0,0.1-0.1,0.3-0.1,0.4v0.1c-0.1,0.5-0.1,1-0.1,1.5c0,0.1,0,0.2,0,0.3c0,0.9-0.1,1.9,0,2.9
					c0,0.4,0,0.8,0,1.2c0,0.2,0,0.4,0,0.6c0,0.2,0,0.4,0.1,0.6c0,0.2,0,0.4,0,0.6c0,0.5,0.1,1,0.1,1.5c0.1,1.5,0.3,3,0.5,4.6
					c0.1,0.9,0.2,1.7,0.3,2.6c0,0.2,0,0.4,0.1,0.6c0,0.2,0.1,0.5,0.1,0.8v0.1c0,0.1,0,0.3,0.1,0.5c0,0.2,0.1,0.5,0.1,0.7
					c0.1,0.4,0.1,0.7,0.1,1.1v0.1c0,0.1,0,0.1,0,0.2l0,0l0,0l0,0v0.1l0,0l0,0l0,0c0,0.2,0.1,0.4,0.1,0.6c0,0.1,0,0.3,0.1,0.4
					c0,0.2,0.1,0.3,0.1,0.5s0.1,0.5,0.1,0.7s0.1,0.4,0.1,0.6v0.1c0,0.2,0.1,0.4,0.1,0.7c0.1,0.2,0.1,0.5,0.2,0.7
					c0,0.2,0.1,0.4,0.2,0.6c0.1,0.4,0.2,0.7,0.3,1.1c0,0.1,0.1,0.2,0.1,0.3s0.1,0.3,0.2,0.4c0,0.2,0.1,0.3,0.1,0.4
					c0.1,0.2,0.1,0.4,0.2,0.5c0,0.1,0.1,0.2,0.1,0.3l0,0c0,0,0,0.1,0.1,0.2v0.1c0,0,0,0.1,0.1,0.1c0,0.1,0.1,0.2,0.2,0.4
					c0.1,0.2,0.2,0.4,0.3,0.6c0,0.1,0.1,0.1,0.1,0.2c0,0.1,0.1,0.1,0.1,0.2c0.1,0.1,0.2,0.3,0.2,0.4c0,0,0.1,0.1,0.1,0.2
					c0,0.1,0.1,0.1,0.1,0.2c0.1,0.1,0.1,0.2,0.2,0.2c0,0.1,0.1,0.2,0.1,0.2c0.1,0.2,0.2,0.4,0.4,0.6c0.2,0.2,0.3,0.5,0.5,0.7
					c0.1,0.1,0.1,0.2,0.2,0.3c0.1,0.1,0.1,0.2,0.2,0.3c0.1,0.1,0.2,0.2,0.2,0.3c0.1,0.1,0.2,0.2,0.3,0.3c0.3,0.4,0.7,0.7,1.1,1.1
					c0.1,0.1,0.2,0.2,0.3,0.3c0,0,0,0,0.1,0l0,0c0.1,0.1,0.2,0.2,0.4,0.3l0,0c0.1,0.1,0.2,0.2,0.4,0.3c0.1,0.1,0.2,0.2,0.3,0.2
					c0.1,0.1,0.3,0.3,0.5,0.4c0.3,0.2,0.5,0.4,0.8,0.6c0.3,0.2,0.5,0.4,0.8,0.5c0.5,0.4,1.1,0.6,1.6,0.9c0.7,0.4,1.4,0.7,2.1,0.9
					c1.2,0.5,2.4,0.9,3.5,1.2c0.7,0.2,1.5,0.4,2.1,0.6l0,0c0,0,0,0,0.1,0c0,0,0,0,0.1,0c0,0,0.1,0,0.2,0l0,0c0.1,0,0.4,0.1,0.6,0.1
					c0,0,0.1,0,0.2,0h0.1l0,0c0.2,0.1,0.5,0.1,0.8,0.2c0.1,0,0.2,0,0.3,0.1c0.4,0.1,0.8,0.2,1.2,0.4c1,0.3,2,0.6,3.1,1.1l0,0
					c0.1,0.1,0.1,0.2,0.2,0.3c0,0,0.1,0.1,0.1,0.2l0,0c0,0.1,0.1,0.2,0.1,0.4s0.1,0.4,0.1,0.6l0.1,0.3c0,0.1,0,0.2,0,0.2v0.1
					c0,0.1,0,0.3,0.1,0.4c0,0.1,0,0.2,0,0.2v0.1c0,0.1,0,0.2,0,0.3s0,0.3,0.1,0.4c0.1,1.3,0.3,2.9,0.4,4.4c0,0.1,0,0.3,0,0.4
					c0,0.4,0.1,0.8,0.1,1.2c0,0.3,0,0.6,0.1,0.9c0,0.2,0,0.4,0.1,0.7c0,0.6,0.1,1.3,0.2,1.9c0,0.1,0,0.2,0,0.3s0,0.2,0,0.3
					s0,0.2,0,0.3c0,0.5,0.1,1,0.1,1.4c0,0.1,0,0.2,0,0.4c0,0.1,0,0.2,0,0.4c0,0.1,0,0.1,0,0.2c0,0.1,0,0.2,0,0.4c0,0.1,0,0.3,0,0.4
					l0.1,0.7c0,0.1,0,0.3,0,0.4c0,0.2,0,0.4,0,0.5v0.1c0,0.1,0,0.1,0,0.2v0.1c0,0.3,0.1,0.6,0.1,1c0,0.3,0,0.6,0.1,0.9
					c0,0.1,0,0.3,0,0.4c0,0.2,0,0.4,0,0.5v0.1c0,0.4,0,0.8,0.1,1.3c0,0.2,0,0.5,0,0.8c0,0.2,0,0.5,0,0.7v0.1c0,0.2,0,0.5,0,0.7
					c0,0.1,0,0.1,0,0.2c0,0.1,0,0.2,0,0.3v0.3c0,0.5,0.1,1.1,0.1,1.8c0,0.3,0,0.7,0,1v0.1c0,0.2,0,0.5,0,0.7v0.1c0,0.1,0,0.2,0,0.4
					v0.3c0,0.3,0,0.6,0,0.9c0,0.2,0,0.3,0,0.5v0.5c0,0,0,0,0,0.1v0.4l0,0c0.1-0.1,0.2-0.1,0.3-0.2c1.2-0.7,2.4-1.4,3.7-2.1
					c9.1-5.1,20.1-9.6,32.8-12.5c3.4-0.8,6.8-1.4,10-1.8c9.7-1.4,18.7-1.4,26.6-0.8c6.3,0.5,11.8,1.4,16.5,2.4
					c0.7,0.1,1.4,0.3,2,0.4l0,0c0-0.1,0-0.2,0-0.4c0-0.1,0-0.1,0-0.2c0-0.3,0.1-0.6,0.1-0.9c0.1-0.9,0.2-1.7,0.2-2.5V193
					c0-0.4,0.1-0.9,0.1-1.3c0-0.1,0-0.3,0-0.4c0-0.5,0-1,0.1-1.4v-0.5c0-0.4,0-0.7,0-1.1v-0.5c0-0.2,0-0.5,0-0.7s0-0.5,0-0.7
					s0-0.5,0-0.7c0-0.4,0-0.9-0.1-1.3c0-0.2,0-0.3,0-0.5s0-0.5,0-0.7s0-0.5-0.1-0.7c0-0.1,0-0.3,0-0.5s0-0.5-0.1-0.7
					c0-0.2,0-0.5-0.1-0.7c0-0.1,0-0.3,0-0.5c-0.1-0.6-0.1-1.2-0.2-1.8c0-0.2,0-0.3-0.1-0.4v0.1v-0.1v-0.1c0-0.5-0.1-1-0.1-1.5
					c0-0.2,0-0.4-0.1-0.6c0-0.4-0.1-0.7-0.1-1.1c-0.1-0.6-0.1-1.1-0.2-1.7c0-0.1,0-0.1,0-0.2c-0.1-0.5-0.1-1-0.2-1.5c0,0,0,0,0-0.1
					l0,0c0-0.2,0-0.3,0-0.5c0-0.3-0.1-0.6-0.1-1c0-0.1,0-0.3,0-0.5c0-0.3-0.1-0.7-0.1-1c0-0.4-0.1-0.9-0.1-1.3c0-0.3,0-0.6-0.1-0.9
					c0-0.2,0-0.4,0-0.5c0-0.2,0-0.4,0-0.5c0-0.2,0-0.4,0-0.6c0-0.6,0-1.1,0-1.6v-1.1c0-0.6,0-1.1,0-1.7c0-0.3,0-0.6,0-1
					c0-0.3,0-0.6,0.1-1c0-0.1,0-0.2,0-0.4c0-0.1,0-0.2,0-0.4c0-0.1,0-0.1,0-0.2c0-0.1,0-0.3,0-0.4v-0.1c0-0.2,0-0.3,0-0.5
					c0-0.1,0-0.2,0-0.3c0.1-0.9,0.2-1.8,0.3-2.7l0.1-0.4c0-0.1,0-0.1,0-0.2c0-0.1,0-0.2,0-0.3c0.1-0.5,0.1-1,0.2-1.5
					c0-0.1,0-0.3,0.1-0.5c0-0.1,0-0.2,0-0.3c0.1-0.4,0.1-0.9,0.2-1.3c0-0.1,0-0.2,0.1-0.3c0-0.1,0-0.2,0.1-0.4
					c0.1-0.6,0.2-1.1,0.3-1.7c0.1-0.6,0.2-1.2,0.3-1.9V144c0-0.2,0-0.4,0.1-0.6v-0.1c0-0.2,0.1-0.5,0.1-0.7c0.1-0.6,0.2-1.2,0.2-1.8
					c0-0.2,0-0.4,0.1-0.6c0-0.2,0-0.4,0.1-0.6c0-0.1,0-0.1,0-0.2c0-0.1,0-0.1,0-0.2c0-0.3,0.1-0.6,0.1-0.9c0-0.2,0-0.5,0.1-0.7
					c0-0.1,0-0.1,0-0.2c0-0.2,0-0.4,0-0.6c0.2-2.1,0.4-4.4,0.6-7.1c0-0.2,0-0.4,0-0.6c0-1,0.1-2.1,0.1-3.2c0-0.5,0-0.9,0.1-1.4
					c0-0.2,0-0.4,0-0.6v-1.4v-0.1c0-0.2,0-0.3,0-0.5c0-0.3,0-0.6,0-0.9c0-0.5,0-1,0-1.5l0,0l0,0v-0.6c0-0.4,0-0.7,0-1.1v-0.7
					c0-0.8,0-1.7,0-2.5v-1.7C170.7,112.6,170.7,112.5,170.7,112.4z M76.2,212.2c0-0.1,0-0.1,0-0.2c0,0.1,0,0.2,0,0.3"/>
				<g>
					<g>
						<g>
							<g>
								<defs>
									<path id="SVGID_00000106835796845398855240000002319934536703880895_" d="M168.2,197.3c-0.7-0.1-1.3-0.3-2-0.4
										c-2.1-10.6-4.9-16.6-7.7-21.4c-2-3.5-4-6.5-5.7-10.3c-6-13.8-10.7-12.5-14-22.8c-7-21.4-16-21.5-27.2-18.8
										c-1,0.2-2.1,0.5-3.2,0.8c-2.3,0.6-6.3,2.8-10.6,5c-5.3,2.6-11,5-14.6,4.2c-4.1-0.9-10.5-4.1-14.8-4.5c-0.1,0-0.1,0-0.2,0
										l0,0c-0.1,0-0.1,0-0.2,0s-0.2,0-0.3,0c-0.1,0-0.1,0-0.2,0l0,0l0,0c-0.1,0-0.1,0-0.2,0c4.1-0.2,6.2-0.2,8.1-1
										c6.2-2.5,6.9-8.1,11.3-13.2c1-1.1,2-2.2,3.2-3.1c0.2-0.1,0.4-0.3,0.5-0.4l0.1-0.1c0.1-0.1,0.3-0.2,0.4-0.3
										c0.1-0.1,0.1-0.1,0.2-0.2s0.3-0.2,0.4-0.3c0.2-0.1,0.4-0.3,0.6-0.4c0.1,0,0.1-0.1,0.2-0.1l0,0c0.2-0.1,0.3-0.2,0.5-0.3
										l0.1-0.1c0.2-0.1,0.4-0.2,0.6-0.4c0.1-0.1,0.3-0.2,0.5-0.3c0.1,0,0.1-0.1,0.1-0.1c0.1,0,0.1-0.1,0.2-0.1s0.1-0.1,0.2-0.1
										c0,0,0,0,0.1,0s0.1-0.1,0.2-0.1c0,0,0.1,0,0.1-0.1H95h0.1c0.1-0.1,0.3-0.1,0.4-0.2c0.2-0.1,0.4-0.2,0.6-0.3l0,0h0.1
										c0.2-0.1,0.4-0.2,0.6-0.3c0.2-0.1,0.3-0.1,0.5-0.2c0.1,0,0.1-0.1,0.2-0.1c0,0,0.1,0,0.1-0.1c0.3-0.1,0.5-0.2,0.8-0.3
										c0.2-0.1,0.3-0.1,0.5-0.2c0,0,0,0,0.1,0h0.1c0.3-0.1,0.5-0.2,0.8-0.3c0.1,0,0.1,0,0.2-0.1c0.1,0,0.2-0.1,0.3-0.1
										c0.1,0,0.1,0,0.2-0.1h0.1c0.2-0.1,0.4-0.1,0.6-0.2l0,0c0.2-0.1,0.4-0.1,0.5-0.2l0,0c0.1,0,0.1,0,0.2,0l0,0
										c0.2,0,0.3-0.1,0.5-0.1c0.1,0,0.3-0.1,0.4-0.1c0.2,0,0.4-0.1,0.6-0.1c0.1,0,0.1,0,0.2,0c0.2,0,0.3-0.1,0.5-0.1
										s0.4-0.1,0.6-0.1c0.1,0,0.3-0.1,0.4-0.1h0.1l0,0c0.1,0,0.2,0,0.3-0.1h0.1c0.4-0.1,0.7-0.1,1.1-0.2h0.1l0,0l0,0l0,0
										c0.1,0,0.1,0,0.2,0s0.1,0,0.2,0c0,0,0,0,0.1,0l0,0c0.1,0,0.1,0,0.2,0c0,0,0,0,0.1,0s0.1,0,0.2,0l0,0h0.1c0.2,0,0.4,0,0.6,0
										s0.3,0,0.5,0s0.4,0,0.7,0c0,0,0,0,0.1,0h0.1c0.2,0,0.4,0,0.5,0c0,0,0,0,0.1,0h0.1c0.1,0,0.3,0,0.4,0c0,0,0,0,0.1,0
										s0.1,0,0.2,0c1,0,1.9,0.1,2.8,0.2c0.3,0,0.5,0.1,0.8,0.1c0.1,0,0.2,0,0.2,0c0.3,0.1,0.6,0.1,0.9,0.2c0.1,0,0.2,0,0.3,0.1
										l0,0c0.1,0,0.1,0,0.2,0c0.6,0.2,1.2,0.3,1.7,0.5c0.1,0,0.2,0.1,0.3,0.1c0.3,0.1,0.6,0.2,0.9,0.4l0,0l0,0
										c2.1,0.8,5,1.9,11.3,3.3c3.1,0.7,5.4,1.1,7.3,1.3c0.1,0,0.2,0,0.2,0c0.2,0,0.5,0,0.7,0.1c0.2,0,0.4,0,0.6,0
										c0.1,0,0.2,0,0.3,0c2.8,0.2,4.1-0.3,5.2-0.7c0.1-0.1,0.2-0.1,0.3-0.2s0.2-0.1,0.3-0.2s0.2-0.1,0.3-0.2
										c0.3-0.2,0.5-0.3,0.8-0.5c0.1,0,0.1-0.1,0.1-0.1c0.2-0.2,0.5-0.4,0.7-0.6l0.1-0.1l0.1-0.1c0.1-0.1,0.2-0.2,0.2-0.3l0.1-0.1
										l0.1-0.1c0.4-0.4,0.7-0.9,1.1-1.5c0.1-0.1,0.1-0.2,0.2-0.2c1.1-1.7,2.5-4,4.5-7.2c6.8-10.8,10.2-16.2,12.1-15.9
										c0.3,0,0.6,0.2,0.9,0.5l0.1,0.1c0.2,0.2,0.4,0.5,0.6,0.9c0.1,0.2,0.2,0.5,0.4,0.8c0.1,0.2,0.2,0.5,0.3,0.7
										c0.1,0.3,0.2,0.5,0.2,0.8c0,0.1,0,0.1,0.1,0.2c0,0.1,0.1,0.3,0.1,0.5s0.1,0.3,0.1,0.5c0.1,0.3,0.1,0.6,0.2,0.9
										c0,0.2,0.1,0.4,0.1,0.5c0,0.3,0.1,0.5,0.1,0.8l0,0c0,0.3,0.1,0.6,0.1,0.9l0,0c0.2,1.2,0.3,2.6,0.4,4.2
										c0.1,1.4,0.2,3,0.3,4.7c0,0.4,0,0.9,0.1,1.3l0,0c0,0.3,0,0.6,0,0.9s0,0.6,0,0.9c0,0.1,0,0.1,0,0.2c0,0.5,0,1,0,1.5
										c0,1.6,0.1,3.3,0.1,5l0,0c0,0.3,0,0.6,0,0.9c0,0.1,0,0.3,0,0.4s0,0.2,0,0.3c0,0.3,0,0.5,0,0.8c0,0.2,0,0.4,0,0.5
										s0,0.2,0,0.2c0,0.2,0,0.4,0,0.6c0,35.9-6.4,35.5-3.4,57.3l0,0l0,0c0.1,0.5,0.1,1,0.2,1.5c0,0.1,0,0.1,0,0.2
										c0.1,0.6,0.1,1.2,0.2,1.7c0,0.4,0.1,0.7,0.1,1.1c0,0.2,0,0.4,0.1,0.6c0.1,0.5,0.1,1.1,0.2,1.6l0,0v0.1
										C169,186.9,168.7,193.2,168.2,197.3z"/>
								</defs>
								<clipPath id="SVGID_00000121267310960392424180000013144907984583073185_">
									<use xlink:href="#SVGID_00000106835796845398855240000002319934536703880895_"  style="overflow:visible;"/>
								</clipPath>
								<g style="clip-path:url(#SVGID_00000121267310960392424180000013144907984583073185_);">
									<g>
										<g>
											<g>
												<g>
													<defs>
														
															<rect id="SVGID_00000023999258711045638980000001508996445934015117_" x="140.2" y="209.1" width="59.6" height="65"/>
													</defs>
													<clipPath id="SVGID_00000166635747445591131130000008578779419654699945_">
														<use xlink:href="#SVGID_00000023999258711045638980000001508996445934015117_"  style="overflow:visible;"/>
													</clipPath>
													<g style="clip-path:url(#SVGID_00000166635747445591131130000008578779419654699945_);">
														<g>
															<g>
																<g>
																	<defs>
																		
																			<rect id="SVGID_00000059994895084240749010000004844181275026779054_" x="140.2" y="209.1" width="59.6" height="65"/>
																	</defs>
																	<clipPath id="SVGID_00000025431005973369470710000011853501000986102437_">
																		<use xlink:href="#SVGID_00000059994895084240749010000004844181275026779054_"  style="overflow:visible;"/>
																	</clipPath>
																	<g style="clip-path:url(#SVGID_00000025431005973369470710000011853501000986102437_);">
																		
																			<image style="overflow:visible;enable-background:new    ;" width="127" height="140" xlink:href="A00D37BC.jpg"  transform="matrix(0.4691 0 0 0.4691 140.2938 208.7248)">
																		</image>
																	</g>
																</g>
															</g>
														</g>
													</g>
												</g>
											</g>
										</g>
									</g>
								</g>
							</g>
						</g>
					</g>
				</g>
				<path class="st38" d="M76.3,212.4L76.3,212.4z"/>
				<path class="st38" d="M129.2,185.5c-2.8,3-4.7,6.3-6.1,9.9c-3.3,0.5-6.6,1.1-10,1.8c-12.7,2.9-23.7,7.5-32.8,12.5
					c-1.4,0.8-2.7,1.6-4,2.3l0,0c0-0.1,0-0.3,0-0.4c0-0.1,0-0.3,0-0.5s0-0.3,0-0.5c0-0.3,0-0.6,0-0.8c0-0.1,0-0.2,0-0.3s0-0.2,0-0.3
					c0,0,0,0,0-0.1V209c0-0.3,0-0.5,0-0.8l0,0c0-0.4,0-0.7,0-1c0-0.6-0.1-1.2-0.1-1.8c0-0.5,0-1-0.1-1.4c0,0,0,0,0-0.1
					c0-0.2,0-0.5,0-0.7c0-0.3,0-0.5,0-0.8c0-0.4,0-0.9-0.1-1.3V201c0-0.7-0.1-1.3-0.1-1.9c-0.1-1-0.2-2-0.3-3c0-0.1,0-0.3,0-0.4
					c0-0.1,0-0.2,0-0.4c0-0.1,0-0.1,0-0.2c0-0.1,0-0.2,0-0.4c0-0.1,0-0.2,0-0.4c0-0.4-0.1-0.9-0.1-1.4c0-0.1,0-0.2,0-0.3
					s0-0.2,0-0.3s0-0.2,0-0.3c-0.1-0.6-0.1-1.3-0.2-1.9c0-0.2,0-0.4-0.1-0.7c0-0.3,0-0.6-0.1-0.9c0-0.4-0.1-0.8-0.1-1.2
					c0-0.1,0-0.3,0-0.4c-0.1-1.6-0.2-3.1-0.4-4.4c0-0.1,0-0.3-0.1-0.4c0-0.1,0-0.2,0-0.3v-0.1c0-0.1,0-0.2,0-0.2
					c0-0.1,0-0.3-0.1-0.4V181c0-0.1,0-0.2,0-0.2c0-0.1,0-0.2-0.1-0.3c0-0.2-0.1-0.4-0.1-0.6c-0.1-0.4-0.2-0.7-0.4-0.9l0,0
					c-1-1.2-3.3-1.3-5.5-1.7l0,0h-0.1c-0.3-0.1-0.6-0.1-0.9-0.2h-0.1h-0.1c-3.6-0.9-8.5-2.3-12.7-6.1c-0.1-0.1-0.2-0.2-0.3-0.3
					c-0.8-0.7-1.5-1.5-2.1-2.3c-0.2-0.2-0.3-0.4-0.5-0.7c-0.1-0.2-0.3-0.4-0.4-0.6c-0.1-0.1-0.1-0.2-0.2-0.3c-0.2-0.3-0.4-0.7-0.6-1
					c0-0.1-0.1-0.1-0.1-0.2c-0.6-1.1-1-2.2-1.4-3.4c0-0.1-0.1-0.2-0.1-0.3c-0.1-0.3-0.2-0.7-0.3-1c-0.1-0.2-0.1-0.4-0.2-0.7
					c-0.1-0.2-0.1-0.5-0.2-0.7c-0.1-0.2-0.1-0.4-0.2-0.7v-0.1c0-0.2-0.1-0.4-0.1-0.6c0-0.2-0.1-0.5-0.1-0.7c0,0,0,0,0-0.1
					c-0.1-0.6-0.2-1.1-0.3-1.7v-0.1c0-0.1,0-0.2,0-0.3c-0.1-0.7-0.2-1.5-0.3-2.2c0,0,0,0,0-0.1l0,0c0-0.3-0.1-0.5-0.1-0.8
					c0-0.2,0-0.4-0.1-0.6c-0.1-0.8-0.2-1.7-0.3-2.6c-0.5-4.5-0.9-8.7-0.7-12.1c0-0.1,0-0.2,0-0.3c0-0.7,0.1-1.3,0.2-2
					c0-0.1,0-0.2,0.1-0.3c0-0.1,0-0.2,0.1-0.3l0,0c0-0.1,0-0.2,0.1-0.3c0-0.1,0-0.2,0.1-0.3c0-0.1,0.1-0.2,0.1-0.3s0.1-0.2,0.1-0.3
					c0.1-0.2,0.1-0.4,0.2-0.5c0-0.1,0.1-0.1,0.1-0.2v-0.1c0-0.1,0-0.1,0.1-0.2c0.1-0.2,0.2-0.4,0.3-0.5c0,0,0-0.1,0.1-0.1
					c0.5-0.8,1-1.5,1.8-2c1.1-0.7,2.1-0.9,3.5-0.9l0,0c0.3,0,0.5,0,0.8,0c2.8,0.2,7,1,14.7,0.7c4.1-0.2,9.4,3.7,13.5,5.7
					c3.2,1.6,11.4,1.3,15.7,0.7c1-0.1,1.8-0.3,2.2-0.5c2.6-0.9,13.3,1.3,17.3,3.6c2.2,1.2,6.1,3.8,10.1,7.6
					c3.5,3.3,7.1,7.5,9.9,12.6c1.5,2.8,2.2,5.6,2.3,8.2C138.8,176.1,131.7,182.8,129.2,185.5z"/>
				<path class="st39" d="M116.2,181.1c-3.1,2.7-10.8,0.5-18.6,2.9c-1.6,0.5-7.9,6.3-11.7,13.1c-1.9,3.4-4,8.2-5.7,12.6
					c-1.4,0.8-2.7,1.6-4,2.3l0,0c0-0.1,0-0.2,0-0.3v-0.1c0-0.1,0-0.3,0-0.5s0-0.3,0-0.5c0-0.3,0-0.6,0-0.8c0-0.1,0-0.2,0-0.3
					s0-0.2,0-0.3c0,0,0,0,0-0.1V209c0-0.3,0-0.5,0-0.8l0,0c0-0.4,0-0.7,0-1c0-0.6-0.1-1.2-0.1-1.8c0-0.5,0-1-0.1-1.4c0,0,0,0,0-0.1
					c0-0.2,0-0.5,0-0.7c0-0.3,0-0.5,0-0.8c0-0.4,0-0.9-0.1-1.3V201c0-0.7-0.1-1.3-0.1-1.9c-0.1-1-0.2-2-0.3-3c0-0.1,0-0.3,0-0.4
					c0-0.1,0-0.2,0-0.4c0-0.1,0-0.1,0-0.2c0-0.1,0-0.2,0-0.4c0-0.1,0-0.2,0-0.4c0-0.4-0.1-0.9-0.1-1.4c0-0.1,0-0.2,0-0.3
					s0-0.2,0-0.3s0-0.2,0-0.3c-0.1-0.6-0.1-1.3-0.2-1.9c0-0.2,0-0.4-0.1-0.7c0-0.3,0-0.6-0.1-0.9c0-0.4-0.1-0.8-0.1-1.2
					c0-0.1,0-0.3,0-0.4c-0.1-1.6-0.2-3.1-0.4-4.4c0-0.1,0-0.3-0.1-0.4c0-0.1,0-0.2,0-0.3v-0.1c0-0.1,0-0.2,0-0.2
					c0-0.1,0-0.3-0.1-0.4V181c0-0.1,0-0.2,0-0.2c0-0.1,0-0.2-0.1-0.3c0-0.2-0.1-0.4-0.1-0.6c-0.1-0.4-0.2-0.7-0.4-0.9
					c-2.1-0.9-4.4-1.5-5.6-1.8c-0.1,0-0.1,0-0.2,0c-0.2,0-0.4-0.1-0.6-0.1l0,0c-0.1,0-0.1,0-0.2,0H67h-0.1l0,0
					c-4.2-1.5-9.2-3.1-12.6-6l0,0c0,0,0,0-0.1-0.1s-0.2-0.2-0.3-0.3c-0.8-0.7-1.5-1.5-2.1-2.3c-0.2-0.2-0.3-0.4-0.5-0.7
					c-0.1-0.2-0.3-0.4-0.4-0.6c-0.1-0.1-0.1-0.2-0.2-0.3c-0.2-0.3-0.4-0.7-0.6-1c0-0.1-0.1-0.1-0.1-0.2c-0.6-1.1-1-2.2-1.4-3.4
					c0-0.1-0.1-0.2-0.1-0.3c-0.1-0.3-0.2-0.7-0.3-1c-0.1-0.2-0.1-0.4-0.2-0.7c-0.1-0.2-0.1-0.5-0.2-0.7c-0.1-0.2-0.1-0.4-0.2-0.7
					v-0.1c0-0.2-0.1-0.4-0.1-0.6c0-0.2-0.1-0.5-0.1-0.7c0,0,0,0,0-0.1c-0.1-0.6-0.2-1.1-0.3-1.7v-0.1c0-0.1,0-0.2,0-0.3
					c-0.1-0.7-0.2-1.5-0.3-2.2c0,0,0,0,0-0.1l0,0c0-0.3-0.1-0.5-0.1-0.8c0-0.2,0-0.4-0.1-0.6c-0.1-0.8-0.2-1.7-0.3-2.6
					c-0.5-4.5-0.9-8.7-0.7-12.1c0-0.1,0-0.2,0-0.3c0-0.7,0.1-1.3,0.2-2c0-0.1,0-0.2,0.1-0.3c0-0.1,0-0.2,0.1-0.3l0,0
					c0-0.1,0-0.2,0.1-0.3c0-0.1,0-0.2,0.1-0.3c0-0.1,0.1-0.2,0.1-0.3s0.1-0.2,0.1-0.3c0.1-0.2,0.1-0.4,0.2-0.5
					c0-0.1,0.1-0.1,0.1-0.2v-0.1c0-0.1,0-0.1,0.1-0.2c0.1-0.2,0.2-0.4,0.3-0.5c0,0,0-0.1,0.1-0.1c0.5-0.8,1-1.5,1.8-2
					c1.1-0.7,2.1-0.9,3.5-0.9l0,0c0.3,0,0.5,0,0.8,0c2.8,0.2,7,1,14.7,0.7c0.1,0,0.3,0,0.4,0c0.2,0,0.3,0,0.5,0
					c4,0.3,9,3.5,12.6,5.7c0.1,0,0.1,0.1,0.2,0.1c3.4,2.2,4.6,10.5,11.7,13.7c9.5,4.3,18.9,4.7,24.6,10.3
					C124.9,166.5,120.5,177.3,116.2,181.1z"/>
				<g>
					<g>
						<g>
							<g>
								<defs>
									<path id="SVGID_00000104669424294637146650000011728934329259401134_" d="M67.1,174.6c-4.6,0.1-10.2-0.9-13.5-4.1
										c-5.9-5.6-6.7-13.1-7.6-21.7c-1-9.1-1.8-16.8,2.4-19.7c3.1-2.2,6.1,0.4,19-0.1c4.1-0.2,9.6,3.4,13.5,5.7
										c2.8,1.7,5.5,9.9,5.6,15.6C86.7,156.8,82.2,174.2,67.1,174.6z"/>
								</defs>
								<clipPath id="SVGID_00000096749116786682828460000004665420839998542481_">
									<use xlink:href="#SVGID_00000104669424294637146650000011728934329259401134_"  style="overflow:visible;"/>
								</clipPath>
								<g style="clip-path:url(#SVGID_00000096749116786682828460000004665420839998542481_);">
									<g>
										<g>
											<g>
												<g>
													<defs>
														
															<rect id="SVGID_00000173849871092964484280000001399028890500514728_" x="129.6" y="230.9" width="29.8" height="32.3"/>
													</defs>
													<clipPath id="SVGID_00000044860024784512407020000000230800174706940047_">
														<use xlink:href="#SVGID_00000173849871092964484280000001399028890500514728_"  style="overflow:visible;"/>
													</clipPath>
													<g style="clip-path:url(#SVGID_00000044860024784512407020000000230800174706940047_);">
														<g>
															<g>
																<g>
																	<defs>
																		
																			<rect id="SVGID_00000109016585694624250530000001801393945938527920_" x="129.6" y="230.9" width="29.8" height="32.3"/>
																	</defs>
																	<clipPath id="SVGID_00000172411580048680427730000011457969307762521274_">
																		<use xlink:href="#SVGID_00000109016585694624250530000001801393945938527920_"  style="overflow:visible;"/>
																	</clipPath>
																	<g style="clip-path:url(#SVGID_00000172411580048680427730000011457969307762521274_);">
																		
																			<image style="overflow:visible;enable-background:new    ;" width="65" height="71" xlink:href="A00D37BD.jpg"  transform="matrix(0.4659 0 0 0.4659 129.4979 230.5402)">
																		</image>
																	</g>
																</g>
															</g>
														</g>
													</g>
												</g>
											</g>
										</g>
									</g>
								</g>
							</g>
						</g>
					</g>
				</g>
				<path class="st43" d="M119.6,106.1c-1.8-0.7-3.1-1.2-5.5-1.4c-7.5-0.8-17.3,1.4-24.2,7c2.5-15,6.9-26.3,10.4-33.7
					c3.3-6.9,4.8-8.2,6.2-8.2C111.9,69.8,116.5,88.9,119.6,106.1z"/>
				<path class="st44" d="M151.7,141.2c4.5,0.7,10.1-12.3,12.3-19.1c0.8-2.4,3.5-11.3,3-23.3c-0.2-4.4-0.8-8-1.3-10.6
					c-4.7,7.8-10.6,18.2-16,29.9c-1.5,3.2-4,8.8-2.6,15.4C147.4,134.5,148.7,140.7,151.7,141.2z"/>
				<path class="st45" d="M63.5,137.2c0.3-1.3-1.2-2.5-4.1-5c-2.8-2.4-4.7-3.9-7.5-3.9c-0.5,0-2.2,0-3.5,0.9
					c-5.4,3.5-2.4,17.5-0.3,17.6c0.6,0.1,0.6-1.2,2.6-2.5c1.8-1.3,3-1,3.8-2.2c0.7-1,0.9-2.5,0.2-3.3c-0.8-1-2.2-0.1-3.2-1
					c-1-1-0.8-3.5,0.4-4.1c0.9-0.5,2.2,0.3,2.9,0.9c1.6,1.5,0.9,3.2,2.1,4.2C58.7,140.2,63,139.1,63.5,137.2z"/>
				<path class="st45" d="M46.4,152.8c0.1,0.9,0.2,1.8,0.4,2.7c1.2-0.2,3.2-0.3,5.4,0.3c5.3,1.6,6.5,6.2,12.2,9.3
					c1.3,0.7,3.1,1.8,8.4,3c11.6,2.6,18.8,3.3,19.8,1.8c0.2-0.3,0.7-1.9,0.6-2.1c-0.4-1.2-6.2,1.6-10,1c-1.6-0.2-3.1-0.3-4.7-0.6
					c-3.2-0.5-10.6-1.7-16.2-6.3c-4.2-3.4-3.9-5.8-8-7.8C51.4,152.8,48.5,152.7,46.4,152.8z"/>
				<g>
					<g>
						<g>
							<g>
								<g>
									<defs>
										<path id="SVGID_00000157996991422737947550000018327737763567961780_" d="M168.2,197.3c-0.7-0.1-1.3-0.3-2-0.4
											c-4.7-1-10.3-1.9-16.5-2.3c0.9-1.6,2-3.1,3.2-4.4c4.5-5.1,5.7-9.9,5.6-14.6c-0.1-10.5-6.3-20.5,4.4-31.9
											c6.5-6.9,7.8-32.8,7.8-33.6l0,0l0,0c0,0.3,0,0.6,0,0.9c0,0.1,0,0.3,0,0.4c0,0.5,0,0.9,0,1.4l0,0c0,0.1,0,0.2,0,0.2
											c0,0.5,0,1,0,1.5c0,0.9,0,1.7,0,2.5c0,0.2,0,0.4,0,0.7c0,0.2,0,0.4,0,0.6s0,0.4,0,0.5l0,0c0,1,0,2.1-0.1,3
											c0,0.2,0,0.3,0,0.5v0.1c0,0.5,0,1,0,1.4c0,0.2,0,0.4,0,0.6c-0.2,5.1-0.5,9.3-0.9,12.9c0,0.1,0,0.1,0,0.2
											c0,0.2-0.1,0.5-0.1,0.7l0,0c0,0.4-0.1,0.8-0.1,1.1s-0.1,0.5-0.1,0.8c0,0.2,0,0.4-0.1,0.6l0,0c-0.1,0.6-0.2,1.2-0.2,1.8
											c0,0.2-0.1,0.5-0.1,0.7s-0.1,0.4-0.1,0.7v0.1c-0.1,0.7-0.2,1.3-0.3,1.9c-0.1,0.7-0.2,1.4-0.3,2.1
											c-0.1,0.9-0.3,1.7-0.4,2.5c-0.1,0.6-0.2,1.2-0.3,1.8c0,0.1,0,0.1,0,0.2c0,0.1,0,0.3-0.1,0.4c-0.1,0.9-0.2,1.8-0.3,2.6
											c0,0.3,0,0.5-0.1,0.8v0.1c0,0.2,0,0.4-0.1,0.6c0,0.1,0,0.2,0,0.4s0,0.2,0,0.4c0,0.3,0,0.6-0.1,1c0,0.2,0,0.5,0,0.7
											c0,0.6,0,1.3,0,1.9v0.1l0,0c0,0.1,0,0.3,0,0.4c0,0.2,0,0.3,0,0.5v0.1c0,0.5,0,1.1,0,1.6c0,0.2,0,0.4,0,0.6
											c0,0.2,0,0.4,0,0.5c0,0.2,0,0.4,0,0.5c0,0.3,0,0.6,0.1,0.9c0,0.4,0.1,0.9,0.1,1.3c0,0.3,0.1,0.7,0.1,1c0,0.2,0,0.3,0,0.5
											c0,0.3,0.1,0.6,0.1,1c0,0.2,0,0.3,0,0.5l0,0l0,0c0.2,2.1,0.5,4.3,0.8,6.6v0.1l0,0c0,0.1,0,0.1,0,0.2c0,0.1,0,0.3,0,0.4
											c0.1,0.6,0.1,1.2,0.2,1.8l0,0c0,0.2,0,0.3,0,0.5s0,0.5,0.1,0.7c0,0.2,0,0.5,0.1,0.7c0,0.2,0,0.3,0,0.5s0,0.5,0.1,0.7
											c0,0.2,0,0.5,0,0.7s0,0.3,0,0.5c0,0.4,0,0.9,0.1,1.3c0,0.2,0,0.5,0,0.7s0,0.5,0,0.7s0,0.5,0,0.7s0,0.4,0,0.5
											c0,0.4,0,0.7,0,1.1c0,0.2,0,0.4,0,0.5c0,0.5,0,1-0.1,1.4c0,0.1,0,0.3,0,0.4c0,0.4-0.1,0.9-0.1,1.3l0,0l0,0
											c-0.1,0.8-0.1,1.7-0.2,2.5c0,0.3-0.1,0.6-0.1,0.9C168.3,196.9,168.3,197.1,168.2,197.3"/>
									</defs>
									<clipPath id="SVGID_00000117649433842980714280000016078767491670865300_">
										<use xlink:href="#SVGID_00000157996991422737947550000018327737763567961780_"  style="overflow:visible;"/>
									</clipPath>
									<g style="clip-path:url(#SVGID_00000117649433842980714280000016078767491670865300_);">
										<g>
											<g>
												<g>
													<g>
														<defs>
															
																<rect id="SVGID_00000171714362021753946070000005072851868704780948_" x="179.8" y="222.1" width="20.1" height="52.1"/>
														</defs>
														<clipPath id="SVGID_00000183229843992737650020000004927910935248744625_">
															<use xlink:href="#SVGID_00000171714362021753946070000005072851868704780948_"  style="overflow:visible;"/>
														</clipPath>
														<g style="clip-path:url(#SVGID_00000183229843992737650020000004927910935248744625_);">
															<g>
																<g>
																	<g>
																		<defs>
																			
																				<rect id="SVGID_00000121256856637849295550000005744079246080245389_" x="179.8" y="222.1" width="20.1" height="52.1"/>
																		</defs>
																		<clipPath id="SVGID_00000173866746566011374900000004881471445472175278_">
																			<use xlink:href="#SVGID_00000121256856637849295550000005744079246080245389_"  style="overflow:visible;"/>
																		</clipPath>
																		<g style="clip-path:url(#SVGID_00000173866746566011374900000004881471445472175278_);">
																			
																				<image style="overflow:visible;enable-background:new    ;" width="46" height="113" xlink:href="A00D37B4.jpg"  transform="matrix(0.461 0 0 0.461 179.157 221.9934)">
																			</image>
																		</g>
																	</g>
																</g>
															</g>
														</g>
													</g>
												</g>
											</g>
										</g>
									</g>
								</g>
							</g>
						</g>
					</g>
				</g>
				<path class="st44" d="M114.2,104.7c-6.1-0.7-13.7,0.7-20,4.2c2.2-7.3,4.2-13.8,5.9-19.2c3.5-11.3,5.1-13.9,6.6-13.9
					c2.3,0,3.6,6.9,5.2,14.5C113.2,96.3,113.9,101.3,114.2,104.7z"/>
				<path class="st49" d="M138.3,110.7c4.1,0.5,5.7,0,7-0.6c1.9-0.9,3.1-2,4.6-4.3c0,0-3.7,10.5-4,15c-0.4,4.9,1.5,16.9,1.5,16.9
					s-4-13.6-5.5-17.8C140.9,117.5,138.3,110.7,138.3,110.7z"/>
				<path class="st33" d="M126.4,146.3c0-0.5-0.5-11.8-8.3-15.4c-3.5-1.6-7.1-1.1-11-0.4c-5,0.8-10.8,3-10.5,4.7
					c0.2,1,1.3,2.1,4.7,3c1.2,0.3,1.7,2.5,3.9,4.2c3,2.3,5.9,1.1,12.6,1.9C119.8,144.6,122.8,145.1,126.4,146.3z"/>
				<g>
					<g>
						<path id="SVGID_00000088117477606207677150000010115127404409421710_" class="st50" d="M115.4,142.4c1.8,0.2,4.3,0.4,7.4,0.3
							c-1.4-4.8-2.9-7.4-4-9.1c-0.6-0.9-2-2-3.5-2.6c-2.3-0.7-3.7-1.1-9.1,1c-5.5,2.1-8.4,2.3-8.4,3.1c0,0.9,2,1.5,3.5,1.7
							c1.4,0.2,3.3,2.2,3.9,2.9C108,143.6,112.2,142,115.4,142.4z"/>
					</g>
					<g>
						<g>
							<g>
								<defs>
									<path id="SVGID_00000023991718686894916030000005624816015123055490_" d="M115.4,142.4c1.8,0.2,4.3,0.4,7.4,0.3
										c-1.4-4.8-2.9-7.4-4-9.1c-0.6-0.9-2-2-3.5-2.6c-2.3-0.7-3.7-1.1-9.1,1c-5.5,2.1-8.4,2.3-8.4,3.1c0,0.9,2,1.5,3.5,1.7
										c1.4,0.2,3.3,2.2,3.9,2.9C108,143.6,112.2,142,115.4,142.4z"/>
								</defs>
								<clipPath id="SVGID_00000072979224629672861470000006352523847931028113_">
									<use xlink:href="#SVGID_00000023991718686894916030000005624816015123055490_"  style="overflow:visible;"/>
								</clipPath>
								
									<linearGradient id="SVGID_00000089554765077125536920000007990864322218429104_" gradientUnits="userSpaceOnUse" x1="-822.2338" y1="163.3777" x2="-822.2338" y2="175.7092" gradientTransform="matrix(1 5.329868e-03 5.329868e-03 -1 931.0802 309.4743)">
									<stop  offset="0" style="stop-color:#EC5625"/>
									<stop  offset="0.966" style="stop-color:#BE3F27"/>
								</linearGradient>
								
									<path style="clip-path:url(#SVGID_00000072979224629672861470000006352523847931028113_);fill:url(#SVGID_00000089554765077125536920000007990864322218429104_);" d="
									M115.9,135.6c0,3.4-2.8,6.2-6.2,6.1s-6.1-2.8-6.1-6.2s2.8-6.2,6.2-6.1S115.9,132.2,115.9,135.6z"/>
							</g>
						</g>
					</g>
					<g>
						<g>
							<g>
								<defs>
									<path id="SVGID_00000116206475168119215080000011386600460694859145_" d="M115.6,142.2c1.8,0.2,4.3,0.3,7.4,0.1
										c-1.5-4.8-3.1-7.3-4.3-9c-0.6-0.9-2.1-1.9-3.6-2.5c-2.3-0.6-3.7-1-9.1,1.3s-8.3,2.5-8.3,3.3c0,0.9,2,1.4,3.5,1.6
										c1.4,0.2,3.4,2.1,4,2.8C108.2,143.6,112.4,141.9,115.6,142.2z"/>
								</defs>
								<clipPath id="SVGID_00000126307716427065574290000003532745736157770164_">
									<use xlink:href="#SVGID_00000116206475168119215080000011386600460694859145_"  style="overflow:visible;"/>
								</clipPath>
								
									<ellipse style="clip-path:url(#SVGID_00000126307716427065574290000003532745736157770164_);fill:#1D1C1A;" cx="109.3" cy="135.5" rx="5.1" ry="5.1"/>
							</g>
						</g>
					</g>
					<g>
						<g>
							<g>
								<defs>
									<path id="SVGID_00000152962631488646130270000013182192180483260849_" d="M115.4,142.4c1.8,0.2,4.3,0.4,7.4,0.3
										c-1.4-4.8-2.9-7.4-4-9.1c-0.6-0.9-2-2-3.5-2.6c-2.3-0.7-3.7-1.1-9.1,1c-5.5,2.1-8.4,2.3-8.4,3.1c0,0.9,2,1.5,3.5,1.7
										c1.4,0.2,3.3,2.2,3.9,2.9C108,143.6,112.2,142,115.4,142.4z"/>
								</defs>
								<clipPath id="SVGID_00000161606810322041845570000000431605038586224789_">
									<use xlink:href="#SVGID_00000152962631488646130270000013182192180483260849_"  style="overflow:visible;"/>
								</clipPath>
								<path style="clip-path:url(#SVGID_00000161606810322041845570000000431605038586224789_);fill:#FFFFFF;" d="M106.4,134
									c0.1-0.1,0.2-0.2,0.3-0.3c0.3-0.4,0.9-0.4,1.3,0c0.1,0.1,0.2,0.2,0.3,0.3c0.4,0.3,0.4,0.9,0,1.3c-0.1,0.1-0.2,0.2-0.3,0.3
									c-0.3,0.4-0.9,0.4-1.3,0c-0.1-0.1-0.2-0.2-0.3-0.3C106,134.9,106,134.3,106.4,134z"/>
							</g>
						</g>
					</g>
				</g>
				<path class="st32" d="M109.2,126.6c-2.2,2-4.7,2.7-5.6,2.9c-1.6,0.4-4.5,1.1-5.6,0c-1.5-1.4,0.2-5.6,3.5-7.7
					c3.7-2.4,9.5-2,10.4-0.1C112.6,123.4,109.9,125.9,109.2,126.6z"/>
				<path class="st32" d="M84.8,122.2c0.5,0.5,1.5,0.5,2.2,0.3c2.7-0.9,3.4-6.2,2.4-6.8c-0.8-0.5-2.7,1.6-2.9,1.8
					C85.3,118.9,84,121.2,84.8,122.2z"/>
				<g>
					<circle class="st45" cx="72.6" cy="138.8" r="0.6"/>
					<circle class="st45" cx="73" cy="150.2" r="0.3"/>
					<circle class="st45" cx="72.8" cy="146.5" r="0.4"/>
					<circle class="st45" cx="68.6" cy="148.2" r="0.5"/>
					<circle class="st45" cx="76.6" cy="151.6" r="0.5"/>
					<circle class="st45" cx="71.8" cy="158" r="0.4"/>
					<circle class="st45" cx="71" cy="153.9" r="0.5"/>
					<circle class="st45" cx="65.3" cy="155.7" r="0.5"/>
					<circle class="st45" cx="64" cy="144.1" r="0.4"/>
					<circle class="st45" cx="59.5" cy="146.9" r="0.4"/>
					<circle class="st45" cx="62.4" cy="151.3" r="0.6"/>
				</g>
			</g>
			<path class="st54" d="M192.5,132.5c-2.1-22.2-11.3-41.9-26-55.3c-17.8-16.2-43.7-23.1-71-18.8C80.8,60.7,66.4,66.2,54,74.2
				c-13,8.4-23.7,19.6-30.9,32.2c-11,19.2-14.5,42.6-9.8,65.7c2.3,11.5,6.5,22.6,12.5,32.9c6.2,10.7,14.2,20.3,23.8,28.5l0.2,0.2
				l0.2-0.2c7.7-8.1,16.6-15.2,26.3-21.1l0.1-0.1c0.1,0,0.1-0.1,0.2-0.1l0,0c1.2-0.7,2.5-1.5,3.8-2.2c10.3-5.7,21.3-9.9,32.7-12.5
				c3.3-0.7,6.7-1.4,10-1.8c1.6-0.2,3.2-0.4,4.8-0.6c1.2-0.1,2.5-0.2,3.7-0.3c6-0.4,11.9-0.4,17.9,0.1c5.5,0.4,11.1,1.2,16.5,2.3
				c0.6,0.1,1.2,0.2,1.9,0.4l0,0h0.1c2.6,0.6,5.3,1.3,7.9,2.1l0.3,0.1l0.1-0.2C188.9,179.1,194.6,155.2,192.5,132.5z M176,199
				c-2.4-0.7-4.9-1.4-7.4-2c-0.1,0-0.1,0-0.2,0l0,0h-0.1c-0.7-0.2-1.4-0.3-2-0.4c-5.4-1.1-11-1.9-16.6-2.4
				c-8.8-0.7-17.7-0.4-26.4,0.8c-0.1,0-0.1,0-0.2,0c-3.3,0.5-6.7,1.1-10.1,1.8c-11.3,2.6-22.3,6.7-32.5,12.4c-0.1,0-0.2,0.1-0.4,0.2
				c-1.2,0.7-2.4,1.4-3.5,2.1c-0.1,0.1-0.2,0.1-0.3,0.2l0,0c0,0,0,0-0.1,0h-0.1c-9.7,5.9-18.5,13-26.3,21.1
				c-37.4-32.3-48.7-86.4-26.1-126c14.3-25,41.2-42.9,71.9-47.7c6.3-1,12.6-1.4,18.7-1.2c20,0.6,38.2,7.5,51.7,19.8
				C196.6,105.6,200.9,157.7,176,199z"/>
			<line class="st34" x1="137.2" y1="159.6" x2="138.8" y2="161.1"/>
		</g>
		
			<linearGradient id="SVGID_00000171717108851327371140000017945629582703314054_" gradientUnits="userSpaceOnUse" x1="6.2924" y1="432.499" x2="95.465" y2="393.0507" gradientTransform="matrix(1 0 0 -1 0 541.8897)">
			<stop  offset="0" style="stop-color:#0076BD"/>
			<stop  offset="9.549969e-02" style="stop-color:#00629D;stop-opacity:0.9045"/>
			<stop  offset="0.2546" style="stop-color:#00446D;stop-opacity:0.7454"/>
			<stop  offset="0.4134" style="stop-color:#002C46;stop-opacity:0.5866"/>
			<stop  offset="0.569" style="stop-color:#001927;stop-opacity:0.431"/>
			<stop  offset="0.7207" style="stop-color:#000B12;stop-opacity:0.2793"/>
			<stop  offset="0.8665" style="stop-color:#000304;stop-opacity:0.1335"/>
			<stop  offset="1" style="stop-color:#000000;stop-opacity:0"/>
		</linearGradient>
		<path style="fill:url(#SVGID_00000171717108851327371140000017945629582703314054_);" d="M44.1,108.1
			C23.9,143.9,29.2,189.7,60.2,223c-3.7,3.3-6.2,5.3-8.2,7.4c-38.2-33-47-83.4-25.1-122.3c18.9-33.5,58.9-51.7,94.9-48.4
			C91,62.5,60,79.9,44.1,108.1z"/>
	</g>
	<g>
		
			<linearGradient id="SVGID_00000170961948219944566280000015335594062571093669_" gradientUnits="userSpaceOnUse" x1="83.7437" y1="244.972" x2="192.722" y2="203.8716" gradientTransform="matrix(0.9995 3.066388e-02 3.066388e-02 -0.9995 -13.2483 511.9431)">
			<stop  offset="0" style="stop-color:#FFFFFF"/>
			<stop  offset="1" style="stop-color:#9479A6"/>
		</linearGradient>
		<path style="fill:url(#SVGID_00000170961948219944566280000015335594062571093669_);" d="M78.8,255.5c-4,3.8-5.9,9.4-5.2,14.9
			c1.5,10.8,4.8,23.9,11.7,37.6c22.2,44.4,65.1,60.8,76.8,64.8c33.6,5,67.2,9.9,100.8,14.9c26.8-7.1,45.8-27.5,46.7-48.8
			c1.2-26.5-24.6-52-44.3-53.9c-8-0.8-20.4-3-33.9-9.5c-14.3-6.9-24.1-15.8-29.7-21.8c-5.7-3.5-59.1-35.1-105.1-11
			C91.4,245.4,85.1,249.4,78.8,255.5z"/>
		<path class="st57" d="M302.2,312.2c-60.6,19.8-111.6-53.9-121.1-68.7c10.9,4.4,18.5,8.9,20.4,10.1c5.7,6,15.4,14.9,29.7,21.8
			c13.6,6.5,25.9,8.7,34,9.5C278,286.1,293.4,297.3,302.2,312.2z"/>
		<path class="st58" d="M280.4,328.8c0.3-9.8-1.1-19.6-4.2-28.7c-1.6-4.8-3.7-9.9-6.2-14.4l1,0.2c2.5,4.5,4.4,9,6,13.9
			c3.1,9.2,4.4,18.9,4.1,28.8L280.4,328.8z"/>
		<path class="st58" d="M157.5,361.8c-3.9-1.5-8.1-3.4-11.7-5.5c-42.3-23.9-54.1-78.5-57.4-108.9l0.9-0.4c3.2,30.3,15,84.9,57,108.5
			c3.6,2,7.4,3.8,11.3,5.3v1H157.5z"/>
		<path class="st58" d="M204.6,362.4c-3.9-7.5-7.4-15.3-10.4-23.1c-7.8-20.3-12.5-41.9-14.1-64l0,0c0.1-5.4-0.2-10.9-1-16.3
			c-0.9-6-2.5-12-4.6-17.7l0.9-0.3c2.1,5.8,3.7,11.8,4.6,17.9c0.8,5.4,1.2,10.9,1,16.4c1.6,22,6.3,43.5,14,63.7
			c3,7.8,6.5,15.6,10.4,23L204.6,362.4z"/>
		
			<linearGradient id="SVGID_00000132770689226576381220000000147396503614134953_" gradientUnits="userSpaceOnUse" x1="150.4586" y1="152.5095" x2="203.2905" y2="151.2808" gradientTransform="matrix(0.9995 3.066388e-02 3.066388e-02 -0.9995 -13.2483 511.9431)">
			<stop  offset="0" style="stop-color:#FFFFFF"/>
			<stop  offset="1" style="stop-color:#9479A6"/>
		</linearGradient>
		<path style="fill:url(#SVGID_00000132770689226576381220000000147396503614134953_);" d="M196.7,321c2.1-2.6,9.2-12.1,7.9-24.9
			c-0.3-3.4-0.7-7.4-3.2-10.5c-8.7-11-40-8.8-55.5,9.3c-7.2,8.4-14.5,24.5-7.7,39c4.4,9.4,12.8,13.9,16.3,15.5
			c2.2,16.4,5.1,34,9.1,52.6c4,18.5,8.6,35.8,13.4,51.5c4,0,15.6,0,19.6,0c-1.1-12.8-2.2-29.8-2.6-49.9c-0.1-3.9-0.2-11.1-0.1-20
			C193.9,367.8,194.6,346.6,196.7,321z"/>
		
			<linearGradient id="SVGID_00000021100288041701206980000000862998557551418543_" gradientUnits="userSpaceOnUse" x1="249.7381" y1="112.0728" x2="314.8275" y2="115.7571" gradientTransform="matrix(0.9995 3.066388e-02 3.066388e-02 -0.9995 -13.2483 511.9431)">
			<stop  offset="0" style="stop-color:#FFFFFF"/>
			<stop  offset="1" style="stop-color:#9479A6"/>
		</linearGradient>
		<path style="fill:url(#SVGID_00000021100288041701206980000000862998557551418543_);" d="M262.5,378.2c1,8.8,3,16.1,4.8,21.5
			c0.6,1.7,1.5,3.3,2.7,4.6c22.7,25.3,45.3,50.6,68,75.8c4.9-2.8,3.9-2.3,8.8-5.1c-13.3-40.5-26.6-81-39.9-121.6
			c3-6.2,3-12.9-0.4-17.3c-5.1-6.7-15.4-4.9-18.8-4.3c-10.2,1.8-18.9,9-23.3,17.7C260.2,358,261.1,365.9,262.5,378.2z"/>
		
			<linearGradient id="SVGID_00000057827723390402536810000018078686669293729930_" gradientUnits="userSpaceOnUse" x1="99.4304" y1="130.2018" x2="153.2063" y2="136.889" gradientTransform="matrix(0.9995 3.066388e-02 3.066388e-02 -0.9995 -13.2483 511.9431)">
			<stop  offset="0" style="stop-color:#FFFFFF"/>
			<stop  offset="1" style="stop-color:#9479A6"/>
		</linearGradient>
		<path style="fill:url(#SVGID_00000057827723390402536810000018078686669293729930_);" d="M140.9,363.2c-8.6-4.4-20.7-11.9-32.7-24
			c-11.4-11.5-18.5-23.1-22.9-31.5c14.8,49.3,29.5,98.5,44.3,147.8c4.4,0.4,12.5,1.3,16.9,1.7C145.9,426,141.5,394.4,140.9,363.2z"
			/>
		
			<linearGradient id="SVGID_00000179639124765181198530000011867675969659972486_" gradientUnits="userSpaceOnUse" x1="207.7964" y1="99.1567" x2="254.4204" y2="118.3715" gradientTransform="matrix(1 0 0 -1 0 541.8897)">
			<stop  offset="0" style="stop-color:#FFFFFF"/>
			<stop  offset="1" style="stop-color:#9479A6"/>
		</linearGradient>
		<path style="fill:url(#SVGID_00000179639124765181198530000011867675969659972486_);" d="M216.3,380.7
			c15.9,30.6,31.7,61.3,47.6,91.9c4.4,0,8.8,0.1,13.2,0.1c-6.8-28.7-13.6-57.4-20.5-86C243.2,384.6,229.8,382.7,216.3,380.7z"/>
		<path class="st63" d="M154.5,349.4c-3.5-0.4-8.5-1.7-12.8-5.4c-12.1-10.6-6.9-31.2-6.2-34.1c5-18.5,22.6-32.6,41.2-34.3
			c5-0.5,18.5-1.7,26.1,6.9c8.6,9.7,7.1,29-6.4,45.7c0.1-2.4,0.2-4.8,0.2-7.2c8.1-12.4,9-25.9,2.6-33.4c-4.1-4.9-10.3-6.1-13.2-6.7
			c-15.1-2.9-27.6,6.9-30.2,9c-11.8,9.8-21.1,28.8-14.2,44.9C145,342.6,151,347.2,154.5,349.4z"/>
		<path class="st63" d="M85.4,307.7c-1.3,5.7-1.1,10.4-0.4,13.9c3.4,17.6,22.1,31.5,46.9,36.5c-9.8-6.1-22.8-16-34.4-31.2
			C92.4,320.2,88.4,313.7,85.4,307.7z"/>
		<path class="st63" d="M262.3,376.1c-1.5-0.3-3.1-1-4.4-2.3c-6.7-6.8-0.4-27.5,12.5-38.6c2.1-1.8,15.7-13.1,28.9-8
			c1.1,0.4,11.8,4.7,12.5,14.1c0.5,6.4-3.9,11.1-5,12.2c0.2-3.6,0.4-7.2,0.5-10.8c-1.1-1.9-3.8-5.8-8.6-7.8
			c-8.3-3.6-16.5,1-19.3,2.6c-7.7,4.3-11.1,11.1-13,15C261.7,362,261.8,371.2,262.3,376.1z"/>
		<path class="st63" d="M304.6,330c1.9-4.4,2.2-8,2.2-10.4c-0.1-14.8-14-26.7-26-31.3c-4.2-1.6-7.9-2.2-10.3-2.5
			c5,2.9,11.8,7.5,18.2,14.7C298.6,311.7,302.8,323.3,304.6,330z"/>
		<path class="st63" d="M202.7,250.3c-0.3,1.1-0.6,2.2-1,3.3c1.9,2.1,4.9,5.1,8.9,8.3c2.8,2.3,4.8,3.7,5.4,4.1
			c8.5,6.4,7.6,29.4,7.4,35.1c-0.6,15.1-1.6,30.1-11.7,46.2c-5.6,8.9-10.9,14.5-15.3,18.1c-0.1,3.5,0.3,8.8,0.2,12.3
			c5.5-3.2,12.4-10.6,19.8-20.5c13.6-18.1,14.3-37.4,14.5-47.5c0.2-11.5,0.8-37.4-17-52.6C209.7,253.7,205.6,251.6,202.7,250.3z"/>
		<path class="st58" d="M203.5,378.8l-1.1-0.2c7.8-4.3,27.3-17.4,36.4-42.5c9.6-26.3,2.1-49.5-1.5-58.1l0.9,0.3
			c3.7,8.7,11.2,31.5,1.5,58.1C230.5,361.8,211.5,374.4,203.5,378.8z"/>
		<path class="st25" d="M246.2,281.1c-1.1-0.3-2.2-0.7-3.3-1.1c-0.9-0.3-1.8-0.6-2.6-0.9c2-1,4.8-2.1,7.6-1.4
			c12.8,3.1,20.7,39.1,10.1,66c-8.7,22.2-27.9,33.3-36.6,37.6c-2.4-0.4-4.9-0.7-7.2-1.1c2.7-1.1,7.1-3.1,11.9-6.5
			c21.6-15.1,34.6-45.3,28.4-72.8C253.4,296.3,251.3,289.2,246.2,281.1z"/>
		<path class="st32" d="M270.6,400.7c0,0,2.3,4.7,6.4,7.2l4.4-3.3l-6.6-6.5L270.6,400.7z"/>
		<path class="st32" d="M165.7,389.5c0,0,0,5,2.2,9.2l4.6-0.1l-2.6-8.9L165.7,389.5z"/>
		<path class="st32" d="M98.3,315.6c0,0,5.7,10,10.1,13.3l-3.6,3.1c0,0-7-4.9-10.3-12.5L98.3,315.6z"/>
		<g>
			<g>
				<path class="st33" d="M292.3,294.8c0,0,12.1,1.9,3-14C286.2,264.9,267,270,267,270s27.6-39.4,53.8-10
					c21.3,23.9-3.5,51.1-15.7,50.7c-1.3-2.6-2.5-6-6-9.5C296.6,298.7,294.4,296.4,292.3,294.8z"/>
				<path class="st38" d="M252.7,245.3c7.2-17.6,37.5-27.7,58-8.7c19.6,18.2,17.8,38.1,17.6,39.5c-2.4-14.6-16.8-27.6-33.2-19
					c8.2-1.2,13.6-0.3,16.9,0.9c-2.5-0.5-5.2-0.6-8.2-0.2c-12.2,1.7-31.7,13.7-27.5,38.9c0,0-17.8-6.9-22.1-24.7
					c-0.6,3.3-0.5,6.4,0.2,9.2C246.6,270,248,256.7,252.7,245.3z"/>
			</g>
			<g>
				<path class="st33" d="M305.1,310.8c-0.7-1.3-1.4-2.8-2.3-4.4c40.6-27.9,0.9-48.5,0.9-48.5c3-0.4,5.7-0.3,8.2,0.2
					c-3.3-1.2-8.6-2.1-16.9-0.9c16.4-8.6,30.8,4.5,33.2,19c0-0.2,0.1-0.9,0.1-2C332.9,293.5,314.9,311.1,305.1,310.8z"/>
			</g>
			<path class="st64" d="M305.1,310.8c-0.7-1.3-1.4-2.8-2.3-4.4c40.6-27.9,0.9-48.5,0.9-48.5c3-0.4,5.7-0.3,8.2,0.2
				c-3.3-1.2-8.6-2.1-16.9-0.9c16.4-8.6,30.8,4.5,33.2,19c0-0.2,0.1-0.9,0.1-2C332.9,293.5,314.9,311.1,305.1,310.8z"/>
		</g>
		<g id="XMLID_360_">
			<path id="XMLID_364_" class="st65" d="M251.3,456.8c2.2-0.9,21.5-2.4,28.5,0.3c0.3,0.1,0.5,0.4,0.4,0.7l-2.3,13
				c0,0.1,0,0.2,0,0.3c0.4,1,2.3,6.1-0.2,9.7c-0.1,0.1-0.3,0.2-0.4,0.3c-3.1,0.2-31.6,2.3-33.4,0c-3.1-4.2,9-8.6,11.9-9.6
				c0.3-0.1,0.5-0.5,0.4-0.8l-5.3-13.1C250.7,457.3,250.9,456.9,251.3,456.8z"/>
			<path id="XMLID_362_" class="st25" d="M268.8,467.6c-0.2,0.5-0.6,0.9-1.1,1c-4.2,1-9.5,1.3-13.2,0.7c-1.8-0.3-4-7-2.8-7.9
				c0.4-0.9,9.6-2.2,15.8-1.6c0.6,0.1,1.1,0.5,1.3,1.1C269.4,463.2,269.4,465.5,268.8,467.6z"/>
			<path id="XMLID_361_" class="st66" d="M253.1,463.4c0.8-2.3,12.1-2.6,13-1.1s0.3,3.4,0,4.3s-9.2,1.5-10.4,1.2
				C254.4,467.5,252.6,464.8,253.1,463.4z"/>
		</g>
		<g id="XMLID_00000145751420386733123430000015577423718733279104_">
			<path id="XMLID_00000047767395732985883240000015432044400293254803_" class="st65" d="M170.5,452.1c2.6-1,25-2.8,33.1,0.4
				c0.3,0.1,0.6,0.5,0.5,0.8l-2.7,15.2c0,0.1,0,0.3,0,0.4c0.5,1.1,2.7,7.1-0.2,11.3c-0.1,0.2-0.3,0.3-0.5,0.3
				c-3.7,0.3-36.8,2.7-38.8,0c-3.7-4.9,10.5-10,13.9-11.1c0.4-0.1,0.6-0.6,0.4-0.9L170,453C169.8,452.6,170.1,452.2,170.5,452.1z"/>
			<path id="XMLID_00000047027430853570721340000012591001263332384438_" class="st25" d="M190.8,464.6c-0.2,0.6-0.7,1.1-1.3,1.2
				c-4.9,1.2-11.1,1.5-15.4,0.8c-2.1-0.4-4.6-8.2-3.2-9.2c0.5-1,11.2-2.6,18.4-1.9c0.7,0.1,1.3,0.6,1.5,1.3
				C191.6,459.5,191.5,462.1,190.8,464.6z"/>
			<path id="XMLID_00000020387867934898701700000003432595865667836293_" class="st66" d="M172.5,459.7c0.9-2.7,14-3,15.1-1.2
				s0.4,3.9,0,5s-10.7,1.8-12.1,1.4C174.1,464.5,172,461.3,172.5,459.7z"/>
		</g>
		<g id="XMLID_00000050639794181992167130000015500584959638754724_">
			<path id="XMLID_00000000191079256269809670000016685776059673035921_" class="st65" d="M123.1,451.9c2.2-0.9,21.4-2.4,28.3,0.3
				c0.3,0.1,0.5,0.4,0.4,0.7l-2.3,13c0,0.1,0,0.2,0,0.3c0.4,1,2.3,6.1-0.2,9.7c-0.1,0.1-0.3,0.2-0.4,0.2c-3.1,0.2-31.5,2.3-33.2,0
				c-3.1-4.2,9-8.6,11.9-9.5c0.3-0.1,0.5-0.5,0.4-0.8l-5.3-13.1C122.5,452.3,122.8,452,123.1,451.9z"/>
			<path id="XMLID_00000029032515522134148510000001879842326627994028_" class="st25" d="M140.5,462.6c-0.2,0.5-0.6,0.9-1.1,1
				c-4.2,1-9.5,1.3-13.2,0.7c-1.8-0.3-4-7-2.7-7.9c0.4-0.9,9.6-2.2,15.7-1.6c0.6,0.1,1.1,0.5,1.3,1.1
				C141.2,458.3,141.1,460.5,140.5,462.6z"/>
			<path id="XMLID_00000013172059687540439890000004140920878893950887_" class="st66" d="M124.9,458.4c0.8-2.3,12-2.6,12.9-1.1
				s0.3,3.4,0,4.3s-9.1,1.5-10.4,1.2C126.2,462.5,124.4,459.8,124.9,458.4z"/>
		</g>
		<g id="XMLID_00000010301944623968539670000009257800267992093363_">
			<path id="XMLID_00000072271847997927334300000008423845366731181497_" class="st65" d="M322.5,466.9c2.2-0.9,21.5-2.4,28.5,0.3
				c0.3,0.1,0.5,0.4,0.4,0.7l-2.3,13c0,0.1,0,0.2,0,0.3c0.4,1,2.3,6.1-0.2,9.7c-0.1,0.1-0.3,0.2-0.4,0.3c-3.1,0.2-31.6,2.3-33.4,0
				c-3.1-4.2,9-8.6,11.9-9.6c0.3-0.1,0.5-0.5,0.4-0.8l-5.3-13.1C322,467.3,322.2,467,322.5,466.9z"/>
			<path id="XMLID_00000005978286316362625940000014364582331072139136_" class="st25" d="M340,477.7c-0.2,0.5-0.6,0.9-1.1,1
				c-4.2,1-9.5,1.3-13.2,0.7c-1.8-0.3-4-7-2.8-7.9c0.4-0.9,9.6-2.2,15.8-1.6c0.6,0.1,1.1,0.5,1.3,1.1
				C340.7,473.3,340.6,475.5,340,477.7z"/>
			<path id="XMLID_00000037694672572611179580000009121572516730493318_" class="st66" d="M324.3,473.5c0.8-2.3,12.1-2.6,13-1.1
				s0.3,3.4,0,4.3s-9.2,1.5-10.4,1.2S323.8,474.8,324.3,473.5z"/>
		</g>
		<g>
			<path class="st58" d="M84.6,268.1c3.1-2.1,10.4-6.7,16.2-8.4c1-0.3,2,0.6,2.3,2.1l1.2,7.7c0.2,1.5-0.4,3-1.4,3.4l-15.6,6.4
				c-1,0.4-2-0.4-2.3-1.8l-1.3-6C83.2,270.2,83.7,268.7,84.6,268.1z"/>
			<path class="st25" d="M86.3,268.9c2.3-1.6,7.9-5.2,12.3-6.5c0.7-0.2,1.4,0.4,1.6,1.4l1.1,5.7c0.2,1-0.2,2.1-0.9,2.4l-12,5.1
				c-0.7,0.3-1.5-0.2-1.7-1.2l-1.1-4.5C85.3,270.4,85.6,269.4,86.3,268.9z"/>
		</g>
	</g>
</g>
</svg>
