<svg id="Layer_1" data-name="Layer 1" xmlns="http://www.w3.org/2000/svg" viewBox="0 0 85.19 85.19"><defs><style>.cls-1{fill:#f5f5f5;}.cls-2{fill:#ececec;}.cls-3{fill:#dad9d8;}</style></defs><circle class="cls-1" cx="42.59" cy="42.59" r="42.59"/><path class="cls-2" d="M59.58,72.82C59.74,69,49.4,67.72,49.15,62.6c-.32-6.6,16.58-11.49,15.65-15-.72-2.72-10.89.42-15.87-5.21C45,37.94,48.66,33,45,27.82c-4.63-6.54-17.65-8.45-22.17-3.69s2.6,13-2.61,24.34c-2.49,5.41-5,5.27-5.65,9.35-1.34,8,6.61,17.55,15.65,21.3C43.35,84.57,59.4,77.55,59.58,72.82Z" transform="translate(-2.46 -0.73)"/><circle class="cls-3" cx="47.59" cy="25.75" r="0.88"/><circle class="cls-3" cx="58.13" cy="22.79" r="0.88"/><ellipse class="cls-3" cx="43.41" cy="43.05" rx="0.34" ry="0.41"/><circle class="cls-3" cx="46.77" cy="37.38" r="0.41"/><ellipse class="cls-3" cx="44.21" cy="37.34" rx="0.47" ry="0.57"/><circle class="cls-3" cx="54.56" cy="31.91" r="0.57"/><circle class="cls-3" cx="50.91" cy="23.2" r="0.68"/><circle class="cls-3" cx="38.38" cy="20.24" r="0.74"/><circle class="cls-3" cx="66.04" cy="60.11" r="0.83"/><circle class="cls-3" cx="53.47" cy="55.68" r="0.83"/><circle class="cls-3" cx="39.76" cy="54.35" r="0.64"/><ellipse class="cls-3" cx="34.89" cy="35.7" rx="0.62" ry="0.75"/><circle class="cls-3" cx="49.17" cy="59.35" r="0.75"/><circle class="cls-3" cx="24.68" cy="36.41" r="0.71"/><circle class="cls-3" cx="32.88" cy="12.46" r="0.55"/><ellipse class="cls-3" cx="54.8" cy="42.64" rx="0.88" ry="0.99"/><ellipse class="cls-3" cx="47.18" cy="72.54" rx="0.65" ry="0.73"/><ellipse class="cls-3" cx="34.89" cy="63.62" rx="0.88" ry="0.99"/><circle class="cls-3" cx="25.08" cy="15.12" r="0.59"/><circle class="cls-3" cx="28.06" cy="22.68" r="0.92"/><circle class="cls-3" cx="19.23" cy="52.35" r="0.92"/><path class="cls-2" d="M72.15,65.89c3.28-.76,4.51-5.29,6.38-12.17,1.27-4.68,2.08-7.79.58-9s-5-.36-6.67,1.74c-2.44,3,.6,6.4-1.74,10.43-1.91,3.29-5.26,3.3-5.21,5.22S69.26,66.56,72.15,65.89Z" transform="translate(-2.46 -0.73)"/></svg>