<?xml version="1.0" standalone="no"?>
<!DOCTYPE svg PUBLIC "-//W3C//DTD SVG 1.1//EN" "http://www.w3.org/Graphics/SVG/1.1/DTD/svg11.dtd" >
<svg xmlns="http://www.w3.org/2000/svg" xmlns:xlink="http://www.w3.org/1999/xlink" version="1.1">
<metadata>
Created by FontForge 20170731 at Mon Jun 21 15:57:01 2021
 By Aleksey,,,
Copyright (c) 2019 by Daimler AG. All rights reserved.
</metadata>
<defs>
<font id="MBCorpoSText-Light" horiz-adv-x="1110" >
  <font-face 
    font-family="MB Corpo S Text Light"
    font-weight="300"
    font-stretch="normal"
    units-per-em="2048"
    panose-1="2 11 4 4 5 0 0 0 0 4"
    ascent="1688"
    descent="-360"
    x-height="1001"
    cap-height="1368"
    bbox="-1247 -483 2269 2044"
    underline-thickness="106"
    underline-position="-352"
    unicode-range="U+000D-FEFF"
  />
<missing-glyph horiz-adv-x="1230" 
d="M989 1645l17 -17v-1890l-17 -17h-747l-17 17v1890l17 17h747zM973 1612h-715v-1858h715v1858z" />
    <glyph glyph-name=".notdef" horiz-adv-x="1230" 
d="M989 1645l17 -17v-1890l-17 -17h-747l-17 17v1890l17 17h747zM973 1612h-715v-1858h715v1858z" />
    <glyph glyph-name=".null" horiz-adv-x="0" 
 />
    <glyph glyph-name="nonmarkingreturn" horiz-adv-x="682" 
 />
    <glyph glyph-name="CR" unicode="&#xd;" horiz-adv-x="522" 
 />
    <glyph glyph-name="space" unicode=" " horiz-adv-x="522" 
 />
    <glyph glyph-name="exclam" unicode="!" horiz-adv-x="524" 
d="M199 1368h127v-324l-23 -665h-84l-20 665v324zM262 -20q-43 0 -71.5 29t-28.5 73t28.5 73t71.5 29t70.5 -29t27.5 -73t-27.5 -73t-70.5 -29z" />
    <glyph glyph-name="quotedbl" unicode="&#x22;" horiz-adv-x="741" 
d="M160 956l-17 318v94h125v-94l-16 -318h-92zM479 956l-16 318v94h125v-94l-17 -318h-92z" />
    <glyph glyph-name="numbersign" unicode="#" 
d="M1006 860h-207l-43 -330h211v-102h-224l-55 -428h-108l55 428h-234l-55 -428h-110l55 428h-185v102h199l43 330h-205v103h217l54 405h108l-51 -405h234l51 405h108l-51 -405h193v-103zM647 530l43 330h-233l-43 -330h233z" />
    <glyph glyph-name="dollar" unicode="$" 
d="M977 352q0 -149 -101 -240.5t-260 -107.5v-184h-100v180q-235 12 -391 182l65 80q65 -73 152 -112t174 -46v555l-76 31q-124 54 -196 136t-72 212q0 131 94.5 225t249.5 103v168h100v-170q185 -20 318 -156l-64 -80q-116 116 -254 132v-519l68 -28q293 -124 293 -361z
M293 1042q0 -52 17.5 -93.5t51.5 -72t65.5 -49.5t76.5 -39l12 -6v480q-106 -10 -164.5 -71.5t-58.5 -148.5zM616 109q113 15 175.5 76.5t62.5 156.5q0 70 -31 122t-79 84.5t-128 67.5v-507z" />
    <glyph glyph-name="percent" unicode="%" horiz-adv-x="1572" 
d="M315 0l824 1368h129l-828 -1368h-125zM403 647q-141 0 -227 101.5t-86 271.5t86 271.5t227 101.5t227.5 -101.5t86.5 -271.5t-86.5 -271.5t-227.5 -101.5zM403 739q92 0 144.5 73.5t52.5 207.5t-52.5 207t-144.5 73q-93 0 -144.5 -73t-51.5 -207t51.5 -207.5t144.5 -73.5
zM1169 -27q-141 0 -226 101.5t-85 273.5q0 170 85 270.5t226 100.5q142 0 228 -100t86 -271q0 -172 -86 -273.5t-228 -101.5zM1169 68q93 0 146 72.5t53 207.5q0 134 -53 206.5t-146 72.5q-92 0 -144 -72.5t-52 -206.5q0 -135 52 -207.5t144 -72.5z" />
    <glyph glyph-name="ampersand" unicode="&#x26;" horiz-adv-x="1189" 
d="M1139 0h-146l-131 156q-140 -181 -366 -181q-167 0 -272 99t-105 245q0 244 270 394l-29 32q-65 74 -105 158.5t-40 157.5q0 153 95 242.5t233 89.5q125 0 217 -84.5t92 -210.5q0 -116 -68.5 -209.5t-234.5 -192.5l311 -370q75 163 84 399h105q-15 -296 -117 -481z
M336 1073q0 -129 108 -254l45 -53q78 46 130 91t77 86.5t34 75t9 71.5q0 91 -57.5 146.5t-136.5 55.5q-88 0 -148.5 -58t-60.5 -161zM510 78q171 0 287 158l-346 407q-209 -122 -209 -313q0 -108 73 -180t195 -72z" />
    <glyph glyph-name="quotesingle" unicode="'" horiz-adv-x="421" 
d="M166 956l-16 318v94h124v-94l-16 -318h-92z" />
    <glyph glyph-name="parenleft" unicode="(" horiz-adv-x="624" 
d="M242 541q0 -285 89.5 -508.5t237.5 -374.5l-80 -55q-368 371 -368 938t368 938l80 -56q-148 -151 -237.5 -374t-89.5 -508z" />
    <glyph glyph-name="parenright" unicode=")" horiz-adv-x="624" 
d="M383 541q0 285 -90 507.5t-238 374.5l80 56q369 -372 369 -938t-369 -938l-80 55q148 151 238 374.5t90 508.5z" />
    <glyph glyph-name="asterisk" unicode="*" horiz-adv-x="866" 
d="M389 1423h88v-252l232 84l28 -84l-235 -84l164 -208l-72 -54l-162 207l-160 -209l-71 56l159 208l-233 84l31 84l231 -84v252z" />
    <glyph glyph-name="plus" unicode="+" 
d="M1016 668v-107h-408v-428h-114v428h-402v107h402v428h114v-428h408z" />
    <glyph glyph-name="comma" unicode="," horiz-adv-x="485" 
d="M238 186q53 0 81.5 -39t28.5 -102q0 -181 -135 -391l-74 43q35 46 72.5 132.5t38.5 150.5h-14q-41 0 -69 29.5t-28 72.5q0 44 29 74t70 30z" />
    <glyph glyph-name="hyphen" unicode="-" horiz-adv-x="776" 
d="M160 520v107h456v-107h-456z" />
    <glyph glyph-name="period" unicode="." horiz-adv-x="468" 
d="M233 -20q-41 0 -69.5 29.5t-28.5 72.5q0 45 28 74.5t70 29.5q43 0 72 -29.5t29 -74.5q0 -43 -29 -72.5t-72 -29.5z" />
    <glyph glyph-name="slash" unicode="/" horiz-adv-x="806" 
d="M633 1368h110l-571 -1563h-111z" />
    <glyph glyph-name="zero" unicode="0" horiz-adv-x="1206" 
d="M604 -25q-97 0 -179 42t-146.5 125.5t-101 222.5t-36.5 319t36.5 319t101 222.5t146.5 125.5t179 42q96 0 178 -42t146 -125.5t100.5 -222.5t36.5 -319t-36.5 -319t-100.5 -222.5t-146 -125.5t-178 -42zM604 80q153 0 243.5 151.5t90.5 452.5t-90.5 452.5t-243.5 151.5
q-154 0 -245 -151.5t-91 -452.5t91 -452.5t245 -151.5z" />
    <glyph glyph-name="one" unicode="1" horiz-adv-x="731" 
d="M459 104h194v-104h-526v104h209v1022q-74 -54 -209 -61v100q204 14 231 203h101v-1264z" />
    <glyph glyph-name="two" unicode="2" horiz-adv-x="1081" 
d="M113 0v98q215 176 348 300t212.5 227.5t108.5 184.5t29 173q0 137 -73 223t-203 86q-123 0 -198 -78t-75 -213h-121q0 175 108.5 283.5t285.5 108.5q184 0 292.5 -114t108.5 -294q0 -139 -63.5 -263.5t-206 -267.5t-406.5 -350v-6q82 6 176 6h516v-104h-839z" />
    <glyph glyph-name="three" unicode="3" horiz-adv-x="1091" 
d="M670 727q54 -15 102 -42t91 -68.5t68 -104.5t25 -139q0 -123 -61.5 -215t-160.5 -137.5t-220 -45.5q-136 0 -245 66t-167 188l93 45q110 -194 315 -194q139 0 230 79t91 224q0 59 -18 106.5t-48.5 78.5t-66.5 52.5t-78.5 33t-77.5 16t-69 4.5h-67v96h104q48 0 95.5 16
t88.5 47.5t66.5 84.5t25.5 120q0 121 -72.5 185.5t-187.5 64.5q-94 0 -169 -52.5t-107 -131.5l-94 43q36 105 139.5 175.5t236.5 70.5q158 0 268.5 -93.5t110.5 -248.5q0 -125 -70 -207t-171 -111v-6z" />
    <glyph glyph-name="four" unicode="4" horiz-adv-x="1153" 
d="M1065 416v-103h-234v-313h-120v313h-627v127l584 928h163v-952h234zM709 1260q-23 -57 -80 -144l-447 -700h529v698q0 60 4 146h-6z" />
    <glyph glyph-name="five" unicode="5" horiz-adv-x="1085" 
d="M555 887q81 0 153.5 -28.5t130 -83t91 -142t33.5 -197.5q0 -108 -39 -198t-101.5 -146t-138 -86.5t-152.5 -30.5q-296 0 -421 246l86 55q60 -101 135.5 -148.5t195.5 -47.5q58 0 112.5 22t99 64t71.5 111t27 155q0 168 -86.5 259t-214.5 91q-178 0 -281 -151l-98 24
l106 713h647v-104h-553l-71 -484h4q99 107 264 107z" />
    <glyph glyph-name="six" unicode="6" horiz-adv-x="1150" 
d="M612 885q174 0 294 -127t120 -320q0 -199 -123 -331t-307 -132q-103 0 -184.5 38t-143 116.5t-94.5 207t-33 300.5q0 186 42.5 333t115 238t164.5 138t196 47q206 0 336 -150l-67 -76q-105 121 -262 121q-173 0 -280.5 -152.5t-117.5 -451.5h6q37 81 124.5 141t213.5 60z
M592 80q134 0 221.5 98t87.5 252q0 155 -87.5 253.5t-221.5 98.5t-221.5 -98.5t-87.5 -253.5q0 -154 87.5 -252t221.5 -98z" />
    <glyph glyph-name="seven" unicode="7" horiz-adv-x="958" 
d="M72 1368h815v-102q-102 -108 -179.5 -228t-140 -273t-96.5 -345.5t-37 -419.5h-131q4 226 47.5 433.5t113.5 363.5t145 270t157 195v6q-55 -4 -174 -4h-520v104z" />
    <glyph glyph-name="eight" unicode="8" horiz-adv-x="1165" 
d="M737 690q58 -23 108 -54t94 -73.5t69.5 -100.5t25.5 -124q0 -153 -121 -258t-338 -105q-199 0 -320.5 100.5t-121.5 256.5q0 75 25.5 139.5t69.5 111t90.5 78.5t99.5 56v10q-234 118 -234 326q0 150 117 245t287 95q169 0 282 -95.5t113 -246.5q0 -114 -68 -207
t-178 -146v-8zM307 1055q0 -171 244 -277l84 -37q109 55 169 128.5t60 181.5t-79 174.5t-195 66.5q-124 0 -203.5 -66t-79.5 -171zM575 76q158 0 247 72t89 188q0 46 -18.5 86.5t-46 70t-72.5 59t-84.5 48.5t-95.5 43l-70 29q-272 -131 -272 -338q0 -112 87 -185t236 -73z
" />
    <glyph glyph-name="nine" unicode="9" horiz-adv-x="1089" 
d="M528 1393q199 0 317 -127.5t118 -333.5q0 -119 -46.5 -250.5t-127.5 -256t-184.5 -240.5t-223.5 -216l-82 68q332 281 471 592h-6q-89 -109 -260 -109q-181 0 -293.5 123.5t-112.5 304.5q0 190 118.5 317.5t311.5 127.5zM532 625q142 0 224 96t82 235t-82 235.5
t-224 96.5q-144 0 -225.5 -96t-81.5 -236q0 -138 81.5 -234.5t225.5 -96.5z" />
    <glyph glyph-name="colon" unicode=":" horiz-adv-x="514" 
d="M258 815q-43 0 -71.5 29.5t-28.5 73.5q0 45 28.5 74.5t71.5 29.5q42 0 70 -29.5t28 -74.5q0 -44 -28.5 -73.5t-69.5 -29.5zM258 -20q-43 0 -71.5 29.5t-28.5 72.5q0 45 28.5 74.5t71.5 29.5q42 0 70 -29.5t28 -74.5q0 -43 -28.5 -72.5t-69.5 -29.5z" />
    <glyph glyph-name="semicolon" unicode=";" horiz-adv-x="522" 
d="M262 815q-41 0 -69.5 29.5t-28.5 73.5q0 45 28 74.5t70 29.5q43 0 71.5 -29.5t28.5 -74.5q0 -44 -28.5 -73.5t-71.5 -29.5zM256 186q51 0 80 -39t29 -102q0 -100 -39.5 -203t-96.5 -188l-73 43q36 45 73.5 131.5t38.5 151.5h-14q-41 0 -68.5 29.5t-27.5 72.5
q0 45 27.5 74.5t70.5 29.5z" />
    <glyph glyph-name="less" unicode="&#x3c;" 
d="M948 1094v-127l-696 -353l696 -352v-127l-813 420v119z" />
    <glyph glyph-name="equal" unicode="=" 
d="M115 774v105h878v-105h-878zM115 352v105h878v-105h-878z" />
    <glyph glyph-name="greater" unicode="&#x3e;" 
d="M162 1094l813 -420v-119l-813 -420v127l696 352l-696 353v127z" />
    <glyph glyph-name="question" unicode="?" horiz-adv-x="907" 
d="M440 1393q158 0 265.5 -99.5t107.5 -267.5q0 -143 -86.5 -250.5t-234.5 -159.5v-237h-113v309q153 40 227 132t74 206q0 116 -64 186t-184 70q-106 0 -169.5 -69t-63.5 -187h-123q0 165 100 266t264 101zM434 186q43 0 72 -29.5t29 -74.5q0 -43 -29 -72.5t-72 -29.5
q-41 0 -69.5 29.5t-28.5 72.5q0 45 28 74.5t70 29.5z" />
    <glyph glyph-name="at" unicode="@" horiz-adv-x="1785" 
d="M971 1413q158 0 292 -63.5t222 -171.5t131 -256t26 -312q-17 -163 -74.5 -284.5t-138.5 -182.5t-174 -61q-96 0 -145.5 51.5t-52.5 140.5h-6q-94 -174 -265 -174q-89 0 -155.5 57t-95 166t1.5 267q21 109 62 192.5t91.5 131.5t103.5 72t107 24q177 0 227 -185h7l28 160
h113l-98 -557q-8 -42 -11.5 -74t-1.5 -66.5t12.5 -57.5t33.5 -37.5t59 -14.5q87 0 166 109.5t98 322.5q28 319 -126.5 513t-442.5 194q-194 0 -351.5 -98.5t-252.5 -273.5t-113 -398q-26 -338 147.5 -545t489.5 -207q124 0 235 27.5t189 77.5l43 -84q-199 -117 -478 -117
q-168 0 -310.5 58.5t-244 166t-151 270.5t-31.5 361q18 193 91 354.5t184 271.5t255 171t304 61zM813 201q91 0 164 81t106 253q34 168 -10.5 272t-146.5 104q-97 0 -168 -83.5t-103 -241.5q-33 -179 10 -282t148 -103z" />
    <glyph glyph-name="A" unicode="A" horiz-adv-x="1210" 
d="M1012 0l-125 381h-574l-127 -381h-123l469 1368h146l469 -1368h-135zM348 483h504l-209 635q-27 84 -37 133h-6q-8 -38 -35 -121z" />
    <glyph glyph-name="B" unicode="B" horiz-adv-x="1198" 
d="M803 715q126 -35 198 -121t72 -223q0 -95 -36.5 -168t-100.5 -116.5t-144.5 -65t-175.5 -21.5h-407v1368h391q118 0 211.5 -38.5t151 -119t57.5 -192.5q0 -227 -217 -297v-6zM590 1266h-258v-510h258q305 0 305 254q0 129 -81 192.5t-224 63.5zM602 102q344 0 344 275
q0 147 -89 212.5t-255 65.5h-270v-553h270z" />
    <glyph glyph-name="C" unicode="C" horiz-adv-x="1251" 
d="M260 684q0 -150 32.5 -266.5t90 -189t133.5 -109.5t166 -37q130 0 224 69.5t145 231.5l104 -35q-59 -190 -183.5 -281.5t-295.5 -91.5q-114 0 -211.5 45t-172 131.5t-117 223t-42.5 309.5t42.5 309.5t117 223t172 131.5t211.5 45q165 0 287 -85t180 -257l-103 -33
q-91 268 -360 268q-89 0 -164 -37t-133 -109t-90.5 -189t-32.5 -267z" />
    <glyph glyph-name="D" unicode="D" horiz-adv-x="1341" 
d="M578 1368q136 0 247.5 -38.5t198.5 -118t135.5 -214t48.5 -313.5t-48.5 -313.5t-135.5 -214t-198.5 -118t-247.5 -38.5h-369v1368h369zM565 104q117 0 209.5 32.5t162.5 100t107 181t37 266.5t-37 266.5t-107 181t-162.5 100t-209.5 32.5h-231v-1160h231z" />
    <glyph glyph-name="E" unicode="E" 
d="M334 102h645v-102h-770v1368h756v-102h-631v-510h592v-101h-592v-553z" />
    <glyph glyph-name="F" unicode="F" horiz-adv-x="1044" 
d="M950 1264h-616v-531h559v-104h-559v-629h-125v1368h741v-104z" />
    <glyph glyph-name="G" unicode="G" horiz-adv-x="1318" 
d="M682 668h489v-506q-174 -187 -458 -187q-119 0 -220.5 40t-184 122t-130 222t-47.5 325q0 173 47 310.5t127.5 223t183.5 130.5t220 45q150 0 273.5 -70t186.5 -209l-96 -53q-107 225 -364 225q-95 0 -176 -37t-143 -109.5t-97 -189t-35 -266.5q0 -305 120.5 -454.5
t332.5 -149.5q215 0 340 119v366h-369v103z" />
    <glyph glyph-name="H" unicode="H" horiz-adv-x="1345" 
d="M1014 1368h125v-1368h-125v653h-680v-653h-125v1368h125v-610h680v610z" />
    <glyph glyph-name="I" unicode="I" horiz-adv-x="663" 
d="M549 1268h-156v-1168h156v-100h-434v100h155v1168h-155v100h434v-100z" />
    <glyph glyph-name="J" unicode="J" horiz-adv-x="692" 
d="M178 -236q-117 0 -176 25v109q64 -29 156 -29q102 0 151 57t49 176v1266h125v-1290q0 -153 -83 -233.5t-222 -80.5z" />
    <glyph glyph-name="K" unicode="K" horiz-adv-x="1157" 
d="M975 0l-588 653h-53v-653h-125v1368h125v-608h57l531 608h143l-580 -653l650 -715h-160z" />
    <glyph glyph-name="L" unicode="L" horiz-adv-x="1019" 
d="M334 104h606v-104h-731v1368h125v-1264z" />
    <glyph glyph-name="M" unicode="M" horiz-adv-x="1634" 
d="M209 0v1368h197l382 -1130q19 -56 27 -97h8q0 1 25 97l381 1130h196v-1368h-122v1112q0 99 4 148h-7q-19 -64 -45 -140l-383 -1120h-114l-383 1122q-33 95 -43 138h-6q4 -98 4 -148v-1112h-121z" />
    <glyph glyph-name="N" unicode="N" horiz-adv-x="1359" 
d="M209 0v1368h153l611 -1102q29 -50 55 -110h6q-4 86 -4 133v1079h121v-1368h-154l-612 1102q-51 104 -53 110h-8q6 -52 6 -133v-1079h-121z" />
    <glyph glyph-name="O" unicode="O" horiz-adv-x="1394" 
d="M698 -25q-118 0 -219.5 44.5t-179.5 130t-123 222.5t-45 312t45 312t123 222.5t179.5 130t219.5 44.5t219 -44.5t178.5 -130t122 -222.5t44.5 -312t-44.5 -312t-122 -222.5t-178.5 -130t-219 -44.5zM698 82q92 0 170 36t138.5 107t94.5 188.5t34 270.5t-34 270.5
t-94.5 188.5t-138.5 107t-170 36q-94 0 -172 -35.5t-139 -107t-95 -189t-34 -270.5t34 -270.5t95 -189t139 -107t172 -35.5z" />
    <glyph glyph-name="P" unicode="P" horiz-adv-x="1144" 
d="M600 1368q204 0 327.5 -101t123.5 -294q0 -194 -124 -296t-327 -102h-266v-575h-125v1368h391zM592 680q165 0 247.5 71t82.5 222q0 149 -82.5 220t-247.5 71h-258v-584h258z" />
    <glyph glyph-name="Q" unicode="Q" horiz-adv-x="1394" 
d="M1262 684q0 -215 -64.5 -368t-179.5 -240l223 -301h-151l-179 241q-100 -41 -213 -41q-118 0 -219.5 44.5t-179.5 130t-123 222.5t-45 312t45 312t123 222.5t179.5 130t219.5 44.5t219 -44.5t178.5 -130t122 -222.5t44.5 -312zM258 684q0 -153 34 -270.5t95 -189
t139 -107t172 -35.5q92 0 170 36t138.5 107t94.5 188.5t34 270.5t-34 270.5t-94.5 188.5t-138.5 107t-170 36q-94 0 -172 -35.5t-139 -107t-95 -189t-34 -270.5z" />
    <glyph glyph-name="R" unicode="R" horiz-adv-x="1179" 
d="M946 0l-379 598h-233v-598h-125v1368h395q88 0 164 -23t135.5 -69t94 -120.5t34.5 -170.5q0 -163 -92 -259.5t-240 -119.5l402 -606h-156zM334 1264v-564h264q145 0 226 69t81 214q0 144 -81.5 212.5t-225.5 68.5h-264z" />
    <glyph glyph-name="S" unicode="S" horiz-adv-x="1122" 
d="M164 246q73 -82 179 -124t204 -42q159 0 250.5 67t91.5 185q0 59 -20.5 104.5t-62.5 79t-82 54t-103 46.5l-181 76q-65 27 -113.5 57.5t-91.5 73t-65.5 100.5t-22.5 128q0 142 112.5 242t293.5 100q249 0 418 -166l-66 -80q-141 141 -344 141q-137 0 -213 -66t-76 -165
q0 -55 20 -99t58 -75t71.5 -50t82.5 -40l190 -80q51 -21 90.5 -41.5t85 -54t75 -70.5t49.5 -90.5t20 -114.5q0 -170 -130.5 -268.5t-330.5 -98.5q-132 0 -249.5 48.5t-205.5 142.5z" />
    <glyph glyph-name="T" unicode="T" horiz-adv-x="1081" 
d="M1004 1368v-104h-402v-1264h-125v1264h-401v104h928z" />
    <glyph glyph-name="U" unicode="U" horiz-adv-x="1302" 
d="M649 -25q-210 0 -332 113t-122 334v946h124v-922q0 -191 83.5 -277.5t252.5 -86.5q170 0 252 87t82 277v922h119v-946q0 -220 -124 -333.5t-335 -113.5z" />
    <glyph glyph-name="V" unicode="V" horiz-adv-x="1187" 
d="M557 260q30 -95 37 -127h6q11 51 35 127l360 1108h127l-458 -1368h-138l-460 1368h135z" />
    <glyph glyph-name="W" unicode="W" horiz-adv-x="1845" 
d="M1305 250q15 -60 20 -100h8q3 17 23 100l280 1118h131l-370 -1368h-137l-312 1114q-11 40 -22 109h-6q-6 -42 -25 -109l-313 -1114h-133l-371 1368h131l287 -1116q16 -68 20 -107h6q6 34 25 105l313 1118h121z" />
    <glyph glyph-name="X" unicode="X" horiz-adv-x="1132" 
d="M639 709l436 -709h-141l-322 535q-30 51 -45 86h-6q-21 -47 -45 -84l-328 -537h-131l435 702l-412 666h137l295 -496q39 -68 49 -92h8q12 28 49 92l308 496h129z" />
    <glyph glyph-name="Y" unicode="Y" horiz-adv-x="1175" 
d="M1128 1368l-477 -711v-657h-125v653l-479 715h150l352 -543q32 -45 41 -67h6q7 18 37 67l354 543h141z" />
    <glyph glyph-name="Z" unicode="Z" horiz-adv-x="1050" 
d="M223 102h731v-102h-864v111l729 1155h-702v102h835v-111z" />
    <glyph glyph-name="bracketleft" unicode="[" horiz-adv-x="649" 
d="M580 1468v-96h-261v-1663h261v-96h-377v1855h377z" />
    <glyph glyph-name="backslash" unicode="\" horiz-adv-x="806" 
d="M174 1368l571 -1563h-110l-572 1563h111z" />
    <glyph glyph-name="bracketright" unicode="]" horiz-adv-x="649" 
d="M70 1468h376v-1855h-376v96h262v1663h-262v96z" />
    <glyph glyph-name="asciicircum" unicode="^" 
d="M930 754h-117l-258 493l-258 -493h-117l340 639h70z" />
    <glyph glyph-name="underscore" unicode="_" horiz-adv-x="1024" 
d="M0 -238v107h1024v-107h-1024z" />
    <glyph glyph-name="grave" unicode="`" horiz-adv-x="753" 
d="M526 1182h-106l-232 346h140z" />
    <glyph glyph-name="a" unicode="a" horiz-adv-x="1015" 
d="M842 233q0 -96 20 -233h-127q-11 75 -14 168h-6q-41 -85 -125 -136.5t-191 -51.5q-129 0 -211 71.5t-82 196.5q0 128 86.5 208.5t225.5 114.5q153 36 303 54v63q0 234 -232 234q-91 0 -147.5 -42.5t-67.5 -115.5h-118q11 112 100 185t233 73q162 0 257.5 -89t95.5 -255
v-445zM418 80q126 0 214.5 96t88.5 254v109q-104 -12 -275 -56q-113 -30 -164 -85t-51 -142q0 -83 51.5 -129.5t135.5 -46.5z" />
    <glyph glyph-name="b" unicode="b" horiz-adv-x="1146" 
d="M614 1022q179 0 296.5 -139.5t117.5 -382.5q0 -242 -117.5 -381t-296.5 -139q-216 0 -309 200h-4v-180h-119v1423h121v-594h6q94 193 305 193zM602 80q139 0 220 110t81 310t-81.5 311t-219.5 111q-137 0 -219 -112t-82 -308q0 -198 82 -310t219 -112z" />
    <glyph glyph-name="c" unicode="c" horiz-adv-x="985" 
d="M543 -20q-189 0 -307.5 140.5t-118.5 379.5t119.5 380.5t306.5 141.5q111 0 203.5 -55.5t140.5 -173.5l-94 -43q-66 172 -248 172q-136 0 -219.5 -111.5t-83.5 -310.5q0 -198 83 -309t220 -111q181 0 252 182l94 -41q-47 -124 -139.5 -182.5t-208.5 -58.5z" />
    <glyph glyph-name="d" unicode="d" horiz-adv-x="1146" 
d="M844 1423h123v-1423h-119v180h-6q-90 -200 -310 -200q-178 0 -295.5 139.5t-117.5 380.5q0 243 117.5 382.5t295.5 139.5q215 0 306 -193h6v594zM545 80q137 0 219 112t82 310q0 196 -82 308t-219 112t-219 -111.5t-82 -310.5t82 -309.5t219 -110.5z" />
    <glyph glyph-name="e" unicode="e" horiz-adv-x="1062" 
d="M950 545q0 -43 -2 -68h-708q4 -191 92 -294t241 -103q172 0 281 135l66 -72q-138 -163 -353 -163q-202 0 -326 140t-124 380q0 239 120.5 380.5t311.5 141.5q182 0 291.5 -132.5t109.5 -344.5zM549 922q-129 0 -210.5 -91.5t-96.5 -259.5h589q-6 167 -79.5 259t-202.5 92
z" />
    <glyph glyph-name="f" unicode="f" horiz-adv-x="673" 
d="M514 1348q-73 0 -105 -42t-32 -135v-170h246v-96h-246v-905h-123v905h-195v96h195v187q0 128 66.5 194t179.5 66q78 0 139 -18v-99q-73 17 -125 17z" />
    <glyph glyph-name="g" unicode="g" horiz-adv-x="1011" 
d="M578 164q166 -12 267 -83t101 -187q0 -128 -118.5 -204.5t-323.5 -76.5q-200 0 -315 70.5t-115 189.5q0 94 70.5 159t172.5 81v6q-73 15 -111 49t-38 84q0 59 52 99t145 59v6q-103 28 -163.5 103t-60.5 179q0 145 99.5 234.5t255.5 89.5q72 0 133 -21h295v-94
q-52 0 -195 13v-9q57 -30 90 -88t33 -133q0 -117 -76 -196.5t-201 -100.5q-153 -30 -223.5 -58.5t-70.5 -68.5q0 -42 66 -65.5t231 -36.5zM260 696q0 -101 64.5 -163t171.5 -62q109 0 173 61t64 164q0 105 -64.5 169.5t-172.5 64.5q-107 0 -171.5 -64.5t-64.5 -169.5z
M510 -297q152 0 235.5 48t83.5 132t-84.5 134.5t-234.5 50.5t-235 -50.5t-85 -134.5t84 -132t236 -48z" />
    <glyph glyph-name="h" unicode="h" horiz-adv-x="1099" 
d="M616 1022q147 0 229.5 -90t82.5 -246v-686h-121v657q0 128 -50 196.5t-167 68.5q-118 0 -202.5 -89.5t-84.5 -230.5v-602h-121v1423h121v-573h8q43 80 121 126t184 46z" />
    <glyph glyph-name="i" unicode="i" horiz-adv-x="485" 
d="M244 1235q-41 0 -67.5 26t-26.5 66q0 41 26.5 67.5t67.5 26.5q40 0 66 -26.5t26 -67.5q0 -40 -26 -66t-66 -26zM182 1001h121v-1001h-121v1001z" />
    <glyph glyph-name="j" unicode="j" horiz-adv-x="499" 
d="M260 1235q-41 0 -67.5 26t-26.5 66q0 41 26.5 67.5t67.5 26.5q40 0 66 -26.5t26 -67.5q0 -40 -26 -66t-66 -26zM80 -387q-82 0 -146 18v103q74 -21 123 -21q74 0 107 42.5t33 138.5v1107h122v-1134q0 -131 -63.5 -192.5t-175.5 -61.5z" />
    <glyph glyph-name="k" unicode="k" horiz-adv-x="972" 
d="M797 0l-445 496h-49v-496h-121v1423h121v-829h53l392 407h141l-438 -450l503 -551h-157z" />
    <glyph glyph-name="l" unicode="l" horiz-adv-x="514" 
d="M453 90v-94q-40 -16 -111 -16q-73 0 -118.5 39.5t-45.5 125.5v1278h121v-1249q0 -94 78 -94q46 0 76 10z" />
    <glyph glyph-name="m" unicode="m" horiz-adv-x="1638" 
d="M1176 1022q137 0 214.5 -88.5t77.5 -241.5v-692h-120v664q0 125 -45.5 191.5t-155.5 66.5q-107 0 -183.5 -84t-76.5 -232v-606h-123v664q0 125 -45.5 191.5t-153.5 66.5q-105 0 -183.5 -88.5t-78.5 -227.5v-606h-121v1001h119v-157h6q38 83 111 130.5t176 47.5t173.5 -52
t100.5 -145q40 91 118 144t190 53z" />
    <glyph glyph-name="n" unicode="n" horiz-adv-x="1099" 
d="M612 1022q148 0 232 -90t84 -246v-686h-121v657q0 128 -50 196.5t-167 68.5q-118 0 -202.5 -89.5t-84.5 -230.5v-602h-121v1001h119v-157h6q43 84 122.5 131t182.5 47z" />
    <glyph glyph-name="o" unicode="o" horiz-adv-x="1114" 
d="M557 -20q-197 0 -318.5 141t-121.5 381q0 239 121.5 379.5t318.5 140.5q198 0 319 -140.5t121 -379.5q0 -241 -120.5 -381.5t-319.5 -140.5zM557 80q145 0 230 111t85 311q0 197 -85.5 308.5t-229.5 111.5t-229.5 -111.5t-85.5 -308.5q0 -200 85 -311t230 -111z" />
    <glyph glyph-name="p" unicode="p" horiz-adv-x="1146" 
d="M614 1022q179 0 296.5 -139t117.5 -381q0 -243 -117.5 -382.5t-296.5 -139.5q-211 0 -305 192h-6v-539h-121v1368h119v-180h6q91 201 307 201zM602 80q138 0 219.5 111t81.5 311q0 198 -81.5 309t-219.5 111q-137 0 -219 -112t-82 -310q0 -196 82 -308t219 -112z" />
    <glyph glyph-name="q" unicode="q" horiz-adv-x="1146" 
d="M848 1001h119v-1368h-123v539h-6q-91 -192 -306 -192q-178 0 -295.5 139.5t-117.5 382.5q0 241 117.5 380.5t295.5 139.5q216 0 310 -201h6v180zM545 80q137 0 219 112t82 308q0 198 -82 310t-219 112t-219 -111t-82 -309q0 -199 82 -310.5t219 -111.5z" />
    <glyph glyph-name="r" unicode="r" horiz-adv-x="710" 
d="M578 1022q40 0 71 -8v-111q-29 6 -86 6q-105 0 -182.5 -96.5t-77.5 -261.5v-551h-121v1001h117v-172h8q39 89 110 141t161 52z" />
    <glyph glyph-name="s" unicode="s" horiz-adv-x="929" 
d="M162 223q125 -143 303 -143q113 0 175 43.5t62 124.5q0 33 -11 60t-28.5 46.5t-46.5 37t-55.5 29t-66.5 25.5l-129 50q-50 20 -86 39.5t-73 51t-56 75.5t-19 100q0 113 88 186.5t234 73.5q218 0 350 -158l-72 -71q-116 129 -274 129q-99 0 -153 -45t-54 -109t43.5 -104
t130.5 -72l131 -51q42 -16 72.5 -29.5t70 -39t64 -53.5t42 -70.5t17.5 -92.5q0 -125 -97 -200.5t-253 -75.5q-120 0 -218 45t-161 129z" />
    <glyph glyph-name="t" unicode="t" horiz-adv-x="694" 
d="M475 80q70 0 154 33v-97q-70 -36 -187 -36q-89 0 -143.5 52.5t-54.5 168.5v704h-185v96h185v209l123 52v-261h243v-96h-243v-674q0 -83 25.5 -117t82.5 -34z" />
    <glyph glyph-name="u" unicode="u" horiz-adv-x="1099" 
d="M797 1001h121v-1001h-119v158h-6q-43 -84 -123 -131t-183 -47q-148 0 -231.5 89.5t-83.5 245.5v686h121v-657q0 -128 50 -196t167 -68q118 0 202.5 89t84.5 230v602z" />
    <glyph glyph-name="v" unicode="v" horiz-adv-x="995" 
d="M432 0l-364 1001h129l264 -759q25 -71 35 -115h8q11 50 31 111l266 763h125l-365 -1001h-129z" />
    <glyph glyph-name="w" unicode="w" horiz-adv-x="1452" 
d="M356 0l-276 1001h127l194 -749q18 -84 23 -117h8q5 34 29 123l205 743h120l211 -751q18 -63 25 -113h8q4 19 8 38.5t9 41.5t8 35l190 749h129l-284 -1001h-129l-203 731q-10 37 -27 135h-6q-7 -57 -29 -135l-211 -731h-129z" />
    <glyph glyph-name="x" unicode="x" horiz-adv-x="954" 
d="M545 528l360 -528h-137l-250 373q-31 52 -39 71h-6q-8 -15 -45 -73l-250 -371h-129l357 528l-326 473h135l215 -323q27 -39 41 -74h8q8 19 47 80l215 317h129z" />
    <glyph glyph-name="y" unicode="y" horiz-adv-x="983" 
d="M207 -387q-61 0 -117 16v101q76 -17 117 -17q54 0 92.5 37.5t71.5 126.5l65 176l-370 948h133l264 -718q23 -63 33 -111h6q9 43 35 111l258 718h125l-441 -1167q-49 -127 -114 -174t-158 -47z" />
    <glyph glyph-name="z" unicode="z" horiz-adv-x="886" 
d="M221 94h570v-94h-701v98l569 809h-544v94h673v-98z" />
    <glyph glyph-name="braceleft" unicode="{" horiz-adv-x="671" 
d="M227 541q77 -20 106 -71.5t29 -160.5v-379q0 -93 18 -138t68.5 -65t153.5 -20v-94q-108 0 -175 14.5t-108 52.5t-56 95.5t-15 150.5v383q0 100 -37.5 140t-151.5 43v98q114 3 151.5 42.5t37.5 139.5v383q0 93 15 150.5t56 95.5t108 52.5t175 14.5v-94q-103 0 -153.5 -20
t-68.5 -65t-18 -138v-379q0 -109 -29 -160t-106 -71z" />
    <glyph glyph-name="bar" unicode="|" horiz-adv-x="518" 
d="M203 1511h112v-1716h-112v1716z" />
    <glyph glyph-name="braceright" unicode="}" horiz-adv-x="671" 
d="M446 541q-77 20 -106 71t-29 160v379q0 70 -8.5 110t-35 67t-72 36.5t-123.5 9.5v94q108 0 174.5 -14.5t107 -52.5t55.5 -95.5t15 -150.5v-383q0 -100 37.5 -139.5t152.5 -42.5v-98q-115 -3 -152.5 -43t-37.5 -140v-383q0 -93 -15 -150.5t-55.5 -95.5t-107 -52.5
t-174.5 -14.5v94q78 0 123.5 9.5t72 36.5t35 67t8.5 110v379q0 109 29 160.5t106 71.5z" />
    <glyph glyph-name="asciitilde" unicode="~" 
d="M729 473q-43 0 -85.5 17.5t-66 34.5t-59.5 48q-83 72 -135 72q-95 0 -102 -160h-91q4 140 59 204.5t136 64.5q33 0 63.5 -8t60 -26t45.5 -30t46 -37q41 -35 71 -53t62 -18q92 0 101 159h90q-4 -140 -59 -204t-136 -64z" />
    <glyph glyph-name="uni00A0" unicode="&#xa0;" horiz-adv-x="522" 
 />
    <glyph glyph-name="exclamdown" unicode="&#xa1;" horiz-adv-x="497" 
d="M248 817q-42 0 -70 29t-28 74q0 43 28.5 72.5t69.5 29.5q43 0 71.5 -29.5t28.5 -72.5q0 -45 -28.5 -74t-71.5 -29zM184 -367v324l23 666h84l22 -666v-324h-129z" />
    <glyph glyph-name="cent" unicode="&#xa2;" 
d="M944 426q-40 -113 -124 -172.5t-187 -67.5v-186h-103v188q-162 25 -260 158.5t-98 339.5q0 202 99.5 336.5t258.5 159.5v186h103v-182q101 -8 183.5 -64.5t125.5 -167.5l-96 -39q-29 80 -85.5 122t-127.5 48v-800q156 18 215 180zM297 686q0 -160 63 -264t170 -131v788
q-108 -27 -170.5 -130t-62.5 -263z" />
    <glyph glyph-name="sterling" unicode="&#xa3;" 
d="M317 100h691v-100h-869v104q87 30 150 114t63 194q0 55 -7.5 96t-35.5 131h-196v96h168q-48 164 -48 279q0 179 104 279t284 100q179 0 319 -111l-55 -88q-122 94 -258 94q-127 0 -201 -76.5t-74 -203.5q0 -51 11 -102t45 -171h448v-96h-420q33 -109 33 -213
q0 -93 -39.5 -175t-112.5 -142v-9z" />
    <glyph glyph-name="currency" unicode="&#xa4;" 
d="M967 696q0 -161 -82 -282l159 -176l-79 -78l-156 174q-108 -84 -254 -84t-252 82l-158 -172l-79 76l161 176q-84 119 -84 284q0 161 80 279l-157 172l79 76l152 -166q110 86 258 86q149 0 258 -88l154 168l80 -76l-160 -174q80 -119 80 -277zM555 350q143 0 223 99.5
t80 246.5t-80 246.5t-223 99.5q-144 0 -224.5 -99.5t-80.5 -246.5t80.5 -246.5t224.5 -99.5z" />
    <glyph glyph-name="yen" unicode="&#xa5;" 
d="M1040 1368l-399 -668h268v-96h-293v-211h293v-96h-293v-297h-120v297h-295v96h295v211h-295v96h270l-401 668h145l307 -537q34 -66 35 -67h6q5 12 17 35.5t16 31.5l305 537h139z" />
    <glyph glyph-name="brokenbar" unicode="&#xa6;" horiz-adv-x="518" 
d="M203 1511h112v-669h-112v669zM203 465h112v-670h-112v670z" />
    <glyph glyph-name="section" unicode="&#xa7;" horiz-adv-x="997" 
d="M709 287q56 -38 85 -88.5t29 -126.5q0 -126 -89.5 -201.5t-233.5 -75.5q-116 0 -214 44.5t-161 127.5l70 70q122 -143 299 -143q100 0 156.5 44.5t56.5 122.5q0 76 -42.5 116.5t-162.5 90.5l-117 51q-46 20 -74 33.5t-68.5 41t-63.5 55.5t-40.5 70.5t-17.5 92.5
q0 172 182 267v8q-106 85 -106 221q0 126 87.5 202t227.5 76q215 0 342 -159l-70 -70q-115 131 -268 131q-92 0 -146.5 -49t-54.5 -125q0 -74 40 -116.5t130 -84.5l115 -51q55 -25 85.5 -41t72.5 -45t64 -57.5t38.5 -72t16.5 -95.5q0 -86 -48 -150.5t-120 -105.5v-8z
M616 338q148 86 148 201q0 45 -14 78.5t-47.5 60.5t-67.5 45.5t-96 46.5q-135 59 -144 66q-74 -40 -118 -90t-44 -121q0 -41 16.5 -74t50 -58.5t64 -41.5t78.5 -37q141 -57 174 -76z" />
    <glyph glyph-name="dieresis" unicode="&#xa8;" horiz-adv-x="753" 
d="M172 1237q-40 0 -65 26t-25 66t25.5 67t64.5 27q41 0 66.5 -27t25.5 -67t-25.5 -66t-66.5 -26zM549 1237q-40 0 -66 26t-26 66t26 67t66 27q39 0 64.5 -27t25.5 -67t-25 -66t-65 -26z" />
    <glyph glyph-name="copyright" unicode="&#xa9;" horiz-adv-x="1552" 
d="M778 -23q-140 0 -260 49t-206.5 138.5t-135.5 223t-49 294.5t49 294.5t135.5 223.5t206.5 139.5t260 49.5q139 0 258 -49.5t205.5 -139.5t135 -223.5t48.5 -294.5t-48.5 -294.5t-135 -223t-205.5 -138.5t-258 -49zM778 70q245 0 397 165t152 447t-152 449t-397 167
q-246 0 -399.5 -167t-153.5 -449t153 -447t400 -165zM557 694q0 -160 65 -247t169 -87q74 0 123 37.5t79 122.5l90 -22q-37 -116 -114.5 -173t-184.5 -57q-146 0 -242 111.5t-96 314.5q0 202 96 313t244 111q102 0 177.5 -52.5t111.5 -156.5l-92 -30q-49 149 -192 149
q-107 0 -170.5 -88t-63.5 -246z" />
    <glyph glyph-name="ordfeminine" unicode="&#xaa;" horiz-adv-x="827" 
d="M662 840q0 -80 14 -176h-111q-5 42 -10 112h-6q-27 -58 -83 -92.5t-130 -34.5q-94 0 -152.5 51t-58.5 140q0 95 61.5 149.5t169.5 81.5q77 17 193 35v41q0 149 -146 149q-60 0 -96.5 -27.5t-42.5 -72.5h-106q8 85 73.5 136.5t171.5 51.5q118 0 188.5 -64t70.5 -185v-295z
M358 733q81 0 136 63t55 165v73q-79 -12 -172 -37q-73 -20 -105 -55.5t-32 -91.5q0 -55 32 -86t86 -31z" />
    <glyph glyph-name="guillemotleft" unicode="&#xab;" horiz-adv-x="886" 
d="M418 119h-88l-234 403l234 391h88l-172 -391zM758 119h-86l-234 403l234 391h86l-172 -391z" />
    <glyph glyph-name="logicalnot" unicode="&#xac;" 
d="M88 668h924v-512h-113v405h-811v107z" />
    <glyph glyph-name="uni00AD" unicode="&#xad;" horiz-adv-x="776" 
d="M160 520v107h456v-107h-456z" />
    <glyph glyph-name="registered" unicode="&#xae;" horiz-adv-x="1030" 
d="M516 1393q169 0 280 -111t111 -295q0 -186 -110.5 -296.5t-280.5 -110.5q-171 0 -282 110.5t-111 296.5q0 184 111 295t282 111zM516 647q140 0 229 91.5t89 248.5q0 153 -89.5 244.5t-228.5 91.5q-140 0 -230.5 -91.5t-90.5 -244.5q0 -154 90.5 -247t230.5 -93z
M694 1094q0 -48 -28 -82.5t-74 -50.5l131 -216h-113l-112 203h-60v-203h-94v498h170q79 0 129.5 -38.5t50.5 -110.5zM438 1167v-147h74q39 0 61.5 19t22.5 53q0 75 -84 75h-74z" />
    <glyph glyph-name="macron" unicode="&#xaf;" horiz-adv-x="753" 
d="M86 1251v95h582v-95h-582z" />
    <glyph glyph-name="degree" unicode="&#xb0;" horiz-adv-x="704" 
d="M352 903q-105 0 -170 70.5t-65 175.5q0 103 65 173.5t170 70.5q104 0 170 -71t66 -173q0 -105 -66 -175.5t-170 -70.5zM352 989q65 0 104.5 45.5t39.5 114.5q0 68 -39.5 113t-104.5 45q-64 0 -101.5 -45t-37.5 -113q0 -70 37.5 -115t101.5 -45z" />
    <glyph glyph-name="plusminus" unicode="&#xb1;" 
d="M610 758h381v-105h-381v-399h-114v399h-379v105h379v405h114v-405zM117 29v104h874v-104h-874z" />
    <glyph glyph-name="uni00B2" unicode="&#xb2;" horiz-adv-x="708" 
d="M90 575v87q234 182 316.5 281t82.5 198q0 66 -37 108.5t-104 42.5q-64 0 -102.5 -39t-38.5 -106h-107q0 107 70.5 171t179.5 64q115 0 183.5 -65.5t68.5 -173.5q0 -62 -22 -117t-72.5 -113t-117.5 -114t-171 -131v-6q35 4 111 4h282v-91h-522z" />
    <glyph glyph-name="uni00B3" unicode="&#xb3;" horiz-adv-x="708" 
d="M444 995q70 -17 119 -67.5t49 -134.5q0 -107 -78.5 -169.5t-199.5 -62.5q-86 0 -155 39.5t-103 118.5l82 35q63 -105 172 -105q76 0 123 40t47 112q0 41 -18 71t-47 46t-59 23t-61 7h-47v84h60q60 0 104.5 36t44.5 99q0 60 -39 93.5t-100 33.5q-52 0 -92.5 -28t-59.5 -74
l-84 37q23 68 89.5 110.5t150.5 42.5q102 0 173 -55.5t71 -146.5q0 -69 -41.5 -116t-100.5 -63v-6z" />
    <glyph glyph-name="acute" unicode="&#xb4;" horiz-adv-x="753" 
d="M227 1182l197 346h139l-231 -346h-105z" />
    <glyph glyph-name="uni00B5" unicode="&#xb5;" horiz-adv-x="1130" 
d="M999 88q17 0 33 4v-94q-31 -10 -76 -10q-71 0 -106.5 40.5t-36.5 127.5h-8q-39 -83 -108.5 -129.5t-161.5 -46.5q-151 0 -222 102h-10v-449h-121v1368h121v-677q0 -120 68 -182t170 -62q113 0 189.5 94t76.5 225v602h121v-776q0 -84 16.5 -110.5t54.5 -26.5z" />
    <glyph glyph-name="paragraph" unicode="&#xb6;" horiz-adv-x="1056" 
d="M844 1368v-1735h-94v1651h-162v-1651h-94v942h-45q-184 0 -281.5 100t-97.5 298q0 197 97 296t282 99h395z" />
    <glyph glyph-name="periodcentered" unicode="&#xb7;" horiz-adv-x="509" 
d="M254 471q-41 0 -69.5 29.5t-28.5 72.5q0 45 28 75t70 30q43 0 71.5 -29.5t28.5 -75.5q0 -43 -28.5 -72.5t-71.5 -29.5z" />
    <glyph glyph-name="cedilla" unicode="&#xb8;" horiz-adv-x="753" 
d="M375 -387q-124 0 -195 100l64 56q58 -68 121 -68q48 0 76 27.5t28 68.5q0 67 -50 122.5t-157 125.5l98 -18l31 -19q1 -1 18 -11t24 -15t25 -17t28 -21.5t25 -24t24 -28.5t18.5 -31.5t13.5 -36.5t4 -40q0 -78 -54 -124t-142 -46z" />
    <glyph glyph-name="uni00B9" unicode="&#xb9;" horiz-adv-x="544" 
d="M348 666h131v-91h-381v91h142v526q-52 -32 -142 -35v88q146 9 164 123h86v-702z" />
    <glyph glyph-name="ordmasculine" unicode="&#xba;" horiz-adv-x="876" 
d="M438 651q-144 0 -230.5 99t-86.5 268t86.5 268.5t230.5 99.5q142 0 230 -100.5t88 -267.5q0 -168 -87.5 -267.5t-230.5 -99.5zM438 743q92 0 146.5 72.5t54.5 202.5t-54.5 202t-146.5 72q-93 0 -146.5 -72t-53.5 -202t53.5 -202.5t146.5 -72.5z" />
    <glyph glyph-name="guillemotright" unicode="&#xbb;" horiz-adv-x="886" 
d="M125 119l172 403l-172 391h88l233 -391l-233 -403h-88zM465 119l174 403l-174 391h88l233 -391l-233 -403h-88z" />
    <glyph glyph-name="onequarter" unicode="&#xbc;" horiz-adv-x="1566" 
d="M479 575h-381v91h142v526q-52 -32 -142 -35v88q146 9 164 123h86v-702h131v-91zM1110 1368h127l-825 -1368h-125zM1495 260v-90h-131v-170h-109v170h-354v104l309 519h154v-533h131zM1260 725q-13 -29 -58 -113l-213 -352h271v342q0 24 6 123h-6z" />
    <glyph glyph-name="onehalf" unicode="&#xbd;" horiz-adv-x="1587" 
d="M479 575h-381v91h142v526q-52 -32 -142 -35v88q146 9 164 123h86v-702h131v-91zM1110 1368h127l-825 -1368h-125zM1208 90h283v-90h-522v86q234 182 316.5 281t82.5 198q0 66 -37 109t-104 43q-64 0 -103 -39.5t-39 -106.5h-106q0 107 70.5 171.5t179.5 64.5
q115 0 183.5 -66t68.5 -174q0 -62 -22 -117t-72.5 -113t-117.5 -114t-171 -131v-6q35 4 110 4z" />
    <glyph glyph-name="threequarters" unicode="&#xbe;" horiz-adv-x="1638" 
d="M612 793q0 -107 -78.5 -169.5t-199.5 -62.5q-86 0 -155 39.5t-103 118.5l82 35q63 -105 172 -105q76 0 123 40t47 112q0 41 -18 71t-47 46t-59 23t-61 7h-47v84h60q60 0 104.5 36t44.5 99q0 60 -39 93.5t-100 33.5q-52 0 -92.5 -28t-59.5 -74l-84 37q23 68 89.5 110.5
t150.5 42.5q102 0 173 -55.5t71 -146.5q0 -69 -41.5 -116t-100.5 -63v-6q70 -17 119 -67.5t49 -134.5zM1180 1368h127l-826 -1368h-125zM1565 260v-90h-131v-170h-109v170h-354v104l309 519h154v-533h131zM1329 725q-19 -41 -57 -113l-213 -352h270v342q0 24 6 123h-6z" />
    <glyph glyph-name="questiondown" unicode="&#xbf;" horiz-adv-x="890" 
d="M465 815q-43 0 -71.5 29.5t-28.5 73.5t28.5 74t71.5 30t71.5 -30t28.5 -74t-28.5 -73.5t-71.5 -29.5zM702 -20h123q0 -164 -101 -265.5t-265 -101.5q-158 0 -264.5 98.5t-106.5 265.5q0 145 86.5 252.5t235.5 157.5v236h112v-306q-154 -40 -227.5 -132t-73.5 -205
q0 -117 63.5 -186.5t184.5 -69.5q105 0 169 69t64 187z" />
    <glyph glyph-name="Agrave" unicode="&#xc0;" horiz-adv-x="1210" 
d="M680 1550h-109l-200 287h143zM1012 0l-125 381h-574l-127 -381h-123l469 1368h146l469 -1368h-135zM348 483h504l-209 635q-27 84 -37 133h-6q-8 -38 -35 -121z" />
    <glyph glyph-name="Aacute" unicode="&#xc1;" horiz-adv-x="1210" 
d="M838 1837l-199 -287h-111l168 287h142zM1012 0l-125 381h-574l-127 -381h-123l469 1368h146l469 -1368h-135zM348 483h504l-209 635q-27 84 -37 133h-6q-8 -38 -35 -121z" />
    <glyph glyph-name="Acircumflex" unicode="&#xc2;" horiz-adv-x="1210" 
d="M606 1735l-192 -193h-123l256 277h117l256 -277h-123zM1012 0l-125 381h-574l-127 -381h-123l469 1368h146l469 -1368h-135zM348 483h504l-209 635q-27 84 -37 133h-6q-8 -38 -35 -121z" />
    <glyph glyph-name="Atilde" unicode="&#xc3;" horiz-adv-x="1210" 
d="M473 1696q-36 0 -58.5 -28t-29.5 -103h-90q4 71 22.5 120.5t46.5 73.5t55 33.5t58 9.5q50 0 82 -18t80 -62q40 -37 57.5 -48t42.5 -11q34 0 55.5 29t28.5 102h90q-3 -57 -16.5 -101t-32 -69t-42.5 -41t-46 -21.5t-47 -5.5q-35 0 -68 14t-49.5 28t-40.5 38q-63 60 -98 60z
M1012 0l-125 381h-574l-127 -381h-123l469 1368h146l469 -1368h-135zM348 483h504l-209 635q-27 84 -37 133h-6q-8 -38 -35 -121z" />
    <glyph glyph-name="Adieresis" unicode="&#xc4;" horiz-adv-x="1210" 
d="M397 1548q-40 0 -66 27t-26 67t26.5 67.5t65.5 27.5q41 0 68 -27.5t27 -67.5t-27 -67t-68 -27zM811 1548q-41 0 -66.5 27t-25.5 67t25.5 67.5t66.5 27.5q39 0 65.5 -27.5t26.5 -67.5t-26 -67t-66 -27zM1012 0l-125 381h-574l-127 -381h-123l469 1368h146l469 -1368h-135z
M348 483h504l-209 635q-27 84 -37 133h-6q-8 -38 -35 -121z" />
    <glyph glyph-name="Aring" unicode="&#xc5;" horiz-adv-x="1210" 
d="M602 1481q-97 0 -160 57t-63 145q0 87 63 146t160 59t161 -59t64 -146q0 -88 -64 -145t-161 -57zM602 1808q-57 0 -92 -35.5t-35 -89.5t36.5 -89t90.5 -35q56 0 92.5 34.5t36.5 89.5t-35.5 90t-93.5 35zM1012 0l-125 381h-574l-127 -381h-123l469 1368h146l469 -1368
h-135zM348 483h504l-209 635q-27 84 -37 133h-6q-8 -38 -35 -121z" />
    <glyph glyph-name="AE" unicode="&#xc6;" horiz-adv-x="1769" 
d="M1008 102h628v-102h-753v346h-533l-207 -346h-139l832 1368h788v-102h-616v-510h581v-101h-581v-553zM410 449h473v690q0 50 4 112h-6q-25 -53 -58 -108z" />
    <glyph glyph-name="Ccedilla" unicode="&#xc7;" horiz-adv-x="1251" 
d="M1155 348q-105 -335 -412 -368v-9q123 -84 123 -182q0 -81 -56 -128.5t-146 -47.5q-129 0 -199 102l65 56q56 -66 123 -66q49 0 77 27.5t28 68.5q0 86 -109 174q-109 5 -202 52.5t-163.5 134t-110.5 220.5t-40 302q0 173 42.5 309.5t117 223t172 131.5t211.5 45
q165 0 287 -85t180 -257l-103 -33q-91 268 -360 268q-89 0 -164 -37t-133 -109t-90.5 -189t-32.5 -267t32.5 -266.5t90 -189t133.5 -109.5t166 -37q130 0 224 69.5t145 231.5z" />
    <glyph glyph-name="Egrave" unicode="&#xc8;" 
d="M664 1550h-109l-201 287h144zM334 102h645v-102h-770v1368h756v-102h-631v-510h592v-101h-592v-553z" />
    <glyph glyph-name="Eacute" unicode="&#xc9;" 
d="M819 1837l-198 -287h-111l168 287h141zM334 102h645v-102h-770v1368h756v-102h-631v-510h592v-101h-592v-553z" />
    <glyph glyph-name="Ecircumflex" unicode="&#xca;" 
d="M588 1735l-193 -193h-123l256 277h117l256 -277h-123zM334 102h645v-102h-770v1368h756v-102h-631v-510h592v-101h-592v-553z" />
    <glyph glyph-name="Edieresis" unicode="&#xcb;" 
d="M381 1548q-40 0 -66 27t-26 67t26.5 67.5t65.5 27.5q41 0 67.5 -27.5t26.5 -67.5t-26.5 -67t-67.5 -27zM795 1548q-41 0 -67 27t-26 67t26 67.5t67 27.5q39 0 65.5 -27.5t26.5 -67.5t-26 -67t-66 -27zM334 102h645v-102h-770v1368h756v-102h-631v-510h592v-101h-592v-553
z" />
    <glyph glyph-name="Igrave" unicode="&#xcc;" horiz-adv-x="663" 
d="M410 1550h-109l-201 287h144zM549 1268h-156v-1168h156v-100h-434v100h155v1168h-155v100h434v-100z" />
    <glyph glyph-name="Iacute" unicode="&#xcd;" horiz-adv-x="663" 
d="M565 1837l-198 -287h-111l168 287h141zM549 1368v-100h-156v-1168h156v-100h-434v100h155v1168h-155v100h434z" />
    <glyph glyph-name="Icircumflex" unicode="&#xce;" horiz-adv-x="663" 
d="M334 1724l-137 -174h-111l188 269h119l189 -269h-111zM549 1368v-100h-156v-1168h156v-100h-434v100h155v1168h-155v100h434z" />
    <glyph glyph-name="Idieresis" unicode="&#xcf;" horiz-adv-x="663" 
d="M270 1645q0 -40 -25.5 -66.5t-64.5 -26.5q-40 0 -66 26.5t-26 66.5t26 66t66 26t65 -26t25 -66zM487 1737q40 0 66.5 -26t26.5 -66t-26.5 -66.5t-66.5 -26.5q-39 0 -64.5 26.5t-25.5 66.5t25 66t65 26zM549 1368v-100h-156v-1168h156v-100h-434v100h155v1168h-155v100
h434z" />
    <glyph glyph-name="Eth" unicode="&#xd0;" horiz-adv-x="1382" 
d="M618 1368q136 0 247.5 -38.5t199 -118t136 -214t48.5 -313.5t-48.5 -313.5t-136 -214t-199 -118t-247.5 -38.5h-368v657h-205v95h205v616h368zM606 104q117 0 209.5 32.5t162.5 100t107 181t37 266.5t-37 266.5t-107 181t-162.5 100t-209.5 32.5h-231v-512h330v-95h-330
v-553h231z" />
    <glyph glyph-name="Ntilde" unicode="&#xd1;" horiz-adv-x="1359" 
d="M831 1556q-35 0 -67.5 14.5t-49 28t-40.5 37.5q-63 60 -99 60t-58.5 -28t-29.5 -103h-90q3 57 16.5 100.5t32 69t42.5 41t46 21t46 5.5q35 0 64 -11.5t46.5 -25t50.5 -43.5q40 -36 58 -47.5t43 -11.5q34 0 55.5 29t28.5 102h90q-4 -71 -23 -120.5t-47 -73.5t-56 -34
t-59 -10zM209 0v1368h153l611 -1102q29 -50 55 -110h6q-4 86 -4 133v1079h121v-1368h-154l-612 1102q-51 104 -53 110h-8q6 -52 6 -133v-1079h-121z" />
    <glyph glyph-name="Ograve" unicode="&#xd2;" horiz-adv-x="1394" 
d="M774 1550h-108l-201 287h143zM698 -25q-118 0 -219.5 44.5t-179.5 130t-123 222.5t-45 312t45 312t123 222.5t179.5 130t219.5 44.5t219 -44.5t178.5 -130t122 -222.5t44.5 -312t-44.5 -312t-122 -222.5t-178.5 -130t-219 -44.5zM698 82q92 0 170 36t138.5 107
t94.5 188.5t34 270.5t-34 270.5t-94.5 188.5t-138.5 107t-170 36q-94 0 -172 -35.5t-139 -107t-95 -189t-34 -270.5t34 -270.5t95 -189t139 -107t172 -35.5z" />
    <glyph glyph-name="Oacute" unicode="&#xd3;" horiz-adv-x="1394" 
d="M621 1550l167 287h142l-199 -287h-110zM698 -25q-118 0 -219.5 44.5t-179.5 130t-123 222.5t-45 312t45 312t123 222.5t179.5 130t219.5 44.5t219 -44.5t178.5 -130t122 -222.5t44.5 -312t-44.5 -312t-122 -222.5t-178.5 -130t-219 -44.5zM698 82q92 0 170 36t138.5 107
t94.5 188.5t34 270.5t-34 270.5t-94.5 188.5t-138.5 107t-170 36q-94 0 -172 -35.5t-139 -107t-95 -189t-34 -270.5t34 -270.5t95 -189t139 -107t172 -35.5z" />
    <glyph glyph-name="Ocircumflex" unicode="&#xd4;" horiz-adv-x="1394" 
d="M698 1735l-192 -193h-123l256 277h117l256 -277h-123zM698 1393q118 0 219 -44.5t178.5 -130t122 -222.5t44.5 -312t-44.5 -312t-122 -222.5t-178.5 -130t-219 -44.5t-219.5 44.5t-179.5 130t-123 222.5t-45 312t45 312t123 222.5t179.5 130t219.5 44.5zM698 82
q92 0 170 36t138.5 107t94.5 188.5t34 270.5t-34 270.5t-94.5 188.5t-138.5 107t-170 36q-94 0 -172 -35.5t-139 -107t-95 -189t-34 -270.5t34 -270.5t95 -189t139 -107t172 -35.5z" />
    <glyph glyph-name="Otilde" unicode="&#xd5;" horiz-adv-x="1394" 
d="M821 1556q-35 0 -67.5 14.5t-49 28t-40.5 37.5q-63 60 -99 60t-58.5 -28t-29.5 -103h-90q4 71 22.5 120.5t46.5 73.5t55 33.5t58 9.5q50 0 82 -18t80 -62q40 -37 57.5 -48t42.5 -11q34 0 55.5 29t28.5 102h91q-4 -71 -23 -120.5t-47 -73.5t-56 -34t-59 -10zM698 -25
q-118 0 -219.5 44.5t-179.5 130t-123 222.5t-45 312t45 312t123 222.5t179.5 130t219.5 44.5t219 -44.5t178.5 -130t122 -222.5t44.5 -312t-44.5 -312t-122 -222.5t-178.5 -130t-219 -44.5zM698 82q92 0 170 36t138.5 107t94.5 188.5t34 270.5t-34 270.5t-94.5 188.5
t-138.5 107t-170 36q-94 0 -172 -35.5t-139 -107t-95 -189t-34 -270.5t34 -270.5t95 -189t139 -107t172 -35.5z" />
    <glyph glyph-name="Odieresis" unicode="&#xd6;" horiz-adv-x="1394" 
d="M492 1548q-40 0 -66.5 27t-26.5 67t26.5 67.5t66.5 27.5q41 0 67.5 -27.5t26.5 -67.5t-26.5 -67t-67.5 -27zM905 1548q-41 0 -66.5 27t-25.5 67t25.5 67.5t66.5 27.5q39 0 65.5 -27.5t26.5 -67.5t-26 -67t-66 -27zM698 -25q-118 0 -219.5 44.5t-179.5 130t-123 222.5
t-45 312t45 312t123 222.5t179.5 130t219.5 44.5t219 -44.5t178.5 -130t122 -222.5t44.5 -312t-44.5 -312t-122 -222.5t-178.5 -130t-219 -44.5zM698 82q92 0 170 36t138.5 107t94.5 188.5t34 270.5t-34 270.5t-94.5 188.5t-138.5 107t-170 36q-94 0 -172 -35.5t-139 -107
t-95 -189t-34 -270.5t34 -270.5t95 -189t139 -107t172 -35.5z" />
    <glyph glyph-name="multiply" unicode="&#xd7;" 
d="M989 995l-358 -381l358 -381l-78 -77l-356 376l-354 -376l-80 77l358 381l-358 379l78 78l356 -377l356 377z" />
    <glyph glyph-name="Oslash" unicode="&#xd8;" horiz-adv-x="1398" 
d="M1112 1202q154 -188 154 -518q0 -175 -44.5 -312t-122 -222.5t-178.5 -130t-219 -44.5q-205 0 -344 121l-104 -153l-82 57l113 170q-150 191 -150 514q0 175 44.5 312t122.5 222.5t179.5 130t220.5 44.5q197 0 338 -117l93 137l84 -57zM702 1286q-94 0 -172 -35.5
t-139 -107t-95 -189t-34 -270.5q0 -256 96 -412l617 910q-110 104 -273 104zM702 82q92 0 170 36t138.5 107t94.5 188.5t34 270.5q0 256 -97 414l-618 -910q112 -106 278 -106z" />
    <glyph glyph-name="Ugrave" unicode="&#xd9;" horiz-adv-x="1302" 
d="M733 1550h-108l-201 287h143zM649 -25q-210 0 -332 113t-122 334v946h124v-922q0 -191 83.5 -277.5t252.5 -86.5q170 0 252 87t82 277v922h119v-946q0 -220 -124 -333.5t-335 -113.5z" />
    <glyph glyph-name="Uacute" unicode="&#xda;" horiz-adv-x="1302" 
d="M580 1550l168 287h141l-199 -287h-110zM649 -25q-210 0 -332 113t-122 334v946h124v-922q0 -191 83.5 -277.5t252.5 -86.5q170 0 252 87t82 277v922h119v-946q0 -220 -124 -333.5t-335 -113.5z" />
    <glyph glyph-name="Ucircumflex" unicode="&#xdb;" horiz-adv-x="1302" 
d="M657 1735l-192 -193h-123l256 277h117l256 -277h-123zM989 1368h119v-946q0 -220 -124 -333.5t-335 -113.5q-210 0 -332 113t-122 334v946h124v-922q0 -191 83.5 -277.5t252.5 -86.5q170 0 252 87t82 277v922z" />
    <glyph glyph-name="Udieresis" unicode="&#xdc;" horiz-adv-x="1302" 
d="M449 1548q-40 0 -66.5 27t-26.5 67t26.5 67.5t66.5 27.5q41 0 67.5 -27.5t26.5 -67.5t-26.5 -67t-67.5 -27zM862 1548q-41 0 -66.5 27t-25.5 67t25.5 67.5t66.5 27.5q39 0 65.5 -27.5t26.5 -67.5t-26 -67t-66 -27zM649 -25q-210 0 -332 113t-122 334v946h124v-922
q0 -191 83.5 -277.5t252.5 -86.5q170 0 252 87t82 277v922h119v-946q0 -220 -124 -333.5t-335 -113.5z" />
    <glyph glyph-name="Yacute" unicode="&#xdd;" horiz-adv-x="1175" 
d="M823 1837l-198 -287h-111l168 287h141zM1128 1368l-477 -711v-657h-125v653l-479 715h150l352 -543q32 -45 41 -67h6q7 18 37 67l354 543h141z" />
    <glyph glyph-name="Thorn" unicode="&#xde;" horiz-adv-x="1165" 
d="M600 1106q204 0 327.5 -101t123.5 -294q0 -194 -124 -296t-327 -102h-266v-313h-125v1368h125v-262h266zM592 418q165 0 247.5 71.5t82.5 221.5q0 149 -82.5 219.5t-247.5 70.5h-258v-583h258z" />
    <glyph glyph-name="germandbls" unicode="&#xdf;" horiz-adv-x="1128" 
d="M723 813q56 -13 107 -44t93 -80t66.5 -121.5t24.5 -159.5q0 -190 -111.5 -310.5t-281.5 -120.5q-73 0 -132 19l13 96q54 -16 104 -16q91 0 156.5 48t96 124.5t30.5 169.5q0 148 -80 245t-236 97h-34v96h18q119 0 183.5 65t64.5 181q0 115 -63.5 180.5t-182.5 65.5
q-116 0 -186 -78.5t-70 -225.5v-1044h-121v1018q0 205 105.5 317.5t281.5 112.5q154 0 255.5 -95t101.5 -241q0 -120 -58 -193.5t-145 -99.5v-6z" />
    <glyph glyph-name="agrave" unicode="&#xe0;" horiz-adv-x="1015" 
d="M580 1182h-107l-231 346h139zM842 233q0 -96 20 -233h-127q-11 75 -14 168h-6q-41 -85 -125 -136.5t-191 -51.5q-129 0 -211 71.5t-82 196.5q0 128 86.5 208.5t225.5 114.5q153 36 303 54v63q0 234 -232 234q-91 0 -147.5 -42.5t-67.5 -115.5h-118q11 112 100 185t233 73
q162 0 257.5 -89t95.5 -255v-445zM418 80q126 0 214.5 96t88.5 254v109q-104 -12 -275 -56q-113 -30 -164 -85t-51 -142q0 -83 51.5 -129.5t135.5 -46.5z" />
    <glyph glyph-name="aacute" unicode="&#xe1;" horiz-adv-x="1015" 
d="M764 1528l-232 -346h-106l199 346h139zM842 233q0 -96 20 -233h-127q-11 75 -14 168h-6q-41 -85 -125 -136.5t-191 -51.5q-129 0 -211 71.5t-82 196.5q0 128 86.5 208.5t225.5 114.5q153 36 303 54v63q0 234 -232 234q-91 0 -147.5 -42.5t-67.5 -115.5h-118
q11 112 100 185t233 73q162 0 257.5 -89t95.5 -255v-445zM418 80q126 0 214.5 96t88.5 254v109q-104 -12 -275 -56q-113 -30 -164 -85t-51 -142q0 -83 51.5 -129.5t135.5 -46.5z" />
    <glyph glyph-name="acircumflex" unicode="&#xe2;" horiz-adv-x="1015" 
d="M504 1393l-187 -213h-114l248 305h102l248 -305h-113zM842 233q0 -96 20 -233h-127q-11 75 -14 168h-6q-41 -85 -125 -136.5t-191 -51.5q-129 0 -211 71.5t-82 196.5q0 128 86.5 208.5t225.5 114.5q153 36 303 54v63q0 234 -232 234q-91 0 -147.5 -42.5t-67.5 -115.5
h-118q11 112 100 185t233 73q162 0 257.5 -89t95.5 -255v-445zM418 80q126 0 214.5 96t88.5 254v109q-104 -12 -275 -56q-113 -30 -164 -85t-51 -142q0 -83 51.5 -129.5t135.5 -46.5z" />
    <glyph glyph-name="atilde" unicode="&#xe3;" horiz-adv-x="1015" 
d="M377 1348q-33 0 -55 -32.5t-27 -121.5h-88q3 78 21 133.5t46 81.5t54 36.5t55 10.5q37 0 69 -16.5t48 -34t39 -47.5q52 -68 88 -68q32 0 52 31t30 123h88q-3 -78 -21 -133.5t-46 -81.5t-54 -36.5t-55 -10.5q-38 0 -71 18t-48 34t-41 50q-23 32 -41.5 48t-42.5 16z
M842 233q0 -96 20 -233h-127q-11 75 -14 168h-6q-41 -85 -125 -136.5t-191 -51.5q-129 0 -211 71.5t-82 196.5q0 128 86.5 208.5t225.5 114.5q153 36 303 54v63q0 234 -232 234q-91 0 -147.5 -42.5t-67.5 -115.5h-118q11 112 100 185t233 73q162 0 257.5 -89t95.5 -255v-445
zM418 80q126 0 214.5 96t88.5 254v109q-104 -12 -275 -56q-113 -30 -164 -85t-51 -142q0 -83 51.5 -129.5t135.5 -46.5z" />
    <glyph glyph-name="adieresis" unicode="&#xe4;" horiz-adv-x="1015" 
d="M313 1237q-40 0 -65 26t-25 66t25.5 67t64.5 27q41 0 67 -27t26 -67t-26 -66t-67 -26zM690 1237q-40 0 -66 26t-26 66t26 67t66 27q39 0 64.5 -27t25.5 -67t-25 -66t-65 -26zM842 233q0 -96 20 -233h-127q-11 75 -14 168h-6q-41 -85 -125 -136.5t-191 -51.5
q-129 0 -211 71.5t-82 196.5q0 128 86.5 208.5t225.5 114.5q153 36 303 54v63q0 234 -232 234q-91 0 -147.5 -42.5t-67.5 -115.5h-118q11 112 100 185t233 73q162 0 257.5 -89t95.5 -255v-445zM418 80q126 0 214.5 96t88.5 254v109q-104 -12 -275 -56q-113 -30 -164 -85
t-51 -142q0 -83 51.5 -129.5t135.5 -46.5z" />
    <glyph glyph-name="aring" unicode="&#xe5;" horiz-adv-x="1015" 
d="M500 1149q-96 0 -160 59.5t-64 147.5q0 89 63.5 149t160.5 60t161 -60t64 -149q0 -88 -64.5 -147.5t-160.5 -59.5zM500 1487q-57 0 -92 -38.5t-35 -92.5q0 -53 37 -91t90 -38q55 0 92 37.5t37 91.5q0 55 -36 93t-93 38zM842 233q0 -96 20 -233h-127q-11 75 -14 168h-6
q-41 -85 -125 -136.5t-191 -51.5q-129 0 -211 71.5t-82 196.5q0 128 86.5 208.5t225.5 114.5q153 36 303 54v63q0 234 -232 234q-91 0 -147.5 -42.5t-67.5 -115.5h-118q11 112 100 185t233 73q162 0 257.5 -89t95.5 -255v-445zM418 80q126 0 214.5 96t88.5 254v109
q-104 -12 -275 -56q-113 -30 -164 -85t-51 -142q0 -83 51.5 -129.5t135.5 -46.5z" />
    <glyph glyph-name="ae" unicode="&#xe6;" horiz-adv-x="1638" 
d="M1528 545q0 -16 -4 -66h-682q4 -193 84.5 -296t226.5 -103q167 0 279 135l65 -72q-141 -163 -350 -163q-129 0 -226.5 66t-148.5 187h-6q-55 -121 -151 -187t-216 -66q-129 0 -211 69.5t-82 192.5q0 137 93 216.5t262 98.5q132 14 260 14v117q0 234 -232 234
q-91 0 -147.5 -42.5t-67.5 -115.5h-118q11 112 100 185t233 73q118 0 198 -48t114 -140h8q53 90 136 139t188 49q181 0 288 -132t107 -345zM1133 924q-123 0 -199.5 -92t-89.5 -261h563q-5 168 -76 260.5t-198 92.5zM418 80q126 0 214.5 94.5t88.5 245.5v63q-112 0 -223 -12
q-147 -16 -207 -71t-60 -148q0 -80 52 -126t135 -46z" />
    <glyph glyph-name="ccedilla" unicode="&#xe7;" horiz-adv-x="985" 
d="M891 221q-79 -209 -291 -237v-13q123 -83 123 -186q0 -79 -54.5 -125.5t-144.5 -46.5q-121 0 -192 100l61 56q58 -68 123 -68q46 0 74 27.5t28 68.5q0 97 -114 185q-173 14 -280 152.5t-107 365.5q0 239 119.5 380.5t306.5 141.5q111 0 203.5 -55.5t140.5 -173.5l-94 -43
q-66 172 -248 172q-136 0 -219.5 -111.5t-83.5 -310.5q0 -198 83 -309t220 -111q181 0 252 182z" />
    <glyph glyph-name="egrave" unicode="&#xe8;" horiz-adv-x="1062" 
d="M618 1182h-106l-231 346h139zM950 545q0 -43 -2 -68h-708q4 -191 92 -294t241 -103q172 0 281 135l66 -72q-138 -163 -353 -163q-202 0 -326 140t-124 380q0 239 120.5 380.5t311.5 141.5q182 0 291.5 -132.5t109.5 -344.5zM549 922q-129 0 -210.5 -91.5t-96.5 -259.5
h589q-6 167 -79.5 259t-202.5 92z" />
    <glyph glyph-name="eacute" unicode="&#xe9;" horiz-adv-x="1062" 
d="M805 1528l-232 -346h-106l199 346h139zM950 545q0 -43 -2 -68h-708q4 -191 92 -294t241 -103q172 0 281 135l66 -72q-138 -163 -353 -163q-202 0 -326 140t-124 380q0 239 120.5 380.5t311.5 141.5q182 0 291.5 -132.5t109.5 -344.5zM549 922q-129 0 -210.5 -91.5
t-96.5 -259.5h589q-6 167 -79.5 259t-202.5 92z" />
    <glyph glyph-name="ecircumflex" unicode="&#xea;" horiz-adv-x="1062" 
d="M545 1393l-187 -213h-114l248 305h102l248 -305h-113zM950 545q0 -43 -2 -68h-708q4 -191 92 -294t241 -103q172 0 281 135l66 -72q-138 -163 -353 -163q-202 0 -326 140t-124 380q0 239 120.5 380.5t311.5 141.5q182 0 291.5 -132.5t109.5 -344.5zM549 922
q-129 0 -210.5 -91.5t-96.5 -259.5h589q-6 167 -79.5 259t-202.5 92z" />
    <glyph glyph-name="edieresis" unicode="&#xeb;" horiz-adv-x="1062" 
d="M354 1237q-40 0 -65 26t-25 66t25.5 67t64.5 27q41 0 66.5 -27t25.5 -67t-25.5 -66t-66.5 -26zM731 1237q-40 0 -66 26t-26 66t26 67t66 27q39 0 64.5 -27t25.5 -67t-25 -66t-65 -26zM950 545q0 -43 -2 -68h-708q4 -191 92 -294t241 -103q172 0 281 135l66 -72
q-138 -163 -353 -163q-202 0 -326 140t-124 380q0 239 120.5 380.5t311.5 141.5q182 0 291.5 -132.5t109.5 -344.5zM549 922q-129 0 -210.5 -91.5t-96.5 -259.5h589q-6 167 -79.5 259t-202.5 92z" />
    <glyph glyph-name="igrave" unicode="&#xec;" horiz-adv-x="485" 
d="M319 1180h-106l-231 346h139zM182 1001h121v-1001h-121v1001z" />
    <glyph glyph-name="iacute" unicode="&#xed;" horiz-adv-x="485" 
d="M166 1180l199 346h139l-232 -346h-106zM182 1001h121v-1001h-121v1001z" />
    <glyph glyph-name="icircumflex" unicode="&#xee;" horiz-adv-x="485" 
d="M293 1483l207 -305h-109l-147 206l-150 -206h-108l207 305h100zM182 0v1001h121v-1001h-121z" />
    <glyph glyph-name="idieresis" unicode="&#xef;" horiz-adv-x="485" 
d="M88 1235q-40 0 -65 26t-25 66t25.5 67t64.5 27q40 0 66 -27t26 -67t-26 -66t-66 -26zM395 1235q-40 0 -66 26t-26 66t26 67t66 27q39 0 64.5 -27t25.5 -67t-25 -66t-65 -26zM182 1001h121v-1001h-121v1001z" />
    <glyph glyph-name="eth" unicode="&#xf0;" horiz-adv-x="1105" 
d="M707 1221q135 -160 206.5 -346t71.5 -373q0 -241 -114.5 -381.5t-317.5 -140.5q-197 0 -315.5 138t-118.5 363q0 212 110 353t289 141q191 0 291 -146l8 2q-66 175 -217 345l-262 -109l-33 82l232 96q-95 88 -179 148l80 71q109 -76 207 -174l211 86l33 -82zM553 80
q140 0 224.5 107t84.5 292t-84.5 291.5t-224.5 106.5q-141 0 -224 -106t-83 -294q0 -186 83 -291.5t224 -105.5z" />
    <glyph glyph-name="ntilde" unicode="&#xf1;" horiz-adv-x="1099" 
d="M440 1348q-33 0 -55 -32.5t-27 -121.5h-88q3 78 21 133.5t46 81.5t54 36.5t55 10.5q37 0 69 -16.5t48 -34t39 -47.5q52 -68 88 -68q32 0 52 31t30 123h88q-3 -78 -21 -133.5t-46 -81.5t-54 -36.5t-55 -10.5q-38 0 -71 18t-48 34t-41 50q-23 32 -41.5 48t-42.5 16z
M612 1022q148 0 232 -90t84 -246v-686h-121v657q0 128 -50 196.5t-167 68.5q-118 0 -202.5 -89.5t-84.5 -230.5v-602h-121v1001h119v-157h6q43 84 122.5 131t182.5 47z" />
    <glyph glyph-name="ograve" unicode="&#xf2;" horiz-adv-x="1114" 
d="M633 1182h-107l-231 346h139zM557 -20q-197 0 -318.5 141t-121.5 381q0 239 121.5 379.5t318.5 140.5q198 0 319 -140.5t121 -379.5q0 -241 -120.5 -381.5t-319.5 -140.5zM557 80q145 0 230 111t85 311q0 197 -85.5 308.5t-229.5 111.5t-229.5 -111.5t-85.5 -308.5
q0 -200 85 -311t230 -111z" />
    <glyph glyph-name="oacute" unicode="&#xf3;" horiz-adv-x="1114" 
d="M481 1182l199 346h139l-231 -346h-107zM557 -20q-197 0 -318.5 141t-121.5 381q0 239 121.5 379.5t318.5 140.5q198 0 319 -140.5t121 -379.5q0 -241 -120.5 -381.5t-319.5 -140.5zM557 80q145 0 230 111t85 311q0 197 -85.5 308.5t-229.5 111.5t-229.5 -111.5
t-85.5 -308.5q0 -200 85 -311t230 -111z" />
    <glyph glyph-name="ocircumflex" unicode="&#xf4;" horiz-adv-x="1114" 
d="M559 1393l-186 -213h-115l248 305h102l248 -305h-113zM557 1022q198 0 319 -140.5t121 -379.5q0 -241 -120.5 -381.5t-319.5 -140.5q-197 0 -318.5 141t-121.5 381q0 239 121.5 379.5t318.5 140.5zM557 80q145 0 230 111t85 311q0 197 -85.5 308.5t-229.5 111.5
t-229.5 -111.5t-85.5 -308.5q0 -200 85 -311t230 -111z" />
    <glyph glyph-name="otilde" unicode="&#xf5;" horiz-adv-x="1114" 
d="M676 1182q-38 0 -71 18t-48 34t-41 50q-23 32 -41.5 48t-42.5 16q-33 0 -55 -32.5t-27 -121.5h-88q3 78 21 133.5t46 81.5t54 36.5t55 10.5q37 0 69 -16.5t48 -34t39 -47.5q52 -68 88 -68q32 0 52 31t30 123h88q-3 -78 -21 -133.5t-46 -81.5t-54 -36.5t-55 -10.5z
M557 -20q-197 0 -318.5 141t-121.5 381q0 239 121.5 379.5t318.5 140.5q198 0 319 -140.5t121 -379.5q0 -241 -120.5 -381.5t-319.5 -140.5zM557 80q145 0 230 111t85 311q0 197 -85.5 308.5t-229.5 111.5t-229.5 -111.5t-85.5 -308.5q0 -200 85 -311t230 -111z" />
    <glyph glyph-name="odieresis" unicode="&#xf6;" horiz-adv-x="1114" 
d="M369 1237q-40 0 -65 26t-25 66t25.5 67t64.5 27q41 0 66.5 -27t25.5 -67t-25.5 -66t-66.5 -26zM745 1237q-40 0 -66 26t-26 66t26 67t66 27q39 0 65 -27t26 -67t-25.5 -66t-65.5 -26zM557 -20q-197 0 -318.5 141t-121.5 381q0 239 121.5 379.5t318.5 140.5
q198 0 319 -140.5t121 -379.5q0 -241 -120.5 -381.5t-319.5 -140.5zM557 80q145 0 230 111t85 311q0 197 -85.5 308.5t-229.5 111.5t-229.5 -111.5t-85.5 -308.5q0 -200 85 -311t230 -111z" />
    <glyph glyph-name="divide" unicode="&#xf7;" 
d="M553 897q-40 0 -65 26t-25 66q0 39 25.5 64.5t64.5 25.5t64.5 -25.5t25.5 -64.5q0 -40 -25 -66t-65 -26zM92 561v107h924v-107h-924zM553 150q-40 0 -65 26t-25 66q0 39 25.5 64.5t64.5 25.5t64.5 -25.5t25.5 -64.5q0 -40 -25 -66t-65 -26z" />
    <glyph glyph-name="oslash" unicode="&#xf8;" horiz-adv-x="1130" 
d="M897 866q109 -140 109 -364q0 -240 -121 -381t-318 -141q-156 0 -268 92l-106 -138l-72 60l110 145q-104 142 -104 363q0 239 121 379.5t319 140.5q153 0 264 -88l91 119l71 -60zM567 922q-146 0 -231.5 -110.5t-85.5 -309.5q0 -168 59 -271l453 619q-78 72 -195 72z
M567 80q145 0 230.5 110.5t85.5 311.5q0 165 -60 270l-454 -618q77 -74 198 -74z" />
    <glyph glyph-name="ugrave" unicode="&#xf9;" horiz-adv-x="1099" 
d="M623 1182h-107l-231 346h139zM797 1001h121v-1001h-119v158h-6q-43 -84 -123 -131t-183 -47q-148 0 -231.5 89.5t-83.5 245.5v686h121v-657q0 -128 50 -196t167 -68q118 0 202.5 89t84.5 230v602z" />
    <glyph glyph-name="uacute" unicode="&#xfa;" horiz-adv-x="1099" 
d="M809 1528l-231 -346h-107l199 346h139zM797 1001h121v-1001h-119v158h-6q-43 -84 -123 -131t-183 -47q-148 0 -231.5 89.5t-83.5 245.5v686h121v-657q0 -128 50 -196t167 -68q118 0 202.5 89t84.5 230v602z" />
    <glyph glyph-name="ucircumflex" unicode="&#xfb;" horiz-adv-x="1099" 
d="M549 1393l-187 -213h-114l248 305h102l248 -305h-113zM797 1001h121v-1001h-119v158h-6q-43 -84 -123 -131t-183 -47q-148 0 -231.5 89.5t-83.5 245.5v686h121v-657q0 -128 50 -196t167 -68q118 0 202.5 89t84.5 230v602z" />
    <glyph glyph-name="udieresis" unicode="&#xfc;" horiz-adv-x="1099" 
d="M358 1237q-40 0 -65 26t-25 66t25.5 67t64.5 27q41 0 67 -27t26 -67t-26 -66t-67 -26zM735 1237q-40 0 -66 26t-26 66t26 67t66 27q39 0 64.5 -27t25.5 -67t-25 -66t-65 -26zM797 1001h121v-1001h-119v158h-6q-43 -84 -123 -131t-183 -47q-148 0 -231.5 89.5t-83.5 245.5
v686h121v-657q0 -128 50 -196t167 -68q118 0 202.5 89t84.5 230v602z" />
    <glyph glyph-name="yacute" unicode="&#xfd;" horiz-adv-x="983" 
d="M416 1182l198 346h140l-232 -346h-106zM207 -387q-61 0 -117 16v101q76 -17 117 -17q54 0 92.5 37.5t71.5 126.5l65 176l-370 948h133l264 -718q23 -63 33 -111h6q9 43 35 111l258 718h125l-441 -1167q-49 -127 -114 -174t-158 -47z" />
    <glyph glyph-name="thorn" unicode="&#xfe;" horiz-adv-x="1146" 
d="M614 1022q179 0 296.5 -139t117.5 -381q0 -243 -117.5 -382.5t-296.5 -139.5q-211 0 -305 192h-6v-539h-121v1790h121v-594h8q91 193 303 193zM602 80q138 0 219.5 111t81.5 311q0 198 -81.5 309t-219.5 111q-137 0 -219 -112t-82 -310q0 -196 82 -308t219 -112z" />
    <glyph glyph-name="ydieresis" unicode="&#xff;" horiz-adv-x="983" 
d="M303 1237q-40 0 -65 26t-25 66t25.5 67t64.5 27q41 0 66.5 -27t25.5 -67t-25.5 -66t-66.5 -26zM680 1237q-40 0 -66 26t-26 66t26 67t66 27q39 0 64.5 -27t25.5 -67t-25 -66t-65 -26zM207 -387q-61 0 -117 16v101q76 -17 117 -17q54 0 92.5 37.5t71.5 126.5l65 176
l-370 948h133l264 -718q23 -63 33 -111h6q9 43 35 111l258 718h125l-441 -1167q-49 -127 -114 -174t-158 -47z" />
    <glyph glyph-name="Amacron" unicode="&#x100;" horiz-adv-x="1210" 
d="M909 1716v-96h-610v96h610zM1012 0l-125 381h-574l-127 -381h-123l469 1368h146l469 -1368h-135zM348 483h504l-209 635q-27 84 -37 133h-6q-8 -38 -35 -121z" />
    <glyph glyph-name="amacron" unicode="&#x101;" horiz-adv-x="1015" 
d="M793 1346v-95h-582v95h582zM842 233q0 -96 20 -233h-127q-11 75 -14 168h-6q-41 -85 -125 -136.5t-191 -51.5q-129 0 -211 71.5t-82 196.5q0 128 86.5 208.5t225.5 114.5q153 36 303 54v63q0 234 -232 234q-91 0 -147.5 -42.5t-67.5 -115.5h-118q11 112 100 185t233 73
q162 0 257.5 -89t95.5 -255v-445zM418 80q126 0 214.5 96t88.5 254v109q-104 -12 -275 -56q-113 -30 -164 -85t-51 -142q0 -83 51.5 -129.5t135.5 -46.5z" />
    <glyph glyph-name="Abreve" unicode="&#x102;" horiz-adv-x="1210" 
d="M604 1538q-130 0 -210 71t-93 208h98q12 -67 43 -108t70 -55t92 -14q83 0 135.5 39t71.5 138h98q-13 -137 -93 -208t-212 -71zM1012 0l-125 381h-574l-127 -381h-123l469 1368h146l469 -1368h-135zM348 483h504l-209 635q-27 84 -37 133h-6q-8 -38 -35 -121z" />
    <glyph glyph-name="abreve" unicode="&#x103;" horiz-adv-x="1015" 
d="M502 1176q-122 0 -199.5 76t-89.5 221h96q32 -195 193 -195q162 0 194 195h97q-13 -145 -91 -221t-200 -76zM842 233q0 -96 20 -233h-127q-11 75 -14 168h-6q-41 -85 -125 -136.5t-191 -51.5q-129 0 -211 71.5t-82 196.5q0 128 86.5 208.5t225.5 114.5q153 36 303 54v63
q0 234 -232 234q-91 0 -147.5 -42.5t-67.5 -115.5h-118q11 112 100 185t233 73q162 0 257.5 -89t95.5 -255v-445zM418 80q126 0 214.5 96t88.5 254v109q-104 -12 -275 -56q-113 -30 -164 -85t-51 -142q0 -83 51.5 -129.5t135.5 -46.5z" />
    <glyph glyph-name="Aogonek" unicode="&#x104;" horiz-adv-x="1210" 
d="M1116 -223l64 -64q-77 -100 -193 -100q-85 0 -138.5 45.5t-53.5 118.5q0 123 166 239l36 25l-110 340h-574l-127 -381h-123l469 1368h146l469 -1368h-90q-146 -105 -146 -201q0 -41 25 -64.5t65 -23.5q59 0 115 66zM348 483h504l-209 635q-27 84 -37 133h-6
q-8 -38 -35 -121z" />
    <glyph glyph-name="aogonek" unicode="&#x105;" horiz-adv-x="1015" 
d="M842 -229l61 -60q-36 -51 -77.5 -74.5t-98.5 -23.5q-76 0 -126 43t-50 113q0 71 47.5 132t134.5 124q-8 55 -12 143h-6q-41 -85 -125 -136.5t-191 -51.5q-129 0 -211 71.5t-82 196.5q0 128 86.5 208.5t225.5 114.5q153 36 303 54v63q0 234 -232 234q-91 0 -147.5 -42.5
t-67.5 -115.5h-118q11 112 100 185t233 73q162 0 257.5 -89t95.5 -255v-445q0 -96 20 -233h-53q-141 -111 -141 -213q0 -39 20.5 -58.5t54.5 -19.5q50 0 99 62zM418 80q126 0 214.5 96t88.5 254v109q-104 -12 -275 -56q-113 -30 -164 -85t-51 -142q0 -83 51.5 -129.5
t135.5 -46.5z" />
    <glyph glyph-name="Cacute" unicode="&#x106;" horiz-adv-x="1251" 
d="M592 1550l168 287h141l-199 -287h-110zM260 684q0 -150 32.5 -266.5t90 -189t133.5 -109.5t166 -37q130 0 224 69.5t145 231.5l104 -35q-59 -190 -183.5 -281.5t-295.5 -91.5q-114 0 -211.5 45t-172 131.5t-117 223t-42.5 309.5t42.5 309.5t117 223t172 131.5t211.5 45
q165 0 287 -85t180 -257l-103 -33q-91 268 -360 268q-89 0 -164 -37t-133 -109t-90.5 -189t-32.5 -267z" />
    <glyph glyph-name="cacute" unicode="&#x107;" horiz-adv-x="985" 
d="M457 1182l198 346h140l-232 -346h-106zM543 -20q-189 0 -307.5 140.5t-118.5 379.5t119.5 380.5t306.5 141.5q111 0 203.5 -55.5t140.5 -173.5l-94 -43q-66 172 -248 172q-136 0 -219.5 -111.5t-83.5 -310.5q0 -198 83 -309t220 -111q181 0 252 182l94 -41
q-47 -124 -139.5 -182.5t-208.5 -58.5z" />
    <glyph glyph-name="Ccircumflex" unicode="&#x108;" horiz-adv-x="1251" 
d="M670 1735l-193 -193h-123l256 277h117l256 -277h-123zM1051 383l104 -35q-59 -190 -183.5 -281.5t-295.5 -91.5q-114 0 -211.5 45t-172 131.5t-117 223t-42.5 309.5t42.5 309.5t117 223t172 131.5t211.5 45q165 0 287 -85t180 -257l-103 -33q-91 268 -360 268
q-89 0 -164 -37t-133 -109t-90.5 -189t-32.5 -267t32.5 -266.5t90 -189t133.5 -109.5t166 -37q130 0 224 69.5t145 231.5z" />
    <glyph glyph-name="ccircumflex" unicode="&#x109;" horiz-adv-x="985" 
d="M535 1393l-187 -213h-115l248 305h103l247 -305h-112zM797 262l94 -41q-47 -124 -139.5 -182.5t-208.5 -58.5q-189 0 -307.5 140.5t-118.5 379.5t119.5 380.5t306.5 141.5q111 0 203.5 -55.5t140.5 -173.5l-94 -43q-66 172 -248 172q-136 0 -219.5 -111.5t-83.5 -310.5
q0 -198 83 -309t220 -111q181 0 252 182z" />
    <glyph glyph-name="Cdotaccent" unicode="&#x10a;" horiz-adv-x="1251" 
d="M670 1548q-41 0 -68 27t-27 67q0 41 27 69t68 28q40 0 67 -28t27 -69q0 -40 -27 -67t-67 -27zM260 684q0 -150 32.5 -266.5t90 -189t133.5 -109.5t166 -37q130 0 224 69.5t145 231.5l104 -35q-59 -190 -183.5 -281.5t-295.5 -91.5q-114 0 -211.5 45t-172 131.5t-117 223
t-42.5 309.5t42.5 309.5t117 223t172 131.5t211.5 45q165 0 287 -85t180 -257l-103 -33q-91 268 -360 268q-89 0 -164 -37t-133 -109t-90.5 -189t-32.5 -267z" />
    <glyph glyph-name="cdotaccent" unicode="&#x10b;" horiz-adv-x="985" 
d="M535 1237q-41 0 -68 26t-27 66q0 41 27 67.5t68 26.5q40 0 66 -26.5t26 -67.5q0 -40 -26 -66t-66 -26zM543 -20q-189 0 -307.5 140.5t-118.5 379.5t119.5 380.5t306.5 141.5q111 0 203.5 -55.5t140.5 -173.5l-94 -43q-66 172 -248 172q-136 0 -219.5 -111.5t-83.5 -310.5
q0 -198 83 -309t220 -111q181 0 252 182l94 -41q-47 -124 -139.5 -182.5t-208.5 -58.5z" />
    <glyph glyph-name="Ccaron" unicode="&#x10c;" horiz-adv-x="1251" 
d="M727 1542h-117l-256 277h123l193 -191l190 191h123zM1051 383l104 -35q-59 -190 -183.5 -281.5t-295.5 -91.5q-114 0 -211.5 45t-172 131.5t-117 223t-42.5 309.5t42.5 309.5t117 223t172 131.5t211.5 45q165 0 287 -85t180 -257l-103 -33q-91 268 -360 268
q-89 0 -164 -37t-133 -109t-90.5 -189t-32.5 -267t32.5 -266.5t90 -189t133.5 -109.5t166 -37q130 0 224 69.5t145 231.5z" />
    <glyph glyph-name="ccaron" unicode="&#x10d;" horiz-adv-x="985" 
d="M584 1180h-103l-248 305h115l187 -213l184 213h112zM797 262l94 -41q-47 -124 -139.5 -182.5t-208.5 -58.5q-189 0 -307.5 140.5t-118.5 379.5t119.5 380.5t306.5 141.5q111 0 203.5 -55.5t140.5 -173.5l-94 -43q-66 172 -248 172q-136 0 -219.5 -111.5t-83.5 -310.5
q0 -198 83 -309t220 -111q181 0 252 182z" />
    <glyph glyph-name="Dcaron" unicode="&#x10e;" horiz-adv-x="1341" 
d="M686 1542h-117l-256 277h123l193 -191l190 191h123zM578 1368q136 0 247.5 -38.5t198.5 -118t135.5 -214t48.5 -313.5t-48.5 -313.5t-135.5 -214t-198.5 -118t-247.5 -38.5h-369v1368h369zM565 104q117 0 209.5 32.5t162.5 100t107 181t37 266.5t-37 266.5t-107 181
t-162.5 100t-209.5 32.5h-231v-1160h231z" />
    <glyph glyph-name="dcaron" unicode="&#x10f;" horiz-adv-x="1202" 
d="M844 829v594h123v-1423h-119v180h-6q-90 -200 -310 -200q-178 0 -295.5 139.5t-117.5 380.5q0 243 117.5 382.5t295.5 139.5q215 0 306 -193h6zM1161 1423h125l-74 -417h-90zM545 80q137 0 219 112t82 310q0 196 -82 308t-219 112t-219 -111.5t-82 -310.5t82 -309.5
t219 -110.5z" />
    <glyph glyph-name="Dcroat" unicode="&#x110;" horiz-adv-x="1382" 
d="M618 1368q136 0 247.5 -38.5t199 -118t136 -214t48.5 -313.5t-48.5 -313.5t-136 -214t-199 -118t-247.5 -38.5h-368v657h-205v95h205v616h368zM606 104q117 0 209.5 32.5t162.5 100t107 181t37 266.5t-37 266.5t-107 181t-162.5 100t-209.5 32.5h-231v-512h330v-95h-330
v-553h231z" />
    <glyph glyph-name="dcroat" unicode="&#x111;" horiz-adv-x="1146" 
d="M1120 1239v-88h-153v-1151h-119v180h-6q-45 -99 -125 -149.5t-185 -50.5q-177 0 -295 137t-118 370q0 236 117.5 374t295.5 138q214 0 308 -192h4v344h-447v88h447v184h123v-184h153zM545 80q137 0 219 109.5t82 299.5q0 189 -82.5 299.5t-218.5 110.5
q-137 0 -219 -109.5t-82 -302.5q0 -191 82 -299t219 -108z" />
    <glyph glyph-name="Emacron" unicode="&#x112;" 
d="M893 1716v-96h-610v96h610zM334 102h645v-102h-770v1368h756v-102h-631v-510h592v-101h-592v-553z" />
    <glyph glyph-name="emacron" unicode="&#x113;" horiz-adv-x="1062" 
d="M834 1346v-95h-582v95h582zM950 545q0 -43 -2 -68h-708q4 -191 92 -294t241 -103q172 0 281 135l66 -72q-138 -163 -353 -163q-202 0 -326 140t-124 380q0 239 120.5 380.5t311.5 141.5q182 0 291.5 -132.5t109.5 -344.5zM549 922q-129 0 -210.5 -91.5t-96.5 -259.5h589
q-6 167 -79.5 259t-202.5 92z" />
    <glyph glyph-name="Ebreve" unicode="&#x114;" 
d="M586 1538q-130 0 -210 71t-93 208h98q12 -67 43 -108t70 -55t92 -14q83 0 135.5 39t71.5 138h98q-13 -137 -93 -208t-212 -71zM334 102h645v-102h-770v1368h756v-102h-631v-510h592v-101h-592v-553z" />
    <glyph glyph-name="ebreve" unicode="&#x115;" horiz-adv-x="1062" 
d="M543 1176q-122 0 -199.5 76t-89.5 221h96q32 -195 193 -195q162 0 194 195h97q-13 -145 -91 -221t-200 -76zM950 545q0 -43 -2 -68h-708q4 -191 92 -294t241 -103q172 0 281 135l66 -72q-138 -163 -353 -163q-202 0 -326 140t-124 380q0 239 120.5 380.5t311.5 141.5
q182 0 291.5 -132.5t109.5 -344.5zM549 922q-129 0 -210.5 -91.5t-96.5 -259.5h589q-6 167 -79.5 259t-202.5 92z" />
    <glyph glyph-name="Edotaccent" unicode="&#x116;" 
d="M588 1548q-41 0 -67.5 27t-26.5 67q0 42 26.5 69.5t67.5 27.5q40 0 67 -28t27 -69q0 -40 -27 -67t-67 -27zM334 102h645v-102h-770v1368h756v-102h-631v-510h592v-101h-592v-553z" />
    <glyph glyph-name="edotaccent" unicode="&#x117;" horiz-adv-x="1062" 
d="M545 1237q-41 0 -67.5 26t-26.5 66q0 41 26.5 67.5t67.5 26.5q40 0 66 -26.5t26 -67.5q0 -40 -26 -66t-66 -26zM950 545q0 -43 -2 -68h-708q4 -191 92 -294t241 -103q172 0 281 135l66 -72q-138 -163 -353 -163q-202 0 -326 140t-124 380q0 239 120.5 380.5t311.5 141.5
q182 0 291.5 -132.5t109.5 -344.5zM549 922q-129 0 -210.5 -91.5t-96.5 -259.5h589q-6 167 -79.5 259t-202.5 92z" />
    <glyph glyph-name="Eogonek" unicode="&#x118;" 
d="M936 -221l68 -62q-73 -104 -205 -104q-94 0 -150.5 47.5t-56.5 128.5q0 119 141 203v8h-524v1368h756v-102h-631v-510h592v-101h-592v-553h645v-102h-125q-143 -90 -143 -193q0 -41 27 -67.5t75 -26.5q67 0 123 66z" />
    <glyph glyph-name="eogonek" unicode="&#x119;" horiz-adv-x="1062" 
d="M950 545q0 -43 -2 -68h-708q4 -191 92 -294t241 -103q172 0 281 135l66 -72q-74 -86 -166 -127q-86 -55 -130 -107t-44 -108q0 -42 27.5 -67t74.5 -25q60 0 121 68l65 -62q-74 -102 -200 -102q-93 0 -148 45t-55 121q0 102 121 192v9h-19q-202 0 -326 140t-124 380
q0 239 120.5 380.5t311.5 141.5q182 0 291.5 -132.5t109.5 -344.5zM549 922q-129 0 -210.5 -91.5t-96.5 -259.5h589q-6 167 -79.5 259t-202.5 92z" />
    <glyph glyph-name="Ecaron" unicode="&#x11a;" 
d="M645 1542h-117l-256 277h123l193 -191l190 191h123zM334 102h645v-102h-770v1368h756v-102h-631v-510h592v-101h-592v-553z" />
    <glyph glyph-name="ecaron" unicode="&#x11b;" horiz-adv-x="1062" 
d="M594 1180h-102l-248 305h114l187 -213l184 213h113zM950 545q0 -43 -2 -68h-708q4 -191 92 -294t241 -103q172 0 281 135l66 -72q-138 -163 -353 -163q-202 0 -326 140t-124 380q0 239 120.5 380.5t311.5 141.5q182 0 291.5 -132.5t109.5 -344.5zM549 922
q-129 0 -210.5 -91.5t-96.5 -259.5h589q-6 167 -79.5 259t-202.5 92z" />
    <glyph glyph-name="Gcircumflex" unicode="&#x11c;" horiz-adv-x="1318" 
d="M702 1735l-192 -193h-123l256 277h117l256 -277h-123zM682 668h489v-506q-174 -187 -458 -187q-119 0 -220.5 40t-184 122t-130 222t-47.5 325q0 173 47 310.5t127.5 223t183.5 130.5t220 45q150 0 273.5 -70t186.5 -209l-96 -53q-107 225 -364 225q-95 0 -176 -37
t-143 -109.5t-97 -189t-35 -266.5q0 -305 120.5 -454.5t332.5 -149.5q215 0 340 119v366h-369v103z" />
    <glyph glyph-name="gcircumflex" unicode="&#x11d;" horiz-adv-x="1011" 
d="M504 1393l-185 -213h-114l248 305h102l248 -305h-113zM578 164q166 -12 267 -83t101 -187q0 -128 -118.5 -204.5t-323.5 -76.5q-200 0 -315 70.5t-115 189.5q0 94 70.5 159t172.5 81v6q-73 15 -111 49t-38 84q0 59 52 99t145 59v6q-103 28 -163.5 103t-60.5 179
q0 145 99.5 234.5t255.5 89.5q72 0 133 -21h295v-94q-52 0 -195 13v-9q57 -30 90 -88t33 -133q0 -117 -76 -196.5t-201 -100.5q-153 -30 -223.5 -58.5t-70.5 -68.5q0 -42 66 -65.5t231 -36.5zM260 696q0 -101 64.5 -163t171.5 -62q109 0 173 61t64 164q0 105 -64.5 169.5
t-172.5 64.5q-107 0 -171.5 -64.5t-64.5 -169.5zM510 -297q152 0 235.5 48t83.5 132t-84.5 134.5t-234.5 50.5t-235 -50.5t-85 -134.5t84 -132t236 -48z" />
    <glyph glyph-name="Gbreve" unicode="&#x11e;" horiz-adv-x="1318" 
d="M700 1538q-130 0 -210 71t-93 208h99q12 -68 43 -108.5t69.5 -54.5t91.5 -14q83 0 135.5 39t71.5 138h99q-13 -137 -93.5 -208t-212.5 -71zM682 668h489v-506q-174 -187 -458 -187q-119 0 -220.5 40t-184 122t-130 222t-47.5 325q0 173 47 310.5t127.5 223t183.5 130.5
t220 45q150 0 273.5 -70t186.5 -209l-96 -53q-107 225 -364 225q-95 0 -176 -37t-143 -109.5t-97 -189t-35 -266.5q0 -305 120.5 -454.5t332.5 -149.5q215 0 340 119v366h-369v103z" />
    <glyph glyph-name="gbreve" unicode="&#x11f;" horiz-adv-x="1011" 
d="M504 1176q-122 0 -199.5 76t-89.5 221h96q32 -195 193 -195q162 0 194 195h97q-13 -145 -91 -221t-200 -76zM578 164q166 -12 267 -83t101 -187q0 -128 -118.5 -204.5t-323.5 -76.5q-200 0 -315 70.5t-115 189.5q0 94 70.5 159t172.5 81v6q-73 15 -111 49t-38 84
q0 59 52 99t145 59v6q-103 28 -163.5 103t-60.5 179q0 145 99.5 234.5t255.5 89.5q72 0 133 -21h295v-94q-52 0 -195 13v-9q57 -30 90 -88t33 -133q0 -117 -76 -196.5t-201 -100.5q-153 -30 -223.5 -58.5t-70.5 -68.5q0 -42 66 -65.5t231 -36.5zM260 696q0 -101 64.5 -163
t171.5 -62q109 0 173 61t64 164q0 105 -64.5 169.5t-172.5 64.5q-107 0 -171.5 -64.5t-64.5 -169.5zM510 -297q152 0 235.5 48t83.5 132t-84.5 134.5t-234.5 50.5t-235 -50.5t-85 -134.5t84 -132t236 -48z" />
    <glyph glyph-name="Gdotaccent" unicode="&#x120;" horiz-adv-x="1318" 
d="M700 1548q-41 0 -67.5 27t-26.5 67q0 42 26.5 69.5t67.5 27.5q40 0 67.5 -28t27.5 -69q0 -40 -27.5 -67t-67.5 -27zM682 668h489v-506q-174 -187 -458 -187q-119 0 -220.5 40t-184 122t-130 222t-47.5 325q0 173 47 310.5t127.5 223t183.5 130.5t220 45q150 0 273.5 -70
t186.5 -209l-96 -53q-107 225 -364 225q-95 0 -176 -37t-143 -109.5t-97 -189t-35 -266.5q0 -305 120.5 -454.5t332.5 -149.5q215 0 340 119v366h-369v103z" />
    <glyph glyph-name="gdotaccent" unicode="&#x121;" horiz-adv-x="1011" 
d="M506 1237q-41 0 -67.5 26t-26.5 66q0 41 26.5 67.5t67.5 26.5q40 0 66 -26.5t26 -67.5q0 -40 -26 -66t-66 -26zM578 164q166 -12 267 -83t101 -187q0 -128 -118.5 -204.5t-323.5 -76.5q-200 0 -315 70.5t-115 189.5q0 94 70.5 159t172.5 81v6q-73 15 -111 49t-38 84
q0 59 52 99t145 59v6q-103 28 -163.5 103t-60.5 179q0 145 99.5 234.5t255.5 89.5q72 0 133 -21h295v-94q-52 0 -195 13v-9q57 -30 90 -88t33 -133q0 -117 -76 -196.5t-201 -100.5q-153 -30 -223.5 -58.5t-70.5 -68.5q0 -42 66 -65.5t231 -36.5zM260 696q0 -101 64.5 -163
t171.5 -62q109 0 173 61t64 164q0 105 -64.5 169.5t-172.5 64.5q-107 0 -171.5 -64.5t-64.5 -169.5zM510 -297q152 0 235.5 48t83.5 132t-84.5 134.5t-234.5 50.5t-235 -50.5t-85 -134.5t84 -132t236 -48z" />
    <glyph glyph-name="uni0122" unicode="&#x122;" horiz-adv-x="1318" 
d="M682 668h489v-506q-174 -187 -458 -187q-119 0 -220.5 40t-184 122t-130 222t-47.5 325q0 173 47 310.5t127.5 223t183.5 130.5t220 45q150 0 273.5 -70t186.5 -209l-96 -53q-107 225 -364 225q-95 0 -176 -37t-143 -109.5t-97 -189t-35 -266.5q0 -305 120.5 -454.5
t332.5 -149.5q215 0 340 119v366h-369v103zM717 -100q43 0 68.5 -31.5t25.5 -87.5q0 -61 -29 -134.5t-75 -129.5l-60 34q35 47 57.5 97t24.5 78h-12q-39 0 -63.5 23t-24.5 61t24 64t64 26z" />
    <glyph glyph-name="uni0123" unicode="&#x123;" horiz-adv-x="1011" 
d="M502 1192q-42 0 -67 30t-25 85q0 59 28.5 130.5t73.5 127.5l57 -35q-35 -45 -56.5 -93t-23.5 -77h13q36 0 61 -22.5t25 -59.5q0 -36 -24 -61t-62 -25zM578 164q166 -12 267 -83t101 -187q0 -128 -118.5 -204.5t-323.5 -76.5q-200 0 -315 70.5t-115 189.5q0 94 70.5 159
t172.5 81v6q-73 15 -111 49t-38 84q0 59 52 99t145 59v6q-103 28 -163.5 103t-60.5 179q0 145 99.5 234.5t255.5 89.5q72 0 133 -21h295v-94q-52 0 -195 13v-9q57 -30 90 -88t33 -133q0 -117 -76 -196.5t-201 -100.5q-153 -30 -223.5 -58.5t-70.5 -68.5q0 -42 66 -65.5
t231 -36.5zM260 696q0 -101 64.5 -163t171.5 -62q109 0 173 61t64 164q0 105 -64.5 169.5t-172.5 64.5q-107 0 -171.5 -64.5t-64.5 -169.5zM510 -297q152 0 235.5 48t83.5 132t-84.5 134.5t-234.5 50.5t-235 -50.5t-85 -134.5t84 -132t236 -48z" />
    <glyph glyph-name="Hcircumflex" unicode="&#x124;" horiz-adv-x="1345" 
d="M676 1735l-193 -193h-123l256 277h117l256 -277h-123zM1014 1368h125v-1368h-125v653h-680v-653h-125v1368h125v-610h680v610z" />
    <glyph glyph-name="hcircumflex" unicode="&#x125;" horiz-adv-x="1099" 
d="M508 1790l-193 -193h-122l256 277h116l256 -277h-123zM616 1022q147 0 229.5 -90t82.5 -246v-686h-121v657q0 128 -50 196.5t-167 68.5q-118 0 -202.5 -89.5t-84.5 -230.5v-602h-121v1423h121v-573h8q43 80 121 126t184 46z" />
    <glyph glyph-name="Hbar" unicode="&#x126;" horiz-adv-x="1402" 
d="M1341 1098v-97h-174v-1001h-125v651h-680v-651h-124v1001h-177v97h177v270h124v-270h680v270h125v-270h174zM1042 756v245h-680v-245h680z" />
    <glyph glyph-name="hbar" unicode="&#x127;" horiz-adv-x="1099" 
d="M616 999q147 0 229.5 -89t82.5 -244v-666h-121v637q0 127 -50 194.5t-167 67.5q-118 0 -202.5 -89t-84.5 -230v-580h-121v1151h-153v88h153v184h121v-184h445v-88h-445v-324h8q43 80 121 126t184 46z" />
    <glyph glyph-name="Itilde" unicode="&#x128;" horiz-adv-x="663" 
d="M221 1694q-31 0 -49.5 -27.5t-24.5 -103.5h-88q2 71 18.5 121t42 74t51 34t54.5 10q32 0 59 -13.5t40.5 -27.5t35.5 -41q49 -57 82 -57q29 0 45.5 27t24.5 104h90q-3 -71 -19 -121t-41 -74.5t-49.5 -34.5t-52.5 -10q-32 0 -60.5 15t-42 28t-38.5 41q-23 28 -40 42t-38 14
zM549 1368v-100h-156v-1168h156v-100h-434v100h155v1168h-155v100h434z" />
    <glyph glyph-name="itilde" unicode="&#x129;" horiz-adv-x="485" 
d="M352 1288q30 0 49 32.5t23 121.5h88q-1 -78 -17 -133.5t-42.5 -81.5t-51 -36.5t-51.5 -10.5q-33 0 -63.5 18t-46 36.5t-37.5 49.5q-16 22 -25 32t-22 20t-25 10q-70 0 -72 -154h-88q1 78 17.5 133.5t42 81.5t50 36.5t50.5 10.5q34 0 64.5 -18t43.5 -33.5t37 -48.5
q16 -23 24.5 -34.5t22.5 -21.5t29 -10zM182 1001h121v-1001h-121v1001z" />
    <glyph glyph-name="Imacron" unicode="&#x12a;" horiz-adv-x="663" 
d="M102 1716h459v-96h-459v96zM549 1368v-100h-156v-1168h156v-100h-434v100h155v1168h-155v100h434z" />
    <glyph glyph-name="imacron" unicode="&#x12b;" horiz-adv-x="485" 
d="M27 1249v94h432v-94h-432zM182 1001h121v-1001h-121v1001z" />
    <glyph glyph-name="Ibreve" unicode="&#x12c;" horiz-adv-x="663" 
d="M334 1542q-111 0 -178.5 70t-71.5 205h96q7 -96 48.5 -133t105.5 -37q61 0 101 37t48 133h97q-6 -136 -71.5 -205.5t-174.5 -69.5zM549 1368v-100h-156v-1168h156v-100h-434v100h155v1168h-155v100h434z" />
    <glyph glyph-name="ibreve" unicode="&#x12d;" horiz-adv-x="485" 
d="M244 1174q-115 0 -181.5 74t-72.5 222h96q10 -108 50.5 -151t107.5 -43q66 0 106.5 43t48.5 151h97q-4 -148 -70 -222t-182 -74zM182 1001h121v-1001h-121v1001z" />
    <glyph glyph-name="Iogonek" unicode="&#x12e;" horiz-adv-x="663" 
d="M483 -221l68 -62q-73 -104 -205 -104q-94 0 -150.5 47.5t-56.5 128.5q0 119 142 203v8h-166v100h155v1168h-155v100h434v-100h-156v-1168h156v-100h-148q-143 -90 -143 -193q0 -41 27 -67.5t75 -26.5q67 0 123 66z" />
    <glyph glyph-name="iogonek" unicode="&#x12f;" horiz-adv-x="485" 
d="M244 1235q-41 0 -67.5 26t-26.5 66q0 41 26.5 67.5t67.5 26.5q40 0 66 -26.5t26 -67.5q0 -40 -26 -66t-66 -26zM332 -229l59 -60q-67 -98 -174 -98q-74 0 -124 44t-50 114q0 60 36 116.5t103 120.5v993h121v-1001h-35q-110 -123 -110 -213q0 -38 20.5 -58t52.5 -20
q50 0 101 62z" />
    <glyph glyph-name="Idotaccent" unicode="&#x130;" horiz-adv-x="663" 
d="M334 1548q-41 0 -67.5 27t-26.5 67q0 42 26.5 69.5t67.5 27.5q40 0 67 -28t27 -69q0 -40 -27 -67t-67 -27zM549 1268h-156v-1168h156v-100h-434v100h155v1168h-155v100h434v-100z" />
    <glyph glyph-name="dotlessi" unicode="&#x131;" horiz-adv-x="485" 
d="M182 1001h121v-1001h-121v1001z" />
    <glyph glyph-name="Jcircumflex" unicode="&#x134;" horiz-adv-x="692" 
d="M481 1819l189 -269h-111l-137 174l-137 -174h-111l188 269h119zM358 102v1266h125v-1290q0 -153 -83 -233.5t-222 -80.5q-117 0 -176 25v109q64 -29 156 -29q102 0 151 57t49 176z" />
    <glyph glyph-name="jcircumflex" unicode="&#x135;" horiz-adv-x="499" 
d="M307 1483l207 -305h-108l-148 206l-149 -206h-109l207 305h100zM197 -106v1107h122v-1134q0 -131 -63.5 -192.5t-175.5 -61.5q-82 0 -146 18v103q74 -21 123 -21q74 0 107 42.5t33 138.5z" />
    <glyph glyph-name="uni0136" unicode="&#x136;" horiz-adv-x="1157" 
d="M485 715l650 -715h-160l-588 653h-53v-653h-125v1368h125v-608h57l531 608h143zM608 -100q43 0 68.5 -31.5t25.5 -87.5q0 -61 -29 -134.5t-75 -129.5l-59 34q35 47 57.5 97t24.5 78h-13q-39 0 -63.5 23t-24.5 61t24 64t64 26z" />
    <glyph glyph-name="uni0137" unicode="&#x137;" horiz-adv-x="972" 
d="M451 551l503 -551h-157l-445 496h-49v-496h-121v1423h121v-829h53l392 407h141zM514 -100q42 0 67 -30.5t25 -86.5q0 -57 -29 -128t-73 -128l-58 35q34 44 56 92t24 76h-12q-37 0 -61.5 23t-24.5 61q0 35 24 60.5t62 25.5z" />
    <glyph glyph-name="Lacute" unicode="&#x139;" horiz-adv-x="1019" 
d="M508 1837l-199 -287h-110l168 287h141zM334 104h606v-104h-731v1368h125v-1264z" />
    <glyph glyph-name="lacute" unicode="&#x13a;" horiz-adv-x="514" 
d="M162 1606l168 286h141l-199 -286h-110zM453 90v-94q-40 -16 -111 -16q-73 0 -118.5 39.5t-45.5 125.5v1278h121v-1249q0 -94 78 -94q46 0 76 10z" />
    <glyph glyph-name="uni013B" unicode="&#x13b;" horiz-adv-x="1019" 
d="M334 104h606v-104h-731v1368h125v-1264zM571 -100q43 0 69 -31.5t26 -87.5q0 -61 -29.5 -134.5t-75.5 -129.5l-59 34q35 47 57.5 97t24.5 78h-13q-39 0 -63.5 23t-24.5 61t24 64t64 26z" />
    <glyph glyph-name="uni013C" unicode="&#x13c;" horiz-adv-x="514" 
d="M377 80q46 0 76 10v-94q-40 -16 -111 -16q-73 0 -118.5 39.5t-45.5 125.5v1278h121v-1249q0 -94 78 -94zM311 -100q42 0 67 -30.5t25 -86.5q0 -57 -29 -128t-73 -128l-57 35q34 44 56 92t24 76h-13q-37 0 -61.5 23t-24.5 61q0 35 24 60.5t62 25.5z" />
    <glyph glyph-name="Lcaron" unicode="&#x13d;" horiz-adv-x="1028" 
d="M334 104h606v-104h-731v1368h125v-1264zM819 1368l-74 -418h-88l39 418h123z" />
    <glyph glyph-name="lcaron" unicode="&#x13e;" horiz-adv-x="571" 
d="M453 90v-94q-40 -16 -111 -16q-73 0 -118.5 39.5t-45.5 125.5v1278h121v-1249q0 -94 78 -94q46 0 76 10zM457 1006l39 417h122l-71 -417h-90z" />
    <glyph glyph-name="Ldot" unicode="&#x13f;" horiz-adv-x="1028" 
d="M334 104h606v-104h-731v1368h125v-1264zM780 635q-39 0 -64.5 25.5t-25.5 64.5q0 40 25 66t65 26t65 -26t25 -66q0 -39 -25.5 -64.5t-64.5 -25.5z" />
    <glyph glyph-name="ldot" unicode="&#x140;" horiz-adv-x="655" 
d="M453 90v-94q-40 -16 -111 -16q-73 0 -118.5 39.5t-45.5 125.5v1278h121v-1249q0 -94 78 -94q46 0 76 10zM565 635q-38 0 -63 26t-25 64q0 40 25 66t63 26q40 0 65 -26t25 -66q0 -39 -25.5 -64.5t-64.5 -25.5z" />
    <glyph glyph-name="Lslash" unicode="&#x141;" horiz-adv-x="1099" 
d="M412 104h608v-104h-733v571l-195 -86v105l195 86v692h125v-641l323 150v-105l-323 -149v-519z" />
    <glyph glyph-name="lslash" unicode="&#x142;" horiz-adv-x="632" 
d="M526 782l-166 -75v-533q0 -94 78 -94q49 0 76 10v-94q-40 -16 -111 -16q-73 0 -118 39.5t-45 125.5v510l-146 -65v96l146 68v669h120v-620l166 76v-97z" />
    <glyph glyph-name="Nacute" unicode="&#x143;" horiz-adv-x="1359" 
d="M633 1550l168 287h141l-199 -287h-110zM209 0v1368h153l611 -1102q29 -50 55 -110h6q-4 86 -4 133v1079h121v-1368h-154l-612 1102q-51 104 -53 110h-8q6 -52 6 -133v-1079h-121z" />
    <glyph glyph-name="nacute" unicode="&#x144;" horiz-adv-x="1099" 
d="M827 1528l-231 -346h-107l199 346h139zM612 1022q148 0 232 -90t84 -246v-686h-121v657q0 128 -50 196.5t-167 68.5q-118 0 -202.5 -89.5t-84.5 -230.5v-602h-121v1001h119v-157h6q43 84 122.5 131t182.5 47z" />
    <glyph glyph-name="uni0145" unicode="&#x145;" horiz-adv-x="1359" 
d="M1030 1368h121v-1368h-154l-612 1102q-51 104 -53 110h-8q6 -52 6 -133v-1079h-121v1368h153l611 -1102q29 -50 55 -110h6q-4 86 -4 133v1079zM678 -100q43 0 68.5 -31.5t25.5 -87.5q0 -61 -29 -134.5t-75 -129.5l-60 34q35 47 57.5 97t24.5 78h-12q-39 0 -63.5 23
t-24.5 61t24 64t64 26z" />
    <glyph glyph-name="uni0146" unicode="&#x146;" horiz-adv-x="1099" 
d="M612 1022q148 0 232 -90t84 -246v-686h-121v657q0 128 -50 196.5t-167 68.5q-118 0 -202.5 -89.5t-84.5 -230.5v-602h-121v1001h119v-157h6q43 84 122.5 131t182.5 47zM553 -100q42 0 67 -30.5t25 -86.5q0 -57 -29 -128t-73 -128l-58 35q34 44 56 92t24 76h-12
q-37 0 -61.5 23t-24.5 61q0 35 24 60.5t62 25.5z" />
    <glyph glyph-name="Ncaron" unicode="&#x147;" horiz-adv-x="1359" 
d="M768 1542h-117l-256 277h123l193 -191l190 191h123zM1030 1368h121v-1368h-154l-612 1102q-51 104 -53 110h-8q6 -52 6 -133v-1079h-121v1368h153l611 -1102q29 -50 55 -110h6q-4 86 -4 133v1079z" />
    <glyph glyph-name="ncaron" unicode="&#x148;" horiz-adv-x="1099" 
d="M616 1180h-102l-248 305h115l186 -213l185 213h112zM612 1022q148 0 232 -90t84 -246v-686h-121v657q0 128 -50 196.5t-167 68.5q-118 0 -202.5 -89.5t-84.5 -230.5v-602h-121v1001h119v-157h6q43 84 122.5 131t182.5 47z" />
    <glyph glyph-name="Eng" unicode="&#x14a;" horiz-adv-x="1359" 
d="M1030 1368h121v-1370q0 -155 -83 -235t-222 -80q-105 0 -162 26v103q62 -27 145 -27q96 0 145.5 49.5t55.5 153.5l-641 1112q-49 90 -57 112h-6q4 -74 4 -133v-1079h-121v1368h151l615 -1065q37 -67 53 -113h6q-4 90 -4 134v1044z" />
    <glyph glyph-name="eng" unicode="&#x14b;" horiz-adv-x="1099" 
d="M612 1022q148 0 232 -90t84 -246v-819q0 -131 -63 -192.5t-175 -61.5q-82 0 -147 18v103q73 -21 125 -21q74 0 106.5 42.5t32.5 138.5v763q0 128 -50 196.5t-167 68.5q-118 0 -202.5 -89.5t-84.5 -230.5v-602h-121v1001h119v-157h6q43 84 122.5 131t182.5 47z" />
    <glyph glyph-name="Omacron" unicode="&#x14c;" horiz-adv-x="1394" 
d="M393 1620v96h611v-96h-611zM698 -25q-118 0 -219.5 44.5t-179.5 130t-123 222.5t-45 312t45 312t123 222.5t179.5 130t219.5 44.5t219 -44.5t178.5 -130t122 -222.5t44.5 -312t-44.5 -312t-122 -222.5t-178.5 -130t-219 -44.5zM698 82q92 0 170 36t138.5 107t94.5 188.5
t34 270.5t-34 270.5t-94.5 188.5t-138.5 107t-170 36q-94 0 -172 -35.5t-139 -107t-95 -189t-34 -270.5t34 -270.5t95 -189t139 -107t172 -35.5z" />
    <glyph glyph-name="omacron" unicode="&#x14d;" horiz-adv-x="1114" 
d="M266 1251v95h582v-95h-582zM557 -20q-197 0 -318.5 141t-121.5 381q0 239 121.5 379.5t318.5 140.5q198 0 319 -140.5t121 -379.5q0 -241 -120.5 -381.5t-319.5 -140.5zM557 80q145 0 230 111t85 311q0 197 -85.5 308.5t-229.5 111.5t-229.5 -111.5t-85.5 -308.5
q0 -200 85 -311t230 -111z" />
    <glyph glyph-name="Obreve" unicode="&#x14e;" horiz-adv-x="1394" 
d="M696 1538q-130 0 -210 71t-93 208h99q12 -68 43 -108.5t69.5 -54.5t91.5 -14q83 0 135.5 39t71.5 138h98q-13 -137 -93 -208t-212 -71zM698 -25q-118 0 -219.5 44.5t-179.5 130t-123 222.5t-45 312t45 312t123 222.5t179.5 130t219.5 44.5t219 -44.5t178.5 -130
t122 -222.5t44.5 -312t-44.5 -312t-122 -222.5t-178.5 -130t-219 -44.5zM698 82q92 0 170 36t138.5 107t94.5 188.5t34 270.5t-34 270.5t-94.5 188.5t-138.5 107t-170 36q-94 0 -172 -35.5t-139 -107t-95 -189t-34 -270.5t34 -270.5t95 -189t139 -107t172 -35.5z" />
    <glyph glyph-name="obreve" unicode="&#x14f;" horiz-adv-x="1114" 
d="M557 1176q-122 0 -199.5 76t-89.5 221h97q32 -195 192 -195q163 0 195 195h96q-13 -145 -91 -221t-200 -76zM557 -20q-197 0 -318.5 141t-121.5 381q0 239 121.5 379.5t318.5 140.5q198 0 319 -140.5t121 -379.5q0 -241 -120.5 -381.5t-319.5 -140.5zM557 80
q145 0 230 111t85 311q0 197 -85.5 308.5t-229.5 111.5t-229.5 -111.5t-85.5 -308.5q0 -200 85 -311t230 -111z" />
    <glyph glyph-name="Ohungarumlaut" unicode="&#x150;" horiz-adv-x="1394" 
d="M446 1550l170 269h138l-199 -269h-109zM793 1550l172 269h139l-203 -269h-108zM698 -25q-118 0 -219.5 44.5t-179.5 130t-123 222.5t-45 312t45 312t123 222.5t179.5 130t219.5 44.5t219 -44.5t178.5 -130t122 -222.5t44.5 -312t-44.5 -312t-122 -222.5t-178.5 -130
t-219 -44.5zM698 82q92 0 170 36t138.5 107t94.5 188.5t34 270.5t-34 270.5t-94.5 188.5t-138.5 107t-170 36q-94 0 -172 -35.5t-139 -107t-95 -189t-34 -270.5t34 -270.5t95 -189t139 -107t172 -35.5z" />
    <glyph glyph-name="ohungarumlaut" unicode="&#x151;" horiz-adv-x="1114" 
d="M322 1182l192 303h135l-221 -303h-106zM647 1182l193 303h137l-223 -303h-107zM557 -20q-197 0 -318.5 141t-121.5 381q0 239 121.5 379.5t318.5 140.5q198 0 319 -140.5t121 -379.5q0 -241 -120.5 -381.5t-319.5 -140.5zM557 80q145 0 230 111t85 311q0 197 -85.5 308.5
t-229.5 111.5t-229.5 -111.5t-85.5 -308.5q0 -200 85 -311t230 -111z" />
    <glyph glyph-name="OE" unicode="&#x152;" horiz-adv-x="1978" 
d="M1217 104h630v-104h-755v242h-7q-64 -135 -170.5 -201t-242.5 -66q-113 0 -209 43.5t-170.5 129t-117 223t-42.5 313.5t42.5 313.5t117 223t170.5 129t209 43.5q136 0 243.5 -66.5t171.5 -200.5h5v242h741v-104h-616v-506h581v-105h-581v-549zM680 82q89 0 163 36
t131.5 107.5t89.5 189t32 269.5t-32 269.5t-89.5 189t-131.5 107.5t-163 36q-90 0 -165.5 -35.5t-133 -107t-89.5 -189t-32 -270.5t32 -270.5t89.5 -189t133 -107t165.5 -35.5z" />
    <glyph glyph-name="oe" unicode="&#x153;" horiz-adv-x="1771" 
d="M1661 545q0 -41 -2 -66h-684q4 -193 84.5 -296t226.5 -103q167 0 279 135l65 -72q-138 -163 -350 -163q-128 0 -222 63t-140 180h-7q-105 -243 -364 -243q-196 0 -312 140t-116 382q0 240 116 380t312 140q130 0 223 -64.5t139 -183.5h9q43 117 135.5 182.5t214.5 65.5
q182 0 287.5 -131.5t105.5 -345.5zM1268 924q-124 0 -201 -92t-90 -261h563q-5 169 -74.5 261t-197.5 92zM547 80q145 0 225 110t80 312q0 201 -80 310.5t-225 109.5q-143 0 -223 -110t-80 -310q0 -202 80 -312t223 -110z" />
    <glyph glyph-name="Racute" unicode="&#x154;" horiz-adv-x="1179" 
d="M801 1837l-199 -287h-110l167 287h142zM946 0l-379 598h-233v-598h-125v1368h395q88 0 164 -23t135.5 -69t94 -120.5t34.5 -170.5q0 -163 -92 -259.5t-240 -119.5l402 -606h-156zM334 1264v-564h264q145 0 226 69t81 214q0 144 -81.5 212.5t-225.5 68.5h-264z" />
    <glyph glyph-name="racute" unicode="&#x155;" horiz-adv-x="710" 
d="M657 1528l-231 -346h-107l199 346h139zM307 829q39 89 110 141t161 52q40 0 71 -8v-111q-29 6 -86 6q-105 0 -182.5 -96.5t-77.5 -261.5v-551h-121v1001h117v-172h8z" />
    <glyph glyph-name="uni0156" unicode="&#x156;" horiz-adv-x="1179" 
d="M700 606l402 -606h-156l-379 598h-233v-598h-125v1368h395q88 0 164 -23t135.5 -69t94 -120.5t34.5 -170.5q0 -163 -92 -259.5t-240 -119.5zM334 1264v-564h264q145 0 226 69t81 214q0 144 -81.5 212.5t-225.5 68.5h-264zM600 -100q43 0 68.5 -31.5t25.5 -87.5
q0 -61 -29 -134.5t-75 -129.5l-60 34q35 47 57.5 97t24.5 78h-12q-39 0 -63.5 23t-24.5 61t24 64t64 26z" />
    <glyph glyph-name="uni0157" unicode="&#x157;" horiz-adv-x="710" 
d="M578 1022q40 0 71 -8v-111q-29 6 -86 6q-105 0 -182.5 -96.5t-77.5 -261.5v-551h-121v1001h117v-172h8q39 89 110 141t161 52zM246 -100q42 0 67 -30.5t25 -86.5q0 -57 -29 -128t-73 -128l-58 35q34 44 56 92t24 76h-12q-37 0 -61.5 23t-24.5 61q0 35 24 60.5t62 25.5z
" />
    <glyph glyph-name="Rcaron" unicode="&#x158;" horiz-adv-x="1179" 
d="M627 1542h-117l-256 277h123l192 -191l191 191h123zM946 0l-379 598h-233v-598h-125v1368h395q88 0 164 -23t135.5 -69t94 -120.5t34.5 -170.5q0 -163 -92 -259.5t-240 -119.5l402 -606h-156zM334 1264v-564h264q145 0 226 69t81 214q0 144 -81.5 212.5t-225.5 68.5h-264
z" />
    <glyph glyph-name="rcaron" unicode="&#x159;" horiz-adv-x="710" 
d="M446 1180h-102l-248 305h115l186 -213l185 213h112zM307 829q39 89 110 141t161 52q40 0 71 -8v-111q-29 6 -86 6q-105 0 -182.5 -96.5t-77.5 -261.5v-551h-121v1001h117v-172h8z" />
    <glyph glyph-name="Sacute" unicode="&#x15a;" horiz-adv-x="1122" 
d="M487 1550l168 287h142l-199 -287h-111zM164 246q73 -82 179 -124t204 -42q159 0 250.5 67t91.5 185q0 59 -20.5 104.5t-62.5 79t-82 54t-103 46.5l-181 76q-65 27 -113.5 57.5t-91.5 73t-65.5 100.5t-22.5 128q0 142 112.5 242t293.5 100q249 0 418 -166l-66 -80
q-141 141 -344 141q-137 0 -213 -66t-76 -165q0 -55 20 -99t58 -75t71.5 -50t82.5 -40l190 -80q51 -21 90.5 -41.5t85 -54t75 -70.5t49.5 -90.5t20 -114.5q0 -170 -130.5 -268.5t-330.5 -98.5q-132 0 -249.5 48.5t-205.5 142.5z" />
    <glyph glyph-name="sacute" unicode="&#x15b;" horiz-adv-x="929" 
d="M387 1182l199 346h139l-231 -346h-107zM162 223q125 -143 303 -143q113 0 175 43.5t62 124.5q0 33 -11 60t-28.5 46.5t-46.5 37t-55.5 29t-66.5 25.5l-129 50q-50 20 -86 39.5t-73 51t-56 75.5t-19 100q0 113 88 186.5t234 73.5q218 0 350 -158l-72 -71
q-116 129 -274 129q-99 0 -153 -45t-54 -109t43.5 -104t130.5 -72l131 -51q42 -16 72.5 -29.5t70 -39t64 -53.5t42 -70.5t17.5 -92.5q0 -125 -97 -200.5t-253 -75.5q-120 0 -218 45t-161 129z" />
    <glyph glyph-name="Scircumflex" unicode="&#x15c;" horiz-adv-x="1122" 
d="M565 1735l-192 -193h-123l256 277h117l256 -277h-123zM694 713q51 -21 90.5 -41.5t85 -54t75 -70.5t49.5 -90.5t20 -114.5q0 -170 -130.5 -268.5t-330.5 -98.5q-132 0 -249.5 48.5t-205.5 142.5l66 80q73 -82 179 -124t204 -42q159 0 250.5 67t91.5 185q0 59 -20.5 104.5
t-62.5 79t-82 54t-103 46.5l-181 76q-65 27 -113.5 57.5t-91.5 73t-65.5 100.5t-22.5 128q0 142 112.5 242t293.5 100q249 0 418 -166l-66 -80q-141 141 -344 141q-137 0 -213 -66t-76 -165q0 -55 20 -99t58 -75t71.5 -50t82.5 -40z" />
    <glyph glyph-name="scircumflex" unicode="&#x15d;" horiz-adv-x="929" 
d="M762 1180h-113l-186 213l-184 -213h-115l248 305h102zM162 223q125 -143 303 -143q113 0 175 43.5t62 124.5q0 33 -11 60t-28.5 46.5t-46.5 37t-55.5 29t-66.5 25.5l-129 50q-50 20 -86 39.5t-73 51t-56 75.5t-19 100q0 113 88 186.5t234 73.5q218 0 350 -158l-72 -71
q-116 129 -274 129q-99 0 -153 -45t-54 -109t43.5 -104t130.5 -72l131 -51q42 -16 72.5 -29.5t70 -39t64 -53.5t42 -70.5t17.5 -92.5q0 -125 -97 -200.5t-253 -75.5q-120 0 -218 45t-161 129z" />
    <glyph glyph-name="Scedilla" unicode="&#x15e;" horiz-adv-x="1122" 
d="M1014 342q0 -151 -104 -246t-271 -114v-11q123 -84 123 -182q0 -81 -56.5 -128.5t-146.5 -47.5q-129 0 -199 102l66 56q56 -66 123 -66q49 0 76.5 27t27.5 69q0 48 -26.5 88.5t-81.5 85.5q-129 2 -244.5 50.5t-202.5 140.5l66 80q73 -82 179 -124t204 -42q159 0 250.5 67
t91.5 185q0 59 -20.5 104.5t-62.5 79t-82 54t-103 46.5l-181 76q-65 27 -113.5 57.5t-91.5 73t-65.5 100.5t-22.5 128q0 142 112.5 242t293.5 100q249 0 418 -166l-66 -80q-141 141 -344 141q-137 0 -213 -66t-76 -165q0 -55 20 -99t58 -75t71.5 -50t82.5 -40l190 -80
q51 -21 90.5 -41.5t85 -54t75 -70.5t49.5 -90.5t20 -114.5z" />
    <glyph glyph-name="scedilla" unicode="&#x15f;" horiz-adv-x="929" 
d="M821 256q0 -111 -77.5 -184t-206.5 -88v-13q122 -82 122 -186q0 -79 -54 -125.5t-144 -46.5q-122 0 -193 100l62 56q58 -68 123 -68q46 0 74 27.5t28 68.5q0 94 -113 183q-110 6 -201 51t-149 123l70 69q125 -143 303 -143q113 0 175 43.5t62 124.5q0 33 -11 60
t-28.5 46.5t-46.5 37t-55.5 29t-66.5 25.5l-129 50q-50 20 -86 39.5t-73 51t-56 75.5t-19 100q0 113 88 186.5t234 73.5q218 0 350 -158l-72 -71q-116 129 -274 129q-99 0 -153 -45t-54 -109t43.5 -104t130.5 -72l131 -51q42 -16 72.5 -29.5t70 -39t64 -53.5t42 -70.5
t17.5 -92.5z" />
    <glyph glyph-name="Scaron" unicode="&#x160;" horiz-adv-x="1122" 
d="M623 1542h-117l-256 277h123l192 -191l191 191h123zM694 713q51 -21 90.5 -41.5t85 -54t75 -70.5t49.5 -90.5t20 -114.5q0 -170 -130.5 -268.5t-330.5 -98.5q-132 0 -249.5 48.5t-205.5 142.5l66 80q73 -82 179 -124t204 -42q159 0 250.5 67t91.5 185q0 59 -20.5 104.5
t-62.5 79t-82 54t-103 46.5l-181 76q-65 27 -113.5 57.5t-91.5 73t-65.5 100.5t-22.5 128q0 142 112.5 242t293.5 100q249 0 418 -166l-66 -80q-141 141 -344 141q-137 0 -213 -66t-76 -165q0 -55 20 -99t58 -75t71.5 -50t82.5 -40z" />
    <glyph glyph-name="scaron" unicode="&#x161;" horiz-adv-x="929" 
d="M514 1180h-102l-248 305h115l186 -213l184 213h113zM555 541q42 -16 72.5 -29.5t70 -39t64 -53.5t42 -70.5t17.5 -92.5q0 -125 -97 -200.5t-253 -75.5q-120 0 -218 45t-161 129l70 69q125 -143 303 -143q113 0 175 43.5t62 124.5q0 33 -11 60t-28.5 46.5t-46.5 37
t-55.5 29t-66.5 25.5l-129 50q-50 20 -86 39.5t-73 51t-56 75.5t-19 100q0 113 88 186.5t234 73.5q218 0 350 -158l-72 -71q-116 129 -274 129q-99 0 -153 -45t-54 -109t43.5 -104t130.5 -72z" />
    <glyph glyph-name="uni0162" unicode="&#x162;" horiz-adv-x="1081" 
d="M602 0h-10v-6q135 -93 135 -209q0 -79 -53.5 -125.5t-143.5 -46.5q-125 0 -192 100l61 56q56 -66 123 -66q46 0 73.5 27t27.5 67q0 120 -121 203h-25v1264h-401v104h928v-104h-402v-1264z" />
    <glyph glyph-name="uni0163" unicode="&#x163;" horiz-adv-x="694" 
d="M629 16q-64 -29 -131 -34v-11q123 -83 123 -186q0 -79 -54.5 -125.5t-144.5 -46.5q-122 0 -193 100l62 56q58 -68 123 -68q46 0 74 27.5t28 68.5q0 52 -29 96.5t-88 90.5q-71 10 -113 63t-42 154v704h-185v96h185v209l123 52v-261h243v-96h-243v-674q0 -83 25.5 -117
t82.5 -34q70 0 154 33v-97z" />
    <glyph glyph-name="Tcaron" unicode="&#x164;" horiz-adv-x="1081" 
d="M600 1542h-117l-256 277h123l193 -191l190 191h123zM1004 1368v-104h-402v-1264h-125v1264h-401v104h928z" />
    <glyph glyph-name="tcaron" unicode="&#x165;" horiz-adv-x="694" 
d="M668 1575l-70 -395h-90l37 395h123zM367 231q0 -83 25.5 -117t82.5 -34q70 0 154 33v-97q-70 -36 -187 -36q-89 0 -143.5 52.5t-54.5 168.5v704h-185v96h185v209l123 52v-261h243v-96h-243v-674z" />
    <glyph glyph-name="Tbar" unicode="&#x166;" horiz-adv-x="1116" 
d="M1022 1264h-401v-514h268v-97h-268v-653h-125v653h-271v97h271v514h-402v104h928v-104z" />
    <glyph glyph-name="tbar" unicode="&#x167;" horiz-adv-x="710" 
d="M485 80q73 0 154 33v-97q-70 -36 -186 -36q-89 0 -144 52.5t-55 168.5v303h-158v90h158v311h-184v96h184v209l123 52v-261h244v-96h-244v-311h217v-90h-217v-273q0 -83 25.5 -117t82.5 -34z" />
    <glyph glyph-name="Utilde" unicode="&#x168;" horiz-adv-x="1302" 
d="M780 1556q-35 0 -67.5 14.5t-49 28t-40.5 37.5q-63 60 -99 60t-58.5 -28t-29.5 -103h-90q4 71 22.5 120.5t46.5 73.5t55 33.5t58 9.5q50 0 82 -18t80 -62q40 -36 58 -47.5t43 -11.5q34 0 55 29t28 102h91q-4 -71 -23 -120.5t-47 -73.5t-56 -34t-59 -10zM649 -25
q-210 0 -332 113t-122 334v946h124v-922q0 -191 83.5 -277.5t252.5 -86.5q170 0 252 87t82 277v922h119v-946q0 -220 -124 -333.5t-335 -113.5z" />
    <glyph glyph-name="utilde" unicode="&#x169;" horiz-adv-x="1099" 
d="M420 1348q-33 0 -55 -32.5t-27 -121.5h-88q3 78 21 133.5t46 81.5t54 36.5t55 10.5q37 0 69 -16.5t48 -34t39 -47.5q52 -68 88 -68q32 0 52 31t30 123h88q-3 -78 -21 -133.5t-46 -81.5t-54 -36.5t-55 -10.5q-38 0 -71 18t-48 34t-41 50q-23 32 -41.5 48t-42.5 16z
M797 1001h121v-1001h-119v158h-6q-43 -84 -123 -131t-183 -47q-148 0 -231.5 89.5t-83.5 245.5v686h121v-657q0 -128 50 -196t167 -68q118 0 202.5 89t84.5 230v602z" />
    <glyph glyph-name="Umacron" unicode="&#x16a;" horiz-adv-x="1302" 
d="M352 1620v96h611v-96h-611zM649 -25q-210 0 -332 113t-122 334v946h124v-922q0 -191 83.5 -277.5t252.5 -86.5q170 0 252 87t82 277v922h119v-946q0 -220 -124 -333.5t-335 -113.5z" />
    <glyph glyph-name="umacron" unicode="&#x16b;" horiz-adv-x="1099" 
d="M838 1346v-95h-582v95h582zM797 1001h121v-1001h-119v158h-6q-43 -84 -123 -131t-183 -47q-148 0 -231.5 89.5t-83.5 245.5v686h121v-657q0 -128 50 -196t167 -68q118 0 202.5 89t84.5 230v602z" />
    <glyph glyph-name="Ubreve" unicode="&#x16c;" horiz-adv-x="1302" 
d="M655 1538q-130 0 -210 71t-93 208h99q12 -68 43 -108.5t69.5 -54.5t91.5 -14q83 0 135.5 39t71.5 138h99q-13 -137 -93.5 -208t-212.5 -71zM649 -25q-210 0 -332 113t-122 334v946h124v-922q0 -191 83.5 -277.5t252.5 -86.5q170 0 252 87t82 277v922h119v-946
q0 -220 -124 -333.5t-335 -113.5z" />
    <glyph glyph-name="ubreve" unicode="&#x16d;" horiz-adv-x="1099" 
d="M547 1176q-122 0 -199.5 76t-89.5 221h96q32 -195 193 -195q162 0 194 195h97q-13 -145 -91 -221t-200 -76zM797 1001h121v-1001h-119v158h-6q-43 -84 -123 -131t-183 -47q-148 0 -231.5 89.5t-83.5 245.5v686h121v-657q0 -128 50 -196t167 -68q118 0 202.5 89t84.5 230
v602z" />
    <glyph glyph-name="Uring" unicode="&#x16e;" horiz-adv-x="1302" 
d="M653 1481q-97 0 -160 57t-63 145q0 87 63 146t160 59q98 0 162 -59t64 -146t-64.5 -144.5t-161.5 -57.5zM653 1559q56 0 92.5 34.5t36.5 89.5t-35.5 90t-93.5 35q-57 0 -92 -35.5t-35 -89.5t36.5 -89t90.5 -35zM649 -25q-210 0 -332 113t-122 334v946h124v-922
q0 -191 83.5 -277.5t252.5 -86.5q170 0 252 87t82 277v922h119v-946q0 -220 -124 -333.5t-335 -113.5z" />
    <glyph glyph-name="uring" unicode="&#x16f;" horiz-adv-x="1099" 
d="M545 1149q-96 0 -159.5 59.5t-63.5 147.5q0 89 63 149t160 60t161 -60t64 -149q0 -88 -64.5 -147.5t-160.5 -59.5zM545 1487q-57 0 -92 -38.5t-35 -92.5q0 -53 37 -91t90 -38q55 0 92 37.5t37 91.5q0 55 -36 93t-93 38zM797 1001h121v-1001h-119v158h-6
q-43 -84 -123 -131t-183 -47q-148 0 -231.5 89.5t-83.5 245.5v686h121v-657q0 -128 50 -196t167 -68q118 0 202.5 89t84.5 230v602z" />
    <glyph glyph-name="Uhungarumlaut" unicode="&#x170;" horiz-adv-x="1302" 
d="M406 1550l169 269h138l-199 -269h-108zM752 1550l172 269h139l-203 -269h-108zM649 -25q-210 0 -332 113t-122 334v946h124v-922q0 -191 83.5 -277.5t252.5 -86.5q170 0 252 87t82 277v922h119v-946q0 -220 -124 -333.5t-335 -113.5z" />
    <glyph glyph-name="uhungarumlaut" unicode="&#x171;" horiz-adv-x="1099" 
d="M639 1485l-221 -303h-107l193 303h135zM743 1182h-106l192 303h138zM797 399v602h121v-1001h-119v158h-6q-43 -84 -123 -131t-183 -47q-148 0 -231.5 89.5t-83.5 245.5v686h121v-657q0 -128 50 -196t167 -68q118 0 202.5 89t84.5 230z" />
    <glyph glyph-name="Uogonek" unicode="&#x172;" horiz-adv-x="1302" 
d="M989 1368h119v-946q0 -162 -68.5 -267t-191.5 -149q-79 -47 -116.5 -94.5t-37.5 -104.5q0 -41 27.5 -67.5t75.5 -26.5q67 0 123 66l67 -62q-73 -104 -205 -104q-94 0 -150.5 47.5t-56.5 128.5q0 101 111 178v8h-37q-210 0 -332 113t-122 334v946h124v-922
q0 -191 83.5 -277.5t252.5 -86.5q170 0 252 87t82 277v922z" />
    <glyph glyph-name="uogonek" unicode="&#x173;" horiz-adv-x="1099" 
d="M905 -229l62 -60q-36 -51 -77.5 -74.5t-98.5 -23.5q-76 0 -126.5 43.5t-50.5 112.5q0 71 48 132t135 124l2 2v131h-6q-43 -84 -123 -131t-183 -47q-148 0 -231.5 89.5t-83.5 245.5v686h121v-657q0 -128 50 -196t167 -68q118 0 202.5 89t84.5 230v602h121v-1001h-46
q-141 -111 -141 -213q0 -39 21 -58.5t55 -19.5q49 0 98 62z" />
    <glyph glyph-name="Wcircumflex" unicode="&#x174;" horiz-adv-x="1845" 
d="M924 1735l-193 -193h-123l256 277h117l256 -277h-123zM1636 1368h131l-370 -1368h-137l-312 1114q-11 40 -22 109h-6q-6 -42 -25 -109l-313 -1114h-133l-371 1368h131l287 -1116q16 -68 20 -107h6q6 34 25 105l313 1118h121l324 -1118q15 -60 20 -100h8q3 17 23 100z" />
    <glyph glyph-name="wcircumflex" unicode="&#x175;" horiz-adv-x="1452" 
d="M1024 1180h-113l-186 213l-184 -213h-115l248 305h102zM356 0l-276 1001h127l194 -749q18 -84 23 -117h8q5 34 29 123l205 743h120l211 -751q18 -63 25 -113h8q4 19 8 38.5t9 41.5t8 35l190 749h129l-284 -1001h-129l-203 731q-10 37 -27 135h-6q-7 -57 -29 -135
l-211 -731h-129z" />
    <glyph glyph-name="Ycircumflex" unicode="&#x176;" horiz-adv-x="1175" 
d="M592 1735l-193 -193h-123l256 277h117l256 -277h-123zM1128 1368l-477 -711v-657h-125v653l-479 715h150l352 -543q32 -45 41 -67h6q7 18 37 67l354 543h141z" />
    <glyph glyph-name="ycircumflex" unicode="&#x177;" horiz-adv-x="983" 
d="M791 1180h-113l-186 213l-185 -213h-114l247 305h103zM207 -387q-61 0 -117 16v101q76 -17 117 -17q54 0 92.5 37.5t71.5 126.5l65 176l-370 948h133l264 -718q23 -63 33 -111h6q9 43 35 111l258 718h125l-441 -1167q-49 -127 -114 -174t-158 -47z" />
    <glyph glyph-name="Ydieresis" unicode="&#x178;" horiz-adv-x="1175" 
d="M383 1548q-40 0 -66 27t-26 67t26.5 67.5t65.5 27.5q41 0 67.5 -27.5t26.5 -67.5t-26.5 -67t-67.5 -27zM797 1548q-41 0 -66.5 27t-25.5 67t25.5 67.5t66.5 27.5q39 0 65.5 -27.5t26.5 -67.5t-26 -67t-66 -27zM1128 1368l-477 -711v-657h-125v653l-479 715h150l352 -543
q32 -45 41 -67h6q7 18 37 67l354 543h141z" />
    <glyph glyph-name="Zacute" unicode="&#x179;" horiz-adv-x="1050" 
d="M766 1837l-199 -287h-110l168 287h141zM223 102h731v-102h-864v111l729 1155h-702v102h835v-111z" />
    <glyph glyph-name="zacute" unicode="&#x17a;" horiz-adv-x="886" 
d="M707 1528l-232 -346h-106l198 346h140zM221 94h570v-94h-701v98l569 809h-544v94h673v-98z" />
    <glyph glyph-name="Zdotaccent" unicode="&#x17b;" horiz-adv-x="1050" 
d="M535 1548q-41 0 -68 27t-27 67q0 41 27 69t68 28q40 0 67 -28t27 -69q0 -40 -27 -67t-67 -27zM223 102h731v-102h-864v111l729 1155h-702v102h835v-111z" />
    <glyph glyph-name="zdotaccent" unicode="&#x17c;" horiz-adv-x="886" 
d="M446 1237q-41 0 -67.5 26t-26.5 66q0 41 26.5 67.5t67.5 26.5q40 0 66.5 -26.5t26.5 -67.5q0 -40 -26.5 -66t-66.5 -26zM221 94h570v-94h-701v98l569 809h-544v94h673v-98z" />
    <glyph glyph-name="Zcaron" unicode="&#x17d;" horiz-adv-x="1050" 
d="M592 1542h-117l-256 277h123l193 -191l190 191h123zM223 102h731v-102h-864v111l729 1155h-702v102h835v-111z" />
    <glyph glyph-name="zcaron" unicode="&#x17e;" horiz-adv-x="886" 
d="M496 1180h-103l-248 305h115l186 -213l185 213h112zM221 94h570v-94h-701v98l569 809h-544v94h673v-98z" />
    <glyph glyph-name="uni018F" unicode="&#x18f;" horiz-adv-x="1347" 
d="M647 1393q265 0 417.5 -189t152.5 -518q0 -335 -148 -523t-405 -188q-254 0 -399.5 177t-145.5 473q0 48 2 77h971q-3 280 -124 432t-327 152q-221 0 -383 -194l-86 65q187 236 475 236zM664 82q180 0 293 132t130 384h-847q5 -243 116.5 -379.5t307.5 -136.5z" />
    <glyph glyph-name="florin" unicode="&#x192;" 
d="M682 1241q-26 -32 -42.5 -98t-29.5 -201l-20 -201h272v-96h-280l-43 -432q-17 -168 -39.5 -250.5t-61.5 -124.5q-68 -76 -196 -76q-68 0 -144 21l21 94q54 -14 108 -14q76 0 119 55q24 33 41 100t31 213l41 414h-248v96h256l22 226q15 151 36 227t61 121q69 78 198 78
q66 0 142 -21l-19 -96q-59 16 -110 16q-74 0 -115 -51z" />
    <glyph glyph-name="uni01C4" unicode="&#x1c4;" horiz-adv-x="2365" 
d="M1907 1542h-117l-256 277h123l192 -191l191 191h123zM578 1368q136 0 247.5 -38.5t198.5 -118t135.5 -214t48.5 -313.5t-48.5 -313.5t-135.5 -214t-198.5 -118t-247.5 -38.5h-369v1368h369zM1538 102h731v-102h-864v111l729 1155h-702v102h835v-111zM565 104
q117 0 209.5 32.5t162.5 100t107 181t37 266.5t-37 266.5t-107 181t-162.5 100t-209.5 32.5h-231v-1160h231z" />
    <glyph glyph-name="uni01C5" unicode="&#x1c5;" horiz-adv-x="2226" 
d="M1835 1180h-100l-250 305h114l187 -213l184 213h113zM578 1368q136 0 247.5 -38.5t198.5 -118t135.5 -214t48.5 -313.5t-48.5 -313.5t-135.5 -214t-198.5 -118t-247.5 -38.5h-369v1368h369zM565 104q117 0 209.5 32.5t162.5 100t107 181t37 266.5t-37 266.5t-107 181
t-162.5 100t-209.5 32.5h-231v-1160h231zM1561 94h569v-94h-700v98l569 809h-545v94h674v-98z" />
    <glyph glyph-name="uni01C6" unicode="&#x1c6;" horiz-adv-x="2035" 
d="M1642 1180h-100l-250 305h115l186 -213l185 213h112zM844 829v594h123v-1423h-119v180h-6q-90 -200 -310 -200q-178 0 -295.5 139.5t-117.5 380.5q0 243 117.5 382.5t295.5 139.5q215 0 306 -193h6zM1368 94h569v-94h-700v98l569 809h-544v94h673v-98zM545 80
q137 0 219 112t82 310q0 196 -82 308t-219 112t-219 -111.5t-82 -310.5t82 -309.5t219 -110.5z" />
    <glyph glyph-name="uni01C7" unicode="&#x1c7;" horiz-adv-x="1710" 
d="M334 1368v-1264h606v-104h-731v1368h125zM1376 1368h125v-1290q0 -153 -83 -233.5t-222 -80.5q-117 0 -176 25v109q64 -29 156 -29q102 0 151 57t49 176v1266z" />
    <glyph glyph-name="uni01C8" unicode="&#x1c8;" horiz-adv-x="1519" 
d="M1280 1421q40 0 66 -26.5t26 -67.5q0 -40 -26 -66t-66 -26q-41 0 -67.5 26t-26.5 66q0 41 26.5 67.5t67.5 26.5zM334 1368v-1264h606v-104h-731v1368h125zM1217 -106v1107h122v-1134q0 -131 -63.5 -192.5t-175.5 -61.5q-82 0 -146 18v103q74 -21 123 -21q74 0 107 42.5
t33 138.5z" />
    <glyph glyph-name="uni01C9" unicode="&#x1c9;" horiz-adv-x="1013" 
d="M453 90v-94q-40 -16 -111 -16q-73 0 -118.5 39.5t-45.5 125.5v1278h121v-1249q0 -94 78 -94q46 0 76 10zM774 1235q-41 0 -67.5 26t-26.5 66q0 41 26.5 67.5t67.5 26.5q40 0 66 -26.5t26 -67.5q0 -40 -26 -66t-66 -26zM594 -387q-80 0 -145 18v103q73 -21 122 -21
q74 0 107 42.5t33 138.5v1107h123v-1134q0 -131 -64 -192.5t-176 -61.5z" />
    <glyph glyph-name="uni01CA" unicode="&#x1ca;" horiz-adv-x="2035" 
d="M209 0v1368h153l611 -1102q29 -50 55 -110h6q-4 86 -4 133v1079h121v-1368h-154l-612 1102q-51 104 -53 110h-8q6 -52 6 -133v-1079h-121zM1524 -236q-117 0 -176 25v109q64 -29 155 -29q102 0 151.5 57t49.5 176v1266h125v-1290q0 -153 -83 -233.5t-222 -80.5z" />
    <glyph glyph-name="uni01CB" unicode="&#x1cb;" horiz-adv-x="1857" 
d="M1618 1235q-41 0 -67.5 26t-26.5 66q0 41 26.5 67.5t67.5 26.5q40 0 66 -26.5t26 -67.5q0 -40 -26 -66t-66 -26zM209 0v1368h153l611 -1102q29 -50 55 -110h6q-4 86 -4 133v1079h121v-1368h-154l-612 1102q-51 104 -53 110h-8q6 -52 6 -133v-1079h-121zM1438 -387
q-82 0 -146 18v103q74 -21 123 -21q74 0 106.5 42.5t32.5 138.5v1107h123v-1134q0 -131 -63.5 -192.5t-175.5 -61.5z" />
    <glyph glyph-name="uni01CC" unicode="&#x1cc;" horiz-adv-x="1599" 
d="M1360 1421q40 0 66 -26.5t26 -67.5q0 -40 -26 -66t-66 -26q-41 0 -67.5 26t-26.5 66q0 41 26.5 67.5t67.5 26.5zM612 1022q148 0 232 -90t84 -246v-686h-121v657q0 128 -50 196.5t-167 68.5q-118 0 -202.5 -89.5t-84.5 -230.5v-602h-121v1001h119v-157h6q43 84 122.5 131
t182.5 47zM1296 -106v1107h123v-1134q0 -131 -63.5 -192.5t-175.5 -61.5q-82 0 -146 18v103q74 -21 123 -21q74 0 106.5 42.5t32.5 138.5z" />
    <glyph glyph-name="uni01CD" unicode="&#x1cd;" horiz-adv-x="1210" 
d="M664 1542h-117l-256 277h123l192 -191l191 191h123zM1012 0l-125 381h-574l-127 -381h-123l469 1368h146l469 -1368h-135zM348 483h504l-209 635q-27 84 -37 133h-6q-8 -38 -35 -121z" />
    <glyph glyph-name="uni01CE" unicode="&#x1ce;" horiz-adv-x="1015" 
d="M553 1180h-102l-248 305h114l187 -213l184 213h113zM842 233q0 -96 20 -233h-127q-11 75 -14 168h-6q-41 -85 -125 -136.5t-191 -51.5q-129 0 -211 71.5t-82 196.5q0 128 86.5 208.5t225.5 114.5q153 36 303 54v63q0 234 -232 234q-91 0 -147.5 -42.5t-67.5 -115.5h-118
q11 112 100 185t233 73q162 0 257.5 -89t95.5 -255v-445zM418 80q126 0 214.5 96t88.5 254v109q-104 -12 -275 -56q-113 -30 -164 -85t-51 -142q0 -83 51.5 -129.5t135.5 -46.5z" />
    <glyph glyph-name="uni01CF" unicode="&#x1cf;" horiz-adv-x="663" 
d="M393 1550h-119l-188 269h111l137 -177l137 177h111zM549 1368v-100h-156v-1168h156v-100h-434v100h155v1168h-155v100h434z" />
    <glyph glyph-name="uni01D0" unicode="&#x1d0;" horiz-adv-x="485" 
d="M293 1180h-100l-207 305h108l150 -207l147 207h109zM182 0v1001h121v-1001h-121z" />
    <glyph glyph-name="uni01D1" unicode="&#x1d1;" horiz-adv-x="1394" 
d="M756 1542h-117l-256 277h123l192 -191l191 191h123zM698 1393q118 0 219 -44.5t178.5 -130t122 -222.5t44.5 -312t-44.5 -312t-122 -222.5t-178.5 -130t-219 -44.5t-219.5 44.5t-179.5 130t-123 222.5t-45 312t45 312t123 222.5t179.5 130t219.5 44.5zM698 82
q92 0 170 36t138.5 107t94.5 188.5t34 270.5t-34 270.5t-94.5 188.5t-138.5 107t-170 36q-94 0 -172 -35.5t-139 -107t-95 -189t-34 -270.5t34 -270.5t95 -189t139 -107t172 -35.5z" />
    <glyph glyph-name="uni01D2" unicode="&#x1d2;" horiz-adv-x="1114" 
d="M608 1180h-102l-248 305h115l186 -213l184 213h113zM557 1022q198 0 319 -140.5t121 -379.5q0 -241 -120.5 -381.5t-319.5 -140.5q-197 0 -318.5 141t-121.5 381q0 239 121.5 379.5t318.5 140.5zM557 80q145 0 230 111t85 311q0 197 -85.5 308.5t-229.5 111.5
t-229.5 -111.5t-85.5 -308.5q0 -200 85 -311t230 -111z" />
    <glyph glyph-name="uni01D3" unicode="&#x1d3;" horiz-adv-x="1302" 
d="M715 1542h-117l-256 277h123l192 -191l191 191h123zM989 1368h119v-946q0 -220 -124 -333.5t-335 -113.5q-210 0 -332 113t-122 334v946h124v-922q0 -191 83.5 -277.5t252.5 -86.5q170 0 252 87t82 277v922z" />
    <glyph glyph-name="uni01D4" unicode="&#x1d4;" horiz-adv-x="1099" 
d="M598 1180h-102l-248 305h114l187 -213l184 213h113zM797 1001h121v-1001h-119v158h-6q-43 -84 -123 -131t-183 -47q-148 0 -231.5 89.5t-83.5 245.5v686h121v-657q0 -128 50 -196t167 -68q118 0 202.5 89t84.5 230v602z" />
    <glyph glyph-name="uni01D5" unicode="&#x1d5;" horiz-adv-x="1302" 
d="M963 1847h-611v92h611v-92zM451 1540q-40 0 -66.5 27t-26.5 67q0 38 27 65t66 27q41 0 66.5 -26.5t25.5 -65.5q0 -40 -25.5 -67t-66.5 -27zM864 1540q-41 0 -66.5 27t-25.5 67q0 39 25.5 65.5t66.5 26.5q39 0 65.5 -26.5t26.5 -65.5q0 -40 -26 -67t-66 -27zM649 -25
q-210 0 -332 113t-122 334v946h124v-922q0 -191 83.5 -277.5t252.5 -86.5q170 0 252 87t82 277v922h119v-946q0 -220 -124 -333.5t-335 -113.5z" />
    <glyph glyph-name="uni01D6" unicode="&#x1d6;" horiz-adv-x="1099" 
d="M838 1595v-94h-582v94h582zM270 1253q0 39 25.5 64.5t64.5 25.5q40 0 65.5 -25.5t25.5 -64.5q0 -40 -25.5 -65t-65.5 -25t-65 25t-25 65zM645 1253q0 38 25 64t63 26q39 0 64.5 -25.5t25.5 -64.5q0 -40 -25 -65t-65 -25q-38 0 -63 25t-25 65zM797 1001h121v-1001h-119
v158h-6q-43 -84 -123 -131t-183 -47q-148 0 -231.5 89.5t-83.5 245.5v686h121v-657q0 -128 50 -196t167 -68q118 0 202.5 89t84.5 230v602z" />
    <glyph glyph-name="uni01D7" unicode="&#x1d7;" horiz-adv-x="1302" 
d="M596 1784l164 260h141l-194 -260h-111zM451 1540q-40 0 -66.5 27t-26.5 67q0 38 27 65t66 27q41 0 66.5 -26.5t25.5 -65.5q0 -40 -25.5 -67t-66.5 -27zM864 1540q-41 0 -66.5 27t-25.5 67q0 39 25.5 65.5t66.5 26.5q39 0 65.5 -26.5t26.5 -65.5q0 -40 -26 -67t-66 -27z
M649 -25q-210 0 -332 113t-122 334v946h124v-922q0 -191 83.5 -277.5t252.5 -86.5q170 0 252 87t82 277v922h119v-946q0 -220 -124 -333.5t-335 -113.5z" />
    <glyph glyph-name="uni01D8" unicode="&#x1d8;" horiz-adv-x="1099" 
d="M811 1798l-231 -346h-107l199 346h139zM360 1163q-40 0 -65 25t-25 65q0 39 25.5 64.5t64.5 25.5q38 0 63.5 -26t25.5 -64q0 -39 -25.5 -64.5t-63.5 -25.5zM733 1343q38 0 63 -26t25 -64q0 -40 -25 -65t-63 -25q-40 0 -65 25t-25 65q0 39 25.5 64.5t64.5 25.5zM797 1001
h121v-1001h-119v158h-6q-43 -84 -123 -131t-183 -47q-148 0 -231.5 89.5t-83.5 245.5v686h121v-657q0 -128 50 -196t167 -68q118 0 202.5 89t84.5 230v602z" />
    <glyph glyph-name="uni01D9" unicode="&#x1d9;" horiz-adv-x="1302" 
d="M717 1784h-119l-254 260h123l190 -180l191 180h123zM358 1634q0 38 27 65t66 27q41 0 66.5 -26.5t25.5 -65.5q0 -40 -25.5 -67t-66.5 -27q-40 0 -66.5 27t-26.5 67zM772 1634q0 39 25.5 65.5t66.5 26.5q39 0 65.5 -26.5t26.5 -65.5q0 -40 -26 -67t-66 -27q-41 0 -66.5 27
t-25.5 67zM989 1368h119v-946q0 -220 -124 -333.5t-335 -113.5q-210 0 -332 113t-122 334v946h124v-922q0 -191 83.5 -277.5t252.5 -86.5q170 0 252 87t82 277v922z" />
    <glyph glyph-name="uni01DA" unicode="&#x1da;" horiz-adv-x="1099" 
d="M596 1452h-100l-250 305h114l187 -213l184 213h115zM270 1253q0 38 25 64t63 26q40 0 65.5 -25.5t25.5 -64.5q0 -40 -25.5 -65t-65.5 -25q-38 0 -63 25t-25 65zM643 1253q0 39 25.5 64.5t64.5 25.5q38 0 63 -26t25 -64q0 -40 -25 -65t-63 -25q-40 0 -65 25t-25 65z
M797 1001h121v-1001h-119v158h-6q-43 -84 -123 -131t-183 -47q-148 0 -231.5 89.5t-83.5 245.5v686h121v-657q0 -128 50 -196t167 -68q118 0 202.5 89t84.5 230v602z" />
    <glyph glyph-name="uni01DB" unicode="&#x1db;" horiz-adv-x="1302" 
d="M608 1784l-194 260h141l164 -260h-111zM451 1540q-40 0 -66.5 27t-26.5 67q0 38 27 65t66 27q41 0 66.5 -26.5t25.5 -65.5q0 -40 -25.5 -67t-66.5 -27zM864 1540q-41 0 -66.5 27t-25.5 67q0 39 25.5 65.5t66.5 26.5q39 0 65.5 -26.5t26.5 -65.5q0 -40 -26 -67t-66 -27z
M649 -25q-210 0 -332 113t-122 334v946h124v-922q0 -191 83.5 -277.5t252.5 -86.5q170 0 252 87t82 277v922h119v-946q0 -220 -124 -333.5t-335 -113.5z" />
    <glyph glyph-name="uni01DC" unicode="&#x1dc;" horiz-adv-x="1099" 
d="M621 1452h-107l-231 346h139zM360 1163q-40 0 -65 25t-25 65q0 39 25.5 64.5t64.5 25.5q38 0 63.5 -26t25.5 -64q0 -39 -25.5 -64.5t-63.5 -25.5zM733 1163q-40 0 -65 25t-25 65q0 39 25.5 64.5t64.5 25.5q38 0 63 -26t25 -64q0 -40 -25 -65t-63 -25zM797 1001h121v-1001
h-119v158h-6q-43 -84 -123 -131t-183 -47q-148 0 -231.5 89.5t-83.5 245.5v686h121v-657q0 -128 50 -196t167 -68q118 0 202.5 89t84.5 230v602z" />
    <glyph glyph-name="uni01F1" unicode="&#x1f1;" horiz-adv-x="2365" 
d="M578 1368q136 0 247.5 -38.5t198.5 -118t135.5 -214t48.5 -313.5t-48.5 -313.5t-135.5 -214t-198.5 -118t-247.5 -38.5h-369v1368h369zM1538 102h731v-102h-864v111l729 1155h-702v102h835v-111zM565 104q117 0 209.5 32.5t162.5 100t107 181t37 266.5t-37 266.5
t-107 181t-162.5 100t-209.5 32.5h-231v-1160h231z" />
    <glyph glyph-name="uni01F2" unicode="&#x1f2;" horiz-adv-x="2226" 
d="M578 1368q136 0 247.5 -38.5t198.5 -118t135.5 -214t48.5 -313.5t-48.5 -313.5t-135.5 -214t-198.5 -118t-247.5 -38.5h-369v1368h369zM565 104q117 0 209.5 32.5t162.5 100t107 181t37 266.5t-37 266.5t-107 181t-162.5 100t-209.5 32.5h-231v-1160h231zM1561 94h569
v-94h-700v98l569 809h-545v94h674v-98z" />
    <glyph glyph-name="uni01F3" unicode="&#x1f3;" horiz-adv-x="2035" 
d="M844 829v594h123v-1423h-119v180h-6q-90 -200 -310 -200q-178 0 -295.5 139.5t-117.5 380.5q0 243 117.5 382.5t295.5 139.5q215 0 306 -193h6zM1368 94h569v-94h-700v98l569 809h-544v94h673v-98zM545 80q137 0 219 112t82 310q0 196 -82 308t-219 112t-219 -111.5
t-82 -310.5t82 -309.5t219 -110.5z" />
    <glyph glyph-name="uni0218" unicode="&#x218;" horiz-adv-x="1122" 
d="M694 713q51 -21 90.5 -41.5t85 -54t75 -70.5t49.5 -90.5t20 -114.5q0 -170 -130.5 -268.5t-330.5 -98.5q-132 0 -249.5 48.5t-205.5 142.5l66 80q73 -82 179 -124t204 -42q159 0 250.5 67t91.5 185q0 59 -20.5 104.5t-62.5 79t-82 54t-103 46.5l-181 76
q-65 27 -113.5 57.5t-91.5 73t-65.5 100.5t-22.5 128q0 142 112.5 242t293.5 100q249 0 418 -166l-66 -80q-141 141 -344 141q-137 0 -213 -66t-76 -165q0 -55 20 -99t58 -75t71.5 -50t82.5 -40zM559 -100q43 0 68.5 -31.5t25.5 -87.5q0 -61 -29 -134.5t-75 -129.5l-60 34
q35 47 57.5 97t24.5 78h-12q-39 0 -63.5 23t-24.5 61t24 64t64 26z" />
    <glyph glyph-name="uni0219" unicode="&#x219;" horiz-adv-x="929" 
d="M555 541q42 -16 72.5 -29.5t70 -39t64 -53.5t42 -70.5t17.5 -92.5q0 -125 -97 -200.5t-253 -75.5q-120 0 -218 45t-161 129l70 69q125 -143 303 -143q113 0 175 43.5t62 124.5q0 33 -11 60t-28.5 46.5t-46.5 37t-55.5 29t-66.5 25.5l-129 50q-50 20 -86 39.5t-73 51
t-56 75.5t-19 100q0 113 88 186.5t234 73.5q218 0 350 -158l-72 -71q-116 129 -274 129q-99 0 -153 -45t-54 -109t43.5 -104t130.5 -72zM469 -100q42 0 67 -30.5t25 -86.5q0 -57 -29 -128t-73 -128l-58 35q34 44 56 92t24 76h-12q-37 0 -61.5 23t-24.5 61q0 35 24 60.5
t62 25.5z" />
    <glyph glyph-name="uni021A" unicode="&#x21a;" horiz-adv-x="1081" 
d="M1004 1368v-104h-402v-1264h-125v1264h-401v104h928zM539 -100q43 0 68.5 -31.5t25.5 -87.5q0 -61 -29.5 -134.5t-75.5 -129.5l-59 34q35 47 57.5 97t24.5 78h-12q-39 0 -63.5 23t-24.5 61t24 64t64 26z" />
    <glyph glyph-name="uni021B" unicode="&#x21b;" horiz-adv-x="694" 
d="M475 80q70 0 154 33v-97q-70 -36 -187 -36q-89 0 -143.5 52.5t-54.5 168.5v704h-185v96h185v209l123 52v-261h243v-96h-243v-674q0 -83 25.5 -117t82.5 -34zM428 -100q42 0 67 -30.5t25 -86.5q0 -57 -29 -128t-73 -128l-58 35q34 44 56 92t24 76h-12q-37 0 -61.5 23
t-24.5 61q0 35 24 60.5t62 25.5z" />
    <glyph glyph-name="uni0232" unicode="&#x232;" horiz-adv-x="1175" 
d="M895 1716v-96h-610v96h610zM1128 1368l-477 -711v-657h-125v653l-479 715h150l352 -543q32 -45 41 -67h6q7 18 37 67l354 543h141z" />
    <glyph glyph-name="uni0233" unicode="&#x233;" horiz-adv-x="983" 
d="M201 1251v95h581v-95h-581zM207 -387q-61 0 -117 16v101q76 -17 117 -17q54 0 92.5 37.5t71.5 126.5l65 176l-370 948h133l264 -718q23 -63 33 -111h6q9 43 35 111l258 718h125l-441 -1167q-49 -127 -114 -174t-158 -47z" />
    <glyph glyph-name="uni0237" unicode="&#x237;" horiz-adv-x="499" 
d="M80 -387q-82 0 -146 18v103q74 -21 123 -21q74 0 107 42.5t33 138.5v1107h122v-1134q0 -131 -63.5 -192.5t-175.5 -61.5z" />
    <glyph glyph-name="uni0259" unicode="&#x259;" horiz-adv-x="1062" 
d="M496 1022q202 0 326 -140t124 -380q0 -239 -120.5 -380.5t-311.5 -141.5q-182 0 -291.5 132.5t-109.5 344.5q0 42 2 67h708q-4 191 -92.5 294.5t-241.5 103.5q-170 0 -280 -136l-66 72q139 164 353 164zM514 80q129 0 210.5 91t96.5 259h-590q6 -167 80 -258.5t203 -91.5
z" />
    <glyph glyph-name="uni02BB" unicode="&#x2bb;" horiz-adv-x="450" 
d="M223 1141q38 0 63 -28.5t25 -68.5t-25.5 -67t-64.5 -27q-49 0 -74.5 36.5t-25.5 100.5q0 146 121 312l63 -43q-92 -120 -94 -215h12z" />
    <glyph glyph-name="uni02BC" unicode="&#x2bc;" horiz-adv-x="448" 
d="M227 1393q47 0 74 -36.5t27 -101.5q0 -151 -123 -309l-64 41q95 124 97 217q-4 -2 -15 -2q-38 0 -63 28t-25 68t25.5 67.5t66.5 27.5z" />
    <glyph glyph-name="circumflex" unicode="&#x2c6;" horiz-adv-x="753" 
d="M676 1180h-115l-184 213l-187 -213h-112l248 305h102z" />
    <glyph glyph-name="caron" unicode="&#x2c7;" horiz-adv-x="753" 
d="M561 1485h115l-248 -305h-102l-248 305h112l187 -213z" />
    <glyph glyph-name="breve" unicode="&#x2d8;" horiz-adv-x="753" 
d="M377 1176q-122 0 -199.5 76t-89.5 221h94q32 -195 195 -195q160 0 192 195h97q-12 -145 -89.5 -221t-199.5 -76z" />
    <glyph glyph-name="dotaccent" unicode="&#x2d9;" horiz-adv-x="745" 
d="M373 1237q-41 0 -66.5 26t-25.5 66q0 41 25.5 67.5t66.5 26.5q40 0 66 -26.5t26 -67.5q0 -40 -26 -66t-66 -26z" />
    <glyph glyph-name="ring" unicode="&#x2da;" horiz-adv-x="753" 
d="M375 1149q-96 0 -159.5 59.5t-63.5 147.5q0 89 63 149t160 60t161 -60t64 -149q0 -88 -64.5 -147.5t-160.5 -59.5zM375 1227q54 0 91.5 37.5t37.5 91.5q0 55 -36 93t-93 38t-92 -38.5t-35 -92.5q0 -53 36 -91t91 -38z" />
    <glyph glyph-name="ogonek" unicode="&#x2db;" horiz-adv-x="753" 
d="M377 -387q-91 0 -147 47.5t-56 126.5q0 134 211 240l107 18q-103 -67 -152 -122t-49 -120q0 -40 27 -67t73 -27q63 0 121 68l66 -62q-71 -102 -201 -102z" />
    <glyph glyph-name="tilde" unicode="&#x2dc;" horiz-adv-x="753" 
d="M494 1182q-37 0 -69.5 17.5t-49 35.5t-39.5 49q-25 33 -43.5 48.5t-42.5 15.5q-71 0 -80 -154h-90q2 63 15 111.5t31 76.5t42.5 45.5t45.5 23t44 5.5q36 0 67.5 -16.5t47.5 -34t39 -47.5q52 -68 90 -68q31 0 51.5 31.5t28.5 122.5h90q-2 -63 -15 -111.5t-31 -76.5
t-42.5 -45.5t-45.5 -23t-44 -5.5z" />
    <glyph glyph-name="hungarumlaut" unicode="&#x2dd;" horiz-adv-x="753" 
d="M68 1182l190 303h137l-221 -303h-106zM393 1182l191 303h139l-225 -303h-105z" />
    <glyph glyph-name="gravecomb" unicode="&#x300;" horiz-adv-x="0" 
d="M-891 1182h-106l-232 346h139z" />
    <glyph glyph-name="acutecomb" unicode="&#x301;" horiz-adv-x="0" 
d="M-1229 1182l199 346h139l-231 -346h-107z" />
    <glyph glyph-name="uni0302" unicode="&#x302;" horiz-adv-x="0" 
d="M-631 1180h-112l-187 213l-184 -213h-115l248 305h102z" />
    <glyph glyph-name="tildecomb" unicode="&#x303;" horiz-adv-x="0" 
d="M-815 1182q-38 0 -71 18t-48 34t-41 50q-23 32 -41.5 48t-42.5 16q-33 0 -55 -32.5t-27 -121.5h-88q3 78 21 133.5t46 81.5t54 36.5t55 10.5q37 0 69 -16.5t48 -34t39 -47.5q52 -68 88 -68q32 0 52 31t30 123h88q-3 -78 -21 -133.5t-46 -81.5t-54 -36.5t-55 -10.5z" />
    <glyph glyph-name="uni0304" unicode="&#x304;" horiz-adv-x="0" 
d="M-1229 1251v95h582v-95h-582z" />
    <glyph glyph-name="uni0306" unicode="&#x306;" horiz-adv-x="0" 
d="M-940 1176q-122 0 -199.5 76t-89.5 221h96q32 -195 193 -195q163 0 195 195h96q-13 -145 -91 -221t-200 -76z" />
    <glyph glyph-name="uni0307" unicode="&#x307;" horiz-adv-x="0" 
d="M-1073 1237q-41 0 -67.5 26t-26.5 66q0 41 26.5 67.5t67.5 26.5q40 0 66 -26.5t26 -67.5q0 -40 -26 -66t-66 -26z" />
    <glyph glyph-name="uni0308" unicode="&#x308;" horiz-adv-x="0" 
d="M-1145 1237q-40 0 -65 26t-25 66t25.5 67t64.5 27q41 0 66.5 -27t25.5 -67t-25.5 -66t-66.5 -26zM-768 1237q-40 0 -66 26t-26 66t26 67t66 27q39 0 64.5 -27t25.5 -67t-25 -66t-65 -26z" />
    <glyph glyph-name="uni030A" unicode="&#x30a;" horiz-adv-x="0" 
d="M-1006 1149q-96 0 -159.5 59.5t-63.5 147.5q0 89 63 149t160 60t161.5 -60.5t64.5 -148.5t-64.5 -147.5t-161.5 -59.5zM-1006 1227q55 0 92 37.5t37 91.5q0 55 -36 93t-93 38t-92 -38.5t-35 -92.5q0 -53 37 -91t90 -38z" />
    <glyph glyph-name="uni030B" unicode="&#x30b;" horiz-adv-x="0" 
d="M-1229 1182l193 303h135l-221 -303h-107zM-903 1182l192 303h138l-224 -303h-106z" />
    <glyph glyph-name="uni030C" unicode="&#x30c;" horiz-adv-x="0" 
d="M-743 1485h112l-248 -305h-102l-248 305h115l186 -213z" />
    <glyph glyph-name="uni0312" unicode="&#x312;" horiz-adv-x="0" 
d="M-1135 1360q36 0 61 -22.5t25 -59.5q0 -36 -24 -61t-62 -25q-42 0 -67 30t-25 85q0 59 29 130t74 128l57 -35q-35 -45 -56.5 -93t-23.5 -77h12z" />
    <glyph glyph-name="uni0326" unicode="&#x326;" horiz-adv-x="0" 
d="M-1143 -100q42 0 67 -30.5t25 -86.5q0 -57 -29 -128t-73 -128l-57 35q34 44 56 92t24 76h-13q-37 0 -61.5 23t-24.5 61q0 35 24 60.5t62 25.5z" />
    <glyph glyph-name="uni0327" unicode="&#x327;" horiz-adv-x="0" 
d="M-1036 -387q-122 0 -193 100l62 56q61 -68 123 -68q48 0 75 27.5t27 68.5q0 67 -49.5 122.5t-155.5 125.5l96 -18l33 -19q1 -1 23.5 -14.5t33 -21t32.5 -24.5t35 -32.5t27.5 -36.5t21.5 -45.5t7 -50.5q0 -78 -54 -124t-144 -46z" />
    <glyph glyph-name="uni0328" unicode="&#x328;" horiz-adv-x="0" 
d="M-1026 -387q-91 0 -147 47.5t-56 126.5q0 133 209 240l109 18q-104 -66 -153.5 -121.5t-49.5 -120.5q0 -40 28 -67t74 -27q60 0 121 68l66 -62q-74 -102 -201 -102z" />
    <glyph glyph-name="uni0394" unicode="&#x394;" horiz-adv-x="1247" 
d="M698 1368l473 -1284v-84h-1095v84l475 1284h147zM582 1128l-381 -1026h835l-372 1022q-10 25 -39 125h-7q-16 -62 -36 -121z" />
    <glyph glyph-name="uni03A9" unicode="&#x3a9;" horiz-adv-x="1415" 
d="M133 0v100h311v6q-127 96 -213 261.5t-86 375.5q0 157 44.5 282.5t121.5 204.5t178 121t218 42t218 -42t178 -121t121 -204.5t44 -282.5q0 -211 -85.5 -376t-213.5 -261v-6h311v-100h-436v104q136 109 217.5 265.5t81.5 357.5q0 138 -34 246.5t-93.5 176t-138 102
t-170.5 34.5t-170 -34.5t-138 -102t-93.5 -176t-33.5 -246.5q0 -201 81.5 -357.5t215.5 -265.5v-104h-436z" />
    <glyph glyph-name="uni03BC" unicode="&#x3bc;" horiz-adv-x="1130" 
d="M999 88q17 0 33 4v-94q-31 -10 -76 -10q-71 0 -106.5 40.5t-36.5 127.5h-8q-39 -83 -108.5 -129.5t-161.5 -46.5q-151 0 -222 102h-10v-449h-121v1368h121v-677q0 -120 68 -182t170 -62q113 0 189.5 94t76.5 225v602h121v-776q0 -84 16.5 -110.5t54.5 -26.5z" />
    <glyph glyph-name="pi" unicode="&#x3c0;" horiz-adv-x="1099" 
d="M1004 907h-175v-696q0 -71 15.5 -94t64.5 -23t82 10v-94q-47 -16 -114 -16q-87 0 -125.5 42.5t-38.5 143.5v727h-338l-74 -907h-119l76 907h-172v94h918v-94z" />
    <glyph glyph-name="uni0E3F" unicode="&#xe3f;" 
d="M981 373q0 -94 -29.5 -165.5t-83.5 -115t-124 -66.5t-156 -26v-180h-101v180h-321v1368h321v166h101v-166q164 -6 256 -95t92 -257q0 -231 -211 -297v-6q121 -34 188.5 -118.5t67.5 -221.5zM487 1268h-200v-514h200v514zM815 1008q0 129 -54.5 190.5t-172.5 69.5v-510
q227 26 227 250zM287 100h200v555h-200v-555zM588 102q61 3 107 17.5t84.5 45t58.5 84.5t20 130q0 255 -270 274v-551z" />
    <glyph glyph-name="Wgrave" unicode="&#x1e80;" horiz-adv-x="1845" 
d="M999 1550h-108l-201 287h144zM1305 250q15 -60 20 -100h8q3 17 23 100l280 1118h131l-370 -1368h-137l-312 1114q-11 40 -22 109h-6q-6 -42 -25 -109l-313 -1114h-133l-371 1368h131l287 -1116q16 -68 20 -107h6q6 34 25 105l313 1118h121z" />
    <glyph glyph-name="wgrave" unicode="&#x1e81;" horiz-adv-x="1452" 
d="M803 1182h-107l-231 346h139zM356 0l-276 1001h127l194 -749q18 -84 23 -117h8q5 34 29 123l205 743h120l211 -751q18 -63 25 -113h8q4 19 8 38.5t9 41.5t8 35l190 749h129l-284 -1001h-129l-203 731q-10 37 -27 135h-6q-7 -57 -29 -135l-211 -731h-129z" />
    <glyph glyph-name="Wacute" unicode="&#x1e82;" horiz-adv-x="1845" 
d="M846 1550l168 287h141l-199 -287h-110zM1305 250q15 -60 20 -100h8q3 17 23 100l280 1118h131l-370 -1368h-137l-312 1114q-11 40 -22 109h-6q-6 -42 -25 -109l-313 -1114h-133l-371 1368h131l287 -1116q16 -68 20 -107h6q6 34 25 105l313 1118h121z" />
    <glyph glyph-name="wacute" unicode="&#x1e83;" horiz-adv-x="1452" 
d="M649 1182l199 346h139l-231 -346h-107zM356 0l-276 1001h127l194 -749q18 -84 23 -117h8q5 34 29 123l205 743h120l211 -751q18 -63 25 -113h8q4 19 8 38.5t9 41.5t8 35l190 749h129l-284 -1001h-129l-203 731q-10 37 -27 135h-6q-7 -57 -29 -135l-211 -731h-129z" />
    <glyph glyph-name="Wdieresis" unicode="&#x1e84;" horiz-adv-x="1845" 
d="M715 1548q-40 0 -66 27t-26 67t26.5 67.5t65.5 27.5q41 0 67.5 -27.5t26.5 -67.5t-26.5 -67t-67.5 -27zM1128 1548q-41 0 -66.5 27t-25.5 67t25.5 67.5t66.5 27.5q40 0 66.5 -27.5t26.5 -67.5t-26.5 -67t-66.5 -27zM1305 250q15 -60 20 -100h8q3 17 23 100l280 1118h131
l-370 -1368h-137l-312 1114q-11 40 -22 109h-6q-6 -42 -25 -109l-313 -1114h-133l-371 1368h131l287 -1116q16 -68 20 -107h6q6 34 25 105l313 1118h121z" />
    <glyph glyph-name="wdieresis" unicode="&#x1e85;" horiz-adv-x="1452" 
d="M537 1237q-40 0 -65.5 26t-25.5 66t26 67t65 27q41 0 66.5 -27t25.5 -67t-25.5 -66t-66.5 -26zM913 1237q-40 0 -66 26t-26 66t26 67t66 27q39 0 65 -27t26 -67t-25.5 -66t-65.5 -26zM356 0l-276 1001h127l194 -749q18 -84 23 -117h8q5 34 29 123l205 743h120l211 -751
q18 -63 25 -113h8q4 19 8 38.5t9 41.5t8 35l190 749h129l-284 -1001h-129l-203 731q-10 37 -27 135h-6q-7 -57 -29 -135l-211 -731h-129z" />
    <glyph glyph-name="uni1E9E" unicode="&#x1e9e;" horiz-adv-x="1251" 
d="M862 729q279 -158 279 -383q0 -161 -107.5 -266t-277.5 -105q-148 0 -275 99l54 90q96 -84 215 -84q122 0 193 73.5t71 184.5q0 100 -59.5 170.5t-172.5 132.5l-164 92v68l314 387q-132 100 -283 100q-176 0 -253 -110.5t-77 -311.5v-866h-124v889q0 239 112 371.5
t342 132.5q248 0 445 -176l-342 -424z" />
    <glyph glyph-name="uni1EBC" unicode="&#x1ebc;" 
d="M455 1696q-36 0 -58.5 -28t-29.5 -103h-91q3 57 16.5 100.5t32 69t42.5 41t46 21t46 5.5q50 0 82 -18t80 -62q40 -37 57.5 -48t42.5 -11q34 0 55.5 29t28.5 102h90q-3 -57 -16.5 -101t-32 -69t-42.5 -41t-46 -21.5t-47 -5.5q-35 0 -68 14t-49.5 28t-40.5 38
q-63 60 -98 60zM334 102h645v-102h-770v1368h756v-102h-631v-510h592v-101h-592v-553z" />
    <glyph glyph-name="uni1EBD" unicode="&#x1ebd;" horiz-adv-x="1062" 
d="M416 1348q-33 0 -55 -32.5t-27 -121.5h-88q3 78 21 133.5t46 81.5t54 36.5t55 10.5q37 0 69 -16.5t48 -34t39 -47.5q52 -68 88 -68q32 0 52 31t30 123h88q-2 -63 -15 -111.5t-31.5 -76.5t-42.5 -45.5t-45 -23t-43 -5.5q-29 0 -52.5 8t-45 27t-31 30t-30.5 37
q-23 32 -41.5 48t-42.5 16zM950 545q0 -43 -2 -68h-708q4 -191 92 -294t241 -103q172 0 281 135l66 -72q-138 -163 -353 -163q-202 0 -326 140t-124 380q0 239 120.5 380.5t311.5 141.5q182 0 291.5 -132.5t109.5 -344.5zM549 922q-129 0 -210.5 -91.5t-96.5 -259.5h589
q-6 167 -79.5 259t-202.5 92z" />
    <glyph glyph-name="Ygrave" unicode="&#x1ef2;" horiz-adv-x="1175" 
d="M666 1550h-109l-201 287h144zM1128 1368l-477 -711v-657h-125v653l-479 715h150l352 -543q32 -45 41 -67h6q7 18 37 67l354 543h141z" />
    <glyph glyph-name="ygrave" unicode="&#x1ef3;" horiz-adv-x="983" 
d="M567 1182h-106l-232 346h140zM207 -387q-61 0 -117 16v101q76 -17 117 -17q54 0 92.5 37.5t71.5 126.5l65 176l-370 948h133l264 -718q23 -63 33 -111h6q9 43 35 111l258 718h125l-441 -1167q-49 -127 -114 -174t-158 -47z" />
    <glyph glyph-name="uni1EF8" unicode="&#x1ef8;" horiz-adv-x="1175" 
d="M459 1696q-36 0 -58.5 -28t-29.5 -103h-90q4 71 22.5 120.5t46.5 73.5t55 33.5t58 9.5q50 0 82 -18t80 -62q40 -37 57.5 -48t42.5 -11q34 0 55.5 29t28.5 102h90q-3 -57 -16.5 -101t-32 -69t-42.5 -41t-46 -21.5t-47 -5.5q-35 0 -68 14t-49.5 28t-40.5 38q-63 60 -98 60z
M1128 1368l-477 -711v-657h-125v653l-479 715h150l352 -543q32 -45 41 -67h6q7 18 37 67l354 543h141z" />
    <glyph glyph-name="uni1EF9" unicode="&#x1ef9;" horiz-adv-x="983" 
d="M608 1182q-29 0 -52.5 8t-45 27t-31 30t-30.5 37q-23 32 -41.5 48t-42.5 16q-33 0 -55 -32.5t-27 -121.5h-88q3 78 21 133.5t46 81.5t54 36.5t55 10.5q37 0 68.5 -16.5t47.5 -33.5t39 -48q52 -68 88 -68q32 0 52 31t30 123h88q-3 -78 -21 -133.5t-46 -81.5t-54 -36.5
t-55 -10.5zM207 -387q-61 0 -117 16v101q76 -17 117 -17q54 0 92.5 37.5t71.5 126.5l65 176l-370 948h133l264 -718q23 -63 33 -111h6q9 43 35 111l258 718h125l-441 -1167q-49 -127 -114 -174t-158 -47z" />
    <glyph glyph-name="uni2007" unicode="&#x2007;" 
 />
    <glyph glyph-name="uni2008" unicode="&#x2008;" horiz-adv-x="466" 
 />
    <glyph glyph-name="uni2009" unicode="&#x2009;" horiz-adv-x="256" 
 />
    <glyph glyph-name="uni200B" unicode="&#x200b;" horiz-adv-x="0" 
 />
    <glyph glyph-name="uni2010" unicode="&#x2010;" horiz-adv-x="776" 
d="M160 520v107h456v-107h-456z" />
    <glyph glyph-name="uni2011" unicode="&#x2011;" horiz-adv-x="776" 
d="M160 520v107h456v-107h-456z" />
    <glyph glyph-name="figuredash" unicode="&#x2012;" 
d="M123 522v103h864v-103h-864z" />
    <glyph glyph-name="endash" unicode="&#x2013;" horiz-adv-x="1052" 
d="M160 522v103h733v-103h-733z" />
    <glyph glyph-name="emdash" unicode="&#x2014;" horiz-adv-x="1736" 
d="M160 522v103h1419v-103h-1419z" />
    <glyph glyph-name="quoteleft" unicode="&#x2018;" horiz-adv-x="450" 
d="M223 1141q38 0 63 -28.5t25 -68.5t-25.5 -67t-64.5 -27q-49 0 -74.5 36.5t-25.5 100.5q0 146 121 312l63 -43q-94 -122 -96 -217q4 2 14 2z" />
    <glyph glyph-name="quoteright" unicode="&#x2019;" horiz-adv-x="448" 
d="M227 1393q47 0 74 -36.5t27 -101.5q0 -151 -123 -309l-64 41q95 124 97 217q-4 -2 -15 -2q-38 0 -63 28t-25 68t25.5 67.5t66.5 27.5z" />
    <glyph glyph-name="quotesinglbase" unicode="&#x201a;" horiz-adv-x="466" 
d="M236 162q49 0 74.5 -36t25.5 -101q0 -144 -121 -310l-63 41q92 119 94 217h-13q-38 0 -63 27.5t-25 67.5q0 41 25.5 67.5t65.5 26.5z" />
    <glyph glyph-name="quotedblleft" unicode="&#x201c;" horiz-adv-x="768" 
d="M223 1141q38 0 63 -28.5t25 -68.5t-25.5 -67t-64.5 -27q-49 0 -74.5 36.5t-25.5 100.5q0 146 121 312l63 -43q-94 -122 -96 -217q4 2 14 2zM541 1141q38 0 63 -28.5t25 -68.5t-25.5 -67t-66.5 -27q-47 0 -74 37t-27 100q0 149 123 312l64 -43q-95 -124 -97 -217q4 2 15 2
z" />
    <glyph glyph-name="quotedblright" unicode="&#x201d;" horiz-adv-x="761" 
d="M227 1393q47 0 74 -36.5t27 -101.5q0 -151 -123 -309l-64 41q95 124 97 217q-4 -2 -15 -2q-38 0 -63 28t-25 68t25.5 67.5t66.5 27.5zM543 1393q49 0 74.5 -36.5t25.5 -101.5q0 -148 -121 -309l-63 41q92 120 94 215h-12q-38 0 -63 28t-25 68t25.5 67.5t64.5 27.5z" />
    <glyph glyph-name="quotedblbase" unicode="&#x201e;" horiz-adv-x="782" 
d="M236 162q49 0 74.5 -36t25.5 -101q0 -144 -121 -310l-63 41q92 119 94 217h-13q-38 0 -63 27.5t-25 67.5q0 41 25.5 67.5t65.5 26.5zM553 162q47 0 73.5 -36t26.5 -101q0 -144 -121 -310l-63 41q92 119 94 217h-12q-38 0 -63 27.5t-25 67.5q0 41 25 67.5t65 26.5z" />
    <glyph glyph-name="dagger" unicode="&#x2020;" horiz-adv-x="843" 
d="M782 920v-93h-303v-1032h-114v1032h-304v93h304v448h114v-448h303z" />
    <glyph glyph-name="daggerdbl" unicode="&#x2021;" horiz-adv-x="944" 
d="M831 827h-303v-458h303v-95h-303v-479h-112v479h-305v95h305v458h-305v93h305v448h112v-448h303v-93z" />
    <glyph glyph-name="bullet" unicode="&#x2022;" horiz-adv-x="962" 
d="M485 887q132 0 219 -90t87 -226t-88 -225.5t-222 -89.5q-135 0 -223 89t-88 226t89.5 226.5t225.5 89.5z" />
    <glyph glyph-name="ellipsis" unicode="&#x2026;" horiz-adv-x="1302" 
d="M233 -20q-41 0 -69.5 29.5t-28.5 72.5q0 45 28 74.5t70 29.5q43 0 72 -29.5t29 -74.5q0 -43 -29 -72.5t-72 -29.5zM651 -20q-42 0 -70 29.5t-28 72.5q0 46 27.5 75t70.5 29t72 -29.5t29 -74.5q0 -43 -29 -72.5t-72 -29.5zM1069 -20q-43 0 -71.5 29.5t-28.5 72.5
q0 45 28.5 74.5t71.5 29.5t71.5 -29.5t28.5 -74.5q0 -43 -28.5 -72.5t-71.5 -29.5z" />
    <glyph glyph-name="perthousand" unicode="&#x2030;" horiz-adv-x="2306" 
d="M315 0l824 1368h129l-828 -1368h-125zM403 647q-141 0 -227 101.5t-86 271.5t86 271.5t227 101.5t227.5 -101.5t86.5 -271.5t-86.5 -271.5t-227.5 -101.5zM403 739q92 0 144.5 73.5t52.5 207.5t-52.5 207t-144.5 73q-93 0 -144.5 -73t-51.5 -207t51.5 -207.5t144.5 -73.5
zM1169 -27q-141 0 -226 101.5t-85 273.5q0 170 85 270.5t226 100.5q142 0 228 -100t86 -271q0 -172 -86 -273.5t-228 -101.5zM1169 68q93 0 146 72.5t53 207.5q0 134 -53 206.5t-146 72.5q-92 0 -144 -72.5t-52 -206.5q0 -135 52 -207.5t144 -72.5zM1905 -27
q-142 0 -228 101.5t-86 273.5q0 171 86 271t228 100q141 0 226 -100.5t85 -270.5q0 -172 -85 -273.5t-226 -101.5zM1905 68q92 0 144 72.5t52 207.5q0 134 -52 206.5t-144 72.5q-93 0 -146 -72.5t-53 -206.5q0 -135 53 -207.5t146 -72.5z" />
    <glyph glyph-name="minute" unicode="&#x2032;" horiz-adv-x="438" 
d="M133 958l76 410h129l-111 -410h-94z" />
    <glyph glyph-name="second" unicode="&#x2033;" horiz-adv-x="692" 
d="M133 958l74 410h125l-107 -410h-92zM389 958l76 410h125l-107 -410h-94z" />
    <glyph glyph-name="uni2034" unicode="&#x2034;" horiz-adv-x="952" 
d="M133 958l74 410h127l-109 -410h-92zM389 958l76 410h125l-107 -410h-94zM647 958l74 410h127l-107 -410h-94z" />
    <glyph glyph-name="guilsinglleft" unicode="&#x2039;" horiz-adv-x="571" 
d="M446 119h-98l-252 403l252 391h98l-192 -391z" />
    <glyph glyph-name="guilsinglright" unicode="&#x203a;" horiz-adv-x="571" 
d="M123 119l192 403l-192 391h98l252 -391l-252 -403h-98z" />
    <glyph glyph-name="fraction" unicode="&#x2044;" horiz-adv-x="237" 
d="M596 1368l-825 -1368h-125l823 1368h127z" />
    <glyph glyph-name="uni2060" unicode="&#x2060;" horiz-adv-x="0" 
 />
    <glyph glyph-name="uni2070" unicode="&#x2070;" horiz-adv-x="782" 
d="M391 561q-130 0 -211.5 105.5t-81.5 306.5t81.5 305t211.5 104q129 0 211 -104.5t82 -304.5t-82.5 -306t-210.5 -106zM391 653q81 0 128.5 80t47.5 240t-47 238.5t-129 78.5q-81 0 -128.5 -79t-47.5 -238q0 -160 47.5 -240t128.5 -80z" />
    <glyph glyph-name="uni2074" unicode="&#x2074;" horiz-adv-x="737" 
d="M666 836v-91h-131v-170h-109v170h-354v105l309 518h154v-532h131zM430 1300q-16 -35 -57 -112l-213 -352h270v342q0 23 6 122h-6z" />
    <glyph glyph-name="uni2075" unicode="&#x2075;" horiz-adv-x="706" 
d="M369 1094q104 0 175.5 -70t71.5 -195q0 -123 -82 -195.5t-192 -72.5q-91 0 -158.5 39t-101.5 111l80 41q59 -101 176 -101q68 0 117 47t49 129q0 84 -46.5 131.5t-115.5 47.5q-90 0 -147 -76l-86 16l63 422h412v-90h-330l-37 -240h8q56 56 144 56z" />
    <glyph glyph-name="uni2076" unicode="&#x2076;" horiz-adv-x="743" 
d="M408 1092q101 0 173 -73.5t72 -187.5q0 -119 -77.5 -194.5t-192.5 -75.5q-129 0 -207 92.5t-78 292.5q0 210 94 323t232 113q130 0 209 -86l-55 -67q-63 63 -150 63q-96 0 -152.5 -76t-62.5 -229h4q22 44 72 74.5t119 30.5zM381 651q70 0 115 48.5t45 125.5t-46 126.5
t-114 49.5q-70 0 -117 -49t-47 -127q0 -76 47 -125t117 -49z" />
    <glyph glyph-name="uni2077" unicode="&#x2077;" horiz-adv-x="638" 
d="M66 1368h505v-94q-250 -253 -258 -699h-116q3 236 88 423.5t190 277.5v8q-58 -6 -110 -6h-299v90z" />
    <glyph glyph-name="uni2078" unicode="&#x2078;" horiz-adv-x="755" 
d="M498 979q164 -68 164 -199q0 -100 -77 -159.5t-212 -59.5q-126 0 -202.5 56.5t-76.5 152.5q0 143 164 215v6q-133 67 -133 185q0 93 72.5 149.5t183.5 56.5q107 0 179.5 -55.5t72.5 -146.5q0 -64 -36.5 -114.5t-98.5 -80.5v-6zM381 1300q-65 0 -105 -31.5t-40 -86.5
q0 -56 39.5 -88.5t134.5 -73.5q116 60 116 158q0 58 -41.5 90t-103.5 32zM375 647q85 0 130.5 33t45.5 94q0 24 -10 44.5t-24 35t-44.5 32.5t-54.5 29.5t-72 32.5q-143 -66 -143 -174q0 -60 45 -93.5t127 -33.5z" />
    <glyph glyph-name="uni2079" unicode="&#x2079;" horiz-adv-x="716" 
d="M348 1382q122 0 200.5 -74.5t78.5 -203.5q0 -138 -101 -290t-243 -257l-82 49q184 151 274 324h-8q-52 -64 -152 -64q-105 0 -173 71.5t-68 180.5q0 115 79 189.5t195 74.5zM346 954q73 0 120.5 49.5t47.5 120.5q0 72 -45 120t-119 48q-73 0 -118.5 -49t-45.5 -125
q0 -70 40.5 -117t119.5 -47z" />
    <glyph glyph-name="uni207A" unicode="&#x207a;" horiz-adv-x="737" 
d="M655 979v-90h-239v-248h-97v248h-237v90h237v248h97v-248h239z" />
    <glyph glyph-name="uni207B" unicode="&#x207b;" horiz-adv-x="813" 
d="M121 889v90h571v-90h-571z" />
    <glyph glyph-name="uni207C" unicode="&#x207c;" horiz-adv-x="808" 
d="M119 1014v90h573v-90h-573zM119 770v88h573v-88h-573z" />
    <glyph glyph-name="uni207D" unicode="&#x207d;" horiz-adv-x="423" 
d="M197 958q0 -140 42.5 -264t116.5 -211l-69 -45q-193 216 -193 520q0 306 191 521l71 -47q-74 -85 -116.5 -208.5t-42.5 -265.5z" />
    <glyph glyph-name="uni207E" unicode="&#x207e;" horiz-adv-x="425" 
d="M227 958q0 141 -42 264.5t-115 209.5l69 47q191 -215 191 -521t-191 -520l-71 45q75 86 117 210t42 265z" />
    <glyph glyph-name="uni2080" unicode="&#x2080;" horiz-adv-x="782" 
d="M391 -322q-130 0 -211.5 105.5t-81.5 306.5t81.5 305.5t211.5 104.5q129 0 211 -105t82 -305t-82.5 -306t-210.5 -106zM391 -229q81 0 128.5 79.5t47.5 239.5t-47 239t-129 79q-81 0 -128.5 -79.5t-47.5 -238.5q0 -160 47.5 -239.5t128.5 -79.5z" />
    <glyph glyph-name="uni2081" unicode="&#x2081;" horiz-adv-x="544" 
d="M348 -217h131v-90h-381v90h142v526q-52 -32 -142 -35v88q146 9 164 123h86v-702z" />
    <glyph glyph-name="uni2082" unicode="&#x2082;" horiz-adv-x="708" 
d="M90 -307v86q234 182 316.5 281t82.5 198q0 66 -37 109t-104 43q-64 0 -102.5 -39.5t-38.5 -106.5h-107q0 107 70.5 171.5t179.5 64.5q115 0 183.5 -66t68.5 -174q0 -62 -22 -117t-72.5 -113t-117.5 -114t-171 -131v-6q35 4 111 4h282v-90h-522z" />
    <glyph glyph-name="uni2083" unicode="&#x2083;" horiz-adv-x="708" 
d="M444 113q70 -17 119 -68t49 -135q0 -107 -78.5 -169.5t-199.5 -62.5q-86 0 -155 39.5t-103 118.5l82 35q62 -104 172 -104q76 0 123 39.5t47 111.5q0 41 -18 71.5t-47 46t-59 23t-61 7.5h-47v84h60q60 0 104.5 36t44.5 99q0 60 -39 93.5t-100 33.5q-52 0 -92.5 -28.5
t-59.5 -74.5l-84 37q23 68 89.5 111t150.5 43q102 0 173 -56t71 -147q0 -69 -41.5 -115t-100.5 -63v-6z" />
    <glyph glyph-name="uni2084" unicode="&#x2084;" horiz-adv-x="737" 
d="M666 -47v-90h-131v-170h-109v170h-354v104l309 518h154v-532h131zM430 418q-19 -41 -57 -113l-213 -352h270v342q0 24 6 123h-6z" />
    <glyph glyph-name="uni2085" unicode="&#x2085;" horiz-adv-x="706" 
d="M369 211q104 0 175.5 -69.5t71.5 -194.5q0 -123 -82 -196t-192 -73q-91 0 -158.5 39t-101.5 111l80 41q59 -100 176 -100q68 0 117 47t49 129q0 84 -46.5 131t-115.5 47q-90 0 -147 -76l-86 16l63 422h412v-90h-330l-37 -239h8q55 55 144 55z" />
    <glyph glyph-name="uni2086" unicode="&#x2086;" horiz-adv-x="743" 
d="M408 209q101 0 173 -73t72 -187q0 -120 -77.5 -195.5t-192.5 -75.5q-129 0 -207 92.5t-78 292.5q0 210 94 323.5t232 113.5q130 0 209 -86l-55 -68q-64 64 -150 64q-96 0 -152.5 -76.5t-62.5 -229.5h4q22 44 72 74.5t119 30.5zM381 -231q70 0 115 48.5t45 125.5
t-46 126.5t-114 49.5q-70 0 -117 -49t-47 -127q0 -76 47 -125t117 -49z" />
    <glyph glyph-name="uni2087" unicode="&#x2087;" horiz-adv-x="638" 
d="M66 485h505v-94q-250 -253 -258 -698h-116q1 123 27.5 239t68.5 203.5t88 152t94 105.5v8q-58 -6 -110 -6h-299v90z" />
    <glyph glyph-name="uni2088" unicode="&#x2088;" horiz-adv-x="755" 
d="M498 98q164 -68 164 -198q0 -100 -77 -159.5t-212 -59.5q-126 0 -202.5 56t-76.5 152q0 143 164 215v7q-133 67 -133 184q0 94 72.5 150.5t183.5 56.5q107 0 179.5 -55.5t72.5 -147.5q0 -64 -36.5 -114.5t-98.5 -80.5v-6zM381 420q-65 0 -105 -32t-40 -87
q0 -56 39.5 -88.5t134.5 -73.5q116 60 116 158q0 58 -41.5 90.5t-103.5 32.5zM375 -233q85 0 130.5 33t45.5 94q0 24 -10 44.5t-24 35t-44.5 32.5t-54.5 29.5t-72 32.5q-143 -66 -143 -174q0 -60 45 -93.5t127 -33.5z" />
    <glyph glyph-name="uni2089" unicode="&#x2089;" horiz-adv-x="716" 
d="M348 508q122 0 200.5 -75t78.5 -204q0 -138 -100.5 -289.5t-243.5 -256.5l-82 49q185 151 274 323h-8q-51 -63 -152 -63q-105 0 -173 71.5t-68 180.5q0 115 79 189.5t195 74.5zM346 80q73 0 120.5 49.5t47.5 120.5q0 72 -45 120t-119 48q-73 0 -118.5 -49t-45.5 -125
q0 -70 40.5 -117t119.5 -47z" />
    <glyph glyph-name="colonmonetary" unicode="&#x20a1;" 
d="M1014 365q-93 -321 -355 -361l-24 -184h-94l24 180q-96 6 -166 41l-28 -221h-92l36 274q-202 169 -202 586q0 290 98.5 461.5t267.5 214.5l23 178h94l-21 -166h15q78 0 151 -25l25 191h94l-33 -236q127 -87 177 -266l-101 -31q-37 112 -92 173l-137 -1057q170 43 237 280
zM416 160q73 -54 162 -54l149 1127q-62 29 -139 29q-19 0 -27 -2zM236 680q0 -281 98 -432l131 987q-107 -49 -168 -189.5t-61 -365.5z" />
    <glyph glyph-name="uni20A6" unicode="&#x20a6;" 
d="M1092 795h-140v-211h140v-97h-140v-487h-166l-211 487h-301v-487h-114v487h-142v97h142v211h-142v96h142v477h166l202 -477h310v477h114v-477h140v-96zM268 1210q6 -58 6 -135v-184h129l-88 203q-29 76 -39 116h-8zM274 584h261l-91 211h-170v-211zM838 584v211h-269
l90 -211h179zM842 158q-4 94 -4 135v194h-138l91 -211q35 -88 45 -118h6z" />
    <glyph glyph-name="uni20A9" unicode="&#x20a9;" horiz-adv-x="1624" 
d="M1507 834h-166l-41 -211h207v-97h-225l-98 -526h-135l-105 526h-266l-103 -526h-133l-98 526h-227v97h209l-41 211h-168v96h149l-82 438h121l74 -438h285l86 438h124l89 -438h286l74 438h119l-82 -438h147v-96zM807 1223q-7 -69 -14 -105l-37 -188h108l-37 188
q-7 42 -14 105h-6zM395 834l37 -211h172l41 211h-250zM696 623h230l-43 211h-146zM1198 623l37 211h-254l43 -211h174zM530 248l56 278h-137l47 -276q12 -65 14 -100h6q9 66 14 98zM1137 250l47 276h-142l56 -274q11 -58 16 -100h6q2 13 17 98z" />
    <glyph glyph-name="uni20AA" unicode="&#x20aa;" horiz-adv-x="1527" 
d="M641 1001q114 0 181.5 -16t106.5 -58.5t51.5 -103t12.5 -164.5v-286h-114v270q0 59 -2.5 95t-12 67.5t-24 47.5t-42.5 27.5t-64 15t-91 3.5h-326v-899h-118v1001h442zM721 0h-178v631h116v-529h64q156 0 256.5 28.5t164.5 98.5t90 179t26 278v315h120v-315
q0 -194 -35 -323.5t-115 -211t-202.5 -116.5t-306.5 -35z" />
    <glyph glyph-name="dong" unicode="&#x20ab;" 
d="M827 1245h154v-98h-154v-940h-114v143h-8q-68 -160 -232 -160q-144 0 -236 111.5t-92 300.5q0 192 90.5 304t231.5 112q170 0 238 -154h6v283h-322v98h322v152h116v-152zM487 287q103 0 164.5 83t61.5 234q0 150 -62 233t-164 83q-100 0 -161.5 -83t-61.5 -235
q0 -151 61.5 -233t161.5 -82zM156 0v96h764v-96h-764z" />
    <glyph glyph-name="Euro" unicode="&#x20ac;" 
d="M954 338l103 -33q-108 -330 -402 -330q-171 0 -292.5 131.5t-157.5 380.5h-154v97h146q-4 66 -4 100q0 41 4 111h-146v96h156q37 245 157.5 373.5t290.5 128.5q282 0 387 -318l-100 -33q-42 131 -112.5 188.5t-167.5 57.5q-126 0 -213 -100.5t-119 -296.5h422v-96h-433
q-4 -70 -4 -111q0 -34 4 -100h433v-97h-424q30 -200 118 -303.5t216 -103.5q103 0 175.5 60.5t116.5 197.5z" />
    <glyph glyph-name="uni20AD" unicode="&#x20ad;" 
d="M911 0l-561 659h-37v-659h-123v659h-127v97h127v612h123v-612h45l506 612h140l-515 -612h439v-97h-426l567 -659h-158z" />
    <glyph glyph-name="uni20AE" unicode="&#x20ae;" 
d="M1004 1268h-386v-361l259 97v-105l-259 -94v-225l259 94v-103l-259 -94v-477h-120v440l-260 -96v105l260 94v225l-260 -94v102l260 96v396h-387v100h893v-100z" />
    <glyph glyph-name="uni20B1" unicode="&#x20b1;" 
d="M1081 1116v-96h-143q4 -46 4 -72q0 -27 -4 -67h143v-97h-161q-40 -129 -146 -193.5t-258 -64.5h-211v-526h-121v784h-143v97h143v139h-143v96h143v252h332q152 0 257 -63t145 -189h163zM508 1272h-203v-156h486q-64 156 -283 156zM819 948q0 26 -4 72h-510v-139h510
q4 40 4 67zM508 623q221 0 285 161h-488v-161h203z" />
    <glyph glyph-name="uni20B2" unicode="&#x20b2;" 
d="M1008 670v-514q-154 -145 -379 -156v-180h-101v184q-199 21 -314.5 188.5t-115.5 491.5q0 310 113 483t317 197v170h101v-168q257 -15 377 -270l-97 -54q-53 110 -121 162t-159 58v-1158q151 6 260 101v364h-170v101h289zM223 684q0 -259 79 -401t226 -172v1146
q-145 -25 -225 -170t-80 -403z" />
    <glyph glyph-name="uni20B4" unicode="&#x20b4;" 
d="M782 795q-178 -108 -325 -205v-6h573v-97h-676q-57 -78 -57 -178q0 -102 69.5 -165.5t204.5 -63.5q90 0 184 39t165 117l65 -80q-172 -181 -420 -181q-179 0 -284 87.5t-105 244.5q0 104 47 180h-147v97h213q33 27 79 59t70 48t86.5 55.5t65.5 41.5v7h-514v96h635
q86 82 86 182q0 97 -61 156t-169 59q-179 0 -319 -137l-64 80q162 162 383 162q165 0 258 -86.5t93 -223.5q0 -115 -68 -192h180v-96h-248z" />
    <glyph glyph-name="uni20B5" unicode="&#x20b5;" 
d="M1014 365q-99 -344 -385 -363v-182h-101v184q-193 24 -304 196t-111 480q0 311 112.5 485.5t302.5 198.5v170h101v-168q133 -9 232 -93t143 -241l-101 -31q-41 128 -109.5 188.5t-164.5 70.5v-1151q100 11 171 79.5t111 208.5zM238 680q0 -254 78.5 -397.5t211.5 -169.5
v1142q-134 -26 -212 -171.5t-78 -403.5z" />
    <glyph glyph-name="uni20B8" unicode="&#x20b8;" 
d="M106 1368h895v-100h-895v100zM106 958v99h895v-99h-385v-958h-122v958h-388z" />
    <glyph glyph-name="uni20B9" unicode="&#x20b9;" 
d="M1004 1268h-386v-6q77 -31 129 -96.5t66 -161.5h191v-97h-185q-12 -297 -334 -366l398 -541h-156l-371 522q-27 -2 -88 -2h-78v101h68q225 0 326.5 72.5t109.5 213.5h-583v97h577q-42 264 -457 264h-120v100h893v-100z" />
    <glyph glyph-name="uni20BA" unicode="&#x20ba;" 
d="M301 0v483l-197 -71v102l197 74v223l-197 -74v105l197 71v455h121v-428l321 119v-103l-321 -116v-226l321 119v-102l-321 -117v-405q206 5 326 99.5t176 309.5l112 -39q-62 -239 -213.5 -359t-419.5 -120h-102z" />
    <glyph glyph-name="uni20BC" unicode="&#x20bc;" horiz-adv-x="1552" 
d="M827 1165q102 -8 190 -44.5t166.5 -112.5t134 -186t88 -272.5t32.5 -363.5v-186h-121v180q0 179 -26 324t-71 244t-108 167.5t-133.5 103t-151.5 42.5v-979h-108v977q-81 -10 -151 -45.5t-132 -105t-105.5 -168.5t-69 -242t-25.5 -318v-180h-121v186q0 201 32 363.5
t87 272t133 185.5t164.5 113t187.5 45v228h108v-228z" />
    <glyph glyph-name="uni20BD" unicode="&#x20bd;" 
d="M586 580h-232v-201h404v-96h-404v-283h-121v283h-143v96h143v203h-143v98h143v688h353q204 0 325 -100t121 -293t-121.5 -294t-324.5 -101zM580 1270h-226v-590h224q164 0 246.5 71t82.5 224q0 151 -82.5 223t-244.5 72z" />
    <glyph glyph-name="uni20BF" unicode="&#x20bf;" 
d="M981 373q0 -146 -71 -233.5t-197 -119.5v-200h-97v184q-50 -4 -75 -4h-99v-180h-96v180h-180v1368h180v166h96v-166h105q23 0 69 -4v170h97v-188q107 -35 165 -118t58 -212q0 -224 -211 -293v-12q256 -74 256 -338zM539 1268h-252v-514h217q311 0 311 254
q0 135 -66.5 197.5t-209.5 62.5zM526 100q58 0 104 7t90 26t73.5 49.5t47 80.5t17.5 116q0 146 -88 211t-256 65h-227v-555h239z" />
    <glyph glyph-name="uni2113" unicode="&#x2113;" horiz-adv-x="858" 
d="M717 205l67 -68q-43 -70 -118.5 -115t-171.5 -45q-124 0 -189 60.5t-65 210.5v176q-76 -41 -138 -66l-34 95q99 42 172 84v462q0 233 53 332q66 117 209 117q103 0 169 -76.5t66 -232.5q0 -394 -377 -643v-222q0 -110 33.5 -153t110.5 -43q67 0 123.5 37t89.5 90z
M360 999v-383q79 60 132 126t79.5 135t36.5 130.5t10 135.5q0 205 -114 205q-68 0 -107 -68q-37 -70 -37 -281z" />
    <glyph glyph-name="uni2116" unicode="&#x2116;" horiz-adv-x="2068" 
d="M1632 633q-141 0 -227 101.5t-86 271.5q0 171 86 271.5t227 100.5t227.5 -100.5t86.5 -271.5q0 -170 -86.5 -271.5t-227.5 -101.5zM211 0v1368h156l610 -1102q39 -73 55 -110h6q-4 86 -4 133v1079h121v-1368h-154l-612 1102q-42 78 -55 110h-6q4 -70 4 -133v-1079h-121z
M1632 725q92 0 144.5 73.5t52.5 207.5t-52.5 207t-144.5 73q-93 0 -145.5 -73t-52.5 -207t52.5 -207.5t145.5 -73.5zM1923 510v-96h-582v96h582z" />
    <glyph glyph-name="uni2117" unicode="&#x2117;" horiz-adv-x="1552" 
d="M778 1389q139 0 258 -49.5t205.5 -139.5t135 -223.5t48.5 -294.5t-48.5 -294.5t-135 -223t-205.5 -138.5t-258 -49q-140 0 -260 49t-206.5 138.5t-135.5 223t-49 294.5t49 294.5t135.5 223.5t206.5 139.5t260 49.5zM778 70q245 0 397 165t152 447t-152 449t-397 167
q-246 0 -399.5 -167t-153.5 -449t153 -447t400 -165zM803 1104q139 0 218 -62t79 -186q0 -123 -79 -185.5t-218 -62.5h-139v-344h-111v840h250zM799 696q99 0 144.5 39t45.5 121q0 83 -45 121.5t-145 38.5h-135v-320h135z" />
    <glyph glyph-name="uni2120" unicode="&#x2120;" horiz-adv-x="1677" 
d="M188 778q39 -42 97 -65t112 -23q75 0 120.5 30.5t45.5 86.5q0 53 -35.5 82.5t-103.5 56.5l-94 39q-166 64 -166 203q0 84 65 140t170 56q147 0 244 -94l-51 -65q-78 75 -186 75q-67 0 -104.5 -31t-37.5 -77q0 -26 11 -47.5t31 -37t37 -24t40 -18.5l98 -41
q36 -14 62.5 -29t57 -39.5t47 -60.5t16.5 -80q0 -100 -74 -155.5t-191 -55.5q-159 0 -264 111zM788 614v754h158l178 -563q10 -37 17 -76h8q3 36 14 76l178 563h158v-754h-98v560q0 42 4 108h-6l-31 -104l-180 -564h-94l-179 566q-16 53 -28 102h-6q4 -62 4 -108v-560h-97z
" />
    <glyph glyph-name="trademark" unicode="&#x2122;" horiz-adv-x="1568" 
d="M608 1368v-84h-217v-670h-100v670h-215v84h532zM1233 1368h158v-754h-101v560q0 42 4 108h-6q-13 -54 -28 -104l-181 -564h-94l-180 566q-11 36 -27 102h-6q4 -62 4 -108v-560h-98v754h160l176 -563q13 -47 18 -76h6q5 34 17 76z" />
    <glyph glyph-name="uni2126" unicode="&#x2126;" horiz-adv-x="1415" 
d="M133 0v100h311v6q-127 96 -213 261.5t-86 375.5q0 157 44.5 282.5t121.5 204.5t178 121t218 42t218 -42t178 -121t121 -204.5t44 -282.5q0 -211 -85.5 -376t-213.5 -261v-6h311v-100h-436v104q136 109 217.5 265.5t81.5 357.5q0 138 -34 246.5t-93.5 176t-138 102
t-170.5 34.5t-170 -34.5t-138 -102t-93.5 -176t-33.5 -246.5q0 -201 81.5 -357.5t215.5 -265.5v-104h-436z" />
    <glyph glyph-name="estimated" unicode="&#x212e;" horiz-adv-x="1411" 
d="M1286 670h-940v-428q65 -90 170 -139.5t234 -49.5q151 0 259 57t195 191l64 -49q-103 -154 -229.5 -213t-288.5 -59q-286 0 -453.5 189t-167.5 511t166 515.5t426 193.5q266 0 416.5 -175.5t150.5 -468.5q0 -46 -2 -75zM721 1315q-117 0 -214 -50t-161 -139v-385h725v424
q-131 150 -350 150z" />
    <glyph glyph-name="uni2153" unicode="&#x2153;" horiz-adv-x="1603" 
d="M479 575h-381v91h142v526q-52 -32 -142 -35v88q146 9 164 123h86v-702h131v-91zM1110 1368h127l-825 -1368h-125zM1339 420q70 -17 119 -68t49 -135q0 -107 -78.5 -169t-199.5 -62q-86 0 -155 39.5t-103 117.5l82 35q62 -104 172 -104q76 0 123 39.5t47 111.5
q0 41 -18 71.5t-47 46t-59 23t-61 7.5h-47v84h60q60 0 104.5 36t44.5 99q0 60 -39 93.5t-100 33.5q-52 0 -92.5 -28.5t-59.5 -74.5l-84 37q23 68 89.5 111t150.5 43q102 0 173 -56t71 -147q0 -69 -41.5 -115t-100.5 -63v-6z" />
    <glyph glyph-name="uni2154" unicode="&#x2154;" horiz-adv-x="1724" 
d="M612 666v-91h-522v87q234 182 316.5 281t82.5 198q0 66 -37 108.5t-104 42.5q-64 0 -102.5 -39t-38.5 -106h-107q0 107 70.5 171t179.5 64q115 0 183.5 -65.5t68.5 -173.5q0 -62 -22 -117t-72.5 -113t-117.5 -114t-171 -131v-6q35 4 111 4h282zM1231 1368h127l-826 -1368
h-124zM1460 420q70 -17 119 -68t49 -135q0 -107 -78.5 -169t-199.5 -62q-86 0 -155 39.5t-103 117.5l82 35q62 -104 172 -104q76 0 123 39.5t47 111.5q0 41 -18 71.5t-47 46t-59 23t-61 7.5h-47v84h59q60 0 105 36.5t45 98.5q0 60 -39 93.5t-100 33.5q-52 0 -92.5 -28.5
t-59.5 -74.5l-84 37q23 68 89.5 111t150.5 43q102 0 173 -56t71 -147q0 -69 -41.5 -115t-100.5 -63v-6z" />
    <glyph glyph-name="arrowleft" unicode="&#x2190;" horiz-adv-x="1363" 
d="M1257 688v-102h-985l330 -320l-74 -73l-442 444l442 442l74 -71l-330 -320h985z" />
    <glyph glyph-name="arrowup" unicode="&#x2191;" horiz-adv-x="956" 
d="M895 799l-72 -72l-295 309v-882h-100v884l-295 -311l-74 72l418 418z" />
    <glyph glyph-name="arrowright" unicode="&#x2192;" horiz-adv-x="1363" 
d="M834 1079l444 -442l-444 -444l-74 73l330 320h-984v102h984l-328 320z" />
    <glyph glyph-name="arrowdown" unicode="&#x2193;" horiz-adv-x="999" 
d="M870 571l74 -73l-444 -445l-445 445l74 73l317 -331v966h105v-964z" />
    <glyph glyph-name="uni2196" unicode="&#x2196;" horiz-adv-x="1112" 
d="M1042 240l-73 -72l-721 723l8 -492h-104v660h657v-105l-487 7z" />
    <glyph glyph-name="uni2197" unicode="&#x2197;" horiz-adv-x="1112" 
d="M303 1059h658v-660h-103l6 492l-721 -723l-73 72l721 721l-488 -7v105z" />
    <glyph glyph-name="uni2198" unicode="&#x2198;" horiz-adv-x="1134" 
d="M864 887h105v-660h-658v105l488 -6l-721 721l74 71l720 -723z" />
    <glyph glyph-name="uni2199" unicode="&#x2199;" horiz-adv-x="1134" 
d="M1057 1047l-721 -721l487 6v-105h-655v660h102l-6 -492l721 723z" />
    <glyph glyph-name="partialdiff" unicode="&#x2202;" horiz-adv-x="1105" 
d="M227 1448q172 0 303.5 -47.5t214 -126.5t134.5 -195t72 -240.5t20 -275.5q0 -294 -111.5 -438.5t-322.5 -144.5q-194 0 -311 138t-117 365q0 225 111.5 359.5t301.5 134.5q211 0 312 -168l4 2q-20 125 -64 220.5t-118 167t-186.5 109.5t-260.5 40zM543 80
q139 0 221 109.5t82 304.5q0 177 -82.5 281t-220.5 104q-141 0 -224 -106.5t-83 -295.5q0 -186 83 -291.5t224 -105.5z" />
    <glyph glyph-name="emptyset" unicode="&#x2205;" horiz-adv-x="1654" 
d="M1364 1141q154 -193 154 -457q0 -148 -52 -279t-142.5 -226t-219 -150.5t-275.5 -55.5q-269 0 -460 172l-156 -155l-74 71l158 158q-160 197 -160 465q0 197 89 359.5t248 256t355 93.5q272 0 467 -179l142 142l71 -70zM250 684q0 -220 125 -387l846 842
q-161 151 -392 151q-164 0 -297 -79.5t-207.5 -218t-74.5 -308.5zM829 76q165 0 297.5 80.5t205.5 219t73 308.5q0 219 -119 379l-842 -842q161 -145 385 -145z" />
    <glyph glyph-name="uni2206" unicode="&#x2206;" horiz-adv-x="1247" 
d="M698 1368l473 -1284v-84h-1095v84l475 1284h147zM582 1128l-381 -1026h835l-372 1022q-10 25 -39 125h-7q-16 -62 -36 -121z" />
    <glyph glyph-name="product" unicode="&#x220f;" horiz-adv-x="1331" 
d="M1120 1368v-1593h-125v1489h-659v-1489h-125v1593h909z" />
    <glyph glyph-name="summation" unicode="&#x2211;" horiz-adv-x="1019" 
d="M934 1368v-102h-711l410 -695l-410 -694h711v-102h-838v110l404 686l-404 686v111h838z" />
    <glyph glyph-name="minus" unicode="&#x2212;" 
d="M135 561v107h838v-107h-838z" />
    <glyph glyph-name="uni2219" unicode="&#x2219;" 
d="M555 524q-39 0 -64.5 25.5t-25.5 64.5q0 40 25.5 66.5t64.5 26.5t64.5 -26.5t25.5 -66.5q0 -39 -25.5 -64.5t-64.5 -25.5z" />
    <glyph glyph-name="radical" unicode="&#x221a;" horiz-adv-x="1040" 
d="M862 1673h125l-381 -2050h-139l-260 787h-182v96h272l199 -617q5 -18 30 -125h6l27 170z" />
    <glyph glyph-name="infinity" unicode="&#x221e;" horiz-adv-x="1470" 
d="M1053 909q111 0 196.5 -77t85.5 -214q0 -70 -25 -127t-65.5 -91.5t-89.5 -53t-100 -18.5q-104 0 -176.5 48.5t-143.5 151.5q-73 -103 -144.5 -151.5t-174.5 -48.5q-113 0 -198 76.5t-85 213.5t85 214t198 77q102 0 174 -49t145 -153q71 103 143 152.5t175 49.5zM418 428
q77 0 133 43t125 147q-69 104 -125 147.5t-133 43.5q-72 0 -124 -52.5t-52 -138.5q0 -87 51.5 -138.5t124.5 -51.5zM1053 428q72 0 123 51.5t51 138.5t-51 139t-123 52q-79 0 -135 -43t-125 -148q69 -104 125 -147t135 -43z" />
    <glyph glyph-name="integral" unicode="&#x222b;" horiz-adv-x="692" 
d="M528 1673q78 0 140 -18v-99q-73 17 -127 17q-72 0 -105 -42t-33 -134v-1524q0 -128 -65 -194t-176 -66q-73 0 -139 16v101q73 -17 127 -17q72 0 104.5 42t32.5 134v1524q0 128 65.5 194t175.5 66z" />
    <glyph glyph-name="congruent" unicode="&#x2245;" 
d="M762 1108q-101 0 -238 96q-112 78 -174 78q-53 0 -89 -34t-48 -130h-98q24 271 231 271q21 0 43.5 -5t37.5 -9t42 -18t34.5 -18.5t39.5 -23.5t35 -21q39 -26 62.5 -40t56 -27t59.5 -13q25 0 44.5 6t39.5 22.5t34.5 50t20.5 83.5h98q-6 -73 -28.5 -127t-55.5 -83.5
t-69.5 -43.5t-77.5 -14zM115 774v105h878v-105h-878zM115 352v105h878v-105h-878z" />
    <glyph glyph-name="approxequal" unicode="&#x2248;" 
d="M774 684q-45 0 -89.5 14.5t-71 29t-71.5 43.5q-3 2 -5 3t-4.5 3t-4.5 3q-73 45 -110 61.5t-80 16.5q-52 0 -88.5 -34t-50.5 -128h-103q13 143 78 207t162 64q43 0 91.5 -17t76.5 -33t78 -47q46 -30 64.5 -41t54.5 -23.5t73 -12.5q53 0 90 32.5t51 126.5h105
q-14 -140 -82.5 -204t-163.5 -64zM776 291q-19 0 -37.5 2.5t-33 5.5t-34 11t-29.5 12t-30.5 15.5t-27.5 15.5t-29 17.5t-27 16.5q-74 46 -109.5 62t-78.5 16q-25 0 -44.5 -6t-39.5 -22.5t-34.5 -50t-20.5 -83.5h-105q14 143 79 206.5t163 63.5q42 0 89.5 -16.5t76.5 -33
t78 -46.5q9 -6 31.5 -19.5t32 -19t28 -15t31.5 -13.5t31.5 -7.5t37.5 -3.5q54 0 91.5 33t49.5 127h105q-14 -140 -82 -204t-162 -64z" />
    <glyph glyph-name="uni2259" unicode="&#x2259;" 
d="M557 1372l-219 -340h-119l301 469h72l301 -469h-117zM115 870h880v-104h-880v104zM115 360v105h880v-105h-880z" />
    <glyph glyph-name="notequal" unicode="&#x2260;" 
d="M995 774h-313l-158 -317h471v-105h-522l-127 -256h-104l127 256h-252v105h303l155 317h-458v105h510l114 231h109l-115 -231h260v-105z" />
    <glyph glyph-name="lessequal" unicode="&#x2264;" 
d="M973 1167v-118l-727 -322l727 -321v-121l-850 383v118zM127 29v104h846v-104h-846z" />
    <glyph glyph-name="greaterequal" unicode="&#x2265;" 
d="M137 1167l850 -381v-118l-850 -383v121l725 321l-725 322v118zM137 29v104h846v-104h-846z" />
    <glyph glyph-name="dotmath" unicode="&#x22c5;" 
d="M555 524q-39 0 -64.5 25.5t-25.5 64.5q0 40 25.5 66.5t64.5 26.5t64.5 -26.5t25.5 -66.5q0 -39 -25.5 -64.5t-64.5 -25.5z" />
    <glyph glyph-name="uni2300" unicode="&#x2300;" 
d="M1030 1014l-121 -121q92 -123 92 -289q0 -203 -130 -334t-320 -131q-167 0 -291 105l-108 -109l-70 72l111 110q-93 124 -93 287q0 204 130 334.5t321 130.5q170 0 291 -102l116 118zM551 971q-143 0 -241.5 -104t-98.5 -263q0 -120 57 -211l498 498q-93 80 -215 80z
M551 238q142 0 242 104.5t100 261.5q0 119 -59 213l-500 -500q91 -79 217 -79z" />
    <glyph glyph-name="filledbox" unicode="&#x25a0;" horiz-adv-x="1783" 
d="M209 1368h1368v-1368h-1368v1368z" />
    <glyph glyph-name="uni25A1" unicode="&#x25a1;" horiz-adv-x="1783" 
d="M209 0v1368h1368v-1368h-1368zM309 94h1166v1180h-1166v-1180z" />
    <glyph glyph-name="triagup" unicode="&#x25b2;" horiz-adv-x="1552" 
d="M776 1403l744 -1403h-1487z" />
    <glyph glyph-name="uni25B3" unicode="&#x25b3;" horiz-adv-x="1552" 
d="M776 1403l744 -1403h-1487zM1360 94l-584 1098l-581 -1098h1165z" />
    <glyph glyph-name="uni25B4" unicode="&#x25b4;" horiz-adv-x="772" 
d="M385 989l324 -571h-646z" />
    <glyph glyph-name="uni25B8" unicode="&#x25b8;" horiz-adv-x="772" 
d="M713 705l-572 -324v645z" />
    <glyph glyph-name="triagdn" unicode="&#x25bc;" horiz-adv-x="1552" 
d="M776 -35l-743 1403h1487z" />
    <glyph glyph-name="uni25BD" unicode="&#x25bd;" horiz-adv-x="1552" 
d="M33 1368h1487l-744 -1403zM1360 1274h-1165l581 -1098z" />
    <glyph glyph-name="uni25BE" unicode="&#x25be;" horiz-adv-x="772" 
d="M385 397l-322 572h646z" />
    <glyph glyph-name="uni25C2" unicode="&#x25c2;" horiz-adv-x="772" 
d="M59 702l572 324v-645z" />
    <glyph glyph-name="lozenge" unicode="&#x25ca;" 
d="M590 1393l457 -697l-457 -696h-70l-457 696l457 697h70zM555 1262l-367 -566l367 -565l365 565z" />
    <glyph glyph-name="circle" unicode="&#x25cb;" horiz-adv-x="1638" 
d="M821 -59q-206 0 -372 97.5t-258.5 267.5t-92.5 378t92.5 377.5t258.5 266.5t372 97t371 -97.5t256.5 -266.5t91.5 -377t-91.5 -377.5t-256.5 -267.5t-371 -98zM821 35q179 0 320 86t218 233.5t77 329.5t-77 329.5t-218 232.5t-320 85t-321 -85t-219.5 -232.5
t-77.5 -329.5q0 -181 77.5 -329t219.5 -234t321 -86z" />
    <glyph glyph-name="uni25CF" unicode="&#x25cf;" horiz-adv-x="1638" 
d="M821 -59q-206 0 -372 97.5t-258.5 267.5t-92.5 378t92.5 377.5t258.5 266.5t372 97t371 -97.5t256.5 -266.5t91.5 -377t-91.5 -377.5t-256.5 -267.5t-371 -98z" />
    <glyph glyph-name="fi" unicode="&#xfb01;" horiz-adv-x="1159" 
d="M254 1188q0 128 66.5 194t179.5 66q78 0 139 -18v-99q-73 17 -125 17q-73 0 -105 -42t-32 -135v-170h246v-96h-246v-905h-123v905h-195v96h195v187zM918 1421q40 0 66 -26.5t26 -67.5q0 -40 -26 -66t-66 -26q-41 0 -68 26t-27 66q0 41 27 67.5t68 26.5zM856 0v1001h121
v-1001h-121z" />
    <glyph glyph-name="fl" unicode="&#xfb02;" horiz-adv-x="1187" 
d="M254 1188q0 128 66.5 194t179.5 66q78 0 139 -18v-99q-73 17 -125 17q-73 0 -105 -42t-32 -135v-170h246v-96h-246v-905h-123v905h-195v96h195v187zM1051 80q45 0 75 10v-94q-40 -16 -110 -16q-73 0 -118.5 39.5t-45.5 125.5v1278h121v-1249q0 -94 78 -94z" />
    <glyph glyph-name="uniFEFF" unicode="&#xfeff;" horiz-adv-x="0" 
 />
    <glyph glyph-name="NULL" horiz-adv-x="0" 
 />
    <glyph glyph-name="uni00A40301" horiz-adv-x="692" 
d="M346 1550l168 287h141l-198 -287h-111zM178 -236q-117 0 -176 25v109q64 -29 156 -29q102 0 151 57t49 176v1266h125v-1290q0 -153 -83 -233.5t-222 -80.5z" />
    <glyph glyph-name="L_periodcentered.latnCAT" horiz-adv-x="1028" 
d="M334 104h606v-104h-731v1368h125v-1264zM780 635q-39 0 -64.5 25.5t-25.5 64.5q0 40 25 66t65 26t65 -26t25 -66q0 -39 -25.5 -64.5t-64.5 -25.5z" />
    <glyph glyph-name="i.loclTRK" horiz-adv-x="485" 
d="M244 1235q-41 0 -67.5 26t-26.5 66q0 41 26.5 67.5t67.5 26.5q40 0 66 -26.5t26 -67.5q0 -40 -26 -66t-66 -26zM182 1001h121v-1001h-121v1001z" />
    <glyph glyph-name="uni006A0301" horiz-adv-x="499" 
d="M182 1180l199 346h139l-231 -346h-107zM80 -387q-82 0 -146 18v103q74 -21 123 -21q74 0 107 42.5t33 138.5v1107h122v-1134q0 -131 -63.5 -192.5t-175.5 -61.5z" />
    <glyph glyph-name="l_periodcentered.latnCAT" horiz-adv-x="655" 
d="M453 90v-94q-40 -16 -111 -16q-73 0 -118.5 39.5t-45.5 125.5v1278h121v-1249q0 -94 78 -94q46 0 76 10zM565 635q-38 0 -63 26t-25 64q0 40 25 66t63 26q40 0 65 -26t25 -66q0 -39 -25.5 -64.5t-64.5 -25.5z" />
    <glyph glyph-name="uni01F2.sc" horiz-adv-x="2263" 
d="M578 1368q136 0 247.5 -38.5t198.5 -118t135.5 -214t48.5 -313.5t-48.5 -313.5t-135.5 -214t-198.5 -118t-247.5 -38.5h-369v1368h369zM565 104q117 0 209.5 32.5t162.5 100t107 181t37 266.5t-37 266.5t-107 181t-162.5 100t-209.5 32.5h-231v-1160h231zM1571 100h592
v-100h-725v109l590 847h-568v101h701v-109z" />
    <glyph glyph-name="uni01C5.sc" horiz-adv-x="2263" 
d="M1853 1237h-100l-250 303h115l186 -213l185 213h114zM578 1368q136 0 247.5 -38.5t198.5 -118t135.5 -214t48.5 -313.5t-48.5 -313.5t-135.5 -214t-198.5 -118t-247.5 -38.5h-369v1368h369zM565 104q117 0 209.5 32.5t162.5 100t107 181t37 266.5t-37 266.5t-107 181
t-162.5 100t-209.5 32.5h-231v-1160h231zM1571 100h592v-100h-725v109l590 847h-568v101h701v-109z" />
    <glyph glyph-name="uni01C8.sc" horiz-adv-x="1628" 
d="M334 1368v-1264h606v-104h-731v1368h125zM1319 1057h123v-989q0 -122 -71.5 -186t-190.5 -64q-89 0 -146 20v103q54 -21 123 -21q162 0 162 166v971z" />
    <glyph glyph-name="uni01CB.sc" horiz-adv-x="1968" 
d="M209 0v1368h153l611 -1102q29 -50 55 -110h6q-4 86 -4 133v1079h121v-1368h-154l-612 1102q-51 104 -53 110h-8q6 -52 6 -133v-1079h-121zM1520 -182q-89 0 -146 20v103q54 -21 123 -21q162 0 162 166v971h123v-989q0 -122 -71.5 -186t-190.5 -64z" />
    <glyph glyph-name="a.sc" horiz-adv-x="1050" 
d="M848 0l-96 276h-463l-99 -276h-120l383 1057h143l383 -1057h-131zM324 379h393l-162 465q-20 55 -29 112h-6q-12 -51 -31 -108z" />
    <glyph glyph-name="aacute.sc" horiz-adv-x="1050" 
d="M786 1583l-231 -346h-106l198 346h139zM848 0l-96 276h-463l-99 -276h-120l383 1057h143l383 -1057h-131zM324 379h393l-162 465q-20 55 -29 112h-6q-12 -51 -31 -108z" />
    <glyph glyph-name="abreve.sc" horiz-adv-x="1050" 
d="M524 1231q-122 0 -199 76t-89 221h96q32 -195 192 -195q163 0 195 195h96q-13 -145 -91 -221t-200 -76zM848 0l-96 276h-463l-99 -276h-120l383 1057h143l383 -1057h-131zM324 379h393l-162 465q-20 55 -29 112h-6q-12 -51 -31 -108z" />
    <glyph glyph-name="uni01CE.sc" horiz-adv-x="1050" 
d="M575 1235h-102l-248 305h115l186 -213l185 213h112zM848 0l-96 276h-463l-99 -276h-120l383 1057h143l383 -1057h-131zM324 379h393l-162 465q-20 55 -29 112h-6q-12 -51 -31 -108z" />
    <glyph glyph-name="acircumflex.sc" horiz-adv-x="1050" 
d="M526 1448l-186 -213h-115l248 305h102l248 -305h-112zM848 0l-96 276h-463l-99 -276h-120l383 1057h143l383 -1057h-131zM324 379h393l-162 465q-20 55 -29 112h-6q-12 -51 -31 -108z" />
    <glyph glyph-name="adieresis.sc" horiz-adv-x="1050" 
d="M336 1292q-40 0 -65 26t-25 66t25.5 67.5t64.5 27.5q41 0 66.5 -27.5t25.5 -67.5t-25.5 -66t-66.5 -26zM713 1292q-40 0 -66 26t-26 66t26.5 67.5t65.5 27.5t64.5 -27.5t25.5 -67.5t-25 -66t-65 -26zM848 0l-96 276h-463l-99 -276h-120l383 1057h143l383 -1057h-131z
M324 379h393l-162 465q-20 55 -29 112h-6q-12 -51 -31 -108z" />
    <glyph glyph-name="ae.sc" horiz-adv-x="1507" 
d="M866 100h512v-100h-633v260h-423l-164 -260h-135l673 1057h672v-101h-502v-362h473v-98h-473v-396zM381 356h364v492q0 32 5 100h-7q-9 -17 -25.5 -48.5t-25.5 -47.5z" />
    <glyph glyph-name="agrave.sc" horiz-adv-x="1050" 
d="M602 1237h-106l-232 346h139zM848 0l-96 276h-463l-99 -276h-120l383 1057h143l383 -1057h-131zM324 379h393l-162 465q-20 55 -29 112h-6q-12 -51 -31 -108z" />
    <glyph glyph-name="amacron.sc" horiz-adv-x="1050" 
d="M815 1401v-94h-582v94h582zM848 0l-96 276h-463l-99 -276h-120l383 1057h143l383 -1057h-131zM324 379h393l-162 465q-20 55 -29 112h-6q-12 -51 -31 -108z" />
    <glyph glyph-name="aogonek.sc" horiz-adv-x="1050" 
d="M946 -223l64 -62q-76 -102 -193 -102q-84 0 -138 45.5t-54 118.5q0 123 166 239l40 29l-79 231h-463l-99 -276h-120l383 1057h143l383 -1057h-92q-148 -109 -148 -201q0 -42 25 -66t67 -24q34 0 59.5 16.5t55.5 51.5zM324 379h393l-162 465q-20 55 -29 112h-6
q-12 -51 -31 -108z" />
    <glyph glyph-name="aring.sc" horiz-adv-x="1050" 
d="M522 1204q-96 0 -159.5 59.5t-63.5 147.5q0 89 63 149t160 60t161.5 -60.5t64.5 -148.5t-64.5 -147.5t-161.5 -59.5zM522 1542q-57 0 -92 -38.5t-35 -92.5q0 -53 37 -91t90 -38q55 0 92 37.5t37 91.5q0 55 -36 93t-93 38zM848 0l-96 276h-463l-99 -276h-120l383 1057h143
l383 -1057h-131zM324 379h393l-162 465q-20 55 -29 112h-6q-12 -51 -31 -108z" />
    <glyph glyph-name="atilde.sc" horiz-adv-x="1050" 
d="M399 1403q-33 0 -55 -32.5t-27 -121.5h-88q2 63 15 111.5t31.5 76.5t42.5 45.5t45 23t43 5.5q37 0 68.5 -16.5t47.5 -33.5t39 -48q52 -67 88 -67q32 0 52 30.5t30 122.5h88q-3 -78 -21 -133.5t-46 -81.5t-54 -36.5t-55 -10.5q-38 0 -71 18t-48 34t-41 50q-23 32 -41.5 48
t-42.5 16zM848 0l-96 276h-463l-99 -276h-120l383 1057h143l383 -1057h-131zM324 379h393l-162 465q-20 55 -29 112h-6q-12 -51 -31 -108z" />
    <glyph glyph-name="b.sc" horiz-adv-x="1038" 
d="M700 555q102 -29 160 -94.5t58 -167.5q0 -74 -30 -131.5t-82.5 -92t-119.5 -52t-145 -17.5h-353v1057h330q156 0 255 -71.5t99 -199.5q0 -167 -172 -227v-4zM516 956h-205v-364h205q110 0 173 45t63 139q0 90 -63.5 135t-172.5 45zM526 100q267 0 267 197q0 199 -267 199
h-215v-396h215z" />
    <glyph glyph-name="c.sc" horiz-adv-x="1073" 
d="M250 528q0 -218 93.5 -332t238.5 -114q222 0 297 225l98 -39q-48 -146 -151 -217t-248 -71q-196 0 -324.5 144t-128.5 404t128.5 404.5t324.5 144.5q138 0 240 -67.5t147 -198.5l-97 -37q-76 201 -286 201q-146 0 -239 -114t-93 -333z" />
    <glyph glyph-name="cacute.sc" horiz-adv-x="1073" 
d="M502 1237l198 346h140l-232 -346h-106zM250 528q0 -218 93.5 -332t238.5 -114q222 0 297 225l98 -39q-48 -146 -151 -217t-248 -71q-196 0 -324.5 144t-128.5 404t128.5 404.5t324.5 144.5q138 0 240 -67.5t147 -198.5l-97 -37q-76 201 -286 201q-146 0 -239 -114
t-93 -333z" />
    <glyph glyph-name="ccaron.sc" horiz-adv-x="1073" 
d="M629 1235h-103l-247 305h114l187 -213l184 213h113zM879 307l98 -39q-48 -146 -151 -217t-248 -71q-196 0 -324.5 144t-128.5 404t128.5 404.5t324.5 144.5q138 0 240 -67.5t147 -198.5l-97 -37q-76 201 -286 201q-146 0 -239 -114t-93 -333q0 -218 93.5 -332t238.5 -114
q222 0 297 225z" />
    <glyph glyph-name="ccedilla.sc" horiz-adv-x="1073" 
d="M977 268q-84 -252 -328 -284v-11q125 -89 125 -188q0 -79 -54.5 -125.5t-144.5 -46.5q-121 0 -192 100l61 56q58 -68 123 -68q46 0 74.5 27.5t28.5 68.5q0 94 -113 183q-188 8 -310 151.5t-122 396.5q0 260 128.5 404.5t324.5 144.5q138 0 240 -67.5t147 -198.5l-97 -37
q-76 201 -286 201q-146 0 -239 -114t-93 -333q0 -218 93.5 -332t238.5 -114q222 0 297 225z" />
    <glyph glyph-name="ccircumflex.sc" horiz-adv-x="1073" 
d="M580 1448l-187 -213h-114l247 305h103l248 -305h-113zM879 307l98 -39q-48 -146 -151 -217t-248 -71q-196 0 -324.5 144t-128.5 404t128.5 404.5t324.5 144.5q138 0 240 -67.5t147 -198.5l-97 -37q-76 201 -286 201q-146 0 -239 -114t-93 -333q0 -218 93.5 -332
t238.5 -114q222 0 297 225z" />
    <glyph glyph-name="cdotaccent.sc" horiz-adv-x="1073" 
d="M580 1294q-41 0 -67 26t-26 66t26 66.5t67 26.5q39 0 64.5 -26.5t25.5 -66.5t-25 -66t-65 -26zM250 528q0 -218 93.5 -332t238.5 -114q222 0 297 225l98 -39q-48 -146 -151 -217t-248 -71q-196 0 -324.5 144t-128.5 404t128.5 404.5t324.5 144.5q138 0 240 -67.5
t147 -198.5l-97 -37q-76 201 -286 201q-146 0 -239 -114t-93 -333z" />
    <glyph glyph-name="d.sc" horiz-adv-x="1153" 
d="M506 1057q112 0 205.5 -31t165 -93.5t111.5 -166t40 -238.5t-40 -238t-111.5 -165.5t-164.5 -93.5t-206 -31h-318v1057h318zM496 102q189 0 298 104.5t109 321.5q0 218 -108.5 322t-298.5 104h-185v-852h185z" />
    <glyph glyph-name="dcaron.sc" horiz-adv-x="1153" 
d="M604 1235h-102l-248 305h115l186 -213l184 213h113zM506 1057q112 0 205.5 -31t165 -93.5t111.5 -166t40 -238.5t-40 -238t-111.5 -165.5t-164.5 -93.5t-206 -31h-318v1057h318zM496 102q189 0 298 104.5t109 321.5q0 218 -108.5 322t-298.5 104h-185v-852h185z" />
    <glyph glyph-name="dcroat.sc" horiz-adv-x="1183" 
d="M537 1057q112 0 205.5 -31t165 -93.5t111.5 -166t40 -238.5t-40 -238t-111.5 -165.5t-164.5 -93.5t-206 -31h-318v498h-158v90h158v469h318zM526 102q189 0 298.5 104.5t109.5 321.5q0 218 -109 322t-299 104h-184v-366h270v-90h-270v-396h184z" />
    <glyph glyph-name="uni01F3.sc" horiz-adv-x="2054" 
d="M506 1057q112 0 205.5 -31t165 -93.5t111.5 -166t40 -238.5t-40 -238t-111.5 -165.5t-164.5 -93.5t-206 -31h-318v1057h318zM1362 100h592v-100h-725v109l590 847h-568v101h701v-109zM496 102q189 0 298 104.5t109 321.5q0 218 -108.5 322t-298.5 104h-185v-852h185z" />
    <glyph glyph-name="uni01C6.sc" horiz-adv-x="2054" 
d="M1645 1237h-101l-250 303h115l186 -213l185 213h114zM506 1057q112 0 205.5 -31t165 -93.5t111.5 -166t40 -238.5t-40 -238t-111.5 -165.5t-164.5 -93.5t-206 -31h-318v1057h318zM1362 100h592v-100h-725v109l590 847h-568v101h701v-109zM496 102q189 0 298 104.5
t109 321.5q0 218 -108.5 322t-298.5 104h-185v-852h185z" />
    <glyph glyph-name="e.sc" horiz-adv-x="962" 
d="M311 100h525v-100h-648v1057h637v-101h-514v-362h482v-98h-482v-396z" />
    <glyph glyph-name="eacute.sc" horiz-adv-x="962" 
d="M770 1583l-231 -346h-107l199 346h139zM311 100h525v-100h-648v1057h637v-101h-514v-362h482v-98h-482v-396z" />
    <glyph glyph-name="ebreve.sc" horiz-adv-x="962" 
d="M508 1231q-122 0 -199.5 76t-89.5 221h96q32 -195 193 -195q162 0 194 195h97q-13 -145 -91 -221t-200 -76zM311 100h525v-100h-648v1057h637v-101h-514v-362h482v-98h-482v-396z" />
    <glyph glyph-name="ecaron.sc" horiz-adv-x="962" 
d="M559 1235h-102l-248 305h115l186 -213l184 213h113zM311 100h525v-100h-648v1057h637v-101h-514v-362h482v-98h-482v-396z" />
    <glyph glyph-name="ecircumflex.sc" horiz-adv-x="962" 
d="M510 1448l-186 -213h-115l248 305h102l248 -305h-113zM311 100h525v-100h-648v1057h637v-101h-514v-362h482v-98h-482v-396z" />
    <glyph glyph-name="edieresis.sc" horiz-adv-x="962" 
d="M319 1292q-40 0 -65 26t-25 66t25.5 67.5t64.5 27.5q41 0 67 -27.5t26 -67.5t-26 -66t-67 -26zM696 1292q-40 0 -66 26t-26 66t26.5 67.5t65.5 27.5t64.5 -27.5t25.5 -67.5t-25 -66t-65 -26zM311 100h525v-100h-648v1057h637v-101h-514v-362h482v-98h-482v-396z" />
    <glyph glyph-name="edotaccent.sc" horiz-adv-x="962" 
d="M510 1294q-41 0 -66.5 26t-25.5 66t25.5 66.5t66.5 26.5q39 0 64.5 -26.5t25.5 -66.5t-25 -66t-65 -26zM311 100h525v-100h-648v1057h637v-101h-514v-362h482v-98h-482v-396z" />
    <glyph glyph-name="egrave.sc" horiz-adv-x="962" 
d="M584 1237h-107l-231 346h139zM311 100h525v-100h-648v1057h637v-101h-514v-362h482v-98h-482v-396z" />
    <glyph glyph-name="emacron.sc" horiz-adv-x="962" 
d="M799 1401v-94h-582v94h582zM311 100h525v-100h-648v1057h637v-101h-514v-362h482v-98h-482v-396z" />
    <glyph glyph-name="eng.sc" horiz-adv-x="1169" 
d="M862 1057h119v-1080q0 -122 -71.5 -186.5t-184.5 -64.5q-68 0 -125 16v100q56 -18 109 -18q78 0 114 38.5t39 110.5l-504 844q-32 55 -49 105h-8q6 -52 6 -119v-803h-119v1057h150l471 -789q40 -77 51 -104h6q-4 78 -4 117v776z" />
    <glyph glyph-name="eogonek.sc" horiz-adv-x="962" 
d="M799 -223l65 -62q-74 -102 -200 -102q-91 0 -147 47.5t-56 126.5q0 113 139 203v10h-412v1057h637v-101h-514v-362h482v-98h-482v-396h525v-100h-125q-69 -50 -102.5 -96.5t-33.5 -100.5q0 -39 28.5 -66.5t74.5 -27.5q60 0 121 68z" />
    <glyph glyph-name="eth.sc" horiz-adv-x="1183" 
d="M537 1057q112 0 205.5 -31t165 -93.5t111.5 -166t40 -238.5t-40 -238t-111.5 -165.5t-164.5 -93.5t-206 -31h-318v498h-158v90h158v469h318zM526 102q189 0 298.5 104.5t109.5 321.5q0 218 -109 322t-299 104h-184v-366h270v-90h-270v-396h184z" />
    <glyph glyph-name="uni1EBD.sc" horiz-adv-x="962" 
d="M383 1403q-33 0 -55 -32.5t-27 -121.5h-88q3 78 21 133.5t46 81.5t54 36.5t55 10.5q37 0 69 -16.5t48 -34t39 -47.5q52 -67 88 -67q32 0 52 30.5t30 122.5h88q-3 -78 -21 -133.5t-46 -81.5t-54 -36.5t-55 -10.5q-38 0 -71 18t-48 34t-41 50q-23 32 -41.5 48t-42.5 16z
M311 100h525v-100h-648v1057h637v-101h-514v-362h482v-98h-482v-396z" />
    <glyph glyph-name="f.sc" horiz-adv-x="911" 
d="M811 954h-500v-379h457v-100h-457v-475h-123v1057h623v-103z" />
    <glyph glyph-name="g.sc" horiz-adv-x="1132" 
d="M586 526h409v-403q-149 -143 -385 -143q-100 0 -185.5 32t-153.5 96t-107 172t-39 248q0 131 38.5 237t105 173t153 103t184.5 36q130 0 229.5 -55.5t151.5 -161.5l-90 -53q-90 168 -289 168q-158 0 -258 -114t-100 -333q0 -223 96 -334.5t264 -111.5q164 0 264 86v258
h-288v100z" />
    <glyph glyph-name="gbreve.sc" horiz-adv-x="1132" 
d="M596 1231q-122 0 -199.5 76t-89.5 221h96q32 -195 193 -195q163 0 195 195h96q-13 -145 -91 -221t-200 -76zM586 526h409v-403q-149 -143 -385 -143q-100 0 -185.5 32t-153.5 96t-107 172t-39 248q0 131 38.5 237t105 173t153 103t184.5 36q130 0 229.5 -55.5
t151.5 -161.5l-90 -53q-90 168 -289 168q-158 0 -258 -114t-100 -333q0 -223 96 -334.5t264 -111.5q164 0 264 86v258h-288v100z" />
    <glyph glyph-name="gcircumflex.sc" horiz-adv-x="1132" 
d="M598 1448l-186 -213h-115l248 305h102l248 -305h-113zM586 526h409v-403q-149 -143 -385 -143q-100 0 -185.5 32t-153.5 96t-107 172t-39 248q0 131 38.5 237t105 173t153 103t184.5 36q130 0 229.5 -55.5t151.5 -161.5l-90 -53q-90 168 -289 168q-158 0 -258 -114
t-100 -333q0 -223 96 -334.5t264 -111.5q164 0 264 86v258h-288v100z" />
    <glyph glyph-name="uni0123.sc" horiz-adv-x="1132" 
d="M586 526h409v-403q-149 -143 -385 -143q-100 0 -185.5 32t-153.5 96t-107 172t-39 248q0 131 38.5 237t105 173t153 103t184.5 36q130 0 229.5 -55.5t151.5 -161.5l-90 -53q-90 168 -289 168q-158 0 -258 -114t-100 -333q0 -223 96 -334.5t264 -111.5q164 0 264 86v258
h-288v100zM608 -100q42 0 67 -30.5t25 -86.5q0 -57 -29 -128t-73 -128l-57 35q34 44 56 92t24 76h-13q-37 0 -61.5 23t-24.5 61q0 35 24 60.5t62 25.5z" />
    <glyph glyph-name="gdotaccent.sc" horiz-adv-x="1132" 
d="M598 1294q-41 0 -66.5 26t-25.5 66t25.5 66.5t66.5 26.5q39 0 64.5 -26.5t25.5 -66.5t-25 -66t-65 -26zM586 526h409v-403q-149 -143 -385 -143q-100 0 -185.5 32t-153.5 96t-107 172t-39 248q0 131 38.5 237t105 173t153 103t184.5 36q130 0 229.5 -55.5t151.5 -161.5
l-90 -53q-90 168 -289 168q-158 0 -258 -114t-100 -333q0 -223 96 -334.5t264 -111.5q164 0 264 86v258h-288v100z" />
    <glyph glyph-name="germandbls.sc" horiz-adv-x="1953" 
d="M164 211q60 -63 146 -96t167 -33q125 0 196.5 46.5t71.5 131.5q0 43 -16.5 76t-52.5 58t-65 38.5t-83 34.5l-145 57q-113 43 -178.5 109.5t-65.5 171.5q0 115 94.5 193.5t245.5 78.5q211 0 352 -131l-63 -78q-113 107 -279 107q-108 0 -167.5 -47t-59.5 -119
q0 -39 16 -70t47.5 -53.5t57.5 -35.5t66 -29l149 -58q57 -22 99 -44.5t83.5 -57t63.5 -83t22 -108.5q0 -135 -108 -212.5t-275 -77.5q-231 0 -385 151zM1141 211q60 -63 146 -96t167 -33q125 0 196.5 46.5t71.5 131.5q0 43 -16.5 76t-52.5 58t-65 38.5t-83 34.5l-145 57
q-113 43 -178.5 109.5t-65.5 171.5q0 115 94.5 193.5t245.5 78.5q211 0 352 -131l-63 -78q-113 107 -279 107q-108 0 -167.5 -47t-59.5 -119q0 -39 16 -70t47 -53.5t57 -35.5t66 -29l150 -58q57 -22 99 -44.5t83.5 -57t63.5 -83t22 -108.5q0 -135 -108 -212.5t-275 -77.5
q-231 0 -385 151z" />
    <glyph glyph-name="h.sc" horiz-adv-x="1157" 
d="M848 1057h121v-1057h-121v496h-537v-496h-123v1057h123v-459h537v459z" />
    <glyph glyph-name="hbar.sc" horiz-adv-x="1204" 
d="M1135 862v-90h-144v-772h-121v496h-536v-496h-123v772h-141v90h141v195h123v-195h536v195h121v-195h144zM870 598v174h-536v-174h536z" />
    <glyph glyph-name="hcircumflex.sc" horiz-adv-x="1157" 
d="M582 1448l-187 -213h-114l247 305h103l248 -305h-113zM848 1057h121v-1057h-121v496h-537v-496h-123v1057h123v-459h537v459z" />
    <glyph glyph-name="i.sc" horiz-adv-x="610" 
d="M494 958h-127v-862h127v-96h-377v96h127v862h-127v99h377v-99z" />
    <glyph glyph-name="iacute.sc" horiz-adv-x="610" 
d="M567 1583l-231 -346h-107l199 346h139zM494 1057v-99h-127v-862h127v-96h-377v96h127v862h-127v99h377z" />
    <glyph glyph-name="ibreve.sc" horiz-adv-x="610" 
d="M305 1231q-115 0 -181.5 74.5t-72.5 222.5h96q10 -108 51 -151.5t107 -43.5t107 43.5t49 151.5h96q-4 -148 -70 -222.5t-182 -74.5zM494 1057v-99h-127v-862h127v-96h-377v96h127v862h-127v99h377z" />
    <glyph glyph-name="uni01D0.sc" horiz-adv-x="610" 
d="M354 1237h-100l-207 305h109l149 -207l148 207h108zM494 1057v-99h-127v-862h127v-96h-377v96h127v862h-127v99h377z" />
    <glyph glyph-name="icircumflex.sc" horiz-adv-x="610" 
d="M305 1442l-149 -207h-109l207 305h100l207 -305h-108zM494 1057v-99h-127v-862h127v-96h-377v96h127v862h-127v99h377z" />
    <glyph glyph-name="idieresis.sc" horiz-adv-x="610" 
d="M244 1384q0 -40 -26 -66t-66 -26t-65.5 26t-25.5 66t26 67.5t65 27.5t65.5 -27.5t26.5 -67.5zM459 1479q39 0 64.5 -27.5t25.5 -67.5t-25 -66t-65 -26t-66 26t-26 66t26.5 67.5t65.5 27.5zM494 1057v-99h-127v-862h127v-96h-377v96h127v862h-127v99h377z" />
    <glyph glyph-name="i.sc.loclTRK" horiz-adv-x="610" 
d="M307 1294q-41 0 -66.5 26t-25.5 66t25.5 66.5t66.5 26.5q39 0 64.5 -26.5t25.5 -66.5t-25 -66t-65 -26zM494 958h-127v-862h127v-96h-377v96h127v862h-127v99h377v-99z" />
    <glyph glyph-name="dotlessi.sc" horiz-adv-x="610" 
d="M494 958h-127v-862h127v-96h-377v96h127v862h-127v99h377v-99z" />
    <glyph glyph-name="igrave.sc" horiz-adv-x="610" 
d="M381 1237h-107l-231 346h139zM494 958h-127v-862h127v-96h-377v96h127v862h-127v99h377v-99z" />
    <glyph glyph-name="imacron.sc" horiz-adv-x="610" 
d="M90 1401h432v-94h-432v94zM494 1057v-99h-127v-862h127v-96h-377v96h127v862h-127v99h377z" />
    <glyph glyph-name="iogonek.sc" horiz-adv-x="610" 
d="M446 -223l66 -62q-74 -102 -201 -102q-91 0 -146.5 47.5t-55.5 126.5q0 113 139 203v10h-131v96h127v862h-127v99h377v-99h-127v-862h127v-96h-136q-68 -50 -101.5 -96t-33.5 -101q0 -39 28.5 -66.5t74.5 -27.5q35 0 62.5 17t57.5 51z" />
    <glyph glyph-name="itilde.sc" horiz-adv-x="610" 
d="M485 1499h88q-1 -78 -17 -133.5t-42 -81.5t-50.5 -36.5t-51.5 -10.5q-33 0 -63.5 18t-46.5 36.5t-38 49.5q-17 23 -25 32.5t-21 19.5t-25 10q-70 0 -72 -154h-88q1 78 17.5 133.5t42 81.5t50 36.5t50.5 10.5q34 0 64.5 -18t43.5 -33.5t37 -48.5q15 -23 24.5 -34.5t23 -21
t28.5 -9.5q30 0 48.5 32t22.5 121zM494 1057v-99h-127v-862h127v-96h-377v96h127v862h-127v99h377z" />
    <glyph glyph-name="j.sc" horiz-adv-x="608" 
d="M160 -182q-89 0 -146 20v103q54 -21 123 -21q162 0 162 166v971h123v-989q0 -122 -71.5 -186t-190.5 -64z" />
    <glyph glyph-name="uni006A0301.sc" horiz-adv-x="608" 
d="M283 1237l198 346h140l-232 -346h-106zM160 -182q-89 0 -146 20v103q54 -21 123 -21q162 0 162 166v971h123v-989q0 -122 -71.5 -186t-190.5 -64z" />
    <glyph glyph-name="jcircumflex.sc" horiz-adv-x="608" 
d="M408 1540l206 -305h-108l-148 207l-149 -207h-109l207 305h101zM299 86v971h123v-989q0 -122 -71.5 -186t-190.5 -64q-89 0 -146 20v103q54 -21 123 -21q162 0 162 166z" />
    <glyph glyph-name="uni0237.sc" horiz-adv-x="608" 
d="M160 -182q-89 0 -146 20v103q54 -21 123 -21q162 0 162 166v971h123v-989q0 -122 -71.5 -186t-190.5 -64z" />
    <glyph glyph-name="k.sc" horiz-adv-x="1009" 
d="M815 0l-461 498h-43v-498h-123v1057h123v-459h49l416 459h142l-463 -502l518 -555h-158z" />
    <glyph glyph-name="uni0137.sc" horiz-adv-x="1009" 
d="M455 555l518 -555h-158l-461 498h-43v-498h-123v1057h123v-459h49l416 459h142zM543 -100q42 0 67 -30.5t25 -86.5q0 -57 -29.5 -127.5t-73.5 -128.5l-57 35q34 44 56 92t24 76h-12q-37 0 -61.5 23t-24.5 61q0 35 24 60.5t62 25.5z" />
    <glyph glyph-name="l.sc" horiz-adv-x="888" 
d="M311 102h494v-102h-617v1057h123v-955z" />
    <glyph glyph-name="l_periodcentered.latnCAT.sc" horiz-adv-x="903" 
d="M311 102h494v-102h-617v1057h123v-955zM698 494q-40 0 -65 26t-25 66q0 39 25.5 64.5t64.5 25.5q38 0 63 -26t25 -64q0 -40 -25 -66t-63 -26z" />
    <glyph glyph-name="lacute.sc" horiz-adv-x="888" 
d="M514 1583l-231 -346h-107l199 346h139zM311 102h494v-102h-617v1057h123v-955z" />
    <glyph glyph-name="lcaron.sc" horiz-adv-x="897" 
d="M311 102h494v-102h-617v1057h123v-955zM711 1057l-70 -383h-84l35 383h119z" />
    <glyph glyph-name="uni013C.sc" horiz-adv-x="888" 
d="M311 102h494v-102h-617v1057h123v-955zM489 -100q42 0 67.5 -30.5t25.5 -86.5q0 -57 -29.5 -127.5t-73.5 -128.5l-57 35q34 44 56 92t24 76h-13q-37 0 -61.5 23t-24.5 61q0 35 24 60.5t62 25.5z" />
    <glyph glyph-name="ldot.sc" horiz-adv-x="903" 
d="M311 102h494v-102h-617v1057h123v-955zM698 494q-40 0 -65 26t-25 66q0 39 25.5 64.5t64.5 25.5q38 0 63 -26t25 -64q0 -40 -25 -66t-63 -26z" />
    <glyph glyph-name="uni01C9.sc" horiz-adv-x="1497" 
d="M311 1057v-955h494v-102h-617v1057h123zM1188 1057h123v-989q0 -122 -71.5 -186t-190.5 -64q-89 0 -146 20v103q54 -21 123 -21q162 0 162 166v971z" />
    <glyph glyph-name="lslash.sc" horiz-adv-x="944" 
d="M367 102h493v-102h-616v434l-148 -61v98l148 61v525h123v-475l262 110v-98l-262 -113v-379z" />
    <glyph glyph-name="m.sc" horiz-adv-x="1409" 
d="M188 0v1057h191l299 -842q19 -58 24 -92h9q6 53 20 90l301 844h189v-1057h-121v821q0 90 2 133h-6q-20 -71 -39 -127l-299 -827h-111l-299 829q-31 95 -37 125h-8q4 -37 4 -133v-821h-119z" />
    <glyph glyph-name="n.sc" horiz-adv-x="1169" 
d="M188 0v1057h150l471 -811q20 -35 51 -105h6q-4 74 -4 113v803h119v-1057h-147l-476 813q-29 50 -49 105h-8q6 -50 6 -117v-801h-119z" />
    <glyph glyph-name="nacute.sc" horiz-adv-x="1169" 
d="M524 1237l199 346h139l-231 -346h-107zM188 0v1057h150l471 -811q20 -35 51 -105h6q-4 74 -4 113v803h119v-1057h-147l-476 813q-29 50 -49 105h-8q6 -50 6 -117v-801h-119z" />
    <glyph glyph-name="ncaron.sc" horiz-adv-x="1169" 
d="M651 1235h-102l-248 305h115l186 -213l184 213h113zM862 1057h119v-1057h-147l-476 813q-29 50 -49 105h-8q6 -50 6 -117v-801h-119v1057h150l471 -811q20 -35 51 -105h6q-4 74 -4 113v803z" />
    <glyph glyph-name="uni0146.sc" horiz-adv-x="1169" 
d="M862 1057h119v-1057h-147l-476 813q-29 50 -49 105h-8q6 -50 6 -117v-801h-119v1057h150l471 -811q20 -35 51 -105h6q-4 74 -4 113v803zM588 -100q42 0 67 -30.5t25 -86.5q0 -57 -29 -128t-73 -128l-58 35q34 44 56 92t24 76h-12q-37 0 -61.5 23t-24.5 61q0 35 24 60.5
t62 25.5z" />
    <glyph glyph-name="ntilde.sc" horiz-adv-x="1169" 
d="M719 1237q-38 0 -71 18t-48 34t-41 50q-23 32 -41.5 48t-42.5 16q-33 0 -55 -32.5t-27 -121.5h-88q3 78 21 133.5t46 81.5t54 36.5t55 10.5q37 0 69 -16.5t48 -34t39 -47.5q52 -67 88 -67q32 0 52 30.5t30 122.5h88q-3 -78 -21 -133.5t-46 -81.5t-54 -36.5t-55 -10.5z
M188 0v1057h150l471 -811q20 -35 51 -105h6q-4 74 -4 113v803h119v-1057h-147l-476 813q-29 50 -49 105h-8q6 -50 6 -117v-801h-119z" />
    <glyph glyph-name="uni01CC.sc" horiz-adv-x="1777" 
d="M188 0v1057h150l471 -811q20 -35 51 -105h6q-4 74 -4 113v803h119v-1057h-147l-476 813q-29 50 -49 105h-8q6 -50 6 -117v-801h-119zM1329 -182q-88 0 -145 20v103q54 -21 123 -21q86 0 123.5 43t37.5 123v971h123v-989q0 -122 -71.5 -186t-190.5 -64z" />
    <glyph glyph-name="o.sc" horiz-adv-x="1196" 
d="M596 -20q-98 0 -182.5 35t-149.5 101.5t-102 172.5t-37 239t37 239t102 173t149.5 102t182.5 35q100 0 185.5 -35t150.5 -102t102 -173t37 -239q0 -132 -37 -237.5t-102 -172.5t-150.5 -102.5t-185.5 -35.5zM596 82q154 0 252 112.5t98 333.5q0 113 -27.5 200
t-75.5 139.5t-110.5 79t-136.5 26.5q-152 0 -249 -111.5t-97 -333.5q0 -220 97.5 -333t248.5 -113z" />
    <glyph glyph-name="oacute.sc" horiz-adv-x="1196" 
d="M520 1237l199 346h139l-231 -346h-107zM596 -20q-98 0 -182.5 35t-149.5 101.5t-102 172.5t-37 239t37 239t102 173t149.5 102t182.5 35q100 0 185.5 -35t150.5 -102t102 -173t37 -239q0 -132 -37 -237.5t-102 -172.5t-150.5 -102.5t-185.5 -35.5zM596 82
q154 0 252 112.5t98 333.5q0 113 -27.5 200t-75.5 139.5t-110.5 79t-136.5 26.5q-152 0 -249 -111.5t-97 -333.5q0 -220 97.5 -333t248.5 -113z" />
    <glyph glyph-name="obreve.sc" horiz-adv-x="1196" 
d="M596 1231q-122 0 -199.5 76t-89.5 221h96q32 -195 193 -195q163 0 195 195h96q-13 -145 -91 -221t-200 -76zM596 -20q-98 0 -182.5 35t-149.5 101.5t-102 172.5t-37 239t37 239t102 173t149.5 102t182.5 35q100 0 185.5 -35t150.5 -102t102 -173t37 -239
q0 -132 -37 -237.5t-102 -172.5t-150.5 -102.5t-185.5 -35.5zM596 82q154 0 252 112.5t98 333.5q0 113 -27.5 200t-75.5 139.5t-110.5 79t-136.5 26.5q-152 0 -249 -111.5t-97 -333.5q0 -220 97.5 -333t248.5 -113z" />
    <glyph glyph-name="uni01D2.sc" horiz-adv-x="1196" 
d="M647 1235h-102l-248 305h115l186 -213l184 213h113zM596 1077q100 0 185.5 -35t150.5 -102t102 -173t37 -239q0 -132 -37 -237.5t-102 -172.5t-150.5 -102.5t-185.5 -35.5q-98 0 -182.5 35t-149.5 101.5t-102 172.5t-37 239t37 239t102 173t149.5 102t182.5 35zM596 82
q154 0 252 112.5t98 333.5q0 113 -27.5 200t-75.5 139.5t-110.5 79t-136.5 26.5q-152 0 -249 -111.5t-97 -333.5q0 -220 97.5 -333t248.5 -113z" />
    <glyph glyph-name="ocircumflex.sc" horiz-adv-x="1196" 
d="M598 1448l-186 -213h-115l248 305h102l248 -305h-113zM596 1077q100 0 185.5 -35t150.5 -102t102 -173t37 -239q0 -132 -37 -237.5t-102 -172.5t-150.5 -102.5t-185.5 -35.5q-98 0 -182.5 35t-149.5 101.5t-102 172.5t-37 239t37 239t102 173t149.5 102t182.5 35zM596 82
q154 0 252 112.5t98 333.5q0 113 -27.5 200t-75.5 139.5t-110.5 79t-136.5 26.5q-152 0 -249 -111.5t-97 -333.5q0 -220 97.5 -333t248.5 -113z" />
    <glyph glyph-name="odieresis.sc" horiz-adv-x="1196" 
d="M408 1292q-40 0 -65.5 26t-25.5 66t26 67.5t65 27.5q41 0 66.5 -27.5t25.5 -67.5t-25.5 -66t-66.5 -26zM784 1292q-40 0 -66 26t-26 66t26.5 67.5t65.5 27.5t64.5 -27.5t25.5 -67.5t-25 -66t-65 -26zM596 -20q-98 0 -182.5 35t-149.5 101.5t-102 172.5t-37 239t37 239
t102 173t149.5 102t182.5 35q100 0 185.5 -35t150.5 -102t102 -173t37 -239q0 -132 -37 -237.5t-102 -172.5t-150.5 -102.5t-185.5 -35.5zM596 82q154 0 252 112.5t98 333.5q0 113 -27.5 200t-75.5 139.5t-110.5 79t-136.5 26.5q-152 0 -249 -111.5t-97 -333.5
q0 -220 97.5 -333t248.5 -113z" />
    <glyph glyph-name="oe.sc" horiz-adv-x="1673" 
d="M1032 102h512v-102h-631v172h-8q-106 -192 -334 -192q-92 0 -171.5 34.5t-141 100.5t-96.5 172.5t-35 240.5q0 135 35 241.5t96.5 172.5t141 100.5t171.5 34.5q231 0 334 -192h8v172h621v-103h-502v-358h473v-102h-473v-392zM584 82q146 0 237.5 113t91.5 333
q0 221 -91 334t-238 113q-148 0 -240 -112.5t-92 -334.5q0 -221 92 -333.5t240 -112.5z" />
    <glyph glyph-name="ograve.sc" horiz-adv-x="1196" 
d="M674 1237h-107l-231 346h139zM596 -20q-98 0 -182.5 35t-149.5 101.5t-102 172.5t-37 239t37 239t102 173t149.5 102t182.5 35q100 0 185.5 -35t150.5 -102t102 -173t37 -239q0 -132 -37 -237.5t-102 -172.5t-150.5 -102.5t-185.5 -35.5zM596 82q154 0 252 112.5
t98 333.5q0 113 -27.5 200t-75.5 139.5t-110.5 79t-136.5 26.5q-152 0 -249 -111.5t-97 -333.5q0 -220 97.5 -333t248.5 -113z" />
    <glyph glyph-name="ohungarumlaut.sc" horiz-adv-x="1196" 
d="M362 1237l193 303h135l-221 -303h-107zM688 1237l193 303h137l-223 -303h-107zM596 -20q-98 0 -182.5 35t-149.5 101.5t-102 172.5t-37 239t37 239t102 173t149.5 102t182.5 35q100 0 185.5 -35t150.5 -102t102 -173t37 -239q0 -132 -37 -237.5t-102 -172.5
t-150.5 -102.5t-185.5 -35.5zM596 82q154 0 252 112.5t98 333.5q0 113 -27.5 200t-75.5 139.5t-110.5 79t-136.5 26.5q-152 0 -249 -111.5t-97 -333.5q0 -220 97.5 -333t248.5 -113z" />
    <glyph glyph-name="omacron.sc" horiz-adv-x="1196" 
d="M305 1307v94h582v-94h-582zM596 -20q-98 0 -182.5 35t-149.5 101.5t-102 172.5t-37 239t37 239t102 173t149.5 102t182.5 35q100 0 185.5 -35t150.5 -102t102 -173t37 -239q0 -132 -37 -237.5t-102 -172.5t-150.5 -102.5t-185.5 -35.5zM596 82q154 0 252 112.5t98 333.5
q0 113 -27.5 200t-75.5 139.5t-110.5 79t-136.5 26.5q-152 0 -249 -111.5t-97 -333.5q0 -220 97.5 -333t248.5 -113z" />
    <glyph glyph-name="oslash.sc" horiz-adv-x="1198" 
d="M952 922q121 -146 121 -394q0 -132 -36.5 -237.5t-101 -172.5t-150 -102.5t-185.5 -35.5q-159 0 -281 90l-86 -117l-77 55l94 129q-121 143 -121 391q0 133 37 239t101.5 173t149 102t183.5 35q163 0 285 -90l76 103l75 -54zM600 973q-152 0 -249 -111.5t-97 -333.5
q0 -178 70 -295l493 664q-88 76 -217 76zM600 82q152 0 250 113t98 333q0 179 -69 295l-492 -665q88 -76 213 -76z" />
    <glyph glyph-name="otilde.sc" horiz-adv-x="1196" 
d="M715 1237q-38 0 -71 18t-48 34t-41 50q-23 32 -41.5 48t-42.5 16q-33 0 -55 -32.5t-27 -121.5h-88q3 78 21 133.5t46 81.5t54 36.5t55 10.5q37 0 69 -16.5t48 -34t39 -47.5q52 -67 88 -67q32 0 52 30.5t30 122.5h88q-3 -78 -21 -133.5t-46 -81.5t-54 -36.5t-55 -10.5z
M596 -20q-98 0 -182.5 35t-149.5 101.5t-102 172.5t-37 239t37 239t102 173t149.5 102t182.5 35q100 0 185.5 -35t150.5 -102t102 -173t37 -239q0 -132 -37 -237.5t-102 -172.5t-150.5 -102.5t-185.5 -35.5zM596 82q154 0 252 112.5t98 333.5q0 113 -27.5 200t-75.5 139.5
t-110.5 79t-136.5 26.5q-152 0 -249 -111.5t-97 -333.5q0 -220 97.5 -333t248.5 -113z" />
    <glyph glyph-name="p.sc" horiz-adv-x="995" 
d="M522 1057q172 0 274.5 -80t102.5 -232t-103.5 -232.5t-273.5 -80.5h-211v-432h-123v1057h334zM518 532q256 0 256 213q0 108 -64.5 158.5t-191.5 50.5h-207v-422h207z" />
    <glyph glyph-name="q.sc" horiz-adv-x="1196" 
d="M1071 528q0 -159 -52 -276.5t-145 -185.5l187 -240h-148l-145 182q-82 -28 -172 -28q-98 0 -182.5 35t-149.5 101.5t-102 172.5t-37 239t37 239t102 173t149.5 102t182.5 35q100 0 185.5 -35t150.5 -102t102 -173t37 -239zM250 528q0 -219 97.5 -332.5t248.5 -113.5
q154 0 252 113t98 333q0 221 -98 333t-252 112q-152 0 -249 -112t-97 -333z" />
    <glyph glyph-name="r.sc" horiz-adv-x="1028" 
d="M793 0l-299 451h-183v-451h-123v1057h334q158 0 259.5 -76t101.5 -223q0 -121 -72 -196.5t-188 -98.5l321 -463h-151zM311 954v-403h207q113 0 176.5 49.5t63.5 153.5q0 102 -63.5 151t-176.5 49h-207z" />
    <glyph glyph-name="racute.sc" horiz-adv-x="1028" 
d="M756 1583l-232 -346h-106l198 346h140zM793 0l-299 451h-183v-451h-123v1057h334q158 0 259.5 -76t101.5 -223q0 -121 -72 -196.5t-188 -98.5l321 -463h-151zM311 954v-403h207q113 0 176.5 49.5t63.5 153.5q0 102 -63.5 151t-176.5 49h-207z" />
    <glyph glyph-name="rcaron.sc" horiz-adv-x="1028" 
d="M545 1235h-103l-247 305h114l187 -213l184 213h113zM793 0l-299 451h-183v-451h-123v1057h334q158 0 259.5 -76t101.5 -223q0 -121 -72 -196.5t-188 -98.5l321 -463h-151zM311 954v-403h207q113 0 176.5 49.5t63.5 153.5q0 102 -63.5 151t-176.5 49h-207z" />
    <glyph glyph-name="uni0157.sc" horiz-adv-x="1028" 
d="M623 463l321 -463h-151l-299 451h-183v-451h-123v1057h334q158 0 259.5 -76t101.5 -223q0 -121 -72 -196.5t-188 -98.5zM311 954v-403h207q113 0 176.5 49.5t63.5 153.5q0 102 -63.5 151t-176.5 49h-207zM532 -100q42 0 67.5 -30.5t25.5 -86.5q0 -57 -29.5 -127.5
t-73.5 -128.5l-57 35q34 44 56 92t24 76h-13q-37 0 -61.5 23t-24.5 61q0 35 24 60.5t62 25.5z" />
    <glyph glyph-name="s.sc" horiz-adv-x="976" 
d="M164 211q60 -63 146 -96t167 -33q125 0 196.5 46.5t71.5 131.5q0 43 -16.5 76t-52.5 58t-65 38.5t-83 34.5l-145 57q-113 43 -178.5 109.5t-65.5 171.5q0 115 94.5 193.5t245.5 78.5q211 0 352 -131l-63 -78q-113 107 -279 107q-108 0 -167.5 -47t-59.5 -119
q0 -39 16 -70t47.5 -53.5t57.5 -35.5t66 -29l149 -58q57 -22 99 -44.5t83.5 -57t63.5 -83t22 -108.5q0 -135 -108 -212.5t-275 -77.5q-231 0 -385 151z" />
    <glyph glyph-name="sacute.sc" horiz-adv-x="976" 
d="M412 1237l198 346h140l-232 -346h-106zM164 211q60 -63 146 -96t167 -33q125 0 196.5 46.5t71.5 131.5q0 43 -16.5 76t-52.5 58t-65 38.5t-83 34.5l-145 57q-113 43 -178.5 109.5t-65.5 171.5q0 115 94.5 193.5t245.5 78.5q211 0 352 -131l-63 -78q-113 107 -279 107
q-108 0 -167.5 -47t-59.5 -119q0 -39 16 -70t47.5 -53.5t57.5 -35.5t66 -29l149 -58q57 -22 99 -44.5t83.5 -57t63.5 -83t22 -108.5q0 -135 -108 -212.5t-275 -77.5q-231 0 -385 151z" />
    <glyph glyph-name="scaron.sc" horiz-adv-x="976" 
d="M539 1235h-103l-248 305h115l186 -213l185 213h112zM598 563q57 -22 99 -44.5t83.5 -57t63.5 -83t22 -108.5q0 -135 -108 -212.5t-275 -77.5q-231 0 -385 151l66 80q60 -63 146 -96t167 -33q125 0 196.5 46.5t71.5 131.5q0 43 -16.5 76t-52.5 58t-65 38.5t-83 34.5
l-145 57q-113 43 -178.5 109.5t-65.5 171.5q0 115 94.5 193.5t245.5 78.5q211 0 352 -131l-63 -78q-113 107 -279 107q-108 0 -167.5 -47t-59.5 -119q0 -39 16 -70t47.5 -53.5t57.5 -35.5t66 -29z" />
    <glyph glyph-name="scedilla.sc" horiz-adv-x="976" 
d="M866 270q0 -117 -81 -191t-214 -93v-13q125 -89 125 -188q0 -79 -54 -125.5t-144 -46.5q-122 0 -193 100l62 56q58 -68 122 -68q46 0 74.5 27.5t28.5 68.5q0 94 -113 183q-227 0 -381 151l66 80q60 -63 146 -96t167 -33q125 0 196.5 46.5t71.5 131.5q0 43 -16.5 76
t-52.5 58t-65 38.5t-83 34.5l-145 57q-113 43 -178.5 109.5t-65.5 171.5q0 115 94.5 193.5t245.5 78.5q211 0 352 -131l-63 -78q-113 107 -279 107q-108 0 -167.5 -47t-59.5 -119q0 -39 16 -70t47.5 -53.5t57.5 -35.5t66 -29l149 -58q57 -22 99 -44.5t83.5 -57t63.5 -83
t22 -108.5z" />
    <glyph glyph-name="uni0259.sc" horiz-adv-x="1155" 
d="M551 1077q223 0 351 -145t128 -400q0 -258 -125 -404t-338 -146q-211 0 -331.5 137t-120.5 370q0 41 2 64h788q-4 205 -99.5 313.5t-256.5 108.5q-186 0 -309 -154l-80 60q71 98 172.5 147t218.5 49zM567 84q142 0 232.5 95t103.5 274h-667q6 -176 92 -272.5t239 -96.5z
" />
    <glyph glyph-name="scircumflex.sc" horiz-adv-x="976" 
d="M489 1448l-186 -213h-115l248 305h103l247 -305h-112zM598 563q57 -22 99 -44.5t83.5 -57t63.5 -83t22 -108.5q0 -135 -108 -212.5t-275 -77.5q-231 0 -385 151l66 80q60 -63 146 -96t167 -33q125 0 196.5 46.5t71.5 131.5q0 43 -16.5 76t-52.5 58t-65 38.5t-83 34.5
l-145 57q-113 43 -178.5 109.5t-65.5 171.5q0 115 94.5 193.5t245.5 78.5q211 0 352 -131l-63 -78q-113 107 -279 107q-108 0 -167.5 -47t-59.5 -119q0 -39 16 -70t47.5 -53.5t57.5 -35.5t66 -29z" />
    <glyph glyph-name="uni0219.sc" horiz-adv-x="976" 
d="M598 563q57 -22 99 -44.5t83.5 -57t63.5 -83t22 -108.5q0 -135 -108 -212.5t-275 -77.5q-231 0 -385 151l66 80q60 -63 146 -96t167 -33q125 0 196.5 46.5t71.5 131.5q0 43 -16.5 76t-52.5 58t-65 38.5t-83 34.5l-145 57q-113 43 -178.5 109.5t-65.5 171.5
q0 115 94.5 193.5t245.5 78.5q211 0 352 -131l-63 -78q-113 107 -279 107q-108 0 -167.5 -47t-59.5 -119q0 -39 16 -70t47.5 -53.5t57.5 -35.5t66 -29zM502 -100q42 0 67 -30.5t25 -86.5q0 -57 -29 -128t-73 -128l-58 35q34 44 56 92t24 76h-12q-37 0 -61.5 23t-24.5 61
q0 35 24 60.5t62 25.5z" />
    <glyph glyph-name="t.sc" horiz-adv-x="940" 
d="M858 1057v-103h-328v-954h-120v954h-330v103h778z" />
    <glyph glyph-name="tbar.sc" horiz-adv-x="970" 
d="M874 954h-327v-368h217v-92h-217v-494h-123v494h-217v92h217v368h-328v103h778v-103z" />
    <glyph glyph-name="tcaron.sc" horiz-adv-x="940" 
d="M520 1235h-102l-248 305h115l186 -213l184 213h113zM858 1057v-103h-328v-954h-120v954h-330v103h778z" />
    <glyph glyph-name="uni0163.sc" horiz-adv-x="940" 
d="M530 0h-10v-8q133 -93 133 -209q0 -78 -51 -124t-139 -46q-126 0 -193 100l62 56q58 -68 121 -68q47 0 72.5 26.5t25.5 67.5q0 117 -119 205h-22v954h-330v103h778v-103h-328v-954z" />
    <glyph glyph-name="uni021B.sc" horiz-adv-x="940" 
d="M858 1057v-103h-328v-954h-120v954h-330v103h778zM471 -100q42 0 67 -30.5t25 -86.5q0 -57 -29 -128t-73 -128l-58 35q34 44 56 92t24 76h-12q-37 0 -61.5 23t-24.5 61q0 35 24 60.5t62 25.5z" />
    <glyph glyph-name="thorn.sc" horiz-adv-x="1009" 
d="M522 860q172 0 274.5 -79t102.5 -230q0 -153 -103 -234t-274 -81h-211v-236h-123v1057h123v-197h211zM518 336q256 0 256 213q0 108 -64.5 158.5t-191.5 50.5h-207v-422h207z" />
    <glyph glyph-name="u.sc" horiz-adv-x="1120" 
d="M563 -20q-176 0 -280.5 89t-104.5 261v727h121v-707q0 -133 63.5 -200.5t200.5 -67.5t199.5 68t62.5 200v707h117v-727q0 -173 -101 -261.5t-278 -88.5z" />
    <glyph glyph-name="uacute.sc" horiz-adv-x="1120" 
d="M485 1237l199 346h139l-231 -346h-107zM563 -20q-176 0 -280.5 89t-104.5 261v727h121v-707q0 -133 63.5 -200.5t200.5 -67.5t199.5 68t62.5 200v707h117v-727q0 -173 -101 -261.5t-278 -88.5z" />
    <glyph glyph-name="ubreve.sc" horiz-adv-x="1120" 
d="M561 1231q-122 0 -199.5 76t-89.5 221h97q32 -195 192 -195q163 0 195 195h96q-13 -145 -91 -221t-200 -76zM563 -20q-176 0 -280.5 89t-104.5 261v727h121v-707q0 -133 63.5 -200.5t200.5 -67.5t199.5 68t62.5 200v707h117v-727q0 -173 -101 -261.5t-278 -88.5z" />
    <glyph glyph-name="uni01D4.sc" horiz-adv-x="1120" 
d="M612 1235h-102l-248 305h115l186 -213l185 213h112zM825 1057h117v-727q0 -173 -101 -261.5t-278 -88.5q-176 0 -280.5 89t-104.5 261v727h121v-707q0 -133 63.5 -200.5t200.5 -67.5t199.5 68t62.5 200v707z" />
    <glyph glyph-name="ucircumflex.sc" horiz-adv-x="1120" 
d="M563 1448l-186 -213h-115l248 305h102l248 -305h-112zM825 1057h117v-727q0 -173 -101 -261.5t-278 -88.5q-176 0 -280.5 89t-104.5 261v727h121v-707q0 -133 63.5 -200.5t200.5 -67.5t199.5 68t62.5 200v707z" />
    <glyph glyph-name="udieresis.sc" horiz-adv-x="1120" 
d="M373 1292q-40 0 -65 26t-25 66t25.5 67.5t64.5 27.5q41 0 66.5 -27.5t25.5 -67.5t-25.5 -66t-66.5 -26zM750 1292q-40 0 -66.5 26t-26.5 66t26.5 67.5t66.5 27.5q39 0 64.5 -27.5t25.5 -67.5t-25 -66t-65 -26zM563 -20q-176 0 -280.5 89t-104.5 261v727h121v-707
q0 -133 63.5 -200.5t200.5 -67.5t199.5 68t62.5 200v707h117v-727q0 -173 -101 -261.5t-278 -88.5z" />
    <glyph glyph-name="uni01D8.sc" horiz-adv-x="1120" 
d="M489 1507l199 346h139l-231 -346h-107zM377 1219q-40 0 -65 25t-25 65q0 39 25.5 64.5t64.5 25.5q38 0 63 -26t25 -64q0 -40 -25 -65t-63 -25zM750 1219q-40 0 -65.5 25t-25.5 65q0 39 25.5 64.5t65.5 25.5q38 0 63 -26t25 -64q0 -40 -25 -65t-63 -25zM563 -20
q-176 0 -280.5 89t-104.5 261v727h121v-707q0 -133 63.5 -200.5t200.5 -67.5t199.5 68t62.5 200v707h117v-727q0 -173 -101 -261.5t-278 -88.5z" />
    <glyph glyph-name="uni01DA.sc" horiz-adv-x="1120" 
d="M748 1812h114l-250 -305h-100l-250 305h115l184 -213zM375 1399q39 0 64.5 -25.5t25.5 -64.5q0 -40 -25 -65t-65 -25q-38 0 -63 25t-25 65q0 38 25 64t63 26zM750 1399q38 0 63 -26t25 -64q0 -40 -25 -65t-63 -25q-40 0 -65.5 25t-25.5 65q0 39 25.5 64.5t65.5 25.5z
M563 -20q-176 0 -280.5 89t-104.5 261v727h121v-707q0 -133 63.5 -200.5t200.5 -67.5t199.5 68t62.5 200v707h117v-727q0 -173 -101 -261.5t-278 -88.5z" />
    <glyph glyph-name="uni01DC.sc" horiz-adv-x="1120" 
d="M637 1507h-107l-231 346h139zM377 1219q-40 0 -65 25t-25 65q0 39 25.5 64.5t64.5 25.5q38 0 63 -26t25 -64q0 -40 -25 -65t-63 -25zM750 1219q-40 0 -65.5 25t-25.5 65q0 39 25.5 64.5t65.5 25.5q38 0 63 -26t25 -64q0 -40 -25 -65t-63 -25zM563 -20q-176 0 -280.5 89
t-104.5 261v727h121v-707q0 -133 63.5 -200.5t200.5 -67.5t199.5 68t62.5 200v707h117v-727q0 -173 -101 -261.5t-278 -88.5z" />
    <glyph glyph-name="uni01D6.sc" horiz-adv-x="1120" 
d="M270 1556v95h582v-95h-582zM375 1219q-40 0 -65 25t-25 65q0 39 25.5 64.5t64.5 25.5t64.5 -25.5t25.5 -64.5q0 -40 -25 -65t-65 -25zM748 1219q-38 0 -63.5 25.5t-25.5 64.5q0 38 25.5 64t63.5 26q39 0 64.5 -25.5t25.5 -64.5q0 -40 -25 -65t-65 -25zM563 -20
q-176 0 -280.5 89t-104.5 261v727h121v-707q0 -133 63.5 -200.5t200.5 -67.5t199.5 68t62.5 200v707h117v-727q0 -173 -101 -261.5t-278 -88.5z" />
    <glyph glyph-name="ugrave.sc" horiz-adv-x="1120" 
d="M639 1237h-107l-231 346h139zM563 -20q-176 0 -280.5 89t-104.5 261v727h121v-707q0 -133 63.5 -200.5t200.5 -67.5t199.5 68t62.5 200v707h117v-727q0 -173 -101 -261.5t-278 -88.5z" />
    <glyph glyph-name="uhungarumlaut.sc" horiz-adv-x="1120" 
d="M328 1237l192 303h135l-221 -303h-106zM653 1237l193 303h137l-223 -303h-107zM563 -20q-176 0 -280.5 89t-104.5 261v727h121v-707q0 -133 63.5 -200.5t200.5 -67.5t199.5 68t62.5 200v707h117v-727q0 -173 -101 -261.5t-278 -88.5z" />
    <glyph glyph-name="umacron.sc" horiz-adv-x="1120" 
d="M270 1307v94h582v-94h-582zM563 -20q-176 0 -280.5 89t-104.5 261v727h121v-707q0 -133 63.5 -200.5t200.5 -67.5t199.5 68t62.5 200v707h117v-727q0 -173 -101 -261.5t-278 -88.5z" />
    <glyph glyph-name="uogonek.sc" horiz-adv-x="1120" 
d="M764 18q-83 -56 -122.5 -106.5t-39.5 -110.5q0 -39 28.5 -65.5t74.5 -26.5q58 0 120 66l66 -60q-74 -102 -201 -102q-91 0 -147 47.5t-56 126.5q0 99 111 184v9h-35q-176 0 -280.5 89t-104.5 261v727h121v-707q0 -133 63.5 -200.5t200.5 -67.5t199.5 68t62.5 200v707h117
v-727q0 -232 -178 -312z" />
    <glyph glyph-name="uring.sc" horiz-adv-x="1120" 
d="M559 1204q-96 0 -159.5 59.5t-63.5 147.5q0 89 63 149t160 60t161 -60t64 -149q0 -88 -64.5 -147.5t-160.5 -59.5zM559 1282q55 0 92 37.5t37 91.5q0 55 -36 93t-93 38t-92 -38.5t-35 -92.5q0 -53 37 -91t90 -38zM563 -20q-176 0 -280.5 89t-104.5 261v727h121v-707
q0 -133 63.5 -200.5t200.5 -67.5t199.5 68t62.5 200v707h117v-727q0 -173 -101 -261.5t-278 -88.5z" />
    <glyph glyph-name="utilde.sc" horiz-adv-x="1120" 
d="M680 1237q-38 0 -71 18t-48 34t-41 50q-23 32 -41.5 48t-42.5 16q-33 0 -55 -32.5t-27 -121.5h-88q3 78 21 133.5t46 81.5t54 36.5t55 10.5q37 0 69 -16.5t48 -34t39 -47.5q52 -67 88 -67q32 0 52 30.5t30 122.5h88q-3 -78 -21 -133.5t-46 -81.5t-54 -36.5t-55 -10.5z
M563 -20q-176 0 -280.5 89t-104.5 261v727h121v-707q0 -133 63.5 -200.5t200.5 -67.5t199.5 68t62.5 200v707h117v-727q0 -173 -101 -261.5t-278 -88.5z" />
    <glyph glyph-name="v.sc" horiz-adv-x="1026" 
d="M483 231q26 -84 31 -106h6q9 46 27 104l287 828h122l-374 -1057h-136l-376 1057h133z" />
    <glyph glyph-name="w.sc" horiz-adv-x="1562" 
d="M1090 227q11 -37 22 -94h6q7 54 21 96l215 828h129l-303 -1057h-133l-242 817q-17 62 -21 103h-6q-4 -35 -22 -101l-244 -819h-129l-301 1057h129l219 -828q13 -49 19 -98h6q8 50 22 96l244 830h119z" />
    <glyph glyph-name="wacute.sc" horiz-adv-x="1562" 
d="M705 1237l198 346h139l-231 -346h-106zM1090 227q11 -37 22 -94h6q7 54 21 96l215 828h129l-303 -1057h-133l-242 817q-17 62 -21 103h-6q-4 -35 -22 -101l-244 -819h-129l-301 1057h129l219 -828q13 -49 19 -98h6q8 50 22 96l244 830h119z" />
    <glyph glyph-name="wcircumflex.sc" horiz-adv-x="1562" 
d="M782 1448l-186 -213h-115l248 305h102l248 -305h-112zM1354 1057h129l-303 -1057h-133l-242 817q-17 62 -21 103h-6q-4 -35 -22 -101l-244 -819h-129l-301 1057h129l219 -828q13 -49 19 -98h6q8 50 22 96l244 830h119l250 -830q11 -37 22 -94h6q7 54 21 96z" />
    <glyph glyph-name="wdieresis.sc" horiz-adv-x="1562" 
d="M592 1292q-40 0 -65 26t-25 66t25.5 67.5t64.5 27.5q41 0 66.5 -27.5t25.5 -67.5t-25.5 -66t-66.5 -26zM969 1292q-40 0 -66 26t-26 66t26.5 67.5t65.5 27.5t64.5 -27.5t25.5 -67.5t-25 -66t-65 -26zM1090 227q11 -37 22 -94h6q7 54 21 96l215 828h129l-303 -1057h-133
l-242 817q-17 62 -21 103h-6q-4 -35 -22 -101l-244 -819h-129l-301 1057h129l219 -828q13 -49 19 -98h6q8 50 22 96l244 830h119z" />
    <glyph glyph-name="wgrave.sc" horiz-adv-x="1562" 
d="M858 1237h-106l-232 346h139zM1090 227q11 -37 22 -94h6q7 54 21 96l215 828h129l-303 -1057h-133l-242 817q-17 62 -21 103h-6q-4 -35 -22 -101l-244 -819h-129l-301 1057h129l219 -828q13 -49 19 -98h6q8 50 22 96l244 830h119z" />
    <glyph glyph-name="x.sc" horiz-adv-x="989" 
d="M569 547l355 -547h-140l-247 391q-13 22 -39 72h-6q-17 -33 -46 -72l-251 -391h-129l352 543l-332 514h133l225 -361q5 -8 22 -34t26 -44h6l47 78l233 361h127z" />
    <glyph glyph-name="y.sc" horiz-adv-x="1015" 
d="M963 1057l-394 -565v-492h-120v487l-396 570h148l272 -408q36 -60 37 -61h6q16 32 35 59l274 410h138z" />
    <glyph glyph-name="yacute.sc" horiz-adv-x="1015" 
d="M774 1583l-231 -346h-107l199 346h139zM963 1057l-394 -565v-492h-120v487l-396 570h148l272 -408q36 -60 37 -61h6q16 32 35 59l274 410h138z" />
    <glyph glyph-name="ycircumflex.sc" horiz-adv-x="1015" 
d="M514 1448l-186 -213h-115l248 305h102l248 -305h-113zM963 1057l-394 -565v-492h-120v487l-396 570h148l272 -408q36 -60 37 -61h6q16 32 35 59l274 410h138z" />
    <glyph glyph-name="ydieresis.sc" horiz-adv-x="1015" 
d="M324 1292q-40 0 -65.5 26t-25.5 66t26 67.5t65 27.5q41 0 66.5 -27.5t25.5 -67.5t-25.5 -66t-66.5 -26zM700 1292q-40 0 -66 26t-26 66t26.5 67.5t65.5 27.5t65 -27.5t26 -67.5t-25.5 -66t-65.5 -26zM963 1057l-394 -565v-492h-120v487l-396 570h148l272 -408
q36 -60 37 -61h6q16 32 35 59l274 410h138z" />
    <glyph glyph-name="ygrave.sc" horiz-adv-x="1015" 
d="M590 1237h-107l-231 346h139zM963 1057l-394 -565v-492h-120v487l-396 570h148l272 -408q36 -60 37 -61h6q16 32 35 59l274 410h138z" />
    <glyph glyph-name="uni0233.sc" horiz-adv-x="1015" 
d="M803 1401v-94h-582v94h582zM963 1057l-394 -565v-492h-120v487l-396 570h148l272 -408q36 -60 37 -61h6q16 32 35 59l274 410h138z" />
    <glyph glyph-name="uni1EF9.sc" horiz-adv-x="1015" 
d="M387 1403q-33 0 -55 -32.5t-27 -121.5h-88q3 78 21 133.5t46 81.5t54 36.5t55 10.5q37 0 69 -16.5t48 -34t39 -47.5q52 -67 88 -67q32 0 52 30.5t30 122.5h88q-3 -78 -21 -133.5t-46 -81.5t-54 -36.5t-55 -10.5q-38 0 -71 18t-48 34t-41 50q-23 32 -41.5 48t-42.5 16z
M963 1057l-394 -565v-492h-120v487l-396 570h148l272 -408q36 -60 37 -61h6q16 32 35 59l274 410h138z" />
    </font>
</defs>
</svg>
