<?xml version="1.0" standalone="no"?>
<!DOCTYPE svg PUBLIC "-//W3C//DTD SVG 1.1//EN" "http://www.w3.org/Graphics/SVG/1.1/DTD/svg11.dtd" >
<svg xmlns="http://www.w3.org/2000/svg" xmlns:xlink="http://www.w3.org/1999/xlink" version="1.1">
<metadata>
Created by FontForge 20170731 at Mon Jun 21 15:57:03 2021
 By Aleksey,,,
Copyright (c) 2019 by Daimler AG. All rights reserved.
</metadata>
<defs>
<font id="MBCorpoSTitle-Regular" horiz-adv-x="1110" >
  <font-face 
    font-family="MB Corpo S Title"
    font-weight="400"
    font-stretch="normal"
    units-per-em="2048"
    panose-1="2 11 5 4 7 0 0 0 0 3"
    ascent="1688"
    descent="-360"
    x-height="973"
    cap-height="1368"
    bbox="-1163 -399 2292 2007"
    underline-thickness="139"
    underline-position="-384"
    unicode-range="U+000D-FEFF"
  />
<missing-glyph horiz-adv-x="1224" 
d="M985 1645l16 -17v-1890l-16 -17h-747l-17 17v1890l17 17h747zM969 1612h-715v-1858h715v1858z" />
    <glyph glyph-name=".notdef" horiz-adv-x="1224" 
d="M985 1645l16 -17v-1890l-16 -17h-747l-17 17v1890l17 17h747zM969 1612h-715v-1858h715v1858z" />
    <glyph glyph-name=".null" horiz-adv-x="0" 
 />
    <glyph glyph-name="nonmarkingreturn" horiz-adv-x="682" 
 />
    <glyph glyph-name="CR" unicode="&#xd;" horiz-adv-x="421" 
 />
    <glyph glyph-name="space" unicode=" " horiz-adv-x="421" 
 />
    <glyph glyph-name="exclam" unicode="!" horiz-adv-x="477" 
d="M143 1368h191v-299l-37 -657h-119l-35 657v299zM240 -20q-55 0 -90 33.5t-35 86.5t35 87t90 34q54 0 89.5 -34.5t35.5 -86.5t-35.5 -86t-89.5 -34z" />
    <glyph glyph-name="quotedbl" unicode="&#x22;" horiz-adv-x="696" 
d="M109 958l-29 304v106h168v-106l-29 -304h-110zM440 958l-28 304v106h168v-106l-29 -304h-111z" />
    <glyph glyph-name="numbersign" unicode="#" horiz-adv-x="1081" 
d="M1014 846h-201l-39 -303h201v-133h-217l-53 -410h-152l53 410h-209l-53 -410h-149l53 410h-178v133h196l39 303h-196v133h213l51 389h149l-51 -389h209l51 389h150l-50 -389h183v-133zM625 543l39 303h-209l-39 -303h209z" />
    <glyph glyph-name="dollar" unicode="$" 
d="M1001 367q0 -154 -100.5 -248t-263.5 -115v-184h-129v182q-121 11 -226.5 69.5t-181.5 159.5l99 101q62 -77 144 -124t165 -58v477l-74 30q-92 39 -151.5 82.5t-97.5 114.5t-38 166q0 139 99 236t262 110v168h129v-172q193 -29 326 -188l-101 -99q-84 107 -225 135v-440
l53 -22q49 -20 89.5 -42t83 -56.5t72 -73t48 -93t18.5 -116.5zM334 1030q0 -77 43.5 -123t130.5 -84v391q-85 -12 -129.5 -62t-44.5 -122zM637 156q85 17 130.5 68t45.5 130q0 78 -44 127.5t-132 89.5v-415z" />
    <glyph glyph-name="percent" unicode="%" horiz-adv-x="1595" 
d="M299 0l838 1368h161l-841 -1368h-158zM385 639q-147 0 -237.5 102.5t-90.5 274.5t90.5 274.5t237.5 102.5t236.5 -102.5t89.5 -274.5t-89.5 -274.5t-236.5 -102.5zM385 754q83 0 127.5 68t44.5 194t-44.5 194t-127.5 68t-128.5 -68t-45.5 -194t45.5 -194t128.5 -68z
M1210 -23q-147 0 -236 102.5t-89 274.5t89 274.5t236 102.5t237.5 -102.5t90.5 -274.5t-90.5 -274.5t-237.5 -102.5zM1210 92q83 0 128.5 68t45.5 194t-45.5 194t-128.5 68t-127.5 -68t-44.5 -194t44.5 -194t127.5 -68z" />
    <glyph glyph-name="ampersand" unicode="&#x26;" horiz-adv-x="1155" 
d="M1147 0h-219l-111 133q-143 -158 -350 -158q-176 0 -281.5 100.5t-105.5 248.5q0 124 68.5 215.5t195.5 165.5l-16 20q-150 184 -150 328q0 154 99.5 247t240.5 93q130 0 224 -85t94 -218q0 -116 -63.5 -204t-207.5 -181l273 -332q67 142 80 358h126q-12 -283 -112 -469z
M526 1262q-71 0 -120.5 -52t-49.5 -143q0 -107 107 -240l24 -30q119 70 162 138.5t43 141.5q0 86 -47.5 135.5t-118.5 49.5zM496 115q139 0 235 123l-311 376q-156 -109 -156 -272q0 -99 63 -163t169 -64z" />
    <glyph glyph-name="quotesingle" unicode="'" horiz-adv-x="364" 
d="M127 958l-29 304v106h168v-106l-28 -304h-111z" />
    <glyph glyph-name="parenleft" unicode="(" horiz-adv-x="563" 
d="M424 -391q-76 90 -134 181.5t-106.5 204.5t-74 247.5t-25.5 285.5q0 290 90 510.5t250 407.5l119 -57q-291 -363 -291 -861q0 -501 291 -860z" />
    <glyph glyph-name="parenright" unicode=")" horiz-adv-x="563" 
d="M137 -391l-117 59q289 357 289 860q0 501 -289 861l117 57q161 -186 251.5 -406.5t90.5 -511.5q0 -151 -25.5 -285.5t-74 -247.5t-107 -204.5t-135.5 -181.5z" />
    <glyph glyph-name="asterisk" unicode="*" horiz-adv-x="727" 
d="M309 1393h107v-219l200 75l37 -100l-204 -74l143 -182l-86 -64l-144 185l-141 -185l-86 64l141 182l-204 74l37 100l200 -75v219z" />
    <glyph glyph-name="plus" unicode="+" 
d="M1032 692v-149h-399v-420h-158v420h-397v149h397v420h158v-420h399z" />
    <glyph glyph-name="comma" unicode="," horiz-adv-x="442" 
d="M215 229q64 0 99.5 -49t35.5 -133q0 -134 -64 -221.5t-186 -99.5v81q64 7 104 60.5t42 116.5q-20 -4 -33 -4q-53 0 -87 34.5t-34 89.5t34.5 90t88.5 35z" />
    <glyph glyph-name="hyphen" unicode="-" horiz-adv-x="720" 
d="M119 502v139h483v-139h-483z" />
    <glyph glyph-name="period" unicode="." horiz-adv-x="428" 
d="M213 -20q-54 0 -89.5 34.5t-35.5 89.5t35.5 90t89.5 35q55 0 90 -34.5t35 -90.5q0 -55 -34.5 -89.5t-90.5 -34.5z" />
    <glyph glyph-name="slash" unicode="/" horiz-adv-x="819" 
d="M621 1368h157l-581 -1563h-158z" />
    <glyph glyph-name="zero" unicode="0" horiz-adv-x="1181" 
d="M592 -25q-104 0 -192 43.5t-155.5 129t-105 223t-37.5 313.5t37.5 313.5t105 223t155.5 129t192 43.5t191.5 -43.5t154 -129t104 -223t37.5 -313.5t-37.5 -313.5t-104 -223t-154 -129t-191.5 -43.5zM592 123q135 0 213 139t78 422t-78 422t-213 139q-136 0 -214.5 -139
t-78.5 -422t78.5 -422t214.5 -139z" />
    <glyph glyph-name="one" unicode="1" horiz-adv-x="759" 
d="M504 147h207v-147h-615v147h221v932q-86 -54 -221 -57v135q238 9 269 211h139v-1221z" />
    <glyph glyph-name="two" unicode="2" horiz-adv-x="1056" 
d="M293 162h676v-162h-881v143q267 218 405 355t198.5 247.5t60.5 229.5q0 120 -66 195t-182 75q-117 0 -184 -80t-60 -213h-158q-7 200 107.5 320.5t304.5 120.5q183 0 302.5 -113.5t119.5 -304.5q0 -81 -24 -154.5t-69.5 -144t-127 -153.5t-179 -165.5t-243.5 -195.5z" />
    <glyph glyph-name="three" unicode="3" horiz-adv-x="1060" 
d="M674 729q56 -14 105.5 -41.5t92.5 -70t68 -104.5t25 -136q0 -182 -132.5 -292t-330.5 -110q-156 0 -272 76t-175 228l131 55q54 -107 127.5 -159t178.5 -52q126 0 204 70.5t78 195.5q0 57 -20 103t-52 74t-74.5 47t-83.5 26.5t-83 7.5h-72v139h98q99 0 172.5 63t73.5 173
q0 105 -63 164t-166 59q-91 0 -155.5 -46t-98.5 -124l-121 70q47 111 146 179.5t241 68.5q170 0 286 -98.5t116 -254.5q0 -121 -70.5 -200.5t-173.5 -110.5z" />
    <glyph glyph-name="four" unicode="4" horiz-adv-x="1120" 
d="M1059 444v-141h-215v-303h-185v303h-606v133l611 932h180v-924h215zM207 444h457v691z" />
    <glyph glyph-name="five" unicode="5" horiz-adv-x="1056" 
d="M559 889q175 0 293.5 -119t118.5 -332q0 -109 -40 -199t-105.5 -146.5t-146 -87t-165.5 -30.5q-158 0 -273 77.5t-169 219.5l135 54q49 -101 121 -152t178 -51q114 0 194 82t80 227q0 148 -75 229.5t-189 81.5q-167 0 -264 -143l-133 29l110 739h691v-162h-566l-67 -438
q102 121 272 121z" />
    <glyph glyph-name="six" unicode="6" horiz-adv-x="1120" 
d="M621 889q170 0 288.5 -125t118.5 -322q0 -103 -36 -191t-97 -148t-142 -94t-171 -34q-82 0 -152 21.5t-131.5 71.5t-104.5 125.5t-67.5 189t-24.5 256.5q0 186 40.5 332t111.5 237t163 138t199 47q134 0 236.5 -68t151.5 -180l-121 -70q-90 170 -258 170
q-153 0 -237 -137.5t-91 -415.5q40 82 123 139.5t201 57.5zM573 123q116 0 191.5 85.5t75.5 223.5t-75.5 223.5t-191.5 85.5q-114 0 -189 -85.5t-75 -223.5t75 -223.5t189 -85.5z" />
    <glyph glyph-name="seven" unicode="7" horiz-adv-x="954" 
d="M51 1368h846v-147q-205 -216 -314.5 -513.5t-115.5 -707.5h-197q2 190 38.5 369t99.5 329t139.5 274.5t169.5 233.5h-666v162z" />
    <glyph glyph-name="eight" unicode="8" horiz-adv-x="1138" 
d="M770 709q59 -30 103.5 -61t85.5 -74t63 -99t22 -121q0 -164 -129 -271.5t-350 -107.5q-210 0 -340.5 101t-130.5 260q0 222 277 364q-226 118 -226 334q0 158 120.5 258.5t305.5 100.5q182 0 302 -96.5t120 -256.5q0 -104 -60.5 -189t-162.5 -142zM580 1251
q-106 0 -173 -58t-67 -149q0 -46 18 -84t52.5 -67.5t71.5 -50.5t87 -43l62 -27q190 98 190 264q0 100 -68 157.5t-173 57.5zM557 117q137 0 215 61.5t78 163.5q0 40 -19.5 77t-47 64t-72.5 55t-81 45.5t-87 39.5l-29 12q-246 -111 -246 -291q0 -98 78.5 -162.5t210.5 -64.5z
" />
    <glyph glyph-name="nine" unicode="9" horiz-adv-x="1067" 
d="M514 1393q202 0 331.5 -130t129.5 -352q0 -122 -45 -250.5t-126 -249t-181 -230.5t-222 -214l-135 78q322 278 445 547q-92 -86 -232 -86q-183 0 -299.5 121t-116.5 311q0 199 128.5 327t322.5 128zM518 653q121 0 193.5 84.5t72.5 212.5t-72 211.5t-194 83.5t-194 -83.5
t-72 -211.5t72.5 -212.5t193.5 -84.5z" />
    <glyph glyph-name="colon" unicode=":" horiz-adv-x="479" 
d="M240 743q-54 0 -89.5 35t-35.5 90t35.5 90t89.5 35q56 0 90.5 -34.5t34.5 -90.5t-34.5 -90.5t-90.5 -34.5zM240 -20q-54 0 -89.5 34.5t-35.5 89.5t35.5 90t89.5 35q56 0 90.5 -34.5t34.5 -90.5q0 -55 -34.5 -89.5t-90.5 -34.5z" />
    <glyph glyph-name="semicolon" unicode=";" horiz-adv-x="487" 
d="M246 743q-54 0 -89.5 35t-35.5 90t35.5 90t89.5 35q56 0 90.5 -34.5t34.5 -90.5t-34.5 -90.5t-90.5 -34.5zM236 229q64 0 100.5 -49t36.5 -133q0 -134 -65 -221.5t-187 -99.5v81q64 7 103.5 60.5t41.5 116.5q-20 -4 -33 -4q-53 0 -85.5 34.5t-32.5 89.5t34 90t87 35z" />
    <glyph glyph-name="less" unicode="&#x3c;" 
d="M958 1112v-170l-679 -326l679 -325v-168l-839 416v159z" />
    <glyph glyph-name="equal" unicode="=" 
d="M100 750v145h910v-145h-910zM100 338v147h910v-147h-910z" />
    <glyph glyph-name="greater" unicode="&#x3e;" 
d="M152 1112l839 -414v-159l-839 -416v168l679 325l-679 326v170z" />
    <glyph glyph-name="question" unicode="?" horiz-adv-x="884" 
d="M432 1393q165 0 277 -100.5t112 -274.5q0 -138 -85.5 -244t-231.5 -160v-204h-158v280q142 41 209.5 127t67.5 199q0 102 -54 164.5t-155 62.5q-95 0 -151 -64.5t-56 -166.5h-156q0 170 105.5 275.5t275.5 105.5zM426 229q54 0 89.5 -35t35.5 -90t-35.5 -89.5
t-89.5 -34.5q-56 0 -90.5 34.5t-34.5 89.5q0 56 34.5 90.5t90.5 34.5z" />
    <glyph glyph-name="at" unicode="@" horiz-adv-x="1656" 
d="M911 1360q150 0 280 -60t218 -163t131 -249.5t25 -312.5q-13 -115 -51.5 -212t-92.5 -160.5t-118 -99t-129 -35.5q-96 0 -148.5 48t-60.5 130q-97 -156 -252 -156q-138 0 -214.5 125.5t-37.5 349.5q18 101 57 182t89 130.5t104.5 75.5t107.5 26q171 0 221 -174l27 147
h162l-96 -528q-7 -38 -10.5 -66.5t-4.5 -58t3.5 -49t14 -36t27.5 -24.5t43 -8q80 0 151.5 108t90.5 326q15 179 -45.5 325.5t-191 233.5t-306.5 87q-276 0 -471 -204t-223 -530q-17 -212 48 -375t206.5 -254.5t339.5 -91.5q122 0 235 31.5t193 87.5l51 -84
q-195 -133 -493 -133q-167 0 -306 58.5t-233.5 164t-139.5 260.5t-28 340q17 186 90 343t183.5 262.5t253.5 164t300 58.5zM758 217q75 0 136.5 74.5t90.5 228.5q29 152 -6.5 242t-118.5 90q-75 0 -136.5 -75t-90.5 -232q-28 -150 6.5 -239t118.5 -89z" />
    <glyph glyph-name="A" unicode="A" horiz-adv-x="1198" 
d="M967 0l-113 342h-532l-113 -342h-180l467 1368h206l467 -1368h-202zM369 487h438l-219 668z" />
    <glyph glyph-name="B" unicode="B" horiz-adv-x="1155" 
d="M799 725q125 -35 198.5 -122.5t73.5 -221.5q0 -96 -37 -170.5t-101.5 -119.5t-146.5 -68t-178 -23h-452v1368h417q198 0 320.5 -92t122.5 -256q0 -112 -58 -185.5t-159 -109.5zM563 1225h-217v-451h217q120 0 189 56t69 169q0 112 -69 169t-189 57zM580 143
q290 0 290 246q0 126 -76 186t-214 60h-234v-492h234z" />
    <glyph glyph-name="C" unicode="C" horiz-adv-x="1189" 
d="M293 684q0 -270 103 -411.5t266 -141.5q118 0 202 69.5t133 225.5l140 -57q-61 -200 -187 -297t-303 -97q-115 0 -215 46t-176 133t-120 223.5t-44 306.5t43.5 306.5t119.5 223.5t175.5 133t214.5 46q359 0 477 -361l-139 -55q-90 260 -321 260q-165 0 -267 -141.5
t-102 -411.5z" />
    <glyph glyph-name="D" unicode="D" horiz-adv-x="1302" 
d="M563 1368q141 0 257.5 -41.5t204 -123.5t136.5 -214.5t49 -304.5t-49 -304.5t-136.5 -214.5t-204 -123.5t-257.5 -41.5h-407v1368h407zM545 147q216 0 340.5 132t124.5 405t-124.5 405t-340.5 132h-199v-1074h199z" />
    <glyph glyph-name="E" unicode="E" horiz-adv-x="1058" 
d="M346 147h617v-147h-807v1368h794v-147h-604v-445h569v-143h-569v-486z" />
    <glyph glyph-name="F" unicode="F" horiz-adv-x="1001" 
d="M936 1221h-590v-469h539v-148h-539v-604h-190v1368h780v-147z" />
    <glyph glyph-name="G" unicode="G" horiz-adv-x="1282" 
d="M668 686h508v-528q-89 -86 -212 -134.5t-268 -48.5q-128 0 -235.5 42.5t-191 126.5t-130.5 222.5t-47 317.5q0 170 46.5 306.5t127 223.5t186 133t226.5 46q171 0 299.5 -80t189.5 -238l-135 -69q-50 119 -138.5 175t-201.5 56q-177 0 -288 -141.5t-111 -411.5
q0 -277 105.5 -416t293.5 -139q182 0 307 104v310h-331v143z" />
    <glyph glyph-name="H" unicode="H" horiz-adv-x="1290" 
d="M944 1368h191v-1368h-191v631h-598v-631h-190v1368h190v-590h598v590z" />
    <glyph glyph-name="I" unicode="I" horiz-adv-x="503" 
d="M156 1368h190v-1368h-190v1368z" />
    <glyph glyph-name="J" unicode="J" horiz-adv-x="651" 
d="M162 -238q-103 0 -178 23v160q52 -23 137 -23q87 0 135.5 46.5t48.5 160.5v1239h191v-1268q0 -168 -89.5 -253t-244.5 -85z" />
    <glyph glyph-name="K" unicode="K" horiz-adv-x="1134" 
d="M913 0l-510 633h-57v-633h-190v1368h190v-586h53l484 586h194l-534 -633l606 -735h-236z" />
    <glyph glyph-name="L" unicode="L" horiz-adv-x="976" 
d="M346 147h582v-147h-772v1368h190v-1221z" />
    <glyph glyph-name="M" unicode="M" horiz-adv-x="1599" 
d="M1165 1368h279v-1368h-182v1178l-383 -1178h-174l-386 1163v-1163h-163v1368h284l365 -1126z" />
    <glyph glyph-name="N" unicode="N" horiz-adv-x="1300" 
d="M977 1368h168v-1368h-223l-598 1100v-1100h-168v1368h223l598 -1100v1100z" />
    <glyph glyph-name="O" unicode="O" horiz-adv-x="1361" 
d="M680 -25q-124 0 -230.5 45.5t-186.5 132.5t-125.5 223.5t-45.5 307.5t45.5 307.5t125.5 223.5t186.5 132.5t230.5 45.5q125 0 231.5 -45.5t187 -132.5t126 -223t45.5 -308t-45.5 -308t-126 -223t-187 -132.5t-231.5 -45.5zM680 131q175 0 282 139.5t107 413.5t-107 413.5
t-282 139.5q-173 0 -280 -139.5t-107 -413.5t107 -413.5t280 -139.5z" />
    <glyph glyph-name="P" unicode="P" horiz-adv-x="1118" 
d="M584 1368q210 0 339.5 -105t129.5 -302q0 -133 -62 -227t-166 -138.5t-241 -44.5h-238v-551h-190v1368h428zM571 696q281 0 281 262q0 133 -72.5 198t-208.5 65h-225v-525h225z" />
    <glyph glyph-name="Q" unicode="Q" horiz-adv-x="1361" 
d="M1278 -184h-236l-151 196q-98 -37 -211 -37q-124 0 -230.5 45.5t-186.5 132.5t-125.5 223.5t-45.5 307.5t45.5 307.5t125.5 223.5t186.5 132.5t230.5 45.5q125 0 231.5 -45.5t187 -132.5t126 -223t45.5 -308q0 -384 -217 -575zM293 684q0 -274 107 -413.5t280 -139.5
q175 0 282 139.5t107 413.5t-107 413.5t-282 139.5q-173 0 -280 -139.5t-107 -413.5z" />
    <glyph glyph-name="R" unicode="R" horiz-adv-x="1146" 
d="M887 0l-363 578h-178v-578h-190v1368h428q93 0 172.5 -24t141 -71.5t97 -123.5t35.5 -174q0 -153 -84.5 -250t-224.5 -129l393 -596h-227zM346 1223v-502h221q124 0 194 62t70 190q0 126 -69.5 188t-194.5 62h-221z" />
    <glyph glyph-name="S" unicode="S" horiz-adv-x="1097" 
d="M158 319q153 -190 383 -190q130 0 207 55.5t77 155.5q0 49 -18.5 87.5t-57 68t-74 48t-93.5 42.5l-168 65q-140 57 -222.5 151.5t-82.5 229.5q0 154 119 257.5t309 103.5q275 0 448 -207l-104 -107q-134 160 -332 160q-114 0 -178 -56t-64 -139q0 -79 52 -130t155 -95
l174 -69q56 -23 100 -45.5t90 -57.5t76.5 -74.5t50 -94.5t19.5 -120q0 -119 -63.5 -207t-171 -132t-242.5 -44q-311 0 -492 238z" />
    <glyph glyph-name="T" unicode="T" horiz-adv-x="1062" 
d="M1014 1368v-147h-387v-1221h-191v1221h-387v147h965z" />
    <glyph glyph-name="U" unicode="U" horiz-adv-x="1243" 
d="M621 -25q-223 0 -349.5 121.5t-126.5 345.5v926h191v-903q0 -173 74.5 -253.5t222.5 -80.5q145 0 221 79t76 255v903h168v-926q0 -224 -127 -345.5t-350 -121.5z" />
    <glyph glyph-name="V" unicode="V" horiz-adv-x="1173" 
d="M958 1368h185l-453 -1368h-207l-452 1368h213l358 -1143z" />
    <glyph glyph-name="W" unicode="W" horiz-adv-x="1839" 
d="M1614 1368h184l-358 -1368h-223l-304 1098l-297 -1098h-217l-360 1368h205l282 -1137l301 1137h197l317 -1141z" />
    <glyph glyph-name="X" unicode="X" horiz-adv-x="1118" 
d="M1102 0h-217l-336 555l-346 -555h-187l441 690l-418 678h217l313 -524l326 524h180l-409 -659z" />
    <glyph glyph-name="Y" unicode="Y" horiz-adv-x="1181" 
d="M1159 1368l-473 -737v-631h-190v631l-473 737h217l362 -586l365 586h192z" />
    <glyph glyph-name="Z" unicode="Z" horiz-adv-x="1026" 
d="M276 145h687v-145h-908v135l684 1088h-655v145h877v-135z" />
    <glyph glyph-name="bracketleft" unicode="[" horiz-adv-x="573" 
d="M528 1430v-130h-215v-1542h215v-131h-376v1803h376z" />
    <glyph glyph-name="backslash" unicode="\" horiz-adv-x="819" 
d="M199 1368l581 -1563h-157l-582 1563h158z" />
    <glyph glyph-name="bracketright" unicode="]" horiz-adv-x="573" 
d="M43 1430h379v-1803h-379v131h217v1542h-217v130z" />
    <glyph glyph-name="asciicircum" unicode="^" 
d="M944 754h-162l-227 436l-227 -436h-164l346 639h90z" />
    <glyph glyph-name="underscore" unicode="_" horiz-adv-x="1024" 
d="M0 -254v139h1024v-139h-1024z" />
    <glyph glyph-name="grave" unicode="`" horiz-adv-x="696" 
d="M477 1112h-117l-303 240v16h234z" />
    <glyph glyph-name="a" unicode="a" horiz-adv-x="962" 
d="M854 0h-174q-5 38 -14 168q-93 -188 -308 -188q-129 0 -208.5 71t-79.5 199q0 69 24 122.5t68 89t96 58.5t119 39q117 27 278 51v58q0 102 -52 147t-148 45q-78 0 -134 -44.5t-59 -125.5h-147q3 137 102.5 220t247.5 83q173 0 273 -88.5t100 -255.5v-395q0 -94 16 -254z
M406 106q107 0 178 78.5t71 206.5v111q-133 -24 -217 -47q-97 -26 -139.5 -72.5t-42.5 -122.5q0 -74 40.5 -114t109.5 -40z" />
    <glyph glyph-name="b" unicode="b" horiz-adv-x="1087" 
d="M602 993q82 0 154 -33t128.5 -94.5t89 -160t32.5 -220.5q0 -121 -32.5 -218.5t-89 -159t-128.5 -94.5t-154 -33q-96 0 -173 48.5t-124 141.5v-170h-172v1368h180v-549q47 85 121.5 129.5t167.5 44.5zM565 117q118 0 186 96.5t68 271.5q0 177 -68 274t-186 97
q-117 0 -185.5 -98t-68.5 -271q0 -175 68.5 -272.5t185.5 -97.5z" />
    <glyph glyph-name="c" unicode="c" horiz-adv-x="933" 
d="M514 -20q-188 0 -310 136.5t-122 368.5q0 234 123 371t313 137q244 0 356 -223l-116 -68q-78 154 -230 154q-117 0 -188.5 -95.5t-71.5 -275.5q0 -179 71.5 -273.5t188.5 -94.5q158 0 238 168l117 -66q-114 -239 -369 -239z" />
    <glyph glyph-name="d" unicode="d" horiz-adv-x="1087" 
d="M774 1368h180v-1368h-172v168q-45 -92 -122 -140t-175 -48q-82 0 -154 32.5t-128 94.5t-88.5 160t-32.5 220q0 238 116.5 372t286.5 134q93 0 167.5 -44.5t121.5 -129.5v549zM522 117q117 0 185.5 97.5t68.5 270.5q0 176 -68 273.5t-186 97.5t-186 -97t-68 -272
q0 -177 68 -273.5t186 -96.5z" />
    <glyph glyph-name="e" unicode="e" horiz-adv-x="1015" 
d="M936 516q0 -38 -2 -61h-670q7 -164 79.5 -251t201.5 -87q86 0 150 36.5t118 110.5l105 -84q-142 -200 -383 -200q-204 0 -329.5 135.5t-125.5 369.5t121.5 371t318.5 137q188 0 302 -130t114 -347zM520 856q-103 0 -169 -73t-83 -210h488q-10 137 -71.5 210t-164.5 73z
" />
    <glyph glyph-name="f" unicode="f" horiz-adv-x="667" 
d="M532 1255q-64 0 -95 -36.5t-31 -128.5v-117h227v-131h-227v-842h-183v842h-182v131h182v139q0 140 75 210.5t204 70.5q86 0 147 -17v-135q-72 14 -117 14z" />
    <glyph glyph-name="g" unicode="g" horiz-adv-x="983" 
d="M594 201q162 -18 258 -88.5t96 -192.5q0 -138 -123.5 -215.5t-341.5 -77.5q-210 0 -329 67t-119 183q0 82 61 137.5t156 77.5q-139 40 -139 139q0 120 192 172q-92 35 -145.5 106.5t-53.5 170.5q0 145 104 229t265 84q82 0 146 -20h307v-129l-166 8q82 -67 82 -184
t-85.5 -195.5t-219.5 -93.5q-134 -24 -190 -45.5t-56 -52.5q0 -34 56.5 -47.5t244.5 -32.5zM475 868q-90 0 -143 -51.5t-53 -136.5q0 -84 53 -134t143 -50t143.5 50t53.5 134q0 86 -53 137t-144 51zM485 -252q135 0 208 40t73 108q0 70 -73 110.5t-208 40.5
q-134 0 -207 -40.5t-73 -110.5q0 -68 73 -108t207 -40z" />
    <glyph glyph-name="h" unicode="h" horiz-adv-x="1042" 
d="M610 993q140 0 224 -87t84 -238v-668h-181v631q0 115 -44 170t-138 55q-101 0 -171.5 -74.5t-70.5 -201.5v-580h-180v1368h180v-541q43 76 119.5 121t177.5 45z" />
    <glyph glyph-name="i" unicode="i" horiz-adv-x="446" 
d="M223 1141q-51 0 -82.5 31t-31.5 81t31.5 81.5t82.5 31.5q49 0 81 -32t32 -81t-31.5 -80.5t-81.5 -31.5zM133 973h180v-973h-180v973z" />
    <glyph glyph-name="j" unicode="j" horiz-adv-x="462" 
d="M240 1141q-51 0 -83 31t-32 81t32 81.5t83 31.5q49 0 80.5 -31.5t31.5 -81.5q0 -49 -31 -80.5t-81 -31.5zM55 -373q-74 0 -151 17v139q82 -19 114 -19q66 0 99 36.5t33 131.5v1041h180v-1065q0 -281 -275 -281z" />
    <glyph glyph-name="k" unicode="k" horiz-adv-x="940" 
d="M729 0l-362 465h-54v-465h-180v1368h180v-772h52l344 377h184l-391 -416l448 -557h-221z" />
    <glyph glyph-name="l" unicode="l" horiz-adv-x="491" 
d="M455 129v-133q-62 -16 -131 -16q-91 0 -143 47.5t-52 148.5v1192h180v-1149q0 -58 19 -80t53 -22q38 0 74 12z" />
    <glyph glyph-name="m" unicode="m" horiz-adv-x="1568" 
d="M1145 993q135 0 217 -86.5t82 -234.5v-672h-180v635q0 111 -40 165t-126 54q-93 0 -156 -70.5t-63 -201.5v-582h-181v635q0 112 -39.5 165.5t-126.5 53.5q-91 0 -155 -70.5t-64 -201.5v-582h-180v973h172v-156q38 81 111 128.5t174 47.5q92 0 161 -45.5t101 -128.5
q39 80 115 127t178 47z" />
    <glyph glyph-name="n" unicode="n" horiz-adv-x="1042" 
d="M610 993q140 0 224 -87t84 -238v-668h-181v631q0 115 -44 170t-138 55q-101 0 -171.5 -74.5t-70.5 -201.5v-580h-180v973h172v-160q41 83 119.5 131.5t185.5 48.5z" />
    <glyph glyph-name="o" unicode="o" horiz-adv-x="1064" 
d="M532 -20q-201 0 -326.5 137t-125.5 370q0 232 125.5 369t326.5 137q202 0 327.5 -137t125.5 -369q0 -233 -125.5 -370t-327.5 -137zM532 117q124 0 194.5 95.5t70.5 274.5q0 177 -71 273t-194 96t-193.5 -95.5t-70.5 -273.5q0 -179 70.5 -274.5t193.5 -95.5z" />
    <glyph glyph-name="p" unicode="p" horiz-adv-x="1087" 
d="M602 993q82 0 154 -33t128.5 -94.5t89 -160t32.5 -220.5q0 -121 -32.5 -218.5t-89 -159t-128.5 -94.5t-154 -33q-93 0 -167.5 45t-121.5 129v-506h-180v1325h172v-168q47 92 124 140t173 48zM565 117q118 0 186 96.5t68 271.5q0 177 -68 274t-186 97q-117 0 -185.5 -98
t-68.5 -271q0 -175 68.5 -272.5t185.5 -97.5z" />
    <glyph glyph-name="q" unicode="q" horiz-adv-x="1087" 
d="M782 973h172v-1325h-180v504q-47 -84 -121.5 -128t-167.5 -44q-82 0 -154 32.5t-128 94.5t-88.5 160t-32.5 220q0 238 116.5 372t286.5 134q98 0 175 -48t122 -140v168zM522 117q117 0 185.5 97.5t68.5 270.5q0 176 -68 273.5t-186 97.5t-186 -97t-68 -272
q0 -177 68 -273.5t186 -96.5z" />
    <glyph glyph-name="r" unicode="r" horiz-adv-x="696" 
d="M582 993q40 0 71 -8v-164q-33 6 -98 6q-106 0 -174 -80t-68 -231v-516h-180v973h172v-182q38 93 109.5 147.5t167.5 54.5z" />
    <glyph glyph-name="s" unicode="s" horiz-adv-x="888" 
d="M156 268q116 -151 282 -151q92 0 147.5 35.5t55.5 97.5q0 33 -11.5 56.5t-40.5 42t-55.5 29.5t-80.5 30l-119 41q-114 39 -177 102.5t-63 169.5q0 122 91.5 197t248.5 75q228 0 359 -162l-97 -94q-98 119 -254 119q-84 0 -128 -34.5t-44 -84.5t36 -80.5t108 -54.5
l118 -41q49 -17 83.5 -31t76 -39.5t67 -54.5t43 -72t17.5 -96q0 -131 -101.5 -209.5t-271.5 -78.5q-122 0 -223 51t-168 149z" />
    <glyph glyph-name="t" unicode="t" horiz-adv-x="688" 
d="M504 117q63 0 139 26v-133q-79 -30 -188 -30t-172.5 58t-63.5 179v625h-180v131h180v205l180 65v-270h234v-131h-234v-588q0 -78 26.5 -107.5t78.5 -29.5z" />
    <glyph glyph-name="u" unicode="u" horiz-adv-x="1042" 
d="M729 973h180v-973h-172v160q-41 -83 -119.5 -131.5t-185.5 -48.5q-139 0 -223 87t-84 238v668h180v-631q0 -115 44 -170t138 -55q101 0 171.5 74.5t70.5 201.5v580z" />
    <glyph glyph-name="v" unicode="v" horiz-adv-x="950" 
d="M752 973h163l-346 -973h-188l-346 973h196l258 -776z" />
    <glyph glyph-name="w" unicode="w" horiz-adv-x="1437" 
d="M1239 973h160l-281 -973h-190l-207 723l-209 -723h-195l-278 973h197l194 -768l213 768h178l217 -762z" />
    <glyph glyph-name="x" unicode="x" horiz-adv-x="905" 
d="M895 0h-201l-254 383l-256 -383h-166l334 494l-315 479h201l223 -342l231 342h168l-311 -455z" />
    <glyph glyph-name="y" unicode="y" horiz-adv-x="952" 
d="M756 973h166l-412 -1086q-54 -144 -124.5 -202t-180.5 -58q-58 0 -131 15v137q84 -15 108 -15q61 0 102.5 38t73.5 139l37 108l-364 924h198l267 -733z" />
    <glyph glyph-name="z" unicode="z" horiz-adv-x="847" 
d="M279 131h503v-131h-723v115l502 727h-479v131h698v-115z" />
    <glyph glyph-name="braceleft" unicode="{" horiz-adv-x="628" 
d="M199 528q96 -22 131 -73.5t35 -169.5v-324q0 -125 43.5 -168t179.5 -43v-123q-155 0 -236 31.5t-112 100t-31 198.5v322q0 51 -7 83t-27 57t-57 35.5t-95 10.5v127q112 0 149 41.5t37 142.5v322q0 99 15.5 159t59 100.5t115.5 56.5t189 16v-125q-136 0 -179.5 -42
t-43.5 -167v-326q0 -117 -35 -168.5t-131 -73.5z" />
    <glyph glyph-name="bar" unicode="|" horiz-adv-x="460" 
d="M152 1511h157v-1716h-157v1716z" />
    <glyph glyph-name="braceright" unicode="}" horiz-adv-x="628" 
d="M430 528q-97 22 -132.5 73.5t-35.5 168.5v326q0 125 -42.5 167t-178.5 42v125q117 0 189 -16t115.5 -56.5t59 -100.5t15.5 -159v-322q0 -101 37 -142.5t149 -41.5v-127q-58 0 -95 -10.5t-57 -35.5t-27 -57t-7 -83v-322q0 -130 -31 -198.5t-112 -100t-236 -31.5v123
q93 0 140 19.5t64 62.5t17 129v324q0 118 35 169.5t133 73.5z" />
    <glyph glyph-name="asciitilde" unicode="~" 
d="M729 463q-43 0 -85.5 15.5t-68 31.5t-59.5 43q-77 63 -127 63q-92 0 -100 -143h-115q2 82 21 142.5t50 92.5t66 47t76 15q64 0 113 -24t102 -68q27 -21 43 -32t39 -20.5t43 -9.5q38 0 66 33.5t32 110.5h113q-3 -158 -62.5 -227.5t-146.5 -69.5z" />
    <glyph glyph-name="uni00A0" unicode="&#xa0;" horiz-adv-x="421" 
 />
    <glyph glyph-name="exclamdown" unicode="&#xa1;" horiz-adv-x="452" 
d="M227 752q-55 0 -90 34t-35 88q0 53 35 86t90 33q54 0 89.5 -33.5t35.5 -85.5q0 -54 -35.5 -88t-89.5 -34zM131 -354v293l35 636h119l37 -636v-293h-191z" />
    <glyph glyph-name="cent" unicode="&#xa2;" 
d="M961 422q-99 -207 -291 -236v-186h-135v184q-166 21 -270.5 155.5t-104.5 348.5q0 213 104.5 346.5t270.5 155.5v178h135v-180q189 -29 282 -217l-114 -72q-67 128 -168 152v-725q109 28 172 166zM344 688q0 -149 51.5 -241t139.5 -119v721q-88 -27 -139.5 -119.5
t-51.5 -241.5z" />
    <glyph glyph-name="sterling" unicode="&#xa3;" 
d="M352 143h668v-143h-895v137q89 32 148 111t59 176q0 51 -6 88t-29 111h-197v125h158q-41 136 -41 258q0 177 107.5 282t298.5 105q203 0 338 -138l-82 -116q-110 102 -240 102q-109 0 -172.5 -68t-63.5 -186q0 -48 9.5 -93.5t38.5 -145.5h419v-125h-383q23 -103 23 -179
q0 -182 -158 -301z" />
    <glyph glyph-name="currency" unicode="&#xa4;" 
d="M977 696q0 -158 -78 -274l162 -178l-100 -99l-158 172q-107 -77 -250 -77q-141 0 -246 75l-155 -170l-103 97l160 176q-80 122 -80 278q0 154 76 275l-158 172l103 98l151 -168q107 80 252 80t254 -82l156 170l100 -96l-160 -178q74 -120 74 -271zM553 385
q125 0 194.5 89t69.5 222t-69.5 222.5t-194.5 89.5t-194.5 -89.5t-69.5 -222.5t69.5 -222t194.5 -89z" />
    <glyph glyph-name="yen" unicode="&#xa5;" 
d="M1061 1368l-375 -663h238v-125h-281v-183h281v-125h-281v-272h-180v272h-281v125h281v183h-281v125h236l-369 663h205l309 -592l320 592h178z" />
    <glyph glyph-name="brokenbar" unicode="&#xa6;" horiz-adv-x="460" 
d="M152 1511h157v-669h-157v669zM152 465h157v-670h-157v670z" />
    <glyph glyph-name="section" unicode="&#xa7;" horiz-adv-x="972" 
d="M725 301q115 -87 115 -221q0 -131 -98 -210t-259 -79q-119 0 -220.5 47.5t-170.5 136.5l90 93q59 -68 137 -106t162 -38q86 0 132 38t46 104q0 62 -38 96.5t-146 79.5l-113 49q-48 20 -82 37t-74 45.5t-65 59t-42 74.5t-17 95q0 176 180 268q-104 86 -104 228
q0 129 95.5 210t246.5 81q220 0 360 -162l-88 -94q-109 122 -260 122q-83 0 -128.5 -41t-45.5 -104q0 -64 38 -102t120 -76l106 -47q53 -23 86.5 -40t76 -46.5t67 -60t42 -76t17.5 -99.5q0 -161 -166 -262zM446 434l166 -72q111 76 111 175q0 72 -46.5 112t-164.5 94
l-133 60q-127 -62 -127 -176q0 -37 15 -67t47 -53.5t59 -38t73 -34.5z" />
    <glyph glyph-name="dieresis" unicode="&#xa8;" horiz-adv-x="696" 
d="M160 1130q-46 0 -76.5 29.5t-30.5 75.5q0 47 30.5 76.5t76.5 29.5t76 -29.5t30 -76.5q0 -46 -30 -75.5t-76 -29.5zM537 1130q-46 0 -76.5 29.5t-30.5 75.5q0 47 30.5 76.5t76.5 29.5t76 -29.5t30 -76.5q0 -46 -30 -75.5t-76 -29.5z" />
    <glyph glyph-name="copyright" unicode="&#xa9;" horiz-adv-x="1482" 
d="M743 -18q-140 0 -260.5 49t-208 138t-137 222t-49.5 293q0 161 49.5 294.5t137 223t208 138.5t260.5 49q139 0 259 -49t207 -138.5t136.5 -223t49.5 -294.5q0 -160 -49.5 -293t-136.5 -222t-207 -138t-259 -49zM743 86q240 0 388.5 161.5t148.5 436.5t-149 437.5
t-388 162.5q-241 0 -390.5 -162.5t-149.5 -437.5t149.5 -436.5t390.5 -161.5zM559 692q0 -155 57 -229t142 -74q70 0 113 37.5t75 126.5l105 -45q-70 -240 -299 -240q-147 0 -244.5 113t-97.5 311q0 197 97.5 308.5t244.5 111.5q218 0 290 -217l-104 -45q-32 77 -73.5 110
t-104.5 33q-87 0 -144 -73.5t-57 -227.5z" />
    <glyph glyph-name="ordfeminine" unicode="&#xaa;" horiz-adv-x="765" 
d="M659 684h-137q-6 34 -10 115q-69 -129 -219 -129q-94 0 -152.5 51t-58.5 141q0 94 58.5 142t162.5 73q101 23 201 37v35q0 131 -139 131q-54 0 -92.5 -31t-39.5 -84h-118q3 98 76 157.5t184 59.5q126 0 199 -63.5t73 -183.5v-265q0 -72 12 -186zM334 768q72 0 121 52
t49 138v74q-85 -15 -150 -33q-69 -18 -96 -48t-27 -81q0 -49 27.5 -75.5t75.5 -26.5z" />
    <glyph glyph-name="guillemotleft" unicode="&#xab;" horiz-adv-x="870" 
d="M414 139h-127l-224 383l224 371h127l-160 -371zM776 139h-127l-223 383l223 371h127l-160 -371z" />
    <glyph glyph-name="logicalnot" unicode="&#xac;" 
d="M70 692h954v-540h-156v393h-798v147z" />
    <glyph glyph-name="uni00AD" unicode="&#xad;" horiz-adv-x="720" 
d="M119 502v139h483v-139h-483z" />
    <glyph glyph-name="registered" unicode="&#xae;" horiz-adv-x="952" 
d="M477 1393q169 0 281 -112.5t112 -297.5t-111.5 -296.5t-281.5 -111.5q-171 0 -283 111.5t-112 296.5t112 297.5t283 112.5zM477 647q139 0 227.5 90.5t88.5 245.5q0 154 -88.5 245t-227.5 91q-141 0 -230 -91t-89 -245q0 -153 89.5 -244.5t229.5 -91.5zM655 1085
q0 -48 -27 -83t-73 -50l129 -202h-125l-106 188h-43v-188h-107v487h172q80 0 130 -39.5t50 -112.5zM410 1157v-141h55q36 0 57 17.5t21 49.5q0 34 -21.5 54t-56.5 20h-55z" />
    <glyph glyph-name="macron" unicode="&#xaf;" horiz-adv-x="696" 
d="M76 1165v127h545v-127h-545z" />
    <glyph glyph-name="degree" unicode="&#xb0;" horiz-adv-x="626" 
d="M313 897q-107 0 -173 71t-66 177q0 105 66 176.5t173 71.5t173.5 -71.5t66.5 -176.5q0 -106 -66.5 -177t-173.5 -71zM313 1006q57 0 90 39.5t33 99.5q0 59 -33 98t-90 39t-88.5 -39t-31.5 -98q0 -61 31.5 -100t88.5 -39z" />
    <glyph glyph-name="plusminus" unicode="&#xb1;" 
d="M633 793h371v-146h-371v-383h-158v383h-369v146h369v391h158v-391zM106 23v145h898v-145h-898z" />
    <glyph glyph-name="uni00B2" unicode="&#xb2;" horiz-adv-x="694" 
d="M236 692h387v-117h-547v111q222 164 301.5 258.5t79.5 192.5q0 59 -32.5 96t-92.5 37q-59 0 -92.5 -42.5t-30.5 -109.5h-129q-3 125 69.5 194.5t192.5 69.5q110 0 187 -64.5t77 -180.5q0 -59 -21.5 -112t-71.5 -107t-113.5 -105.5t-163.5 -120.5z" />
    <glyph glyph-name="uni00B3" unicode="&#xb3;" horiz-adv-x="698" 
d="M467 995q67 -21 113.5 -72.5t46.5 -125.5q0 -105 -82.5 -170.5t-204.5 -65.5q-101 0 -176 46t-109 143l111 45q27 -64 67.5 -94.5t102.5 -30.5q63 0 101 35t38 100q0 66 -45.5 97.5t-116.5 31.5h-49v106h58q57 0 92 32.5t35 88.5q0 52 -31 82.5t-86 30.5q-88 0 -139 -94
l-99 49q67 153 250 153q108 0 181 -57t73 -151q0 -65 -37 -111t-94 -68z" />
    <glyph glyph-name="acute" unicode="&#xb4;" horiz-adv-x="696" 
d="M221 1112l187 256h233v-16l-303 -240h-117z" />
    <glyph glyph-name="uni00B5" unicode="&#xb5;" horiz-adv-x="1083" 
d="M991 127q15 0 35 4v-131q-44 -14 -96 -14q-76 0 -120 36.5t-54 127.5q-78 -168 -258 -168q-122 0 -185 84v-424h-180v1331h180v-621q0 -119 56 -177t139 -58q99 0 164 82.5t65 212.5v561h183v-709q0 -85 16 -111t55 -26z" />
    <glyph glyph-name="paragraph" unicode="&#xb6;" horiz-adv-x="1046" 
d="M883 1368v-1735h-121v1633h-166v-1633h-121v918h-45q-184 0 -281.5 103.5t-97.5 306.5t96.5 305t282.5 102h453z" />
    <glyph glyph-name="periodcentered" unicode="&#xb7;" horiz-adv-x="464" 
d="M231 446q-54 0 -89.5 35.5t-35.5 89.5q0 55 35.5 90t89.5 35q55 0 90 -35t35 -90q0 -54 -35 -89.5t-90 -35.5z" />
    <glyph glyph-name="cedilla" unicode="&#xb8;" horiz-adv-x="696" 
d="M375 -90q74 0 120 -36.5t46 -96.5q0 -70 -60 -110t-155 -40q-98 0 -170 51l39 80q56 -39 114 -39q41 0 64.5 16t23.5 44t-20 43.5t-55 15.5q-39 0 -72 -22l-43 24l125 209h90l-90 -143q24 4 43 4z" />
    <glyph glyph-name="uni00B9" unicode="&#xb9;" horiz-adv-x="544" 
d="M365 692h133v-117h-420v117h139v471q-60 -28 -139 -28v106q160 9 184 127h103v-676z" />
    <glyph glyph-name="ordmasculine" unicode="&#xba;" horiz-adv-x="815" 
d="M408 670q-148 0 -239 96.5t-91 259.5q0 162 91.5 259t238.5 97t239 -97.5t92 -258.5q0 -163 -91.5 -259.5t-239.5 -96.5zM408 778q84 0 132 64.5t48 183.5q0 118 -48 183t-132 65q-85 0 -133 -65t-48 -183q0 -119 48 -183.5t133 -64.5z" />
    <glyph glyph-name="guillemotright" unicode="&#xbb;" horiz-adv-x="870" 
d="M94 139l162 383l-162 371h127l223 -371l-223 -383h-127zM457 139l161 383l-161 371h127l223 -371l-223 -383h-127z" />
    <glyph glyph-name="onequarter" unicode="&#xbc;" horiz-adv-x="1513" 
d="M498 575h-420v117h139v471q-60 -28 -139 -28v106q160 9 184 127h103v-676h133v-117zM1085 1368h162l-841 -1368h-158zM1456 268v-110h-121v-158h-143v158h-363v106l345 529h161v-525h121zM1200 659l-254 -391h254v391z" />
    <glyph glyph-name="onehalf" unicode="&#xbd;" horiz-adv-x="1574" 
d="M498 575h-420v117h139v471q-60 -28 -139 -28v106q160 9 184 127h103v-676h133v-117zM1085 1368h162l-841 -1368h-158zM1116 117h387v-117h-547v111q223 165 302 259t79 191q0 59 -32.5 96t-92.5 37q-59 0 -92 -42t-30 -109h-129q-3 125 69.5 194.5t192.5 69.5
q110 0 187 -65t77 -181q0 -59 -22 -111.5t-72 -107t-113 -105t-164 -120.5z" />
    <glyph glyph-name="threequarters" unicode="&#xbe;" horiz-adv-x="1619" 
d="M627 797q0 -105 -82.5 -170.5t-204.5 -65.5q-101 0 -176 46t-109 143l111 45q27 -64 67.5 -94.5t102.5 -30.5q63 0 101 35t38 100q0 66 -45.5 97.5t-116.5 31.5h-49v106h58q57 0 92 32.5t35 88.5q0 52 -31 82.5t-86 30.5q-88 0 -139 -94l-99 49q67 153 250 153
q108 0 181 -57t73 -151q0 -65 -37 -111t-94 -68q67 -21 113.5 -72.5t46.5 -125.5zM1192 1368h162l-842 -1368h-158zM1563 268v-110h-121v-158h-144v158h-362v106l344 529h162v-525h121zM1307 659l-254 -391h254v391z" />
    <glyph glyph-name="questiondown" unicode="&#xbf;" horiz-adv-x="874" 
d="M455 743q-54 0 -89.5 35t-35.5 90t35.5 90t89.5 35q55 0 90 -34.5t35 -90.5t-35 -90.5t-90 -34.5zM674 8h155q0 -170 -105.5 -275.5t-277.5 -105.5q-163 0 -276 98.5t-113 260.5q0 138 86 242.5t232 158.5v188h157v-264q-140 -39 -208 -125t-68 -196q0 -92 55.5 -152.5
t155.5 -60.5q95 0 151 64.5t56 166.5z" />
    <glyph glyph-name="Agrave" unicode="&#xc0;" horiz-adv-x="1198" 
d="M721 1507h-123l-305 203v16h250zM967 0l-113 342h-532l-113 -342h-180l467 1368h206l467 -1368h-202zM369 487h438l-219 670z" />
    <glyph glyph-name="Aacute" unicode="&#xc1;" horiz-adv-x="1198" 
d="M905 1710l-307 -203h-121l178 219h250v-16zM967 0l-113 342h-532l-113 -342h-180l467 1368h206l467 -1368h-202zM369 487h438l-219 670z" />
    <glyph glyph-name="Acircumflex" unicode="&#xc2;" horiz-adv-x="1198" 
d="M598 1614l-190 -107h-132l238 219h170l236 -219h-129zM967 0l-113 342h-532l-113 -342h-180l467 1368h206l467 -1368h-202zM369 487h438l-219 670z" />
    <glyph glyph-name="Atilde" unicode="&#xc3;" horiz-adv-x="1198" 
d="M469 1604q-71 0 -88 -99h-98q3 68 22.5 117t50 73t59.5 34t60 10q35 0 67 -11.5t48 -22.5t41 -32q59 -45 96 -45q32 0 54.5 21.5t33.5 79.5h100q-2 -56 -16 -99t-34 -68.5t-46 -41.5t-49.5 -21.5t-48.5 -5.5q-49 0 -84 17.5t-74 50.5q-53 43 -94 43zM967 0l-113 342h-532
l-113 -342h-180l467 1368h206l467 -1368h-202zM369 487h438l-219 670z" />
    <glyph glyph-name="Adieresis" unicode="&#xc4;" horiz-adv-x="1198" 
d="M383 1503q-47 0 -78 31t-31 78t31 77.5t78 30.5q48 0 79.5 -30.5t31.5 -77.5t-32 -78t-79 -31zM815 1503q-47 0 -77.5 31t-30.5 78t30.5 77.5t77.5 30.5q48 0 79.5 -30.5t31.5 -77.5t-32 -78t-79 -31zM967 0l-113 342h-532l-113 -342h-180l467 1368h206l467 -1368h-202z
M369 487h438l-219 668z" />
    <glyph glyph-name="Aring" unicode="&#xc5;" horiz-adv-x="1198" 
d="M598 1479q-100 0 -165.5 59.5t-65.5 147.5q0 90 64.5 150t166.5 60q101 0 166 -60t65 -150q0 -88 -66 -147.5t-165 -59.5zM598 1581q47 0 78 30t31 75t-30 75.5t-79 30.5t-79 -31t-30 -75t30.5 -74.5t78.5 -30.5zM967 0l-113 342h-532l-113 -342h-180l467 1368h206
l467 -1368h-202zM369 487h438l-219 668z" />
    <glyph glyph-name="AE" unicode="&#xc6;" horiz-adv-x="1736" 
d="M1040 147h600v-147h-790v328h-494l-184 -328h-199l799 1368h856v-147h-588v-445h551v-143h-551v-486zM438 471h412v729z" />
    <glyph glyph-name="Ccedilla" unicode="&#xc7;" horiz-adv-x="1189" 
d="M1137 369q-116 -373 -449 -392l-45 -69q12 2 39 2q75 0 122.5 -36t47.5 -93q0 -73 -60.5 -113.5t-158.5 -40.5t-174 51l41 82q56 -39 114 -39q43 0 67 16.5t24 45.5q0 25 -19.5 40t-54.5 15q-41 0 -74 -22l-41 24l82 137q-107 9 -198 59.5t-160 137.5t-108.5 218
t-39.5 292q0 170 43.5 306.5t119.5 223.5t175.5 133t214.5 46q359 0 477 -361l-139 -55q-90 260 -321 260q-165 0 -267 -141.5t-102 -411.5t103 -411.5t266 -141.5q118 0 202 69.5t133 225.5z" />
    <glyph glyph-name="Egrave" unicode="&#xc8;" horiz-adv-x="1058" 
d="M682 1507h-123l-305 203v16h250zM346 147h617v-147h-807v1368h794v-147h-604v-445h569v-143h-569v-486z" />
    <glyph glyph-name="Eacute" unicode="&#xc9;" horiz-adv-x="1058" 
d="M866 1710l-307 -203h-121l178 219h250v-16zM346 147h617v-147h-807v1368h794v-147h-604v-445h569v-143h-569v-486z" />
    <glyph glyph-name="Ecircumflex" unicode="&#xca;" horiz-adv-x="1058" 
d="M559 1614l-190 -107h-131l237 219h170l236 -219h-129zM346 147h617v-147h-807v1368h794v-147h-604v-445h569v-143h-569v-486z" />
    <glyph glyph-name="Edieresis" unicode="&#xcb;" horiz-adv-x="1058" 
d="M344 1503q-47 0 -77.5 31t-30.5 78t30.5 77.5t77.5 30.5q48 0 79.5 -30.5t31.5 -77.5t-32 -78t-79 -31zM776 1503q-47 0 -77.5 31t-30.5 78t30.5 77.5t77.5 30.5q48 0 79.5 -30.5t31.5 -77.5t-32 -78t-79 -31zM346 147h617v-147h-807v1368h794v-147h-604v-445h569v-143
h-569v-486z" />
    <glyph glyph-name="Igrave" unicode="&#xcc;" horiz-adv-x="503" 
d="M346 1507h-115l-235 203v16h229zM156 1368h190v-1368h-190v1368z" />
    <glyph glyph-name="Iacute" unicode="&#xcd;" horiz-adv-x="503" 
d="M156 1507l123 219h229v-16l-236 -203h-116zM156 1368h190v-1368h-190v1368z" />
    <glyph glyph-name="Icircumflex" unicode="&#xce;" horiz-adv-x="503" 
d="M336 1726l178 -219h-119l-143 117l-143 -117h-119l180 219h166zM156 0v1368h190v-1368h-190z" />
    <glyph glyph-name="Idieresis" unicode="&#xcf;" horiz-adv-x="503" 
d="M90 1505q-46 0 -75 30t-29 77q0 46 29 75t75 29q47 0 77 -29t30 -75q0 -47 -30 -77t-77 -30zM412 1505q-46 0 -75.5 30t-29.5 77q0 46 29.5 75t75.5 29t76 -29t30 -75q0 -47 -30 -77t-76 -30zM156 1368h190v-1368h-190v1368z" />
    <glyph glyph-name="Eth" unicode="&#xd0;" horiz-adv-x="1361" 
d="M625 1368q140 0 256 -41.5t203.5 -123.5t136.5 -214.5t49 -304.5t-49 -304.5t-136.5 -214.5t-203.5 -123.5t-256 -41.5h-408v639h-190v127h190v602h408zM604 147q216 0 340.5 132t124.5 405t-124.5 405t-340.5 132h-196v-455h305v-127h-305v-492h196z" />
    <glyph glyph-name="Ntilde" unicode="&#xd1;" horiz-adv-x="1300" 
d="M524 1604q-71 0 -88 -99h-98q3 68 22.5 117t50 73t59.5 34t60 10q35 0 67 -11.5t48 -22.5t41 -32q59 -45 96 -45q32 0 54.5 21.5t33.5 79.5h101q-3 -69 -23 -118.5t-50.5 -73.5t-60 -34t-61.5 -10q-49 0 -84 17.5t-74 50.5q-53 43 -94 43zM977 1368h168v-1368h-223
l-598 1098v-1098h-168v1368h223l598 -1098v1098z" />
    <glyph glyph-name="Ograve" unicode="&#xd2;" horiz-adv-x="1361" 
d="M803 1507h-123l-305 203v16h250zM680 -25q-124 0 -230.5 45.5t-186.5 132.5t-125.5 223.5t-45.5 307.5t45.5 307.5t125.5 223.5t186.5 132.5t230.5 45.5q125 0 231.5 -45.5t187 -132.5t126 -223t45.5 -308t-45.5 -308t-126 -223t-187 -132.5t-231.5 -45.5zM680 131
q175 0 282 139.5t107 413.5t-107 413.5t-282 139.5q-173 0 -280 -139.5t-107 -413.5t107 -413.5t280 -139.5z" />
    <glyph glyph-name="Oacute" unicode="&#xd3;" horiz-adv-x="1361" 
d="M559 1507l178 219h250v-16l-307 -203h-121zM680 -25q-124 0 -230.5 45.5t-186.5 132.5t-125.5 223.5t-45.5 307.5t45.5 307.5t125.5 223.5t186.5 132.5t230.5 45.5q125 0 231.5 -45.5t187 -132.5t126 -223t45.5 -308t-45.5 -308t-126 -223t-187 -132.5t-231.5 -45.5z
M680 131q175 0 282 139.5t107 413.5t-107 413.5t-282 139.5q-173 0 -280 -139.5t-107 -413.5t107 -413.5t280 -139.5z" />
    <glyph glyph-name="Ocircumflex" unicode="&#xd4;" horiz-adv-x="1361" 
d="M680 1614l-191 -107h-131l238 219h170l235 -219h-129zM680 1393q125 0 231.5 -45.5t187 -132.5t126 -223t45.5 -308t-45.5 -308t-126 -223t-187 -132.5t-231.5 -45.5q-124 0 -230.5 45.5t-186.5 132.5t-125.5 223.5t-45.5 307.5t45.5 307.5t125.5 223.5t186.5 132.5
t230.5 45.5zM680 131q175 0 282 139.5t107 413.5t-107 413.5t-282 139.5q-173 0 -280 -139.5t-107 -413.5t107 -413.5t280 -139.5z" />
    <glyph glyph-name="Otilde" unicode="&#xd5;" horiz-adv-x="1361" 
d="M803 1493q-49 0 -84 17.5t-74 50.5q-53 43 -94 43q-71 0 -88 -99h-98q3 68 22.5 117t50 73t59.5 34t60 10q35 0 67 -11.5t48 -22.5t41 -32q59 -45 96 -45q32 0 54.5 21.5t33.5 79.5h100q-2 -56 -16 -99t-34 -68.5t-46 -41.5t-49.5 -21.5t-48.5 -5.5zM680 -25
q-124 0 -230.5 45.5t-186.5 132.5t-125.5 223.5t-45.5 307.5t45.5 307.5t125.5 223.5t186.5 132.5t230.5 45.5q125 0 231.5 -45.5t187 -132.5t126 -223t45.5 -308t-45.5 -308t-126 -223t-187 -132.5t-231.5 -45.5zM680 131q175 0 282 139.5t107 413.5t-107 413.5t-282 139.5
q-173 0 -280 -139.5t-107 -413.5t107 -413.5t280 -139.5z" />
    <glyph glyph-name="Odieresis" unicode="&#xd6;" horiz-adv-x="1361" 
d="M465 1503q-47 0 -78 31t-31 78t31 77.5t78 30.5t78.5 -30.5t31.5 -77.5t-31.5 -78t-78.5 -31zM897 1503q-47 0 -78 31t-31 78t31 77.5t78 30.5q48 0 79.5 -30.5t31.5 -77.5t-32 -78t-79 -31zM680 -25q-124 0 -230.5 45.5t-186.5 132.5t-125.5 223.5t-45.5 307.5
t45.5 307.5t125.5 223.5t186.5 132.5t230.5 45.5q125 0 231.5 -45.5t187 -132.5t126 -223t45.5 -308t-45.5 -308t-126 -223t-187 -132.5t-231.5 -45.5zM680 131q175 0 282 139.5t107 413.5t-107 413.5t-282 139.5q-173 0 -280 -139.5t-107 -413.5t107 -413.5t280 -139.5z
" />
    <glyph glyph-name="multiply" unicode="&#xd7;" 
d="M1008 989l-353 -373l353 -370l-105 -103l-348 367l-346 -367l-105 103l351 370l-353 373l105 103l348 -369l348 369z" />
    <glyph glyph-name="Oslash" unicode="&#xd8;" horiz-adv-x="1363" 
d="M1122 1190q150 -194 150 -506q0 -172 -45.5 -308t-126 -223t-187 -132.5t-231.5 -45.5q-198 0 -348 113l-107 -145l-100 75l117 160q-152 192 -152 506q0 171 46 307.5t126.5 223.5t187 132.5t230.5 45.5q201 0 348 -113l94 131l103 -76zM682 1237q-84 0 -153.5 -33.5
t-123 -99.5t-83 -173.5t-29.5 -246.5q0 -211 67 -348l568 803q-95 98 -246 98zM682 131q175 0 282 139.5t107 413.5q0 208 -65 344l-568 -801q96 -96 244 -96z" />
    <glyph glyph-name="Ugrave" unicode="&#xd9;" horiz-adv-x="1243" 
d="M750 1507h-123l-305 203v16h249zM621 -25q-223 0 -349.5 121.5t-126.5 345.5v926h191v-903q0 -173 74.5 -253.5t222.5 -80.5q145 0 221 79t76 255v903h168v-926q0 -224 -127 -345.5t-350 -121.5z" />
    <glyph glyph-name="Uacute" unicode="&#xda;" horiz-adv-x="1243" 
d="M506 1507l178 219h250v-16l-307 -203h-121zM621 -25q-223 0 -349.5 121.5t-126.5 345.5v926h191v-903q0 -173 74.5 -253.5t222.5 -80.5q145 0 221 79t76 255v903h168v-926q0 -224 -127 -345.5t-350 -121.5z" />
    <glyph glyph-name="Ucircumflex" unicode="&#xdb;" horiz-adv-x="1243" 
d="M627 1614l-191 -107h-131l238 219h170l235 -219h-129zM930 1368h168v-926q0 -224 -127 -345.5t-350 -121.5t-349.5 121.5t-126.5 345.5v926h191v-903q0 -173 74.5 -253.5t222.5 -80.5q145 0 221 79t76 255v903z" />
    <glyph glyph-name="Udieresis" unicode="&#xdc;" horiz-adv-x="1243" 
d="M410 1503q-47 0 -78 31t-31 78t31 77.5t78 30.5t78.5 -30.5t31.5 -77.5t-31.5 -78t-78.5 -31zM842 1503q-47 0 -78 31t-31 78t31 77.5t78 30.5t78.5 -30.5t31.5 -77.5t-31.5 -78t-78.5 -31zM621 -25q-223 0 -349.5 121.5t-126.5 345.5v926h191v-903q0 -173 74.5 -253.5
t222.5 -80.5q145 0 221 79t76 255v903h168v-926q0 -224 -127 -345.5t-350 -121.5z" />
    <glyph glyph-name="Yacute" unicode="&#xdd;" horiz-adv-x="1181" 
d="M475 1507l178 219h250v-16l-307 -203h-121zM1159 1368l-473 -737v-631h-190v631l-473 737h217l362 -586l365 586h192z" />
    <glyph glyph-name="Thorn" unicode="&#xde;" horiz-adv-x="1130" 
d="M584 1118q210 0 339.5 -105t129.5 -302q0 -133 -62 -227t-166 -138.5t-241 -44.5h-238v-301h-190v1368h190v-250h238zM571 446q136 0 208.5 65t72.5 198q0 260 -281 260h-225v-523h225z" />
    <glyph glyph-name="germandbls" unicode="&#xdf;" horiz-adv-x="1073" 
d="M719 778q112 -27 194 -130t82 -253q0 -184 -110.5 -299.5t-284.5 -115.5q-66 0 -160 24l23 131q59 -18 112 -18q113 0 173.5 83t60.5 208q0 128 -66 210t-196 82h-51v131h34q99 0 154 55t55 154q0 101 -54 158t-155 57q-98 0 -157.5 -68t-59.5 -194v-993h-180v954
q0 210 112 324.5t300 114.5q162 0 267.5 -94.5t105.5 -237.5q0 -115 -57 -186t-142 -97z" />
    <glyph glyph-name="agrave" unicode="&#xe0;" horiz-adv-x="962" 
d="M592 1112h-119l-303 240v16h233zM854 0h-174q-5 38 -14 168q-93 -188 -308 -188q-129 0 -208.5 71t-79.5 199q0 69 24 122.5t68 89t96 58.5t119 39q117 27 278 51v58q0 102 -52 147t-148 45q-78 0 -134 -44.5t-59 -125.5h-147q3 137 102.5 220t247.5 83q173 0 273 -88.5
t100 -255.5v-395q0 -94 16 -254zM406 106q107 0 178 78.5t71 206.5v111q-133 -24 -217 -47q-97 -26 -139.5 -72.5t-42.5 -122.5q0 -74 40.5 -114t109.5 -40z" />
    <glyph glyph-name="aacute" unicode="&#xe1;" horiz-adv-x="962" 
d="M776 1352l-305 -240h-117l187 256h235v-16zM854 0h-174q-5 38 -14 168q-93 -188 -308 -188q-129 0 -208.5 71t-79.5 199q0 69 24 122.5t68 89t96 58.5t119 39q117 27 278 51v58q0 102 -52 147t-148 45q-78 0 -134 -44.5t-59 -125.5h-147q3 137 102.5 220t247.5 83
q173 0 273 -88.5t100 -255.5v-395q0 -94 16 -254zM406 106q107 0 178 78.5t71 206.5v111q-133 -24 -217 -47q-97 -26 -139.5 -72.5t-42.5 -122.5q0 -74 40.5 -114t109.5 -40z" />
    <glyph glyph-name="acircumflex" unicode="&#xe2;" horiz-adv-x="962" 
d="M475 1249l-182 -137h-119l217 256h166l217 -256h-119zM854 0h-174q-5 38 -14 168q-93 -188 -308 -188q-129 0 -208.5 71t-79.5 199q0 69 24 122.5t68 89t96 58.5t119 39q117 27 278 51v58q0 102 -52 147t-148 45q-78 0 -134 -44.5t-59 -125.5h-147q3 137 102.5 220
t247.5 83q173 0 273 -88.5t100 -255.5v-395q0 -94 16 -254zM406 106q107 0 178 78.5t71 206.5v111q-133 -24 -217 -47q-97 -26 -139.5 -72.5t-42.5 -122.5q0 -74 40.5 -114t109.5 -40z" />
    <glyph glyph-name="atilde" unicode="&#xe3;" horiz-adv-x="962" 
d="M354 1231q-66 0 -78 -101h-96q3 67 21 115.5t46 71.5t55 33t56 10q33 0 61.5 -10.5t44 -22t38.5 -31.5q52 -45 88 -45q29 0 48.5 21t29.5 80h94q-3 -67 -21 -115.5t-45.5 -72.5t-54.5 -34t-57 -10q-45 0 -78.5 17.5t-71.5 52.5q-44 41 -80 41zM854 0h-174q-5 38 -14 168
q-93 -188 -308 -188q-129 0 -208.5 71t-79.5 199q0 69 24 122.5t68 89t96 58.5t119 39q117 27 278 51v58q0 102 -52 147t-148 45q-78 0 -134 -44.5t-59 -125.5h-147q3 137 102.5 220t247.5 83q173 0 273 -88.5t100 -255.5v-395q0 -94 16 -254zM406 106q107 0 178 78.5
t71 206.5v111q-133 -24 -217 -47q-97 -26 -139.5 -72.5t-42.5 -122.5q0 -74 40.5 -114t109.5 -40z" />
    <glyph glyph-name="adieresis" unicode="&#xe4;" horiz-adv-x="962" 
d="M285 1130q-47 0 -77 29.5t-30 75.5q0 47 30 76.5t77 29.5q46 0 75 -29.5t29 -76.5q0 -46 -29 -75.5t-75 -29.5zM662 1130q-46 0 -76.5 29.5t-30.5 75.5q0 47 30.5 76.5t76.5 29.5t76 -29.5t30 -76.5q0 -46 -30 -75.5t-76 -29.5zM854 0h-174q-5 38 -14 168
q-93 -188 -308 -188q-129 0 -208.5 71t-79.5 199q0 69 24 122.5t68 89t96 58.5t119 39q117 27 278 51v58q0 102 -52 147t-148 45q-78 0 -134 -44.5t-59 -125.5h-147q3 137 102.5 220t247.5 83q173 0 273 -88.5t100 -255.5v-395q0 -94 16 -254zM406 106q107 0 178 78.5
t71 206.5v111q-133 -24 -217 -47q-97 -26 -139.5 -72.5t-42.5 -122.5q0 -74 40.5 -114t109.5 -40z" />
    <glyph glyph-name="aring" unicode="&#xe5;" horiz-adv-x="962" 
d="M471 1102q-98 0 -161.5 58t-63.5 145q0 89 63 147.5t162 58.5q100 0 163.5 -58.5t63.5 -147.5q0 -87 -64 -145t-163 -58zM471 1202q47 0 78 30t31 73q0 46 -29.5 76t-79.5 30q-48 0 -76 -30.5t-28 -75.5q0 -43 29 -73t75 -30zM854 0h-174q-5 38 -14 168
q-93 -188 -308 -188q-129 0 -208.5 71t-79.5 199q0 69 24 122.5t68 89t96 58.5t119 39q117 27 278 51v58q0 102 -52 147t-148 45q-78 0 -134 -44.5t-59 -125.5h-147q3 137 102.5 220t247.5 83q173 0 273 -88.5t100 -255.5v-395q0 -94 16 -254zM406 106q107 0 178 78.5
t71 206.5v111q-133 -24 -217 -47q-97 -26 -139.5 -72.5t-42.5 -122.5q0 -74 40.5 -114t109.5 -40z" />
    <glyph glyph-name="ae" unicode="&#xe6;" horiz-adv-x="1562" 
d="M1483 516q0 -41 -2 -61h-643q8 -165 76 -251.5t192 -86.5q151 0 258 153l102 -90q-141 -200 -370 -200q-123 0 -217.5 53.5t-149.5 154.5q-52 -100 -140 -154t-206 -54q-140 0 -226.5 71t-86.5 199q0 139 95.5 217.5t276.5 93.5q83 6 215 10v95q0 198 -198 198
q-79 0 -135.5 -46t-59.5 -128h-147q1 137 101 220t249 83q109 0 187.5 -42t117.5 -124q101 166 309 166q183 0 292.5 -129.5t109.5 -347.5zM1079 856q-99 0 -160.5 -73t-76.5 -210h461q-9 138 -66 210.5t-158 72.5zM412 106q105 0 175 78t70 205v64q-82 0 -184 -9
q-217 -19 -217 -182q0 -75 42 -115.5t114 -40.5z" />
    <glyph glyph-name="ccedilla" unicode="&#xe7;" horiz-adv-x="933" 
d="M883 219q-106 -226 -340 -239l-47 -74q24 4 41 4q74 0 119.5 -36.5t45.5 -96.5q0 -70 -59.5 -110t-155.5 -40q-98 0 -170 51l39 80q56 -39 115 -39q41 0 64.5 16t23.5 44t-19.5 43.5t-56.5 15.5q-38 0 -71 -22l-41 24l84 144q-166 22 -269.5 155t-103.5 346
q0 234 123 371t313 137q244 0 356 -223l-116 -68q-78 154 -230 154q-117 0 -188.5 -95.5t-71.5 -275.5q0 -179 71.5 -273.5t188.5 -94.5q158 0 238 168z" />
    <glyph glyph-name="egrave" unicode="&#xe8;" horiz-adv-x="1015" 
d="M641 1112h-119l-303 240v16h234zM936 516q0 -38 -2 -61h-670q7 -164 79.5 -251t201.5 -87q86 0 150 36.5t118 110.5l105 -84q-142 -200 -383 -200q-204 0 -329.5 135.5t-125.5 369.5t121.5 371t318.5 137q188 0 302 -130t114 -347zM520 856q-103 0 -169 -73t-83 -210h488
q-10 137 -71.5 210t-164.5 73z" />
    <glyph glyph-name="eacute" unicode="&#xe9;" horiz-adv-x="1015" 
d="M825 1352l-305 -240h-117l187 256h235v-16zM936 516q0 -38 -2 -61h-670q7 -164 79.5 -251t201.5 -87q86 0 150 36.5t118 110.5l105 -84q-142 -200 -383 -200q-204 0 -329.5 135.5t-125.5 369.5t121.5 371t318.5 137q188 0 302 -130t114 -347zM520 856q-103 0 -169 -73
t-83 -210h488q-10 137 -71.5 210t-164.5 73z" />
    <glyph glyph-name="ecircumflex" unicode="&#xea;" horiz-adv-x="1015" 
d="M524 1249l-182 -137h-119l217 256h166l217 -256h-118zM936 516q0 -38 -2 -61h-670q7 -164 79.5 -251t201.5 -87q86 0 150 36.5t118 110.5l105 -84q-142 -200 -383 -200q-204 0 -329.5 135.5t-125.5 369.5t121.5 371t318.5 137q188 0 302 -130t114 -347zM520 856
q-103 0 -169 -73t-83 -210h488q-10 137 -71.5 210t-164.5 73z" />
    <glyph glyph-name="edieresis" unicode="&#xeb;" horiz-adv-x="1015" 
d="M334 1130q-47 0 -77 29.5t-30 75.5q0 47 30 76.5t77 29.5q46 0 75 -29.5t29 -76.5q0 -46 -29 -75.5t-75 -29.5zM711 1130q-46 0 -76.5 29.5t-30.5 75.5q0 47 30.5 76.5t76.5 29.5t76 -29.5t30 -76.5q0 -46 -30 -75.5t-76 -29.5zM936 516q0 -38 -2 -61h-670
q7 -164 79.5 -251t201.5 -87q86 0 150 36.5t118 110.5l105 -84q-142 -200 -383 -200q-204 0 -329.5 135.5t-125.5 369.5t121.5 371t318.5 137q188 0 302 -130t114 -347zM520 856q-103 0 -169 -73t-83 -210h488q-10 137 -71.5 210t-164.5 73z" />
    <glyph glyph-name="igrave" unicode="&#xec;" horiz-adv-x="446" 
d="M313 1112h-114l-248 240v16h221zM133 973h180v-973h-180v973z" />
    <glyph glyph-name="iacute" unicode="&#xed;" horiz-adv-x="446" 
d="M133 1112l141 256h222v-16l-248 -240h-115zM133 973h180v-973h-180v973z" />
    <glyph glyph-name="icircumflex" unicode="&#xee;" horiz-adv-x="446" 
d="M307 1368l168 -256h-117l-133 139l-135 -139h-117l168 256h166zM133 0v973h180v-973h-180z" />
    <glyph glyph-name="idieresis" unicode="&#xef;" horiz-adv-x="446" 
d="M68 1130q-44 0 -73.5 29.5t-29.5 75.5q0 47 29 76.5t74 29.5t73.5 -29.5t28.5 -76.5q0 -46 -29 -75.5t-73 -29.5zM379 1130q-44 0 -72 29.5t-28 75.5q0 47 28 76.5t72 29.5q45 0 73.5 -29.5t28.5 -76.5q0 -46 -29 -75.5t-73 -29.5zM133 973h180v-973h-180v973z" />
    <glyph glyph-name="eth" unicode="&#xf0;" horiz-adv-x="1056" 
d="M682 1176q293 -299 293 -676q0 -240 -118.5 -380t-328.5 -140q-205 0 -326.5 134.5t-121.5 344.5q0 218 111 348.5t296 130.5q155 0 252 -113q-74 158 -198 285l-254 -102l-41 94l213 86q-74 63 -166 129l104 86q104 -66 203 -152l215 88l41 -94zM530 117q127 0 194 96.5
t67 261.5q0 157 -70.5 243.5t-190.5 86.5q-121 0 -191.5 -92t-70.5 -256q0 -152 70 -246t192 -94z" />
    <glyph glyph-name="ntilde" unicode="&#xf1;" horiz-adv-x="1042" 
d="M430 1231q-66 0 -78 -101h-96q3 67 21 115.5t46 71.5t55 33t56 10q33 0 61.5 -10.5t44 -22t38.5 -31.5q52 -45 88 -45q29 0 48 21t29 80h95q-3 -67 -21 -115.5t-46 -72.5t-55 -34t-57 -10q-45 0 -77.5 17.5t-71.5 52.5q-44 41 -80 41zM610 993q140 0 224 -87t84 -238
v-668h-181v631q0 115 -44 170t-138 55q-101 0 -171.5 -74.5t-70.5 -201.5v-580h-180v973h172v-162q41 85 119.5 133.5t185.5 48.5z" />
    <glyph glyph-name="ograve" unicode="&#xf2;" horiz-adv-x="1064" 
d="M651 1112h-119l-303 240v16h234zM532 -20q-201 0 -326.5 137t-125.5 370q0 232 125.5 369t326.5 137q202 0 327.5 -137t125.5 -369q0 -233 -125.5 -370t-327.5 -137zM532 117q124 0 194.5 95.5t70.5 274.5q0 177 -71 273t-194 96t-193.5 -95.5t-70.5 -273.5
q0 -179 70.5 -274.5t193.5 -95.5z" />
    <glyph glyph-name="oacute" unicode="&#xf3;" horiz-adv-x="1064" 
d="M414 1112l186 256h236v-16l-306 -240h-116zM532 -20q-201 0 -326.5 137t-125.5 370q0 232 125.5 369t326.5 137q202 0 327.5 -137t125.5 -369q0 -233 -125.5 -370t-327.5 -137zM532 117q124 0 194.5 95.5t70.5 274.5q0 177 -71 273t-194 96t-193.5 -95.5t-70.5 -273.5
q0 -179 70.5 -274.5t193.5 -95.5z" />
    <glyph glyph-name="ocircumflex" unicode="&#xf4;" horiz-adv-x="1064" 
d="M535 1249l-183 -137h-119l218 256h165l218 -256h-119zM532 993q202 0 327.5 -137t125.5 -369q0 -233 -125.5 -370t-327.5 -137q-201 0 -326.5 137t-125.5 370q0 232 125.5 369t326.5 137zM532 117q124 0 194.5 95.5t70.5 274.5q0 177 -71 273t-194 96t-193.5 -95.5
t-70.5 -273.5q0 -179 70.5 -274.5t193.5 -95.5z" />
    <glyph glyph-name="otilde" unicode="&#xf5;" horiz-adv-x="1064" 
d="M643 1120q-45 0 -77.5 17.5t-71.5 52.5q-44 41 -80 41q-66 0 -78 -101h-96q3 67 21 115.5t46 71.5t55 33t56 10q33 0 61.5 -11t43.5 -21.5t38 -31.5q52 -45 88 -45q29 0 48.5 21t29.5 80h94q-3 -67 -21 -115.5t-45.5 -72.5t-54.5 -34t-57 -10zM532 -20q-201 0 -326.5 137
t-125.5 370q0 232 125.5 369t326.5 137q202 0 327.5 -137t125.5 -369q0 -233 -125.5 -370t-327.5 -137zM532 117q124 0 194.5 95.5t70.5 274.5q0 177 -71 273t-194 96t-193.5 -95.5t-70.5 -273.5q0 -179 70.5 -274.5t193.5 -95.5z" />
    <glyph glyph-name="odieresis" unicode="&#xf6;" horiz-adv-x="1064" 
d="M344 1130q-47 0 -76.5 29.5t-29.5 75.5q0 47 29.5 76.5t76.5 29.5q46 0 75.5 -29.5t29.5 -76.5q0 -46 -29.5 -75.5t-75.5 -29.5zM721 1130q-46 0 -76.5 29.5t-30.5 75.5q0 47 30.5 76.5t76.5 29.5t76 -29.5t30 -76.5q0 -46 -30 -75.5t-76 -29.5zM532 -20
q-201 0 -326.5 137t-125.5 370q0 232 125.5 369t326.5 137q202 0 327.5 -137t125.5 -369q0 -233 -125.5 -370t-327.5 -137zM532 117q124 0 194.5 95.5t70.5 274.5q0 177 -71 273t-194 96t-193.5 -95.5t-70.5 -273.5q0 -179 70.5 -274.5t193.5 -95.5z" />
    <glyph glyph-name="divide" unicode="&#xf7;" 
d="M555 858q-51 0 -83 31t-32 80q0 51 32 82.5t83 31.5t83 -31.5t32 -82.5q0 -49 -32 -80t-83 -31zM78 543v149h954v-149h-954zM555 152q-51 0 -83 31t-32 81t32 81.5t83 31.5t83 -31.5t32 -81.5t-32 -81t-83 -31z" />
    <glyph glyph-name="oslash" unicode="&#xf8;" horiz-adv-x="1071" 
d="M881 836q106 -134 106 -351q0 -232 -124.5 -368.5t-325.5 -136.5q-149 0 -256 75l-97 -121l-94 72l103 129q-109 134 -109 350q0 233 125.5 370.5t327.5 137.5q149 0 256 -75l90 116l94 -71zM537 856q-126 0 -198.5 -96t-72.5 -275q0 -130 37 -211l397 523
q-65 59 -163 59zM537 117q126 0 198 95t72 273q0 125 -35 209l-397 -520q63 -57 162 -57z" />
    <glyph glyph-name="ugrave" unicode="&#xf9;" horiz-adv-x="1042" 
d="M637 1112h-119l-303 240v16h234zM729 973h180v-973h-172v162q-41 -85 -119.5 -133.5t-185.5 -48.5q-139 0 -223 87t-84 238v668h180v-631q0 -115 44 -170t138 -55q101 0 171.5 74.5t70.5 201.5v580z" />
    <glyph glyph-name="uacute" unicode="&#xfa;" horiz-adv-x="1042" 
d="M821 1352l-305 -240h-117l187 256h235v-16zM729 973h180v-973h-172v162q-41 -85 -119.5 -133.5t-185.5 -48.5q-139 0 -223 87t-84 238v668h180v-631q0 -115 44 -170t138 -55q101 0 171.5 74.5t70.5 201.5v580z" />
    <glyph glyph-name="ucircumflex" unicode="&#xfb;" horiz-adv-x="1042" 
d="M518 1249l-182 -137h-119l217 256h166l217 -256h-119zM729 973h180v-973h-172v162q-41 -85 -119.5 -133.5t-185.5 -48.5q-139 0 -223 87t-84 238v668h180v-631q0 -115 44 -170t138 -55q101 0 171.5 74.5t70.5 201.5v580z" />
    <glyph glyph-name="udieresis" unicode="&#xfc;" horiz-adv-x="1042" 
d="M330 1130q-47 0 -77 29.5t-30 75.5q0 47 30 76.5t77 29.5q46 0 75 -29.5t29 -76.5q0 -46 -29 -75.5t-75 -29.5zM707 1130q-46 0 -76.5 29.5t-30.5 75.5q0 47 30.5 76.5t76.5 29.5t76 -29.5t30 -76.5q0 -46 -30 -75.5t-76 -29.5zM729 973h180v-973h-172v160
q-41 -83 -119.5 -131.5t-185.5 -48.5q-139 0 -223 87t-84 238v668h180v-631q0 -115 44 -170t138 -55q101 0 171.5 74.5t70.5 201.5v580z" />
    <glyph glyph-name="yacute" unicode="&#xfd;" horiz-adv-x="952" 
d="M786 1352l-305 -240h-116l186 256h235v-16zM756 973h166l-412 -1086q-54 -144 -124.5 -202t-180.5 -58q-58 0 -131 15v137q84 -15 108 -15q61 0 102.5 38t73.5 139l37 110l-364 922h198l267 -733z" />
    <glyph glyph-name="thorn" unicode="&#xfe;" horiz-adv-x="1087" 
d="M602 993q82 0 154 -33t128.5 -94.5t89 -160t32.5 -220.5q0 -121 -32.5 -218.5t-89 -159t-128.5 -94.5t-154 -33q-93 0 -167.5 45t-121.5 129v-506h-180v1720h180v-549q47 85 121.5 129.5t167.5 44.5zM565 117q118 0 186 96.5t68 271.5q0 177 -68 274t-186 97
q-117 0 -185.5 -98t-68.5 -271q0 -175 68.5 -272.5t185.5 -97.5z" />
    <glyph glyph-name="ydieresis" unicode="&#xff;" horiz-adv-x="952" 
d="M295 1130q-47 0 -77 29.5t-30 75.5q0 47 30 76.5t77 29.5q46 0 75 -29.5t29 -76.5q0 -46 -29 -75.5t-75 -29.5zM672 1130q-46 0 -76.5 29.5t-30.5 75.5q0 47 30.5 76.5t76.5 29.5t76 -29.5t30 -76.5q0 -46 -30 -75.5t-76 -29.5zM756 973h166l-412 -1086
q-54 -144 -124.5 -202t-180.5 -58q-58 0 -131 15v137q84 -15 108 -15q61 0 102.5 38t73.5 139l37 108l-364 924h198l267 -733z" />
    <glyph glyph-name="Amacron" unicode="&#x100;" horiz-adv-x="1198" 
d="M305 1534v133h588v-133h-588zM967 0l-113 342h-532l-113 -342h-180l467 1368h206l467 -1368h-202zM369 487h438l-219 668z" />
    <glyph glyph-name="amacron" unicode="&#x101;" horiz-adv-x="962" 
d="M199 1165v127h546v-127h-546zM854 0h-174q-5 38 -14 168q-93 -188 -308 -188q-129 0 -208.5 71t-79.5 199q0 69 24 122.5t68 89t96 58.5t119 39q117 27 278 51v58q0 102 -52 147t-148 45q-78 0 -134 -44.5t-59 -125.5h-147q3 137 102.5 220t247.5 83q173 0 273 -88.5
t100 -255.5v-395q0 -94 16 -254zM406 106q107 0 178 78.5t71 206.5v111q-133 -24 -217 -47q-97 -26 -139.5 -72.5t-42.5 -122.5q0 -74 40.5 -114t109.5 -40z" />
    <glyph glyph-name="Abreve" unicode="&#x102;" horiz-adv-x="1198" 
d="M600 1491q-134 0 -209.5 60t-87.5 175h98q21 -60 69 -84t130 -24t129 24t68 84h100q-14 -115 -89 -175t-208 -60zM967 0l-113 342h-532l-113 -342h-180l467 1368h206l467 -1368h-202zM369 487h438l-219 668z" />
    <glyph glyph-name="abreve" unicode="&#x103;" horiz-adv-x="962" 
d="M473 1102q-120 0 -196.5 68.5t-88.5 197.5h99q38 -141 186 -141q151 0 186 141h101q-13 -129 -89.5 -197.5t-197.5 -68.5zM854 0h-174q-5 38 -14 168q-93 -188 -308 -188q-129 0 -208.5 71t-79.5 199q0 69 24 122.5t68 89t96 58.5t119 39q117 27 278 51v58q0 102 -52 147
t-148 45q-78 0 -134 -44.5t-59 -125.5h-147q3 137 102.5 220t247.5 83q173 0 273 -88.5t100 -255.5v-395q0 -94 16 -254zM406 106q107 0 178 78.5t71 206.5v111q-133 -24 -217 -47q-97 -26 -139.5 -72.5t-42.5 -122.5q0 -74 40.5 -114t109.5 -40z" />
    <glyph glyph-name="Aogonek" unicode="&#x104;" horiz-adv-x="1198" 
d="M1112 -182l80 -78q-82 -113 -219 -113q-91 0 -148 47t-57 121q0 122 158 225l28 17l-100 305h-532l-113 -342h-180l467 1368h206l467 -1368h-116q-123 -84 -123 -164q0 -38 21 -59t57 -21q52 0 104 62zM369 487h438l-219 668z" />
    <glyph glyph-name="aogonek" unicode="&#x105;" horiz-adv-x="962" 
d="M813 -188l76 -76q-76 -109 -197 -109q-86 0 -139 45t-53 117q0 66 42.5 120t133.5 111h2q-3 20 -5 45t-4 56t-3 47q-93 -188 -308 -188q-129 0 -208.5 71t-79.5 199q0 69 24 122.5t68 89t96 58.5t119 39q117 27 278 51v58q0 102 -52 147t-148 45q-78 0 -134 -44.5
t-59 -125.5h-147q3 137 102.5 220t247.5 83q173 0 273 -88.5t100 -255.5v-395q0 -94 16 -254h-66q-133 -91 -133 -176q0 -35 18.5 -53.5t47.5 -18.5q46 0 92 60zM655 391v111q-133 -24 -217 -47q-97 -26 -139.5 -72.5t-42.5 -122.5q0 -74 40.5 -114t109.5 -40
q107 0 178 78.5t71 206.5z" />
    <glyph glyph-name="Cacute" unicode="&#x106;" horiz-adv-x="1189" 
d="M512 1507l178 219h250v-16l-307 -203h-121zM293 684q0 -270 103 -411.5t266 -141.5q118 0 202 69.5t133 225.5l140 -57q-61 -200 -187 -297t-303 -97q-115 0 -215 46t-176 133t-120 223.5t-44 306.5t43.5 306.5t119.5 223.5t175.5 133t214.5 46q359 0 477 -361l-139 -55
q-90 260 -321 260q-165 0 -267 -141.5t-102 -411.5z" />
    <glyph glyph-name="cacute" unicode="&#x107;" horiz-adv-x="933" 
d="M393 1112l187 256h235v-16l-305 -240h-117zM514 -20q-188 0 -310 136.5t-122 368.5q0 234 123 371t313 137q244 0 356 -223l-116 -68q-78 154 -230 154q-117 0 -188.5 -95.5t-71.5 -275.5q0 -179 71.5 -273.5t188.5 -94.5q158 0 238 168l117 -66q-114 -239 -369 -239z
" />
    <glyph glyph-name="Ccircumflex" unicode="&#x108;" horiz-adv-x="1189" 
d="M635 1614l-191 -107h-131l238 219h170l235 -219h-129zM997 426l140 -57q-61 -200 -187 -297t-303 -97q-115 0 -215 46t-176 133t-120 223.5t-44 306.5t43.5 306.5t119.5 223.5t175.5 133t214.5 46q359 0 477 -361l-139 -55q-90 260 -321 260q-165 0 -267 -141.5
t-102 -411.5t103 -411.5t266 -141.5q118 0 202 69.5t133 225.5z" />
    <glyph glyph-name="ccircumflex" unicode="&#x109;" horiz-adv-x="933" 
d="M514 1249l-182 -137h-119l217 256h166l217 -256h-119zM766 285l117 -66q-114 -239 -369 -239q-188 0 -310 136.5t-122 368.5q0 234 123 371t313 137q244 0 356 -223l-116 -68q-78 154 -230 154q-117 0 -188.5 -95.5t-71.5 -275.5q0 -179 71.5 -273.5t188.5 -94.5
q158 0 238 168z" />
    <glyph glyph-name="Cdotaccent" unicode="&#x10a;" horiz-adv-x="1189" 
d="M635 1509q-52 0 -84.5 32t-32.5 83q0 52 32 84.5t85 32.5q51 0 84 -32.5t33 -84.5q0 -51 -33 -83t-84 -32zM293 684q0 -270 103 -411.5t266 -141.5q118 0 202 69.5t133 225.5l140 -57q-61 -200 -187 -297t-303 -97q-115 0 -215 46t-176 133t-120 223.5t-44 306.5
t43.5 306.5t119.5 223.5t175.5 133t214.5 46q359 0 477 -361l-139 -55q-90 260 -321 260q-165 0 -267 -141.5t-102 -411.5z" />
    <glyph glyph-name="cdotaccent" unicode="&#x10b;" horiz-adv-x="933" 
d="M512 1141q-51 0 -83 31t-32 81t32 81.5t83 31.5q50 0 81.5 -32t31.5 -81t-31.5 -80.5t-81.5 -31.5zM514 -20q-188 0 -310 136.5t-122 368.5q0 234 123 371t313 137q244 0 356 -223l-116 -68q-78 154 -230 154q-117 0 -188.5 -95.5t-71.5 -275.5q0 -179 71.5 -273.5
t188.5 -94.5q158 0 238 168l117 -66q-114 -239 -369 -239z" />
    <glyph glyph-name="Ccaron" unicode="&#x10c;" horiz-adv-x="1189" 
d="M721 1507h-170l-238 219h131l191 -104l192 104h129zM997 426l140 -57q-61 -200 -187 -297t-303 -97q-115 0 -215 46t-176 133t-120 223.5t-44 306.5t43.5 306.5t119.5 223.5t175.5 133t214.5 46q359 0 477 -361l-139 -55q-90 260 -321 260q-165 0 -267 -141.5
t-102 -411.5t103 -411.5t266 -141.5q118 0 202 69.5t133 225.5z" />
    <glyph glyph-name="ccaron" unicode="&#x10d;" horiz-adv-x="933" 
d="M596 1112h-166l-217 256h119l182 -137l180 137h119zM766 285l117 -66q-114 -239 -369 -239q-188 0 -310 136.5t-122 368.5q0 234 123 371t313 137q244 0 356 -223l-116 -68q-78 154 -230 154q-117 0 -188.5 -95.5t-71.5 -275.5q0 -179 71.5 -273.5t188.5 -94.5
q158 0 238 168z" />
    <glyph glyph-name="Dcaron" unicode="&#x10e;" horiz-adv-x="1302" 
d="M709 1507h-170l-238 219h131l191 -104l192 104h129zM563 1368q141 0 257.5 -41.5t204 -123.5t136.5 -214.5t49 -304.5t-49 -304.5t-136.5 -214.5t-204 -123.5t-257.5 -41.5h-407v1368h407zM545 147q216 0 340.5 132t124.5 405t-124.5 405t-340.5 132h-199v-1074h199z" />
    <glyph glyph-name="dcaron" unicode="&#x10f;" horiz-adv-x="1204" 
d="M774 819v549h180v-1368h-172v168q-45 -92 -122 -140t-175 -48q-82 0 -154 32.5t-128 94.5t-88.5 160t-32.5 220q0 238 116.5 372t286.5 134q93 0 167.5 -44.5t121.5 -129.5zM1133 1368h163v-18l-82 -379h-110zM522 117q117 0 185.5 97.5t68.5 270.5q0 176 -68 273.5
t-186 97.5t-186 -97t-68 -272q0 -177 68 -273.5t186 -96.5z" />
    <glyph glyph-name="Dcroat" unicode="&#x110;" horiz-adv-x="1361" 
d="M625 1368q140 0 256 -41.5t203.5 -123.5t136.5 -214.5t49 -304.5t-49 -304.5t-136.5 -214.5t-203.5 -123.5t-256 -41.5h-408v639h-190v127h190v602h408zM604 147q216 0 340.5 132t124.5 405t-124.5 405t-340.5 132h-196v-455h305v-127h-305v-492h196z" />
    <glyph glyph-name="dcroat" unicode="&#x111;" horiz-adv-x="1087" 
d="M1106 1208v-108h-152v-1100h-172v164q-46 -89 -123 -136.5t-174 -47.5q-170 0 -286.5 131t-116.5 362q0 235 115.5 363.5t287.5 128.5q93 0 167.5 -43.5t121.5 -126.5v305h-407v108h407v160h180v-160h152zM522 117q116 0 185 95.5t69 258.5q0 167 -68.5 261.5
t-185.5 94.5t-185.5 -93.5t-68.5 -260.5q0 -166 69 -261t185 -95z" />
    <glyph glyph-name="Emacron" unicode="&#x112;" horiz-adv-x="1058" 
d="M266 1534v133h588v-133h-588zM346 147h617v-147h-807v1368h794v-147h-604v-445h569v-143h-569v-486z" />
    <glyph glyph-name="emacron" unicode="&#x113;" horiz-adv-x="1015" 
d="M248 1165v127h547v-127h-547zM936 516q0 -38 -2 -61h-670q7 -164 79.5 -251t201.5 -87q86 0 150 36.5t118 110.5l105 -84q-142 -200 -383 -200q-204 0 -329.5 135.5t-125.5 369.5t121.5 371t318.5 137q188 0 302 -130t114 -347zM520 856q-103 0 -169 -73t-83 -210h488
q-10 137 -71.5 210t-164.5 73z" />
    <glyph glyph-name="Ebreve" unicode="&#x114;" horiz-adv-x="1058" 
d="M561 1491q-134 0 -209.5 60t-87.5 175h98q21 -60 69 -84t130 -24t129 24t68 84h100q-14 -115 -89 -175t-208 -60zM346 147h617v-147h-807v1368h794v-147h-604v-445h569v-143h-569v-486z" />
    <glyph glyph-name="ebreve" unicode="&#x115;" horiz-adv-x="1015" 
d="M522 1102q-120 0 -196 68.5t-88 197.5h98q38 -141 186 -141q152 0 187 141h100q-13 -129 -89.5 -197.5t-197.5 -68.5zM936 516q0 -38 -2 -61h-670q7 -164 79.5 -251t201.5 -87q86 0 150 36.5t118 110.5l105 -84q-142 -200 -383 -200q-204 0 -329.5 135.5t-125.5 369.5
t121.5 371t318.5 137q188 0 302 -130t114 -347zM520 856q-103 0 -169 -73t-83 -210h488q-10 137 -71.5 210t-164.5 73z" />
    <glyph glyph-name="Edotaccent" unicode="&#x116;" horiz-adv-x="1058" 
d="M561 1509q-52 0 -84.5 32t-32.5 83q0 52 32 84.5t85 32.5q51 0 84 -32.5t33 -84.5q0 -51 -33 -83t-84 -32zM346 147h617v-147h-807v1368h794v-147h-604v-445h569v-143h-569v-486z" />
    <glyph glyph-name="edotaccent" unicode="&#x117;" horiz-adv-x="1015" 
d="M522 1141q-51 0 -82.5 31t-31.5 81t31.5 81.5t82.5 31.5q50 0 81.5 -32t31.5 -81t-31.5 -80.5t-81.5 -31.5zM936 516q0 -38 -2 -61h-670q7 -164 79.5 -251t201.5 -87q86 0 150 36.5t118 110.5l105 -84q-142 -200 -383 -200q-204 0 -329.5 135.5t-125.5 369.5t121.5 371
t318.5 137q188 0 302 -130t114 -347zM520 856q-103 0 -169 -73t-83 -210h488q-10 137 -71.5 210t-164.5 73z" />
    <glyph glyph-name="Eogonek" unicode="&#x118;" horiz-adv-x="1058" 
d="M907 -182l80 -78q-41 -56 -95 -84.5t-136 -28.5q-90 0 -148.5 48t-58.5 122q0 57 30 106t99 97h-522v1368h794v-147h-604v-445h569v-143h-569v-486h617v-147h-144q-108 -87 -108 -160q0 -40 22 -62t58 -22q37 0 62.5 15t53.5 47z" />
    <glyph glyph-name="eogonek" unicode="&#x119;" horiz-adv-x="1015" 
d="M936 516q0 -38 -2 -61h-670q7 -164 79.5 -251t201.5 -87q86 0 150 36.5t118 110.5l105 -84q-69 -97 -158 -147q-154 -110 -154 -197q0 -39 21.5 -61.5t56.5 -22.5q60 0 113 60l80 -76q-41 -54 -94 -81.5t-132 -27.5q-89 0 -145.5 47t-56.5 121q0 102 104 185h-18
q-204 0 -329.5 135.5t-125.5 369.5t121.5 371t318.5 137q188 0 302 -130t114 -347zM268 573h488q-10 137 -71.5 210t-164.5 73t-169 -73t-83 -210z" />
    <glyph glyph-name="Ecaron" unicode="&#x11a;" horiz-adv-x="1058" 
d="M645 1507h-170l-237 219h131l190 -104l193 104h129zM346 147h617v-147h-807v1368h794v-147h-604v-445h569v-143h-569v-486z" />
    <glyph glyph-name="ecaron" unicode="&#x11b;" horiz-adv-x="1015" 
d="M606 1112h-166l-217 256h119l182 -137l181 137h118zM936 516q0 -38 -2 -61h-670q7 -164 79.5 -251t201.5 -87q86 0 150 36.5t118 110.5l105 -84q-142 -200 -383 -200q-204 0 -329.5 135.5t-125.5 369.5t121.5 371t318.5 137q188 0 302 -130t114 -347zM268 573h488
q-10 137 -71.5 210t-164.5 73t-169 -73t-83 -210z" />
    <glyph glyph-name="Gcircumflex" unicode="&#x11c;" horiz-adv-x="1282" 
d="M678 1614l-191 -107h-131l238 219h170l235 -219h-129zM668 686h508v-528q-89 -86 -212 -134.5t-268 -48.5q-128 0 -235.5 42.5t-191 126.5t-130.5 222.5t-47 317.5q0 170 46.5 306.5t127 223.5t186 133t226.5 46q171 0 299.5 -80t189.5 -238l-135 -69q-50 119 -138.5 175
t-201.5 56q-177 0 -288 -141.5t-111 -411.5q0 -277 105.5 -416t293.5 -139q182 0 307 104v310h-331v143z" />
    <glyph glyph-name="gcircumflex" unicode="&#x11d;" horiz-adv-x="983" 
d="M487 1249l-180 -137h-119l218 256h165l217 -256h-118zM594 201q162 -18 258 -88.5t96 -192.5q0 -138 -123.5 -215.5t-341.5 -77.5q-210 0 -329 67t-119 183q0 82 61 137.5t156 77.5q-139 40 -139 139q0 120 192 172q-92 35 -145.5 106.5t-53.5 170.5q0 145 104 229
t265 84q82 0 146 -20h307v-129l-166 8q82 -67 82 -184t-85.5 -195.5t-219.5 -93.5q-134 -24 -190 -45.5t-56 -52.5q0 -34 56.5 -47.5t244.5 -32.5zM475 868q-90 0 -143 -51.5t-53 -136.5q0 -84 53 -134t143 -50t143.5 50t53.5 134q0 86 -53 137t-144 51zM485 -252
q135 0 208 40t73 108q0 70 -73 110.5t-208 40.5q-134 0 -207 -40.5t-73 -110.5q0 -68 73 -108t207 -40z" />
    <glyph glyph-name="Gbreve" unicode="&#x11e;" horiz-adv-x="1282" 
d="M680 1491q-134 0 -209.5 60t-87.5 175h98q21 -60 69 -84t130 -24t129 24t68 84h100q-14 -115 -89 -175t-208 -60zM668 686h508v-528q-89 -86 -212 -134.5t-268 -48.5q-128 0 -235.5 42.5t-191 126.5t-130.5 222.5t-47 317.5q0 170 46.5 306.5t127 223.5t186 133t226.5 46
q171 0 299.5 -80t189.5 -238l-135 -69q-50 119 -138.5 175t-201.5 56q-177 0 -288 -141.5t-111 -411.5q0 -277 105.5 -416t293.5 -139q182 0 307 104v310h-331v143z" />
    <glyph glyph-name="gbreve" unicode="&#x11f;" horiz-adv-x="983" 
d="M487 1102q-120 0 -196 68.5t-88 197.5h98q38 -141 186 -141q152 0 187 141h100q-13 -129 -89.5 -197.5t-197.5 -68.5zM594 201q162 -18 258 -88.5t96 -192.5q0 -138 -123.5 -215.5t-341.5 -77.5q-210 0 -329 67t-119 183q0 82 61 137.5t156 77.5q-139 40 -139 139
q0 120 192 172q-92 35 -145.5 106.5t-53.5 170.5q0 145 104 229t265 84q82 0 146 -20h307v-129l-166 8q82 -67 82 -184t-85.5 -195.5t-219.5 -93.5q-134 -24 -190 -45.5t-56 -52.5q0 -34 56.5 -47.5t244.5 -32.5zM475 868q-90 0 -143 -51.5t-53 -136.5q0 -84 53 -134
t143 -50t143.5 50t53.5 134q0 86 -53 137t-144 51zM485 -252q135 0 208 40t73 108q0 70 -73 110.5t-208 40.5q-134 0 -207 -40.5t-73 -110.5q0 -68 73 -108t207 -40z" />
    <glyph glyph-name="Gdotaccent" unicode="&#x120;" horiz-adv-x="1282" 
d="M680 1509q-52 0 -84.5 32t-32.5 83q0 52 32.5 84.5t84.5 32.5q51 0 84 -32.5t33 -84.5q0 -51 -33 -83t-84 -32zM668 686h508v-528q-89 -86 -212 -134.5t-268 -48.5q-128 0 -235.5 42.5t-191 126.5t-130.5 222.5t-47 317.5q0 170 46.5 306.5t127 223.5t186 133t226.5 46
q171 0 299.5 -80t189.5 -238l-135 -69q-50 119 -138.5 175t-201.5 56q-177 0 -288 -141.5t-111 -411.5q0 -277 105.5 -416t293.5 -139q182 0 307 104v310h-331v143z" />
    <glyph glyph-name="gdotaccent" unicode="&#x121;" horiz-adv-x="983" 
d="M487 1141q-51 0 -82.5 31t-31.5 81t31.5 81.5t82.5 31.5q49 0 81 -32t32 -81t-31.5 -80.5t-81.5 -31.5zM594 201q162 -18 258 -88.5t96 -192.5q0 -138 -123.5 -215.5t-341.5 -77.5q-210 0 -329 67t-119 183q0 82 61 137.5t156 77.5q-139 40 -139 139q0 120 192 172
q-92 35 -145.5 106.5t-53.5 170.5q0 145 104 229t265 84q82 0 146 -20h307v-129l-166 8q82 -67 82 -184t-85.5 -195.5t-219.5 -93.5q-134 -24 -190 -45.5t-56 -52.5q0 -34 56.5 -47.5t244.5 -32.5zM475 868q-90 0 -143 -51.5t-53 -136.5q0 -84 53 -134t143 -50t143.5 50
t53.5 134q0 86 -53 137t-144 51zM485 -252q135 0 208 40t73 108q0 70 -73 110.5t-208 40.5q-134 0 -207 -40.5t-73 -110.5q0 -68 73 -108t207 -40z" />
    <glyph glyph-name="uni0122" unicode="&#x122;" horiz-adv-x="1282" 
d="M668 686h508v-528q-89 -86 -212 -134.5t-268 -48.5q-128 0 -235.5 42.5t-191 126.5t-130.5 222.5t-47 317.5q0 170 46.5 306.5t127 223.5t186 133t226.5 46q171 0 299.5 -80t189.5 -238l-135 -69q-50 119 -138.5 175t-201.5 56q-177 0 -288 -141.5t-111 -411.5
q0 -277 105.5 -416t293.5 -139q182 0 307 104v310h-331v143zM688 -88q52 0 82.5 -33t30.5 -86q0 -84 -52 -133.5t-155 -58.5v67q55 4 84 26.5t29 49.5v2q-8 -2 -21 -2q-44 0 -72 22t-28 60q0 41 27.5 63.5t74.5 22.5z" />
    <glyph glyph-name="uni0123" unicode="&#x123;" horiz-adv-x="983" 
d="M487 1090q-51 0 -79.5 32t-28.5 86q0 175 201 193v-66q-54 -4 -82.5 -27.5t-28.5 -50.5v-2q8 2 23 2q41 0 68.5 -22.5t27.5 -58.5q0 -39 -28 -62.5t-73 -23.5zM594 201q162 -18 258 -88.5t96 -192.5q0 -138 -123.5 -215.5t-341.5 -77.5q-210 0 -329 67t-119 183
q0 82 61 137.5t156 77.5q-139 40 -139 139q0 120 192 172q-92 35 -145.5 106.5t-53.5 170.5q0 145 104 229t265 84q82 0 146 -20h307v-129l-166 8q82 -67 82 -184t-85.5 -195.5t-219.5 -93.5q-134 -24 -190 -45.5t-56 -52.5q0 -34 56.5 -47.5t244.5 -32.5zM475 868
q-90 0 -143 -51.5t-53 -136.5q0 -84 53 -134t143 -50t143.5 50t53.5 134q0 86 -53 137t-144 51zM485 -252q135 0 208 40t73 108q0 70 -73 110.5t-208 40.5q-134 0 -207 -40.5t-73 -110.5q0 -68 73 -108t207 -40z" />
    <glyph glyph-name="Hcircumflex" unicode="&#x124;" horiz-adv-x="1290" 
d="M645 1614l-190 -107h-131l237 219h170l236 -219h-129zM944 1368h191v-1368h-191v631h-598v-631h-190v1368h190v-590h598v590z" />
    <glyph glyph-name="hcircumflex" unicode="&#x125;" horiz-adv-x="1042" 
d="M508 1614l-191 -107h-131l238 219h170l235 -219h-129zM610 993q140 0 224 -87t84 -238v-668h-181v631q0 115 -44 170t-138 55q-101 0 -171.5 -74.5t-70.5 -201.5v-580h-180v1368h180v-541q43 76 119.5 121t177.5 45z" />
    <glyph glyph-name="Hbar" unicode="&#x126;" horiz-adv-x="1390" 
d="M1352 1122v-125h-168v-997h-191v621h-596v-621h-190v997h-168v125h168v246h190v-246h596v246h191v-246h168zM993 768v229h-596v-229h596z" />
    <glyph glyph-name="hbar" unicode="&#x127;" horiz-adv-x="1042" 
d="M610 965q139 0 223.5 -87.5t84.5 -238.5v-639h-181v602q0 115 -44 170t-138 55q-102 0 -172 -73.5t-70 -200.5v-553h-180v1100h-147v110h147v158h180v-158h412v-110h-412v-301q43 76 119.5 121t177.5 45z" />
    <glyph glyph-name="Itilde" unicode="&#x128;" horiz-adv-x="503" 
d="M354 1634q25 0 39.5 19t18.5 69h100q-3 -120 -49.5 -169.5t-112.5 -49.5q-27 0 -53.5 10t-41 20t-36.5 28q-45 41 -74 41q-52 0 -57 -89h-98q1 62 15.5 107t39.5 68t51 33t56 10q26 0 52 -10t40.5 -20t36.5 -28q2 -1 8 -6.5t8 -7t8 -5.5t8 -5.5t7.5 -4.5t8.5 -4.5t7.5 -3
t9 -2t8.5 -0.5zM156 1368h190v-1368h-190v1368z" />
    <glyph glyph-name="itilde" unicode="&#x129;" horiz-adv-x="446" 
d="M319 1122q-37 0 -64 16.5t-56 47.5q-41 41 -70 41q-23 0 -41 -23.5t-22 -73.5h-97q2 68 17 115.5t39 70.5t47.5 32.5t50.5 9.5t51 -10t38.5 -21.5t33.5 -30.5q2 -1 8 -7t8 -7.5t7.5 -6.5t7.5 -6.5t7 -5t8 -4.5t7.5 -3t9 -2.5t8.5 -0.5q46 0 62 99h94q-2 -68 -17 -115.5
t-39 -71t-47.5 -33.5t-50.5 -10zM133 973h180v-973h-180v973z" />
    <glyph glyph-name="Imacron" unicode="&#x12a;" horiz-adv-x="503" 
d="M16 1536v127h469v-127h-469zM156 1368h190v-1368h-190v1368z" />
    <glyph glyph-name="imacron" unicode="&#x12b;" horiz-adv-x="446" 
d="M4 1165v127h436v-127h-436zM133 973h180v-973h-180v973z" />
    <glyph glyph-name="Ibreve" unicode="&#x12c;" horiz-adv-x="503" 
d="M252 1491q-106 0 -168 61t-68 174h99q24 -110 137 -110q116 0 137 110h100q-6 -113 -68 -174t-169 -61zM156 1368h190v-1368h-190v1368z" />
    <glyph glyph-name="ibreve" unicode="&#x12d;" horiz-adv-x="446" 
d="M223 1102q-104 0 -164.5 68t-66.5 198h98q23 -141 133 -141q54 0 88 32t47 109h99q-6 -130 -67 -198t-167 -68zM133 973h180v-973h-180v973z" />
    <glyph glyph-name="Iogonek" unicode="&#x12e;" horiz-adv-x="503" 
d="M346 -186l76 -76q-76 -111 -199 -111q-85 0 -138.5 46t-53.5 118q0 113 125 219v1358h190v-1368h-63q-95 -105 -95 -174q0 -35 18 -53.5t46 -18.5q50 0 94 60z" />
    <glyph glyph-name="iogonek" unicode="&#x12f;" horiz-adv-x="446" 
d="M223 1141q-51 0 -82.5 31t-31.5 81t31.5 81.5t82.5 31.5q49 0 81 -32t32 -81t-31.5 -80.5t-81.5 -31.5zM322 -188l77 -76q-76 -109 -198 -109q-85 0 -139 46.5t-54 119.5q0 109 125 215v965h180v-973h-45q-102 -99 -102 -172q0 -37 17 -56.5t46 -19.5q47 0 93 60z" />
    <glyph glyph-name="Idotaccent" unicode="&#x130;" horiz-adv-x="503" 
d="M252 1509q-52 0 -84.5 32t-32.5 83q0 52 32.5 84.5t84.5 32.5q51 0 84 -32.5t33 -84.5q0 -51 -33 -83t-84 -32zM156 1368h190v-1368h-190v1368z" />
    <glyph glyph-name="dotlessi" unicode="&#x131;" horiz-adv-x="446" 
d="M133 973h180v-973h-180v973z" />
    <glyph glyph-name="Jcircumflex" unicode="&#x134;" horiz-adv-x="651" 
d="M487 1726l236 -219h-129l-193 107l-190 -107h-131l237 219h170zM305 129v1239h191v-1268q0 -168 -89.5 -253t-244.5 -85q-103 0 -178 23v160q52 -23 137 -23q87 0 135.5 46.5t48.5 160.5z" />
    <glyph glyph-name="jcircumflex" unicode="&#x135;" horiz-adv-x="462" 
d="M322 1368l167 -256h-116l-133 139l-136 -139h-116l168 256h166zM150 -68v1041h180v-1065q0 -281 -275 -281q-74 0 -151 17v139q82 -19 114 -19q66 0 99 36.5t33 131.5z" />
    <glyph glyph-name="uni0136" unicode="&#x136;" horiz-adv-x="1134" 
d="M543 735l606 -735h-236l-510 633h-57v-633h-190v1368h190v-586h53l484 586h194zM606 -88q52 0 82.5 -33t30.5 -86q0 -84 -52 -133.5t-155 -58.5v67q55 4 84 26.5t29 49.5v2q-8 -2 -21 -2q-44 0 -72 22t-28 60q0 41 27.5 63.5t74.5 22.5z" />
    <glyph glyph-name="uni0137" unicode="&#x137;" horiz-adv-x="940" 
d="M502 557l448 -557h-221l-362 465h-54v-465h-180v1368h180v-772h52l344 377h184zM492 -88q51 0 79.5 -32.5t28.5 -86.5q0 -174 -199 -192v65q53 6 81 29t28 49v4q-8 -2 -21 -2q-42 0 -70 22.5t-28 59.5q0 38 28 61t73 23z" />
    <glyph glyph-name="Lacute" unicode="&#x139;" horiz-adv-x="976" 
d="M152 1507l178 219h250v-16l-308 -203h-120zM346 147h582v-147h-772v1368h190v-1221z" />
    <glyph glyph-name="lacute" unicode="&#x13a;" horiz-adv-x="491" 
d="M100 1507l179 219h249v-16l-307 -203h-121zM455 129v-133q-62 -16 -131 -16q-91 0 -143 47.5t-52 148.5v1192h180v-1149q0 -58 19 -80t53 -22q38 0 74 12z" />
    <glyph glyph-name="uni013B" unicode="&#x13b;" horiz-adv-x="976" 
d="M346 147h582v-147h-772v1368h190v-1221zM446 -399v67q55 4 84 26.5t29 49.5v2q-8 -2 -20 -2q-44 0 -72.5 22.5t-28.5 59.5q0 41 28 63.5t75 22.5q52 0 82 -33t30 -86q0 -84 -52 -133.5t-155 -58.5z" />
    <glyph glyph-name="uni013C" unicode="&#x13c;" horiz-adv-x="491" 
d="M455 129v-133q-62 -16 -131 -16q-91 0 -143 47.5t-52 148.5v1192h180v-1149q0 -58 19 -80t53 -22q38 0 74 12zM201 -399v65q53 6 80.5 29t27.5 49v4q-8 -2 -20 -2q-42 0 -70.5 22.5t-28.5 59.5q0 38 28 61t73 23q51 0 79.5 -32.5t28.5 -86.5q0 -174 -198 -192z" />
    <glyph glyph-name="Lcaron" unicode="&#x13d;" horiz-adv-x="987" 
d="M346 147h582v-147h-772v1368h190v-1221zM633 971l31 397h163v-18l-84 -379h-110z" />
    <glyph glyph-name="lcaron" unicode="&#x13e;" horiz-adv-x="585" 
d="M455 129v-133q-62 -16 -131 -16q-91 0 -143 47.5t-52 148.5v1192h180v-1149q0 -58 19 -80t53 -22q38 0 74 12zM457 971l30 397h164v-18l-82 -379h-112z" />
    <glyph glyph-name="Ldot" unicode="&#x13f;" horiz-adv-x="987" 
d="M346 147h582v-147h-772v1368h190v-1221zM731 621q-50 0 -81.5 30.5t-31.5 79.5t31.5 80t81.5 31q51 0 82 -30.5t31 -80.5t-31 -80t-82 -30z" />
    <glyph glyph-name="ldot" unicode="&#x140;" horiz-adv-x="690" 
d="M455 129v-133q-62 -16 -131 -16q-91 0 -143 47.5t-52 148.5v1192h180v-1149q0 -58 19 -80t53 -22q38 0 74 12zM565 598q-49 0 -79.5 30.5t-30.5 80.5q0 51 30 81.5t80 30.5t80.5 -30.5t30.5 -81.5q0 -49 -31 -80t-80 -31z" />
    <glyph glyph-name="Lslash" unicode="&#x141;" horiz-adv-x="1067" 
d="M434 147h582v-147h-772v565l-185 -84v137l185 82v668h190v-592l285 129v-137l-285 -129v-492z" />
    <glyph glyph-name="lslash" unicode="&#x142;" horiz-adv-x="610" 
d="M532 737l-147 -67v-451q0 -102 70 -102q37 0 73 12v-133q-62 -16 -131 -16q-91 0 -142.5 47.5t-51.5 148.5v422l-144 -63v120l144 66v647h182v-575l147 65v-121z" />
    <glyph glyph-name="Nacute" unicode="&#x143;" horiz-adv-x="1300" 
d="M961 1710l-308 -203h-121l179 219h250v-16zM977 1368h168v-1368h-223l-598 1098v-1098h-168v1368h223l598 -1098v1098z" />
    <glyph glyph-name="nacute" unicode="&#x144;" horiz-adv-x="1042" 
d="M852 1352l-305 -240h-117l186 256h236v-16zM610 993q140 0 224 -87t84 -238v-668h-181v631q0 115 -44 170t-138 55q-101 0 -171.5 -74.5t-70.5 -201.5v-580h-180v973h172v-162q41 85 119.5 133.5t185.5 48.5z" />
    <glyph glyph-name="uni0145" unicode="&#x145;" horiz-adv-x="1300" 
d="M977 1368h168v-1368h-223l-598 1098v-1098h-168v1368h223l598 -1098v1098zM655 -88q52 0 82.5 -33t30.5 -86q0 -84 -52 -133.5t-155 -58.5v67q55 4 84 26.5t29 49.5v2q-8 -2 -21 -2q-44 0 -72 22t-28 60q0 41 27.5 63.5t74.5 22.5z" />
    <glyph glyph-name="uni0146" unicode="&#x146;" horiz-adv-x="1042" 
d="M610 993q140 0 224 -87t84 -238v-668h-181v631q0 115 -44 170t-138 55q-101 0 -171.5 -74.5t-70.5 -201.5v-580h-180v973h172v-162q41 85 119.5 133.5t185.5 48.5zM522 -88q51 0 80 -32.5t29 -86.5q0 -174 -199 -192v65q53 6 81 29t28 49v4q-8 -2 -21 -2q-42 0 -70 22.5
t-28 59.5q0 38 27.5 61t72.5 23z" />
    <glyph glyph-name="Ncaron" unicode="&#x147;" horiz-adv-x="1300" 
d="M739 1507h-170l-237 219h131l190 -104l193 104h129zM977 1368h168v-1368h-223l-598 1098v-1098h-168v1368h223l598 -1098v1098z" />
    <glyph glyph-name="ncaron" unicode="&#x148;" horiz-adv-x="1042" 
d="M631 1112h-166l-217 256h119l180 -137l182 137h119zM610 993q140 0 224 -87t84 -238v-668h-181v631q0 115 -44 170t-138 55q-101 0 -171.5 -74.5t-70.5 -201.5v-580h-180v973h172v-162q41 85 119.5 133.5t185.5 48.5z" />
    <glyph glyph-name="Eng" unicode="&#x14a;" horiz-adv-x="1300" 
d="M977 1368h168v-1360q0 -172 -89 -254t-251 -82q-95 0 -152 15v137q74 -19 133 -19q82 0 130.5 37.5t58.5 126.5l-651 1127v-1096h-168v1368h217l604 -1049v1049z" />
    <glyph glyph-name="eng" unicode="&#x14b;" horiz-adv-x="1042" 
d="M610 993q140 0 224 -87t84 -238v-760q0 -281 -275 -281q-76 0 -149 17v139q78 -19 114 -19q65 0 97 36.5t32 131.5v699q0 115 -44 170t-138 55q-101 0 -171.5 -74.5t-70.5 -201.5v-580h-180v973h172v-162q41 85 119.5 133.5t185.5 48.5z" />
    <glyph glyph-name="Omacron" unicode="&#x14c;" horiz-adv-x="1361" 
d="M387 1534v133h588v-133h-588zM680 -25q-124 0 -230.5 45.5t-186.5 132.5t-125.5 223.5t-45.5 307.5t45.5 307.5t125.5 223.5t186.5 132.5t230.5 45.5q125 0 231.5 -45.5t187 -132.5t126 -223t45.5 -308t-45.5 -308t-126 -223t-187 -132.5t-231.5 -45.5zM680 131
q175 0 282 139.5t107 413.5t-107 413.5t-282 139.5q-173 0 -280 -139.5t-107 -413.5t107 -413.5t280 -139.5z" />
    <glyph glyph-name="omacron" unicode="&#x14d;" horiz-adv-x="1064" 
d="M258 1165v127h547v-127h-547zM532 -20q-201 0 -326.5 137t-125.5 370q0 232 125.5 369t326.5 137q202 0 327.5 -137t125.5 -369q0 -233 -125.5 -370t-327.5 -137zM532 117q124 0 194.5 95.5t70.5 274.5q0 177 -71 273t-194 96t-193.5 -95.5t-70.5 -273.5
q0 -179 70.5 -274.5t193.5 -95.5z" />
    <glyph glyph-name="Obreve" unicode="&#x14e;" horiz-adv-x="1361" 
d="M682 1491q-134 0 -209.5 60t-87.5 175h98q21 -60 69 -84t130 -24t129 24t68 84h100q-14 -115 -89 -175t-208 -60zM680 -25q-124 0 -230.5 45.5t-186.5 132.5t-125.5 223.5t-45.5 307.5t45.5 307.5t125.5 223.5t186.5 132.5t230.5 45.5q125 0 231.5 -45.5t187 -132.5
t126 -223t45.5 -308t-45.5 -308t-126 -223t-187 -132.5t-231.5 -45.5zM680 131q175 0 282 139.5t107 413.5t-107 413.5t-282 139.5q-173 0 -280 -139.5t-107 -413.5t107 -413.5t280 -139.5z" />
    <glyph glyph-name="obreve" unicode="&#x14f;" horiz-adv-x="1064" 
d="M532 1102q-120 0 -196 68.5t-88 197.5h98q38 -141 186 -141q152 0 187 141h100q-13 -129 -89.5 -197.5t-197.5 -68.5zM532 -20q-201 0 -326.5 137t-125.5 370q0 232 125.5 369t326.5 137q202 0 327.5 -137t125.5 -369q0 -233 -125.5 -370t-327.5 -137zM532 117
q124 0 194.5 95.5t70.5 274.5q0 177 -71 273t-194 96t-193.5 -95.5t-70.5 -273.5q0 -179 70.5 -274.5t193.5 -95.5z" />
    <glyph glyph-name="Ohungarumlaut" unicode="&#x150;" horiz-adv-x="1361" 
d="M418 1507l151 219h213v-14l-247 -205h-117zM766 1507l186 219h215v-14l-280 -205h-121zM680 -25q-124 0 -230.5 45.5t-186.5 132.5t-125.5 223.5t-45.5 307.5t45.5 307.5t125.5 223.5t186.5 132.5t230.5 45.5q125 0 231.5 -45.5t187 -132.5t126 -223t45.5 -308
t-45.5 -308t-126 -223t-187 -132.5t-231.5 -45.5zM680 131q175 0 282 139.5t107 413.5t-107 413.5t-282 139.5q-173 0 -280 -139.5t-107 -413.5t107 -413.5t280 -139.5z" />
    <glyph glyph-name="ohungarumlaut" unicode="&#x151;" horiz-adv-x="1064" 
d="M289 1112l149 256h199v-14l-240 -242h-108zM614 1112l185 256h200v-14l-274 -242h-111zM532 -20q-201 0 -326.5 137t-125.5 370q0 232 125.5 369t326.5 137q202 0 327.5 -137t125.5 -369q0 -233 -125.5 -370t-327.5 -137zM532 117q124 0 194.5 95.5t70.5 274.5
q0 177 -71 273t-194 96t-193.5 -95.5t-70.5 -273.5q0 -179 70.5 -274.5t193.5 -95.5z" />
    <glyph glyph-name="OE" unicode="&#x152;" horiz-adv-x="1925" 
d="M1227 147h602v-147h-787v215q-66 -118 -168 -179t-231 -61q-117 0 -216 45t-173.5 131.5t-117 223t-42.5 309.5t42.5 309.5t117 223t173.5 131.5t216 45q129 0 231 -61t168 -179v215h775v-147h-590v-445h555v-143h-555v-486zM668 131q168 0 270 140t102 413t-102 413
t-270 140t-270.5 -139.5t-102.5 -413.5t102.5 -413.5t270.5 -139.5z" />
    <glyph glyph-name="oe" unicode="&#x153;" horiz-adv-x="1681" 
d="M1602 516q0 -31 -3 -61h-645q8 -165 76.5 -251.5t192.5 -86.5q152 0 256 147l104 -84q-144 -200 -371 -200q-241 0 -348 198q-111 -198 -346 -198q-197 0 -317.5 136.5t-120.5 368.5q0 234 120.5 371t317.5 137q234 0 346 -200q52 98 138.5 149t195.5 51
q185 0 294.5 -129.5t109.5 -347.5zM518 117q120 0 186 95t66 273q0 180 -66 275.5t-186 95.5t-186 -95.5t-66 -275.5q0 -178 66 -273t186 -95zM1196 856q-99 0 -161 -73t-77 -210h461q-9 139 -65.5 211t-157.5 72z" />
    <glyph glyph-name="Racute" unicode="&#x154;" horiz-adv-x="1146" 
d="M862 1710l-307 -203h-121l178 219h250v-16zM887 0l-363 578h-178v-578h-190v1368h428q93 0 172.5 -24t141 -71.5t97 -123.5t35.5 -174q0 -153 -84.5 -250t-224.5 -129l393 -596h-227zM346 1223v-502h221q124 0 194 62t70 190q0 126 -69.5 188t-194.5 62h-221z" />
    <glyph glyph-name="racute" unicode="&#x155;" horiz-adv-x="696" 
d="M453 1368h235v-16l-305 -240h-117zM305 791q38 93 109.5 147.5t167.5 54.5q40 0 71 -8v-164q-33 6 -98 6q-106 0 -174 -80t-68 -231v-516h-180v973h172v-182z" />
    <glyph glyph-name="uni0156" unicode="&#x156;" horiz-adv-x="1146" 
d="M721 596l393 -596h-227l-363 578h-178v-578h-190v1368h428q93 0 172.5 -24t141 -71.5t97 -123.5t35.5 -174q0 -153 -84.5 -250t-224.5 -129zM346 1223v-502h221q124 0 194 62t70 190q0 126 -69.5 188t-194.5 62h-221zM594 -88q52 0 82.5 -33t30.5 -86q0 -84 -52 -133.5
t-155 -58.5v67q55 4 83.5 26.5t28.5 49.5v2q-8 -2 -20 -2q-44 0 -72 22t-28 60q0 41 27.5 63.5t74.5 22.5z" />
    <glyph glyph-name="uni0157" unicode="&#x157;" horiz-adv-x="696" 
d="M582 993q40 0 71 -8v-164q-33 6 -98 6q-106 0 -174 -80t-68 -231v-516h-180v973h172v-182q38 93 109.5 147.5t167.5 54.5zM225 -88q51 0 80 -32.5t29 -86.5q0 -174 -199 -192v65q53 6 81 29t28 49v4q-8 -2 -21 -2q-42 0 -70 22.5t-28 59.5q0 38 27.5 61t72.5 23z" />
    <glyph glyph-name="Rcaron" unicode="&#x158;" horiz-adv-x="1146" 
d="M643 1507h-170l-237 219h131l190 -104l193 104h129zM887 0l-363 578h-178v-578h-190v1368h428q93 0 172.5 -24t141 -71.5t97 -123.5t35.5 -174q0 -153 -84.5 -250t-224.5 -129l393 -596h-227zM346 1223v-502h221q124 0 194 62t70 190q0 126 -69.5 188t-194.5 62h-221z
" />
    <glyph glyph-name="rcaron" unicode="&#x159;" horiz-adv-x="696" 
d="M467 1112h-166l-217 256h119l180 -137l182 137h119zM305 791q38 93 109.5 147.5t167.5 54.5q40 0 71 -8v-164q-33 6 -98 6q-106 0 -174 -80t-68 -231v-516h-180v973h172v-182z" />
    <glyph glyph-name="Sacute" unicode="&#x15a;" horiz-adv-x="1097" 
d="M428 1507l178 219h250v-16l-307 -203h-121zM158 319q153 -190 383 -190q130 0 207 55.5t77 155.5q0 49 -18.5 87.5t-57 68t-74 48t-93.5 42.5l-168 65q-140 57 -222.5 151.5t-82.5 229.5q0 154 119 257.5t309 103.5q275 0 448 -207l-104 -107q-134 160 -332 160
q-114 0 -178 -56t-64 -139q0 -79 52 -130t155 -95l174 -69q56 -23 100 -45.5t90 -57.5t76.5 -74.5t50 -94.5t19.5 -120q0 -119 -63.5 -207t-171 -132t-242.5 -44q-311 0 -492 238z" />
    <glyph glyph-name="sacute" unicode="&#x15b;" horiz-adv-x="888" 
d="M326 1112l186 256h236v-16l-306 -240h-116zM156 268q116 -151 282 -151q92 0 147.5 35.5t55.5 97.5q0 33 -11.5 56.5t-40.5 42t-55.5 29.5t-80.5 30l-119 41q-114 39 -177 102.5t-63 169.5q0 122 91.5 197t248.5 75q228 0 359 -162l-97 -94q-98 119 -254 119
q-84 0 -128 -34.5t-44 -84.5t36 -80.5t108 -54.5l118 -41q49 -17 83.5 -31t76 -39.5t67 -54.5t43 -72t17.5 -96q0 -131 -101.5 -209.5t-271.5 -78.5q-122 0 -223 51t-168 149z" />
    <glyph glyph-name="Scircumflex" unicode="&#x15c;" horiz-adv-x="1097" 
d="M549 1614l-191 -107h-131l238 219h170l235 -219h-129zM688 750q56 -23 100 -45.5t90 -57.5t76.5 -74.5t50 -94.5t19.5 -120q0 -119 -63.5 -207t-171 -132t-242.5 -44q-311 0 -492 238l103 106q153 -190 383 -190q130 0 207 55.5t77 155.5q0 49 -18.5 87.5t-57 68t-74 48
t-93.5 42.5l-168 65q-140 57 -222.5 151.5t-82.5 229.5q0 154 119 257.5t309 103.5q275 0 448 -207l-104 -107q-134 160 -332 160q-114 0 -178 -56t-64 -139q0 -79 52 -130t155 -95z" />
    <glyph glyph-name="scircumflex" unicode="&#x15d;" horiz-adv-x="888" 
d="M627 1112l-183 137l-180 -137h-119l217 256h166l217 -256h-118zM156 268q116 -151 282 -151q92 0 147.5 35.5t55.5 97.5q0 33 -11.5 56.5t-40.5 42t-55.5 29.5t-80.5 30l-119 41q-114 39 -177 102.5t-63 169.5q0 122 91.5 197t248.5 75q228 0 359 -162l-97 -94
q-98 119 -254 119q-84 0 -128 -34.5t-44 -84.5t36 -80.5t108 -54.5l118 -41q49 -17 83.5 -31t76 -39.5t67 -54.5t43 -72t17.5 -96q0 -131 -101.5 -209.5t-271.5 -78.5q-122 0 -223 51t-168 149z" />
    <glyph glyph-name="Scedilla" unicode="&#x15e;" horiz-adv-x="1097" 
d="M1024 358q0 -164 -115.5 -264.5t-300.5 -116.5l-45 -69q12 2 39 2q75 0 122.5 -36t47.5 -93q0 -73 -60.5 -113.5t-158.5 -40.5t-174 51l41 82q56 -39 115 -39q43 0 66.5 16.5t23.5 45.5q0 25 -19.5 40t-54.5 15q-41 0 -74 -22l-41 24l80 135q-290 13 -461 238l103 106
q153 -190 383 -190q130 0 207 55.5t77 155.5q0 49 -18.5 87.5t-57 68t-74 48t-93.5 42.5l-168 65q-140 57 -222.5 151.5t-82.5 229.5q0 154 119 257.5t309 103.5q275 0 448 -207l-104 -107q-134 160 -332 160q-114 0 -178 -56t-64 -139q0 -79 52 -130t155 -95l174 -69
q56 -23 100 -45.5t90 -57.5t76.5 -74.5t50 -94.5t19.5 -120z" />
    <glyph glyph-name="scedilla" unicode="&#x15f;" horiz-adv-x="888" 
d="M819 268q0 -123 -89.5 -200t-242.5 -86l-47 -76q24 4 41 4q74 0 120 -36.5t46 -96.5q0 -70 -59.5 -110t-155.5 -40q-98 0 -170 51l39 80q56 -39 115 -39q41 0 64.5 16t23.5 44t-19.5 43.5t-56.5 15.5q-39 0 -72 -22l-41 24l84 142q-220 19 -344 198l101 88
q116 -151 282 -151q92 0 147.5 35.5t55.5 97.5q0 33 -11.5 56.5t-40.5 42t-55.5 29.5t-80.5 30l-119 41q-114 39 -177 102.5t-63 169.5q0 122 91.5 197t248.5 75q228 0 359 -162l-97 -94q-98 119 -254 119q-84 0 -128 -34.5t-44 -84.5t36 -80.5t108 -54.5l118 -41
q49 -17 83.5 -31t76 -39.5t67 -54.5t43 -72t17.5 -96z" />
    <glyph glyph-name="Scaron" unicode="&#x160;" horiz-adv-x="1097" 
d="M635 1507h-170l-238 219h131l191 -104l192 104h129zM688 750q56 -23 100 -45.5t90 -57.5t76.5 -74.5t50 -94.5t19.5 -120q0 -119 -63.5 -207t-171 -132t-242.5 -44q-311 0 -492 238l103 106q153 -190 383 -190q130 0 207 55.5t77 155.5q0 49 -18.5 87.5t-57 68t-74 48
t-93.5 42.5l-168 65q-140 57 -222.5 151.5t-82.5 229.5q0 154 119 257.5t309 103.5q275 0 448 -207l-104 -107q-134 160 -332 160q-114 0 -178 -56t-64 -139q0 -79 52 -130t155 -95z" />
    <glyph glyph-name="scaron" unicode="&#x161;" horiz-adv-x="888" 
d="M528 1112h-166l-217 256h119l182 -137l181 137h118zM532 561q49 -17 83.5 -31t76 -39.5t67 -54.5t43 -72t17.5 -96q0 -131 -101.5 -209.5t-271.5 -78.5q-122 0 -223 51t-168 149l101 88q116 -151 282 -151q92 0 147.5 35.5t55.5 97.5q0 33 -11.5 56.5t-40.5 42
t-55.5 29.5t-80.5 30l-119 41q-114 39 -177 102.5t-63 169.5q0 122 91.5 197t248.5 75q228 0 359 -162l-97 -94q-98 119 -254 119q-84 0 -128 -34.5t-44 -84.5t36 -80.5t108 -54.5z" />
    <glyph glyph-name="uni0162" unicode="&#x162;" horiz-adv-x="1062" 
d="M627 0h-49l-60 -92q12 2 39 2q75 0 122.5 -36t47.5 -93q0 -73 -60.5 -113.5t-158.5 -40.5t-174 51l41 82q56 -39 114 -39q43 0 67 16.5t24 45.5q0 25 -19.5 40t-54.5 15q-41 0 -74 -22l-41 24l94 160h-49v1221h-387v147h965v-147h-387v-1221z" />
    <glyph glyph-name="uni0163" unicode="&#x163;" horiz-adv-x="688" 
d="M643 10q-77 -30 -182 -30l-47 -74q24 4 41 4q74 0 120 -36.5t46 -96.5q0 -70 -59.5 -110t-155.5 -40q-98 0 -170 51l38 80q56 -39 115 -39q41 0 64.5 16t23.5 44t-19.5 43.5t-56.5 15.5q-38 0 -71 -22l-41 24l88 148q-158 41 -158 229v625h-180v131h180v205l180 65v-270
h234v-131h-234v-588q0 -78 26.5 -107.5t78.5 -29.5q63 0 139 26v-133z" />
    <glyph glyph-name="Tcaron" unicode="&#x164;" horiz-adv-x="1062" 
d="M616 1507h-170l-237 219h131l190 -104l193 104h129zM1014 1368v-147h-387v-1221h-191v1221h-387v147h965z" />
    <glyph glyph-name="tcaron" unicode="&#x165;" horiz-adv-x="688" 
d="M537 1393h153v-19l-65 -297h-113zM399 254q0 -78 26.5 -107.5t78.5 -29.5q63 0 139 26v-133q-79 -30 -188 -30t-172.5 58t-63.5 179v625h-180v131h180v205l180 65v-270h234v-131h-234v-588z" />
    <glyph glyph-name="Tbar" unicode="&#x166;" horiz-adv-x="1097" 
d="M1032 1221h-389v-471h260v-125h-260v-625h-188v625h-260v125h260v471h-389v147h966v-147z" />
    <glyph glyph-name="tbar" unicode="&#x167;" horiz-adv-x="704" 
d="M514 117q61 0 141 26v-133q-83 -30 -190 -30q-109 0 -172.5 58t-63.5 179v252h-161v109h161v264h-180v131h180v205l181 65v-270h233v-131h-233v-264h215v-109h-215v-215q0 -78 26 -107.5t78 -29.5z" />
    <glyph glyph-name="Utilde" unicode="&#x168;" horiz-adv-x="1243" 
d="M750 1493q-49 0 -84 17.5t-74 50.5q-53 43 -94 43q-71 0 -88 -99h-99q3 68 23 117t50.5 73t59.5 34t60 10q35 0 66.5 -11.5t47.5 -22.5t41 -32q59 -45 97 -45q32 0 54.5 21.5t33.5 79.5h100q-2 -56 -16 -99t-34 -68.5t-46 -41.5t-49.5 -21.5t-48.5 -5.5zM621 -25
q-223 0 -349.5 121.5t-126.5 345.5v926h191v-903q0 -173 74.5 -253.5t222.5 -80.5q145 0 221 79t76 255v903h168v-926q0 -224 -127 -345.5t-350 -121.5z" />
    <glyph glyph-name="utilde" unicode="&#x169;" horiz-adv-x="1042" 
d="M629 1120q-45 0 -78.5 17.5t-71.5 52.5q-44 41 -80 41q-65 0 -77 -101h-97q3 67 21 115.5t46 71.5t55 33t56 10q33 0 61.5 -10.5t44 -22t38.5 -31.5q52 -45 88 -45q29 0 48.5 21t29.5 80h94q-3 -67 -21 -115.5t-45.5 -72.5t-54.5 -34t-57 -10zM729 973h180v-973h-172v160
q-41 -83 -119.5 -131.5t-185.5 -48.5q-139 0 -223 87t-84 238v668h180v-631q0 -115 44 -170t138 -55q101 0 171.5 74.5t70.5 201.5v580z" />
    <glyph glyph-name="Umacron" unicode="&#x16a;" horiz-adv-x="1243" 
d="M334 1534v133h588v-133h-588zM621 -25q-223 0 -349.5 121.5t-126.5 345.5v926h191v-903q0 -173 74.5 -253.5t222.5 -80.5q145 0 221 79t76 255v903h168v-926q0 -224 -127 -345.5t-350 -121.5z" />
    <glyph glyph-name="umacron" unicode="&#x16b;" horiz-adv-x="1042" 
d="M244 1165v127h547v-127h-547zM729 973h180v-973h-172v160q-41 -83 -119.5 -131.5t-185.5 -48.5q-139 0 -223 87t-84 238v668h180v-631q0 -115 44 -170t138 -55q101 0 171.5 74.5t70.5 201.5v580z" />
    <glyph glyph-name="Ubreve" unicode="&#x16c;" horiz-adv-x="1243" 
d="M629 1491q-134 0 -209.5 60t-87.5 175h98q21 -60 69 -84t130 -24t128.5 23.5t67.5 84.5h101q-14 -115 -89 -175t-208 -60zM621 -25q-223 0 -349.5 121.5t-126.5 345.5v926h191v-903q0 -173 74.5 -253.5t222.5 -80.5q145 0 221 79t76 255v903h168v-926q0 -224 -127 -345.5
t-350 -121.5z" />
    <glyph glyph-name="ubreve" unicode="&#x16d;" horiz-adv-x="1042" 
d="M516 1102q-120 0 -196.5 68.5t-88.5 197.5h99q38 -141 186 -141q151 0 186 141h101q-13 -129 -89.5 -197.5t-197.5 -68.5zM729 973h180v-973h-172v160q-41 -83 -119.5 -131.5t-185.5 -48.5q-139 0 -223 87t-84 238v668h180v-631q0 -115 44 -170t138 -55q101 0 171.5 74.5
t70.5 201.5v580z" />
    <glyph glyph-name="Uring" unicode="&#x16e;" horiz-adv-x="1243" 
d="M627 1479q-101 0 -166.5 59.5t-65.5 147.5q0 90 65 150t167 60q101 0 166 -60t65 -150q0 -88 -66 -147.5t-165 -59.5zM627 1581q47 0 77.5 30t30.5 75t-30 75.5t-78 30.5q-49 0 -79 -31t-30 -75t30.5 -74.5t78.5 -30.5zM621 -25q-223 0 -349.5 121.5t-126.5 345.5v926
h191v-903q0 -173 74.5 -253.5t222.5 -80.5q145 0 221 79t76 255v903h168v-926q0 -224 -127 -345.5t-350 -121.5z" />
    <glyph glyph-name="uring" unicode="&#x16f;" horiz-adv-x="1042" 
d="M514 1102q-98 0 -161.5 58t-63.5 145q0 89 63 147.5t162 58.5q100 0 163.5 -58.5t63.5 -147.5q0 -87 -64 -145t-163 -58zM514 1202q47 0 78 30t31 73q0 46 -29.5 76t-79.5 30q-48 0 -76 -30.5t-28 -75.5q0 -43 29 -73t75 -30zM729 973h180v-973h-172v160
q-41 -83 -119.5 -131.5t-185.5 -48.5q-139 0 -223 87t-84 238v668h180v-631q0 -115 44 -170t138 -55q101 0 171.5 74.5t70.5 201.5v580z" />
    <glyph glyph-name="Uhungarumlaut" unicode="&#x170;" horiz-adv-x="1243" 
d="M365 1507l151 219h213v-14l-248 -205h-116zM713 1507l186 219h215v-14l-280 -205h-121zM621 -25q-223 0 -349.5 121.5t-126.5 345.5v926h191v-903q0 -173 74.5 -253.5t222.5 -80.5q145 0 221 79t76 255v903h168v-926q0 -224 -127 -345.5t-350 -121.5z" />
    <glyph glyph-name="uhungarumlaut" unicode="&#x171;" horiz-adv-x="1042" 
d="M274 1112l150 256h199v-14l-240 -242h-109zM600 1112l184 256h201v-14l-274 -242h-111zM729 973h180v-973h-172v160q-41 -83 -119.5 -131.5t-185.5 -48.5q-139 0 -223 87t-84 238v668h180v-631q0 -115 44 -170t138 -55q101 0 171.5 74.5t70.5 201.5v580z" />
    <glyph glyph-name="Uogonek" unicode="&#x172;" horiz-adv-x="1243" 
d="M879 31q-150 -107 -150 -191q0 -40 22 -62t58 -22q37 0 63 15.5t54 46.5l80 -78q-41 -56 -95.5 -84.5t-136.5 -28.5q-90 0 -148.5 48t-58.5 122q0 99 99 180q-14 -2 -45 -2q-223 0 -349.5 121.5t-126.5 345.5v926h191v-903q0 -173 74.5 -253.5t222.5 -80.5q145 0 221 79
t76 255v903h168v-926q0 -149 -56.5 -252.5t-162.5 -158.5z" />
    <glyph glyph-name="uogonek" unicode="&#x173;" horiz-adv-x="1042" 
d="M887 -188l76 -76q-76 -109 -197 -109q-86 0 -139.5 45t-53.5 117q0 64 39.5 117t124.5 106v148q-41 -83 -119.5 -131.5t-185.5 -48.5q-139 0 -223 87t-84 238v668h180v-631q0 -115 44 -170t138 -55q101 0 171.5 74.5t70.5 201.5v580h180v-973h-47q-133 -91 -133 -176
q0 -35 18.5 -53.5t47.5 -18.5q46 0 92 60z" />
    <glyph glyph-name="Wcircumflex" unicode="&#x174;" horiz-adv-x="1839" 
d="M926 1614l-191 -107h-131l238 219h170l235 -219h-129zM1614 1368h184l-358 -1368h-223l-304 1098l-297 -1098h-217l-360 1368h205l282 -1132l301 1132h197l317 -1143z" />
    <glyph glyph-name="wcircumflex" unicode="&#x175;" horiz-adv-x="1437" 
d="M731 1249l-180 -137h-119l217 256h166l217 -256h-119zM1239 973h160l-281 -973h-190l-207 723l-209 -723h-195l-278 973h197l196 -768l211 768h178l217 -760z" />
    <glyph glyph-name="Ycircumflex" unicode="&#x176;" horiz-adv-x="1181" 
d="M596 1614l-190 -107h-132l238 219h170l236 -219h-130zM967 1368h192l-473 -737v-631h-190v631l-473 737h217l362 -586z" />
    <glyph glyph-name="ycircumflex" unicode="&#x177;" horiz-adv-x="952" 
d="M664 1112l-183 137l-180 -137h-119l217 256h166l217 -256h-118zM756 973h166l-412 -1086q-54 -144 -124.5 -202t-180.5 -58q-58 0 -131 15v137q84 -15 108 -15q61 0 102.5 38t73.5 139l37 108l-364 924h198l267 -733z" />
    <glyph glyph-name="Ydieresis" unicode="&#x178;" horiz-adv-x="1181" 
d="M381 1503q-47 0 -78 31t-31 78t31 77.5t78 30.5q48 0 79.5 -30.5t31.5 -77.5t-32 -78t-79 -31zM813 1503q-47 0 -77.5 31t-30.5 78t30.5 77.5t77.5 30.5q48 0 79.5 -30.5t31.5 -77.5t-32 -78t-79 -31zM1159 1368l-473 -737v-631h-190v631l-473 737h217l362 -586l365 586
h192z" />
    <glyph glyph-name="Zacute" unicode="&#x179;" horiz-adv-x="1026" 
d="M821 1710l-307 -203h-121l178 219h250v-16zM279 145h684v-145h-908v135l684 1088h-655v145h877v-135z" />
    <glyph glyph-name="zacute" unicode="&#x17a;" horiz-adv-x="847" 
d="M729 1352l-305 -240h-117l187 256h235v-16zM279 131h503v-131h-723v115l502 727h-479v131h698v-115z" />
    <glyph glyph-name="Zdotaccent" unicode="&#x17b;" horiz-adv-x="1026" 
d="M516 1509q-52 0 -84.5 32t-32.5 83q0 52 32.5 84.5t84.5 32.5q51 0 84 -32.5t33 -84.5q0 -51 -33 -83t-84 -32zM276 145h687v-145h-908v135l684 1088h-655v145h877v-135z" />
    <glyph glyph-name="zdotaccent" unicode="&#x17c;" horiz-adv-x="847" 
d="M426 1141q-51 0 -83 31t-32 81t32 81.5t83 31.5q50 0 81.5 -32t31.5 -81t-31.5 -80.5t-81.5 -31.5zM279 131h503v-131h-723v115l502 727h-479v131h698v-115z" />
    <glyph glyph-name="Zcaron" unicode="&#x17d;" horiz-adv-x="1026" 
d="M602 1507h-170l-237 219h131l190 -104l193 104h129zM279 145h684v-145h-908v135l684 1088h-655v145h877v-135z" />
    <glyph glyph-name="zcaron" unicode="&#x17e;" horiz-adv-x="847" 
d="M508 1112h-166l-217 256h119l180 -137l182 137h119zM279 131h503v-131h-723v115l502 727h-479v131h698v-115z" />
    <glyph glyph-name="uni018F" unicode="&#x18f;" horiz-adv-x="1304" 
d="M625 1393q268 0 427.5 -189t159.5 -516q0 -331 -154 -521t-417 -190q-261 0 -410 179t-149 487q0 22 4 84h928q-7 253 -114.5 381.5t-281.5 128.5q-216 0 -362 -207l-125 88q81 127 206 201t288 74zM643 131q156 0 251.5 113t115.5 334h-736q11 -216 106 -331.5
t263 -115.5z" />
    <glyph glyph-name="florin" unicode="&#x192;" 
d="M711 1210q-26 -30 -40 -87.5t-26 -184.5l-18 -186h262v-123h-275l-41 -436q-15 -155 -39 -235t-65 -124q-74 -82 -223 -82q-79 0 -148 19l21 131q63 -13 102 -13q72 0 111 48q22 30 37 93.5t28 200.5l39 398h-248v123h258l23 223q12 138 36 215.5t68 124.5q78 78 226 78
q72 0 145 -21l-20 -133q-66 16 -105 16q-71 0 -108 -45z" />
    <glyph glyph-name="uni01C4" unicode="&#x1c4;" horiz-adv-x="2293" 
d="M1870 1507h-170l-238 219h131l191 -104l192 104h129zM563 1368q141 0 257.5 -41.5t204 -123.5t136.5 -214.5t49 -304.5t-49 -304.5t-136.5 -214.5t-204 -123.5t-257.5 -41.5h-407v1368h407zM1546 145h684v-145h-907v135l684 1088h-655v145h876v-135zM545 147
q216 0 340.5 132t124.5 405t-124.5 405t-340.5 132h-199v-1074h199z" />
    <glyph glyph-name="uni01C5" unicode="&#x1c5;" horiz-adv-x="2150" 
d="M563 1368q141 0 257.5 -41.5t204 -123.5t136.5 -214.5t49 -304.5t-49 -304.5t-136.5 -214.5t-204 -123.5t-257.5 -41.5h-407v1368h407zM1810 1112h-165l-218 256h119l183 -137l180 137h119zM545 147q216 0 340.5 132t124.5 405t-124.5 405t-340.5 132h-199v-1074h199z
M1581 131h504v-131h-723v115l502 727h-480v131h699v-115z" />
    <glyph glyph-name="uni01C6" unicode="&#x1c6;" horiz-adv-x="1937" 
d="M774 819v549h180v-1368h-172v168q-45 -92 -122 -140t-175 -48q-82 0 -154 32.5t-128 94.5t-88.5 160t-32.5 220q0 238 116.5 372t286.5 134q93 0 167.5 -44.5t121.5 -129.5zM1595 1112h-165l-218 256h119l182 -137l181 137h118zM1366 131h504v-131h-723v115l502 727h-480
v131h699v-115zM522 117q117 0 185.5 97.5t68.5 270.5q0 176 -68 273.5t-186 97.5t-186 -97t-68 -272q0 -177 68 -273.5t186 -96.5z" />
    <glyph glyph-name="uni01C7" unicode="&#x1c7;" horiz-adv-x="1624" 
d="M346 1368v-1221h582v-147h-772v1368h190zM1276 1368h190v-1268q0 -168 -89 -253t-244 -85q-104 0 -179 23v160q52 -23 138 -23q87 0 135.5 46.5t48.5 160.5v1239z" />
    <glyph glyph-name="uni01C8" unicode="&#x1c8;" horiz-adv-x="1439" 
d="M346 147h582v-147h-772v1368h190v-1221zM1217 1141q-51 0 -83 31t-32 81t32 81.5t83 31.5q49 0 80.5 -31.5t31.5 -81.5q0 -49 -31.5 -80.5t-80.5 -31.5zM1032 -373q-74 0 -151 17v139q82 -19 114 -19q66 0 98.5 36.5t32.5 131.5v1041h181v-1065q0 -281 -275 -281z" />
    <glyph glyph-name="uni01C9" unicode="&#x1c9;" horiz-adv-x="954" 
d="M455 129v-133q-62 -16 -131 -16q-91 0 -143 47.5t-52 148.5v1192h180v-1149q0 -58 19 -80t53 -22q38 0 74 12zM731 1141q-51 0 -83 31t-32 81t32 81.5t83 31.5q49 0 81 -32t32 -81t-31.5 -80.5t-81.5 -31.5zM547 -373q-75 0 -152 17v139q82 -19 115 -19q66 0 98.5 36.5
t32.5 131.5v1041h180v-1065q0 -281 -274 -281z" />
    <glyph glyph-name="uni01CA" unicode="&#x1ca;" horiz-adv-x="1951" 
d="M977 270v1098h168v-1368h-223l-598 1098v-1098h-168v1368h223zM1606 1368h190v-1268q0 -168 -89.5 -253t-244.5 -85q-103 0 -178 23v160q52 -23 137 -23q87 0 136 46.5t49 160.5v1239z" />
    <glyph glyph-name="uni01CB" unicode="&#x1cb;" horiz-adv-x="1763" 
d="M977 1368h168v-1368h-223l-598 1100v-1100h-168v1368h223l598 -1100v1100zM1540 1141q-51 0 -83 31t-32 81t32 81.5t83 31.5q50 0 81.5 -32t31.5 -81t-31.5 -80.5t-81.5 -31.5zM1356 -373q-76 0 -152 17v139q82 -19 115 -19q66 0 98.5 36.5t32.5 131.5v1041h180v-1065
q0 -281 -274 -281z" />
    <glyph glyph-name="uni01CC" unicode="&#x1cc;" horiz-adv-x="1505" 
d="M1282 1141q-51 0 -83 31t-32 81t32 81.5t83 31.5q50 0 81.5 -32t31.5 -81t-31.5 -80.5t-81.5 -31.5zM610 993q140 0 224 -87t84 -238v-668h-181v631q0 115 -44 170t-138 55q-101 0 -171.5 -74.5t-70.5 -201.5v-580h-180v973h172v-160q41 83 119.5 131.5t185.5 48.5z
M1098 -373q-76 0 -152 17v139q82 -19 115 -19q66 0 98.5 36.5t32.5 131.5v1041h180v-1065q0 -281 -274 -281z" />
    <glyph glyph-name="uni01CD" unicode="&#x1cd;" horiz-adv-x="1198" 
d="M684 1507h-170l-238 219h132l190 -104l193 104h129zM702 1368l467 -1368h-202l-113 342h-532l-113 -342h-180l467 1368h206zM369 487h438l-219 668z" />
    <glyph glyph-name="uni01CE" unicode="&#x1ce;" horiz-adv-x="962" 
d="M557 1112h-166l-217 256h119l182 -137l180 137h119zM838 254q0 -94 16 -254h-174q-5 38 -14 168q-93 -188 -308 -188q-129 0 -208.5 71t-79.5 199q0 69 24 122.5t68 89t96 58.5t119 39q117 27 278 51v58q0 102 -52 147t-148 45q-78 0 -134 -44.5t-59 -125.5h-147
q3 137 102.5 220t247.5 83q173 0 273 -88.5t100 -255.5v-395zM655 391v111q-133 -24 -217 -47q-97 -26 -139.5 -72.5t-42.5 -122.5q0 -74 40.5 -114t109.5 -40q107 0 178 78.5t71 206.5z" />
    <glyph glyph-name="uni01CF" unicode="&#x1cf;" horiz-adv-x="503" 
d="M336 1507h-166l-180 219h119l143 -116l143 116h119zM156 0v1368h190v-1368h-190z" />
    <glyph glyph-name="uni01D0" unicode="&#x1d0;" horiz-adv-x="446" 
d="M307 1112h-166l-168 256h117l135 -139l133 139h117zM133 0v973h180v-973h-180z" />
    <glyph glyph-name="uni01D1" unicode="&#x1d1;" horiz-adv-x="1361" 
d="M766 1507h-170l-238 219h131l191 -104l192 104h129zM680 1393q125 0 231.5 -45.5t187 -132.5t126 -223t45.5 -308t-45.5 -308t-126 -223t-187 -132.5t-231.5 -45.5q-124 0 -230.5 45.5t-186.5 132.5t-125.5 223.5t-45.5 307.5t45.5 307.5t125.5 223.5t186.5 132.5
t230.5 45.5zM680 131q175 0 282 139.5t107 413.5t-107 413.5t-282 139.5q-173 0 -280 -139.5t-107 -413.5t107 -413.5t280 -139.5z" />
    <glyph glyph-name="uni01D2" unicode="&#x1d2;" horiz-adv-x="1064" 
d="M715 1368h119l-218 -256h-165l-218 256h119l180 -137zM532 -20q-201 0 -326.5 137t-125.5 370q0 232 125.5 369t326.5 137q202 0 327.5 -137t125.5 -369q0 -233 -125.5 -370t-327.5 -137zM532 117q124 0 194.5 95.5t70.5 274.5q0 177 -71 273t-194 96t-193.5 -95.5
t-70.5 -273.5q0 -179 70.5 -274.5t193.5 -95.5z" />
    <glyph glyph-name="uni01D3" unicode="&#x1d3;" horiz-adv-x="1243" 
d="M713 1507h-170l-238 219h131l191 -104l192 104h129zM930 1368h168v-926q0 -224 -127 -345.5t-350 -121.5t-349.5 121.5t-126.5 345.5v926h191v-903q0 -173 74.5 -253.5t222.5 -80.5q145 0 221 79t76 255v903z" />
    <glyph glyph-name="uni01D4" unicode="&#x1d4;" horiz-adv-x="1042" 
d="M698 1368h119l-217 -256h-166l-217 256h119l180 -137zM729 973h180v-973h-172v160q-41 -83 -119.5 -131.5t-185.5 -48.5q-139 0 -223 87t-84 238v668h180v-631q0 -115 44 -170t138 -55q101 0 171.5 74.5t70.5 201.5v580z" />
    <glyph glyph-name="uni01D5" unicode="&#x1d5;" horiz-adv-x="1243" 
d="M334 1827v129h586v-129h-586zM410 1499q-47 0 -78 31t-31 78q0 49 30.5 78.5t78.5 29.5t79 -29.5t31 -78.5q0 -47 -31.5 -78t-78.5 -31zM842 1499q-47 0 -78 31t-31 78q0 49 30.5 78.5t78.5 29.5t79 -29.5t31 -78.5q0 -47 -31.5 -78t-78.5 -31zM621 -25
q-223 0 -349.5 121.5t-126.5 345.5v926h191v-903q0 -173 74.5 -253.5t222.5 -80.5q145 0 221 79t76 255v903h168v-926q0 -224 -127 -345.5t-350 -121.5z" />
    <glyph glyph-name="uni01D6" unicode="&#x1d6;" horiz-adv-x="1042" 
d="M246 1438v127h545v-127h-545zM330 1079q-46 0 -76.5 29.5t-30.5 75.5q0 47 30.5 76.5t76.5 29.5t76 -29.5t30 -76.5q0 -46 -30 -75.5t-76 -29.5zM707 1079q-46 0 -76.5 29.5t-30.5 75.5q0 47 30.5 76.5t76.5 29.5t76 -29.5t30 -76.5q0 -46 -30 -75.5t-76 -29.5zM729 973
h180v-973h-172v160q-41 -83 -119.5 -131.5t-185.5 -48.5q-139 0 -223 87t-84 238v668h180v-631q0 -115 44 -170t138 -55q101 0 171.5 74.5t70.5 201.5v580z" />
    <glyph glyph-name="uni01D7" unicode="&#x1d7;" horiz-adv-x="1243" 
d="M530 1790l172 217h242v-18l-291 -199h-123zM410 1499q-47 0 -78 31t-31 78q0 49 30.5 78.5t78.5 29.5t79 -29.5t31 -78.5q0 -47 -31.5 -78t-78.5 -31zM842 1499q-47 0 -78 31t-31 78q0 49 30.5 78.5t78.5 29.5t79 -29.5t31 -78.5q0 -47 -31.5 -78t-78.5 -31zM621 -25
q-223 0 -349.5 121.5t-126.5 345.5v926h191v-903q0 -173 74.5 -253.5t222.5 -80.5q145 0 221 79t76 255v903h168v-926q0 -224 -127 -345.5t-350 -121.5z" />
    <glyph glyph-name="uni01D8" unicode="&#x1d8;" horiz-adv-x="1042" 
d="M408 1389l188 256h233v-19l-303 -237h-118zM330 1079q-46 0 -76.5 29.5t-30.5 75.5q0 47 30.5 76.5t76.5 29.5t76 -29.5t30 -76.5q0 -46 -30 -75.5t-76 -29.5zM707 1079q-46 0 -76.5 29.5t-30.5 75.5q0 47 30.5 76.5t76.5 29.5t76 -29.5t30 -76.5q0 -46 -30 -75.5
t-76 -29.5zM729 973h180v-973h-172v160q-41 -83 -119.5 -131.5t-185.5 -48.5q-139 0 -223 87t-84 238v668h180v-631q0 -115 44 -170t138 -55q101 0 171.5 74.5t70.5 201.5v580z" />
    <glyph glyph-name="uni01D9" unicode="&#x1d9;" horiz-adv-x="1243" 
d="M709 1790h-164l-226 217h134l174 -113l174 113h135zM410 1499q-47 0 -78 31t-31 78q0 49 30.5 78.5t78.5 29.5t79 -29.5t31 -78.5q0 -47 -31.5 -78t-78.5 -31zM842 1716q48 0 79 -29.5t31 -78.5q0 -47 -31.5 -78t-78.5 -31t-78 31t-31 78q0 49 30.5 78.5t78.5 29.5z
M930 1368h168v-926q0 -224 -127 -345.5t-350 -121.5t-349.5 121.5t-126.5 345.5v926h191v-903q0 -173 74.5 -253.5t222.5 -80.5q145 0 221 79t76 255v903z" />
    <glyph glyph-name="uni01DA" unicode="&#x1da;" horiz-adv-x="1042" 
d="M604 1386h-164l-219 256h121l180 -135l180 135h121zM223 1184q0 47 30.5 76.5t76.5 29.5t76 -29.5t30 -76.5q0 -46 -30 -75.5t-76 -29.5t-76.5 29.5t-30.5 75.5zM600 1184q0 47 30.5 76.5t76.5 29.5t76 -29.5t30 -76.5q0 -46 -30 -75.5t-76 -29.5t-76.5 29.5t-30.5 75.5z
M729 973h180v-973h-172v160q-41 -83 -119.5 -131.5t-185.5 -48.5q-139 0 -223 87t-84 238v668h180v-631q0 -115 44 -170t138 -55q101 0 171.5 74.5t70.5 201.5v580z" />
    <glyph glyph-name="uni01DB" unicode="&#x1db;" horiz-adv-x="1243" 
d="M725 1790h-123l-291 199v18h242zM410 1499q-47 0 -78 31t-31 78q0 49 30.5 78.5t78.5 29.5t79 -29.5t31 -78.5q0 -47 -31.5 -78t-78.5 -31zM842 1499q-47 0 -78 31t-31 78q0 49 30.5 78.5t78.5 29.5t79 -29.5t31 -78.5q0 -47 -31.5 -78t-78.5 -31zM621 -25
q-223 0 -349.5 121.5t-126.5 345.5v926h191v-903q0 -173 74.5 -253.5t222.5 -80.5q145 0 221 79t76 255v903h168v-926q0 -224 -127 -345.5t-350 -121.5z" />
    <glyph glyph-name="uni01DC" unicode="&#x1dc;" horiz-adv-x="1042" 
d="M629 1389h-119l-303 237v19h233zM328 1079q-46 0 -76.5 29.5t-30.5 75.5q0 47 30.5 76.5t76.5 29.5t76 -29.5t30 -76.5q0 -46 -30 -75.5t-76 -29.5zM705 1079q-46 0 -75.5 29.5t-29.5 75.5q0 47 29.5 76.5t75.5 29.5q47 0 76.5 -29.5t29.5 -76.5q0 -46 -29.5 -75.5
t-76.5 -29.5zM729 973h180v-973h-172v160q-41 -83 -119.5 -131.5t-185.5 -48.5q-139 0 -223 87t-84 238v668h180v-631q0 -115 44 -170t138 -55q101 0 171.5 74.5t70.5 201.5v580z" />
    <glyph glyph-name="uni01F1" unicode="&#x1f1;" horiz-adv-x="2293" 
d="M563 1368q141 0 257.5 -41.5t204 -123.5t136.5 -214.5t49 -304.5t-49 -304.5t-136.5 -214.5t-204 -123.5t-257.5 -41.5h-407v1368h407zM1546 145h684v-145h-907v135l684 1088h-655v145h876v-135zM545 147q216 0 340.5 132t124.5 405t-124.5 405t-340.5 132h-199v-1074
h199z" />
    <glyph glyph-name="uni01F2" unicode="&#x1f2;" horiz-adv-x="2150" 
d="M563 1368q141 0 257.5 -41.5t204 -123.5t136.5 -214.5t49 -304.5t-49 -304.5t-136.5 -214.5t-204 -123.5t-257.5 -41.5h-407v1368h407zM545 147q216 0 340.5 132t124.5 405t-124.5 405t-340.5 132h-199v-1074h199zM1581 131h504v-131h-723v115l502 727h-480v131h699v-115
z" />
    <glyph glyph-name="uni01F3" unicode="&#x1f3;" horiz-adv-x="1937" 
d="M774 819v549h180v-1368h-172v168q-45 -92 -122 -140t-175 -48q-82 0 -154 32.5t-128 94.5t-88.5 160t-32.5 220q0 238 116.5 372t286.5 134q93 0 167.5 -44.5t121.5 -129.5zM1366 131h504v-131h-723v115l502 727h-480v131h699v-115zM522 117q117 0 185.5 97.5t68.5 270.5
q0 176 -68 273.5t-186 97.5t-186 -97t-68 -272q0 -177 68 -273.5t186 -96.5z" />
    <glyph glyph-name="uni0218" unicode="&#x218;" horiz-adv-x="1097" 
d="M158 319q153 -190 383 -190q130 0 207 55.5t77 155.5q0 49 -18.5 87.5t-57 68t-74 48t-93.5 42.5l-168 65q-140 57 -222.5 151.5t-82.5 229.5q0 154 119 257.5t309 103.5q275 0 448 -207l-104 -107q-134 160 -332 160q-114 0 -178 -56t-64 -139q0 -79 52 -130t155 -95
l174 -69q56 -23 100 -45.5t90 -57.5t76.5 -74.5t50 -94.5t19.5 -120q0 -119 -63.5 -207t-171 -132t-242.5 -44q-311 0 -492 238zM483 -399v67q55 4 84 26.5t29 49.5v2q-8 -2 -21 -2q-44 0 -72 22t-28 60q0 41 28 63.5t75 22.5q52 0 82 -33t30 -86q0 -84 -52 -133.5
t-155 -58.5z" />
    <glyph glyph-name="uni0219" unicode="&#x219;" horiz-adv-x="888" 
d="M156 268q116 -151 282 -151q92 0 147.5 35.5t55.5 97.5q0 33 -11.5 56.5t-40.5 42t-55.5 29.5t-80.5 30l-119 41q-114 39 -177 102.5t-63 169.5q0 122 91.5 197t248.5 75q228 0 359 -162l-97 -94q-98 119 -254 119q-84 0 -128 -34.5t-44 -84.5t36 -80.5t108 -54.5
l118 -41q49 -17 83.5 -31t76 -39.5t67 -54.5t43 -72t17.5 -96q0 -131 -101.5 -209.5t-271.5 -78.5q-122 0 -223 51t-168 149zM367 -399v65q53 6 80.5 29t27.5 49v4q-8 -2 -20 -2q-42 0 -70.5 22.5t-28.5 59.5q0 38 28 61t73 23q51 0 79.5 -32.5t28.5 -86.5q0 -174 -198 -192
z" />
    <glyph glyph-name="uni021A" unicode="&#x21a;" horiz-adv-x="1062" 
d="M1014 1368v-147h-387v-1221h-191v1221h-387v147h965zM530 -88q52 0 82.5 -33t30.5 -86q0 -84 -52 -133.5t-155 -58.5v67q55 4 84 26.5t29 49.5v2q-8 -2 -21 -2q-44 0 -72 22t-28 60q0 41 27.5 63.5t74.5 22.5z" />
    <glyph glyph-name="uni021B" unicode="&#x21b;" horiz-adv-x="688" 
d="M504 117q63 0 139 26v-133q-79 -30 -188 -30t-172.5 58t-63.5 179v625h-180v131h180v205l180 65v-270h234v-131h-234v-588q0 -78 26.5 -107.5t78.5 -29.5zM430 -88q51 0 80 -32.5t29 -86.5q0 -174 -199 -192v65q53 6 81 29t28 49v4q-8 -2 -21 -2q-42 0 -70 22.5t-28 59.5
q0 38 27.5 61t72.5 23z" />
    <glyph glyph-name="uni0232" unicode="&#x232;" horiz-adv-x="1181" 
d="M303 1534v133h588v-133h-588zM1159 1368l-473 -737v-631h-190v631l-473 737h217l362 -586l365 586h192z" />
    <glyph glyph-name="uni0233" unicode="&#x233;" horiz-adv-x="952" 
d="M209 1165v127h547v-127h-547zM756 973h166l-412 -1086q-54 -144 -124.5 -202t-180.5 -58q-58 0 -131 15v137q84 -15 108 -15q61 0 102.5 38t73.5 139l37 108l-364 924h198l267 -733z" />
    <glyph glyph-name="uni0237" unicode="&#x237;" horiz-adv-x="462" 
d="M55 -373q-74 0 -151 17v139q82 -19 114 -19q66 0 99 36.5t33 131.5v1041h180v-1065q0 -281 -275 -281z" />
    <glyph glyph-name="uni0259" unicode="&#x259;" horiz-adv-x="1015" 
d="M80 457q0 38 2 61h670q-7 164 -79.5 251t-201.5 87q-86 0 -150 -36.5t-118 -110.5l-105 84q142 200 383 200q204 0 329.5 -136t125.5 -370t-121.5 -370.5t-318.5 -136.5q-188 0 -302 130t-114 347zM496 117q104 0 169.5 72.5t82.5 209.5h-488q10 -137 71.5 -209.5
t164.5 -72.5z" />
    <glyph glyph-name="uni02BB" unicode="&#x2bb;" horiz-adv-x="419" 
d="M215 1159q50 0 81.5 -31.5t31.5 -80.5q0 -47 -32 -78t-81 -31q-60 0 -94.5 46t-34.5 118q0 121 61.5 203t174.5 88v-78q-58 -4 -95.5 -51.5t-40.5 -106.5q10 2 29 2z" />
    <glyph glyph-name="uni02BC" unicode="&#x2bc;" horiz-adv-x="419" 
d="M211 1393q60 0 94.5 -46.5t34.5 -117.5q0 -121 -61.5 -203t-174.5 -88v78q57 4 95 51.5t41 106.5q-15 -3 -29 -3q-49 0 -81 31.5t-32 79.5q0 49 31.5 80t81.5 31z" />
    <glyph glyph-name="circumflex" unicode="&#x2c6;" horiz-adv-x="696" 
d="M528 1112l-180 137l-180 -137h-121l219 256h164l219 -256h-121z" />
    <glyph glyph-name="caron" unicode="&#x2c7;" horiz-adv-x="696" 
d="M528 1368h121l-219 -256h-164l-219 256h121l180 -137z" />
    <glyph glyph-name="breve" unicode="&#x2d8;" horiz-adv-x="696" 
d="M348 1102q-121 0 -197 68.5t-88 197.5h99q35 -141 186 -141q152 0 187 141h98q-12 -129 -88 -197.5t-197 -68.5z" />
    <glyph glyph-name="dotaccent" unicode="&#x2d9;" horiz-adv-x="696" 
d="M348 1141q-51 0 -83 31t-32 81t32 81.5t83 31.5t83 -31.5t32 -81.5t-32 -81t-83 -31z" />
    <glyph glyph-name="ring" unicode="&#x2da;" horiz-adv-x="696" 
d="M346 1102q-98 0 -161.5 58t-63.5 145q0 89 63 147.5t162 58.5q100 0 163.5 -58.5t63.5 -147.5q0 -87 -64 -145t-163 -58zM346 1202q47 0 78 30t31 73q0 46 -29.5 76t-79.5 30q-48 0 -77 -31t-29 -75q0 -42 30 -72.5t76 -30.5z" />
    <glyph glyph-name="ogonek" unicode="&#x2db;" horiz-adv-x="696" 
d="M336 -373q-89 0 -146 47t-57 121q0 57 31.5 106.5t101.5 100.5l35 27l148 8q-158 -114 -158 -201q0 -39 21.5 -61.5t56.5 -22.5t60 15t52 45l80 -76q-41 -54 -93.5 -81.5t-131.5 -27.5z" />
    <glyph glyph-name="tilde" unicode="&#x2dc;" horiz-adv-x="696" 
d="M461 1120q-45 0 -78.5 17.5t-71.5 52.5q-48 41 -82 41q-63 0 -75 -101h-97q3 67 21.5 115.5t46.5 71.5t55 33t56 10q32 0 60.5 -10.5t44.5 -22t38 -31.5q52 -45 86 -45q29 0 49.5 21t28.5 80h96q-3 -67 -21 -115.5t-46 -72.5t-55 -34t-56 -10z" />
    <glyph glyph-name="hungarumlaut" unicode="&#x2dd;" horiz-adv-x="696" 
d="M0 1112l150 256h198v-14l-239 -242h-109zM324 1112l186 256h201v-14l-275 -242h-112z" />
    <glyph glyph-name="gravecomb" unicode="&#x300;" horiz-adv-x="0" 
d="M-401 1112h-119l-303 240v16h233z" />
    <glyph glyph-name="acutecomb" unicode="&#x301;" horiz-adv-x="0" 
d="M-823 1112l186 256h236v-16l-306 -240h-116z" />
    <glyph glyph-name="uni0302" unicode="&#x302;" horiz-adv-x="0" 
d="M-502 1112l-182 137l-180 -137h-119l217 256h166l217 -256h-119z" />
    <glyph glyph-name="tildecomb" unicode="&#x303;" horiz-adv-x="0" 
d="M-569 1120q-45 0 -78.5 17.5t-71.5 52.5q-44 41 -80 41q-66 0 -78 -101h-96q3 67 21 115.5t46 71.5t55 33t56 10q33 0 61.5 -10.5t44 -22t38.5 -31.5q52 -45 88 -45q29 0 48.5 21t29.5 80h94q-3 -67 -21 -115.5t-45.5 -72.5t-54.5 -34t-57 -10z" />
    <glyph glyph-name="uni0304" unicode="&#x304;" horiz-adv-x="0" 
d="M-942 1165v127h547v-127h-547z" />
    <glyph glyph-name="uni0306" unicode="&#x306;" horiz-adv-x="0" 
d="M-686 1102q-120 0 -196.5 68.5t-88.5 197.5h99q38 -141 186 -141q151 0 186 141h101q-13 -129 -89.5 -197.5t-197.5 -68.5z" />
    <glyph glyph-name="uni0307" unicode="&#x307;" horiz-adv-x="0" 
d="M-215 1141q-51 0 -83 31t-32 81t32 81.5t83 31.5q49 0 81 -32t32 -81t-31.5 -80.5t-81.5 -31.5z" />
    <glyph glyph-name="uni0308" unicode="&#x308;" horiz-adv-x="0" 
d="M-1026 1130q-47 0 -77 29.5t-30 75.5q0 47 30 76.5t77 29.5q46 0 75 -29.5t29 -76.5q0 -46 -29 -75.5t-75 -29.5zM-649 1130q-46 0 -76.5 29.5t-30.5 75.5q0 47 30.5 76.5t76.5 29.5t76 -29.5t30 -76.5q0 -46 -30 -75.5t-76 -29.5z" />
    <glyph glyph-name="uni030A" unicode="&#x30a;" horiz-adv-x="0" 
d="M-696 1102q-98 0 -162 58t-64 145q0 88 63.5 147t162.5 59q100 0 163.5 -58.5t63.5 -147.5q0 -87 -64 -145t-163 -58zM-696 1202q47 0 77.5 30t30.5 73q0 46 -29 76t-79 30q-48 0 -76.5 -30.5t-28.5 -75.5q0 -42 29.5 -72.5t75.5 -30.5z" />
    <glyph glyph-name="uni030B" unicode="&#x30b;" horiz-adv-x="0" 
d="M-995 1112l149 256h199v-14l-240 -242h-108zM-670 1112l185 256h200v-14l-274 -242h-111z" />
    <glyph glyph-name="uni030C" unicode="&#x30c;" horiz-adv-x="0" 
d="M-481 1368h119l-218 -256h-165l-218 256h119l180 -137z" />
    <glyph glyph-name="uni0312" unicode="&#x312;" horiz-adv-x="0" 
d="M-520 1401v-66q-54 -4 -82.5 -27.5t-28.5 -50.5v-2q8 2 23 2q41 0 68.5 -22.5t27.5 -58.5q0 -39 -27.5 -62.5t-72.5 -23.5q-52 0 -80.5 32t-28.5 86q0 175 201 193z" />
    <glyph glyph-name="uni0326" unicode="&#x326;" horiz-adv-x="0" 
d="M-705 -399v65q53 6 81 29t28 49v4q-8 -2 -20 -2q-42 0 -70.5 22.5t-28.5 59.5q0 38 28 61t73 23q51 0 79.5 -32.5t28.5 -86.5q0 -174 -199 -192z" />
    <glyph glyph-name="uni0327" unicode="&#x327;" horiz-adv-x="0" 
d="M-561 -90q74 0 120 -36.5t46 -96.5q0 -70 -59.5 -110t-155.5 -40q-98 0 -170 51l39 80q56 -39 114 -39q41 0 64.5 16t23.5 44q0 59 -75 59q-39 0 -72 -22l-41 24l123 209h92l-90 -143q24 4 41 4z" />
    <glyph glyph-name="uni0328" unicode="&#x328;" horiz-adv-x="0" 
d="M-752 -373q-89 0 -145.5 47t-56.5 121q0 57 31.5 106.5t101.5 100.5l35 27l147 8q-158 -114 -158 -201q0 -39 21.5 -61.5t56.5 -22.5q60 0 113 60l80 -76q-41 -54 -94 -81.5t-132 -27.5z" />
    <glyph glyph-name="uni0394" unicode="&#x394;" horiz-adv-x="1224" 
d="M717 1368l461 -1239v-129h-1131v129l463 1239h207zM602 1165l-377 -1020h752z" />
    <glyph glyph-name="uni03A9" unicode="&#x3a9;" horiz-adv-x="1382" 
d="M985 141h303v-141h-475v141q116 99 187 246.5t71 337.5q0 254 -107 383t-274 129t-274 -129t-107 -383q0 -190 71 -337.5t187 -246.5v-141h-471v141h297q-123 98 -202.5 259.5t-79.5 351.5q0 153 45 276t123.5 202t183.5 121t227 42t227.5 -42t184 -121t123.5 -202
t45 -276q0 -189 -80.5 -350.5t-204.5 -260.5z" />
    <glyph glyph-name="uni03BC" unicode="&#x3bc;" horiz-adv-x="1083" 
d="M991 127q15 0 35 4v-131q-44 -14 -96 -14q-76 0 -120 36.5t-54 127.5q-78 -168 -258 -168q-122 0 -185 84v-424h-180v1331h180v-621q0 -119 56 -177t139 -58q99 0 164 82.5t65 212.5v561h183v-709q0 -85 16 -111t55 -26z" />
    <glyph glyph-name="pi" unicode="&#x3c0;" horiz-adv-x="1073" 
d="M1008 842h-172v-596q0 -70 16 -93.5t63 -23.5q53 0 80 10v-127q-62 -20 -129 -20q-109 0 -154.5 49t-45.5 176v625h-275l-76 -842h-172l80 842h-166v131h951v-131z" />
    <glyph glyph-name="uni0E3F" unicode="&#xe3f;" 
d="M1001 381q0 -123 -54 -208.5t-141.5 -126.5t-201.5 -46v-180h-135v180h-328v1368h328v166h135v-168q167 -9 258.5 -99t91.5 -249q0 -225 -213 -297q123 -33 191.5 -119t68.5 -221zM469 1229h-147v-457h147v457zM770 995q0 107 -40.5 163.5t-125.5 68.5v-449
q166 32 166 217zM322 139h147v498h-147v-498zM604 141q207 25 207 248q0 218 -207 244v-492z" />
    <glyph glyph-name="Wgrave" unicode="&#x1e80;" horiz-adv-x="1839" 
d="M1049 1507h-123l-305 203v16h249zM1614 1368h184l-358 -1368h-223l-304 1098l-297 -1098h-217l-360 1368h205l282 -1137l301 1137h197l317 -1141z" />
    <glyph glyph-name="wgrave" unicode="&#x1e81;" horiz-adv-x="1437" 
d="M852 1112h-119l-303 240v16h234zM1239 973h160l-281 -973h-190l-207 723l-209 -723h-195l-278 973h197l194 -768l213 768h178l217 -762z" />
    <glyph glyph-name="Wacute" unicode="&#x1e82;" horiz-adv-x="1839" 
d="M1233 1710l-307 -203h-121l178 219h250v-16zM1614 1368h184l-358 -1368h-223l-304 1098l-297 -1098h-217l-360 1368h205l282 -1132l301 1132h197l317 -1143z" />
    <glyph glyph-name="wacute" unicode="&#x1e83;" horiz-adv-x="1437" 
d="M1036 1352l-305 -240h-117l187 256h235v-16zM1239 973h160l-281 -973h-190l-207 723l-209 -723h-195l-278 973h197l196 -768l211 768h178l217 -760z" />
    <glyph glyph-name="Wdieresis" unicode="&#x1e84;" horiz-adv-x="1839" 
d="M711 1503q-47 0 -78 31t-31 78t31 77.5t78 30.5t78.5 -30.5t31.5 -77.5t-31.5 -78t-78.5 -31zM1143 1503q-47 0 -78 31t-31 78t31 77.5t78 30.5t78.5 -30.5t31.5 -77.5t-31.5 -78t-78.5 -31zM1614 1368h184l-358 -1368h-223l-304 1098l-297 -1098h-217l-360 1368h205
l282 -1137l301 1137h197l317 -1141z" />
    <glyph glyph-name="wdieresis" unicode="&#x1e85;" horiz-adv-x="1437" 
d="M545 1130q-47 0 -77 29.5t-30 75.5q0 47 30 76.5t77 29.5q46 0 75 -29.5t29 -76.5q0 -46 -29 -75.5t-75 -29.5zM922 1130q-46 0 -76.5 29.5t-30.5 75.5q0 47 30.5 76.5t76.5 29.5t76 -29.5t30 -76.5q0 -46 -30 -75.5t-76 -29.5zM1239 973h160l-281 -973h-190l-207 723
l-209 -723h-195l-278 973h197l194 -768l213 768h178l217 -762z" />
    <glyph glyph-name="uni1E9E" unicode="&#x1e9e;" horiz-adv-x="1220" 
d="M885 737q55 -32 97 -64t82.5 -78t62.5 -107t22 -132q0 -166 -115.5 -273.5t-302.5 -107.5q-140 0 -270 86l59 132q100 -70 197 -70q111 0 172 62t61 157q0 86 -53.5 149.5t-161.5 122.5l-143 80v92l278 373q-119 80 -245 80q-81 0 -138.5 -28t-90 -81.5t-46.5 -120
t-14 -153.5v-856h-191v879q0 243 116.5 378.5t363.5 135.5q268 0 475 -179l-314 -419z" />
    <glyph glyph-name="uni1EBC" unicode="&#x1ebc;" horiz-adv-x="1058" 
d="M682 1493q-49 0 -84 17.5t-74 50.5q-53 43 -94 43q-71 0 -88 -99h-98q3 68 22.5 117t50 73t59.5 34t60 10q35 0 67 -11.5t48 -22.5t41 -32q59 -45 96 -45q32 0 54.5 21.5t33.5 79.5h101q-3 -69 -23 -118.5t-50.5 -73.5t-60 -34t-61.5 -10zM346 147h617v-147h-807v1368
h794v-147h-604v-445h569v-143h-569v-486z" />
    <glyph glyph-name="uni1EBD" unicode="&#x1ebd;" horiz-adv-x="1015" 
d="M633 1120q-45 0 -78.5 17.5t-71.5 52.5q-44 41 -80 41q-65 0 -77 -101h-97q3 67 21.5 115.5t46.5 71.5t55 33t56 10q33 0 61.5 -11t43.5 -21.5t38 -31.5q52 -45 88 -45q29 0 48.5 21t29.5 80h94q-3 -67 -21 -115.5t-45.5 -72.5t-54.5 -34t-57 -10zM936 516q0 -38 -2 -61
h-670q7 -164 79.5 -251t201.5 -87q86 0 150 36.5t118 110.5l105 -84q-142 -200 -383 -200q-204 0 -329.5 135.5t-125.5 369.5t121.5 371t318.5 137q188 0 302 -130t114 -347zM520 856q-103 0 -169 -73t-83 -210h488q-10 137 -71.5 210t-164.5 73z" />
    <glyph glyph-name="Ygrave" unicode="&#x1ef2;" horiz-adv-x="1181" 
d="M721 1507h-123l-305 203v16h250zM1159 1368l-473 -737v-631h-190v631l-473 737h217l362 -586l365 586h192z" />
    <glyph glyph-name="ygrave" unicode="&#x1ef3;" horiz-adv-x="952" 
d="M602 1112h-119l-303 240v16h234zM756 973h166l-412 -1086q-54 -144 -124.5 -202t-180.5 -58q-58 0 -131 15v137q84 -15 108 -15q61 0 102.5 38t73.5 139l37 108l-364 924h198l267 -733z" />
    <glyph glyph-name="uni1EF8" unicode="&#x1ef8;" horiz-adv-x="1181" 
d="M719 1493q-49 0 -84 17.5t-74 50.5q-53 43 -94 43q-71 0 -88 -99h-98q3 68 22.5 117t50 73t59.5 34t60 10q35 0 67 -11.5t48 -22.5t41 -32q59 -45 96 -45q32 0 54.5 21.5t33.5 79.5h100q-2 -56 -16 -99t-34 -68.5t-46 -41.5t-49.5 -21.5t-48.5 -5.5zM1159 1368l-473 -737
v-631h-190v631l-473 737h217l362 -586l365 586h192z" />
    <glyph glyph-name="uni1EF9" unicode="&#x1ef9;" horiz-adv-x="952" 
d="M594 1120q-45 0 -78.5 17.5t-71.5 52.5q-44 41 -79 41q-66 0 -78 -101h-97q3 67 21.5 115.5t46.5 71.5t55 33t56 10q33 0 61.5 -11t43.5 -21.5t38 -31.5q52 -45 88 -45q29 0 48.5 21t29.5 80h94q-3 -67 -21 -115.5t-45.5 -72.5t-54.5 -34t-57 -10zM756 973h166
l-412 -1086q-54 -144 -124.5 -202t-180.5 -58q-58 0 -131 15v137q84 -15 108 -15q61 0 102.5 38t73.5 139l37 108l-364 924h198l267 -733z" />
    <glyph glyph-name="uni2007" unicode="&#x2007;" 
 />
    <glyph glyph-name="uni2008" unicode="&#x2008;" horiz-adv-x="428" 
 />
    <glyph glyph-name="uni2009" unicode="&#x2009;" horiz-adv-x="256" 
 />
    <glyph glyph-name="uni200B" unicode="&#x200b;" horiz-adv-x="0" 
 />
    <glyph glyph-name="uni2010" unicode="&#x2010;" horiz-adv-x="720" 
d="M119 502v139h483v-139h-483z" />
    <glyph glyph-name="uni2011" unicode="&#x2011;" horiz-adv-x="720" 
d="M119 502v139h483v-139h-483z" />
    <glyph glyph-name="figuredash" unicode="&#x2012;" 
d="M94 506v131h922v-131h-922z" />
    <glyph glyph-name="endash" unicode="&#x2013;" horiz-adv-x="944" 
d="M119 506v131h706v-131h-706z" />
    <glyph glyph-name="emdash" unicode="&#x2014;" horiz-adv-x="1640" 
d="M119 506v131h1403v-131h-1403z" />
    <glyph glyph-name="quoteleft" unicode="&#x2018;" horiz-adv-x="419" 
d="M215 1159q50 0 81.5 -31.5t31.5 -80.5q0 -47 -32 -78t-81 -31q-60 0 -94.5 46t-34.5 118q0 121 61.5 203t174.5 88v-78q-58 -4 -95.5 -51.5t-40.5 -106.5q10 2 29 2z" />
    <glyph glyph-name="quoteright" unicode="&#x2019;" horiz-adv-x="419" 
d="M211 1393q60 0 94.5 -46.5t34.5 -117.5q0 -121 -61.5 -203t-174.5 -88v78q57 4 95 51.5t41 106.5q-15 -3 -29 -3q-49 0 -81 31.5t-32 79.5q0 49 31.5 80t81.5 31z" />
    <glyph glyph-name="quotesinglbase" unicode="&#x201a;" horiz-adv-x="419" 
d="M205 199q61 0 95 -45.5t34 -118.5q0 -122 -61 -203.5t-175 -87.5v80q59 4 97 50.5t41 105.5q-15 -3 -31 -3q-49 0 -81 31.5t-32 81.5q0 49 31.5 79t81.5 30z" />
    <glyph glyph-name="quotedblleft" unicode="&#x201c;" horiz-adv-x="745" 
d="M211 1159q50 0 81.5 -31.5t31.5 -80.5t-31.5 -79t-81.5 -30q-61 0 -95 45.5t-34 118.5q0 121 61.5 203t173.5 88v-80q-57 -4 -94.5 -50.5t-40.5 -105.5q10 2 29 2zM543 1159q49 0 80.5 -31.5t31.5 -80.5t-31 -79t-81 -30q-60 0 -94.5 46t-34.5 118q0 121 61.5 203
t173.5 88v-80q-56 -4 -94 -51t-41 -105q5 0 14.5 1t14.5 1z" />
    <glyph glyph-name="quotedblright" unicode="&#x201d;" horiz-adv-x="745" 
d="M211 1393q60 0 94.5 -46.5t34.5 -117.5q0 -121 -61.5 -203t-174.5 -88v78q57 4 95 51.5t41 106.5q-15 -3 -29 -3q-49 0 -81 31.5t-32 79.5q0 49 31.5 80t81.5 31zM543 1393q60 0 94.5 -46.5t34.5 -117.5q0 -121 -61.5 -203t-174.5 -88v78q58 4 95 51t40 107
q-15 -3 -28 -3q-49 0 -81 31.5t-32 79.5q0 49 31.5 80t81.5 31z" />
    <glyph glyph-name="quotedblbase" unicode="&#x201e;" horiz-adv-x="747" 
d="M203 199q60 0 94.5 -46t34.5 -118q0 -121 -61.5 -203t-174.5 -88v80q57 4 94.5 50.5t40.5 105.5q-15 -3 -28 -3q-49 0 -81 31.5t-32 81.5q0 49 31.5 79t81.5 30zM535 199q61 0 95 -45.5t34 -118.5q0 -122 -61 -203.5t-175 -87.5v80q59 4 95.5 50.5t39.5 105.5
q-12 -3 -28 -3q-49 0 -81 31.5t-32 81.5q0 49 31.5 79t81.5 30z" />
    <glyph glyph-name="dagger" unicode="&#x2020;" horiz-adv-x="862" 
d="M815 934v-131h-303v-1008h-160v1008h-305v131h305v434h160v-434h303z" />
    <glyph glyph-name="daggerdbl" unicode="&#x2021;" horiz-adv-x="921" 
d="M846 803h-305v-416h305v-129h-305v-463h-160v463h-305v129h305v416h-305v131h305v434h160v-434h305v-131z" />
    <glyph glyph-name="bullet" unicode="&#x2022;" horiz-adv-x="876" 
d="M442 885q132 0 219 -89.5t87 -224.5q0 -136 -88 -225.5t-222 -89.5q-135 0 -223 89t-88 224q0 137 89.5 226.5t225.5 89.5z" />
    <glyph glyph-name="ellipsis" unicode="&#x2026;" horiz-adv-x="1218" 
d="M213 -20q-54 0 -89.5 34.5t-35.5 89.5t35.5 90t89.5 35q55 0 90 -34.5t35 -90.5q0 -55 -34.5 -89.5t-90.5 -34.5zM608 -20q-54 0 -88.5 34.5t-34.5 89.5t34.5 90t88.5 35q56 0 91.5 -35t35.5 -90t-35.5 -89.5t-91.5 -34.5zM1006 -20q-56 0 -90.5 34.5t-34.5 89.5
q0 56 34.5 90.5t90.5 34.5q54 0 89 -35t35 -90t-35 -89.5t-89 -34.5z" />
    <glyph glyph-name="perthousand" unicode="&#x2030;" horiz-adv-x="2349" 
d="M299 0l838 1368h161l-841 -1368h-158zM385 639q-147 0 -237.5 102.5t-90.5 274.5t90.5 274.5t237.5 102.5t236.5 -102.5t89.5 -274.5t-89.5 -274.5t-236.5 -102.5zM385 754q83 0 127.5 68t44.5 194t-44.5 194t-127.5 68t-128.5 -68t-45.5 -194t45.5 -194t128.5 -68z
M1210 -23q-147 0 -236 102.5t-89 274.5t89 274.5t236 102.5t237.5 -102.5t90.5 -274.5t-90.5 -274.5t-237.5 -102.5zM1210 92q83 0 128.5 68t45.5 194t-45.5 194t-128.5 68t-127.5 -68t-44.5 -194t44.5 -194t127.5 -68zM1964 -23q-147 0 -236.5 102.5t-89.5 274.5
t89.5 274.5t236.5 102.5t237.5 -102.5t90.5 -274.5t-90.5 -274.5t-237.5 -102.5zM1964 92q83 0 128.5 68t45.5 194t-45.5 194t-128.5 68q-82 0 -127 -68t-45 -194t45 -194t127 -68z" />
    <glyph glyph-name="minute" unicode="&#x2032;" horiz-adv-x="385" 
d="M90 958l62 410h172v-16l-117 -394h-117z" />
    <glyph glyph-name="second" unicode="&#x2033;" horiz-adv-x="673" 
d="M90 958l62 410h167v-16l-114 -394h-115zM385 958l61 410h168v-16l-114 -394h-115z" />
    <glyph glyph-name="uni2034" unicode="&#x2034;" horiz-adv-x="970" 
d="M90 958l62 410h167v-16l-114 -394h-115zM385 958l61 410h168v-16l-114 -394h-115zM680 958l61 410h168v-16l-114 -394h-115z" />
    <glyph glyph-name="guilsinglleft" unicode="&#x2039;" horiz-adv-x="536" 
d="M442 139h-137l-242 383l242 371h137l-178 -371z" />
    <glyph glyph-name="guilsinglright" unicode="&#x203a;" horiz-adv-x="536" 
d="M94 139l178 383l-178 371h137l240 -371l-240 -383h-137z" />
    <glyph glyph-name="fraction" unicode="&#x2044;" horiz-adv-x="256" 
d="M-375 0l838 1368h162l-842 -1368h-158z" />
    <glyph glyph-name="uni2060" unicode="&#x2060;" horiz-adv-x="421" 
 />
    <glyph glyph-name="uni2070" unicode="&#x2070;" horiz-adv-x="772" 
d="M387 561q-137 0 -223 107.5t-86 304.5t85.5 303t223.5 106q136 0 221.5 -106t85.5 -303q0 -198 -85 -305t-222 -107zM387 674q152 0 152 299q0 150 -40 223.5t-112 73.5t-114 -73t-42 -224q0 -152 42 -225.5t114 -73.5z" />
    <glyph glyph-name="uni2074" unicode="&#x2074;" horiz-adv-x="735" 
d="M678 844v-111h-121v-158h-143v158h-363v107l344 528h162v-524h121zM422 1235l-254 -391h254v391z" />
    <glyph glyph-name="uni2075" unicode="&#x2075;" horiz-adv-x="692" 
d="M367 1096q107 0 178 -70t71 -192q0 -85 -43 -149t-106.5 -94t-134.5 -30q-111 0 -180 49.5t-95 137.5l111 38q42 -112 156 -112q60 0 100.5 41.5t40.5 115.5q0 72 -38.5 112t-102.5 40q-92 0 -140 -68l-104 17l67 436h437v-117h-332l-35 -217q59 62 150 62z" />
    <glyph glyph-name="uni2076" unicode="&#x2076;" horiz-adv-x="729" 
d="M412 1094q100 0 170.5 -71t70.5 -187q0 -124 -81.5 -199.5t-196.5 -75.5q-63 0 -114 19.5t-94 63t-67 121.5t-24 185q0 209 89 320.5t228 111.5q86 0 150.5 -41.5t93.5 -107.5l-94 -55q-52 92 -140 92q-166 0 -178 -283q24 44 73.5 75.5t113.5 31.5zM371 674
q60 0 98.5 41.5t38.5 111.5t-38 112t-99 42q-60 0 -99 -42t-39 -112t39 -111.5t99 -41.5z" />
    <glyph glyph-name="uni2077" unicode="&#x2077;" horiz-adv-x="622" 
d="M47 1368h528v-115q-247 -244 -253 -678h-156q3 373 287 676h-406v117z" />
    <glyph glyph-name="uni2078" unicode="&#x2078;" horiz-adv-x="745" 
d="M508 989q74 -38 119 -84t45 -114q0 -101 -82 -165.5t-217 -64.5q-134 0 -216.5 56t-82.5 155q0 130 166 207q-138 71 -138 186q0 95 77 156t194 61q115 0 191.5 -57t76.5 -149q0 -117 -133 -187zM379 1276q-55 0 -92 -28.5t-37 -71.5q0 -47 35.5 -77t99.5 -57l18 -8
q101 51 101 137q0 48 -35.5 76.5t-89.5 28.5zM373 668q67 0 106 31t39 79q0 22 -8.5 40.5t-20 31.5t-37.5 28t-45 24t-59 26l-4 2q-129 -53 -129 -150q0 -52 40.5 -82t117.5 -30z" />
    <glyph glyph-name="uni2079" unicode="&#x2079;" horiz-adv-x="696" 
d="M338 1382q124 0 208.5 -75.5t84.5 -214.5q0 -137 -94.5 -275.5t-249.5 -265.5l-105 63q192 160 260 301q-53 -53 -139 -53q-110 0 -178 68.5t-68 181.5q0 123 81 196.5t200 73.5zM342 975q62 0 100.5 39.5t38.5 105.5q0 65 -39 107.5t-100 42.5q-62 0 -100.5 -43
t-38.5 -113q0 -66 37.5 -102.5t101.5 -36.5z" />
    <glyph glyph-name="uni207A" unicode="&#x207a;" horiz-adv-x="716" 
d="M653 995v-110h-235v-246h-119v246h-238v110h238v246h119v-246h235z" />
    <glyph glyph-name="uni207B" unicode="&#x207b;" horiz-adv-x="792" 
d="M100 885v110h592v-110h-592z" />
    <glyph glyph-name="uni207C" unicode="&#x207c;" horiz-adv-x="790" 
d="M100 1010v110h592v-110h-592zM100 760v110h592v-110h-592z" />
    <glyph glyph-name="uni207D" unicode="&#x207d;" horiz-adv-x="415" 
d="M207 963q0 -291 164 -500l-86 -43q-97 111 -153 241.5t-56 301.5q0 169 55.5 298.5t153.5 241.5l86 -43q-164 -213 -164 -497z" />
    <glyph glyph-name="uni207E" unicode="&#x207e;" horiz-adv-x="415" 
d="M211 963q0 280 -164 497l86 43q97 -112 152 -241.5t55 -298.5q0 -171 -55.5 -301t-151.5 -242l-86 43q164 214 164 500z" />
    <glyph glyph-name="uni2080" unicode="&#x2080;" horiz-adv-x="772" 
d="M387 -322q-137 0 -223 107.5t-86 304.5t86 303.5t223 106.5q136 0 221.5 -106.5t85.5 -303.5q0 -198 -85 -305t-222 -107zM387 -209q152 0 152 299q0 150 -40 223.5t-112 73.5t-114 -73t-42 -224q0 -152 42 -225.5t114 -73.5z" />
    <glyph glyph-name="uni2081" unicode="&#x2081;" horiz-adv-x="544" 
d="M365 -190h133v-117h-420v117h139v471q-62 -29 -139 -29v106q160 9 184 127h103v-675z" />
    <glyph glyph-name="uni2082" unicode="&#x2082;" horiz-adv-x="694" 
d="M236 -190h387v-117h-547v110q222 164 301.5 258.5t79.5 192.5q0 59 -32.5 96t-92.5 37q-59 0 -92.5 -42t-30.5 -109h-129q-3 125 69.5 194.5t192.5 69.5q110 0 187 -65t77 -181q0 -114 -84.5 -209.5t-285.5 -234.5z" />
    <glyph glyph-name="uni2083" unicode="&#x2083;" horiz-adv-x="698" 
d="M467 113q67 -21 113.5 -73t46.5 -126q0 -105 -82.5 -170.5t-204.5 -65.5q-101 0 -176 46t-109 143l111 45q27 -64 67.5 -94.5t102.5 -30.5q63 0 101 35t38 100q0 66 -45.5 97.5t-116.5 31.5h-49v107h58q57 0 92 32.5t35 88.5q0 52 -31 82t-86 30q-88 0 -139 -94l-99 49
q68 154 250 154q107 0 180.5 -57.5t73.5 -151.5q0 -65 -37 -110.5t-94 -67.5z" />
    <glyph glyph-name="uni2084" unicode="&#x2084;" horiz-adv-x="735" 
d="M678 -39v-111h-121v-157h-143v157h-363v107l344 528h162v-524h121zM422 352l-254 -391h254v391z" />
    <glyph glyph-name="uni2085" unicode="&#x2085;" horiz-adv-x="692" 
d="M367 213q107 0 178 -70t71 -192q0 -85 -43 -149t-106.5 -94t-134.5 -30q-111 0 -180 49.5t-95 137.5l111 39q42 -113 156 -113q60 0 100.5 42t40.5 116q0 72 -38.5 111.5t-102.5 39.5q-93 0 -140 -67l-104 16l67 436h437v-116h-332l-35 -217q58 61 150 61z" />
    <glyph glyph-name="uni2086" unicode="&#x2086;" horiz-adv-x="729" 
d="M412 211q100 0 170.5 -71t70.5 -187q0 -124 -81.5 -199.5t-196.5 -75.5q-63 0 -114 20t-94 63t-67 121.5t-24 185.5q0 209 89 320.5t228 111.5q86 0 150.5 -42t93.5 -108l-94 -55q-52 92 -140 92q-166 0 -178 -283q24 44 73.5 75.5t113.5 31.5zM371 -209q60 0 98.5 41.5
t38.5 112.5q0 70 -38 111.5t-99 41.5q-60 0 -99 -41.5t-39 -111.5t39 -112t99 -42z" />
    <glyph glyph-name="uni2087" unicode="&#x2087;" horiz-adv-x="622" 
d="M47 485h528v-114q-247 -244 -253 -678h-156q3 373 287 676h-406v116z" />
    <glyph glyph-name="uni2088" unicode="&#x2088;" horiz-adv-x="745" 
d="M508 106q74 -38 119 -84t45 -114q0 -101 -82 -165.5t-217 -64.5q-134 0 -216.5 56t-82.5 155q0 130 166 207q-138 71 -138 187q0 95 77 156t194 61q115 0 191.5 -57.5t76.5 -149.5q0 -117 -133 -187zM379 393q-55 0 -92 -28.5t-37 -71.5q0 -47 35.5 -76.5t99.5 -56.5
l18 -8q101 51 101 137q0 48 -35.5 76t-89.5 28zM373 -215q67 0 106 31t39 80q0 22 -9 40.5t-20 31t-37.5 28t-44.5 23.5t-59 26l-4 2q-129 -53 -129 -149q0 -52 41 -82.5t117 -30.5z" />
    <glyph glyph-name="uni2089" unicode="&#x2089;" horiz-adv-x="696" 
d="M338 500q123 0 208 -76t85 -215q0 -137 -94.5 -275.5t-249.5 -265.5l-105 64q192 160 260 301q-53 -53 -139 -53q-110 0 -178 68t-68 181q0 123 81 197t200 74zM342 92q62 0 100.5 40t38.5 106q0 65 -39 107t-100 42q-62 0 -100.5 -43t-38.5 -113q0 -66 37.5 -102.5
t101.5 -36.5z" />
    <glyph glyph-name="colonmonetary" unicode="&#x20a1;" 
d="M1030 385q-90 -326 -340 -375l-24 -190h-119l22 180q-74 3 -147 29l-27 -209h-119l35 272q-103 81 -160 230t-57 356q0 286 102 461t281 217l23 178h118l-22 -166q77 0 147 -25l25 191h119l-33 -252q111 -85 162 -268l-135 -51q-20 73 -52 129l-118 -922q132 56 186 266z
M444 197q62 -50 146 -50l135 1045q-59 29 -131 29h-19zM285 682q0 -220 59 -350l111 848q-170 -118 -170 -498z" />
    <glyph glyph-name="uni20A6" unicode="&#x20a6;" 
d="M1081 780h-137v-182h137v-125h-137v-473h-246l-159 473h-211v-473h-160v473h-139v125h139v182h-139v125h139v463h242l155 -463h217v463h162v-463h137v-125zM328 1094v-189h63zM328 598h168l-62 182h-106v-182zM782 598v182h-176l62 -182h114zM782 258v215h-71z" />
    <glyph glyph-name="uni20A9" unicode="&#x20a9;" horiz-adv-x="1591" 
d="M1505 813h-151l-35 -182h186v-125h-209l-94 -506h-207l-88 506h-225l-86 -506h-209l-92 506h-211v125h186l-32 182h-154v125h131l-80 430h187l69 -430h242l74 430h198l76 -430h246l67 430h162l-80 -430h129v-125zM834 938l-39 219l-37 -219h76zM412 813l28 -182h140
l30 182h-198zM705 631h182l-33 182h-119zM1178 631l28 182h-202l32 -182h142zM559 506h-98l47 -295zM1110 211l47 295h-98z" />
    <glyph glyph-name="uni20AA" unicode="&#x20aa;" horiz-adv-x="1517" 
d="M643 973q112 0 180 -14.5t111.5 -54t59.5 -102.5t16 -167v-240h-152v207q0 54 -2 85t-11.5 59.5t-23.5 41.5t-43.5 23.5t-66 13t-95.5 2.5h-299v-827h-172v973h498zM713 0h-195v586h152v-439h61q145 0 238.5 23t155.5 80.5t88 152t26 242.5v328h172v-320
q0 -128 -17.5 -226t-56 -171t-93.5 -122t-135 -78.5t-175.5 -42.5t-220.5 -13z" />
    <glyph glyph-name="dong" unicode="&#x20ab;" 
d="M842 1237h149v-125h-149v-887h-156v111q-80 -127 -225 -127q-144 0 -237 106t-93 285q0 177 92 283t232 106q144 0 223 -112v235h-301v125h301v131h164v-131zM492 328q88 0 138 73t50 199q0 125 -50.5 197.5t-137.5 72.5q-86 0 -138.5 -72.5t-52.5 -197.5
q0 -127 52.5 -199.5t138.5 -72.5zM143 0v125h791v-125h-791z" />
    <glyph glyph-name="Euro" unicode="&#x20ac;" 
d="M932 377l135 -47q-50 -181 -156.5 -268t-257.5 -87q-176 0 -300 128t-163 370h-149v125h135q-2 29 -2 86q0 17 1 49t1 47h-135v125h149q42 238 166.5 363t298.5 125q149 0 251.5 -85t148.5 -257l-135 -45q-65 239 -254 239q-104 0 -177 -86t-102 -254h375v-125h-389
q-2 -31 -2 -96q0 -59 2 -86h389v-125h-377q29 -173 103 -261.5t180 -88.5q197 0 264 254z" />
    <glyph glyph-name="uni20AD" unicode="&#x20ad;" 
d="M866 0l-487 649h-33v-649h-180v649h-123v125h123v594h180v-594h37l451 594h178l-465 -594h411v-125h-374l499 -649h-217z" />
    <glyph glyph-name="uni20AE" unicode="&#x20ae;" 
d="M1024 1223h-377v-308l236 86v-133l-236 -86v-194l236 86v-133l-236 -86v-455h-182v403l-240 -88v134l240 86v196l-240 -88v133l240 88v359h-377v145h936v-145z" />
    <glyph glyph-name="uni20B1" unicode="&#x20b1;" 
d="M1090 1114v-125h-140q2 -18 2 -59q0 -44 -2 -64h140v-125h-166q-45 -125 -150.5 -189.5t-253.5 -64.5h-174v-487h-180v743h-137v123h137v123h-137v125h137v254h354q149 0 255 -64.5t149 -189.5h166zM502 1245h-156v-131h385q-61 131 -229 131zM766 928q0 43 -2 61h-418
v-123h418q2 18 2 62zM502 606q171 0 231 135h-387v-135h156z" />
    <glyph glyph-name="uni20B2" unicode="&#x20b2;" 
d="M1030 690v-534q-157 -138 -373 -154v-182h-135v184q-209 24 -327.5 195t-118.5 485q0 308 117 482t329 198v170h135v-170q261 -27 361 -307l-131 -58q-70 191 -230 220v-1072q120 12 207 78v330h-143v135h309zM268 686q0 -459 254 -530v1058q-121 -30 -187.5 -162.5
t-66.5 -365.5z" />
    <glyph glyph-name="uni20B4" unicode="&#x20b4;" 
d="M567 -23q-186 0 -297.5 91.5t-111.5 253.5q0 83 37 151h-140v125h215q78 71 262 182h-477v125h635q70 70 70 154t-52.5 136t-148.5 52q-165 0 -295 -149l-96 96q163 199 403 199q171 0 271 -90.5t100 -237.5q0 -95 -53 -160h162v-125h-238q-37 -25 -126.5 -84t-145.5 -98
h510v-125h-656q-55 -62 -55 -151q0 -90 61 -143.5t179 -53.5q196 0 325 172l96 -96q-157 -224 -434 -224z" />
    <glyph glyph-name="uni20B5" unicode="&#x20b5;" 
d="M1030 385q-100 -350 -377 -381v-184h-135v184q-197 28 -310.5 203t-113.5 471q0 304 114 481.5t310 204.5v170h135v-170q277 -33 361 -350l-133 -51q-32 120 -89.5 180t-138.5 74v-1063q177 29 244 282zM285 682q0 -226 61.5 -358.5t171.5 -165.5v1052
q-109 -33 -171 -166t-62 -362z" />
    <glyph glyph-name="uni20B8" unicode="&#x20b8;" 
d="M88 1368h934v-143h-934v143zM88 899v143h934v-143h-377v-899h-180v899h-377z" />
    <glyph glyph-name="uni20B9" unicode="&#x20b9;" 
d="M1022 1368v-135h-383q72 -28 124.5 -87t70.5 -147h188v-125h-182q-15 -277 -303 -352l364 -522h-217l-332 494q-83 -5 -102 -5h-76v136h74q212 0 304.5 59.5t104.5 189.5h-569v125h565q-42 234 -385 234h-180v135h934z" />
    <glyph glyph-name="uni20BA" unicode="&#x20ba;" 
d="M270 0v473l-192 -72v134l192 71v193l-192 -70v131l192 72v436h179v-391l288 104v-131l-288 -106v-195l288 107v-133l-288 -105v-354q182 6 294.5 99.5t161.5 289.5l148 -51q-59 -247 -220.5 -374.5t-449.5 -127.5h-113z" />
    <glyph glyph-name="uni20BC" unicode="&#x20bc;" horiz-adv-x="1501" 
d="M831 1169q107 -12 196 -54.5t162.5 -121.5t124.5 -191.5t79 -270t28 -351.5v-180h-178v172q0 204 -29 360t-84 257t-129.5 158t-169.5 73v-938h-167v936q-193 -35 -299.5 -242.5t-106.5 -603.5v-172h-178v180q0 195 28 353.5t78.5 270t124 190.5t161 120.5t192.5 54.5
v224h167v-224z" />
    <glyph glyph-name="uni20BD" unicode="&#x20bd;" 
d="M594 575h-203v-182h391v-125h-391v-268h-180v268h-137v125h137v182h-137v136h137v657h383q208 0 333.5 -100.5t125.5 -296.5q0 -197 -124 -296.5t-335 -99.5zM584 1233h-193v-522h187q140 0 213 66t73 194q0 127 -72.5 194.5t-207.5 67.5z" />
    <glyph glyph-name="uni20BF" unicode="&#x20bf;" 
d="M1001 383q0 -148 -74 -238.5t-202 -124.5v-200h-129v180h-35h-119v-180h-129v180h-172v1368h172v166h129v-166h107q33 0 47 -2v168h129v-191q110 -36 169.5 -118.5t59.5 -206.5q0 -229 -221 -297q126 -34 197 -118.5t71 -219.5zM770 997q0 121 -55.5 176.5t-173.5 55.5
h-219v-457h194q120 0 187 56t67 169zM535 139q61 0 108 12t86.5 39t60.5 77.5t21 121.5q0 248 -283 248h-206v-498h213z" />
    <glyph glyph-name="uni2113" unicode="&#x2113;" horiz-adv-x="868" 
d="M725 254l100 -72q-45 -96 -131.5 -150.5t-199.5 -54.5q-66 0 -115 13.5t-90 46.5t-62.5 95t-21.5 151v98q-70 -29 -127 -49l-39 112q126 52 166 72v408q0 247 61 346q74 123 236 123q120 0 194 -84.5t74 -249.5q0 -361 -391 -590v-156q0 -107 31.5 -152.5t105.5 -45.5
q68 0 123 39t86 100zM379 920v-297q130 96 178.5 204t48.5 238q0 190 -100 190q-61 0 -94 -65q-21 -41 -27 -104.5t-6 -165.5z" />
    <glyph glyph-name="uni2116" unicode="&#x2116;" horiz-adv-x="2035" 
d="M1626 629q-147 0 -236.5 102.5t-89.5 276.5q0 172 89.5 273t236.5 101t236.5 -101t89.5 -273q0 -174 -89.5 -276.5t-236.5 -102.5zM979 1368h166v-1368h-221l-600 1100v-1100h-166v1368h223l598 -1100v1100zM1626 739q83 0 129.5 70t46.5 199q0 127 -47 196.5t-129 69.5
t-128 -69.5t-46 -196.5q0 -130 46 -199.5t128 -69.5zM1927 508v-117h-598v117h598z" />
    <glyph glyph-name="uni2117" unicode="&#x2117;" horiz-adv-x="1482" 
d="M743 1389q139 0 259 -49t207 -138.5t136.5 -223t49.5 -294.5q0 -160 -49.5 -293t-136.5 -222t-207 -138t-259 -49q-140 0 -260.5 49t-208 138t-137 222t-49.5 293q0 161 49.5 294.5t137 223t208 138.5t260.5 49zM743 86q240 0 388.5 161.5t148.5 436.5t-149 437.5
t-388 162.5q-241 0 -390.5 -162.5t-149.5 -437.5t149.5 -436.5t390.5 -161.5zM770 1098q140 0 220.5 -63t80.5 -191q0 -124 -81 -189t-220 -65h-119v-320h-143v828h262zM758 705q80 0 118.5 33.5t38.5 105.5t-38.5 105.5t-118.5 33.5h-107v-278h107z" />
    <glyph glyph-name="uni2120" unicode="&#x2120;" horiz-adv-x="1634" 
d="M451 1042q41 -16 70 -32.5t59.5 -42t46.5 -62.5t16 -84q0 -102 -77 -160.5t-199 -58.5q-175 0 -281 139l72 74q86 -106 204 -106q64 0 103 26t39 74q0 24 -10 42.5t-32 33t-39.5 23t-47.5 20.5l-84 33q-174 68 -174 215q0 90 68.5 148t179.5 58q157 0 258 -116l-70 -76
q-80 86 -178 86q-56 0 -87.5 -25.5t-31.5 -64.5t27 -63.5t79 -45.5zM1303 1368h194v-752h-127v623l-188 -623h-121l-189 607v-607h-114v752h198l174 -571z" />
    <glyph glyph-name="trademark" unicode="&#x2122;" horiz-adv-x="1560" 
d="M604 1368v-102h-209v-650h-135v650h-207v102h551zM1227 1368h194v-752h-129v615l-186 -615h-121l-190 619v-619h-113v752h201l172 -569z" />
    <glyph glyph-name="uni2126" unicode="&#x2126;" horiz-adv-x="1382" 
d="M985 141h303v-141h-475v141q116 99 187 246.5t71 337.5q0 254 -107 383t-274 129t-274 -129t-107 -383q0 -190 71 -337.5t187 -246.5v-141h-471v141h297q-123 98 -202.5 259.5t-79.5 351.5q0 153 45 276t123.5 202t183.5 121t227 42t227.5 -42t184 -121t123.5 -202
t45 -276q0 -189 -80.5 -350.5t-204.5 -260.5z" />
    <glyph glyph-name="estimated" unicode="&#x212e;" horiz-adv-x="1339" 
d="M1255 668h-942v-428q62 -87 167.5 -137t234.5 -50q156 0 264 56t195 192l61 -49q-102 -153 -229 -212.5t-291 -59.5q-288 0 -456.5 189t-168.5 511q0 214 77 376t211.5 247.5t307.5 85.5q268 0 419.5 -175.5t151.5 -468.5q0 -46 -2 -77zM686 1317q-118 0 -215 -50
t-158 -139v-387h717v433q-125 143 -344 143z" />
    <glyph glyph-name="uni2153" unicode="&#x2153;" horiz-adv-x="1566" 
d="M498 575h-420v117h139v471q-60 -28 -139 -28v106q160 9 184 127h103v-676h133v-117zM1085 1368h162l-841 -1368h-158zM1335 420q67 -21 113.5 -73t46.5 -126q0 -105 -82 -170t-205 -65q-101 0 -175.5 45.5t-108.5 142.5l110 45q27 -64 67.5 -94.5t102.5 -30.5
q63 0 101 35t38 100q0 66 -45 97.5t-116 31.5h-49v107h57q57 0 92 32.5t35 88.5q0 52 -31 82t-86 30q-88 0 -139 -94l-98 49q68 154 249 154q107 0 180.5 -57.5t73.5 -151.5q0 -65 -37 -110.5t-94 -67.5z" />
    <glyph glyph-name="uni2154" unicode="&#x2154;" horiz-adv-x="1687" 
d="M623 692v-117h-547v111q222 164 301.5 258.5t79.5 192.5q0 59 -32.5 96t-92.5 37q-59 0 -92.5 -42.5t-30.5 -109.5h-129q-3 125 69.5 194.5t192.5 69.5q110 0 187 -64.5t77 -180.5q0 -59 -21.5 -112t-71.5 -107t-113.5 -105.5t-163.5 -120.5h387zM1206 1368h162
l-842 -1368h-157zM1456 420q67 -21 113.5 -73t46.5 -126q0 -105 -82 -170t-205 -65q-101 0 -176 45.5t-109 142.5l111 45q27 -64 67.5 -94.5t102.5 -30.5q63 0 101 35t38 100q0 66 -45 97.5t-116 31.5h-50v107h58q57 0 92 32.5t35 88.5q0 52 -31 82t-86 30q-88 0 -139 -94
l-99 49q68 154 250 154q107 0 180.5 -57.5t73.5 -151.5q0 -65 -37 -110.5t-94 -67.5z" />
    <glyph glyph-name="arrowleft" unicode="&#x2190;" horiz-adv-x="1320" 
d="M1251 705v-138h-950l309 -297l-100 -100l-463 467l463 463l98 -99l-311 -296h954z" />
    <glyph glyph-name="arrowup" unicode="&#x2191;" horiz-adv-x="978" 
d="M936 791l-98 -99l-281 297v-876h-135v876l-281 -297l-98 99l446 444z" />
    <glyph glyph-name="arrowright" unicode="&#x2192;" horiz-adv-x="1320" 
d="M811 1100l463 -463l-465 -467l-98 100l309 297h-950v138h952l-311 296z" />
    <glyph glyph-name="arrowdown" unicode="&#x2193;" horiz-adv-x="1013" 
d="M872 596l101 -98l-467 -463l-465 463l100 98l297 -311v934h137v-932z" />
    <glyph glyph-name="uni2196" unicode="&#x2196;" horiz-adv-x="1085" 
d="M1042 250l-100 -98l-688 694l10 -459h-141v688h682v-141l-455 8z" />
    <glyph glyph-name="uni2197" unicode="&#x2197;" horiz-adv-x="1085" 
d="M281 1075h682v-688h-142l10 461l-690 -696l-98 98l692 692l-454 -8v141z" />
    <glyph glyph-name="uni2198" unicode="&#x2198;" horiz-adv-x="1099" 
d="M825 901h142v-688h-684v141l454 -10l-690 694l98 97l689 -693z" />
    <glyph glyph-name="uni2199" unicode="&#x2199;" horiz-adv-x="1099" 
d="M1053 1038l-693 -694l457 10v-141h-684v688h141l-8 -459l688 693z" />
    <glyph glyph-name="partialdiff" unicode="&#x2202;" horiz-adv-x="1050" 
d="M203 1397q169 -1 300 -46.5t215.5 -121.5t138.5 -185.5t76.5 -229.5t22.5 -263q0 -283 -113 -427t-329 -144q-203 0 -322.5 136.5t-119.5 352.5q0 211 111.5 341t297.5 130q191 0 277 -149q-33 217 -179.5 337.5t-406.5 126.5zM514 117q129 0 194.5 98t65.5 272
q0 145 -68 232.5t-182 87.5q-125 0 -194.5 -89.5t-69.5 -250.5q0 -159 66 -254.5t188 -95.5z" />
    <glyph glyph-name="emptyset" unicode="&#x2205;" horiz-adv-x="1581" 
d="M1485 1274l-148 -148q142 -191 142 -442q0 -196 -87.5 -357.5t-245 -255.5t-353.5 -94q-260 0 -447 160l-158 -155l-94 94l160 157q-152 195 -152 451q0 197 89 359t247.5 255t354.5 93q265 0 454 -168l144 143zM256 684q0 -193 104 -344l783 780q-147 131 -350 131
q-152 0 -275 -74t-192.5 -204t-69.5 -289zM1325 684q0 188 -96 336l-778 -778q142 -123 342 -123q152 0 274 75t190 204t68 286z" />
    <glyph glyph-name="uni2206" unicode="&#x2206;" horiz-adv-x="1224" 
d="M717 1368l461 -1239v-129h-1131v129l463 1239h207zM602 1165l-377 -1020h752z" />
    <glyph glyph-name="product" unicode="&#x220f;" horiz-adv-x="1269" 
d="M1112 1368v-1593h-188v1446h-578v-1446h-188v1593h954z" />
    <glyph glyph-name="summation" unicode="&#x2211;" horiz-adv-x="1007" 
d="M948 1368v-145h-676l383 -652l-383 -651h676v-145h-887v129l392 667l-392 668v129h887z" />
    <glyph glyph-name="minus" unicode="&#x2212;" 
d="M121 541v147h868v-147h-868z" />
    <glyph glyph-name="uni2219" unicode="&#x2219;" 
d="M555 498q-54 0 -89.5 35t-35.5 90t35.5 90t89.5 35q55 0 90 -35t35 -90t-35 -90t-90 -35z" />
    <glyph glyph-name="radical" unicode="&#x221a;" horiz-adv-x="1046" 
d="M856 1673h174l-381 -2048h-200l-250 772h-203v131h332l211 -706z" />
    <glyph glyph-name="infinity" unicode="&#x221e;" horiz-adv-x="1439" 
d="M1049 930q54 0 106.5 -19.5t96.5 -56.5t71 -98.5t27 -137.5t-26.5 -137t-70.5 -98t-96 -56.5t-106 -19.5q-103 0 -178.5 47.5t-151.5 149.5q-74 -102 -149.5 -149.5t-178.5 -47.5q-55 0 -107.5 19.5t-96.5 56.5t-70.5 98t-26.5 137t26.5 137.5t70.5 98.5t96.5 56.5
t107.5 19.5q104 0 179 -47t149 -148q74 101 149 148t179 47zM403 438q68 0 121.5 41.5t118.5 138.5q-66 98 -119 139.5t-121 41.5q-69 0 -115 -49.5t-46 -131.5q0 -81 46 -130.5t115 -49.5zM1040 438q69 0 114.5 49t45.5 131t-45.5 131.5t-114.5 49.5q-70 0 -124 -41.5
t-119 -139.5q65 -97 119 -138.5t124 -41.5z" />
    <glyph glyph-name="integral" unicode="&#x222b;" horiz-adv-x="661" 
d="M512 1673q90 0 150 -14v-135q-75 14 -119 14q-69 0 -100 -40t-31 -128v-1472q0 -141 -71.5 -214t-190.5 -73q-81 0 -150 16v135q72 -14 119 -14q69 0 100 40t31 128v1473q0 141 71.5 212.5t190.5 71.5z" />
    <glyph glyph-name="congruent" unicode="&#x2245;" 
d="M762 1108q-44 0 -90.5 15.5t-76 32.5t-73.5 46q-36 24 -57 36t-50.5 23t-54.5 11q-49 0 -80.5 -34t-41.5 -120h-138q23 307 248 307q42 0 89 -17t69.5 -29.5t75.5 -45.5q37 -23 59.5 -35.5t53 -24t55.5 -11.5q51 0 82 31t42 120h136q-7 -85 -31 -146.5t-59.5 -95
t-74.5 -48.5t-83 -15zM100 750v145h910v-145h-910zM100 338v147h910v-147h-910z" />
    <glyph glyph-name="approxequal" unicode="&#x2248;" 
d="M772 676q-36 0 -69 6.5t-70.5 25t-52.5 26.5t-58 34q-64 40 -100.5 56t-73.5 16q-51 0 -83.5 -34t-43.5 -120h-143q7 85 31 146.5t60.5 95t77.5 48.5t91 15q44 0 93.5 -16.5t79 -32t75.5 -43.5q47 -29 66 -39.5t51 -21.5t63 -11q52 0 83 32t42 120h141q-7 -84 -31.5 -145
t-61.5 -94.5t-78.5 -48.5t-88.5 -15zM776 268q-48 0 -99 17t-74 30t-79 47q-66 39 -101.5 54.5t-70.5 15.5q-52 0 -84.5 -33.5t-42.5 -119.5h-143q14 164 84 234.5t174 70.5q100 0 248 -92q5 -3 28 -16.5t28.5 -16t23 -12t25.5 -11.5t23 -7t27.5 -6t26.5 -1q51 0 82 30.5
t43 118.5h141q-7 -84 -31.5 -145t-61.5 -94.5t-78.5 -48.5t-88.5 -15z" />
    <glyph glyph-name="uni2259" unicode="&#x2259;" 
d="M555 1354l-199 -303h-159l305 465h106l305 -465h-159zM100 895h910v-145h-910v145zM100 338v147h910v-147h-910z" />
    <glyph glyph-name="notequal" unicode="&#x2260;" 
d="M1010 750h-320l-131 -265h451v-147h-523l-125 -250h-141l125 250h-246v147h318l131 265h-449v145h521l116 233h142l-117 -233h248v-145z" />
    <glyph glyph-name="lessequal" unicode="&#x2264;" 
d="M985 1182v-162l-704 -287l704 -289v-163l-876 372v158zM111 23v145h874v-145h-874z" />
    <glyph glyph-name="greaterequal" unicode="&#x2265;" 
d="M125 1182l876 -371v-158l-876 -372v163l704 289l-704 287v162zM125 23v145h872v-145h-872z" />
    <glyph glyph-name="dotmath" unicode="&#x22c5;" 
d="M555 506q-51 0 -83 30.5t-32 79.5q0 51 32 83t83 32t83 -32t32 -83q0 -49 -32 -79.5t-83 -30.5z" />
    <glyph glyph-name="uni2300" unicode="&#x2300;" 
d="M1049 1012l-127 -129q82 -122 82 -277q0 -204 -130.5 -335.5t-322.5 -131.5q-158 0 -277 92l-116 -114l-97 96l119 119q-82 119 -82 274q0 135 61 242.5t164.5 166t227.5 58.5q156 0 276 -90l127 125zM551 938q-131 0 -218 -93t-87 -239q0 -99 41 -170l442 443
q-74 59 -178 59zM551 276q130 0 218.5 93t88.5 237q0 100 -41 174l-446 -446q80 -58 180 -58z" />
    <glyph glyph-name="filledbox" unicode="&#x25a0;" horiz-adv-x="1681" 
d="M156 1368h1368v-1368h-1368v1368z" />
    <glyph glyph-name="uni25A1" unicode="&#x25a1;" horiz-adv-x="1681" 
d="M156 0v1368h1368v-1368h-1368zM270 106h1141v1156h-1141v-1156z" />
    <glyph glyph-name="triagup" unicode="&#x25b2;" horiz-adv-x="1544" 
d="M772 1403l744 -1403h-1487z" />
    <glyph glyph-name="uni25B3" unicode="&#x25b3;" horiz-adv-x="1544" 
d="M772 1403l744 -1403h-1487zM1333 106l-561 1059l-561 -1059h1122z" />
    <glyph glyph-name="uni25B4" unicode="&#x25b4;" horiz-adv-x="755" 
d="M377 989l323 -571h-645z" />
    <glyph glyph-name="uni25B8" unicode="&#x25b8;" horiz-adv-x="755" 
d="M705 702l-572 -321v645z" />
    <glyph glyph-name="triagdn" unicode="&#x25bc;" horiz-adv-x="1544" 
d="M772 -35l-743 1403h1487z" />
    <glyph glyph-name="uni25BD" unicode="&#x25bd;" horiz-adv-x="1544" 
d="M29 1368h1487l-744 -1403zM1333 1262h-1122l561 -1059z" />
    <glyph glyph-name="uni25BE" unicode="&#x25be;" horiz-adv-x="755" 
d="M377 397l-322 572h645z" />
    <glyph glyph-name="uni25C2" unicode="&#x25c2;" horiz-adv-x="755" 
d="M51 702l572 324v-645z" />
    <glyph glyph-name="lozenge" unicode="&#x25ca;" 
d="M600 1393l457 -697l-457 -696h-90l-457 696l457 697h90zM555 1210l-332 -514l332 -514l330 514z" />
    <glyph glyph-name="circle" unicode="&#x25cb;" horiz-adv-x="1595" 
d="M801 -59q-206 0 -372 97.5t-258.5 267.5t-92.5 378t92.5 377.5t258.5 266.5t372 97t371 -97.5t256.5 -266.5t91.5 -377t-91.5 -377.5t-256.5 -267.5t-371 -98zM801 47q175 0 312 84t211.5 229t74.5 324t-74.5 323.5t-211.5 228t-312 83.5q-176 0 -314.5 -83.5t-214 -228
t-75.5 -323.5t75.5 -324t214 -229t314.5 -84z" />
    <glyph glyph-name="uni25CF" unicode="&#x25cf;" horiz-adv-x="1595" 
d="M801 -59q-206 0 -372 97.5t-258.5 267.5t-92.5 378t92.5 377.5t258.5 266.5t372 97t371 -97.5t256.5 -266.5t91.5 -377t-91.5 -377.5t-256.5 -267.5t-371 -98z" />
    <glyph glyph-name="fi" unicode="&#xfb01;" horiz-adv-x="1114" 
d="M532 1255q-64 0 -95 -36.5t-31 -128.5v-117h227v-131h-227v-842h-183v842h-182v131h182v139q0 140 75 210.5t204 70.5q86 0 147 -17v-135q-72 14 -117 14zM891 1141q-51 0 -83 31t-32 81t32 81.5t83 31.5q49 0 81 -32t32 -81t-31.5 -80.5t-81.5 -31.5zM801 973h180v-973
h-180v973z" />
    <glyph glyph-name="fl" unicode="&#xfb02;" horiz-adv-x="1161" 
d="M532 1255q-64 0 -95 -36.5t-31 -128.5v-117h227v-131h-227v-842h-183v842h-182v131h182v139q0 140 75 210.5t204 70.5q86 0 147 -17v-135q-72 14 -117 14zM1122 129v-133q-62 -16 -131 -16q-91 0 -142.5 47.5t-51.5 148.5v1192h180v-1149q0 -58 19 -80t53 -22q37 0 73 12
z" />
    <glyph glyph-name="uniFEFF" unicode="&#xfeff;" horiz-adv-x="0" 
 />
    <glyph glyph-name="NULL" horiz-adv-x="0" 
 />
    <glyph glyph-name="uni00A40301" horiz-adv-x="651" 
d="M305 1507l123 219h229v-16l-235 -203h-117zM162 -238q-103 0 -178 23v160q52 -23 137 -23q87 0 135.5 46.5t48.5 160.5v1239h191v-1268q0 -168 -89.5 -253t-244.5 -85z" />
    <glyph glyph-name="L_periodcentered.latnCAT" horiz-adv-x="987" 
d="M346 147h582v-147h-772v1368h190v-1221zM731 621q-50 0 -81.5 30.5t-31.5 79.5t31.5 80t81.5 31q51 0 82 -30.5t31 -80.5t-31 -80t-82 -30z" />
    <glyph glyph-name="i.loclTRK" horiz-adv-x="446" 
d="M223 1141q-51 0 -82.5 31t-31.5 81t31.5 81.5t82.5 31.5q49 0 81 -32t32 -81t-31.5 -80.5t-81.5 -31.5zM133 973h180v-973h-180v973z" />
    <glyph glyph-name="uni006A0301" horiz-adv-x="462" 
d="M147 1112l142 256h221v-16l-248 -240h-115zM55 -373q-74 0 -151 17v139q82 -19 114 -19q66 0 99 36.5t33 131.5v1041h180v-1065q0 -281 -275 -281z" />
    <glyph glyph-name="l_periodcentered.latnCAT" horiz-adv-x="690" 
d="M455 129v-133q-62 -16 -131 -16q-91 0 -143 47.5t-52 148.5v1192h180v-1149q0 -58 19 -80t53 -22q38 0 74 12zM565 598q-49 0 -79.5 30.5t-30.5 80.5q0 51 30 81.5t80 30.5t80.5 -30.5t30.5 -81.5q0 -49 -31 -80t-80 -31z" />
    <glyph glyph-name="uni01F2.sc" horiz-adv-x="2177" 
d="M563 1368q141 0 257.5 -41.5t204 -123.5t136.5 -214.5t49 -304.5t-49 -304.5t-136.5 -214.5t-204 -123.5t-257.5 -41.5h-407v1368h407zM545 147q216 0 340.5 132t124.5 405t-124.5 405t-340.5 132h-199v-1074h199zM1583 139h524v-139h-741v127l522 762h-497v139h714v-129
z" />
    <glyph glyph-name="uni01C5.sc" horiz-adv-x="2177" 
d="M1827 1165h-166l-217 256h119l180 -135l182 135h119zM563 1368q141 0 257.5 -41.5t204 -123.5t136.5 -214.5t49 -304.5t-49 -304.5t-136.5 -214.5t-204 -123.5t-257.5 -41.5h-407v1368h407zM545 147q216 0 340.5 132t124.5 405t-124.5 405t-340.5 132h-199v-1074h199z
M1583 139h524v-139h-741v127l522 762h-497v139h714v-129z" />
    <glyph glyph-name="uni01C8.sc" horiz-adv-x="1533" 
d="M346 147h582v-147h-772v1368h190v-1221zM1116 -178q-94 0 -145 16v146q50 -17 104 -17q70 0 104.5 35t34.5 115v911h183v-930q0 -139 -76 -207.5t-205 -68.5z" />
    <glyph glyph-name="uni01CB.sc" horiz-adv-x="1855" 
d="M977 1368h168v-1368h-223l-598 1100v-1100h-168v1368h223l598 -1100v1100zM1438 -178q-95 0 -146 16v146q50 -17 105 -17q70 0 104.5 35t34.5 115v911h182v-930q0 -139 -75.5 -207.5t-204.5 -68.5z" />
    <glyph glyph-name="a.sc" horiz-adv-x="999" 
d="M774 0l-78 231h-415l-78 -231h-170l368 1028h197l369 -1028h-193zM326 367h325l-162 487z" />
    <glyph glyph-name="aacute.sc" horiz-adv-x="999" 
d="M803 1405l-305 -240h-117l186 256h236v-16zM774 0l-78 231h-415l-78 -231h-170l368 1028h197l369 -1028h-193zM326 367h325l-162 489z" />
    <glyph glyph-name="abreve.sc" horiz-adv-x="999" 
d="M500 1155q-120 0 -196.5 68.5t-88.5 197.5h98q38 -141 187 -141q151 0 186 141h100q-13 -130 -89 -198t-197 -68zM774 0l-78 231h-415l-78 -231h-170l368 1028h197l369 -1028h-193zM326 367h325l-162 489z" />
    <glyph glyph-name="uni01CE.sc" horiz-adv-x="999" 
d="M584 1165h-166l-217 256h118l181 -137l182 137h119zM774 0l-78 231h-415l-78 -231h-170l368 1028h197l369 -1028h-193zM326 367h325l-162 489z" />
    <glyph glyph-name="acircumflex.sc" horiz-adv-x="999" 
d="M500 1303l-181 -138h-118l217 256h166l217 -256h-119zM774 0l-78 231h-415l-78 -231h-170l368 1028h197l369 -1028h-193zM326 367h325l-162 489z" />
    <glyph glyph-name="adieresis.sc" horiz-adv-x="999" 
d="M311 1184q-47 0 -76.5 29t-29.5 75q0 47 29.5 77t76.5 30q46 0 75.5 -30t29.5 -77q0 -46 -29.5 -75t-75.5 -29zM688 1184q-46 0 -76 29t-30 75q0 47 30 77t76 30t76.5 -30t30.5 -77q0 -45 -30.5 -74.5t-76.5 -29.5zM774 0l-78 231h-415l-78 -231h-170l368 1028h197
l369 -1028h-193zM326 367h325l-162 487z" />
    <glyph glyph-name="ae.sc" horiz-adv-x="1419" 
d="M866 139h463v-139h-645v225h-379l-127 -225h-188l612 1028h717v-139h-453v-293h424v-135h-424v-322zM381 358h303v533z" />
    <glyph glyph-name="agrave.sc" horiz-adv-x="999" 
d="M618 1165h-118l-303 240v16h233zM774 0l-78 231h-415l-78 -231h-170l368 1028h197l369 -1028h-193zM326 367h325l-162 487z" />
    <glyph glyph-name="amacron.sc" horiz-adv-x="999" 
d="M225 1219v127h547v-127h-547zM774 0l-78 231h-415l-78 -231h-170l368 1028h197l369 -1028h-193zM326 367h325l-162 487z" />
    <glyph glyph-name="aogonek.sc" horiz-adv-x="999" 
d="M915 -188l78 -76q-39 -54 -89 -81.5t-126 -27.5q-89 0 -144.5 47t-55.5 121q0 127 157 225l27 17l-66 194h-415l-78 -231h-170l368 1028h197l369 -1028h-115q-119 -84 -119 -166q0 -37 21.5 -59.5t54.5 -22.5q34 0 56 14.5t50 45.5zM326 367h325l-162 487z" />
    <glyph glyph-name="aring.sc" horiz-adv-x="999" 
d="M498 1155q-98 0 -162 58t-64 145q0 89 63.5 148t162.5 59q100 0 163.5 -59t63.5 -148q0 -87 -64 -145t-163 -58zM498 1255q47 0 77.5 30t30.5 73q0 46 -29 76t-79 30q-48 0 -76.5 -30.5t-28.5 -75.5q0 -42 29.5 -72.5t75.5 -30.5zM774 0l-78 231h-415l-78 -231h-170
l368 1028h197l369 -1028h-193zM326 367h325l-162 487z" />
    <glyph glyph-name="atilde.sc" horiz-adv-x="999" 
d="M610 1174q-45 0 -78 17t-71 52q-44 41 -80 41q-66 0 -78 -100h-96q3 67 21 115t46 71.5t55 33t56 9.5q33 0 61.5 -10.5t43.5 -21.5t38 -31q52 -45 88 -45q29 0 48.5 20.5t29.5 79.5h94q-3 -67 -21 -115.5t-45.5 -72t-54.5 -33.5t-57 -10zM774 0l-78 231h-415l-78 -231
h-170l368 1028h197l369 -1028h-193zM326 367h325l-162 487z" />
    <glyph glyph-name="b.sc" horiz-adv-x="970" 
d="M680 549q98 -29 154.5 -94.5t56.5 -161.5q0 -142 -106 -217.5t-265 -75.5h-383v1028h348q164 0 261.5 -69.5t97.5 -190.5q0 -81 -43.5 -136.5t-120.5 -82.5zM481 893h-162v-295h162q85 0 133 36.5t48 110.5q0 72 -48 110t-133 38zM494 135q206 0 206 168q0 82 -54.5 123
t-151.5 41h-175v-332h175z" />
    <glyph glyph-name="c.sc" horiz-adv-x="987" 
d="M276 514q0 -194 74 -291.5t199 -97.5q183 0 252 207l129 -60q-95 -292 -395 -292q-93 0 -174 36t-142.5 103t-97 169t-35.5 226q0 246 127.5 389.5t318.5 143.5q140 0 239.5 -68t148.5 -203l-132 -57q-36 97 -95 139.5t-144 42.5q-125 0 -199 -97t-74 -290z" />
    <glyph glyph-name="cacute.sc" horiz-adv-x="987" 
d="M408 1165l186 256h235v-16l-305 -240h-116zM276 514q0 -194 74 -291.5t199 -97.5q183 0 252 207l129 -60q-95 -292 -395 -292q-93 0 -174 36t-142.5 103t-97 169t-35.5 226q0 246 127.5 389.5t318.5 143.5q140 0 239.5 -68t148.5 -203l-132 -57q-36 97 -95 139.5
t-144 42.5q-125 0 -199 -97t-74 -290z" />
    <glyph glyph-name="ccaron.sc" horiz-adv-x="987" 
d="M707 1421h118l-217 -256h-166l-217 256h119l180 -137zM276 514q0 -194 74 -291.5t199 -97.5q183 0 252 207l129 -60q-95 -292 -395 -292q-93 0 -174 36t-142.5 103t-97 169t-35.5 226q0 246 127.5 389.5t318.5 143.5q140 0 239.5 -68t148.5 -203l-132 -57
q-36 97 -95 139.5t-144 42.5q-125 0 -199 -97t-74 -290z" />
    <glyph glyph-name="ccedilla.sc" horiz-adv-x="987" 
d="M930 272q-88 -273 -363 -292l-47 -74q24 4 41 4q74 0 120 -36.5t46 -96.5q0 -70 -59.5 -110t-155.5 -40q-98 0 -170 51l39 80q56 -39 115 -39q41 0 64.5 16t23.5 44t-19.5 43.5t-56.5 15.5q-39 0 -72 -22l-41 24l84 144q-171 21 -282 162t-111 368q0 246 127.5 389.5
t318.5 143.5q140 0 239.5 -68t148.5 -203l-132 -57q-36 97 -95 139.5t-144 42.5q-125 0 -199 -97t-74 -290q0 -194 74 -291.5t199 -97.5q183 0 252 207z" />
    <glyph glyph-name="ccircumflex.sc" horiz-adv-x="987" 
d="M707 1165l-183 138l-180 -138h-119l217 256h166l217 -256h-118zM276 514q0 -194 74 -291.5t199 -97.5q183 0 252 207l129 -60q-95 -292 -395 -292q-93 0 -174 36t-142.5 103t-97 169t-35.5 226q0 246 127.5 389.5t318.5 143.5q140 0 239.5 -68t148.5 -203l-132 -57
q-36 97 -95 139.5t-144 42.5q-125 0 -199 -97t-74 -290z" />
    <glyph glyph-name="cdotaccent.sc" horiz-adv-x="987" 
d="M526 1194q-51 0 -82.5 31.5t-31.5 81.5t31.5 81t82.5 31q50 0 81.5 -31.5t31.5 -80.5t-31.5 -81t-81.5 -32zM276 514q0 -194 74 -291.5t199 -97.5q183 0 252 207l129 -60q-95 -292 -395 -292q-93 0 -174 36t-142.5 103t-97 169t-35.5 226q0 246 127.5 389.5t318.5 143.5
q140 0 239.5 -68t148.5 -203l-132 -57q-36 97 -95 139.5t-144 42.5q-125 0 -199 -97t-74 -290z" />
    <glyph glyph-name="d.sc" horiz-adv-x="1083" 
d="M481 1028q232 0 374 -134t142 -380t-142 -380t-374 -134h-344v1028h344zM471 139q158 0 247 93.5t89 281.5q0 187 -89.5 280t-246.5 93h-152v-748h152z" />
    <glyph glyph-name="dcaron.sc" horiz-adv-x="1083" 
d="M586 1165h-164l-219 256h119l182 -135l180 135h121zM481 1028q232 0 374 -134t142 -380t-142 -380t-374 -134h-344v1028h344zM471 139q158 0 247 93.5t89 281.5q0 187 -89.5 280t-246.5 93h-152v-748h152z" />
    <glyph glyph-name="dcroat.sc" horiz-adv-x="1153" 
d="M553 1028q232 0 374 -134t142 -380t-142.5 -380t-373.5 -134h-344v469h-166v117h166v442h344zM541 139q159 0 248.5 93.5t89.5 281.5q0 187 -90 280t-248 93h-150v-301h201v-117h-201v-330h150z" />
    <glyph glyph-name="uni01F3.sc" horiz-adv-x="1935" 
d="M481 1028q232 0 374 -134t142 -380t-142 -380t-374 -134h-344v1028h344zM1341 139h525v-139h-742v127l523 762h-498v139h715v-129zM471 139q158 0 247 93.5t89 281.5q0 187 -89.5 280t-246.5 93h-152v-748h152z" />
    <glyph glyph-name="uni01C6.sc" horiz-adv-x="1935" 
d="M1585 1165h-166l-217 256h119l180 -135l182 135h119zM481 1028q232 0 374 -134t142 -380t-142 -380t-374 -134h-344v1028h344zM1341 139h525v-139h-742v127l523 762h-498v139h715v-129zM471 139q158 0 247 93.5t89 281.5q0 187 -89.5 280t-246.5 93h-152v-748h152z" />
    <glyph glyph-name="e.sc" horiz-adv-x="888" 
d="M319 139h478v-139h-660v1028h651v-139h-469v-293h441v-135h-441v-322z" />
    <glyph glyph-name="eacute.sc" horiz-adv-x="888" 
d="M764 1405l-305 -240h-117l186 256h236v-16zM319 139h478v-139h-660v1028h651v-139h-469v-293h441v-135h-441v-322z" />
    <glyph glyph-name="ebreve.sc" horiz-adv-x="888" 
d="M461 1155q-120 0 -196.5 68.5t-88.5 197.5h98q38 -141 187 -141q151 0 186 141h101q-13 -129 -89.5 -197.5t-197.5 -68.5zM319 139h478v-139h-660v1028h651v-139h-469v-293h441v-135h-441v-322z" />
    <glyph glyph-name="ecaron.sc" horiz-adv-x="888" 
d="M545 1165h-166l-217 256h119l180 -137l182 137h119zM319 139h478v-139h-660v1028h651v-139h-469v-293h441v-135h-441v-322z" />
    <glyph glyph-name="ecircumflex.sc" horiz-adv-x="888" 
d="M461 1303l-180 -138h-119l217 256h166l217 -256h-119zM319 139h478v-139h-660v1028h651v-139h-469v-293h441v-135h-441v-322z" />
    <glyph glyph-name="edieresis.sc" horiz-adv-x="888" 
d="M272 1184q-47 0 -76.5 29t-29.5 75q0 47 29.5 77t76.5 30q46 0 75.5 -30t29.5 -77q0 -46 -29.5 -75t-75.5 -29zM649 1184q-46 0 -76 29t-30 75q0 47 30 77t76 30t76.5 -30t30.5 -77q0 -45 -30.5 -74.5t-76.5 -29.5zM319 139h478v-139h-660v1028h651v-139h-469v-293h441
v-135h-441v-322z" />
    <glyph glyph-name="edotaccent.sc" horiz-adv-x="888" 
d="M461 1194q-51 0 -83 31.5t-32 81.5t32 81t83 31q49 0 80.5 -31.5t31.5 -80.5q0 -50 -31.5 -81.5t-80.5 -31.5zM319 139h478v-139h-660v1028h651v-139h-469v-293h441v-135h-441v-322z" />
    <glyph glyph-name="egrave.sc" horiz-adv-x="888" 
d="M580 1165h-119l-303 240v16h233zM319 139h478v-139h-660v1028h651v-139h-469v-293h441v-135h-441v-322z" />
    <glyph glyph-name="emacron.sc" horiz-adv-x="888" 
d="M186 1219v127h547v-127h-547zM319 139h478v-139h-660v1028h651v-139h-469v-293h441v-135h-441v-322z" />
    <glyph glyph-name="eng.sc" horiz-adv-x="1083" 
d="M786 1028h160v-1026q0 -151 -75.5 -221t-211.5 -70q-48 0 -118 13v124q62 -10 100 -10q132 0 143 121l-487 821v-780h-160v1028h207l442 -741v741z" />
    <glyph glyph-name="eogonek.sc" horiz-adv-x="888" 
d="M739 -188l78 -76q-41 -54 -93 -81.5t-130 -27.5q-89 0 -147 47.5t-58 120.5q0 56 30.5 104.5t100.5 100.5h-383v1028h651v-139h-469v-293h441v-135h-441v-322h478v-139h-140q-110 -89 -110 -164q0 -39 22.5 -61.5t55.5 -22.5q36 0 60.5 14.5t53.5 45.5z" />
    <glyph glyph-name="eth.sc" horiz-adv-x="1153" 
d="M553 1028q232 0 374 -134t142 -380t-142.5 -380t-373.5 -134h-344v469h-166v117h166v442h344zM541 139q159 0 248.5 93.5t89.5 281.5q0 187 -90 280t-248 93h-150v-301h201v-117h-201v-330h150z" />
    <glyph glyph-name="uni1EBD.sc" horiz-adv-x="888" 
d="M571 1174q-45 0 -78 17t-71 52q-44 41 -80 41q-66 0 -78 -100h-96q3 67 21 115t46 71.5t55 33t56 9.5q33 0 61.5 -10.5t43.5 -21.5t38 -31q52 -45 89 -45q29 0 48 20.5t29 79.5h95q-3 -67 -21 -115.5t-46 -72t-55 -33.5t-57 -10zM319 139h478v-139h-660v1028h651v-139
h-469v-293h441v-135h-441v-322z" />
    <glyph glyph-name="f.sc" horiz-adv-x="847" 
d="M776 889h-457v-314h420v-137h-420v-438h-182v1028h639v-139z" />
    <glyph glyph-name="g.sc" horiz-adv-x="1064" 
d="M555 528h412v-411q-161 -137 -389 -137q-219 0 -355.5 138.5t-136.5 395.5q0 124 37 226t101.5 168.5t150 102.5t184.5 36q139 0 244 -62.5t155 -181.5l-124 -68q-79 168 -263 168q-134 0 -214.5 -99t-80.5 -290q0 -196 78 -293.5t228 -97.5q124 0 219 70v196h-246v139z
" />
    <glyph glyph-name="gbreve.sc" horiz-adv-x="1064" 
d="M561 1157q-120 0 -196.5 68.5t-88.5 197.5h99q38 -141 186 -141q152 0 187 141h100q-13 -129 -89.5 -197.5t-197.5 -68.5zM555 528h412v-411q-161 -137 -389 -137q-219 0 -355.5 138.5t-136.5 395.5q0 124 37 226t101.5 168.5t150 102.5t184.5 36q139 0 244 -62.5
t155 -181.5l-124 -68q-79 168 -263 168q-134 0 -214.5 -99t-80.5 -290q0 -196 78 -293.5t228 -97.5q124 0 219 70v196h-246v139z" />
    <glyph glyph-name="gcircumflex.sc" horiz-adv-x="1064" 
d="M561 1305l-180 -138h-119l217 256h166l217 -256h-119zM555 528h412v-411q-161 -137 -389 -137q-219 0 -355.5 138.5t-136.5 395.5q0 124 37 226t101.5 168.5t150 102.5t184.5 36q139 0 244 -62.5t155 -181.5l-124 -68q-79 168 -263 168q-134 0 -214.5 -99t-80.5 -290
q0 -196 78 -293.5t228 -97.5q124 0 219 70v196h-246v139z" />
    <glyph glyph-name="uni0123.sc" horiz-adv-x="1064" 
d="M555 528h412v-411q-161 -137 -389 -137q-219 0 -355.5 138.5t-136.5 395.5q0 124 37 226t101.5 168.5t150 102.5t184.5 36q139 0 244 -62.5t155 -181.5l-124 -68q-79 168 -263 168q-134 0 -214.5 -99t-80.5 -290q0 -196 78 -293.5t228 -97.5q124 0 219 70v196h-246v139z
M567 -88q51 0 80 -32.5t29 -86.5q0 -174 -199 -192v65q53 6 81 29t28 49v4q-8 -2 -21 -2q-42 0 -70 22.5t-28 59.5q0 38 27.5 61t72.5 23z" />
    <glyph glyph-name="gdotaccent.sc" horiz-adv-x="1064" 
d="M561 1196q-51 0 -83 31.5t-32 81.5t32 81t83 31q50 0 81.5 -31.5t31.5 -80.5t-32 -81t-81 -32zM555 528h412v-411q-161 -137 -389 -137q-219 0 -355.5 138.5t-136.5 395.5q0 124 37 226t101.5 168.5t150 102.5t184.5 36q139 0 244 -62.5t155 -181.5l-124 -68
q-79 168 -263 168q-134 0 -214.5 -99t-80.5 -290q0 -196 78 -293.5t228 -97.5q124 0 219 70v196h-246v139z" />
    <glyph glyph-name="germandbls.sc" horiz-adv-x="1859" 
d="M156 272q127 -149 307 -149q100 0 152.5 39.5t52.5 107.5q0 26 -12 48t-26 36t-45.5 29.5t-49.5 22.5t-58 22l-125 45q-123 44 -185.5 111t-62.5 176q0 124 98 205.5t255 81.5q223 0 368 -160l-96 -101q-50 56 -119 87.5t-143 31.5q-87 0 -131.5 -37t-44.5 -96
q0 -54 37.5 -82.5t124.5 -60.5l129 -49q47 -16 80.5 -31t72.5 -40.5t63.5 -54t41 -71.5t16.5 -94q0 -141 -108 -224t-287 -83q-249 0 -400 192zM1085 272q127 -149 308 -149q100 0 152 39.5t52 107.5q0 26 -12 48t-26 36t-45 29.5t-49 22.5t-58 22l-125 45
q-123 44 -185.5 111t-62.5 176q0 124 97.5 205.5t254.5 81.5q224 0 369 -160l-96 -101q-50 56 -119 87.5t-143 31.5q-87 0 -131.5 -37t-44.5 -96q0 -54 37 -82.5t124 -60.5l129 -49q47 -17 80.5 -31.5t73 -40t64 -54t41 -71.5t16.5 -94q0 -141 -108 -224t-287 -83
q-249 0 -400 192z" />
    <glyph glyph-name="h.sc" horiz-adv-x="1075" 
d="M754 1028h184v-1028h-184v459h-435v-459h-182v1028h182v-430h435v430z" />
    <glyph glyph-name="hbar.sc" horiz-adv-x="1159" 
d="M1118 891v-117h-139v-774h-182v451h-435v-451h-182v774h-139v117h139v137h182v-137h435v137h182v-137h139zM797 590v184h-435v-184h435z" />
    <glyph glyph-name="hcircumflex.sc" horiz-adv-x="1075" 
d="M537 1303l-181 -138h-118l217 256h166l217 -256h-119zM754 1028h184v-1028h-184v459h-435v-459h-182v1028h182v-430h435v430z" />
    <glyph glyph-name="i.sc" horiz-adv-x="458" 
d="M137 1028h182v-1028h-182v1028z" />
    <glyph glyph-name="iacute.sc" horiz-adv-x="458" 
d="M139 1165l142 256h221v-16l-248 -240h-115zM137 1028h182v-1028h-182v1028z" />
    <glyph glyph-name="ibreve.sc" horiz-adv-x="458" 
d="M229 1155q-104 0 -164.5 68t-66.5 198h98q23 -141 133 -141q54 0 88.5 32t47.5 109h98q-6 -130 -67 -198t-167 -68zM137 1028h182v-1028h-182v1028z" />
    <glyph glyph-name="uni01D0.sc" horiz-adv-x="458" 
d="M313 1165h-166l-167 256h116l135 -139l134 139h116zM137 0v1028h182v-1028h-182z" />
    <glyph glyph-name="icircumflex.sc" horiz-adv-x="458" 
d="M313 1421l168 -256h-116l-134 140l-135 -140h-116l167 256h166zM137 0v1028h182v-1028h-182z" />
    <glyph glyph-name="idieresis.sc" horiz-adv-x="458" 
d="M76 1184q-44 0 -73.5 29t-29.5 75q0 47 29 77t74 30q44 0 73 -30t29 -77q0 -46 -29 -75t-73 -29zM387 1184q-44 0 -72 29t-28 75q0 47 28 77t72 30t73 -30t29 -77q0 -46 -29 -75t-73 -29zM137 1028h182v-1028h-182v1028z" />
    <glyph glyph-name="i.sc.loclTRK" horiz-adv-x="458" 
d="M231 1194q-51 0 -82.5 31.5t-31.5 81.5t31.5 81t82.5 31q50 0 81.5 -31.5t31.5 -80.5t-32 -81t-81 -32zM137 1028h182v-1028h-182v1028z" />
    <glyph glyph-name="dotlessi.sc" horiz-adv-x="458" 
d="M137 1028h182v-1028h-182v1028z" />
    <glyph glyph-name="igrave.sc" horiz-adv-x="458" 
d="M322 1165h-115l-248 240v16h221zM137 1028h182v-1028h-182v1028z" />
    <glyph glyph-name="imacron.sc" horiz-adv-x="458" 
d="M12 1219v127h437v-127h-437zM137 1028h182v-1028h-182v1028z" />
    <glyph glyph-name="iogonek.sc" horiz-adv-x="458" 
d="M322 -188l75 -76q-76 -109 -198 -109q-85 0 -138 46t-53 120q0 98 129 217v1018h182v-1028h-53q-102 -102 -102 -172q0 -37 18 -56.5t47 -19.5q47 0 93 60z" />
    <glyph glyph-name="itilde.sc" horiz-adv-x="458" 
d="M328 1176q-62 0 -121 63q-41 41 -70 41q-23 0 -41 -23t-22 -73h-97q2 68 17 115t39 70t47.5 32.5t50.5 9.5q62 0 123 -61q18 -17 25 -23t20.5 -13t26.5 -7q45 0 61 98h94q-2 -68 -17 -115.5t-38.5 -71t-47 -33t-50.5 -9.5zM137 1028h182v-1028h-182v1028z" />
    <glyph glyph-name="j.sc" horiz-adv-x="557" 
d="M139 -178q-94 0 -145 16v146q50 -17 104 -17q70 0 105 35.5t35 114.5v911h182v-930q0 -139 -76 -207.5t-205 -68.5z" />
    <glyph glyph-name="uni006A0301.sc" horiz-adv-x="557" 
d="M236 1165l141 256h221v-16l-248 -240h-114zM139 -178q-94 0 -145 16v146q50 -17 104 -17q70 0 105 35.5t35 114.5v911h182v-930q0 -139 -76 -207.5t-205 -68.5z" />
    <glyph glyph-name="jcircumflex.sc" horiz-adv-x="557" 
d="M410 1421l168 -256h-117l-133 140l-135 -140h-117l168 256h166zM238 117v911h182v-930q0 -139 -76 -207.5t-205 -68.5q-94 0 -145 16v146q50 -17 104 -17q70 0 105 35.5t35 114.5z" />
    <glyph glyph-name="uni0237.sc" horiz-adv-x="557" 
d="M139 -178q-94 0 -145 16v146q50 -17 104 -17q70 0 105 35.5t35 114.5v911h182v-930q0 -139 -76 -207.5t-205 -68.5z" />
    <glyph glyph-name="k.sc" horiz-adv-x="964" 
d="M739 0l-360 463h-62v-463h-180v1028h180v-426h56l350 426h184l-399 -471l453 -557h-222z" />
    <glyph glyph-name="uni0137.sc" horiz-adv-x="964" 
d="M508 557l453 -557h-222l-360 463h-62v-463h-180v1028h180v-426h56l350 426h184zM520 -88q51 0 80 -32.5t29 -86.5q0 -174 -199 -192v65q53 6 81 29t28 49v4q-8 -2 -21 -2q-42 0 -70 22.5t-28 59.5q0 38 27.5 61t72.5 23z" />
    <glyph glyph-name="l.sc" horiz-adv-x="827" 
d="M319 139h451v-139h-633v1028h182v-889z" />
    <glyph glyph-name="l_periodcentered.latnCAT.sc" horiz-adv-x="847" 
d="M319 139h451v-139h-633v1028h182v-889zM651 438q-49 0 -79.5 30.5t-30.5 80.5q0 51 30 82t80 31t80.5 -31t30.5 -82q0 -49 -31 -80t-80 -31z" />
    <glyph glyph-name="lacute.sc" horiz-adv-x="827" 
d="M131 1165l186 256h236v-16l-305 -240h-117zM319 139h451v-139h-633v1028h182v-889z" />
    <glyph glyph-name="lcaron.sc" horiz-adv-x="837" 
d="M319 139h451v-139h-633v1028h182v-889zM520 668l27 360h155v-20l-75 -340h-107z" />
    <glyph glyph-name="uni013C.sc" horiz-adv-x="827" 
d="M319 139h451v-139h-633v1028h182v-889zM373 -399v65q53 6 80.5 29t27.5 49v4q-8 -2 -20 -2q-42 0 -70.5 22.5t-28.5 59.5q0 38 28 61t73 23q51 0 79.5 -32.5t28.5 -86.5q0 -174 -198 -192z" />
    <glyph glyph-name="ldot.sc" horiz-adv-x="847" 
d="M319 139h451v-139h-633v1028h182v-889zM651 438q-49 0 -79.5 30.5t-30.5 80.5q0 51 30 82t80 31t80.5 -31t30.5 -82q0 -49 -31 -80t-80 -31z" />
    <glyph glyph-name="uni01C9.sc" horiz-adv-x="1382" 
d="M319 139h451v-139h-633v1028h182v-889zM967 -178q-95 0 -146 16v146q50 -17 105 -17q70 0 104.5 35t34.5 115v911h182v-930q0 -139 -75.5 -207.5t-204.5 -68.5z" />
    <glyph glyph-name="lslash.sc" horiz-adv-x="894" 
d="M389 139h451v-139h-633v408l-148 -62v125l148 64v493h182v-426l213 90v-125l-213 -92v-336z" />
    <glyph glyph-name="m.sc" horiz-adv-x="1331" 
d="M926 1028h266v-1028h-170v872l-285 -872h-162l-284 860v-860h-154v1028h275l258 -821z" />
    <glyph glyph-name="n.sc" horiz-adv-x="1083" 
d="M786 1028h160v-1028h-217l-432 784v-784h-160v1028h219l430 -784v784z" />
    <glyph glyph-name="nacute.sc" horiz-adv-x="1083" 
d="M850 1405l-305 -240h-117l186 256h236v-16zM786 1028h160v-1028h-217l-432 784v-784h-160v1028h219l430 -784v784z" />
    <glyph glyph-name="ncaron.sc" horiz-adv-x="1083" 
d="M629 1165h-166l-217 256h119l180 -137l182 137h119zM786 1028h160v-1028h-217l-432 784v-784h-160v1028h219l430 -784v784z" />
    <glyph glyph-name="uni0146.sc" horiz-adv-x="1083" 
d="M786 1028h160v-1028h-217l-432 784v-784h-160v1028h219l430 -784v784zM545 -88q51 0 79.5 -32.5t28.5 -86.5q0 -174 -198 -192v65q53 6 80.5 29t27.5 49v4q-8 -2 -20 -2q-42 0 -70.5 22.5t-28.5 59.5q0 38 28 61t73 23z" />
    <glyph glyph-name="ntilde.sc" horiz-adv-x="1083" 
d="M428 1284q-66 0 -78 -100h-96q3 67 21 115t46 71.5t55 33t56 9.5q33 0 61.5 -10.5t43.5 -21.5t38 -31q52 -45 89 -45q29 0 48 20.5t29 79.5h95q-3 -67 -21 -115.5t-46 -72t-55 -33.5t-57 -10q-45 0 -78 17t-71 52q-44 41 -80 41zM786 1028h160v-1028h-217l-432 784v-784
h-160v1028h219l430 -784v784z" />
    <glyph glyph-name="uni01CC.sc" horiz-adv-x="1638" 
d="M786 244v784h160v-1028h-217l-432 784v-784h-160v1028h219zM1321 1028h182v-930q0 -139 -75.5 -207.5t-204.5 -68.5q-95 0 -146 16v146q50 -17 105 -17q70 0 104.5 35t34.5 115v911z" />
    <glyph glyph-name="o.sc" horiz-adv-x="1124" 
d="M563 -20q-209 0 -343 141.5t-134 392.5q0 249 134 391t343 142q208 0 341.5 -142t133.5 -391q0 -126 -36.5 -228t-100.5 -168.5t-150.5 -102t-187.5 -35.5zM563 125q130 0 207.5 99t77.5 290t-77.5 290t-207.5 99q-131 0 -209 -98.5t-78 -290.5t78 -290.5t209 -98.5z" />
    <glyph glyph-name="oacute.sc" horiz-adv-x="1124" 
d="M444 1165l187 256h235v-16l-305 -240h-117zM563 -20q-209 0 -343 141.5t-134 392.5q0 249 134 391t343 142q208 0 341.5 -142t133.5 -391q0 -126 -36.5 -228t-100.5 -168.5t-150.5 -102t-187.5 -35.5zM563 125q130 0 207.5 99t77.5 290t-77.5 290t-207.5 99
q-131 0 -209 -98.5t-78 -290.5t78 -290.5t209 -98.5z" />
    <glyph glyph-name="obreve.sc" horiz-adv-x="1124" 
d="M561 1155q-120 0 -196.5 68.5t-88.5 197.5h99q38 -141 186 -141q152 0 187 141h100q-13 -129 -89.5 -197.5t-197.5 -68.5zM563 -20q-209 0 -343 141.5t-134 392.5q0 249 134 391t343 142q208 0 341.5 -142t133.5 -391q0 -126 -36.5 -228t-100.5 -168.5t-150.5 -102
t-187.5 -35.5zM563 125q130 0 207.5 99t77.5 290t-77.5 290t-207.5 99q-131 0 -209 -98.5t-78 -290.5t78 -290.5t209 -98.5z" />
    <glyph glyph-name="uni01D2.sc" horiz-adv-x="1124" 
d="M743 1421h119l-217 -256h-166l-217 256h119l180 -137zM563 -20q-209 0 -343 141.5t-134 392.5q0 249 134 391t343 142q208 0 341.5 -142t133.5 -391q0 -126 -36.5 -228t-100.5 -168.5t-150.5 -102t-187.5 -35.5zM563 125q130 0 207.5 99t77.5 290t-77.5 290t-207.5 99
q-131 0 -209 -98.5t-78 -290.5t78 -290.5t209 -98.5z" />
    <glyph glyph-name="ocircumflex.sc" horiz-adv-x="1124" 
d="M743 1165l-182 138l-180 -138h-119l217 256h166l217 -256h-119zM563 -20q-209 0 -343 141.5t-134 392.5q0 249 134 391t343 142q208 0 341.5 -142t133.5 -391q0 -126 -36.5 -228t-100.5 -168.5t-150.5 -102t-187.5 -35.5zM563 125q130 0 207.5 99t77.5 290t-77.5 290
t-207.5 99q-131 0 -209 -98.5t-78 -290.5t78 -290.5t209 -98.5z" />
    <glyph glyph-name="odieresis.sc" horiz-adv-x="1124" 
d="M375 1184q-47 0 -77 29t-30 75q0 47 30 77t77 30q46 0 75 -30t29 -77q0 -46 -29 -75t-75 -29zM752 1184q-46 0 -76.5 29.5t-30.5 74.5q0 47 30.5 77t76.5 30t76 -30t30 -77q0 -46 -30 -75t-76 -29zM563 -20q-209 0 -343 141.5t-134 392.5q0 249 134 391t343 142
q208 0 341.5 -142t133.5 -391q0 -126 -36.5 -228t-100.5 -168.5t-150.5 -102t-187.5 -35.5zM563 125q130 0 207.5 99t77.5 290t-77.5 290t-207.5 99q-131 0 -209 -98.5t-78 -290.5t78 -290.5t209 -98.5z" />
    <glyph glyph-name="oe.sc" horiz-adv-x="1562" 
d="M1008 139h465v-139h-642v156q-99 -174 -303 -174q-193 0 -316.5 140.5t-123.5 391.5q0 252 123.5 392.5t316.5 140.5q204 0 303 -175v156h631v-139h-454v-293h426v-135h-426v-322zM557 127q122 0 196 98.5t74 288.5q0 189 -74 288t-196 99q-128 0 -203 -97.5t-75 -289.5
q0 -191 74.5 -289t203.5 -98z" />
    <glyph glyph-name="ograve.sc" horiz-adv-x="1124" 
d="M682 1165h-119l-303 240v16h234zM563 -20q-209 0 -343 141.5t-134 392.5q0 249 134 391t343 142q208 0 341.5 -142t133.5 -391q0 -126 -36.5 -228t-100.5 -168.5t-150.5 -102t-187.5 -35.5zM563 125q130 0 207.5 99t77.5 290t-77.5 290t-207.5 99q-131 0 -209 -98.5
t-78 -290.5t78 -290.5t209 -98.5z" />
    <glyph glyph-name="ohungarumlaut.sc" horiz-adv-x="1124" 
d="M319 1165l150 256h199v-14l-240 -242h-109zM645 1165l184 256h201v-14l-274 -242h-111zM563 -20q-209 0 -343 141.5t-134 392.5q0 249 134 391t343 142q208 0 341.5 -142t133.5 -391q0 -126 -36.5 -228t-100.5 -168.5t-150.5 -102t-187.5 -35.5zM563 125q130 0 207.5 99
t77.5 290t-77.5 290t-207.5 99q-131 0 -209 -98.5t-78 -290.5t78 -290.5t209 -98.5z" />
    <glyph glyph-name="omacron.sc" horiz-adv-x="1124" 
d="M289 1219v127h547v-127h-547zM563 -20q-209 0 -343 141.5t-134 392.5q0 249 134 391t343 142q208 0 341.5 -142t133.5 -391q0 -126 -36.5 -228t-100.5 -168.5t-150.5 -102t-187.5 -35.5zM563 125q130 0 207.5 99t77.5 290t-77.5 290t-207.5 99q-131 0 -209 -98.5
t-78 -290.5t78 -290.5t209 -98.5z" />
    <glyph glyph-name="oslash.sc" horiz-adv-x="1126" 
d="M930 879q110 -141 110 -365q0 -251 -134 -392.5t-343 -141.5q-160 0 -278 83l-86 -108l-93 72l95 118q-115 144 -115 369q0 249 134.5 391t342.5 142q163 0 281 -86l78 100l94 -72zM563 903q-130 0 -207 -98.5t-77 -290.5q0 -140 40 -227l426 549q-73 67 -182 67z
M563 125q131 0 209 98.5t78 290.5q0 127 -37 219l-424 -545q69 -63 174 -63z" />
    <glyph glyph-name="otilde.sc" horiz-adv-x="1124" 
d="M674 1174q-45 0 -78.5 17.5t-71.5 51.5q-44 41 -80 41q-65 0 -77 -100h-97q3 67 21 115t46.5 71.5t55.5 33t56 9.5q33 0 61.5 -10.5t43.5 -21.5t38 -31q52 -45 88 -45q29 0 48.5 20.5t29.5 79.5h94q-3 -67 -21 -115.5t-45.5 -72t-54.5 -33.5t-57 -10zM563 -20
q-209 0 -343 141.5t-134 392.5q0 249 134 391t343 142q208 0 341.5 -142t133.5 -391q0 -126 -36.5 -228t-100.5 -168.5t-150.5 -102t-187.5 -35.5zM563 125q130 0 207.5 99t77.5 290t-77.5 290t-207.5 99q-131 0 -209 -98.5t-78 -290.5t78 -290.5t209 -98.5z" />
    <glyph glyph-name="p.sc" horiz-adv-x="946" 
d="M500 1028q169 0 274 -82t105 -235q0 -154 -105.5 -237t-273.5 -83h-181v-391h-182v1028h363zM487 530q201 0 201 181q0 178 -201 178h-168v-359h168z" />
    <glyph glyph-name="q.sc" horiz-adv-x="1126" 
d="M1065 -139h-225l-117 143q-73 -24 -160 -24q-209 0 -343 141.5t-134 392.5q0 249 134 391t343 142q208 0 341.5 -142t133.5 -391q0 -277 -164 -422zM276 514q0 -192 78 -290.5t209 -98.5q130 0 207.5 99t77.5 290t-77.5 290t-207.5 99q-131 0 -209 -98.5t-78 -290.5z" />
    <glyph glyph-name="r.sc" horiz-adv-x="970" 
d="M715 0l-264 412h-134v-412h-180v1028h357q102 0 183 -32.5t131 -102.5t50 -168q0 -111 -60 -183.5t-161 -101.5l295 -440h-217zM317 889v-338h162q89 0 139 42t50 126q0 86 -49.5 128t-139.5 42h-162z" />
    <glyph glyph-name="racute.sc" horiz-adv-x="970" 
d="M768 1407l-305 -240h-117l186 256h236v-16zM715 0l-264 412h-134v-412h-180v1028h357q102 0 183 -32.5t131 -102.5t50 -168q0 -111 -60 -183.5t-161 -101.5l295 -440h-217zM317 889v-338h162q89 0 139 42t50 126q0 86 -49.5 128t-139.5 42h-162z" />
    <glyph glyph-name="rcaron.sc" horiz-adv-x="970" 
d="M549 1167h-166l-217 256h119l180 -137l182 137h119zM715 0l-264 412h-134v-412h-180v1028h357q102 0 183 -32.5t131 -102.5t50 -168q0 -111 -60 -183.5t-161 -101.5l295 -440h-217zM317 889v-338h162q89 0 139 42t50 126q0 86 -49.5 128t-139.5 42h-162z" />
    <glyph glyph-name="uni0157.sc" horiz-adv-x="970" 
d="M637 440l295 -440h-217l-264 412h-134v-412h-180v1028h357q102 0 183 -32.5t131 -102.5t50 -168q0 -111 -60 -183.5t-161 -101.5zM317 889v-338h162q89 0 139 42t50 126q0 86 -49.5 128t-139.5 42h-162zM502 -88q51 0 79.5 -32.5t28.5 -86.5q0 -174 -198 -192v65
q53 6 80.5 29t27.5 49v4q-8 -2 -20 -2q-42 0 -70.5 22.5t-28.5 59.5q0 38 28 61t73 23z" />
    <glyph glyph-name="s.sc" horiz-adv-x="929" 
d="M156 272q127 -149 307 -149q100 0 152.5 39.5t52.5 107.5q0 26 -12 48t-26 36t-45.5 29.5t-49.5 22.5t-58 22l-125 45q-123 44 -185.5 111t-62.5 176q0 124 98 205.5t255 81.5q223 0 368 -160l-96 -101q-50 56 -119 87.5t-143 31.5q-87 0 -131.5 -37t-44.5 -96
q0 -54 37.5 -82.5t124.5 -60.5l129 -49q47 -16 80.5 -31t72.5 -40.5t63.5 -54t41 -71.5t16.5 -94q0 -141 -108 -224t-287 -83q-249 0 -400 192z" />
    <glyph glyph-name="sacute.sc" horiz-adv-x="929" 
d="M348 1165l187 256h235v-16l-305 -240h-117zM156 272q127 -149 307 -149q100 0 152.5 39.5t52.5 107.5q0 26 -12 48t-26 36t-45.5 29.5t-49.5 22.5t-58 22l-125 45q-123 44 -185.5 111t-62.5 176q0 124 98 205.5t255 81.5q223 0 368 -160l-96 -101q-50 56 -119 87.5
t-143 31.5q-87 0 -131.5 -37t-44.5 -96q0 -54 37.5 -82.5t124.5 -60.5l129 -49q47 -16 80.5 -31t72.5 -40.5t63.5 -54t41 -71.5t16.5 -94q0 -141 -108 -224t-287 -83q-249 0 -400 192z" />
    <glyph glyph-name="scaron.sc" horiz-adv-x="929" 
d="M647 1421h119l-217 -256h-166l-217 256h119l180 -137zM156 272q127 -149 307 -149q100 0 152.5 39.5t52.5 107.5q0 26 -12 48t-26 36t-45.5 29.5t-49.5 22.5t-58 22l-125 45q-123 44 -185.5 111t-62.5 176q0 124 98 205.5t255 81.5q223 0 368 -160l-96 -101
q-50 56 -119 87.5t-143 31.5q-87 0 -131.5 -37t-44.5 -96q0 -54 37.5 -82.5t124.5 -60.5l129 -49q47 -16 80.5 -31t72.5 -40.5t63.5 -54t41 -71.5t16.5 -94q0 -141 -108 -224t-287 -83q-249 0 -400 192z" />
    <glyph glyph-name="scedilla.sc" horiz-adv-x="929" 
d="M856 289q0 -128 -90 -209t-242 -96l-51 -78q24 4 41 4q74 0 120 -36.5t46 -96.5q0 -70 -59.5 -110t-155.5 -40q-98 0 -170 51l39 80q56 -39 115 -39q41 0 64.5 16t23.5 44t-19.5 43.5t-56.5 15.5q-39 0 -72 -22l-41 24l84 142q-229 12 -371 192l95 98q127 -149 307 -149
q100 0 152.5 39.5t52.5 107.5q0 26 -12 48t-26 36t-45.5 29.5t-49.5 22.5t-58 22l-125 45q-123 44 -185.5 111t-62.5 176q0 124 98 205.5t255 81.5q223 0 368 -160l-96 -101q-50 56 -119 87.5t-143 31.5q-87 0 -131.5 -37t-44.5 -96q0 -54 37.5 -82.5t124.5 -60.5l129 -49
q47 -16 80.5 -31t72.5 -40.5t63.5 -54t41 -71.5t16.5 -94z" />
    <glyph glyph-name="uni0259.sc" horiz-adv-x="1075" 
d="M518 1047q213 0 343 -143.5t130 -385.5q0 -244 -126.5 -391t-336.5 -147t-330 138.5t-120 375.5q0 42 4 65h721q-7 168 -84.5 256t-208.5 88q-86 0 -149.5 -36.5t-116.5 -110.5l-117 80q142 211 391 211zM530 123q114 0 187 76t86 221h-545q10 -148 81 -222.5t191 -74.5z
" />
    <glyph glyph-name="scircumflex.sc" horiz-adv-x="929" 
d="M647 1165l-182 138l-180 -138h-119l217 256h166l217 -256h-119zM156 272q127 -149 307 -149q100 0 152.5 39.5t52.5 107.5q0 26 -12 48t-26 36t-45.5 29.5t-49.5 22.5t-58 22l-125 45q-123 44 -185.5 111t-62.5 176q0 124 98 205.5t255 81.5q223 0 368 -160l-96 -101
q-50 56 -119 87.5t-143 31.5q-87 0 -131.5 -37t-44.5 -96q0 -54 37.5 -82.5t124.5 -60.5l129 -49q47 -16 80.5 -31t72.5 -40.5t63.5 -54t41 -71.5t16.5 -94q0 -141 -108 -224t-287 -83q-249 0 -400 192z" />
    <glyph glyph-name="uni0219.sc" horiz-adv-x="929" 
d="M156 272q127 -149 307 -149q100 0 152.5 39.5t52.5 107.5q0 26 -12 48t-26 36t-45.5 29.5t-49.5 22.5t-58 22l-125 45q-123 44 -185.5 111t-62.5 176q0 124 98 205.5t255 81.5q223 0 368 -160l-96 -101q-50 56 -119 87.5t-143 31.5q-87 0 -131.5 -37t-44.5 -96
q0 -54 37.5 -82.5t124.5 -60.5l129 -49q47 -16 80.5 -31t72.5 -40.5t63.5 -54t41 -71.5t16.5 -94q0 -141 -108 -224t-287 -83q-249 0 -400 192zM397 -399v65q53 6 81 29t28 49v4q-8 -2 -21 -2q-42 0 -70 22.5t-28 59.5q0 38 27.5 61t72.5 23q51 0 80 -32.5t29 -86.5
q0 -174 -199 -192z" />
    <glyph glyph-name="t.sc" horiz-adv-x="901" 
d="M846 1028v-139h-305v-889h-183v889h-303v139h791z" />
    <glyph glyph-name="tbar.sc" horiz-adv-x="921" 
d="M856 889h-303v-318h190v-114h-190v-457h-182v457h-191v114h191v318h-305v139h790v-139z" />
    <glyph glyph-name="tcaron.sc" horiz-adv-x="901" 
d="M532 1165h-165l-217 256h118l181 -137l182 137h119zM846 1028v-139h-305v-889h-183v889h-303v139h791z" />
    <glyph glyph-name="uni0163.sc" horiz-adv-x="901" 
d="M541 0h-47l-60 -94q24 4 41 4q74 0 120 -36.5t46 -96.5q0 -70 -59.5 -110t-155.5 -40q-98 0 -170 51l39 80q56 -39 115 -39q41 0 64.5 16t23.5 44t-19.5 43.5t-56.5 15.5q-39 0 -72 -22l-41 24l94 160h-45v889h-303v139h791v-139h-305v-889z" />
    <glyph glyph-name="uni021B.sc" horiz-adv-x="901" 
d="M846 1028v-139h-305v-889h-183v889h-303v139h791zM449 -88q51 0 79.5 -32.5t28.5 -86.5q0 -174 -199 -192v65q53 6 81 29t28 49v4q-8 -2 -21 -2q-42 0 -70 22.5t-28 59.5q0 38 28 61t73 23z" />
    <glyph glyph-name="thorn.sc" horiz-adv-x="954" 
d="M500 850q170 0 274.5 -81t104.5 -234q0 -154 -105.5 -237t-273.5 -83h-181v-215h-182v1028h182v-178h181zM487 354q201 0 201 181q0 176 -201 176h-168v-357h168z" />
    <glyph glyph-name="u.sc" horiz-adv-x="1034" 
d="M516 -20q-180 0 -283.5 93.5t-103.5 268.5v686h182v-676q0 -113 51 -170t166 -57q112 0 166 56t54 171v676h157v-686q0 -175 -104 -268.5t-285 -93.5z" />
    <glyph glyph-name="uacute.sc" horiz-adv-x="1034" 
d="M406 1165l186 256h235v-16l-305 -240h-116zM516 -20q-180 0 -283.5 93.5t-103.5 268.5v686h182v-676q0 -113 51 -170t166 -57q112 0 166 56t54 171v676h157v-686q0 -175 -104 -268.5t-285 -93.5z" />
    <glyph glyph-name="ubreve.sc" horiz-adv-x="1034" 
d="M522 1155q-120 0 -196 68.5t-88 197.5h98q38 -141 186 -141q152 0 187 141h100q-13 -129 -89.5 -197.5t-197.5 -68.5zM516 -20q-180 0 -283.5 93.5t-103.5 268.5v686h182v-676q0 -113 51 -170t166 -57q112 0 166 56t54 171v676h157v-686q0 -175 -104 -268.5t-285 -93.5z
" />
    <glyph glyph-name="uni01D4.sc" horiz-adv-x="1034" 
d="M705 1421h118l-217 -256h-166l-217 256h119l180 -137zM516 -20q-180 0 -283.5 93.5t-103.5 268.5v686h182v-676q0 -113 51 -170t166 -57q112 0 166 56t54 171v676h157v-686q0 -175 -104 -268.5t-285 -93.5z" />
    <glyph glyph-name="ucircumflex.sc" horiz-adv-x="1034" 
d="M705 1165l-183 138l-180 -138h-119l217 256h166l217 -256h-118zM516 -20q-180 0 -283.5 93.5t-103.5 268.5v686h182v-676q0 -113 51 -170t166 -57q112 0 166 56t54 171v676h157v-686q0 -175 -104 -268.5t-285 -93.5z" />
    <glyph glyph-name="udieresis.sc" horiz-adv-x="1034" 
d="M336 1184q-47 0 -77 29t-30 75q0 47 30 77t77 30q46 0 75 -30t29 -77q0 -46 -29 -75t-75 -29zM713 1184q-46 0 -76.5 29.5t-30.5 74.5q0 47 30.5 77t76.5 30t76 -30t30 -77q0 -46 -30 -75t-76 -29zM516 -20q-180 0 -283.5 93.5t-103.5 268.5v686h182v-676q0 -113 51 -170
t166 -57q112 0 166 56t54 171v676h157v-686q0 -175 -104 -268.5t-285 -93.5z" />
    <glyph glyph-name="uni01D8.sc" horiz-adv-x="1034" 
d="M414 1442l188 256h234v-19l-304 -237h-118zM336 1133q-46 0 -76.5 29.5t-30.5 74.5q0 47 30.5 76.5t76.5 29.5t76 -29.5t30 -76.5q0 -46 -30 -75t-76 -29zM713 1133q-46 0 -76.5 29.5t-30.5 74.5q0 47 30.5 76.5t76.5 29.5t76 -29.5t30 -76.5q0 -46 -30 -75t-76 -29z
M516 -20q-180 0 -283.5 93.5t-103.5 268.5v686h182v-676q0 -113 51 -170t166 -57q112 0 166 56t54 171v676h157v-686q0 -175 -104 -268.5t-285 -93.5z" />
    <glyph glyph-name="uni01DA.sc" horiz-adv-x="1034" 
d="M610 1440h-164l-219 256h121l180 -135l181 135h120zM229 1237q0 47 30.5 76.5t76.5 29.5t76 -29.5t30 -76.5q0 -46 -30 -75t-76 -29t-76.5 29.5t-30.5 74.5zM606 1237q0 47 30.5 76.5t76.5 29.5t76 -29.5t30 -76.5q0 -46 -30 -75t-76 -29t-76.5 29.5t-30.5 74.5z
M748 1028h157v-686q0 -175 -104 -268.5t-285 -93.5q-180 0 -283.5 93.5t-103.5 268.5v686h182v-676q0 -113 51 -170t166 -57q112 0 166 56t54 171v676z" />
    <glyph glyph-name="uni01DC.sc" horiz-adv-x="1034" 
d="M637 1442h-119l-303 237v19h234zM336 1133q-46 0 -76.5 29.5t-30.5 74.5q0 47 30.5 76.5t76.5 29.5t76 -29.5t30 -76.5q0 -46 -30 -75t-76 -29zM713 1133q-46 0 -75.5 29t-29.5 75q0 47 29.5 76.5t75.5 29.5q47 0 76.5 -29.5t29.5 -76.5q0 -46 -29.5 -75t-76.5 -29z
M516 -20q-180 0 -283.5 93.5t-103.5 268.5v686h182v-676q0 -113 51 -170t166 -57q112 0 166 56t54 171v676h157v-686q0 -175 -104 -268.5t-285 -93.5z" />
    <glyph glyph-name="uni01D6.sc" horiz-adv-x="1034" 
d="M252 1491v127h545v-127h-545zM336 1133q-46 0 -76.5 29.5t-30.5 74.5q0 47 30.5 76.5t76.5 29.5t76 -29.5t30 -76.5q0 -46 -30 -75t-76 -29zM713 1133q-46 0 -76.5 29.5t-30.5 74.5q0 47 30.5 76.5t76.5 29.5t76 -29.5t30 -76.5q0 -46 -30 -75t-76 -29zM516 -20
q-180 0 -283.5 93.5t-103.5 268.5v686h182v-676q0 -113 51 -170t166 -57q112 0 166 56t54 171v676h157v-686q0 -175 -104 -268.5t-285 -93.5z" />
    <glyph glyph-name="ugrave.sc" horiz-adv-x="1034" 
d="M643 1165h-119l-303 240v16h234zM516 -20q-180 0 -283.5 93.5t-103.5 268.5v686h182v-676q0 -113 51 -170t166 -57q112 0 166 56t54 171v676h157v-686q0 -175 -104 -268.5t-285 -93.5z" />
    <glyph glyph-name="uhungarumlaut.sc" horiz-adv-x="1034" 
d="M281 1165l149 256h199v-14l-240 -242h-108zM606 1165l185 256h200v-14l-274 -242h-111zM516 -20q-180 0 -283.5 93.5t-103.5 268.5v686h182v-676q0 -113 51 -170t166 -57q112 0 166 56t54 171v676h157v-686q0 -175 -104 -268.5t-285 -93.5z" />
    <glyph glyph-name="umacron.sc" horiz-adv-x="1034" 
d="M250 1219v127h547v-127h-547zM516 -20q-180 0 -283.5 93.5t-103.5 268.5v686h182v-676q0 -113 51 -170t166 -57q112 0 166 56t54 171v676h157v-686q0 -175 -104 -268.5t-285 -93.5z" />
    <glyph glyph-name="uogonek.sc" horiz-adv-x="1034" 
d="M731 25q-143 -105 -143 -189q0 -39 22.5 -61.5t55.5 -22.5q36 0 60.5 14.5t53.5 45.5l78 -76q-41 -54 -93 -81.5t-130 -27.5q-89 0 -147 47.5t-58 120.5q0 101 105 185h-19q-180 0 -283.5 93.5t-103.5 268.5v686h182v-676q0 -113 51 -170t166 -57q112 0 166 56t54 171
v676h157v-686q0 -228 -174 -317z" />
    <glyph glyph-name="uring.sc" horiz-adv-x="1034" 
d="M520 1155q-98 0 -161.5 58t-63.5 145q0 89 63 148t162 59q100 0 164 -59t64 -148q0 -87 -64.5 -145t-163.5 -58zM520 1255q47 0 78 30t31 73q0 46 -29.5 76t-79.5 30q-48 0 -76 -30.5t-28 -75.5q0 -43 29 -73t75 -30zM516 -20q-180 0 -283.5 93.5t-103.5 268.5v686h182
v-676q0 -113 51 -170t166 -57q112 0 166 56t54 171v676h157v-686q0 -175 -104 -268.5t-285 -93.5z" />
    <glyph glyph-name="utilde.sc" horiz-adv-x="1034" 
d="M635 1174q-45 0 -78.5 17.5t-71.5 51.5q-44 41 -79 41q-66 0 -78 -100h-97q3 67 21 115t46.5 71.5t55.5 33t56 9.5q33 0 61.5 -10.5t43.5 -21.5t38 -31q52 -45 88 -45q29 0 48.5 20.5t29.5 79.5h94q-3 -67 -21 -115.5t-45.5 -72t-54.5 -33.5t-57 -10zM516 -20
q-180 0 -283.5 93.5t-103.5 268.5v686h182v-676q0 -113 51 -170t166 -57q112 0 166 56t54 171v676h157v-686q0 -175 -104 -268.5t-285 -93.5z" />
    <glyph glyph-name="v.sc" horiz-adv-x="978" 
d="M772 1028h174l-356 -1028h-197l-360 1028h203l268 -848z" />
    <glyph glyph-name="w.sc" horiz-adv-x="1501" 
d="M1286 1028h172l-272 -1028h-213l-230 784l-219 -784h-205l-278 1028h199l204 -831l220 831h192l234 -844z" />
    <glyph glyph-name="wacute.sc" horiz-adv-x="1501" 
d="M1063 1405l-305 -240h-117l186 256h236v-16zM1286 1028h172l-272 -1028h-213l-228 784l-221 -784h-205l-278 1028h199l204 -831l220 831h192l234 -846z" />
    <glyph glyph-name="wcircumflex.sc" horiz-adv-x="1501" 
d="M758 1303l-180 -138h-119l217 256h166l217 -256h-119zM1286 1028h172l-272 -1028h-213l-228 784l-221 -784h-205l-278 1028h199l204 -831l220 831h192l234 -846z" />
    <glyph glyph-name="wdieresis.sc" horiz-adv-x="1501" 
d="M571 1184q-47 0 -76.5 29t-29.5 75q0 47 29.5 77t76.5 30q46 0 75.5 -30t29.5 -77q0 -46 -29.5 -75t-75.5 -29zM948 1184q-46 0 -76 29t-30 75q0 47 30 77t76 30t76.5 -30t30.5 -77q0 -45 -30.5 -74.5t-76.5 -29.5zM1286 1028h172l-272 -1028h-213l-230 784l-219 -784
h-205l-278 1028h199l204 -831l220 831h192l234 -844z" />
    <glyph glyph-name="wgrave.sc" horiz-adv-x="1501" 
d="M879 1165h-119l-303 240v16h233zM1286 1028h172l-272 -1028h-213l-230 784l-219 -784h-205l-278 1028h199l204 -831l220 831h192l234 -844z" />
    <glyph glyph-name="x.sc" horiz-adv-x="948" 
d="M924 0h-207l-256 397l-256 -397h-176l344 518l-328 510h205l235 -379l244 379h170l-326 -496z" />
    <glyph glyph-name="y.sc" horiz-adv-x="976" 
d="M952 1028l-372 -579v-449h-183v444l-374 584h210l267 -448l272 448h180z" />
    <glyph glyph-name="yacute.sc" horiz-adv-x="976" 
d="M799 1405l-305 -240h-117l186 256h236v-16zM952 1028l-372 -584v-444h-183v444l-374 584h210l267 -448l272 448h180z" />
    <glyph glyph-name="ycircumflex.sc" horiz-adv-x="976" 
d="M494 1303l-181 -138h-118l217 256h166l217 -256h-119zM952 1028l-372 -584v-444h-183v444l-374 584h210l267 -448l272 448h180z" />
    <glyph glyph-name="ydieresis.sc" horiz-adv-x="976" 
d="M307 1184q-47 0 -76.5 29t-29.5 75q0 47 29.5 77t76.5 30q46 0 75.5 -30t29.5 -77q0 -46 -29.5 -75t-75.5 -29zM684 1184q-46 0 -76 29t-30 75q0 47 30 77t76 30t76.5 -30t30.5 -77q0 -45 -30.5 -74.5t-76.5 -29.5zM952 1028l-372 -579v-449h-183v444l-374 584h210
l267 -448l272 448h180z" />
    <glyph glyph-name="ygrave.sc" horiz-adv-x="976" 
d="M614 1165h-118l-303 240v16h233zM952 1028l-372 -579v-449h-183v444l-374 584h210l267 -448l272 448h180z" />
    <glyph glyph-name="uni0233.sc" horiz-adv-x="976" 
d="M221 1219v127h547v-127h-547zM952 1028l-372 -579v-449h-183v444l-374 584h210l267 -448l272 448h180z" />
    <glyph glyph-name="uni1EF9.sc" horiz-adv-x="976" 
d="M606 1174q-45 0 -78 17t-71 52q-44 41 -80 41q-66 0 -78 -100h-96q3 67 21 115t46 71.5t55 33t56 9.5q33 0 61.5 -10.5t43.5 -21.5t38 -31q52 -45 88 -45q29 0 48.5 20.5t29.5 79.5h94q-3 -67 -21 -115.5t-45.5 -72t-54.5 -33.5t-57 -10zM952 1028l-372 -579v-449h-183
v444l-374 584h210l267 -448l272 448h180z" />
    <glyph glyph-name="z.sc" horiz-adv-x="874" 
d="M281 139h524v-139h-742v127l523 762h-498v139h715v-129z" />
    <glyph glyph-name="zacute.sc" horiz-adv-x="874" 
d="M745 1405l-305 -240h-116l186 256h235v-16zM281 139h524v-139h-742v127l523 762h-498v139h715v-129z" />
    <glyph glyph-name="zcaron.sc" horiz-adv-x="874" 
d="M524 1165h-166l-217 256h119l180 -137l183 137h118zM281 139h524v-139h-742v127l523 762h-498v139h715v-129z" />
    <glyph glyph-name="zdotaccent.sc" horiz-adv-x="874" 
d="M440 1194q-51 0 -82.5 31.5t-31.5 81.5t31.5 81t82.5 31q50 0 81.5 -31.5t31.5 -80.5t-31.5 -81t-81.5 -32zM281 139h524v-139h-742v127l523 762h-498v139h715v-129z" />
    <glyph glyph-name="uni01F1.c2sc" horiz-adv-x="1935" 
d="M481 1028q232 0 374 -134t142 -380t-142 -380t-374 -134h-344v1028h344zM1341 139h525v-139h-742v127l523 762h-498v139h715v-129zM471 139q158 0 247 93.5t89 281.5q0 187 -89.5 280t-246.5 93h-152v-748h152z" />
    <glyph glyph-name="uni01C4.c2sc" horiz-adv-x="1935" 
d="M1585 1165h-166l-217 256h119l180 -137l182 137h119zM481 1028q232 0 374 -134t142 -380t-142 -380t-374 -134h-344v1028h344zM1341 139h525v-139h-742v127l523 762h-498v139h715v-129zM471 139q158 0 247 93.5t89 281.5q0 187 -89.5 280t-246.5 93h-152v-748h152z" />
    <glyph glyph-name="uni01F2.c2sc" horiz-adv-x="1935" 
d="M481 1028q232 0 374 -134t142 -380t-142 -380t-374 -134h-344v1028h344zM1341 139h525v-139h-742v127l523 762h-498v139h715v-129zM471 139q158 0 247 93.5t89 281.5q0 187 -89.5 280t-246.5 93h-152v-748h152z" />
    <glyph glyph-name="uni01C5.c2sc" horiz-adv-x="1935" 
d="M1585 1165h-166l-217 256h119l180 -137l182 137h119zM481 1028q232 0 374 -134t142 -380t-142 -380t-374 -134h-344v1028h344zM1341 139h525v-139h-742v127l523 762h-498v139h715v-129zM471 139q158 0 247 93.5t89 281.5q0 187 -89.5 280t-246.5 93h-152v-748h152z" />
    <glyph glyph-name="uni1E9E.c2sc" horiz-adv-x="1042" 
d="M758 555q213 -113 213 -285q0 -127 -96 -208.5t-250 -81.5q-112 0 -209 57l51 123q74 -45 139 -45q83 0 129.5 41.5t46.5 103.5q0 56 -41.5 99.5t-128.5 84.5l-108 54v86l211 270q-89 51 -185 51q-64 0 -109 -20.5t-69 -59t-34.5 -85t-10.5 -107.5v-633h-178v653
q0 183 97.5 288.5t303.5 105.5q225 0 398 -138l-244 -313z" />
    <glyph glyph-name="Idotaccent.c2sc" horiz-adv-x="458" 
d="M231 1194q-51 0 -82.5 31.5t-31.5 81.5t31.5 81t82.5 31q50 0 81.5 -31.5t31.5 -80.5t-32 -81t-81 -32zM137 1028h182v-1028h-182v1028z" />
    <glyph glyph-name="uni01C7.c2sc" horiz-adv-x="1382" 
d="M319 139h451v-139h-633v1028h182v-889zM967 -178q-95 0 -146 16v146q50 -17 105 -17q70 0 104.5 35t34.5 115v911h182v-930q0 -139 -75.5 -207.5t-204.5 -68.5z" />
    <glyph glyph-name="L_periodcentered.latnCAT.c2sc" horiz-adv-x="847" 
d="M319 139h451v-139h-633v1028h182v-889zM651 438q-49 0 -79.5 30.5t-30.5 80.5q0 51 30 82t80 31t80.5 -31t30.5 -82q0 -49 -31 -80t-80 -31z" />
    <glyph glyph-name="Ldot.c2sc" horiz-adv-x="847" 
d="M319 139h451v-139h-633v1028h182v-889zM651 438q-49 0 -79.5 30.5t-30.5 80.5q0 51 30 82t80 31t80.5 -31t30.5 -82q0 -49 -31 -80t-80 -31z" />
    <glyph glyph-name="uni01C8.c2sc" horiz-adv-x="1382" 
d="M319 139h451v-139h-633v1028h182v-889zM967 -178q-95 0 -146 16v146q50 -17 105 -17q70 0 104.5 35t34.5 115v911h182v-930q0 -139 -75.5 -207.5t-204.5 -68.5z" />
    <glyph glyph-name="uni01CA.c2sc" horiz-adv-x="1638" 
d="M786 244v784h160v-1028h-217l-432 784v-784h-160v1028h219zM1321 1028h182v-930q0 -139 -75.5 -207.5t-204.5 -68.5q-95 0 -146 16v146q50 -17 105 -17q70 0 104.5 35t34.5 115v911z" />
    <glyph glyph-name="uni01CB.c2sc" horiz-adv-x="1638" 
d="M786 244v784h160v-1028h-217l-432 784v-784h-160v1028h219zM1321 1028h182v-930q0 -139 -75.5 -207.5t-204.5 -68.5q-95 0 -146 16v146q50 -17 105 -17q70 0 104.5 35t34.5 115v911z" />
    <glyph glyph-name="fi.sc" horiz-adv-x="1306" 
d="M776 1028v-139h-457v-314h420v-137h-420v-438h-182v1028h639zM985 1028h182v-1028h-182v1028z" />
    <glyph glyph-name="fl.sc" horiz-adv-x="1675" 
d="M776 1028v-139h-457v-314h420v-137h-420v-438h-182v1028h639zM1167 139h451v-139h-633v1028h182v-889z" />
    <glyph glyph-name="uni20BC.tf" 
d="M911 1001q65 -90 93 -224t28 -376v-401h-172v373q0 221 -18.5 338.5t-59.5 187.5q-62 97 -153 119v-813h-154v813q-88 -25 -147 -119q-43 -70 -60.5 -186t-17.5 -340v-373h-172v401q0 242 28 376t93 224q106 140 272 166v226h162v-226q173 -23 278 -166z" />
    <glyph glyph-name="uni20AA.tf" 
d="M471 973q82 0 131.5 -12.5t85 -48.5t49 -99.5t13.5 -167.5v-266h-134v217q0 60 -1 90.5t-7 64.5t-16.5 48t-31 27t-49.5 16.5t-73 3.5h-215v-846h-143v973h391zM496 0h-131v602h131v-475h34q70 0 118.5 6.5t93 24.5t72 49.5t48 82t29 122.5t8.5 170v391h141v-387
q0 -105 -10.5 -186t-30 -143t-53 -106t-75 -73.5t-100.5 -46.5t-124 -24t-151 -7z" />
    <glyph glyph-name="uni20A9.tf" 
d="M1081 813h-114l-21 -182h135v-125h-151l-58 -506h-184l-63 506h-146l-65 -506h-176l-58 506h-151v125h135l-21 182h-114v125h100l-49 430h164l37 -430h147l55 430h158l53 -430h152l41 430h143l-49 -430h100v-125zM569 938l-16 129l-16 -129h32zM291 813l14 -182h84
l25 182h-123zM496 631h112l-22 182h-66zM817 631l19 182h-125l22 -182h84zM375 506h-58l23 -273zM782 242l25 264h-57z" />
    <glyph glyph-name="uni0E3F.c2sc" horiz-adv-x="913" 
d="M823 297q0 -140 -91 -216t-232 -81v-135h-113v135h-270v1028h270v125h113v-127q136 -7 210 -76t74 -186q0 -162 -161 -219q94 -27 147 -90.5t53 -157.5zM387 899h-100v-303h100v303zM610 743q0 136 -110 152v-293q110 25 110 141zM287 127h100v342h-100v-342zM500 129
q143 18 143 172q0 73 -37.5 114t-105.5 50v-336z" />
    <glyph glyph-name="uni20BF.c2sc" horiz-adv-x="903" 
d="M817 297q0 -120 -67.5 -193t-180.5 -96v-143h-108v135h-92v-135h-109v135h-149v1028h149v125h109v-125h86h6v125h108v-137q101 -23 155 -87.5t54 -164.5q0 -161 -162 -219q94 -27 147.5 -90.5t53.5 -157.5zM604 743q0 84 -38.5 120t-114.5 36h-170v-303h151
q81 0 126.5 36.5t45.5 110.5zM453 127q184 0 184 174q0 168 -193 168h-163v-342h172z" />
    <glyph glyph-name="uni20B5.c2sc" horiz-adv-x="884" 
d="M829 287q-81 -257 -303 -285v-137h-112v139q-159 22 -251.5 154t-92.5 352q0 225 92.5 359t251.5 155v129h112v-129q219 -26 289 -262l-129 -45q-46 148 -160 170v-748q120 25 172 195zM252 512q0 -155 42 -248.5t120 -118.5v736q-76 -26 -119 -118.5t-43 -250.5z" />
    <glyph glyph-name="cent.c2sc" horiz-adv-x="782" 
d="M721 315q-75 -155 -240 -178v-137h-114v137q-132 19 -214.5 119.5t-82.5 261.5q0 158 82.5 258t214.5 121v131h114v-131q157 -23 236 -166l-111 -67q-49 91 -125 108v-512q81 21 129 121zM240 518q0 -204 127 -252v500q-59 -23 -93 -85.5t-34 -162.5z" />
    <glyph glyph-name="colonmonetary.c2sc" horiz-adv-x="886" 
d="M829 287q-76 -245 -282 -281l-19 -139h-104l18 135q-58 4 -94 16l-20 -151h-103l27 199q-182 132 -182 444q0 212 83 344.5t228 163.5l18 131h103l-17 -121q57 -3 95 -14l18 135h102l-24 -178q97 -66 139 -209l-129 -45q-17 49 -33 76l-86 -639q86 38 131 180zM369 166
q42 -28 92 -31l100 742q-35 14 -84 14h-12zM244 512q0 -142 37 -229l75 567q-112 -85 -112 -338z" />
    <glyph glyph-name="currency.c2sc" horiz-adv-x="970" 
d="M825 524q0 -119 -59 -205l127 -133l-90 -86l-125 131q-83 -55 -195 -55q-113 0 -190 53l-125 -129l-90 86l125 129q-62 89 -62 209q0 115 60 203l-125 129l90 86l123 -127q83 55 194 55q115 0 197 -57l125 129l90 -86l-127 -133q57 -85 57 -199zM483 309q91 0 142 62
t51 153q0 90 -51 151.5t-142 61.5q-92 0 -143 -61.5t-51 -151.5q0 -91 51 -153t143 -62z" />
    <glyph glyph-name="dollar.c2sc" horiz-adv-x="845" 
d="M786 285q0 -120 -82.5 -193.5t-214.5 -87.5v-139h-112v137q-96 9 -181 56t-145 124l92 94q46 -56 108 -92t126 -45v320l-53 20q-112 42 -174 108t-62 171q0 108 79.5 182t209.5 86v127h112v-129q162 -23 267 -147l-94 -93q-74 81 -173 101v-295l46 -17q51 -20 90 -41.5
t78.5 -55.5t61 -82.5t21.5 -108.5zM262 766q0 -83 115 -131v252q-55 -10 -85 -43.5t-30 -77.5zM489 141q59 12 91 46.5t32 86.5q0 48 -31 80.5t-92 59.5v-273z" />
    <glyph glyph-name="dong.c2sc" horiz-adv-x="837" 
d="M647 940h123v-109h-123v-655h-139v72q-62 -84 -174 -84q-110 0 -184 79t-74 214q0 133 74.5 212t183.5 79q105 0 166 -74v157h-234v109h234v88h147v-88zM365 266q65 0 102 52t37 139q0 86 -37 136t-102 50q-62 0 -100 -50.5t-38 -135.5q0 -87 38 -139t100 -52zM84 0v109
h639v-109h-639z" />
    <glyph glyph-name="Euro.c2sc" horiz-adv-x="946" 
d="M760 291l125 -45q-37 -132 -124 -198t-208 -66q-141 0 -242.5 95t-132.5 275h-117v107h105q-2 18 -2 55q0 46 2 66h-105v106h117q34 176 134.5 268.5t240.5 92.5q121 0 204.5 -66t121.5 -193l-129 -43q-48 164 -187 164q-77 0 -129.5 -55.5t-75.5 -167.5h283v-106h-295
q-2 -20 -2 -66q0 -37 2 -55h295v-107h-285q21 -117 75 -175t134 -58q70 0 118.5 40.5t76.5 131.5z" />
    </font>
</defs>
</svg>
