<svg width="50" height="50" viewBox="0 0 50 50" fill="none" xmlns="http://www.w3.org/2000/svg">
<path d="M6.62891 39.4375L10.4007 39.5074C10.4007 41.5707 12.0809 43.2377 14.1607 43.2377C16.2404 43.2377 17.9207 41.5707 17.9207 39.5074V21.7888C17.9207 19.7255 16.2404 18.0586 14.1607 18.0586C12.0809 18.0586 10.4007 19.7255 10.4007 21.7888H7.58066" stroke="white" stroke-width="2" stroke-miterlimit="10"/>
<path d="M41.42 21.786H38.6C38.6 19.7228 36.9197 18.0558 34.84 18.0558C32.7602 18.0558 31.08 19.7228 31.08 21.786V39.5047C31.08 41.5679 32.7602 43.2349 34.84 43.2349C36.9197 43.2349 38.6 41.5679 38.6 39.5047H41.42C45.0507 39.5047 48 36.5788 48 32.9767V28.314C48 24.7119 45.0507 21.786 41.42 21.786ZM41.42 21.786C41.42 12.5188 33.8412 5 24.5 5C15.1587 5 7.58 12.5188 7.58 21.786C3.94925 21.786 1 24.7119 1 28.314V32.9767C1.01175 36.2174 3.40875 38.9684 6.64 39.4347" stroke="white" stroke-width="2" stroke-miterlimit="10"/>
<path d="M10.4023 21.7891V39.5077" stroke="white" stroke-width="2" stroke-miterlimit="10"/>
<path d="M38.5996 21.7891V39.5077" stroke="white" stroke-width="2" stroke-miterlimit="10"/>
</svg>
