<svg width="50" height="50" viewBox="0 0 50 50" fill="none" xmlns="http://www.w3.org/2000/svg">
<g clip-path="url(#clip0)">
<path fill-rule="evenodd" clip-rule="evenodd" d="M30.2216 1.01481C28.0465 0.159582 25.7007 -0.16213 23.3777 0.076457C23.3721 0.0770384 23.3664 0.077666 23.3608 0.0783393C22.0431 0.21373 20.7451 0.528156 19.5028 1.01663C17.3278 1.87184 15.3863 3.23586 13.8378 4.99551C12.4614 6.55968 11.4306 8.39671 10.8092 10.3845H9.40249H9.4013C7.20042 10.3872 5.06856 11.1534 3.36346 12.553C1.65853 13.9524 0.484303 15.8994 0.0358017 18.0663C-0.412685 20.2331 -0.108649 22.4898 0.897607 24.458C1.90395 26.4265 3.55203 27.9877 5.56697 28.8778C6.07216 29.101 6.66261 28.8724 6.88577 28.3672C7.10894 27.862 6.88032 27.2715 6.37513 27.0484C4.78279 26.345 3.4769 25.1096 2.67839 23.5476C1.87979 21.9856 1.63798 20.1931 1.99429 18.4716C2.35058 16.7503 3.28279 15.2066 4.63236 14.0989C5.98174 12.9913 7.66648 12.3866 9.40367 12.3845H11.5643C12.021 12.3845 12.4198 12.0751 12.533 11.6326C13.0379 9.66066 14 7.83873 15.3393 6.31674C16.6786 4.79478 18.3566 3.61637 20.2347 2.87792C22.1127 2.13947 24.1375 1.8619 26.1423 2.06781C26.1698 2.07062 26.197 2.0723 26.2241 2.07289C27.3392 2.1933 28.4375 2.46236 29.4897 2.8761C31.3678 3.61455 33.0458 4.79296 34.3851 6.31492C35.7244 7.83692 36.6865 9.65884 37.1914 11.6308C37.3046 12.0732 37.7034 12.3827 38.1601 12.3827H40.3207C42.0579 12.3848 43.7427 12.9895 45.092 14.0971C46.4416 15.2048 47.3738 16.7484 47.7301 18.4698C48.0864 20.1913 47.8446 21.9837 47.046 23.5458C46.2475 25.1077 44.9416 26.3432 43.3493 27.0466C42.8441 27.2697 42.6155 27.8602 42.8386 28.3654C43.0618 28.8706 43.6522 29.0992 44.1574 28.876C46.1724 27.9859 47.8204 26.4247 48.8268 24.4562C49.833 22.4879 50.1371 20.2312 49.6886 18.0644C49.2401 15.8976 48.0659 13.9505 46.3609 12.5511C44.6558 11.1516 42.524 10.3853 40.3231 10.3827H40.3219H38.9152C38.2938 8.39489 37.263 6.55787 35.8866 4.99369C34.3381 3.23404 32.3966 1.87002 30.2216 1.01481Z" fill="white"/>
<path d="M35 14L25.5 23.5L20.5 18.5L13 26" stroke="white" stroke-width="2" stroke-linecap="round" stroke-linejoin="round"/>
<path d="M29 14H35V20" stroke="white" stroke-width="2" stroke-linecap="round" stroke-linejoin="round"/>
<path d="M16 38H9C8.44772 38 8 38.5472 8 39.2222V47.7778C8 48.4528 8.44772 49 9 49H16C16.5523 49 17 48.4528 17 47.7778V39.2222C17 38.5472 16.5523 38 16 38Z" stroke="white" stroke-width="2" stroke-linecap="round" stroke-linejoin="round"/>
<path d="M28 30H21C20.4477 30 20 30.9452 20 32.1111V46.8889C20 48.0548 20.4477 49 21 49H28C28.5523 49 29 48.0548 29 46.8889V32.1111C29 30.9452 28.5523 30 28 30Z" stroke="white" stroke-width="2" stroke-linecap="round" stroke-linejoin="round"/>
<path d="M40 33H33C32.4477 33 32 33.7959 32 34.7778V47.2222C32 48.2041 32.4477 49 33 49H40C40.5523 49 41 48.2041 41 47.2222V34.7778C41 33.7959 40.5523 33 40 33Z" stroke="white" stroke-width="2" stroke-linecap="round" stroke-linejoin="round"/>
</g>
<defs>
<clipPath id="clip0">
<rect width="50" height="50" fill="white"/>
</clipPath>
</defs>
</svg>
