<svg width="50" height="50" viewBox="0 0 50 50" fill="none" xmlns="http://www.w3.org/2000/svg">
<path d="M41.28 31.702H46.068C47.66 31.702 48.9408 32.9828 48.9408 34.5748V46.0661C48.9408 47.6581 47.66 48.9389 46.068 48.9389H34.5768C32.9847 48.9389 31.7039 47.6581 31.7039 46.0661V34.5748C31.7039 32.9828 32.9847 31.702 34.5768 31.702H41.28ZM41.28 31.702V24.9987C41.28 24.4721 40.8491 24.0411 40.3224 24.0411H25M25 24.0411V18.2955M25 24.0411H9.679C9.15232 24.0411 8.72139 24.4721 8.72139 24.9987V31.702M25 18.2955H30.7463C32.3384 18.2955 33.6191 17.0147 33.6191 15.4227V3.93141C33.6191 2.33939 32.3384 1.05859 30.7463 1.05859H19.2551C17.663 1.05859 16.3822 2.33939 16.3822 3.93141V15.4227C16.3822 17.0147 17.663 18.2955 19.2551 18.2955H25ZM8.72139 31.702H3.93336C2.34134 31.702 1.06055 32.9828 1.06055 34.5748V46.0661C1.06055 47.6581 2.34134 48.9389 3.93336 48.9389H15.4246C17.0167 48.9389 18.2975 47.6581 18.2975 46.0661V34.5748C18.2975 32.9828 17.0167 31.702 15.4246 31.702H8.72139Z" stroke="#FFFEFE" stroke-width="2" stroke-miterlimit="10"/>
</svg>
