<svg width="50" height="50" viewBox="0 0 50 50" fill="none" xmlns="http://www.w3.org/2000/svg">
<g clip-path="url(#clip0)">
<path d="M25.0216 25.0216H14.7851C14.1846 25.0489 13.7205 25.5539 13.7342 26.1545C13.7478 26.4547 13.8843 26.7277 14.1027 26.9324C14.7988 27.5603 15.1946 28.4474 15.1946 29.3892C15.1946 31.2045 13.7342 32.6649 11.9189 32.6649C10.1036 32.6649 8.64324 31.2045 8.64324 29.3892C8.64324 28.4474 9.03905 27.5603 9.73514 26.9324C10.1855 26.5366 10.2265 25.8405 9.83068 25.3901C9.63959 25.1718 9.35297 25.0353 9.0527 25.0216H1M25.0216 25.0216H16.9143M25.0216 25.0216V35.2581C25.0216 35.8587 25.513 36.35 26.1135 36.35C26.4274 36.35 26.7277 36.2135 26.9324 35.9815C27.5466 35.2718 28.4474 34.8487 29.3892 34.8487C31.2045 34.8487 32.6649 36.3091 32.6649 38.1243C32.6649 39.9396 31.2045 41.4 29.3892 41.4C28.4474 41.4 27.5603 41.0042 26.9324 40.3081C26.5366 39.8577 25.8405 39.8168 25.3901 40.2126C25.1581 40.4173 25.0216 40.7176 25.0216 41.0315V49.0432H2.09189C1.49135 49.0432 1 48.5519 1 47.9514V25.0216M1 25.0216V2.09189C1 1.49135 1.49135 1 2.09189 1H25.0216V6.92351" stroke="white" stroke-width="2" stroke-miterlimit="10"/>
<path d="M25.0352 25.0222H35.2716C35.8722 24.9949 36.3362 24.4899 36.3226 23.8893C36.3089 23.589 36.1725 23.3161 35.9541 23.1113C35.258 22.4835 34.8622 21.5963 34.8622 20.6546C34.8622 18.8393 36.3226 17.3789 38.1379 17.3789C39.9531 17.3789 41.4135 18.8393 41.4135 20.6546C41.4135 21.5963 41.0177 22.4835 40.3216 23.1113C39.8712 23.5071 39.8303 24.2032 40.2261 24.6536C40.4172 24.872 40.7038 25.0085 41.0041 25.0222L50 25" stroke="white" stroke-width="2" stroke-miterlimit="10"/>
<path d="M33.1412 25.0216H25.0339V14.7851C25.0339 14.1846 24.5425 13.6932 23.942 13.6932C23.6281 13.6932 23.3278 13.8297 23.1231 14.0618C22.5089 14.7715 21.6081 15.1946 20.6663 15.1946C18.851 15.1946 17.3906 13.7342 17.3906 11.9189C17.3906 10.1036 18.851 8.64324 20.6663 8.64324C21.6081 8.64324 22.4952 9.03905 23.1231 9.73514C23.5189 10.1855 24.2149 10.2265 24.6654 9.83068C24.8974 9.62595 25.0339 9.32568 25.0339 9.01176V1H47.9636C48.5641 1 49.0555 1.49135 49.0555 2.09189V25.0216" stroke="white" stroke-width="2" stroke-miterlimit="10"/>
</g>
<defs>
<clipPath id="clip0">
<rect width="50" height="50" fill="white"/>
</clipPath>
</defs>
</svg>
