<svg width="50" height="50" viewBox="0 0 50 50" fill="none" xmlns="http://www.w3.org/2000/svg">
<g clip-path="url(#clip0)">
<path fill-rule="evenodd" clip-rule="evenodd" d="M30.2216 5.01481C28.0465 4.15958 25.7007 3.83787 23.3777 4.07646C23.3721 4.07704 23.3664 4.07767 23.3608 4.07834C22.0432 4.21373 20.7451 4.52815 19.5028 5.01663C17.3278 5.87184 15.3863 7.23586 13.8378 8.99551C12.4614 10.5597 11.4306 12.3967 10.8092 14.3845H9.40249H9.4013C7.20042 14.3872 5.06856 15.1534 3.36346 16.553C1.65853 17.9524 0.484303 19.8994 0.0358017 22.0663C-0.412685 24.2331 -0.108649 26.4898 0.897607 28.458C1.90395 30.4265 3.55203 31.9877 5.56697 32.8778C6.07216 33.101 6.66261 32.8724 6.88577 32.3672C7.10894 31.862 6.88032 31.2715 6.37513 31.0484C4.78279 30.345 3.4769 29.1096 2.67839 27.5476C1.87979 25.9856 1.63798 24.1931 1.99429 22.4716C2.35058 20.7503 3.28279 19.2066 4.63236 18.0989C5.98174 16.9913 7.66648 16.3866 9.40367 16.3845H11.5643C12.021 16.3845 12.4198 16.0751 12.533 15.6326C13.0379 13.6607 14 11.8387 15.3393 10.3167C16.6786 8.79478 18.3566 7.61637 20.2347 6.87792C22.1127 6.13947 24.1375 5.8619 26.1423 6.06781C26.1698 6.07062 26.197 6.0723 26.2241 6.07289C27.3392 6.1933 28.4375 6.46236 29.4897 6.8761C31.3678 7.61455 33.0458 8.79296 34.3851 10.3149C35.7244 11.8369 36.6865 13.6588 37.1914 15.6308C37.3046 16.0732 37.7034 16.3827 38.1601 16.3827H40.3207C42.0579 16.3848 43.7427 16.9895 45.092 18.0971C46.4416 19.2048 47.3738 20.7484 47.7301 22.4698C48.0864 24.1913 47.8446 25.9837 47.046 27.5458C46.2475 29.1077 44.9416 30.3432 43.3493 31.0466C42.8441 31.2697 42.6155 31.8602 42.8386 32.3654C43.0618 32.8706 43.6522 33.0992 44.1574 32.876C46.1724 31.9859 47.8205 30.4247 48.8268 28.4562C49.833 26.4879 50.1371 24.2312 49.6886 22.0644C49.2401 19.8976 48.0659 17.9505 46.3609 16.5511C44.6558 15.1516 42.524 14.3853 40.3231 14.3827H40.3219H38.9152C38.2938 12.3949 37.263 10.5579 35.8866 8.99369C34.3381 7.23404 32.3966 5.87002 30.2216 5.01481Z" fill="white"/>
<path d="M36.2764 23.7308C35.6248 23.0768 34.8512 22.558 33.9997 22.2041C33.1482 21.8501 32.2356 21.668 31.3139 21.668C30.3922 21.668 29.4795 21.8501 28.628 22.2041C27.7765 22.558 27.0029 23.0768 26.3513 23.7308L24.999 25.0874L23.6467 23.7308C22.3306 22.4104 20.5455 21.6687 18.6842 21.6687C16.8228 21.6687 15.0377 22.4104 13.7216 23.7308C12.4054 25.0512 11.666 26.842 11.666 28.7093C11.666 30.5766 12.4054 32.3674 13.7216 33.6878L15.0739 35.0444L24.999 45.0013L34.9242 35.0444L36.2764 33.6878C36.9283 33.0341 37.4454 32.258 37.7983 31.4037C38.1511 30.5495 38.3327 29.6339 38.3327 28.7093C38.3327 27.7846 38.1511 26.869 37.7983 26.0148C37.4454 25.1606 36.9283 24.3845 36.2764 23.7308V23.7308Z" stroke="white" stroke-width="2" stroke-linecap="round" stroke-linejoin="round"/>
</g>
<defs>
<clipPath id="clip0">
<rect width="50" height="50" fill="white"/>
</clipPath>
</defs>
</svg>
