<svg width="50" height="50" viewBox="0 0 50 50" fill="none" xmlns="http://www.w3.org/2000/svg">
<path d="M33.3427 47V40.4667H45.476C47.0277 40.4667 48.276 39.2183 48.276 37.6667V7.8C48.276 6.24833 47.0277 5 45.476 5H4.40938C2.85771 5 1.60938 6.24833 1.60938 7.8V37.6667C1.60938 39.2183 2.85771 40.4667 4.40938 40.4667H16.5427V47" stroke="white" stroke-width="2" stroke-miterlimit="10"/>
<path d="M1.59766 34.6523H48.2877" stroke="white" stroke-width="2" stroke-miterlimit="10"/>
<path d="M16.543 40.4688H33.343" stroke="white" stroke-width="2" stroke-miterlimit="10"/>
<path d="M32.2449 17.4942C32.1516 17.3426 31.9882 17.2492 31.8132 17.2492H25.3382L26.4232 8.95424C26.4466 8.6859 26.2482 8.4409 25.9799 8.4059C25.7932 8.38257 25.6182 8.4759 25.5132 8.62757L17.6382 22.4292C17.4982 22.6626 17.5682 22.9659 17.8016 23.1059C17.8832 23.1526 17.9649 23.1759 18.0582 23.1759H24.4399L23.5766 31.4826C23.5532 31.7509 23.7632 31.9959 24.0316 32.0192C24.2182 32.0309 24.3932 31.9492 24.4866 31.7859L32.2332 17.9842C32.3382 17.8442 32.3382 17.6576 32.2449 17.4942Z" stroke="white" stroke-width="2" stroke-miterlimit="10"/>
<path d="M11 47H39" stroke="white" stroke-width="2" stroke-linecap="round" stroke-linejoin="round"/>
</svg>
