<svg width="50" height="50" viewBox="0 0 50 50" fill="none" xmlns="http://www.w3.org/2000/svg">
<path d="M24.9747 11.9023C21.2684 11.9023 18.2578 14.8779 18.2578 18.5411C18.2578 22.2042 21.2684 25.1798 24.9747 25.1798C28.681 25.1798 31.6916 22.2042 31.6916 18.5411C31.6916 14.8779 28.681 11.9023 24.9747 11.9023Z" stroke="white" stroke-width="2" stroke-miterlimit="10"/>
<path d="M42.2468 34.6678C39.9558 34.6797 37.8208 35.8296 36.5854 37.7501C36.0936 37.5959 35.5659 37.513 35.0501 37.513C33.215 37.513 31.5379 41 30.5522 40.0143C29.5665 39.0287 29.2448 36.5646 29.2448 36.5646H29.5567C30.6481 36.5646 31.6437 35.96 32.1355 34.9879L34.2225 30.8742H34.5943C36.1896 30.8742 37.473 29.6058 37.473 28.0291H43.2303C44.8256 28.0291 46.109 26.7606 46.109 25.1839C46.109 22.4929 44.7536 19.9915 42.4866 18.4978L36.0097 14.23C34.2345 9.17985 31.008 4.76985 26.702 1.56903C25.6825 0.810322 24.2671 0.810322 23.2476 1.56903C18.9416 4.7817 15.7151 9.17985 13.9639 14.23L7.48691 18.4978C5.21996 19.9915 3.86459 22.5047 3.86459 25.1839C3.86459 26.7606 5.14799 28.0291 6.74325 28.0291H12.5006C12.5006 29.6058 13.784 30.8742 15.3792 30.8742H15.7511L17.8381 34.9879C18.3179 35.96 19.3254 36.5646 20.4169 36.5646H20.7288C20.7288 36.5646 19.907 39.5287 19.4214 40.0143C18.9357 40.5 16.7586 37.513 14.9235 37.513C14.4077 37.513 13.8799 37.5959 13.3882 37.7501C11.3971 34.6559 7.24702 33.7431 4.11647 35.6992C0.985925 37.6552 0.0623536 41.7689 2.04143 44.863C3.27686 46.7835 5.42386 47.9452 7.72679 47.9452H42.2707C45.977 47.9452 48.9876 44.9697 48.9876 41.3065C48.9876 37.6434 45.953 34.6678 42.2468 34.6678Z" stroke="white" stroke-width="2" stroke-miterlimit="10"/>
<path d="M13.9396 14.2305C13.2799 17.0993 12.4883 28.0295 12.4883 28.0295" stroke="white" stroke-width="2" stroke-miterlimit="10"/>
<path d="M37.448 28.0139C37.448 28.0139 36.6324 17.0837 35.9727 14.2148" stroke="white" stroke-width="2" stroke-miterlimit="10"/>
<path d="M34.1977 30.8711H15.7383" stroke="white" stroke-width="2" stroke-miterlimit="10"/>
<path d="M29.2312 36.5625H20.7031" stroke="white" stroke-width="2" stroke-miterlimit="10"/>
</svg>
