<svg width="50" height="50" viewBox="0 0 50 50" fill="none" xmlns="http://www.w3.org/2000/svg">
<g clip-path="url(#clip0)">
<path d="M30 17C34.4183 17 38 13.4183 38 9C38 4.58172 34.4183 1 30 1C25.5817 1 22 4.58172 22 9C22 13.4183 25.5817 17 30 17Z" stroke="white" stroke-width="2" stroke-miterlimit="10"/>
<path d="M14 35C18.9706 35 23 30.9706 23 26C23 21.0294 18.9706 17 14 17C9.02944 17 5 21.0294 5 26C5 30.9706 9.02944 35 14 35Z" stroke="white" stroke-width="2" stroke-miterlimit="10"/>
<path d="M39.5124 48.3039C45.1683 47.7616 49.3122 42.7206 48.768 37.0444C48.2238 31.3683 43.1976 27.2064 37.5417 27.7486C31.8858 28.2909 27.7419 33.3319 28.2861 39.0081C28.8303 44.6842 33.8565 48.8461 39.5124 48.3039Z" stroke="white" stroke-width="2" stroke-miterlimit="10"/>
<path d="M28.8376 34.4647L21.166 30.2734" stroke="white" stroke-width="2" stroke-miterlimit="10"/>
<path d="M20 19L25 14" stroke="white" stroke-width="2" stroke-miterlimit="10"/>
<path d="M18 30V29.3333C18 28.9797 17.7893 28.6406 17.4142 28.3905C17.0391 28.1405 16.5304 28 16 28H12C11.4696 28 10.9609 28.1405 10.5858 28.3905C10.2107 28.6406 10 28.9797 10 29.3333V30" stroke="white" stroke-width="2" stroke-linecap="round" stroke-linejoin="round"/>
<path d="M34 13V12.3333C34 11.9797 33.7893 11.6406 33.4142 11.3905C33.0391 11.1405 32.5304 11 32 11H28C27.4696 11 26.9609 11.1405 26.5858 11.3905C26.2107 11.6406 26 11.9797 26 12.3333V13" stroke="white" stroke-width="2" stroke-linecap="round" stroke-linejoin="round"/>
<path d="M42.6582 42.9063V42.2396C42.6582 41.886 42.4475 41.5468 42.0724 41.2968C41.6973 41.0467 41.1886 40.9062 40.6582 40.9062H36.6582C36.1278 40.9062 35.6191 41.0467 35.244 41.2968C34.8689 41.5468 34.6582 41.886 34.6582 42.2396V42.9063" stroke="white" stroke-width="2" stroke-linecap="round" stroke-linejoin="round"/>
<path d="M14 25C15.1046 25 16 24.1046 16 23C16 21.8954 15.1046 21 14 21C12.8954 21 12 21.8954 12 23C12 24.1046 12.8954 25 14 25Z" stroke="white" stroke-width="2" stroke-linecap="round" stroke-linejoin="round"/>
<path d="M30 8C31.1046 8 32 7.10457 32 6C32 4.89543 31.1046 4 30 4C28.8954 4 28 4.89543 28 6C28 7.10457 28.8954 8 30 8Z" stroke="white" stroke-width="2" stroke-linecap="round" stroke-linejoin="round"/>
<path d="M38.6582 37.9062C39.7628 37.9062 40.6582 37.0108 40.6582 35.9062C40.6582 34.8017 39.7628 33.9062 38.6582 33.9062C37.5536 33.9062 36.6582 34.8017 36.6582 35.9062C36.6582 37.0108 37.5536 37.9062 38.6582 37.9062Z" stroke="white" stroke-width="2" stroke-linecap="round" stroke-linejoin="round"/>
</g>
<defs>
<clipPath id="clip0">
<rect width="50" height="50" fill="white"/>
</clipPath>
</defs>
</svg>
