<svg width="50" height="50" viewBox="0 0 50 50" fill="none" xmlns="http://www.w3.org/2000/svg">
<g clip-path="url(#clip0)">
<path fill-rule="evenodd" clip-rule="evenodd" d="M30.2209 3.34818C28.0458 2.49296 25.7 2.17124 23.377 2.40983C23.3711 2.41044 23.3653 2.41109 23.3594 2.4118C22.042 2.54723 20.7443 2.86163 19.5023 3.35C17.3272 4.20521 15.3857 5.56923 13.8373 7.32889C12.4608 8.89306 11.43 10.7301 10.8086 12.7179H9.40191H9.40072C7.19984 12.7205 5.06798 13.4868 3.36288 14.8863C1.65795 16.2857 0.483723 18.2328 0.0352218 20.3996C-0.413264 22.5664 -0.109229 24.8231 0.897027 26.7914C1.90337 28.7599 3.55145 30.3211 5.56639 31.2112C6.07158 31.4344 6.66203 31.2057 6.88519 30.7006C7.10836 30.1954 6.87974 29.6049 6.37455 29.3818C4.78221 28.6783 3.47632 27.4429 2.67781 25.881C1.87921 24.3189 1.6374 22.5265 1.99371 20.805C2.35 19.0836 3.28221 17.54 4.63178 16.4323C5.98116 15.3247 7.6659 14.72 9.40309 14.7179H11.5637C12.0205 14.7179 12.4192 14.4084 12.5325 13.966C13.0373 11.994 13.9994 10.1721 15.3387 8.65011C16.678 7.12815 18.356 5.94975 20.2341 5.21129C22.1122 4.47285 24.1369 4.19528 26.1418 4.40118C26.1691 4.40399 26.1964 4.40567 26.2234 4.40626C27.3385 4.52667 28.4368 4.79573 29.489 5.20947C31.3671 5.94793 33.0451 7.12634 34.3844 8.64829C35.7237 10.1703 36.6858 11.9922 37.1907 13.9641C37.304 14.4066 37.7027 14.7161 38.1594 14.7161H40.32C42.0572 14.7182 43.742 15.3229 45.0914 16.4305C46.4409 17.5382 47.3731 19.0818 47.7294 20.8032C48.0857 22.5247 47.8439 24.3171 47.0453 25.8792C46.2468 27.4411 44.9409 28.6765 43.3486 29.3799C42.8434 29.6031 42.6148 30.1936 42.8379 30.6987C43.0611 31.2039 43.6515 31.4326 44.1567 31.2094C46.1717 30.3193 47.8198 28.758 48.8261 26.7896C49.8324 24.8213 50.1364 22.5646 49.6879 20.3978C49.2394 18.2309 48.0652 16.2839 46.3603 14.8845C44.6551 13.485 42.5233 12.7187 40.3224 12.7161H40.3212H38.9145C38.2931 10.7283 37.2623 8.89124 35.8859 7.32707C34.3374 5.56741 32.3959 4.2034 30.2209 3.34818Z" fill="white"/>
<path d="M19.0738 37.3455C18.9273 36.3091 18.3595 35.3727 17.5079 34.7636C14.7515 32.7182 12.9749 29.6455 12.5812 26.2545C11.8028 19.4727 16.7112 13.3545 23.5427 12.5818C24.0097 12.5273 24.4859 12.5 24.9621 12.5C31.8394 12.5 37.4163 18.0364 37.4072 24.8636C37.4255 28.7818 35.5482 32.4727 32.3614 34.7909C31.5006 35.3909 30.9603 36.3182 30.8321 37.3455M19.0738 37.3455C19.0738 37.3636 19.0647 37.3727 19.0555 37.3727C18.2039 37.6909 17.6453 38.5 17.6361 39.4V40.8273C17.6361 42.0455 18.6343 43.0364 19.8614 43.0364M19.0738 37.3455H30.8321M19.8614 43.0364C19.8797 43.0364 19.8888 43.0455 19.8888 43.0636C20.3009 45.8364 22.8925 47.7455 25.6856 47.3455C27.9291 47.0273 29.6965 45.2818 30.0262 43.0636C30.0262 43.0455 30.0445 43.0364 30.0537 43.0364M19.8614 43.0364H30.0537M30.0537 43.0364C31.2808 43.0364 32.279 42.0455 32.279 40.8273V39.4C32.2698 38.5 31.7112 37.6909 30.8504 37.3727C30.8412 37.3636 30.8321 37.3545 30.8321 37.3455" stroke="white" stroke-width="2" stroke-miterlimit="10"/>
</g>
<defs>
<clipPath id="clip0">
<rect width="50" height="50" fill="white"/>
</clipPath>
</defs>
</svg>
