<?xml version="1.0" encoding="utf-8"?>
<!-- Generator: Adobe Illustrator 16.0.0, SVG Export Plug-In . SVG Version: 6.00 Build 0)  -->
<!DOCTYPE svg PUBLIC "-//W3C//DTD SVG 1.1//EN" "http://www.w3.org/Graphics/SVG/1.1/DTD/svg11.dtd">
<svg version="1.1" id="Layer_1" xmlns="http://www.w3.org/2000/svg" xmlns:xlink="http://www.w3.org/1999/xlink" x="0px" y="0px"
	 width="1027px" height="951px" viewBox="0 0 1027 951" enable-background="new 0 0 1027 951" xml:space="preserve">
<path id="Fill-1" fill="#76F4E3" d="M961.517,254.368c-32.63-68.695-129.335-145.587-176.004-179.982
	c-8.125-6.822-16.738-12.969-25.751-18.342c-0.004-0.002-0.021-0.013-0.021-0.013h-0.002c-26.584-15.845-56.615-24.978-87.72-24.978
	c-44.729,0-85.233,17.684-116.25,46.939h-0.004c-59.412,47.602-70.795,159.857-70.795,159.857
	c-6.611,45.589-22.472,83.908-22.472,83.908c-31.835,89.858-111.04,59.463-111.04,59.463
	c-39.448-11.267-74.822-16.156-96.476-18.261c-7.258-1.024-14.653-1.56-22.165-1.56c-102.776,0-193.327,92.145-193.327,193.585
	c0,62.154,31.065,120.063,76.915,155.604v0.002c0.106,0.085,0.218,0.165,0.327,0.25c0.953,0.735,1.909,1.468,2.875,2.184
	c43.888,32.847,95.696,44.795,95.696,44.795c64.111,10.57,95.176,44.928,95.176,44.928l64.771,58.801
	c64.773,52.196,115.666,56.161,115.666,56.161c101.784,13.212,163.256-36.34,163.256-36.34
	c60.146-40.304,91.871-121.567,91.871-121.567c35.03-99.104,83.938-128.176,83.938-128.176l47.589-41.624
	c84.601-75.979,101.787-157.904,101.787-157.904C1005.14,324.405,961.517,254.368,961.517,254.368"/>
</svg>
