<?xml version="1.0" standalone="no"?>
<!DOCTYPE svg PUBLIC "-//W3C//DTD SVG 1.1//EN" "http://www.w3.org/Graphics/SVG/1.1/DTD/svg11.dtd" >
<svg xmlns="http://www.w3.org/2000/svg" xmlns:xlink="http://www.w3.org/1999/xlink" version="1.1">
<metadata>
Created by FontForge 20160407 at Sat Oct  1 10:33:05 2016
 By Jimmy Warting
Copyright (c) 2010 by Aakash Soneri. All rights reserved.
</metadata>
<defs>
<font id="AccordAltThin" horiz-adv-x="480" >
  <font-face 
    font-family="AccordAltThin"
    font-weight="250"
    font-stretch="normal"
    units-per-em="1000"
    panose-1="2 0 0 0 0 0 0 0 0 0"
    ascent="750"
    descent="-250"
    x-height="500"
    cap-height="650"
    bbox="-88 -250.078 1223 907"
    underline-thickness="50"
    underline-position="-100"
    stemh="35"
    stemv="39"
    unicode-range="U+0020-FB02"
  />
<missing-glyph horiz-adv-x="184" 
 />
    <glyph glyph-name=".notdef" horiz-adv-x="184" 
 />
    <glyph glyph-name="A" unicode="A" horiz-adv-x="532" 
d="M492 0l-79 208h-294l-79 -208h-40l246 650h40l246 -650h-40zM266 595l-134 -352h267z" />
    <glyph glyph-name="B" unicode="B" horiz-adv-x="553" 
d="M63 650h206c162 0 224 -75 224 -168c0 -73 -32 -123 -109 -146c92 -21 129 -77 129 -161c0 -100 -62 -175 -224 -175h-226v650zM289 315h-187v-280h187c138 0 185 57 185 140s-47 140 -185 140zM269 615h-167v-265h167c138 0 185 57 185 132c0 76 -47 133 -185 133z" />
    <glyph glyph-name="C" unicode="C" horiz-adv-x="497" 
d="M84 368v-86c0 -186 87 -255 216 -255c71 0 142 28 168 49l11 -34c-39 -25 -92 -50 -179 -50c-148 0 -255 83 -255 290v86c0 207 107 290 255 290c80 0 132 -24 179 -48l-11 -35c-39 25 -107 48 -168 48c-129 0 -216 -70 -216 -255z" />
    <glyph glyph-name="D" unicode="D" horiz-adv-x="538" 
d="M63 0v650h195c136 0 235 -77 235 -274v-102c0 -197 -99 -274 -235 -274h-195zM454 274v102c0 175 -79 239 -196 239h-156v-580h156c117 0 196 63 196 239z" />
    <glyph glyph-name="E" unicode="E" 
d="M102 325v-290h351v-35h-390v650h390v-35h-351v-255h311v-35h-311z" />
    <glyph glyph-name="F" unicode="F" horiz-adv-x="471" 
d="M102 325v-325h-39v650h390v-35h-351v-255h311v-35h-311z" />
    <glyph glyph-name="G" unicode="G" horiz-adv-x="524" 
d="M272 298v35h207v-291c-39 -25 -92 -50 -179 -50c-148 0 -255 83 -255 290v86c0 207 107 290 255 290c82 0 132 -25 179 -48l-11 -35c-39 25 -107 48 -168 48c-129 0 -216 -70 -216 -255v-86c0 -186 87 -255 216 -255c57 0 106 15 140 31v240h-168z" />
    <glyph glyph-name="H" unicode="H" horiz-adv-x="556" 
d="M102 325v-325h-39v650h39v-290h352v290h39v-650h-39v325h-352z" />
    <glyph glyph-name="I" unicode="I" horiz-adv-x="165" 
d="M63 0v650h39v-650h-39z" />
    <glyph glyph-name="J" unicode="J" horiz-adv-x="390" 
d="M327 650v-458c0 -156 -73 -200 -169 -200c-57 0 -101 14 -140 32l11 34c33 -18 76 -31 129 -31c77 0 130 28 130 165v423h-229v35h268z" />
    <glyph glyph-name="K" unicode="K" horiz-adv-x="446" 
d="M132 340l247 310h47l-247 -310l267 -340h-47zM63 0v650h39v-650h-39z" />
    <glyph glyph-name="L" unicode="L" horiz-adv-x="422" 
d="M63 0v650h39v-615h311v-35h-350z" />
    <glyph glyph-name="M" unicode="M" horiz-adv-x="662" 
d="M63 0v650h43l225 -378l225 378h43v-650h-39v584l-229 -384l-229 384v-584h-39z" />
    <glyph glyph-name="N" unicode="N" horiz-adv-x="556" 
d="M63 0v650h43l348 -585v585h39v-650h-43l-348 584v-584h-39z" />
    <glyph glyph-name="O" unicode="O" horiz-adv-x="560" 
d="M476 282v86c0 187 -79 255 -196 255s-196 -68 -196 -255v-86c0 -188 79 -255 196 -255s196 67 196 255zM45 282v86c0 209 99 290 235 290s235 -81 235 -290v-86c0 -209 -99 -290 -235 -290s-235 81 -235 290z" />
    <glyph glyph-name="P" unicode="P" horiz-adv-x="520" 
d="M63 650h206c162 0 224 -83 224 -195s-62 -195 -224 -195h-167v-260h-39v650zM269 615h-167v-320h167c138 0 185 65 185 160s-47 160 -185 160z" />
    <glyph glyph-name="Q" unicode="Q" horiz-adv-x="560" 
d="M120 -73v35c112 100 223 -100 335 0v-35c-112 -100 -223 100 -335 0zM476 282v86c0 187 -79 255 -196 255s-196 -68 -196 -255v-86c0 -188 79 -255 196 -255s196 67 196 255zM45 282v86c0 209 99 290 235 290s235 -81 235 -290v-86c0 -209 -99 -290 -235 -290
s-235 81 -235 290z" />
    <glyph glyph-name="R" unicode="R" horiz-adv-x="533" 
d="M489 0l-191 290h-196v-290h-39v650h206c162 0 224 -75 224 -180c0 -90 -46 -157 -155 -175l195 -295h-44zM269 615h-167v-290h167c138 0 185 57 185 145s-47 145 -185 145z" />
    <glyph glyph-name="S" unicode="S" horiz-adv-x="473" 
d="M33 40l11 35c112 -78 357 -70 357 88c0 183 -358 105 -358 332c0 198 269 188 375 115l-11 -35c-95 73 -325 78 -325 -79c0 -194 358 -112 358 -334c0 -197 -286 -203 -407 -122z" />
    <glyph glyph-name="T" unicode="T" horiz-adv-x="511" 
d="M16 615v35h479v-35h-220v-615h-39v615h-220z" />
    <glyph glyph-name="U" unicode="U" horiz-adv-x="558" 
d="M54 282v368h39v-368c0 -188 75 -255 186 -255s186 67 186 255v368h39v-368c0 -209 -95 -290 -225 -290s-225 81 -225 290z" />
    <glyph glyph-name="V" unicode="V" horiz-adv-x="512" 
d="M512 650l-236 -650h-40l-236 650h40l216 -595l216 595h40z" />
    <glyph glyph-name="W" unicode="W" horiz-adv-x="841" 
d="M440 650l176 -586l177 586h39l-196 -650h-39l-177 585l-176 -585h-39l-196 650h39l176 -586l177 586h39z" />
    <glyph glyph-name="X" unicode="X" horiz-adv-x="497" 
d="M64 650l184 -277l185 277h44l-207 -310l227 -340h-44l-205 307l-204 -307h-44l226 340l-206 310h44z" />
    <glyph glyph-name="Y" unicode="Y" horiz-adv-x="536" 
d="M536 650l-248 -398v-252h-39v250l-249 400h43l225 -358l225 358h43z" />
    <glyph glyph-name="Z" unicode="Z" horiz-adv-x="486" 
d="M38 615v35h410v-35l-386 -580h406v-35h-450v35l386 580h-366z" />
    <glyph glyph-name="a" unicode="a" horiz-adv-x="451" 
d="M397 336v-316c-50 -15 -95 -26 -185 -26c-106 0 -185 41 -185 145v14c0 89 85 132 215 138l120 6v39c0 105 -59 137 -150 137c-64 0 -118 -15 -153 -30c-3 11 -7 21 -10 32c46 17 99 31 163 31c105 0 185 -43 185 -170zM362 45v221l-117 -6c-106 -5 -183 -37 -183 -107
v-14c0 -83 61 -112 150 -112c71 0 110 5 150 18z" />
    <glyph glyph-name="b" unicode="b" horiz-adv-x="478" 
d="M63 20v680h35v-216c27 12 68 22 120 22c125 0 215 -66 215 -238v-36c0 -172 -86 -238 -205 -238c-69 0 -117 10 -165 26zM398 232v36c0 152 -72 205 -180 205c-65 0 -102 -16 -120 -25v-403c37 -13 74 -18 130 -18c102 0 170 53 170 205z" />
    <glyph glyph-name="c" unicode="c" horiz-adv-x="409" 
d="M45 230v46c0 170 90 230 205 230c55 0 100 -21 132 -44c-3 -10 -7 -20 -10 -30c-27 20 -72 41 -122 41c-103 0 -170 -54 -170 -197v-46c0 -132 67 -203 180 -203c44 0 84 10 121 34c3 -10 7 -20 10 -30c-37 -24 -76 -37 -131 -37c-134 0 -215 86 -215 236z" />
    <glyph glyph-name="d" unicode="d" horiz-adv-x="478" 
d="M415 700v-680c-41 -13 -87 -26 -165 -26c-119 0 -205 66 -205 238v36c0 172 90 238 215 238c52 0 93 -10 120 -22v216h35zM80 268v-36c0 -152 68 -205 170 -205c60 0 97 6 130 18v403c-18 9 -55 25 -120 25c-108 0 -180 -53 -180 -205z" />
    <glyph glyph-name="e" unicode="e" horiz-adv-x="471" 
d="M435 271v-37h-355v-4c0 -149 72 -203 180 -203c64 0 115 14 150 34l10 -30c-46 -23 -96 -37 -160 -37c-128 0 -215 70 -215 236v41c0 165 79 235 195 235s195 -70 195 -235zM80 273v-6h320v6c0 147 -65 200 -160 200s-160 -53 -160 -200z" />
    <glyph glyph-name="f" unicode="f" horiz-adv-x="307" 
d="M63 0v538c0 125 63 168 148 168c49 0 85 -13 116 -31l-10 -30c-30 16 -60 28 -106 28c-68 0 -113 -32 -113 -135v-38h209v-33h-209v-467h-35z" />
    <glyph glyph-name="g" unicode="g" horiz-adv-x="478" 
d="M415 480v-520c0 -168 -79 -208 -191 -208c-65 0 -108 12 -153 36c3 10 7 20 10 30c40 -21 82 -33 143 -33c95 0 156 26 156 175v53c-40 -13 -85 -19 -130 -19c-119 0 -205 66 -205 238v36c0 172 90 238 215 238c62 0 116 -9 155 -26zM80 268v-36c0 -152 68 -205 170 -205
c16 0 32 1 48 3c31 4 60 11 82 19v407c-29 10 -58 17 -120 17c-108 0 -180 -53 -180 -205z" />
    <glyph glyph-name="h" unicode="h" horiz-adv-x="487" 
d="M63 0v700h35v-210c30 7 74 16 140 16c112 0 195 -35 195 -208v-298h-35v298c0 154 -65 175 -160 175c-67 0 -100 -5 -140 -18v-455h-35z" />
    <glyph glyph-name="i" unicode="i" horiz-adv-x="161" 
d="M63 0v500h35v-500h-35zM53 675c0 16 12 28 28 28s27 -12 27 -28c0 -15 -11 -27 -27 -27s-28 12 -28 27z" />
    <glyph glyph-name="j" unicode="j" horiz-adv-x="163" 
d="M98 500v-610c0 -107 -51 -138 -105 -138c-33 0 -61 10 -81 21l10 30c18 -10 42 -18 71 -18c37 0 70 21 70 105v610h35zM53 675c0 16 12 28 28 28s27 -12 27 -28c0 -15 -11 -27 -27 -27s-28 12 -28 27z" />
    <glyph glyph-name="k" unicode="k" horiz-adv-x="403" 
d="M128 263l209 237h46l-209 -237l229 -263h-46zM63 0v700h35v-700h-35z" />
    <glyph glyph-name="l" unicode="l" horiz-adv-x="215" 
d="M63 132v568h35v-568c0 -82 26 -103 64 -103c26 0 40 6 53 12l10 -30c-17 -9 -33 -15 -63 -15c-55 0 -99 32 -99 136z" />
    <glyph glyph-name="m" unicode="m" horiz-adv-x="742" 
d="M63 0v480c33 12 73 26 155 26c57 0 106 -12 138 -55c39 32 88 55 157 55c100 0 175 -35 175 -208v-298h-35v298c0 154 -57 175 -140 175c-66 0 -108 -22 -141 -50c13 -31 21 -71 21 -125v-298h-35v298c0 154 -57 175 -140 175c-59 0 -86 -5 -120 -18v-455h-35z" />
    <glyph glyph-name="n" unicode="n" horiz-adv-x="487" 
d="M63 0v480c37 12 83 26 175 26c112 0 195 -35 195 -208v-298h-35v298c0 154 -65 175 -160 175c-69 0 -100 -5 -140 -18v-455h-35z" />
    <glyph glyph-name="o" unicode="o" 
d="M400 232v36c0 152 -64 205 -160 205s-160 -53 -160 -205v-36c0 -152 64 -205 160 -205s160 53 160 205zM45 232v36c0 172 82 238 195 238s195 -66 195 -238v-36c0 -172 -82 -238 -195 -238s-195 66 -195 238z" />
    <glyph glyph-name="p" unicode="p" horiz-adv-x="478" 
d="M63 -250v730c39 16 86 26 155 26c125 0 215 -66 215 -238v-36c0 -172 -86 -238 -205 -238c-56 0 -101 9 -130 19v-263h-35zM398 232v36c0 152 -72 205 -180 205c-61 0 -92 -7 -120 -17v-407c24 -9 77 -22 130 -22c102 0 170 53 170 205z" />
    <glyph glyph-name="q" unicode="q" horiz-adv-x="478" 
d="M415 480v-730h-35v263c-29 -10 -74 -19 -130 -19c-119 0 -205 66 -205 238v36c0 172 90 238 215 238c63 0 114 -9 155 -26zM80 268v-36c0 -152 68 -205 170 -205c50 0 107 13 130 22v407c-29 11 -65 17 -120 17c-108 0 -180 -53 -180 -205z" />
    <glyph glyph-name="r" unicode="r" horiz-adv-x="284" 
d="M63 0v480c18 9 69 24 125 24c37 0 69 -6 91 -12l-10 -30c-21 5 -48 9 -81 9c-49 0 -72 -8 -90 -16v-455h-35z" />
    <glyph glyph-name="s" unicode="s" horiz-adv-x="431" 
d="M45 31l10 30c114 -54 296 -51 296 66c0 166 -295 46 -295 250c0 143 206 160 314 85l-10 -30c-100 68 -269 53 -269 -54c0 -175 295 -44 295 -254c0 -142 -214 -159 -341 -93z" />
    <glyph glyph-name="t" unicode="t" horiz-adv-x="343" 
d="M63 162v488h35v-150h209v-33h-209v-305c0 -103 45 -135 110 -135c45 0 86 14 116 34l10 -30c-35 -23 -77 -37 -126 -37c-82 0 -145 45 -145 168z" />
    <glyph glyph-name="u" unicode="u" horiz-adv-x="487" 
d="M424 500v-480c-34 -11 -80 -26 -175 -26c-112 0 -195 35 -195 208v298h35v-298c0 -154 65 -175 160 -175c67 0 100 5 140 18v455h35z" />
    <glyph glyph-name="v" unicode="v" horiz-adv-x="452" 
d="M36 500l190 -457l190 457h36l-208 -500h-36l-208 500h36z" />
    <glyph glyph-name="w" unicode="w" horiz-adv-x="726" 
d="M45 500l150 -447l150 447h36l150 -447l150 447h36l-168 -500h-36l-150 446l-150 -446h-36l-168 500h36z" />
    <glyph glyph-name="x" unicode="x" horiz-adv-x="440" 
d="M62 500l158 -209l158 209h42l-179 -237l199 -263h-42l-178 235l-178 -235h-42l199 263l-179 237h42z" />
    <glyph glyph-name="y" unicode="y" horiz-adv-x="487" 
d="M424 500v-540c0 -167 -79 -208 -189 -208c-76 0 -118 13 -165 36l10 30c43 -21 88 -33 155 -33c93 0 154 27 154 175v53c-31 -10 -75 -19 -140 -19c-114 0 -195 37 -195 208v298h35v-298c0 -152 63 -175 160 -175c67 0 103 10 140 22v451h35z" />
    <glyph glyph-name="z" unicode="z" horiz-adv-x="424" 
d="M27 467v33h370v-33l-328 -434h328v-33h-370v33l328 434h-328z" />
    <glyph glyph-name="comma" unicode="," horiz-adv-x="195" 
d="M59 31c0 20 15 35 35 35c37 0 40 -40 37 -71c-4 -40 -25 -111 -67 -145l-19 18c36 33 55 89 56 128c-27 -3 -42 16 -42 35z" />
    <glyph glyph-name="period" unicode="." horiz-adv-x="196" 
d="M63 31c0 20 15 35 35 35s35 -15 35 -35s-15 -35 -35 -35s-35 15 -35 35z" />
    <glyph glyph-name="zero" unicode="0" horiz-adv-x="506" 
d="M424 312v26c0 220 -67 285 -171 285s-171 -65 -171 -285v-26c0 -218 67 -283 171 -283s171 65 171 283zM43 312v26c0 230 74 320 210 320s210 -90 210 -320v-26c0 -228 -74 -318 -210 -318s-210 90 -210 318z" />
    <glyph glyph-name="one" unicode="1" horiz-adv-x="242" 
d="M9 615v35h170v-650h-39v615h-131z" />
    <glyph glyph-name="two" unicode="2" horiz-adv-x="421" 
d="M386 476c0 -164 -198 -311 -318 -441h318v-35h-366v35c157 169 327 295 327 441c0 75 -51 147 -149 147c-77 0 -130 -21 -169 -48l-11 35c41 27 100 48 180 48c96 0 188 -64 188 -182z" />
    <glyph glyph-name="three" unicode="3" horiz-adv-x="452" 
d="M175 323v35h38c113 0 150 56 150 129c0 82 -40 136 -156 136c-63 0 -119 -21 -159 -48l-11 34c39 24 93 49 170 49c137 0 195 -70 195 -171c0 -82 -44 -126 -99 -148c55 -22 109 -70 109 -160c0 -115 -67 -185 -205 -185c-80 0 -133 20 -180 48l11 34
c42 -28 102 -47 169 -47c118 0 166 54 166 150c0 74 -50 144 -160 144h-38z" />
    <glyph glyph-name="four" unicode="4" horiz-adv-x="496" 
d="M56 210l198 440h40l-198 -440h313v280h39v-490h-39v175h-353v35z" />
    <glyph glyph-name="five" unicode="5" horiz-adv-x="450" 
d="M59 338v312h336v-35h-297v-242h91c147 0 226 -57 226 -184c0 -131 -72 -195 -203 -195c-77 0 -124 15 -182 48l11 34c52 -33 111 -47 167 -47c121 0 168 56 168 157c0 124 -71 152 -228 152h-89z" />
    <glyph glyph-name="six" unicode="6" horiz-adv-x="478" 
d="M255 390c105 0 188 -66 188 -188c0 -146 -80 -208 -188 -208c-168 0 -210 141 -210 319c0 229 69 345 226 345c71 0 128 -23 169 -49l-11 -34c-35 24 -91 48 -159 48c-133 0 -186 -110 -186 -272c52 27 102 39 171 39zM255 358c-68 0 -109 -12 -171 -43
c0 -162 30 -286 171 -286c86 0 149 47 149 173c0 108 -74 156 -149 156z" />
    <glyph glyph-name="seven" unicode="7" horiz-adv-x="448" 
d="M148 0h-41l277 615h-360v35h400v-35z" />
    <glyph glyph-name="eight" unicode="8" horiz-adv-x="494" 
d="M247 658c125 0 189 -82 189 -172c0 -62 -32 -115 -91 -140c71 -24 113 -89 113 -163c0 -103 -74 -189 -211 -189s-211 86 -211 189c0 74 42 139 113 163c-59 25 -91 78 -91 140c0 92 64 172 189 172zM75 183c0 -92 62 -154 172 -154s172 62 172 154
c0 85 -62 145 -172 145s-172 -60 -172 -145zM97 486c0 -78 55 -126 150 -126s150 48 150 126c0 68 -46 137 -150 137s-150 -69 -150 -137z" />
    <glyph glyph-name="nine" unicode="9" horiz-adv-x="478" 
d="M223 262c-105 0 -188 66 -188 186c0 148 80 210 188 210c168 0 210 -141 210 -321c0 -227 -69 -343 -231 -343c-61 0 -123 22 -164 49l11 34c37 -26 99 -48 154 -48c138 0 191 110 191 272c-52 -27 -102 -39 -171 -39zM223 294c68 0 109 12 171 43
c0 162 -30 286 -171 286c-86 0 -149 -47 -149 -175c0 -106 74 -154 149 -154z" />
    <glyph glyph-name="bracketleft" unicode="[" horiz-adv-x="318" 
d="M255 -222v-28h-165v1000h165v-28h-134v-944h134z" />
    <glyph glyph-name="backslash" unicode="\" horiz-adv-x="284" 
d="M0 750h32l252 -780h-32z" />
    <glyph glyph-name="bracketright" unicode="]" horiz-adv-x="318" 
d="M63 -250v28h134v944h-134v28h165v-1000h-165z" />
    <glyph glyph-name="colon" unicode=":" horiz-adv-x="196" 
d="M63 31c0 20 15 35 35 35s35 -15 35 -35s-15 -35 -35 -35s-35 15 -35 35zM63 469c0 20 15 35 35 35s35 -15 35 -35s-15 -35 -35 -35s-35 15 -35 35z" />
    <glyph glyph-name="semicolon" unicode=";" horiz-adv-x="195" 
d="M59 469c0 20 15 35 35 35s35 -15 35 -35s-15 -35 -35 -35s-35 15 -35 35zM59 31c0 20 15 35 35 35c37 0 40 -40 37 -71c-4 -40 -25 -111 -67 -145l-19 18c36 33 55 89 56 128c-27 -3 -42 16 -42 35z" />
    <glyph glyph-name="less" unicode="&#x3c;" horiz-adv-x="573" 
d="M525 92v-34l-477 263v8l477 265v-34l-422 -235z" />
    <glyph glyph-name="equal" unicode="=" horiz-adv-x="587" 
d="M531 222v-26h-475v26h475zM531 455v-26h-475v26h475z" />
    <glyph glyph-name="greater" unicode="&#x3e;" horiz-adv-x="573" 
d="M48 58v34l422 233l-422 235v34l477 -265v-8z" />
    <glyph glyph-name="at" unicode="@" horiz-adv-x="1101" 
d="M990 311c0 314 -190 411 -449 411c-262 0 -430 -140 -430 -461c0 -372 206 -480 439 -483c178 -2 303 36 363 54l6 -29c-60 -18 -193 -55 -369 -53c-260 3 -470 129 -470 511c1 315 159 489 461 489c285 0 480 -111 480 -439c0 -163 -32 -319 -182 -319
c-69 0 -112 33 -130 108c-23 -66 -78 -108 -176 -108c-173 0 -188 148 -188 259c0 128 49 257 219 257c81 0 141 -33 169 -54v-279c0 -108 31 -155 106 -155c125 0 151 145 151 291zM702 208v230c-19 13 -69 42 -138 42c-149 0 -188 -115 -188 -229c0 -72 -4 -231 157 -231
c113 0 169 77 169 188z" />
    <glyph glyph-name="parenleft" unicode="(" horiz-adv-x="338" 
d="M65 250c0 204 64 365 215 500l22 -20c-115 -96 -206 -258 -206 -480s90 -382 206 -480l-22 -20c-151 135 -215 296 -215 500z" />
    <glyph glyph-name="parenright" unicode=")" horiz-adv-x="338" 
d="M273 250c0 -204 -64 -365 -215 -500l-22 20c116 98 206 258 206 480s-91 384 -206 480l22 20c151 -135 215 -296 215 -500z" />
    <glyph glyph-name="fraction" unicode="&#x2044;" horiz-adv-x="287" 
d="M285 727h32l-315 -818h-32z" />
    <glyph glyph-name="braceleft" unicode="{" horiz-adv-x="442" 
d="M63 245v28h18c75 0 112 67 112 180v100c0 128 60 197 140 197h73v-28h-57c-80 0 -126 -59 -126 -191v-97c0 -66 -16 -140 -83 -175c65 -32 83 -105 83 -175v-115c0 -132 46 -191 126 -191h57v-28h-73c-76 0 -140 68 -140 197v118c0 114 -37 180 -112 180h-18z" />
    <glyph glyph-name="bar" unicode="|" horiz-adv-x="215" 
d="M123 750v-1000h-31v1000h31z" />
    <glyph glyph-name="braceright" unicode="}" horiz-adv-x="442" 
d="M379 273v-28h-18c-75 0 -112 -66 -112 -180v-118c0 -129 -64 -197 -140 -197h-73v28h57c80 0 126 59 126 191v115c0 70 18 143 83 175c-67 35 -83 109 -83 175v97c0 132 -46 191 -126 191h-57v28h73c80 0 140 -69 140 -197v-100c0 -113 37 -180 112 -180h18z" />
    <glyph glyph-name="slash" unicode="/" horiz-adv-x="282" 
d="M250 750h32l-250 -780h-32z" />
    <glyph glyph-name="space" unicode=" " horiz-adv-x="184" 
 />
    <glyph glyph-name="exclam" unicode="!" horiz-adv-x="270" 
d="M117 650h38v-250c0 -86 -5 -173 -5 -259h-28c0 86 -5 173 -5 259v250zM100 31c0 20 15 35 35 35s35 -15 35 -35s-15 -35 -35 -35s-35 15 -35 35z" />
    <glyph glyph-name="question" unicode="?" horiz-adv-x="439" 
d="M97 31c0 20 15 35 35 35s35 -15 35 -35s-15 -35 -35 -35s-35 15 -35 35zM394 487c0 -115 -87 -154 -153 -193c-48 -37 -89 -71 -89 -139h-39c0 85 58 134 114 174c60 37 128 63 128 158c0 91 -65 136 -136 136c-64 0 -124 -9 -158 -23l-11 34c36 14 90 24 169 24
c94 0 175 -60 175 -171z" />
    <glyph glyph-name="dotlessi" unicode="&#x131;" horiz-adv-x="167" 
d="M66 0v500h35v-500h-35z" />
    <glyph glyph-name="plus" unicode="+" horiz-adv-x="622" 
d="M566 339v-26h-241v-227h-28v227h-241v26h241v227h28v-227h241z" />
    <glyph glyph-name="hyphen" unicode="-" horiz-adv-x="360" 
d="M328 263v-26h-296v26h296z" />
    <glyph glyph-name="Lslash" unicode="&#x141;" horiz-adv-x="473" 
d="M11 295l-11 28l114 41v286h39v-272l139 50l11 -28l-150 -54v-311h311v-35h-350v332z" />
    <glyph glyph-name="lslash" unicode="&#x142;" horiz-adv-x="243" 
d="M-1 319l-11 28l103 37v316h35v-304l118 43l11 -28l-129 -47v-232c0 -82 26 -103 64 -103c26 0 40 6 53 12l10 -30c-17 -9 -33 -15 -63 -15c-55 0 -99 32 -99 136v220z" />
    <glyph glyph-name="quotedbl" unicode="&#x22;" horiz-adv-x="241" 
d="M162 514l-3 209h28l-3 -209h-22zM57 514l-3 209h28l-3 -209h-22z" />
    <glyph glyph-name="numbersign" unicode="#" horiz-adv-x="724" 
d="M402 0l44 177h-240l-45 -177h-38l44 177h-157v35h166l61 242h-182v35h191l41 161h39l-41 -161h240l41 161h39l-41 -161h147v-35h-156l-61 -242h172v-35h-181l-45 -177h-38zM276 454l-61 -242h240l61 242h-240z" />
    <glyph glyph-name="dollar" unicode="$" horiz-adv-x="475" 
d="M33 40l11 35c112 -78 357 -70 357 88c0 183 -358 105 -358 332c0 109 81 155 173 162v149h30v-148c65 -1 131 -20 172 -48l-11 -35c-95 73 -325 78 -325 -79c0 -194 358 -112 358 -334c0 -112 -92 -162 -194 -169v-149h-30v147c-69 0 -138 18 -183 49z" />
    <glyph glyph-name="percent" unicode="%" horiz-adv-x="918" 
d="M371 436c0 -160 -60 -222 -154 -222c-92 0 -154 62 -154 222c0 159 62 222 154 222c94 0 154 -63 154 -222zM332 436c0 133 -45 187 -115 187s-115 -54 -115 -187c0 -145 45 -187 115 -187s115 42 115 187zM855 216c0 -160 -60 -222 -154 -222c-92 0 -154 62 -154 222
c0 159 62 222 154 222c94 0 154 -63 154 -222zM816 216c0 133 -45 187 -115 187s-115 -54 -115 -187c0 -145 45 -187 115 -187s115 42 115 187zM607 650h42l-339 -650h-41z" />
    <glyph glyph-name="ampersand" unicode="&#x26;" horiz-adv-x="558" 
d="M549 326h-98v-99c0 -179 -92 -235 -203 -235c-92 0 -203 48 -203 180c0 84 43 147 128 172c-82 26 -106 79 -106 156c0 89 79 158 181 158c83 0 128 -22 156 -38l-10 -33c-29 16 -64 36 -146 36c-85 0 -142 -61 -142 -123c0 -70 30 -139 143 -139h163v131h39v-131h98v-35
zM85 172c0 -111 91 -145 163 -145c78 0 164 26 164 200v99h-163c-93 0 -164 -51 -164 -154z" />
    <glyph glyph-name="quotesingle" unicode="'" horiz-adv-x="136" 
d="M57 514l-3 209h28l-3 -209h-22z" />
    <glyph glyph-name="breve" unicode="&#x2d8;" horiz-adv-x="422" 
d="M211 752c-67 0 -115 41 -115 118v22h28v-22c0 -65 36 -92 87 -92s87 27 87 93v21h28v-22c0 -77 -48 -118 -115 -118z" />
    <glyph glyph-name="dotaccent" unicode="&#x2d9;" horiz-adv-x="196" 
d="M63 785c0 20 15 35 35 35s35 -15 35 -35s-15 -35 -35 -35s-35 15 -35 35z" />
    <glyph glyph-name="ring" unicode="&#x2da;" horiz-adv-x="360" 
d="M180 749c-50 0 -80 34 -80 79s30 79 80 79s80 -34 80 -79s-30 -79 -80 -79zM180 775c35 0 52 26 52 53c0 29 -17 53 -52 53s-52 -24 -52 -53c0 -27 17 -53 52 -53z" />
    <glyph glyph-name="hungarumlaut" unicode="&#x2dd;" horiz-adv-x="368" 
d="M90 750l72 136h28l-78 -136h-22zM178 750l72 136h28l-78 -136h-22z" />
    <glyph glyph-name="ogonek" unicode="&#x2db;" horiz-adv-x="356" 
d="M116 19h28c-46 -112 24 -197 134 -141v-26c-119 -61 -212 42 -162 167z" />
    <glyph glyph-name="caron" unicode="&#x2c7;" horiz-adv-x="413" 
d="M191 750l-91 136h33l72 -111h2l73 111h33l-93 -136h-29z" />
    <glyph glyph-name="asterisk" unicode="*" horiz-adv-x="462" 
d="M244 733v-161l155 50l9 -27l-155 -50l96 -132l-23 -17l-96 132l-95 -131l-23 16l95 131l-153 50l8 27l154 -50v162h28z" />
    <glyph glyph-name="asciicircum" unicode="^" horiz-adv-x="514" 
d="M263 710l197 -407h-31l-172 357l-172 -357h-31l197 407h12z" />
    <glyph glyph-name="underscore" unicode="_" horiz-adv-x="468" 
d="M459 -8v-26h-450v26h450z" />
    <glyph glyph-name="grave" unicode="`" horiz-adv-x="255" 
d="M155 750l-83 136h32l79 -136h-28z" />
    <glyph glyph-name="asciitilde" unicode="~" horiz-adv-x="536" 
d="M54 199c0 122 40 181 112 181c117 0 113 -158 204 -158c58 0 84 51 84 155h28c0 -122 -37 -181 -112 -181c-117 0 -103 158 -204 158c-61 0 -84 -60 -84 -155h-28z" />
    <glyph glyph-name="Euro" unicode="&#x20ac;" horiz-adv-x="604" 
d="M191 368v-86v-23h304v-28h-302c15 -148 97 -204 214 -204c71 0 142 28 168 49l11 -34c-39 -25 -92 -50 -179 -50c-135 0 -236 69 -253 239h-134v28h132v23v86v17h-132v28h134c14 174 116 245 253 245c80 0 132 -24 179 -48l-11 -35c-39 25 -107 48 -168 48
c-118 0 -201 -59 -214 -210h302v-28h-304v-17z" />
    <glyph glyph-name="quotesinglbase" unicode="&#x201a;" horiz-adv-x="195" 
d="M59 31c0 20 15 35 35 35c37 0 40 -40 37 -71c-4 -40 -25 -111 -67 -145l-19 18c36 33 55 89 56 128c-27 -3 -42 16 -42 35z" />
    <glyph glyph-name="florin" unicode="&#x192;" horiz-adv-x="467" 
d="M485 735v-27c-22 3 -57 8 -80 8c-92 0 -133 -27 -156 -316h169v-28h-174c-29 -266 -34 -490 -200 -490c-35 0 -72 8 -98 16v31c23 -10 66 -19 89 -19c150 0 148 192 177 462h-127v28h131c27 197 27 318 145 340c13 2 28 4 44 4c17 0 57 -4 80 -9z" />
    <glyph glyph-name="quotedblbase" unicode="&#x201e;" horiz-adv-x="317" 
d="M181 31c0 20 15 35 35 35c37 0 40 -40 37 -71c-4 -40 -25 -111 -67 -145l-19 18c36 33 55 89 56 128c-27 -3 -42 16 -42 35zM59 31c0 20 15 35 35 35c37 0 40 -40 37 -71c-4 -40 -25 -111 -67 -145l-19 18c36 33 55 89 56 128c-27 -3 -42 16 -42 35z" />
    <glyph glyph-name="ellipsis" unicode="&#x2026;" horiz-adv-x="696" 
d="M563 31c0 20 15 35 35 35s35 -15 35 -35s-15 -35 -35 -35s-35 15 -35 35zM313 31c0 20 15 35 35 35s35 -15 35 -35s-15 -35 -35 -35s-35 15 -35 35zM63 31c0 20 15 35 35 35s35 -15 35 -35s-15 -35 -35 -35s-35 15 -35 35z" />
    <glyph glyph-name="dagger" unicode="&#x2020;" horiz-adv-x="482" 
d="M446 489v-28h-190v-546h-30v546h-190v28h190v234h30v-234h190z" />
    <glyph glyph-name="daggerdbl" unicode="&#x2021;" horiz-adv-x="482" 
d="M446 489v-28h-190v-295h190v-28h-190v-223h-30v223h-190v28h190v295h-190v28h190v234h30v-234h190z" />
    <glyph glyph-name="circumflex" unicode="&#x2c6;" horiz-adv-x="397" 
d="M92 750l91 136h29l93 -136h-33l-73 111h-2l-72 -111h-33z" />
    <glyph glyph-name="perthousand" unicode="&#x2030;" horiz-adv-x="1286" 
d="M371 436c0 -160 -60 -222 -154 -222c-92 0 -154 62 -154 222c0 159 62 222 154 222c94 0 154 -63 154 -222zM332 436c0 133 -45 187 -115 187s-115 -54 -115 -187c0 -145 45 -187 115 -187s115 42 115 187zM649 650c-113 -217 -226 -433 -339 -650h-41
c112 217 225 433 338 650h42zM816 216c0 133 -45 187 -115 187s-115 -54 -115 -187c0 -145 45 -187 115 -187s115 42 115 187zM701 438c47 0 85 -15 112 -51s42 -92 42 -171c0 -160 -60 -222 -154 -222v0c-92 0 -154 62 -154 222c0 159 62 222 154 222zM1223 216
c0 -160 -60 -222 -154 -222c-92 0 -154 62 -154 222c0 159 62 222 154 222c94 0 154 -63 154 -222zM1184 216c0 133 -45 187 -115 187s-115 -54 -115 -187c0 -145 45 -187 115 -187s115 42 115 187z" />
    <glyph glyph-name="guilsinglleft" unicode="&#x2039;" horiz-adv-x="355" 
d="M310 106v-33l-265 181v26l265 180v-33l-238 -160z" />
    <glyph glyph-name="OE" unicode="&#x152;" horiz-adv-x="893" 
d="M45 282v86c0 209 99 290 235 290c84 0 155 -32 196 -106v98h390v-35h-351v-255h311v-35h-311v-290h351v-35h-390v97c-41 -74 -112 -105 -196 -105c-136 0 -235 81 -235 290zM476 282v100c-4 176 -82 241 -196 241c-117 0 -196 -68 -196 -255v-86c0 -188 79 -255 196 -255
s196 67 196 255z" />
    <glyph glyph-name="quoteleft" unicode="&#x2018;" horiz-adv-x="195" 
d="M136 519c0 -20 -15 -35 -35 -35c-37 0 -40 40 -37 71c4 40 25 111 67 145c6 -6 13 -12 19 -18c-36 -33 -55 -89 -56 -128c27 3 42 -16 42 -35z" />
    <glyph glyph-name="quoteright" unicode="&#x2019;" horiz-adv-x="195" 
d="M59 665c0 20 15 35 35 35c37 0 40 -40 37 -71c-4 -40 -25 -111 -67 -145l-19 18c36 33 55 89 56 128c-27 -3 -42 16 -42 35z" />
    <glyph glyph-name="quotedblleft" unicode="&#x201c;" horiz-adv-x="317" 
d="M258 519c0 -20 -15 -35 -35 -35c-37 0 -40 40 -37 71c4 40 25 111 67 145c6 -6 13 -12 19 -18c-36 -33 -55 -89 -56 -128c27 3 42 -16 42 -35zM136 519c0 -20 -15 -35 -35 -35c-37 0 -40 40 -37 71c4 40 25 111 67 145c6 -6 13 -12 19 -18c-36 -33 -55 -89 -56 -128
c27 3 42 -16 42 -35z" />
    <glyph glyph-name="quotedblright" unicode="&#x201d;" horiz-adv-x="317" 
d="M59 665c0 20 15 35 35 35c37 0 40 -40 37 -71c-4 -40 -25 -111 -67 -145l-19 18c36 33 55 89 56 128c-27 -3 -42 16 -42 35zM181 665c0 20 15 35 35 35c37 0 40 -40 37 -71c-4 -40 -25 -111 -67 -145l-19 18c36 33 55 89 56 128c-27 -3 -42 16 -42 35z" />
    <glyph glyph-name="bullet" unicode="&#x2022;" horiz-adv-x="232" 
d="M187 318c0 -41 -30 -71 -71 -71s-71 30 -71 71s30 71 71 71s71 -30 71 -71z" />
    <glyph glyph-name="endash" unicode="&#x2013;" horiz-adv-x="408" 
d="M54 272v26h300v-26h-300z" />
    <glyph glyph-name="emdash" unicode="&#x2014;" horiz-adv-x="558" 
d="M54 272v26h450v-26h-450z" />
    <glyph glyph-name="tilde" unicode="&#x2dc;" 
d="M84 753c0 91 29 137 89 137c85 0 72 -114 134 -114c39 0 61 30 61 111h28c0 -90 -29 -137 -89 -137c-85 0 -70 114 -134 114c-39 0 -61 -29 -61 -111h-28z" />
    <glyph glyph-name="trademark" unicode="&#x2122;" horiz-adv-x="848" 
d="M794 650v-399h-28v358l-148 -358h-20l-153 358v-358h-28v399h42l149 -352l144 352h42zM332 650v-26h-134v-373h-28v373h-134v26h296z" />
    <glyph glyph-name="guilsinglright" unicode="&#x203a;" horiz-adv-x="355" 
d="M45 73v33l238 161l-238 160v33l265 -180v-26z" />
    <glyph glyph-name="oe" unicode="&#x153;" horiz-adv-x="826" 
d="M790 271v-37h-355v-15c0 -141 74 -192 180 -192c64 0 115 14 150 34c3 -10 7 -20 10 -30c-46 -23 -96 -37 -160 -37c-94 0 -165 37 -197 122c-29 -87 -96 -122 -178 -122c-113 0 -195 66 -195 238v36c0 172 82 238 195 238c82 0 147 -35 177 -119c30 82 94 119 178 119
c116 0 195 -70 195 -235zM400 232v47c0 143 -67 194 -160 194c-96 0 -160 -53 -160 -205v-36c0 -152 64 -205 160 -205s160 53 160 205zM435 280v-13h320v0v6c0 147 -65 200 -160 200c-94 0 -160 -51 -160 -193z" />
    <glyph glyph-name="Ydieresis" unicode="&#x178;" horiz-adv-x="536" 
d="M536 650l-248 -398v-252h-39v250l-249 400h43l225 -358l225 358h43zM118 777c0 16 12 28 28 28s27 -12 27 -28c0 -15 -11 -27 -27 -27s-28 12 -28 27zM364 777c0 16 12 28 28 28s27 -12 27 -28c0 -15 -11 -27 -27 -27s-28 12 -28 27z" />
    <glyph glyph-name="exclamdown" unicode="&#xa1;" horiz-adv-x="270" 
d="M155 -198h-38v300c0 86 5 173 5 259h28c0 -86 5 -173 5 -259v-300zM100 471c0 20 15 35 35 35s35 -15 35 -35s-15 -35 -35 -35s-35 15 -35 35z" />
    <glyph glyph-name="cent" unicode="&#xa2;" horiz-adv-x="409" 
d="M45 230v46c0 163 83 224 191 229v145h30v-145c47 -3 87 -23 116 -43c-3 -10 -7 -20 -10 -30c-27 20 -72 41 -122 41c-103 0 -170 -54 -170 -197v-46c0 -132 67 -203 180 -203c44 0 84 10 121 34c3 -10 7 -20 10 -30c-36 -23 -73 -36 -125 -37v-144h-30v145
c-120 10 -191 94 -191 235z" />
    <glyph glyph-name="sterling" unicode="&#xa3;" horiz-adv-x="454" 
d="M445 35v-35h-350v297h-86v28h86v97c0 158 56 236 179 236c78 0 114 -19 143 -35l-9 -30c-30 15 -69 29 -134 30c-105 2 -140 -70 -140 -212v-86h165v-28h-165v-262h311z" />
    <glyph glyph-name="currency" unicode="&#xa4;" horiz-adv-x="646" 
d="M325 172c-39 0 -74 10 -101 32l-131 -131l-21 21l131 131c-19 24 -33 54 -33 99s14 76 32 100l-130 130l21 21l130 -130c26 22 63 33 102 33c38 0 73 -11 99 -32l129 129l21 -21l-128 -128c20 -25 34 -57 34 -102c0 -46 -15 -79 -35 -102l129 -128l-21 -21l-130 129
c-27 -20 -60 -30 -98 -30zM325 197c75 0 128 53 128 126c0 80 -52 129 -128 129s-128 -49 -128 -129c0 -73 53 -126 128 -126z" />
    <glyph glyph-name="yen" unicode="&#xa5;" horiz-adv-x="536" 
d="M505 269v-28h-217v-108h217v-28h-217v-105h-39v105h-219v28h219v108h-219v28h207l-237 381h43l225 -358l225 358h43l-238 -381h207z" />
    <glyph glyph-name="brokenbar" unicode="&#xa6;" horiz-adv-x="215" 
d="M123 750v-403h-31v403h31zM123 174v-424h-31v424h31z" />
    <glyph glyph-name="section" unicode="&#xa7;" horiz-adv-x="533" 
d="M63 -186l11 35c45 -26 94 -48 164 -48c96 0 193 42 193 136c0 78 -63 114 -177 150c-80 27 -181 66 -181 180c0 69 36 116 95 141c-52 28 -95 70 -95 145c0 114 93 165 209 165c82 0 128 -25 166 -48l-11 -35c-36 23 -80 48 -159 48c-88 0 -166 -41 -166 -127
c0 -93 78 -122 155 -147c116 -37 203 -87 203 -184c0 -71 -40 -118 -100 -145c61 -33 100 -76 100 -141c0 -121 -110 -173 -232 -173c-82 0 -130 23 -175 48zM112 270c0 -122 134 -132 221 -172c55 20 98 59 98 125c0 92 -109 132 -225 167c-54 -17 -94 -56 -94 -120z" />
    <glyph glyph-name="dieresis" unicode="&#xa8;" horiz-adv-x="427" 
d="M63 777c0 16 12 28 28 28s27 -12 27 -28c0 -15 -11 -27 -27 -27s-28 12 -28 27zM309 777c0 16 12 28 28 28s27 -12 27 -28c0 -15 -11 -27 -27 -27s-28 12 -28 27z" />
    <glyph glyph-name="copyright" unicode="&#xa9;" horiz-adv-x="919" 
d="M296 338v35c0 136 71 189 166 189c47 0 82 -16 111 -36l-9 -27c-25 19 -60 34 -102 34c-79 0 -135 -44 -135 -160v-38c0 -121 71 -164 142 -164c45 0 72 9 103 28c3 -9 5 -18 8 -27c-28 -17 -57 -30 -108 -30c-95 0 -176 55 -176 196zM96 352c0 202 162 364 363 364
c202 0 364 -162 364 -364c0 -201 -162 -363 -364 -363c-201 0 -363 162 -363 363zM124 352c0 -186 152 -337 335 -337c185 0 336 151 336 337s-151 338 -336 338c-183 0 -335 -152 -335 -338z" />
    <glyph glyph-name="guillemotleft" unicode="&#xab;" horiz-adv-x="439" 
d="M376 40h-35l-161 210l161 210h35l-161 -210zM241 40h-35l-161 210l161 210h35l-161 -210z" />
    <glyph glyph-name="logicalnot" unicode="&#xac;" horiz-adv-x="541" 
d="M478 406v-263h-28v237h-405v26h433z" />
    <glyph glyph-name="minus" unicode="&#x2212;" horiz-adv-x="622" 
d="M566 337v-26h-510v26h510z" />
    <glyph glyph-name="registered" unicode="&#xae;" horiz-adv-x="919" 
d="M590 152l-126 181h-103v-181h-31v400h132c100 0 138 -46 138 -108c0 -57 -33 -101 -102 -109l127 -183h-35zM462 524h-101v-163h101c81 0 107 35 107 83c0 45 -26 80 -107 80zM96 352c0 202 162 364 363 364c202 0 364 -162 364 -364c0 -201 -162 -363 -364 -363
c-201 0 -363 162 -363 363zM124 352c0 -186 152 -337 335 -337c185 0 336 151 336 337s-151 338 -336 338c-183 0 -335 -152 -335 -338z" />
    <glyph glyph-name="degree" unicode="&#xb0;" horiz-adv-x="456" 
d="M389 587c0 -91 -71 -162 -163 -162c-93 0 -164 68 -164 162c0 93 72 163 164 163c91 0 163 -72 163 -163zM361 587c0 77 -56 137 -134 137c-81 0 -137 -60 -137 -137c0 -78 58 -136 137 -136c70 0 134 60 134 136z" />
    <glyph glyph-name="plusminus" unicode="&#xb1;" horiz-adv-x="586" 
d="M548 339v-26h-241v-230h241v-26h-510v26h241v230h-241v26h241v227h28v-227h241z" />
    <glyph glyph-name="acute" unicode="&#xb4;" horiz-adv-x="257" 
d="M151 886h34l-85 -136h-28z" />
    <glyph glyph-name="mu" unicode="&#xb5;" horiz-adv-x="496" 
d="M433 500v-500h-25l-10 73c-33 -57 -87 -81 -150 -81s-117 23 -150 79v-304h-35v733h35v-268c0 -154 61 -207 150 -207c87 0 150 50 150 195v280h35z" />
    <glyph glyph-name="paragraph" unicode="&#xb6;" horiz-adv-x="457" 
d="M394 727v-825h-31v793h-84v-793h-31v381c-122 15 -203 102 -203 225c0 138 93 219 260 219h89z" />
    <glyph glyph-name="periodcentered" unicode="&#xb7;" horiz-adv-x="178" 
d="M54 250c0 20 15 35 35 35s35 -15 35 -35s-15 -35 -35 -35s-35 15 -35 35z" />
    <glyph glyph-name="cedilla" unicode="&#xb8;" horiz-adv-x="230" 
d="M87 25h28l-19 -71c55 11 98 -14 98 -63c0 -78 -91 -86 -149 -64l1 27c23 -13 120 -29 120 37c0 53 -71 43 -106 33z" />
    <glyph glyph-name="guillemotright" unicode="&#xbb;" horiz-adv-x="439" 
d="M98 40h-35l161 210l-161 210h35l161 -210zM233 40h-35l161 210l-161 210h35l161 -210z" />
    <glyph glyph-name="questiondown" unicode="&#xbf;" horiz-adv-x="474" 
d="M347 471c0 -20 -15 -35 -35 -35s-35 15 -35 35s15 35 35 35s35 -15 35 -35zM50 15c0 115 87 154 153 193c48 28 89 56 89 109h39c0 -70 -58 -110 -114 -144c-60 -37 -128 -63 -128 -158c0 -91 65 -136 136 -136c64 0 125 18 158 36l14 -33c-35 -18 -93 -38 -172 -38
c-94 0 -175 60 -175 171z" />
    <glyph glyph-name="AE" unicode="&#xc6;" horiz-adv-x="761" 
d="M0 0l236 650h498v-35h-351v-255h311v-35h-311v-290h351v-35h-390v248h-214l-90 -248h-40zM263 615l-121 -332h202v332h-81z" />
    <glyph glyph-name="multiply" unicode="&#xd7;" horiz-adv-x="662" 
d="M331 345l230 230l21 -21l-230 -230l230 -230l-21 -21l-230 230l-230 -230l-21 21l230 230l-230 230l21 21z" />
    <glyph glyph-name="Thorn" unicode="&#xde;" horiz-adv-x="520" 
d="M63 0v700h39v-100h167c162 0 224 -79 224 -185s-62 -185 -224 -185h-167v-230h-39zM269 565h-167v-300h167c138 0 185 61 185 150s-47 150 -185 150z" />
    <glyph glyph-name="germandbls" unicode="&#xdf;" horiz-adv-x="488" 
d="M443 138c0 -98 -71 -146 -179 -146c-22 0 -60 5 -78 12v41c25 -14 50 -18 78 -18c102 0 140 44 140 111c0 119 -168 79 -168 194c0 103 126 80 126 183c0 74 -40 108 -113 108c-103 0 -147 -63 -147 -211v-412h-39v408c0 173 61 250 186 250c103 0 152 -58 152 -143
c0 -119 -126 -109 -126 -183c0 -76 168 -56 168 -194z" />
    <glyph glyph-name="ae" unicode="&#xe6;" horiz-adv-x="788" 
d="M752 271v-37h-355v-15c3 -141 76 -192 180 -192c64 0 115 14 150 34c3 -10 7 -20 10 -30c-46 -23 -96 -37 -160 -37c-91 0 -160 35 -192 113c-25 -83 -89 -113 -173 -113c-106 0 -185 42 -185 143v16c0 89 92 132 215 138l120 6v41c0 103 -60 135 -150 135
c-64 0 -118 -15 -153 -30c-3 11 -7 21 -10 32c46 17 99 31 163 31c82 0 149 -27 174 -98c33 69 93 100 171 100c116 0 195 -70 195 -237zM362 182v81c-165 -8 -300 -5 -300 -110v-16c0 -80 61 -110 150 -110c87 0 150 39 150 155zM397 284v-17h320v0v6
c0 149 -65 202 -160 202c-93 0 -157 -51 -160 -191z" />
    <glyph glyph-name="eth" unicode="&#xf0;" horiz-adv-x="478" 
d="M127 487l128 128c-57 35 -133 55 -180 61l11 37c41 -5 134 -31 195 -72l79 79l19 -19l-76 -76c66 -50 130 -116 130 -312c0 -180 -42 -321 -210 -321c-108 0 -188 62 -188 210c0 122 83 188 188 188c69 0 119 -12 171 -39c-2 147 -60 207 -117 248l-131 -131zM223 355
c-75 0 -149 -45 -149 -153c0 -128 63 -175 149 -175c141 0 171 121 171 285c-62 31 -103 43 -171 43z" />
    <glyph glyph-name="divide" unicode="&#xf7;" horiz-adv-x="622" 
d="M276 129c0 20 15 35 35 35s35 -15 35 -35s-15 -35 -35 -35s-35 15 -35 35zM276 503c0 20 15 35 35 35s35 -15 35 -35s-15 -35 -35 -35s-35 15 -35 35zM566 329v-26h-510v26h510z" />
    <glyph glyph-name="thorn" unicode="&#xfe;" horiz-adv-x="478" 
d="M63 -250v950h34v-273c33 57 86 81 151 81c107 0 185 -66 185 -240v-36c0 -174 -78 -240 -185 -240c-64 0 -117 23 -150 79v-321h-35zM398 232v36c0 154 -60 207 -150 207c-88 0 -150 -50 -150 -196v-47c0 -154 60 -207 150 -207s150 53 150 207z" />
    <glyph glyph-name="Zcaron" unicode="&#x17d;" horiz-adv-x="486" 
d="M38 615v35h410v-35l-386 -580h406v-35h-450v35l386 580h-366zM228 750l-91 136h33l72 -111h2l73 111h33l-93 -136h-29z" />
    <glyph glyph-name="zcaron" unicode="&#x17e;" horiz-adv-x="424" 
d="M27 467v33h370v-33l-328 -434h328v-33h-370v33l328 434h-328zM197 560l-91 136h33l72 -111h2l73 111h33l-93 -136h-29z" />
    <glyph glyph-name="Scaron" unicode="&#x160;" horiz-adv-x="473" 
d="M221 750l-91 136h33l72 -111h2l73 111h33l-93 -136h-29zM33 40l11 35c112 -78 357 -70 357 88c0 183 -358 105 -358 332c0 198 269 188 375 115l-11 -35c-95 73 -325 78 -325 -79c0 -194 358 -112 358 -334c0 -197 -286 -203 -407 -122z" />
    <glyph glyph-name="scaron" unicode="&#x161;" horiz-adv-x="431" 
d="M200 560l-91 136h33l72 -111h2l73 111h33l-93 -136h-29zM45 31l10 30c114 -54 296 -51 296 66c0 166 -295 46 -295 250c0 143 206 160 314 85l-10 -30c-100 68 -269 53 -269 -54c0 -175 295 -44 295 -254c0 -142 -214 -159 -341 -93z" />
    <glyph glyph-name="Agrave" unicode="&#xc0;" horiz-adv-x="532" 
d="M492 0l-79 208h-294l-79 -208h-40l246 650h40l246 -650h-40zM266 595l-134 -352h267zM258 750l-83 136h32l79 -136h-28z" />
    <glyph glyph-name="Aacute" unicode="&#xc1;" horiz-adv-x="532" 
d="M492 0l-79 208h-294l-79 -208h-40l246 650h40l246 -650h-40zM266 595l-134 -352h267zM325 886h34l-85 -136h-28z" />
    <glyph glyph-name="Acircumflex" unicode="&#xc2;" horiz-adv-x="532" 
d="M492 0l-79 208h-294l-79 -208h-40l246 650h40l246 -650h-40zM266 595l-134 -352h267zM160 750l91 136h29l93 -136h-33l-73 111h-2l-72 -111h-33z" />
    <glyph glyph-name="Atilde" unicode="&#xc3;" horiz-adv-x="532" 
d="M492 0l-79 208h-294l-79 -208h-40l246 650h40l246 -650h-40zM266 595l-134 -352h267zM110 753c0 91 29 137 89 137c85 0 72 -114 134 -114c39 0 61 30 61 111h28c0 -90 -29 -137 -89 -137c-85 0 -70 114 -134 114c-39 0 -61 -29 -61 -111h-28z" />
    <glyph glyph-name="Adieresis" unicode="&#xc4;" horiz-adv-x="532" 
d="M492 0l-79 208h-294l-79 -208h-40l246 650h40l246 -650h-40zM266 595l-134 -352h267zM116 777c0 16 12 28 28 28s27 -12 27 -28c0 -15 -11 -27 -27 -27s-28 12 -28 27zM362 777c0 16 12 28 28 28s27 -12 27 -28c0 -15 -11 -27 -27 -27s-28 12 -28 27z" />
    <glyph glyph-name="Aring" unicode="&#xc5;" horiz-adv-x="532" 
d="M492 0l-79 208h-294l-79 -208h-40l246 650h40l246 -650h-40zM266 595l-134 -352h267zM266 749c-50 0 -80 34 -80 79s30 79 80 79s80 -34 80 -79s-30 -79 -80 -79zM266 775c35 0 52 26 52 53c0 29 -17 53 -52 53s-52 -24 -52 -53c0 -27 17 -53 52 -53z" />
    <glyph glyph-name="Ccedilla" unicode="&#xc7;" horiz-adv-x="497" 
d="M84 368v-86c0 -186 87 -255 216 -255c71 0 142 28 168 49l11 -34c-39 -25 -92 -50 -179 -50c-13 0 -26 1 -39 2l-10 -40c55 11 98 -14 98 -63c0 -78 -91 -86 -149 -64l1 27c23 -13 120 -29 120 37c0 53 -71 43 -106 33l20 74c-113 22 -190 109 -190 284v86
c0 207 107 290 255 290c80 0 132 -24 179 -48l-11 -35c-39 25 -107 48 -168 48c-129 0 -216 -70 -216 -255z" />
    <glyph glyph-name="Egrave" unicode="&#xc8;" 
d="M102 325v-290h351v-35h-390v650h390v-35h-351v-255h311v-35h-311zM285 750l-83 136h32l79 -136h-28z" />
    <glyph glyph-name="Eacute" unicode="&#xc9;" 
d="M102 325v-290h351v-35h-390v650h390v-35h-351v-255h311v-35h-311zM281 886h34l-85 -136h-28z" />
    <glyph glyph-name="Ecircumflex" unicode="&#xca;" 
d="M102 325v-290h351v-35h-390v650h390v-35h-351v-255h311v-35h-311zM152 750l91 136h29l93 -136h-33l-73 111h-2l-72 -111h-33z" />
    <glyph glyph-name="Edieresis" unicode="&#xcb;" 
d="M102 325v-290h351v-35h-390v650h390v-35h-351v-255h311v-35h-311zM108 777c0 16 12 28 28 28s27 -12 27 -28c0 -15 -11 -27 -27 -27s-28 12 -28 27zM354 777c0 16 12 28 28 28s27 -12 27 -28c0 -15 -11 -27 -27 -27s-28 12 -28 27z" />
    <glyph glyph-name="Igrave" unicode="&#xcc;" horiz-adv-x="165" 
d="M63 0v650h39v-650h-39zM74 750l-83 136h32l79 -136h-28z" />
    <glyph glyph-name="Iacute" unicode="&#xcd;" horiz-adv-x="165" 
d="M63 0v650h39v-650h-39zM142 886h34l-85 -136h-28z" />
    <glyph glyph-name="Icircumflex" unicode="&#xce;" horiz-adv-x="165" 
d="M63 0v650h39v-650h-39zM-24 750l91 136h29l93 -136h-33l-73 111h-2l-72 -111h-33z" />
    <glyph glyph-name="Idieresis" unicode="&#xcf;" horiz-adv-x="165" 
d="M63 0v650h39v-650h-39zM-68 777c0 16 12 28 28 28s27 -12 27 -28c0 -15 -11 -27 -27 -27s-28 12 -28 27zM178 777c0 16 12 28 28 28s27 -12 27 -28c0 -15 -11 -27 -27 -27s-28 12 -28 27z" />
    <glyph glyph-name="Eth" unicode="&#xd0;" horiz-adv-x="545" 
d="M70 0v320h-86v32h86v298h195c136 0 235 -77 235 -274v-102c0 -197 -99 -274 -235 -274h-195zM461 274v102c0 175 -79 239 -196 239h-156v-263h91v-32h-91v-285h156c117 0 196 63 196 239z" />
    <glyph glyph-name="Ntilde" unicode="&#xd1;" horiz-adv-x="556" 
d="M63 0v650h43l348 -585v585h39v-650h-43l-348 584v-584h-39zM122 753c0 91 29 137 89 137c85 0 72 -114 134 -114c39 0 61 30 61 111h28c0 -90 -29 -137 -89 -137c-85 0 -70 114 -134 114c-39 0 -61 -29 -61 -111h-28z" />
    <glyph glyph-name="Ograve" unicode="&#xd2;" horiz-adv-x="560" 
d="M476 282v86c0 187 -79 255 -196 255s-196 -68 -196 -255v-86c0 -188 79 -255 196 -255s196 67 196 255zM45 282v86c0 209 99 290 235 290s235 -81 235 -290v-86c0 -209 -99 -290 -235 -290s-235 81 -235 290zM267 750l-83 136h32l79 -136h-28z" />
    <glyph glyph-name="Ocircumflex" unicode="&#xd4;" horiz-adv-x="560" 
d="M476 282v86c0 187 -79 255 -196 255s-196 -68 -196 -255v-86c0 -188 79 -255 196 -255s196 67 196 255zM45 282v86c0 209 99 290 235 290s235 -81 235 -290v-86c0 -209 -99 -290 -235 -290s-235 81 -235 290zM174 750l91 136h29l93 -136h-33l-73 111h-2l-72 -111h-33z
" />
    <glyph glyph-name="Otilde" unicode="&#xd5;" horiz-adv-x="560" 
d="M476 282v86c0 187 -79 255 -196 255s-196 -68 -196 -255v-86c0 -188 79 -255 196 -255s196 67 196 255zM45 282v86c0 209 99 290 235 290s235 -81 235 -290v-86c0 -209 -99 -290 -235 -290s-235 81 -235 290zM124 753c0 91 29 137 89 137c85 0 72 -114 134 -114
c39 0 61 30 61 111h28c0 -90 -29 -137 -89 -137c-85 0 -70 114 -134 114c-39 0 -61 -29 -61 -111h-28z" />
    <glyph glyph-name="Odieresis" unicode="&#xd6;" horiz-adv-x="560" 
d="M476 282v86c0 187 -79 255 -196 255s-196 -68 -196 -255v-86c0 -188 79 -255 196 -255s196 67 196 255zM45 282v86c0 209 99 290 235 290s235 -81 235 -290v-86c0 -209 -99 -290 -235 -290s-235 81 -235 290zM130 777c0 16 12 28 28 28s27 -12 27 -28
c0 -15 -11 -27 -27 -27s-28 12 -28 27zM376 777c0 16 12 28 28 28s27 -12 27 -28c0 -15 -11 -27 -27 -27s-28 12 -28 27z" />
    <glyph glyph-name="Oslash" unicode="&#xd8;" horiz-adv-x="560" 
d="M45 282v86c0 209 99 290 235 290s235 -81 235 -290v-86c0 -209 -99 -290 -235 -290s-235 81 -235 290zM476 282v86c0 130 -39 203 -102 235l-182 -559c26 -12 55 -17 88 -17c117 0 196 67 196 255zM84 282c0 -117 30 -187 82 -224l178 557c-20 5 -41 8 -64 8
c-117 0 -196 -68 -196 -255v-86z" />
    <glyph glyph-name="Ugrave" unicode="&#xd9;" horiz-adv-x="558" 
d="M54 282v368h39v-368c0 -188 75 -255 186 -255s186 67 186 255v368h39v-368c0 -209 -95 -290 -225 -290s-225 81 -225 290zM266 750l-83 136h32l79 -136h-28z" />
    <glyph glyph-name="Uacute" unicode="&#xda;" horiz-adv-x="558" 
d="M54 282v368h39v-368c0 -188 75 -255 186 -255s186 67 186 255v368h39v-368c0 -209 -95 -290 -225 -290s-225 81 -225 290zM343 886h34l-85 -136h-28z" />
    <glyph glyph-name="Ucircumflex" unicode="&#xdb;" horiz-adv-x="558" 
d="M54 282v368h39v-368c0 -188 75 -255 186 -255s186 67 186 255v368h39v-368c0 -209 -95 -290 -225 -290s-225 81 -225 290zM173 750l91 136h29l93 -136h-33l-73 111h-2l-72 -111h-33z" />
    <glyph glyph-name="Udieresis" unicode="&#xdc;" horiz-adv-x="558" 
d="M54 282v368h39v-368c0 -188 75 -255 186 -255s186 67 186 255v368h39v-368c0 -209 -95 -290 -225 -290s-225 81 -225 290zM129 777c0 16 12 28 28 28s27 -12 27 -28c0 -15 -11 -27 -27 -27s-28 12 -28 27zM375 777c0 16 12 28 28 28s27 -12 27 -28c0 -15 -11 -27 -27 -27
s-28 12 -28 27z" />
    <glyph glyph-name="Yacute" unicode="&#xdd;" horiz-adv-x="536" 
d="M536 650l-248 -398v-252h-39v250l-249 400h43l225 -358l225 358h43zM332 886h34l-85 -136h-28z" />
    <glyph glyph-name="agrave" unicode="&#xe0;" horiz-adv-x="451" 
d="M397 336v-316c-50 -15 -95 -26 -185 -26c-106 0 -185 41 -185 145v14c0 89 92 132 215 138l120 6v39c0 105 -59 137 -150 137c-64 0 -118 -15 -153 -30c-3 11 -7 21 -10 32c46 17 99 31 163 31c105 0 185 -43 185 -170zM362 45v218c-165 -8 -300 -5 -300 -110v-14
c0 -83 61 -112 150 -112c71 0 110 5 150 18zM199 560c-28 45 -55 91 -83 136h32c26 -45 53 -91 79 -136h-28z" />
    <glyph glyph-name="aacute" unicode="&#xe1;" horiz-adv-x="451" 
d="M397 336v-316c-50 -15 -95 -26 -185 -26c-106 0 -185 41 -185 145v14c0 89 92 132 215 138l120 6v39c0 105 -59 137 -150 137c-64 0 -118 -15 -153 -30c-3 11 -7 21 -10 32c46 17 99 31 163 31c105 0 185 -43 185 -170zM362 45v218c-165 -8 -300 -5 -300 -110v-14
c0 -83 61 -112 150 -112c71 0 110 5 150 18zM276 696h34c-28 -45 -57 -91 -85 -136h-28c26 45 53 91 79 136z" />
    <glyph glyph-name="acircumflex" unicode="&#xe2;" horiz-adv-x="451" 
d="M397 336v-316c-50 -15 -95 -26 -185 -26c-106 0 -185 41 -185 145v14c0 89 92 132 215 138l120 6v39c0 105 -59 137 -150 137c-64 0 -118 -15 -153 -30c-3 11 -7 21 -10 32c46 17 99 31 163 31c105 0 185 -43 185 -170zM362 45v218c-165 -8 -300 -5 -300 -110v-14
c0 -83 61 -112 150 -112c71 0 110 5 150 18zM106 560c30 45 61 91 91 136h29c31 -45 62 -91 93 -136h-33c-24 37 -49 74 -73 111h-2l-72 -111h-33z" />
    <glyph glyph-name="atilde" unicode="&#xe3;" horiz-adv-x="451" 
d="M397 336v-316c-50 -15 -95 -26 -185 -26c-106 0 -185 41 -185 145v14c0 89 92 132 215 138l120 6v39c0 105 -59 137 -150 137c-64 0 -118 -15 -153 -30c-3 11 -7 21 -10 32c46 17 99 31 163 31c105 0 185 -43 185 -170zM362 45v218c-165 -8 -300 -5 -300 -110v-14
c0 -83 61 -112 150 -112c71 0 110 5 150 18zM56 563c0 91 29 137 89 137c85 0 72 -114 134 -114c39 0 61 30 61 111h28c0 -90 -29 -137 -89 -137c-85 0 -70 114 -134 114c-39 0 -61 -29 -61 -111h-28z" />
    <glyph glyph-name="adieresis" unicode="&#xe4;" horiz-adv-x="451" 
d="M397 336v-316c-50 -15 -95 -26 -185 -26c-106 0 -185 41 -185 145v14c0 89 92 132 215 138l120 6v39c0 105 -59 137 -150 137c-64 0 -118 -15 -153 -30c-3 11 -7 21 -10 32c46 17 99 31 163 31c105 0 185 -43 185 -170zM362 45v218c-165 -8 -300 -5 -300 -110v-14
c0 -83 61 -112 150 -112c71 0 110 5 150 18zM62 587c0 16 12 28 28 28s27 -12 27 -28c0 -15 -11 -27 -27 -27s-28 12 -28 27zM308 587c0 16 12 28 28 28s27 -12 27 -28c0 -15 -11 -27 -27 -27s-28 12 -28 27z" />
    <glyph glyph-name="aring" unicode="&#xe5;" horiz-adv-x="451" 
d="M397 336v-316c-50 -15 -95 -26 -185 -26c-106 0 -185 41 -185 145v14c0 89 92 132 215 138l120 6v39c0 105 -59 137 -150 137c-64 0 -118 -15 -153 -30c-3 11 -7 21 -10 32c46 17 99 31 163 31c105 0 185 -43 185 -170zM362 45v218c-165 -8 -300 -5 -300 -110v-14
c0 -83 61 -112 150 -112c71 0 110 5 150 18zM212 560c-50 0 -80 34 -80 79s30 79 80 79s80 -34 80 -79s-30 -79 -80 -79zM212 586c35 0 52 26 52 53c0 29 -17 53 -52 53s-52 -24 -52 -53c0 -27 17 -53 52 -53z" />
    <glyph glyph-name="idieresis" unicode="&#xef;" horiz-adv-x="167" 
d="M-67 587c0 16 12 28 28 28s27 -12 27 -28c0 -15 -11 -27 -27 -27s-28 12 -28 27zM179 587c0 16 12 28 28 28s27 -12 27 -28c0 -15 -11 -27 -27 -27s-28 12 -28 27zM66 0v500h35v-500h-35z" />
    <glyph glyph-name="ccedilla" unicode="&#xe7;" horiz-adv-x="409" 
d="M45 230v46c0 170 90 230 205 230c55 0 100 -21 132 -44c-3 -10 -7 -20 -10 -30c-27 20 -72 41 -122 41c-103 0 -170 -54 -170 -197v-46c0 -132 67 -203 180 -203c44 0 84 10 121 34c3 -10 7 -20 10 -30c-37 -24 -76 -37 -131 -37c-9 0 -16 1 -24 1c-4 -14 -7 -27 -11 -41
c55 11 98 -14 98 -63c0 -78 -91 -86 -149 -64c0 9 1 18 1 27c23 -13 120 -29 120 37c0 53 -71 43 -106 33c7 25 13 50 20 75c-103 19 -164 101 -164 231z" />
    <glyph glyph-name="egrave" unicode="&#xe8;" horiz-adv-x="471" 
d="M435 271v-37h-355v-4c0 -149 72 -203 180 -203c64 0 115 14 150 34l10 -30c-46 -23 -96 -37 -160 -37c-128 0 -215 70 -215 236v41c0 165 79 235 195 235s195 -70 195 -235zM80 273v-6h320v6c0 147 -65 200 -160 200s-160 -53 -160 -200zM227 560l-83 136h32l79 -136h-28
z" />
    <glyph glyph-name="eacute" unicode="&#xe9;" horiz-adv-x="471" 
d="M435 271v-37h-355v-4c0 -149 72 -203 180 -203c64 0 115 14 150 34l10 -30c-46 -23 -96 -37 -160 -37c-128 0 -215 70 -215 236v41c0 165 79 235 195 235s195 -70 195 -235zM80 273v-6h320v6c0 147 -65 200 -160 200s-160 -53 -160 -200zM304 696h34l-85 -136h-28z" />
    <glyph glyph-name="ecircumflex" unicode="&#xea;" horiz-adv-x="471" 
d="M435 271v-37h-355v-4c0 -149 72 -203 180 -203c64 0 115 14 150 34l10 -30c-46 -23 -96 -37 -160 -37c-128 0 -215 70 -215 236v41c0 165 79 235 195 235s195 -70 195 -235zM80 273v-6h320v6c0 147 -65 200 -160 200s-160 -53 -160 -200zM134 560l91 136h29l93 -136h-33
l-73 111h-2l-72 -111h-33z" />
    <glyph glyph-name="edieresis" unicode="&#xeb;" horiz-adv-x="471" 
d="M435 271v-37h-355v-4c0 -149 72 -203 180 -203c64 0 115 14 150 34l10 -30c-46 -23 -96 -37 -160 -37c-128 0 -215 70 -215 236v41c0 165 79 235 195 235s195 -70 195 -235zM80 273v-6h320v6c0 147 -65 200 -160 200s-160 -53 -160 -200zM90 587c0 16 12 28 28 28
s27 -12 27 -28c0 -15 -11 -27 -27 -27s-28 12 -28 27zM336 587c0 16 12 28 28 28s27 -12 27 -28c0 -15 -11 -27 -27 -27s-28 12 -28 27z" />
    <glyph glyph-name="igrave" unicode="&#xec;" horiz-adv-x="167" 
d="M73 560l-83 136h32l79 -136h-28zM66 0v500h35v-500h-35z" />
    <glyph glyph-name="iacute" unicode="&#xed;" horiz-adv-x="167" 
d="M145 696h34l-85 -136h-28zM66 0v500h35v-500h-35z" />
    <glyph glyph-name="icircumflex" unicode="&#xee;" horiz-adv-x="167" 
d="M-23 560l91 136h29l93 -136h-33l-73 111h-2l-72 -111h-33zM66 0v500h35v-500h-35z" />
    <glyph glyph-name="ntilde" unicode="&#xf1;" horiz-adv-x="487" 
d="M63 0v480c37 12 83 26 175 26c112 0 195 -35 195 -208v-298h-35v298c0 154 -65 175 -160 175c-69 0 -100 -5 -140 -18v-455h-35zM92 563c0 91 29 137 89 137c85 0 72 -114 134 -114c39 0 61 30 61 111h28c0 -90 -29 -137 -89 -137c-85 0 -70 114 -134 114
c-39 0 -61 -29 -61 -111h-28z" />
    <glyph glyph-name="ograve" unicode="&#xf2;" 
d="M400 232v36c0 152 -64 205 -160 205s-160 -53 -160 -205v-36c0 -152 64 -205 160 -205s160 53 160 205zM45 232v36c0 172 82 238 195 238s195 -66 195 -238v-36c0 -172 -82 -238 -195 -238s-195 66 -195 238zM227 560c-28 45 -55 91 -83 136h32c26 -45 53 -91 79 -136
h-28z" />
    <glyph glyph-name="oacute" unicode="&#xf3;" 
d="M400 232v36c0 152 -64 205 -160 205s-160 -53 -160 -205v-36c0 -152 64 -205 160 -205s160 53 160 205zM45 232v36c0 172 82 238 195 238s195 -66 195 -238v-36c0 -172 -82 -238 -195 -238s-195 66 -195 238zM304 696h34c-28 -45 -57 -91 -85 -136h-28
c26 45 53 91 79 136z" />
    <glyph glyph-name="ocircumflex" unicode="&#xf4;" 
d="M400 232v36c0 152 -64 205 -160 205s-160 -53 -160 -205v-36c0 -152 64 -205 160 -205s160 53 160 205zM45 232v36c0 172 82 238 195 238s195 -66 195 -238v-36c0 -172 -82 -238 -195 -238s-195 66 -195 238zM134 560c30 45 61 91 91 136h29c31 -45 62 -91 93 -136h-33
c-24 37 -49 74 -73 111h-2l-72 -111h-33z" />
    <glyph glyph-name="otilde" unicode="&#xf5;" 
d="M400 232v36c0 152 -64 205 -160 205s-160 -53 -160 -205v-36c0 -152 64 -205 160 -205s160 53 160 205zM45 232v36c0 172 82 238 195 238s195 -66 195 -238v-36c0 -172 -82 -238 -195 -238s-195 66 -195 238zM84 565c0 91 29 137 89 137c85 0 72 -114 134 -114
c39 0 61 30 61 111h28c0 -90 -29 -137 -89 -137c-85 0 -70 114 -134 114c-39 0 -61 -29 -61 -111h-28z" />
    <glyph glyph-name="odieresis" unicode="&#xf6;" 
d="M400 232v36c0 152 -64 205 -160 205s-160 -53 -160 -205v-36c0 -152 64 -205 160 -205s160 53 160 205zM45 232v36c0 172 82 238 195 238s195 -66 195 -238v-36c0 -172 -82 -238 -195 -238s-195 66 -195 238zM90 587c0 16 12 28 28 28s27 -12 27 -28
c0 -15 -11 -27 -27 -27s-28 12 -28 27zM336 587c0 16 12 28 28 28s27 -12 27 -28c0 -15 -11 -27 -27 -27s-28 12 -28 27z" />
    <glyph glyph-name="oslash" unicode="&#xf8;" horiz-adv-x="460" 
d="M45 232v36c0 174 78 240 185 240s185 -66 185 -240v-36c0 -174 -78 -240 -185 -240s-185 66 -185 240zM380 232v36c0 104 -28 162 -74 189c-46 -141 -91 -281 -137 -422c9 -4 19 -6 29 -8s20 -2 32 -2c90 0 150 53 150 207zM80 232c0 -99 24 -156 66 -184l135 420
c-16 5 -33 7 -51 7c-90 0 -150 -53 -150 -207v-36z" />
    <glyph glyph-name="ugrave" unicode="&#xf9;" horiz-adv-x="487" 
d="M424 500v-480c-34 -11 -80 -26 -175 -26c-112 0 -195 35 -195 208v298h35v-298c0 -154 65 -175 160 -175c67 0 100 5 140 18v455h35zM226 560l-83 136h32l79 -136h-28z" />
    <glyph glyph-name="uacute" unicode="&#xfa;" horiz-adv-x="487" 
d="M424 500v-480c-34 -11 -80 -26 -175 -26c-112 0 -195 35 -195 208v298h35v-298c0 -154 65 -175 160 -175c67 0 100 5 140 18v455h35zM303 696h34l-85 -136h-28z" />
    <glyph glyph-name="ucircumflex" unicode="&#xfb;" horiz-adv-x="487" 
d="M424 500v-480c-34 -11 -80 -26 -175 -26c-112 0 -195 35 -195 208v298h35v-298c0 -154 65 -175 160 -175c67 0 100 5 140 18v455h35zM143 560l91 136h29l93 -136h-33l-73 111h-2l-72 -111h-33z" />
    <glyph glyph-name="udieresis" unicode="&#xfc;" horiz-adv-x="487" 
d="M424 500v-480c-34 -11 -80 -26 -175 -26c-112 0 -195 35 -195 208v298h35v-298c0 -154 65 -175 160 -175c67 0 100 5 140 18v455h35zM89 587c0 16 12 28 28 28s27 -12 27 -28c0 -15 -11 -27 -27 -27s-28 12 -28 27zM335 587c0 16 12 28 28 28s27 -12 27 -28
c0 -15 -11 -27 -27 -27s-28 12 -28 27z" />
    <glyph glyph-name="yacute" unicode="&#xfd;" horiz-adv-x="487" 
d="M424 500v-540c0 -167 -79 -208 -189 -208c-76 0 -118 13 -165 36l10 30c43 -21 88 -33 155 -33c93 0 154 27 154 175v53c-31 -10 -75 -19 -140 -19c-114 0 -195 37 -195 208v298h35v-298c0 -152 63 -175 160 -175c67 0 103 10 140 22v451h35zM303 696h34l-85 -136h-28z
" />
    <glyph glyph-name="ydieresis" unicode="&#xff;" horiz-adv-x="487" 
d="M424 500v-540c0 -167 -79 -208 -189 -208c-76 0 -118 13 -165 36l10 30c43 -21 88 -33 155 -33c93 0 154 27 154 175v53c-31 -10 -75 -19 -140 -19c-114 0 -195 37 -195 208v298h35v-298c0 -152 63 -175 160 -175c67 0 103 10 140 22v451h35zM89 587c0 16 12 28 28 28
s27 -12 27 -28c0 -15 -11 -27 -27 -27s-28 12 -28 27zM335 587c0 16 12 28 28 28s27 -12 27 -28c0 -15 -11 -27 -27 -27s-28 12 -28 27z" />
    <glyph glyph-name="fi" unicode="&#xfb01;" horiz-adv-x="468" 
d="M63 0v538c0 125 63 168 148 168c49 0 85 -13 116 -31l-10 -30c-30 16 -60 28 -106 28c-68 0 -113 -32 -113 -135v-38h209v-33h-209v-467h-35zM370 0v500h35v-500h-35zM360 675c0 16 12 28 28 28s27 -12 27 -28c0 -15 -11 -27 -27 -27s-28 12 -28 27z" />
    <glyph glyph-name="fl" unicode="&#xfb02;" horiz-adv-x="522" 
d="M63 0v538c0 125 63 168 148 168c49 0 85 -13 116 -31l-10 -30c-30 16 -60 28 -106 28c-68 0 -113 -32 -113 -135v-38h209v-33h-209v-467h-35zM370 132v568h35v-568c0 -82 26 -103 64 -103c26 0 40 6 53 12l10 -30c-17 -9 -33 -15 -63 -15c-55 0 -99 32 -99 136z" />
    <glyph glyph-name="Cacute" unicode="&#x106;" horiz-adv-x="497" 
d="M84 368v-86c0 -186 87 -255 216 -255c71 0 142 28 168 49l11 -34c-39 -25 -92 -50 -179 -50c-148 0 -255 83 -255 290v86c0 207 107 290 255 290c80 0 132 -24 179 -48l-11 -35c-39 25 -107 48 -168 48c-129 0 -216 -70 -216 -255zM331 886h34l-85 -136h-28z" />
    <glyph glyph-name="cacute" unicode="&#x107;" horiz-adv-x="409" 
d="M45 230v46c0 170 90 230 205 230c55 0 100 -21 132 -44c-3 -10 -7 -20 -10 -30c-27 20 -72 41 -122 41c-103 0 -170 -54 -170 -197v-46c0 -132 67 -203 180 -203c44 0 84 10 121 34c3 -10 7 -20 10 -30c-37 -24 -76 -37 -131 -37c-134 0 -215 86 -215 236zM301 696h34
c-28 -45 -57 -91 -85 -136h-28c26 45 53 91 79 136z" />
    <glyph glyph-name="Nacute" unicode="&#x143;" horiz-adv-x="556" 
d="M63 0v650h43l348 -585v585h39v-650h-43l-348 584v-584h-39zM360 886h34l-85 -136h-28z" />
    <glyph glyph-name="nacute" unicode="&#x144;" horiz-adv-x="487" 
d="M63 0v480c37 12 83 26 175 26c112 0 195 -35 195 -208v-298h-35v298c0 154 -65 175 -160 175c-69 0 -100 -5 -140 -18v-455h-35zM296 696h34l-85 -136h-28z" />
    <glyph glyph-name="Oacute" unicode="&#xd3;" horiz-adv-x="560" 
d="M476 282v86c0 187 -79 255 -196 255s-196 -68 -196 -255v-86c0 -188 79 -255 196 -255s196 67 196 255zM45 282v86c0 209 99 290 235 290s235 -81 235 -290v-86c0 -209 -99 -290 -235 -290s-235 81 -235 290zM344 886h34l-85 -136h-28z" />
    <glyph glyph-name="Sacute" unicode="&#x15a;" horiz-adv-x="473" 
d="M314 886h34l-85 -136h-28zM33 40l11 35c112 -78 357 -70 357 88c0 183 -358 105 -358 332c0 198 269 188 375 115l-11 -35c-95 73 -325 78 -325 -79c0 -194 358 -112 358 -334c0 -197 -286 -203 -407 -122z" />
    <glyph glyph-name="sacute" unicode="&#x15b;" horiz-adv-x="431" 
d="M296 696h34l-85 -136h-28zM45 31l10 30c114 -54 296 -51 296 66c0 166 -295 46 -295 250c0 143 206 160 314 85l-10 -30c-100 68 -269 53 -269 -54c0 -175 295 -44 295 -254c0 -142 -214 -159 -341 -93z" />
    <glyph glyph-name="Zacute" unicode="&#x179;" horiz-adv-x="486" 
d="M38 615v35h410v-35l-386 -580h406v-35h-450v35l386 580h-366zM305 886h34l-85 -136h-28z" />
    <glyph glyph-name="zacute" unicode="&#x17a;" horiz-adv-x="424" 
d="M27 467v33h370v-33l-328 -434h328v-33h-370v33l328 434h-328zM273 696h34l-85 -136h-28z" />
    <glyph glyph-name="Aogonek" unicode="&#x104;" horiz-adv-x="532" 
d="M532 0h-15c-31 -102 37 -175 141 -122v-26c-114 -58 -204 34 -168 151l-77 205h-294l-79 -208h-40l246 650h40zM266 595l-134 -352h267z" />
    <glyph glyph-name="aogonek" unicode="&#x105;" horiz-adv-x="451" 
d="M397 336v-316c-13 -4 -25 -8 -38 -11c-38 -106 31 -185 138 -131v-26c-114 -58 -204 34 -168 151c-31 -5 -67 -9 -117 -9c-106 0 -185 41 -185 145v14c0 89 92 132 215 138l120 6v39c0 105 -59 137 -150 137c-64 0 -118 -15 -153 -30c-3 11 -7 21 -10 32
c46 17 99 31 163 31c104 0 185 -43 185 -170zM362 45v218c-165 -8 -300 -5 -300 -110v-14c0 -83 61 -112 150 -112c71 0 110 5 150 18z" />
    <glyph glyph-name="Eogonek" unicode="&#x118;" 
d="M102 325v-290h351v-35h-141c-31 -102 37 -175 141 -122v-26c-113 -58 -203 32 -169 148h-221v650h390v-35h-351v-255h311v-35h-311z" />
    <glyph glyph-name="eogonek" unicode="&#x119;" horiz-adv-x="471" 
d="M435 271v-37h-355v-4c0 -147 71 -203 180 -203c64 0 115 14 150 34c3 -10 7 -20 10 -30c-38 -19 -79 -32 -128 -36c-27 -99 41 -169 143 -117v-26c-111 -57 -200 29 -171 142h-4c-128 0 -215 70 -215 236v41c0 165 79 235 195 235s195 -70 195 -235zM80 273v-6h320v0v6
c0 147 -65 200 -160 200s-160 -53 -160 -200z" />
    <glyph glyph-name="Zdotaccent" unicode="&#x17b;" horiz-adv-x="486" 
d="M38 615v35h410v-35l-386 -580h406v-35h-450v35l386 580h-366zM208 785c0 20 15 35 35 35s35 -15 35 -35s-15 -35 -35 -35s-35 15 -35 35z" />
    <glyph glyph-name="zdotaccent" unicode="&#x17c;" horiz-adv-x="424" 
d="M27 467v33h370v-33l-328 -434h328v-33h-370v33l328 434h-328zM177 595c0 20 15 35 35 35s35 -15 35 -35s-15 -35 -35 -35s-35 15 -35 35z" />
    <glyph glyph-name="_235" horiz-adv-x="451" 
d="M397 336v-316c-50 -15 -95 -26 -185 -26c-106 0 -185 44 -185 158v8c0 101 78 143 215 154l120 10v12c0 105 -59 137 -150 137c-64 0 -118 -15 -153 -30c-3 11 -7 21 -10 32c46 17 99 31 163 31c105 0 185 -43 185 -170zM362 45v249l-117 -10
c-114 -10 -183 -42 -183 -124v-8c0 -93 61 -125 150 -125c71 0 110 5 150 18z" />
  </font>
</defs>
</svg>
