<?xml version="1.0" standalone="no"?>
<!DOCTYPE svg PUBLIC "-//W3C//DTD SVG 1.1//EN" "http://www.w3.org/Graphics/SVG/1.1/DTD/svg11.dtd" >
<svg xmlns="http://www.w3.org/2000/svg" xmlns:xlink="http://www.w3.org/1999/xlink" version="1.1">
<metadata>
Created by FontForge 20160407 at Sat Oct  1 10:32:26 2016
 By Jimmy Warting
Copyright (c) 2010 by Aakash Soneri. All rights reserved.
</metadata>
<defs>
<font id="AccordAltExtraLight" horiz-adv-x="494" >
  <font-face 
    font-family="AccordAltExtraLight"
    font-weight="250"
    font-stretch="normal"
    units-per-em="1000"
    panose-1="2 0 0 0 0 0 0 0 0 0"
    ascent="750"
    descent="-250"
    x-height="500"
    cap-height="650"
    bbox="-86 -250.078 1269 907"
    underline-thickness="50"
    underline-position="-100"
    stemh="47"
    stemv="53"
    unicode-range="U+0020-FB02"
  />
<missing-glyph horiz-adv-x="190" 
 />
    <glyph glyph-name=".notdef" horiz-adv-x="190" 
 />
    <glyph glyph-name="A" unicode="A" horiz-adv-x="547" 
d="M493 0l-74 196h-290l-74 -196h-55l246 650h55l246 -650h-54zM274 578l-127 -334h253z" />
    <glyph glyph-name="B" unicode="B" horiz-adv-x="557" 
d="M61 650h211c164 0 227 -76 227 -170c0 -62 -28 -115 -96 -144c83 -27 116 -87 116 -159c0 -101 -63 -177 -228 -177h-230v650zM291 309h-177v-261h177c130 0 175 53 175 131c0 77 -45 130 -175 130zM272 601h-158v-245h158c130 0 174 53 174 122c0 71 -44 123 -174 123z
" />
    <glyph glyph-name="C" unicode="C" horiz-adv-x="503" 
d="M96 365v-80c0 -179 83 -245 207 -245c71 0 141 28 166 50l16 -47c-40 -26 -93 -52 -182 -52c-151 0 -260 85 -260 294v80c0 209 109 293 260 293c82 0 135 -24 182 -49l-16 -48c-38 25 -105 49 -166 49c-124 0 -207 -68 -207 -245z" />
    <glyph glyph-name="D" unicode="D" horiz-adv-x="545" 
d="M61 0v650h196c143 0 245 -78 245 -279v-93c0 -200 -102 -278 -245 -278h-196zM449 278v93c0 170 -76 230 -192 230h-143v-553h143c116 0 192 60 192 230z" />
    <glyph glyph-name="E" unicode="E" horiz-adv-x="487" 
d="M114 318v-270h348v-48h-401v650h401v-49h-348v-234h308v-49h-308z" />
    <glyph glyph-name="F" unicode="F" horiz-adv-x="476" 
d="M114 318v-318h-53v650h399v-49h-346v-234h306v-49h-306z" />
    <glyph glyph-name="G" unicode="G" horiz-adv-x="532" 
d="M278 292v47h211v-295c-40 -26 -95 -53 -184 -53c-152 0 -262 85 -262 294v80c0 209 110 293 262 293c83 0 134 -25 183 -49l-16 -48c-39 25 -106 49 -167 49c-125 0 -209 -68 -209 -245v-80c0 -179 84 -245 209 -245c53 0 98 13 131 28v224h-158z" />
    <glyph glyph-name="H" unicode="H" horiz-adv-x="563" 
d="M114 318v-318h-53v650h53v-283h335v283h53v-650h-53v318h-335z" />
    <glyph glyph-name="I" unicode="I" horiz-adv-x="175" 
d="M61 0v650h53v-650h-53z" />
    <glyph glyph-name="J" unicode="J" horiz-adv-x="398" 
d="M337 650v-454c0 -158 -76 -205 -175 -205c-59 0 -104 15 -145 34l15 47c33 -18 76 -32 129 -32c73 0 123 26 123 156v405h-224v49h277z" />
    <glyph glyph-name="K" unicode="K" horiz-adv-x="469" 
d="M141 340l244 310h64l-244 -310l264 -340h-64zM61 0v650h53v-650h-53z" />
    <glyph glyph-name="L" unicode="L" horiz-adv-x="431" 
d="M61 0v650h53v-602h308v-48h-361z" />
    <glyph glyph-name="M" unicode="M" horiz-adv-x="669" 
d="M61 0v650h55l218 -363l218 363h56v-650h-53v558l-221 -367l-220 367v-558h-53z" />
    <glyph glyph-name="N" unicode="N" horiz-adv-x="563" 
d="M61 0v650h55l333 -557v557h53v-650h-56l-332 555v-555h-53z" />
    <glyph glyph-name="O" unicode="O" horiz-adv-x="567" 
d="M471 285v79c0 181 -76 246 -188 246c-111 0 -187 -65 -187 -246v-79c0 -181 76 -245 187 -245c112 0 188 64 188 245zM43 285v79c0 212 101 294 240 294c140 0 241 -82 241 -294v-79c0 -211 -101 -294 -241 -294c-139 0 -240 83 -240 294z" />
    <glyph glyph-name="P" unicode="P" horiz-adv-x="527" 
d="M61 650h213c165 0 228 -84 228 -198c0 -115 -63 -199 -228 -199h-160v-253h-53v650zM274 601h-160v-299h160c130 0 175 60 175 150c0 89 -45 149 -175 149z" />
    <glyph glyph-name="Q" unicode="Q" horiz-adv-x="567" 
d="M117 -87v49c112 100 234 -100 346 0v-49c-112 -100 -234 100 -346 0zM471 285v79c0 181 -76 246 -188 246c-111 0 -187 -65 -187 -246v-79c0 -181 76 -245 187 -245c112 0 188 64 188 245zM43 285v79c0 212 101 294 240 294c140 0 241 -82 241 -294v-79
c0 -211 -101 -294 -241 -294c-139 0 -240 83 -240 294z" />
    <glyph glyph-name="R" unicode="R" horiz-adv-x="544" 
d="M483 0l-185 282h-184v-282h-53v650h213c165 0 228 -76 228 -184c0 -89 -45 -156 -149 -176l191 -290h-61zM274 601h-160v-271h160c130 0 175 54 175 136c0 83 -45 135 -175 135z" />
    <glyph glyph-name="S" unicode="S" horiz-adv-x="475" 
d="M31 41l16 48c110 -78 344 -71 344 77c0 173 -350 96 -350 325c0 200 271 195 381 118l-15 -48c-95 73 -312 77 -312 -68c0 -184 349 -103 349 -326c0 -202 -288 -210 -413 -126z" />
    <glyph glyph-name="T" unicode="T" horiz-adv-x="518" 
d="M17 601v49h485v-49h-216v-601h-54v601h-215z" />
    <glyph glyph-name="U" unicode="U" horiz-adv-x="565" 
d="M52 286v364h53v-364c0 -182 72 -246 178 -246c105 0 177 64 177 246v364h53v-364c0 -212 -97 -295 -230 -295c-134 0 -231 83 -231 295z" />
    <glyph glyph-name="V" unicode="V" horiz-adv-x="527" 
d="M527 650l-236 -650h-55l-236 650h55l208 -578l209 578h55z" />
    <glyph glyph-name="W" unicode="W" horiz-adv-x="853" 
d="M453 650l169 -565l170 565h53l-196 -650h-53l-170 561l-169 -561h-53l-196 650h53l169 -565l170 565h53z" />
    <glyph glyph-name="X" unicode="X" horiz-adv-x="513" 
d="M80 650l176 -266l177 266h60l-207 -310l227 -340h-60l-197 296l-196 -296h-60l226 340l-206 310h60z" />
    <glyph glyph-name="Y" unicode="Y" horiz-adv-x="550" 
d="M550 650l-248 -398v-252h-53v250l-249 400h59l216 -346l216 346h59z" />
    <glyph glyph-name="Z" unicode="Z" horiz-adv-x="493" 
d="M36 601v49h421v-46l-377 -556h397v-48h-461v45l377 556h-357z" />
    <glyph glyph-name="a" unicode="a" horiz-adv-x="457" 
d="M407 334v-315c-52 -15 -103 -26 -191 -26c-107 0 -190 43 -190 149v13c0 90 91 135 219 141c37 2 75 3 113 5v36c0 95 -57 123 -143 123c-64 0 -118 -15 -153 -30c-4 15 -10 30 -14 45c48 18 102 32 168 32c108 0 191 -44 191 -173zM358 56v201
c-158 -7 -283 -5 -283 -102v-13c0 -75 58 -102 141 -102c67 0 104 4 142 16z" />
    <glyph glyph-name="b" unicode="b" horiz-adv-x="485" 
d="M61 19v681h49v-214c26 12 65 21 113 21c127 0 219 -69 219 -241v-32c0 -172 -88 -241 -211 -241c-64 0 -119 9 -170 26zM393 234v32c0 146 -69 194 -172 194c-59 0 -94 -14 -111 -23v-381c35 -12 68 -16 121 -16c97 0 162 48 162 194z" />
    <glyph glyph-name="c" unicode="c" horiz-adv-x="416" 
d="M43 233v40c0 170 92 234 212 234c56 0 102 -21 135 -44c-4 -14 -9 -29 -14 -43c-27 20 -71 40 -121 40c-99 0 -163 -50 -163 -187v-40c0 -128 66 -193 173 -193c43 0 84 9 120 33c5 -15 10 -29 14 -43c-38 -24 -78 -37 -134 -37c-139 0 -222 90 -222 240z" />
    <glyph glyph-name="d" unicode="d" horiz-adv-x="485" 
d="M424 700v-681c-45 -14 -99 -26 -171 -26c-122 0 -210 69 -210 241v32c0 172 92 241 219 241c48 0 87 -9 113 -21v214h49zM92 266v-32c0 -146 64 -194 162 -194c56 0 90 5 121 16v381c-17 9 -52 23 -112 23c-102 0 -171 -48 -171 -194z" />
    <glyph glyph-name="e" unicode="e" horiz-adv-x="479" 
d="M444 269v-40h-351v-4c0 -134 68 -185 171 -185c64 0 117 13 152 32l14 -43c-47 -23 -100 -36 -166 -36c-133 0 -221 71 -221 239v37c0 167 80 238 200 238s201 -71 201 -238zM93 277v-5h301v5c0 134 -61 183 -151 183c-89 0 -150 -49 -150 -183z" />
    <glyph glyph-name="f" unicode="f" horiz-adv-x="312" 
d="M61 0v535c0 128 66 172 154 172c50 0 88 -13 119 -30l-14 -44c-29 16 -59 27 -105 27c-63 0 -105 -29 -105 -124v-36h202v-47h-202v-453h-49z" />
    <glyph glyph-name="g" unicode="g" horiz-adv-x="485" 
d="M424 481v-520c0 -164 -82 -209 -197 -209c-67 0 -114 12 -160 37c4 15 9 29 14 43c40 -21 85 -34 146 -34c90 0 148 27 148 163v49c-37 -12 -79 -17 -123 -17c-121 0 -209 69 -209 242v31c0 172 92 241 222 241c63 0 119 -9 159 -26zM92 266v-31c0 -144 63 -194 158 -195
c15 0 30 0 46 2c31 4 58 10 79 17v386c-28 9 -55 15 -112 15c-102 0 -171 -48 -171 -194z" />
    <glyph glyph-name="h" unicode="h" 
d="M61 0v700h49v-208c30 7 72 15 133 15c114 0 199 -41 199 -210v-297h-49v298c0 141 -61 162 -152 162c-62 0 -94 -5 -131 -17v-443h-49z" />
    <glyph glyph-name="i" unicode="i" horiz-adv-x="172" 
d="M61 0v500h49v-500h-49zM51 668c0 20 15 36 35 36s35 -16 35 -36c0 -19 -15 -34 -35 -34s-35 15 -35 34z" />
    <glyph glyph-name="j" unicode="j" horiz-adv-x="174" 
d="M111 500v-603c0 -111 -55 -145 -117 -145c-33 0 -60 9 -80 20l14 43c17 -9 39 -17 66 -17c36 0 67 21 67 99v603h50zM51 668c0 20 15 36 36 36c20 0 34 -16 34 -36c0 -19 -14 -34 -34 -34c-21 0 -36 15 -36 34z" />
    <glyph glyph-name="k" unicode="k" horiz-adv-x="426" 
d="M137 263l206 237h63l-206 -237l226 -263h-63zM61 0v700h49v-700h-49z" />
    <glyph glyph-name="l" unicode="l" horiz-adv-x="224" 
d="M61 139v561h49v-561c0 -77 24 -97 59 -97c24 0 37 5 49 11l14 -43c-18 -9 -35 -15 -66 -15c-59 0 -105 35 -105 144z" />
    <glyph glyph-name="m" unicode="m" horiz-adv-x="752" 
d="M61 0v481c35 12 82 26 163 26c57 0 105 -12 138 -53c39 32 90 53 158 53c103 0 180 -41 180 -210v-297h-49v298c0 141 -54 162 -133 162c-62 0 -103 -19 -134 -43c13 -31 21 -68 21 -120v-297h-49v298c0 141 -54 162 -133 162c-55 0 -80 -4 -113 -16v-444h-49z" />
    <glyph glyph-name="n" unicode="n" 
d="M61 0v481c39 12 92 26 182 26c114 0 199 -41 199 -210v-297h-49v298c0 141 -61 162 -152 162c-64 0 -93 -4 -131 -16v-444h-49z" />
    <glyph glyph-name="o" unicode="o" horiz-adv-x="489" 
d="M397 234v32c0 145 -61 194 -153 194s-152 -49 -152 -194v-32c0 -145 60 -194 152 -194s153 49 153 194zM43 234v32c0 173 85 241 201 241c117 0 202 -68 202 -241v-32c0 -173 -85 -241 -202 -241c-116 0 -201 68 -201 241z" />
    <glyph glyph-name="p" unicode="p" horiz-adv-x="485" 
d="M61 -250v731c43 17 98 26 162 26c128 0 219 -69 219 -241v-32c0 -173 -89 -241 -211 -241c-51 0 -93 8 -121 18v-261h-49zM393 234v32c0 146 -68 194 -171 194c-56 0 -86 -6 -112 -15v-385c22 -8 71 -20 120 -20c97 0 163 48 163 194z" />
    <glyph glyph-name="q" unicode="q" horiz-adv-x="485" 
d="M424 481v-731h-49v261c-28 -10 -70 -18 -122 -18c-122 0 -210 68 -210 241v32c0 172 91 241 219 241c59 0 117 -8 162 -26zM92 266v-32c0 -146 66 -194 163 -194c47 0 99 12 120 20v385c-28 10 -61 15 -112 15c-103 0 -171 -48 -171 -194z" />
    <glyph glyph-name="r" unicode="r" horiz-adv-x="295" 
d="M61 0v481c23 10 78 24 134 24c40 0 71 -6 96 -12l-14 -44c-21 6 -47 10 -80 10c-47 0 -69 -7 -87 -15v-444h-49z" />
    <glyph glyph-name="s" unicode="s" horiz-adv-x="435" 
d="M43 30l14 43c105 -51 286 -50 286 56c0 153 -289 41 -289 244c0 148 214 165 323 90l-14 -43c-94 65 -260 53 -260 -45c0 -160 289 -40 289 -246c0 -151 -228 -164 -349 -99z" />
    <glyph glyph-name="t" unicode="t" horiz-adv-x="351" 
d="M61 165v485h49v-150h203v-47h-203v-288c0 -96 42 -125 103 -125c44 0 85 13 114 32l14 -43c-35 -22 -78 -36 -128 -36c-86 0 -152 46 -152 172z" />
    <glyph glyph-name="u" unicode="u" 
d="M433 500v-481c-40 -12 -89 -26 -182 -26c-115 0 -199 41 -199 210v297h49v-298c0 -141 61 -162 151 -162c63 0 94 4 132 16v444h49z" />
    <glyph glyph-name="v" unicode="v" horiz-adv-x="464" 
d="M51 500l181 -440l181 440h51l-207 -500h-51l-206 500h51z" />
    <glyph glyph-name="w" unicode="w" horiz-adv-x="741" 
d="M60 500l142 -430l143 430h51l143 -430l142 430h51l-168 -500h-51l-143 424l-142 -424h-51l-168 500h51z" />
    <glyph glyph-name="x" unicode="x" horiz-adv-x="458" 
d="M80 500l149 -199l149 199h60l-179 -237l199 -263h-60l-169 224l-169 -224h-60l199 263l-179 237h60z" />
    <glyph glyph-name="y" unicode="y" 
d="M433 500v-539c0 -163 -82 -209 -195 -209c-77 0 -123 13 -171 37l14 43c43 -21 90 -34 157 -34c88 0 146 28 146 163v50c-31 -10 -74 -18 -133 -18c-115 0 -199 41 -199 210v297h49v-298c0 -139 59 -162 151 -162c63 0 96 8 132 19v441h49z" />
    <glyph glyph-name="z" unicode="z" horiz-adv-x="435" 
d="M27 453v47h381v-47l-318 -407h318v-46h-381v46l318 407h-318z" />
    <glyph glyph-name="comma" unicode="," horiz-adv-x="201" 
d="M55 36c0 24 18 42 41 42c40 0 46 -42 44 -77c-4 -41 -25 -118 -75 -154l-22 21c35 32 56 86 57 127c-28 -2 -45 19 -45 41z" />
    <glyph glyph-name="period" unicode="." horiz-adv-x="203" 
d="M60 36c0 24 18 42 42 42c23 0 41 -18 41 -42c0 -23 -18 -41 -41 -41c-24 0 -42 18 -42 41z" />
    <glyph glyph-name="zero" unicode="0" horiz-adv-x="515" 
d="M421 311v28c0 208 -64 271 -164 271c-99 0 -163 -63 -163 -271v-28c0 -207 64 -269 163 -269c100 0 164 62 164 269zM41 311v28c0 229 79 319 216 319c138 0 217 -90 217 -319v-28c0 -228 -79 -318 -217 -318c-137 0 -216 90 -216 318z" />
    <glyph glyph-name="one" unicode="1" horiz-adv-x="253" 
d="M8 601v49h184v-650h-53v601h-131z" />
    <glyph glyph-name="two" unicode="2" horiz-adv-x="432" 
d="M399 469c0 -157 -182 -293 -307 -421h307v-48h-379v48c166 169 326 284 326 421c0 72 -47 141 -145 141c-74 0 -130 -22 -168 -49l-15 47c42 28 102 50 183 50c102 0 198 -66 198 -189z" />
    <glyph glyph-name="three" unicode="3" horiz-adv-x="457" 
d="M173 317v47h38c110 0 145 52 145 120c0 76 -38 126 -148 126c-62 0 -118 -22 -158 -49l-15 47c41 25 94 50 173 50c138 0 201 -70 201 -174c0 -78 -42 -122 -96 -145c54 -23 106 -72 106 -157c0 -118 -71 -189 -211 -189c-82 0 -135 21 -183 50l15 48
c42 -29 102 -49 168 -49c113 0 158 50 158 140c0 69 -48 135 -155 135h-38z" />
    <glyph glyph-name="four" unicode="4" horiz-adv-x="501" 
d="M51 216l195 434h55l-195 -434h296v274h53v-490h-53v167h-351v49z" />
    <glyph glyph-name="five" unicode="5" horiz-adv-x="458" 
d="M57 331v319h348v-49h-295v-221h83c151 0 232 -62 232 -189c0 -133 -79 -198 -210 -198c-79 0 -127 15 -186 50l15 47c52 -34 109 -48 167 -48c116 0 161 52 161 146c0 117 -69 143 -220 143h-95z" />
    <glyph glyph-name="six" unicode="6" horiz-adv-x="485" 
d="M259 393c108 0 194 -65 194 -191c0 -146 -83 -209 -192 -209c-175 0 -218 142 -218 320c0 229 70 345 232 345c73 0 131 -22 174 -51l-15 -46c-36 25 -93 49 -160 49c-127 0 -177 -103 -177 -253c50 25 99 36 162 36zM259 348c-63 0 -103 -10 -162 -40
c0 -152 29 -266 163 -266c79 0 139 43 139 160c0 103 -70 146 -140 146z" />
    <glyph glyph-name="seven" unicode="7" horiz-adv-x="452" 
d="M157 0h-56l274 601h-353v49h408v-49z" />
    <glyph glyph-name="eight" unicode="8" horiz-adv-x="501" 
d="M251 658c125 0 195 -82 195 -172c0 -62 -31 -113 -89 -140c70 -25 111 -88 111 -162c0 -103 -76 -191 -217 -191s-217 88 -217 191c0 74 41 137 110 162c-58 27 -88 78 -88 140c0 92 69 172 195 172zM87 186c0 -87 59 -145 164 -145c104 0 163 58 163 145
c0 80 -59 136 -163 136c-105 0 -164 -56 -164 -136zM109 483c0 -73 52 -117 142 -117c89 0 141 44 141 117c0 63 -43 127 -141 127s-142 -64 -142 -127z" />
    <glyph glyph-name="nine" unicode="9" horiz-adv-x="485" 
d="M226 259c-108 0 -193 65 -193 189c0 148 82 210 192 210c174 0 218 -141 218 -321c0 -227 -71 -344 -237 -344c-64 0 -127 22 -170 51l16 47c38 -28 99 -49 155 -49c131 0 182 102 182 253c-50 -25 -99 -36 -163 -36zM227 303c62 0 103 11 162 40c0 153 -29 267 -164 267
c-79 0 -139 -44 -139 -162c0 -101 70 -145 141 -145z" />
    <glyph glyph-name="bracketleft" unicode="[" horiz-adv-x="325" 
d="M265 -212v-38h-177v1000h177v-38h-135v-924h135z" />
    <glyph glyph-name="backslash" unicode="\" horiz-adv-x="290" 
d="M-2 750h43l252 -780h-43z" />
    <glyph glyph-name="bracketright" unicode="]" horiz-adv-x="325" 
d="M61 -250v38h134v924h-134v38h176v-1000h-176z" />
    <glyph glyph-name="colon" unicode=":" horiz-adv-x="203" 
d="M60 36c0 24 18 42 42 42c23 0 41 -18 41 -42c0 -23 -18 -41 -41 -41c-24 0 -42 18 -42 41zM60 464c0 23 18 41 42 41c23 0 41 -18 41 -41s-18 -42 -41 -42c-24 0 -42 18 -42 42z" />
    <glyph glyph-name="semicolon" unicode=";" horiz-adv-x="202" 
d="M57 464c0 23 18 41 41 41c24 0 42 -18 42 -41s-18 -42 -42 -42c-23 0 -41 18 -41 42zM57 36c0 24 18 42 41 42c40 0 47 -42 44 -77c-3 -41 -24 -118 -75 -154l-21 21c34 32 55 86 57 127c-29 -2 -46 19 -46 41z" />
    <glyph glyph-name="less" unicode="&#x3c;" horiz-adv-x="569" 
d="M523 98v-45l-477 262v19l477 264v-45l-411 -228z" />
    <glyph glyph-name="equal" unicode="=" horiz-adv-x="582" 
d="M529 227v-36h-475v36h475zM529 460v-36h-475v36h475z" />
    <glyph glyph-name="greater" unicode="&#x3e;" horiz-adv-x="569" 
d="M46 53v45l411 227l-411 228v45l477 -264v-19z" />
    <glyph glyph-name="at" unicode="@" horiz-adv-x="1108" 
d="M988 311c0 306 -188 401 -444 401c-259 0 -424 -137 -424 -451c0 -364 203 -470 433 -473c177 -2 300 36 360 54l9 -39c-60 -18 -193 -55 -369 -53c-262 3 -475 131 -475 511c1 313 161 489 466 489c285 0 486 -111 486 -439c0 -163 -35 -320 -188 -320
c-70 0 -114 33 -132 104c-21 -61 -77 -104 -174 -104c-178 0 -193 153 -193 260c0 124 49 258 224 258c82 0 146 -33 175 -54v-280c0 -102 29 -146 100 -146c121 0 146 140 146 282zM700 215v216c-19 13 -66 40 -133 40c-145 0 -182 -111 -182 -220c0 -69 -4 -222 151 -222
c110 0 164 72 164 186z" />
    <glyph glyph-name="parenleft" unicode="(" horiz-adv-x="346" 
d="M63 250c0 204 64 365 215 500l30 -28c-115 -95 -203 -254 -203 -472s87 -376 203 -472l-30 -28c-151 135 -215 296 -215 500z" />
    <glyph glyph-name="parenright" unicode=")" horiz-adv-x="346" 
d="M283 250c0 -204 -64 -365 -215 -500l-30 28c116 96 203 254 203 472s-88 377 -203 472l30 28c151 -135 215 -296 215 -500z" />
    <glyph glyph-name="fraction" unicode="&#x2044;" horiz-adv-x="292" 
d="M282 727h43l-315 -818h-43z" />
    <glyph glyph-name="braceleft" unicode="{" horiz-adv-x="456" 
d="M63 240v38h24c75 0 112 65 112 175v100c0 128 62 197 146 197h73v-38h-59c-76 0 -118 -56 -118 -181v-97c0 -66 -16 -140 -83 -175c65 -32 82 -105 83 -175v-115c0 -125 42 -181 118 -181h59v-38h-73c-80 0 -146 68 -146 197v118c0 111 -37 175 -112 175h-24z" />
    <glyph glyph-name="bar" unicode="|" horiz-adv-x="222" 
d="M132 750v-1000h-42v1000h42z" />
    <glyph glyph-name="braceright" unicode="}" horiz-adv-x="456" 
d="M393 278v-38h-25c-75 0 -112 -64 -112 -175v-118c0 -129 -65 -197 -146 -197h-72v38h59c76 0 118 56 118 181v115c0 70 18 143 83 175c-67 35 -83 109 -83 175v97c0 125 -42 181 -118 181h-59v38h72c85 0 146 -69 146 -197v-100c0 -110 37 -175 112 -175h25z" />
    <glyph glyph-name="slash" unicode="/" horiz-adv-x="289" 
d="M248 750h43l-251 -780h-42z" />
    <glyph glyph-name="space" unicode=" " horiz-adv-x="190" 
 />
    <glyph glyph-name="exclam" unicode="!" horiz-adv-x="278" 
d="M115 650h51v-248c0 -84 -7 -170 -7 -254h-37c0 84 -7 170 -7 254v248zM98 36c0 24 18 42 41 42c24 0 42 -18 42 -42c0 -23 -18 -41 -42 -41c-23 0 -41 18 -41 41z" />
    <glyph glyph-name="question" unicode="?" horiz-adv-x="447" 
d="M94 36c0 24 18 42 41 42c24 0 42 -18 42 -42c0 -23 -18 -41 -42 -41c-23 0 -41 18 -41 41zM404 483c0 -117 -91 -157 -157 -195c-47 -34 -85 -67 -85 -129h-53c0 85 58 135 115 173c59 36 127 61 127 151c0 85 -61 127 -134 127c-62 0 -122 -10 -154 -24l-15 47
c36 14 90 25 169 25c102 0 187 -61 187 -175z" />
    <glyph glyph-name="dotlessi" unicode="&#x131;" horiz-adv-x="176" 
d="M64 0v500h49v-500h-49z" />
    <glyph glyph-name="plus" unicode="+" horiz-adv-x="623" 
d="M570 346v-40h-236v-223h-44v223h-236v40h236v223h44v-223h236z" />
    <glyph glyph-name="hyphen" unicode="-" horiz-adv-x="355" 
d="M326 270v-40h-296v40h296z" />
    <glyph glyph-name="Lslash" unicode="&#x141;" horiz-adv-x="473" 
d="M2 291l-14 37l116 42v280h53v-261l138 50l14 -37l-152 -55v-299h308v-48h-361v328z" />
    <glyph glyph-name="lslash" unicode="&#x142;" horiz-adv-x="248" 
d="M-5 313l-15 37l105 37v313h49v-296l111 41l15 -37l-126 -46v-223c0 -77 24 -97 59 -97c24 0 37 5 49 11l14 -43c-18 -9 -35 -15 -66 -15c-59 0 -105 35 -105 144v206z" />
    <glyph glyph-name="quotedbl" unicode="&#x22;" horiz-adv-x="255" 
d="M168 514l-3 209h38l-3 -209h-32zM54 514l-2 209h38l-3 -209h-33z" />
    <glyph glyph-name="numbersign" unicode="#" horiz-adv-x="719" 
d="M394 0l43 173h-229l-44 -173h-49l43 173h-150v43h162l58 233h-175v44h187l40 159h49l-40 -159h230l40 159h49l-40 -159h141v-44h-152l-59 -233h166v-43h-177l-44 -173h-49zM278 449l-59 -233h230l58 233h-229z" />
    <glyph glyph-name="dollar" unicode="$" horiz-adv-x="475" 
d="M31 41l16 48c110 -78 344 -71 344 77c0 173 -350 96 -350 325c0 108 79 156 169 165v150h45v-148c63 -2 126 -21 167 -49l-15 -48c-95 73 -312 77 -312 -68c0 -184 349 -103 349 -326c0 -112 -89 -165 -189 -174v-149h-45v147c-67 1 -134 19 -179 50z" />
    <glyph glyph-name="percent" unicode="%" horiz-adv-x="949" 
d="M381 436c0 -157 -63 -222 -160 -222c-96 0 -160 65 -160 222c0 156 64 222 160 222c97 0 160 -66 160 -222zM328 436c0 124 -41 174 -107 174c-67 0 -108 -50 -108 -174c0 -134 41 -174 108 -174c66 0 107 40 107 174zM889 215c0 -157 -63 -222 -160 -222
c-96 0 -160 65 -160 222c0 156 64 222 160 222c97 0 160 -66 160 -222zM836 215c0 124 -41 174 -107 174c-67 0 -108 -50 -108 -174c0 -134 41 -174 108 -174c66 0 107 40 107 174zM615 650h57l-339 -650h-56z" />
    <glyph glyph-name="ampersand" unicode="&#x26;" horiz-adv-x="569" 
d="M561 321h-98v-94c0 -180 -96 -236 -210 -236c-96 0 -210 51 -210 184c0 82 41 143 123 170c-78 27 -101 80 -101 153c0 91 82 160 188 160c80 0 124 -20 155 -37l-17 -45c-28 15 -63 34 -139 34c-80 0 -134 -55 -134 -114c0 -65 28 -129 136 -129h156v125h53v-125h98v-46
zM97 176c0 -104 87 -136 156 -136c74 0 157 24 157 187v94h-156c-89 0 -157 -48 -157 -145z" />
    <glyph glyph-name="quotesingle" unicode="'" horiz-adv-x="142" 
d="M54 514l-2 209h38l-2 -209h-34z" />
    <glyph glyph-name="breve" unicode="&#x2d8;" horiz-adv-x="432" 
d="M216 752c-68 0 -119 41 -119 119v21h36v-21c0 -61 35 -87 83 -87s83 26 83 88v20h36v-21c0 -78 -52 -119 -119 -119z" />
    <glyph glyph-name="dotaccent" unicode="&#x2d9;" horiz-adv-x="203" 
d="M60 791c0 24 18 42 42 42c23 0 41 -18 41 -42c0 -23 -18 -41 -41 -41c-24 0 -42 18 -42 41z" />
    <glyph glyph-name="ring" unicode="&#x2da;" horiz-adv-x="358" 
d="M179 749c-49 0 -81 33 -81 79s32 79 81 79s81 -33 81 -79s-32 -79 -81 -79zM179 778c33 0 50 24 50 50c0 28 -17 50 -50 50s-49 -22 -49 -50c0 -26 16 -50 49 -50z" />
    <glyph glyph-name="hungarumlaut" unicode="&#x2dd;" horiz-adv-x="391" 
d="M114 750l72 136h42l-82 -136h-32zM163 750l72 136h41l-81 -136h-32z" />
    <glyph glyph-name="ogonek" unicode="&#x2db;" horiz-adv-x="356" 
d="M114 19h36c-46 -107 24 -192 130 -136v-36c-122 -63 -217 43 -166 172z" />
    <glyph glyph-name="caron" unicode="&#x2c7;" horiz-adv-x="422" 
d="M190 750l-92 136h43l68 -107h2l70 107h42l-93 -136h-40z" />
    <glyph glyph-name="asterisk" unicode="*" horiz-adv-x="465" 
d="M251 736l-1 -158l151 50l12 -38l-151 -48l94 -127l-32 -24l-93 129l-91 -128l-32 23l93 127l-149 48l11 37l150 -50l-1 159h39z" />
    <glyph glyph-name="asciicircum" unicode="^" horiz-adv-x="524" 
d="M275 710l197 -407h-44l-166 349l-166 -349h-44l197 407h26z" />
    <glyph glyph-name="underscore" unicode="_" horiz-adv-x="477" 
d="M470 -8v-38h-462v38h462z" />
    <glyph glyph-name="grave" unicode="`" horiz-adv-x="264" 
d="M156 750l-86 136h45l79 -136h-38z" />
    <glyph glyph-name="asciitilde" unicode="~" horiz-adv-x="543" 
d="M52 199c0 122 42 181 118 181c115 0 114 -148 201 -148c56 0 81 50 81 145h39c0 -122 -40 -181 -118 -181c-115 0 -106 148 -201 148c-59 0 -81 -58 -81 -145h-39z" />
    <glyph glyph-name="Euro" unicode="&#x20ac;" horiz-adv-x="609" 
d="M198 364v-78v-22h297v-38h-292c17 -135 94 -186 204 -186c71 0 142 28 168 50l16 -46c-40 -26 -95 -53 -184 -53c-136 0 -239 68 -259 235h-128v38h125v22v78v16h-125v38h128c17 170 121 240 259 240c82 0 136 -24 184 -50l-16 -47c-39 25 -107 49 -168 49
c-111 0 -189 -54 -205 -192h293v-38h-297v-16z" />
    <glyph glyph-name="quotesinglbase" unicode="&#x201a;" horiz-adv-x="201" 
d="M55 36c0 24 18 42 41 42c40 0 46 -42 44 -77c-4 -41 -25 -118 -75 -154l-22 21c35 32 56 86 57 127c-28 -2 -45 19 -45 41z" />
    <glyph glyph-name="florin" unicode="&#x192;" horiz-adv-x="481" 
d="M496 723v-41c-22 3 -55 8 -77 8c-92 0 -130 -24 -153 -295h166v-42h-173c-31 -269 -36 -483 -210 -483c-33 0 -69 8 -95 15v45c24 -10 64 -17 86 -17c142 0 140 169 171 440h-124v42h131c26 194 30 315 158 334c13 2 27 3 42 3c18 0 54 -4 78 -9z" />
    <glyph glyph-name="quotedblbase" unicode="&#x201e;" horiz-adv-x="337" 
d="M190 36c0 24 18 42 41 42c40 0 47 -42 44 -77c-3 -41 -24 -118 -75 -154l-21 21c34 32 55 86 57 127c-29 -2 -46 19 -46 41zM55 36c0 24 18 42 41 42c40 0 46 -42 44 -77c-4 -41 -25 -118 -75 -154l-22 21c35 32 56 86 57 127c-28 -2 -45 19 -45 41z" />
    <glyph glyph-name="ellipsis" unicode="&#x2026;" horiz-adv-x="730" 
d="M587 36c0 24 18 42 41 42c24 0 42 -18 42 -42c0 -23 -18 -41 -42 -41c-23 0 -41 18 -41 41zM324 36c0 24 18 42 41 42c24 0 42 -18 42 -42c0 -23 -18 -41 -42 -41c-23 0 -41 18 -41 41zM60 36c0 24 18 42 42 42c23 0 41 -18 41 -42c0 -23 -18 -41 -41 -41
c-24 0 -42 18 -42 41z" />
    <glyph glyph-name="dagger" unicode="&#x2020;" horiz-adv-x="488" 
d="M452 494v-39h-185v-540h-46v540h-185v39h185v229h46v-229h185z" />
    <glyph glyph-name="daggerdbl" unicode="&#x2021;" horiz-adv-x="488" 
d="M452 494v-39h-185v-283h185v-40h-185v-217h-46v217h-185v40h185v283h-185v39h185v229h46v-229h185z" />
    <glyph glyph-name="circumflex" unicode="&#x2c6;" horiz-adv-x="405" 
d="M90 750l91 136h41l93 -136h-43l-69 106h-2l-69 -106h-42z" />
    <glyph glyph-name="perthousand" unicode="&#x2030;" horiz-adv-x="1329" 
d="M1269 215c0 -157 -63 -222 -160 -222c-96 0 -160 65 -160 222c0 156 64 222 160 222c97 0 160 -66 160 -222zM1216 215c0 124 -41 174 -107 174c-67 0 -108 -50 -108 -174c0 -134 41 -174 108 -174c66 0 107 40 107 174zM381 436c0 -157 -63 -222 -160 -222
c-96 0 -160 65 -160 222c0 156 64 222 160 222c97 0 160 -66 160 -222zM328 436c0 124 -41 174 -107 174c-67 0 -108 -50 -108 -174c0 -134 41 -174 108 -174c66 0 107 40 107 174zM889 215c0 -157 -63 -222 -160 -222c-96 0 -160 65 -160 222c0 156 64 222 160 222
c97 0 160 -66 160 -222zM836 215c0 124 -41 174 -107 174c-67 0 -108 -50 -108 -174c0 -134 41 -174 108 -174c66 0 107 40 107 174zM615 650h57l-339 -650h-56z" />
    <glyph glyph-name="guilsinglleft" unicode="&#x2039;" horiz-adv-x="350" 
d="M308 114v-47l-265 185v29l265 185v-47l-226 -152z" />
    <glyph glyph-name="OE" unicode="&#x152;" horiz-adv-x="897" 
d="M43 285v79c0 212 101 294 240 294c79 0 147 -28 188 -94v86h401v-49h-348v-234h308v-49h-308v-270h348v-48h-401v85c-41 -66 -109 -94 -188 -94c-139 0 -240 83 -240 294zM471 285v93c-4 170 -79 232 -188 232c-111 0 -187 -65 -187 -246v-79c0 -181 76 -245 187 -245
c112 0 188 64 188 245z" />
    <glyph glyph-name="quoteleft" unicode="&#x2018;" horiz-adv-x="204" 
d="M147 523c0 -23 -18 -41 -42 -41c-40 0 -46 41 -43 76c3 41 24 118 74 154c7 -7 15 -14 22 -21c-35 -32 -56 -86 -57 -127c29 2 46 -19 46 -41z" />
    <glyph glyph-name="quoteright" unicode="&#x2019;" horiz-adv-x="204" 
d="M57 670c0 24 18 42 42 42c40 0 46 -42 44 -77c-4 -41 -25 -117 -75 -153l-22 20c35 32 56 86 57 127c-29 -2 -46 19 -46 41z" />
    <glyph glyph-name="quotedblleft" unicode="&#x201c;" horiz-adv-x="339" 
d="M282 523c0 -23 -18 -41 -41 -41c-40 0 -47 41 -44 76c3 41 24 118 74 154c7 -7 15 -14 22 -21c-35 -32 -55 -86 -57 -127c29 2 46 -19 46 -41zM147 523c0 -23 -18 -41 -42 -41c-40 0 -46 41 -43 76c3 41 24 118 74 154c7 -7 15 -14 22 -21c-35 -32 -56 -86 -57 -127
c29 2 46 -19 46 -41z" />
    <glyph glyph-name="quotedblright" unicode="&#x201d;" horiz-adv-x="339" 
d="M57 670c0 24 18 42 42 42c40 0 46 -42 44 -77c-4 -41 -25 -117 -75 -153l-22 20c35 32 56 86 57 127c-29 -2 -46 19 -46 41zM193 670c0 24 18 42 41 42c40 0 46 -42 44 -77c-4 -41 -25 -117 -75 -153l-22 20c35 32 56 86 57 127c-28 -2 -45 19 -45 41z" />
    <glyph glyph-name="bullet" unicode="&#x2022;" horiz-adv-x="252" 
d="M208 318c0 -44 -33 -80 -82 -80s-82 36 -82 80s34 80 82 80s82 -36 82 -80z" />
    <glyph glyph-name="endash" unicode="&#x2013;" horiz-adv-x="441" 
d="M52 271v40h337v-40h-337z" />
    <glyph glyph-name="emdash" unicode="&#x2014;" horiz-adv-x="599" 
d="M52 267v37h495v-37h-495z" />
    <glyph glyph-name="tilde" unicode="&#x2dc;" horiz-adv-x="486" 
d="M83 753c0 91 30 137 93 137c82 0 74 -107 133 -107c37 0 58 30 58 104h36c0 -90 -31 -137 -93 -137c-83 0 -73 107 -133 107c-38 0 -58 -29 -58 -104h-36z" />
    <glyph glyph-name="trademark" unicode="&#x2122;" horiz-adv-x="865" 
d="M811 650v-399h-39v352l-137 -352h-31l-142 352v-352h-39v399h62l135 -339l130 339h61zM338 650v-36h-131v-363h-40v363h-131v36h302z" />
    <glyph glyph-name="guilsinglright" unicode="&#x203a;" horiz-adv-x="350" 
d="M43 67v47l226 153l-226 152v47l265 -185v-29z" />
    <glyph glyph-name="oe" unicode="&#x153;" horiz-adv-x="825" 
d="M790 268v-39h-348v-14c0 -126 69 -175 170 -175c64 0 116 14 151 34l15 -42c-48 -24 -101 -39 -166 -39c-92 0 -161 34 -195 113c-31 -80 -96 -113 -175 -113c-115 0 -199 68 -199 241v32c0 173 84 241 199 241c79 0 142 -33 174 -110c31 76 94 110 175 110
c118 0 199 -71 199 -239zM392 233v43c-1 137 -63 184 -150 184c-90 0 -150 -49 -150 -194v-32c0 -145 60 -194 150 -194s150 49 150 193zM442 283v-12h298v0v6c0 134 -61 183 -149 183s-149 -48 -149 -177z" />
    <glyph glyph-name="Ydieresis" unicode="&#x178;" horiz-adv-x="550" 
d="M550 650l-248 -398v-252h-53v250l-249 400h59l216 -346l216 346h59zM118 785c0 20 15 35 35 35s35 -15 35 -35s-15 -35 -35 -35s-35 15 -35 35zM364 785c0 20 15 35 35 35s35 -15 35 -35s-15 -35 -35 -35s-35 15 -35 35z" />
    <glyph glyph-name="exclamdown" unicode="&#xa1;" horiz-adv-x="278" 
d="M166 -191h-51v291c0 84 7 170 7 254h37c0 -84 7 -170 7 -254v-291zM98 465c0 24 18 42 41 42c24 0 42 -18 42 -42c0 -23 -18 -41 -42 -41c-23 0 -41 18 -41 41z" />
    <glyph glyph-name="cent" unicode="&#xa2;" horiz-adv-x="414" 
d="M41 233v40c0 161 83 225 192 232v145h41v-145c46 -3 85 -22 115 -42c-5 -14 -10 -29 -14 -43c-27 20 -72 40 -122 40c-98 0 -162 -50 -162 -187v-40c0 -128 65 -193 172 -193c44 0 84 9 121 33c4 -15 9 -29 14 -43c-36 -22 -73 -35 -124 -37v-143h-41v145
c-121 12 -192 99 -192 238z" />
    <glyph glyph-name="sterling" unicode="&#xa3;" horiz-adv-x="465" 
d="M456 48v-48h-361v292h-86v38h86v92c0 158 58 236 186 236c75 0 115 -19 144 -35l-13 -43c-29 15 -68 29 -130 30c-102 2 -134 -65 -134 -199v-81h165v-38h-165v-244h308z" />
    <glyph glyph-name="currency" unicode="&#xa4;" horiz-adv-x="653" 
d="M328 172c-36 0 -68 9 -94 28l-132 -132l-32 31l131 131c-18 23 -30 52 -30 94s12 71 29 95l-130 130l32 31l131 -131c25 19 59 29 95 29c35 0 68 -10 93 -28l130 130l32 -31l-128 -128c18 -24 31 -55 31 -97c0 -43 -14 -74 -32 -97l129 -127l-32 -32l-131 131
c-26 -18 -57 -27 -92 -27zM328 206c70 0 119 49 119 117c0 74 -48 120 -119 120c-70 0 -119 -46 -119 -120c0 -68 50 -117 119 -117z" />
    <glyph glyph-name="yen" unicode="&#xa5;" horiz-adv-x="550" 
d="M512 274v-38h-210v-98h210v-38h-210v-100h-53v100h-212v38h212v98h-212v38h197l-234 376h59l216 -345l216 345h59l-234 -376h196z" />
    <glyph glyph-name="brokenbar" unicode="&#xa6;" horiz-adv-x="216" 
d="M129 750v-403h-42v403h42zM129 174v-424h-42v424h42z" />
    <glyph glyph-name="section" unicode="&#xa7;" horiz-adv-x="534" 
d="M61 -184l15 48c43 -26 94 -50 164 -50c91 0 180 40 180 127c0 73 -60 107 -169 141c-81 27 -180 68 -180 183c0 67 33 114 88 140c-49 28 -88 71 -88 143c0 118 94 170 212 170c84 0 130 -26 169 -50l-15 -47c-36 23 -80 48 -159 48c-81 0 -154 -37 -154 -117
c0 -89 78 -116 150 -139c117 -37 200 -88 200 -185c0 -70 -37 -117 -94 -145c58 -33 94 -75 94 -139c0 -125 -112 -178 -235 -178c-84 0 -132 24 -178 50zM124 268c0 -113 126 -125 207 -160c50 19 89 55 89 116c0 86 -99 123 -210 156c-50 -16 -86 -52 -86 -112z" />
    <glyph glyph-name="dieresis" unicode="&#xa8;" horiz-adv-x="438" 
d="M61 785c0 20 15 35 35 35s35 -15 35 -35s-15 -35 -35 -35s-35 15 -35 35zM307 785c0 20 15 35 35 35s35 -15 35 -35s-15 -35 -35 -35s-35 15 -35 35z" />
    <glyph glyph-name="copyright" unicode="&#xa9;" horiz-adv-x="914" 
d="M288 340v31c0 136 74 191 171 191c48 0 83 -16 113 -36l-12 -36c-24 18 -58 33 -100 33c-77 0 -130 -42 -130 -153v-33c0 -115 67 -156 137 -156c44 0 71 10 101 28c4 -13 7 -25 11 -37c-29 -17 -58 -30 -111 -30c-97 0 -180 58 -180 198zM94 352c0 202 162 364 363 364
c202 0 364 -162 364 -364c0 -201 -162 -363 -364 -363c-201 0 -363 162 -363 363zM129 352c0 -182 148 -330 328 -330c181 0 328 148 328 330s-147 331 -328 331c-180 0 -328 -149 -328 -331z" />
    <glyph glyph-name="guillemotleft" unicode="&#xab;" horiz-adv-x="460" 
d="M399 40h-48l-161 210l161 210h48l-161 -210zM251 40h-47l-161 210l161 210h47l-161 -210z" />
    <glyph glyph-name="logicalnot" unicode="&#xac;" horiz-adv-x="548" 
d="M487 410v-270h-39v234h-405v36h444z" />
    <glyph glyph-name="minus" unicode="&#x2212;" horiz-adv-x="623" 
d="M570 344v-40h-516v40h516z" />
    <glyph glyph-name="registered" unicode="&#xae;" horiz-adv-x="914" 
d="M574 152l-117 176h-93v-176h-42v400h137c101 0 141 -47 141 -110c0 -57 -31 -101 -98 -111l120 -179h-48zM459 513h-95v-148h95c75 0 99 32 99 75c0 42 -24 73 -99 73zM94 352c0 202 162 364 363 364c202 0 364 -162 364 -364c0 -201 -162 -363 -364 -363
c-201 0 -363 162 -363 363zM129 352c0 -182 148 -330 328 -330c181 0 328 148 328 330s-147 331 -328 331c-180 0 -328 -149 -328 -331z" />
    <glyph glyph-name="degree" unicode="&#xb0;" horiz-adv-x="451" 
d="M387 587c0 -91 -71 -162 -163 -162c-93 0 -164 68 -164 162c0 93 72 163 164 163c91 0 163 -72 163 -163zM349 587c0 71 -52 127 -124 127c-75 0 -127 -56 -127 -127c0 -72 54 -126 127 -126c64 0 124 56 124 126z" />
    <glyph glyph-name="plusminus" unicode="&#xb1;" horiz-adv-x="593" 
d="M554 347v-40h-236v-218h236v-41h-516v41h236v218h-236v40h236v223h44v-223h236z" />
    <glyph glyph-name="acute" unicode="&#xb4;" horiz-adv-x="267" 
d="M149 886h48l-89 -136h-38z" />
    <glyph glyph-name="mu" unicode="&#xb5;" horiz-adv-x="503" 
d="M442 500v-500h-39l-10 70c-32 -55 -83 -78 -143 -78c-58 0 -109 20 -140 72v-297h-49v733h49v-268c0 -144 57 -194 141 -194c82 0 142 48 142 185v277h49z" />
    <glyph glyph-name="paragraph" unicode="&#xb6;" horiz-adv-x="474" 
d="M414 727v-825h-42v782h-84v-782h-42v381c-122 15 -203 102 -203 225c0 138 93 219 260 219h111z" />
    <glyph glyph-name="periodcentered" unicode="&#xb7;" horiz-adv-x="188" 
d="M53 250c0 23 18 41 41 41c24 0 42 -18 42 -41s-18 -41 -42 -41c-23 0 -41 18 -41 41z" />
    <glyph glyph-name="cedilla" unicode="&#xb8;" horiz-adv-x="236" 
d="M87 25h33l-17 -69c53 10 96 -16 95 -65c-1 -79 -93 -89 -153 -67l1 33c23 -13 116 -27 116 34c0 50 -68 42 -102 32z" />
    <glyph glyph-name="guillemotright" unicode="&#xbb;" horiz-adv-x="460" 
d="M108 40h-48l161 210l-161 210h48l161 -210zM256 40h-48l161 210l-161 210h48l161 -210z" />
    <glyph glyph-name="questiondown" unicode="&#xbf;" horiz-adv-x="477" 
d="M357 466c0 -24 -18 -42 -41 -42s-41 18 -41 42c0 23 18 41 41 41s41 -18 41 -41zM47 19c0 116 91 157 157 195c47 26 85 53 85 103h53c0 -72 -58 -114 -114 -147c-60 -36 -128 -61 -128 -151c0 -86 62 -128 134 -128c62 0 123 17 155 35l17 -46c-35 -18 -92 -38 -172 -38
c-102 0 -187 62 -187 177z" />
    <glyph glyph-name="AE" unicode="&#xc6;" horiz-adv-x="783" 
d="M0 0l236 650h523v-49h-351v-234h311v-49h-311v-270h351v-48h-405v236h-214l-85 -236h-55zM273 601l-116 -317h197v317h-81z" />
    <glyph glyph-name="multiply" unicode="&#xd7;" horiz-adv-x="661" 
d="M331 355l224 225l32 -31l-225 -225l225 -224l-32 -32l-225 225l-224 -225l-32 31l225 225l-225 225l32 31z" />
    <glyph glyph-name="Thorn" unicode="&#xde;" horiz-adv-x="529" 
d="M61 0v700h53v-100h160c165 0 228 -80 228 -188c0 -109 -63 -189 -228 -189h-160v-223h-53zM274 551h-160v-279h160c130 0 175 56 175 140c0 83 -45 139 -175 139z" />
    <glyph glyph-name="germandbls" unicode="&#xdf;" horiz-adv-x="498" 
d="M455 143c0 -102 -74 -152 -187 -152c-22 0 -59 5 -77 12v55c25 -14 50 -18 78 -18c97 0 132 40 132 101c0 110 -167 73 -167 191c0 102 125 85 125 180c0 67 -38 98 -106 98c-97 0 -139 -59 -139 -198v-412h-53v408c0 173 65 250 193 250c105 0 159 -59 159 -147
c0 -118 -126 -111 -126 -179c0 -69 168 -55 168 -189z" />
    <glyph glyph-name="ae" unicode="&#xe6;" horiz-adv-x="791" 
d="M756 268v-39h-349v-14c3 -126 72 -175 171 -175c63 0 115 13 150 32c4 -14 10 -28 14 -42c-47 -23 -99 -37 -164 -37c-89 0 -157 34 -190 108c-26 -78 -88 -108 -176 -108c-107 0 -186 43 -186 147v15c0 90 92 135 218 141c38 1 76 3 114 5v38c0 93 -57 121 -143 121
c-64 0 -118 -15 -153 -30c-4 16 -10 30 -14 45c48 18 102 32 168 32c80 0 146 -25 173 -91c34 64 93 93 168 93c118 0 199 -71 199 -241zM358 182v75c-156 -7 -283 -5 -283 -102v-15c0 -75 58 -103 141 -103c81 0 142 37 142 145zM407 286v-15h299v0v6
c0 135 -61 185 -149 185c-87 0 -147 -48 -150 -176z" />
    <glyph glyph-name="eth" unicode="&#xf0;" horiz-adv-x="487" 
d="M130 490l120 121c-55 33 -126 50 -172 56l14 49c43 -5 133 -30 194 -69l77 76l25 -25l-73 -72c67 -52 129 -121 129 -313c0 -180 -43 -322 -218 -322c-109 0 -192 63 -192 211c0 126 86 191 194 191c63 0 112 -11 162 -36c-3 136 -55 193 -110 233l-125 -125zM228 346
c-70 0 -141 -41 -141 -144c0 -118 61 -162 140 -162c134 0 163 112 163 266c-59 29 -99 40 -162 40z" />
    <glyph glyph-name="divide" unicode="&#xf7;" horiz-adv-x="623" 
d="M270 129c0 24 18 42 42 42c23 0 41 -18 41 -42c0 -23 -18 -41 -41 -41c-24 0 -42 18 -42 41zM270 503c0 23 18 41 42 41c23 0 41 -18 41 -41c0 -24 -18 -42 -41 -42c-24 0 -42 18 -42 42zM570 336v-40h-516v40h516z" />
    <glyph glyph-name="thorn" unicode="&#xfe;" horiz-adv-x="485" 
d="M61 -250v950h48v-270c32 56 84 79 147 79c106 0 186 -69 186 -243v-33c0 -173 -80 -242 -186 -242c-62 0 -114 23 -146 77v-318h-49zM393 233v33c0 147 -57 196 -142 196c-83 0 -141 -47 -141 -185v-44c0 -146 56 -196 141 -196s142 49 142 196z" />
    <glyph glyph-name="Zcaron" unicode="&#x17d;" horiz-adv-x="493" 
d="M36 601v49h421v-46l-377 -556h397v-48h-461v45l377 556h-357zM225 750l-91 136h43l68 -107h2l70 107h42l-93 -136h-41z" />
    <glyph glyph-name="zcaron" unicode="&#x17e;" horiz-adv-x="435" 
d="M27 453v47h381v-47l-318 -407h318v-46h-381v46l318 407h-318zM197 560l-91 136h42l69 -107h2l69 107h43l-93 -136h-41z" />
    <glyph glyph-name="Scaron" unicode="&#x160;" horiz-adv-x="475" 
d="M216 750l-91 136h43l68 -107h2l70 107h42l-93 -136h-41zM31 41l16 48c110 -78 344 -71 344 77c0 173 -350 96 -350 325c0 200 271 195 381 118l-15 -48c-95 73 -312 77 -312 -68c0 -184 349 -103 349 -326c0 -202 -288 -210 -413 -126z" />
    <glyph glyph-name="scaron" unicode="&#x161;" horiz-adv-x="435" 
d="M195 560l-91 136h42l69 -107h2l70 107h42l-93 -136h-41zM43 30l14 43c105 -51 286 -50 286 56c0 153 -289 41 -289 244c0 148 214 165 323 90l-14 -43c-94 65 -260 53 -260 -45c0 -160 289 -40 289 -246c0 -151 -228 -164 -349 -99z" />
    <glyph glyph-name="Agrave" unicode="&#xc0;" horiz-adv-x="544" 
d="M491 0l-74 196h-290l-74 -196h-55l246 650h55l246 -650h-54zM272 578l-127 -334h253zM261 750l-86 136h45l79 -136h-38z" />
    <glyph glyph-name="Aacute" unicode="&#xc1;" horiz-adv-x="544" 
d="M491 0l-74 196h-290l-74 -196h-55l246 650h55l246 -650h-54zM272 578l-127 -334h253zM323 886h48l-88 -136h-39z" />
    <glyph glyph-name="Acircumflex" unicode="&#xc2;" horiz-adv-x="544" 
d="M491 0l-74 196h-290l-74 -196h-55l246 650h55l246 -650h-54zM272 578l-127 -334h253zM160 750l91 136h41l93 -136h-43l-69 106h-2l-69 -106h-42z" />
    <glyph glyph-name="Atilde" unicode="&#xc3;" horiz-adv-x="544" 
d="M491 0l-74 196h-290l-74 -196h-55l246 650h55l246 -650h-54zM272 578l-127 -334h253zM112 753c0 91 30 137 93 137c82 0 74 -107 133 -107c37 0 58 30 58 104h35c0 -90 -30 -137 -92 -137c-83 0 -73 107 -133 107c-38 0 -58 -29 -58 -104h-36z" />
    <glyph glyph-name="Adieresis" unicode="&#xc4;" horiz-adv-x="544" 
d="M491 0l-74 196h-290l-74 -196h-55l246 650h55l246 -650h-54zM272 578l-127 -334h253zM114 785c0 20 15 35 36 35c20 0 34 -15 34 -35s-14 -35 -34 -35c-21 0 -36 15 -36 35zM360 785c0 20 15 35 36 35c20 0 34 -15 34 -35s-15 -35 -34 -35c-20 0 -36 15 -36 35z" />
    <glyph glyph-name="Aring" unicode="&#xc5;" horiz-adv-x="544" 
d="M491 0l-74 196h-290l-74 -196h-55l246 650h55l246 -650h-54zM272 578l-127 -334h253zM272 749c-50 0 -82 33 -82 79s32 79 82 79c49 0 81 -33 81 -79s-32 -79 -81 -79zM272 778c32 0 49 24 49 50c0 28 -17 50 -49 50c-33 0 -50 -22 -50 -50c0 -26 17 -50 50 -50z" />
    <glyph glyph-name="Ccedilla" unicode="&#xc7;" horiz-adv-x="503" 
d="M96 365v-80c0 -179 83 -245 207 -245c71 0 141 28 166 50l16 -47c-40 -26 -93 -52 -182 -52c-13 0 -26 1 -39 2l-9 -37c54 10 96 -16 96 -65c-1 -79 -93 -89 -153 -67l1 33c23 -13 116 -27 116 34c0 50 -68 42 -102 32l20 75c-113 24 -190 112 -190 287v80
c0 209 109 293 260 293c82 0 135 -24 182 -49l-16 -48c-38 25 -105 49 -166 49c-124 0 -207 -68 -207 -245z" />
    <glyph glyph-name="Egrave" unicode="&#xc8;" horiz-adv-x="487" 
d="M114 318v-270h348v-48h-401v650h401v-49h-348v-234h308v-49h-308zM279 750l-86 136h45l79 -136h-38z" />
    <glyph glyph-name="Eacute" unicode="&#xc9;" horiz-adv-x="487" 
d="M114 318v-270h348v-48h-401v650h401v-49h-348v-234h308v-49h-308zM287 886h47l-88 -136h-38z" />
    <glyph glyph-name="Ecircumflex" unicode="&#xca;" horiz-adv-x="487" 
d="M114 318v-270h348v-48h-401v650h401v-49h-348v-234h308v-49h-308zM151 750l91 136h41l93 -136h-43l-69 106h-2l-69 -106h-42z" />
    <glyph glyph-name="Edieresis" unicode="&#xcb;" horiz-adv-x="487" 
d="M114 318v-270h348v-48h-401v650h401v-49h-348v-234h308v-49h-308zM105 785c0 20 16 35 36 35s34 -15 34 -35s-14 -35 -34 -35s-36 15 -36 35zM351 785c0 20 16 35 36 35s34 -15 34 -35s-14 -35 -34 -35s-36 15 -36 35z" />
    <glyph glyph-name="Igrave" unicode="&#xcc;" horiz-adv-x="175" 
d="M61 0v650h53v-650h-53zM74 750l-87 136h46l78 -136h-37z" />
    <glyph glyph-name="Iacute" unicode="&#xcd;" horiz-adv-x="175" 
d="M61 0v650h53v-650h-53zM142 886h48l-88 -136h-39z" />
    <glyph glyph-name="Icircumflex" unicode="&#xce;" horiz-adv-x="175" 
d="M61 0v650h53v-650h-53zM-25 750l91 136h41l93 -136h-43l-69 106h-2l-69 -106h-42z" />
    <glyph glyph-name="Idieresis" unicode="&#xcf;" horiz-adv-x="175" 
d="M61 0v650h53v-650h-53zM-71 785c0 20 16 35 36 35s34 -15 34 -35s-14 -35 -34 -35s-36 15 -36 35zM175 785c0 20 16 35 36 35s34 -15 34 -35s-14 -35 -34 -35s-36 15 -36 35z" />
    <glyph glyph-name="Eth" unicode="&#xd0;" horiz-adv-x="555" 
d="M71 0v315h-85v42h85v293h197c143 0 245 -78 245 -279v-93c0 -200 -102 -278 -245 -278h-197zM459 278v93c0 170 -75 230 -191 230h-143v-244h89v-42h-89v-267h143c116 0 191 60 191 230z" />
    <glyph glyph-name="Ntilde" unicode="&#xd1;" horiz-adv-x="563" 
d="M61 0v650h55l333 -557v557h53v-650h-56l-332 555v-555h-53zM122 753c0 91 30 137 92 137c83 0 74 -107 133 -107c38 0 58 30 58 104h36c0 -90 -30 -137 -93 -137c-82 0 -72 107 -133 107c-37 0 -58 -29 -58 -104h-35z" />
    <glyph glyph-name="Ograve" unicode="&#xd2;" horiz-adv-x="567" 
d="M471 285v79c0 181 -76 246 -188 246c-111 0 -187 -65 -187 -246v-79c0 -181 76 -245 187 -245c112 0 188 64 188 245zM43 285v79c0 212 101 294 240 294c140 0 241 -82 241 -294v-79c0 -211 -101 -294 -241 -294c-139 0 -240 83 -240 294zM266 750l-86 136h45l79 -136
h-38z" />
    <glyph glyph-name="Ocircumflex" unicode="&#xd4;" horiz-adv-x="567" 
d="M471 285v79c0 181 -76 246 -188 246c-111 0 -187 -65 -187 -246v-79c0 -181 76 -245 187 -245c112 0 188 64 188 245zM43 285v79c0 212 101 294 240 294c140 0 241 -82 241 -294v-79c0 -211 -101 -294 -241 -294c-139 0 -240 83 -240 294zM171 750l91 136h41l93 -136h-42
l-70 106h-2l-68 -106h-43z" />
    <glyph glyph-name="Otilde" unicode="&#xd5;" horiz-adv-x="567" 
d="M471 285v79c0 181 -76 246 -188 246c-111 0 -187 -65 -187 -246v-79c0 -181 76 -245 187 -245c112 0 188 64 188 245zM43 285v79c0 212 101 294 240 294c140 0 241 -82 241 -294v-79c0 -211 -101 -294 -241 -294c-139 0 -240 83 -240 294zM124 753c0 91 30 137 92 137
c83 0 75 -107 134 -107c37 0 58 30 58 104h35c0 -90 -30 -137 -93 -137c-82 0 -72 107 -133 107c-37 0 -58 -29 -58 -104h-35z" />
    <glyph glyph-name="Odieresis" unicode="&#xd6;" horiz-adv-x="567" 
d="M471 285v79c0 181 -76 246 -188 246c-111 0 -187 -65 -187 -246v-79c0 -181 76 -245 187 -245c112 0 188 64 188 245zM43 285v79c0 212 101 294 240 294c140 0 241 -82 241 -294v-79c0 -211 -101 -294 -241 -294c-139 0 -240 83 -240 294zM126 785c0 20 15 35 35 35
s35 -15 35 -35s-15 -35 -35 -35s-35 15 -35 35zM372 785c0 20 15 35 35 35s35 -15 35 -35s-15 -35 -35 -35s-35 15 -35 35z" />
    <glyph glyph-name="Oslash" unicode="&#xd8;" horiz-adv-x="567" 
d="M43 285v79c0 212 101 294 240 294c140 0 241 -82 241 -294v-79c0 -211 -101 -294 -241 -294c-139 0 -240 83 -240 294zM471 285v79c0 121 -35 190 -92 222l-173 -532c23 -10 48 -14 77 -14c112 0 188 64 188 245zM96 285c0 -109 27 -175 74 -211l170 529
c-18 4 -36 7 -57 7c-111 0 -187 -65 -187 -246v-79z" />
    <glyph glyph-name="Ugrave" unicode="&#xd9;" horiz-adv-x="565" 
d="M52 286v364h53v-364c0 -182 72 -246 178 -246c105 0 177 64 177 246v364h53v-364c0 -212 -97 -295 -230 -295c-134 0 -231 83 -231 295zM265 750l-86 136h45l79 -136h-38z" />
    <glyph glyph-name="Uacute" unicode="&#xda;" horiz-adv-x="565" 
d="M52 286v364h53v-364c0 -182 72 -246 178 -246c105 0 177 64 177 246v364h53v-364c0 -212 -97 -295 -230 -295c-134 0 -231 83 -231 295zM341 886h48l-88 -136h-39z" />
    <glyph glyph-name="Ucircumflex" unicode="&#xdb;" horiz-adv-x="565" 
d="M52 286v364h53v-364c0 -182 72 -246 178 -246c105 0 177 64 177 246v364h53v-364c0 -212 -97 -295 -230 -295c-134 0 -231 83 -231 295zM170 750l91 136h41l93 -136h-42l-70 106h-2l-68 -106h-43z" />
    <glyph glyph-name="Udieresis" unicode="&#xdc;" horiz-adv-x="565" 
d="M52 286v364h53v-364c0 -182 72 -246 178 -246c105 0 177 64 177 246v364h53v-364c0 -212 -97 -295 -230 -295c-134 0 -231 83 -231 295zM125 785c0 20 15 35 35 35s35 -15 35 -35s-15 -35 -35 -35s-35 15 -35 35zM371 785c0 20 15 35 35 35s35 -15 35 -35
s-15 -35 -35 -35s-35 15 -35 35z" />
    <glyph glyph-name="Yacute" unicode="&#xdd;" horiz-adv-x="550" 
d="M550 650l-248 -398v-252h-53v250l-249 400h59l216 -346l216 346h59zM334 886h48l-89 -136h-38z" />
    <glyph glyph-name="agrave" unicode="&#xe0;" horiz-adv-x="457" 
d="M407 334v-315c-52 -15 -103 -26 -191 -26c-107 0 -190 43 -190 149v13c0 90 91 135 219 141c37 2 75 3 113 5v36c0 95 -57 123 -143 123c-64 0 -118 -15 -153 -30c-4 15 -10 30 -14 45c48 18 102 32 168 32c108 0 191 -44 191 -173zM358 56v201
c-158 -7 -283 -5 -283 -102v-13c0 -75 58 -102 141 -102c67 0 104 4 142 16zM202 560c-30 45 -58 91 -87 136h46c26 -45 53 -91 78 -136h-37z" />
    <glyph glyph-name="aacute" unicode="&#xe1;" horiz-adv-x="457" 
d="M407 334v-315c-52 -15 -103 -26 -191 -26c-107 0 -190 43 -190 149v13c0 90 91 135 219 141c37 2 75 3 113 5v36c0 95 -57 123 -143 123c-64 0 -118 -15 -153 -30c-4 15 -10 30 -14 45c48 18 102 32 168 32c108 0 191 -44 191 -173zM358 56v201
c-158 -7 -283 -5 -283 -102v-13c0 -75 58 -102 141 -102c67 0 104 4 142 16zM273 696h48c-29 -45 -59 -91 -88 -136h-39c26 45 53 91 79 136z" />
    <glyph glyph-name="acircumflex" unicode="&#xe2;" horiz-adv-x="457" 
d="M407 334v-315c-52 -15 -103 -26 -191 -26c-107 0 -190 43 -190 149v13c0 90 91 135 219 141c37 2 75 3 113 5v36c0 95 -57 123 -143 123c-64 0 -118 -15 -153 -30c-4 15 -10 30 -14 45c48 18 102 32 168 32c108 0 191 -44 191 -173zM358 56v201
c-158 -7 -283 -5 -283 -102v-13c0 -75 58 -102 141 -102c67 0 104 4 142 16zM107 560c30 45 61 91 91 136h41c31 -45 62 -91 93 -136h-42c-23 35 -47 71 -70 106h-2l-69 -106h-42z" />
    <glyph glyph-name="atilde" unicode="&#xe3;" horiz-adv-x="457" 
d="M407 334v-315c-52 -15 -103 -26 -191 -26c-107 0 -190 43 -190 149v13c0 90 91 135 219 141c37 2 75 3 113 5v36c0 95 -57 123 -143 123c-64 0 -118 -15 -153 -30c-4 15 -10 30 -14 45c48 18 102 32 168 32c108 0 191 -44 191 -173zM358 56v201
c-158 -7 -283 -5 -283 -102v-13c0 -75 58 -102 141 -102c67 0 104 4 142 16zM59 563c0 91 31 137 93 137c83 0 74 -107 133 -107c37 0 58 30 58 104h36c0 -90 -31 -137 -93 -137c-83 0 -72 107 -133 107c-37 0 -58 -29 -58 -104h-36z" />
    <glyph glyph-name="adieresis" unicode="&#xe4;" horiz-adv-x="457" 
d="M407 334v-315c-52 -15 -103 -26 -191 -26c-107 0 -190 43 -190 149v13c0 90 91 135 219 141c37 2 75 3 113 5v36c0 95 -57 123 -143 123c-64 0 -118 -15 -153 -30c-4 15 -10 30 -14 45c48 18 102 32 168 32c108 0 191 -44 191 -173zM358 56v201
c-158 -7 -283 -5 -283 -102v-13c0 -75 58 -102 141 -102c67 0 104 4 142 16zM61 595c0 20 16 35 36 35s34 -15 34 -35s-14 -35 -34 -35s-36 15 -36 35zM307 595c0 20 16 35 36 35s34 -15 34 -35s-14 -35 -34 -35s-36 15 -36 35z" />
    <glyph glyph-name="aring" unicode="&#xe5;" horiz-adv-x="457" 
d="M407 334v-315c-52 -15 -103 -26 -191 -26c-107 0 -190 43 -190 149v13c0 90 91 135 219 141c37 2 75 3 113 5v36c0 95 -57 123 -143 123c-64 0 -118 -15 -153 -30c-4 15 -10 30 -14 45c48 18 102 32 168 32c108 0 191 -44 191 -173zM358 56v201
c-158 -7 -283 -5 -283 -102v-13c0 -75 58 -102 141 -102c67 0 104 4 142 16zM219 560c-49 0 -81 33 -81 79s32 79 81 79s81 -33 81 -79s-32 -79 -81 -79zM219 589c33 0 49 24 49 50c0 28 -16 50 -49 50s-50 -22 -50 -50c0 -26 17 -50 50 -50z" />
    <glyph glyph-name="idieresis" unicode="&#xef;" horiz-adv-x="181" 
d="M-67 595c0 20 15 35 35 35s35 -15 35 -35s-15 -35 -35 -35s-35 15 -35 35zM179 595c0 20 15 35 35 35s35 -15 35 -35s-15 -35 -35 -35s-35 15 -35 35zM66 0v500h49v-500h-49z" />
    <glyph glyph-name="ccedilla" unicode="&#xe7;" horiz-adv-x="414" 
d="M41 233v40c0 170 93 234 212 234c57 0 102 -21 136 -44c-5 -14 -10 -29 -14 -43c-27 20 -72 40 -122 40c-98 0 -162 -50 -162 -187v-40c0 -128 65 -193 172 -193c44 0 84 9 121 33c4 -15 9 -29 14 -43c-38 -24 -78 -37 -135 -37c-9 0 -17 1 -25 1c-4 -13 -7 -25 -10 -38
c54 10 96 -16 95 -65c0 -79 -93 -89 -153 -67c0 11 1 22 1 33c23 -13 116 -27 116 34c0 50 -68 42 -101 32c7 26 13 51 20 77c-104 21 -165 105 -165 233z" />
    <glyph glyph-name="egrave" unicode="&#xe8;" horiz-adv-x="476" 
d="M441 269v-40h-351v-4c0 -134 68 -185 171 -185c64 0 117 13 152 32l14 -43c-47 -23 -100 -36 -166 -36c-133 0 -221 71 -221 239v37c0 167 80 238 200 238s201 -71 201 -238zM90 277v-5h301v5c0 134 -61 183 -151 183c-89 0 -150 -49 -150 -183zM224 560l-86 136h46
l78 -136h-38z" />
    <glyph glyph-name="eacute" unicode="&#xe9;" horiz-adv-x="476" 
d="M441 269v-40h-351v-4c0 -134 68 -185 171 -185c64 0 117 13 152 32l14 -43c-47 -23 -100 -36 -166 -36c-133 0 -221 71 -221 239v37c0 167 80 238 200 238s201 -71 201 -238zM90 277v-5h301v5c0 134 -61 183 -151 183c-89 0 -150 -49 -150 -183zM301 696h47l-88 -136h-38
z" />
    <glyph glyph-name="ecircumflex" unicode="&#xea;" horiz-adv-x="476" 
d="M441 269v-40h-351v-4c0 -134 68 -185 171 -185c64 0 117 13 152 32l14 -43c-47 -23 -100 -36 -166 -36c-133 0 -221 71 -221 239v37c0 167 80 238 200 238s201 -71 201 -238zM90 277v-5h301v5c0 134 -61 183 -151 183c-89 0 -150 -49 -150 -183zM130 560l91 136h41
l93 -136h-43l-69 106h-2l-69 -106h-42z" />
    <glyph glyph-name="edieresis" unicode="&#xeb;" horiz-adv-x="476" 
d="M441 269v-40h-351v-4c0 -134 68 -185 171 -185c64 0 117 13 152 32l14 -43c-47 -23 -100 -36 -166 -36c-133 0 -221 71 -221 239v37c0 167 80 238 200 238s201 -71 201 -238zM90 277v-5h301v5c0 134 -61 183 -151 183c-89 0 -150 -49 -150 -183zM84 595c0 20 16 35 36 35
s34 -15 34 -35s-14 -35 -34 -35s-36 15 -36 35zM330 595c0 20 16 35 36 35s34 -15 34 -35s-14 -35 -34 -35s-36 15 -36 35z" />
    <glyph glyph-name="igrave" unicode="&#xec;" horiz-adv-x="181" 
d="M75 560l-86 136h45l79 -136h-38zM66 0v500h49v-500h-49z" />
    <glyph glyph-name="iacute" unicode="&#xed;" horiz-adv-x="181" 
d="M147 696h48l-88 -136h-39zM66 0v500h49v-500h-49z" />
    <glyph glyph-name="icircumflex" unicode="&#xee;" horiz-adv-x="181" 
d="M-22 560l91 136h41l93 -136h-42l-70 106h-2l-69 -106h-42zM66 0v500h49v-500h-49z" />
    <glyph glyph-name="ntilde" unicode="&#xf1;" 
d="M61 0v481c39 12 92 26 182 26c114 0 199 -41 199 -210v-297h-49v298c0 141 -61 162 -152 162c-64 0 -93 -4 -131 -16v-444h-49zM90 563c0 91 31 137 93 137c83 0 74 -107 133 -107c38 0 58 30 58 104h36c0 -90 -31 -137 -93 -137c-83 0 -72 107 -133 107
c-37 0 -58 -29 -58 -104h-36z" />
    <glyph glyph-name="ograve" unicode="&#xf2;" horiz-adv-x="489" 
d="M397 234v32c0 145 -61 194 -153 194s-152 -49 -152 -194v-32c0 -145 60 -194 152 -194s153 49 153 194zM43 234v32c0 173 85 241 201 241c117 0 202 -68 202 -241v-32c0 -173 -85 -241 -202 -241c-116 0 -201 68 -201 241zM227 560c-29 45 -57 91 -86 136h46
c25 -45 52 -91 78 -136h-38z" />
    <glyph glyph-name="oacute" unicode="&#xf3;" horiz-adv-x="489" 
d="M397 234v32c0 145 -61 194 -153 194s-152 -49 -152 -194v-32c0 -145 60 -194 152 -194s153 49 153 194zM43 234v32c0 173 85 241 201 241c117 0 202 -68 202 -241v-32c0 -173 -85 -241 -202 -241c-116 0 -201 68 -201 241zM303 696h48c-29 -45 -59 -91 -89 -136h-38
c26 45 53 91 79 136z" />
    <glyph glyph-name="ocircumflex" unicode="&#xf4;" horiz-adv-x="489" 
d="M397 234v32c0 145 -61 194 -153 194s-152 -49 -152 -194v-32c0 -145 60 -194 152 -194s153 49 153 194zM43 234v32c0 173 85 241 201 241c117 0 202 -68 202 -241v-32c0 -173 -85 -241 -202 -241c-116 0 -201 68 -201 241zM132 560c30 45 61 91 91 136h41
c31 -45 62 -91 93 -136h-42c-23 35 -47 71 -70 106h-2l-69 -106h-42z" />
    <glyph glyph-name="otilde" unicode="&#xf5;" horiz-adv-x="489" 
d="M397 234v32c0 145 -61 194 -153 194s-152 -49 -152 -194v-32c0 -145 60 -194 152 -194s153 49 153 194zM43 234v32c0 173 85 241 201 241c117 0 202 -68 202 -241v-32c0 -173 -85 -241 -202 -241c-116 0 -201 68 -201 241zM85 565c0 91 30 137 92 137
c83 0 74 -107 133 -107c38 0 58 30 58 104h36c0 -90 -30 -137 -93 -137c-82 0 -72 106 -133 106c-37 0 -58 -29 -58 -103h-35z" />
    <glyph glyph-name="odieresis" unicode="&#xf6;" horiz-adv-x="489" 
d="M397 234v32c0 145 -61 194 -153 194s-152 -49 -152 -194v-32c0 -145 60 -194 152 -194s153 49 153 194zM43 234v32c0 173 85 241 201 241c117 0 202 -68 202 -241v-32c0 -173 -85 -241 -202 -241c-116 0 -201 68 -201 241zM87 595c0 20 15 35 35 35s35 -15 35 -35
s-15 -35 -35 -35s-35 15 -35 35zM333 595c0 20 15 35 35 35s35 -15 35 -35s-15 -35 -35 -35s-35 15 -35 35z" />
    <glyph glyph-name="oslash" unicode="&#xf8;" horiz-adv-x="472" 
d="M43 234v32c0 175 81 243 193 243c111 0 193 -68 193 -243v-32c0 -175 -82 -243 -193 -243c-112 0 -193 68 -193 243zM380 234v32c0 95 -25 149 -67 176c-44 -132 -88 -263 -132 -395c8 -4 18 -6 28 -7c10 -2 19 -2 31 -2c84 1 140 52 140 196zM92 234
c0 -91 22 -144 60 -171c43 131 87 262 130 393c-14 4 -30 6 -46 6c-87 0 -144 -50 -144 -196v-32z" />
    <glyph glyph-name="ugrave" unicode="&#xf9;" 
d="M433 500v-481c-40 -12 -89 -26 -182 -26c-115 0 -199 41 -199 210v297h49v-298c0 -141 61 -162 151 -162c63 0 94 4 132 16v444h49zM225 560l-87 136h46l79 -136h-38z" />
    <glyph glyph-name="uacute" unicode="&#xfa;" 
d="M433 500v-481c-40 -12 -89 -26 -182 -26c-115 0 -199 41 -199 210v297h49v-298c0 -141 61 -162 151 -162c63 0 94 4 132 16v444h49zM301 696h48l-89 -136h-38z" />
    <glyph glyph-name="ucircumflex" unicode="&#xfb;" 
d="M433 500v-481c-40 -12 -89 -26 -182 -26c-115 0 -199 41 -199 210v297h49v-298c0 -141 61 -162 151 -162c63 0 94 4 132 16v444h49zM139 560l91 136h41l93 -136h-43l-69 106h-2l-69 -106h-42z" />
    <glyph glyph-name="udieresis" unicode="&#xfc;" 
d="M433 500v-481c-40 -12 -89 -26 -182 -26c-115 0 -199 41 -199 210v297h49v-298c0 -141 61 -162 151 -162c63 0 94 4 132 16v444h49zM85 595c0 20 15 35 35 35s35 -15 35 -35s-15 -35 -35 -35s-35 15 -35 35zM331 595c0 20 15 35 35 35s35 -15 35 -35s-15 -35 -35 -35
s-35 15 -35 35z" />
    <glyph glyph-name="yacute" unicode="&#xfd;" 
d="M433 500v-539c0 -163 -82 -209 -195 -209c-77 0 -123 13 -171 37l14 43c43 -21 90 -34 157 -34c88 0 146 28 146 163v50c-31 -10 -74 -18 -133 -18c-115 0 -199 41 -199 210v297h49v-298c0 -139 59 -162 151 -162c63 0 96 8 132 19v441h49zM301 696h48l-89 -136h-38z" />
    <glyph glyph-name="ydieresis" unicode="&#xff;" 
d="M433 500v-539c0 -163 -82 -209 -195 -209c-77 0 -123 13 -171 37l14 43c43 -21 90 -34 157 -34c88 0 146 28 146 163v50c-31 -10 -74 -18 -133 -18c-115 0 -199 41 -199 210v297h49v-298c0 -139 59 -162 151 -162c63 0 96 8 132 19v441h49zM85 595c0 20 15 35 35 35
s35 -15 35 -35s-15 -35 -35 -35s-35 15 -35 35zM331 595c0 20 15 35 35 35s35 -15 35 -35s-15 -35 -35 -35s-35 15 -35 35z" />
    <glyph glyph-name="fi" unicode="&#xfb01;" horiz-adv-x="483" 
d="M61 0v535c0 128 66 172 154 172c50 0 88 -13 119 -30l-14 -44c-29 16 -59 27 -105 27c-63 0 -105 -29 -105 -124v-36h202v-47h-202v-453h-49zM373 0v500h49v-500h-49zM362 668c0 20 16 36 36 36s35 -16 35 -36c0 -19 -15 -34 -35 -34s-36 15 -36 34z" />
    <glyph glyph-name="fl" unicode="&#xfb02;" horiz-adv-x="536" 
d="M61 0v535c0 128 66 172 154 172c50 0 88 -13 119 -30l-14 -44c-29 16 -59 27 -105 27c-63 0 -105 -29 -105 -124v-36h202v-47h-202v-453h-49zM372 139v561h50v-561c0 -77 24 -97 59 -97c24 0 37 5 49 11l14 -43c-18 -9 -35 -15 -66 -15c-59 0 -106 35 -106 144z" />
    <glyph glyph-name="Cacute" unicode="&#x106;" horiz-adv-x="503" 
d="M96 365v-80c0 -179 83 -245 207 -245c71 0 141 28 166 50l16 -47c-40 -26 -93 -52 -182 -52c-151 0 -260 85 -260 294v80c0 209 109 293 260 293c82 0 135 -24 182 -49l-16 -48c-38 25 -105 49 -166 49c-124 0 -207 -68 -207 -245zM333 886h48l-89 -136h-38z" />
    <glyph glyph-name="cacute" unicode="&#x107;" horiz-adv-x="414" 
d="M41 233v40c0 170 93 234 212 234c57 0 102 -21 136 -44c-5 -14 -10 -29 -14 -43c-27 20 -72 40 -122 40c-98 0 -162 -50 -162 -187v-40c0 -128 65 -193 172 -193c44 0 84 9 121 33c4 -15 9 -29 14 -43c-38 -24 -78 -37 -135 -37c-139 0 -222 90 -222 240zM301 696h47
c-29 -45 -59 -91 -88 -136h-38c26 45 53 91 79 136z" />
    <glyph glyph-name="Nacute" unicode="&#x143;" horiz-adv-x="563" 
d="M61 0v650h55l333 -557v557h53v-650h-56l-332 555v-555h-53zM354 886h47l-88 -136h-38z" />
    <glyph glyph-name="nacute" unicode="&#x144;" 
d="M61 0v481c39 12 92 26 182 26c114 0 199 -41 199 -210v-297h-49v298c0 141 -61 162 -152 162c-64 0 -93 -4 -131 -16v-444h-49zM294 696h48l-89 -136h-38z" />
    <glyph glyph-name="Oacute" unicode="&#xd3;" horiz-adv-x="567" 
d="M471 285v79c0 181 -76 246 -188 246c-111 0 -187 -65 -187 -246v-79c0 -181 76 -245 187 -245c112 0 188 64 188 245zM43 285v79c0 212 101 294 240 294c140 0 241 -82 241 -294v-79c0 -211 -101 -294 -241 -294c-139 0 -240 83 -240 294zM339 886h48l-89 -136h-38z" />
    <glyph glyph-name="Sacute" unicode="&#x15a;" horiz-adv-x="475" 
d="M305 886h47l-88 -136h-38zM31 41l16 48c110 -78 344 -71 344 77c0 173 -350 96 -350 325c0 200 271 195 381 118l-15 -48c-95 73 -312 77 -312 -68c0 -184 349 -103 349 -326c0 -202 -288 -210 -413 -126z" />
    <glyph glyph-name="sacute" unicode="&#x15b;" horiz-adv-x="435" 
d="M288 696h47l-88 -136h-38zM43 30l14 43c105 -51 286 -50 286 56c0 153 -289 41 -289 244c0 148 214 165 323 90l-14 -43c-94 65 -260 53 -260 -45c0 -160 289 -40 289 -246c0 -151 -228 -164 -349 -99z" />
    <glyph glyph-name="Zacute" unicode="&#x179;" horiz-adv-x="493" 
d="M36 601v49h421v-46l-377 -556h397v-48h-461v45l377 556h-357zM296 886h47l-88 -136h-38z" />
    <glyph glyph-name="zacute" unicode="&#x17a;" horiz-adv-x="435" 
d="M27 453v47h381v-47l-318 -407h318v-46h-381v46l318 407h-318zM267 696h48l-88 -136h-39z" />
    <glyph glyph-name="Aogonek" unicode="&#x104;" horiz-adv-x="544" 
d="M545 0h-22c-31 -98 36 -170 137 -117v-36c-118 -60 -211 36 -172 158l-71 191h-290l-74 -196h-55l246 650h55zM272 578l-127 -334h253z" />
    <glyph glyph-name="aogonek" unicode="&#x105;" horiz-adv-x="457" 
d="M407 334v-315c-15 -5 -30 -9 -46 -12c-36 -101 32 -177 135 -124v-36c-116 -59 -208 34 -173 154c-29 -5 -62 -8 -107 -8c-107 0 -190 43 -190 149v13c0 90 91 135 219 141c37 2 75 3 113 5v36c0 95 -57 123 -143 123c-64 0 -118 -15 -153 -30c-4 15 -10 30 -14 45
c48 18 102 32 168 32c108 0 191 -44 191 -173zM358 56v201c-158 -7 -283 -5 -283 -102v-13c0 -75 58 -102 141 -102c67 0 104 4 142 16z" />
    <glyph glyph-name="Eogonek" unicode="&#x118;" horiz-adv-x="487" 
d="M114 318v-270h348v-48h-137c-31 -98 36 -170 137 -117v-36c-116 -60 -209 33 -174 153h-227v650h401v-49h-348v-234h308v-49h-308z" />
    <glyph glyph-name="eogonek" unicode="&#x119;" horiz-adv-x="476" 
d="M441 269v-40h-351v-4c0 -132 67 -185 171 -185c64 0 117 13 152 32c4 -15 10 -29 14 -43c-36 -18 -76 -30 -122 -34c-27 -95 40 -164 139 -112v-36c-114 -58 -205 30 -176 146h-7c-133 0 -221 71 -221 239v37c0 167 80 238 200 238s201 -71 201 -238zM90 277v-5h301v0v5
c0 134 -61 183 -151 183c-89 0 -150 -49 -150 -183z" />
    <glyph glyph-name="Zdotaccent" unicode="&#x17b;" horiz-adv-x="493" 
d="M36 601v49h421v-46l-377 -556h397v-48h-461v45l377 556h-357zM205 791c0 24 18 42 41 42c24 0 42 -18 42 -42c0 -23 -18 -41 -42 -41c-23 0 -41 18 -41 41z" />
    <glyph glyph-name="zdotaccent" unicode="&#x17c;" horiz-adv-x="435" 
d="M27 453v47h381v-47l-318 -407h318v-46h-381v46l318 407h-318zM176 601c0 24 18 42 42 42c23 0 41 -18 41 -42c0 -23 -18 -41 -41 -41c-24 0 -42 18 -42 41z" />
  </font>
</defs>
</svg>
