<?xml version="1.0" encoding="utf-8"?>
<!-- Generator: Adobe Illustrator 21.0.2, SVG Export Plug-In . SVG Version: 6.00 Build 0)  -->
<svg version="1.1" id="Layer_2" xmlns="http://www.w3.org/2000/svg" xmlns:xlink="http://www.w3.org/1999/xlink" x="0px" y="0px"
	 viewBox="0 0 841.9 595.3" style="enable-background:new 0 0 841.9 595.3;" xml:space="preserve">
	 <style>
	 	path { fill: #00f6ff; }
	 </style>
<g>
	<path d="M419.7,556.6c-26.4,0-52.8-2.8-78.6-5.6c-13.6-1.5-27.8-3-41.6-4c-4.4-0.3-9.7-0.2-15.3-0.1c-13.9,0.3-29.6,0.5-39.4-5.2
		c-3.3-2-6.2-6.2-8.9-10.3c-1.7-2.6-3.3-5-4.9-6.6c-9.3-9.7-20.3-17.8-30.9-25.7c-5.4-4-11-8.2-16.4-12.5c-1.8-1.4-4-3.1-6.5-5
		c-13.4-10.1-33.7-25.3-32.7-38.9l0.1-1l1-0.1c21.7-3.3,43.3-17.7,54.2-26c15.2-11.6,40.1-36.4,38.4-57.2c-4.6-0.2-9.4-0.9-14-1.6
		c-7.3-1.1-14.9-2.1-22.1-1.5l-0.2-2.5c7.5-0.7,15.3,0.4,22.7,1.5c4.9,0.7,10,1.4,14.8,1.6l1.1,0l0.1,1.1
		c2.8,22.1-23.4,48.5-39.3,60.5c-11,8.3-32.4,22.7-54.3,26.3c0.2,12,19.9,26.8,31.7,35.7c2.5,1.9,4.8,3.6,6.6,5.1
		c5.3,4.3,10.9,8.4,16.3,12.4c10.7,7.9,21.8,16.1,31.3,26c1.7,1.8,3.4,4.3,5.2,7c2.6,3.9,5.2,7.9,8.1,9.6c9.2,5.4,24.5,5.1,38,4.9
		c5.7-0.1,11.1-0.2,15.6,0.1c13.9,1.1,28,2.6,41.7,4c32.4,3.5,66,7.1,99,4.9c-0.2-12.1-10.3-28.2-18.4-41.2c-3-4.8-5.9-9.4-7.9-13.2
		c-7.6-14.2-16.5-25.1-28.1-34.3c-28.3-22.4-51.7-35.7-75.9-43.1l0.7-2.4c24.6,7.6,48.2,21,76.8,43.5c11.9,9.4,21.1,20.5,28.8,35.1
		c2,3.8,4.9,8.3,7.9,13.1c8.6,13.7,19.3,30.8,18.8,43.8l0,1.1l-1.1,0.1C434.4,556.4,427,556.6,419.7,556.6z"/>
	<path d="M340.9,387c-1.1,0-2.3,0-3.4-0.1c-2-0.1-4-0.1-5.9-0.1c-17.6-0.4-34.2-0.7-44.4-16.3c-5.8-8.9-11.3-22-14.7-35.1
		c-6.5-24.9-14.7-54.2-26.8-83.4c-0.4-0.9-1.1-2.3-1.9-4c-3-6.1-5.5-11.4-5.3-14.2c0.3-6.2,3.4-8.1,6.5-10c2.4-1.4,4.6-2.8,6-6.3
		c4.3-10.4-4.9-35.4-13.2-40.3l-0.9-0.6l0.4-1c3.1-7.4,5.6-15.3,8.1-22.8c3.6-11.2,7.3-22.8,13.2-33.8l2.2,1.2
		c-5.8,10.7-9.5,22.2-13,33.3c-2.3,7.3-4.8,14.8-7.7,22.1c9.8,7.1,17.7,32.2,13.3,42.8c-1.8,4.2-4.6,5.9-7.1,7.4
		c-2.8,1.7-5,3.1-5.3,8c-0.1,2.3,3.1,9,5.1,13c0.8,1.7,1.6,3.2,2,4.2c12.2,29.3,20.4,58.8,26.9,83.7c3.3,12.8,8.7,25.7,14.3,34.4
		c9.4,14.5,25.4,14.8,42.3,15.1c2,0,4,0.1,6,0.1c40.3,1.3,70.1-19.9,96.2-43c7.5-6.7,14.7-13.8,21.5-20.7
		c7.1-7.1,14.4-14.4,22.2-21.2c16.2-14.2,15.7-36.5,15.2-58c-0.1-3.6-0.2-7.1-0.2-10.5h2.5c0,3.4,0.1,6.9,0.2,10.5
		c0.5,22.1,1,45-16.1,59.9c-7.7,6.7-15,14.1-22.1,21.1c-6.9,6.9-14.1,14-21.6,20.8C410.9,365,380.6,387,340.9,387z"/>
	<path d="M315.9,306.9c-8.3,0-16.7-1.7-21.9-5.2c-11-7.2-7.7-14.4-3.9-22.6c1.2-2.5,2.4-5.1,3.4-8c1.7-5,3-9.7,4.3-14.3
		c3.2-11.5,6.3-22.3,14.3-33.7l2.1,1.4c-7.7,11.1-10.8,21.7-13.9,33c-1.3,4.6-2.7,9.4-4.4,14.4c-1,3-2.3,5.8-3.5,8.3
		c-3.9,8.4-6.2,13.4,3,19.5c9.3,6.1,29.4,6.5,39.1,0.8c7.2-4.3,8.2-10.8,6.7-15.5c-1.8-5.7-8.2-11.5-17.9-10.8l-0.2-2.5
		c11.1-0.9,18.4,5.9,20.5,12.5c2.3,7.1-0.8,14.2-7.9,18.4C330.8,305.5,323.4,306.9,315.9,306.9z"/>
	<path d="M375.2,254.6c-16.1,0-28-6.1-43.9-15.3l1.3-2.2c19.1,11,32.2,17.5,54.2,14c20.1-3.2,37.9-12.4,48-24.8
		c-8-1.3-14.7-3.8-21.3-6.3c-8.8-3.4-17.1-6.5-28-6.5c0,0-0.1,0-0.1,0c-24,0-39.5,3.4-52.4,21.2l-2-1.5
		c13.6-18.6,29.6-22.2,54.5-22.2c0,0,0.1,0,0.1,0c11.4,0,20.3,3.4,28.9,6.7c7,2.7,14.2,5.4,22.9,6.5l2.1,0.3l-1.3,1.7
		c-10.2,13.7-29.2,24-50.9,27.5C382.9,254.3,378.9,254.6,375.2,254.6z"/>
	<path d="M324.9,202.8c-6.6,0-9.9-4.4-13.5-9.2c-2.7-3.6-5.7-7.7-10.7-10.7c-9.2-5.5-27.5-6.8-37.6-2.8l-0.9-2.3
		c10.9-4.4,29.9-3,39.9,2.9c5.4,3.2,8.6,7.5,11.5,11.3c5.1,6.8,8.4,11.4,21.2,5.6c5.9-2.6,9.6-6.2,13.2-9.6
		c4.4-4.2,8.6-8.2,16.2-10.4c13.9-3.9,29.6-3.5,44.7-3.2c4.3,0.1,8.6,0.2,12.7,0.2v2.5c-4.2,0-8.4-0.1-12.8-0.2
		c-15-0.4-30.4-0.8-44,3.1c-7,2-11,5.8-15.2,9.8c-3.8,3.6-7.7,7.3-14,10.1C331.2,202,327.7,202.8,324.9,202.8z"/>
	<path d="M333.3,340.9c-2.6,0-4.6-2.9-5.9-4.8c-0.2-0.3-0.4-0.6-0.6-0.8c-8.3-0.8-12.4,1-20.2,4.7l-1.6,0.7l-1-2.3l1.6-0.7
		c8.2-3.7,12.7-5.8,21.9-4.8c0.8,0.1,1.2,0.7,2,1.9c0.8,1.2,2.6,3.8,3.9,3.7c2.2-0.1,3.1-1.3,4.1-2.8c0.8-1.1,1.6-2.3,3.1-2.8
		c2.3-0.8,4.1-1.7,5.6-2.6c3.2-1.7,6-3.2,11.8-2.1c2.9,0.6,5.1,2.1,7.2,3.7c3.2,2.3,6.1,4.4,11.5,3.6l0.4,2.5
		c-6.4,1-10.1-1.7-13.3-4c-2-1.4-3.9-2.8-6.2-3.2c-4.9-0.9-7,0.2-10.1,1.9c-1.6,0.9-3.5,1.9-6,2.7c-0.7,0.2-1.2,1-1.8,1.9
		C338.4,338.6,336.9,340.8,333.3,340.9C333.4,340.9,333.4,340.9,333.3,340.9z"/>
	<path d="M570,218.9c-1.4,0-2.6-0.1-3.9-0.3c-5.4-1-12.1-4.9-12.8-17.8l2.5-0.1c0.5,9,4.1,14.2,10.8,15.5
		c19.1,3.6,57.4-25.6,63.5-38.7c13.7-29.8-28.5-69-55-81.6c-5.6-2.7-12.4-4.8-19.7-7.1c-23.5-7.5-50.1-15.9-45.4-45.7l2.5,0.4
		c-4.3,27.7,20.1,35.4,43.7,42.9c7.3,2.3,14.2,4.5,20,7.3c27.3,13,70.6,53.6,56.2,84.9C626.3,191.6,591.2,218.9,570,218.9z"/>
	<path d="M493.2,209c-17-9.4-9-25.1-1.9-38.8c3-5.8,5.8-11.2,6.8-16c3.1-15.1-14.4-31.9-27.1-44.2c-2.8-2.7-5.5-5.3-7.7-7.6
		c-16-16.8-28.8-21.9-54.7-21.9c-16.5,0-33.4,0.4-49.7,0.9c-25.5,0.7-51.8,1.4-77.6,0.4l-1,0l-0.2-1c-2.3-14.6,16.6-38.2,24-46
		c11.4-12,33.1-23.4,49.6-21.8l-0.2,2.5c-15.5-1.5-36.7,9.7-47.5,21c-9.8,10.3-24.5,30.7-23.5,42.9c25.3,0.9,51.2,0.2,76.3-0.4
		c16.3-0.4,33.2-0.9,49.8-0.9c26.7,0,39.9,5.3,56.5,22.6c2.2,2.3,4.8,4.8,7.6,7.5c13.2,12.7,31.2,30.1,27.8,46.5
		c-1.1,5.1-3.9,10.7-7,16.6c-7.2,14-14,27.2,0.9,35.5L493.2,209z"/>
	<path d="M533.4,294.7c-5.6,0-11.4-1.7-16.4-5c-9.5-6.3-14.2-16.6-12.8-28.5l2.5,0.3c-1.2,10.9,3.1,20.4,11.7,26.1
		c8.2,5.4,18.5,6.1,26.2,1.8c8-4.5,12.1-14,11.6-26.6c-0.1-2.2-0.1-4.7-0.2-7.4c-0.2-13.5-0.5-31.9-8.9-39.8c-5.3-5-18-6.7-27.8-3.9
		c-6.2,1.8-10.2,5.2-11.3,9.5l-2.4-0.6c1.3-5.2,5.9-9.2,13-11.3c10.7-3.1,24.3-1.2,30.2,4.4c9.2,8.6,9.4,27.7,9.7,41.6
		c0,2.7,0.1,5.1,0.2,7.3c0.6,13.6-4,23.9-12.9,28.9C542.1,293.7,537.8,294.7,533.4,294.7z"/>
	<path d="M535.6,319.2l-2.5,0c0.1-18.7,0.1-36.6,0-56.4l2.5,0C535.7,282.6,535.7,300.4,535.6,319.2z"/>
	<path d="M489.7,411.9c-0.7-5-1.4-10-2.2-15c-3.2-21.7-6.5-44.2-6.5-66.1l2.5,0c0.1,21.7,3.3,44.1,6.5,65.8c0.7,5,1.5,10.1,2.2,15
		L489.7,411.9z"/>
	<path d="M675.8,582.5l-2.5-0.5c2-9.8,5.2-19.9,8.3-29.7c3.6-11.3,7.3-22.9,9.4-34.7c2.7-15,3.9-29.8,3.9-49.2
		c0-34.5-16.9-43.5-48.1-48c-30.8-4.5-46.2-11.6-56-41.6c-4.8-14.7-7.9-24.4-23.8-26.6c-12.9-1.9-27.1,3.2-39.6,7.6l-2.8,1l-0.8-2.4
		l2.8-1c12.8-4.5,27.4-9.7,40.8-7.7c17.5,2.5,21,13.3,25.9,28.4c9.4,29,23.6,35.5,53.9,39.9c31.9,4.6,50.3,14.4,50.3,50.5
		c0,19.6-1.2,34.4-4,49.6c-2.2,11.9-5.9,23.6-9.5,35C680.8,563.3,677.8,572.9,675.8,582.5z"/>
	<path d="M436,454.9v-2.5c48.7,0,84.6-7.7,113.2-45.8l2,1.5C522.1,446.9,484.1,454.9,436,454.9z"/>
</g>
</svg>
