<?xml version="1.0" encoding="utf-8"?>
<!-- Generator: Adobe Illustrator 21.0.2, SVG Export Plug-In . SVG Version: 6.00 Build 0)  -->
<svg version="1.1" id="Layer_2" xmlns="http://www.w3.org/2000/svg" xmlns:xlink="http://www.w3.org/1999/xlink" x="0px" y="0px"
	 viewBox="0 0 1444.4 1337" style="enable-background:new 0 0 1444.4 1337;" xml:space="preserve">
	 <style>
	 	path { fill: #00f6ff; }
	 </style>
<g>
	<path d="M247.1,1004.6c0,7.3,5.9,13.2,13.2,13.2c3.7,0,7.1-1.6,9.5-4.1c1.2,4.9,3.4,9.4,6.2,13.4c3.4,50.8,45.9,90.5,96.9,90.5
		c50.9,0,93.5-39.7,96.9-90.5c0,0,0,0,0,0c4.5-6.3,7.2-13.9,7.4-22.1c0-0.1,0-0.3,0-0.4v-27.7c0,0,0-0.1,0-0.1c0,0,0-0.1,0-0.1
		c0-6.1-4.5-11.2-10.3-12.3c-0.4-5.5-5.1-49.1-52-71.2c-63.1-29.6-105.8,11.5-112,18l-49.9,0.5c-1.3,0-2.4,1.1-2.4,2.4
		c0,23,14.6,42.5,35,50h-4.2c-0.1,0-0.1,0-0.2,0c-0.1,0-0.1,0-0.2,0c-5.4,0-10,3.4-11.7,8.2c-2.4-2.3-5.6-3.7-9.1-3.7
		c-7.3,0-13.2,5.9-13.2,13.2v11c-4.4-1.3-20-7.7-20-34.8c-0.1-34.7,0-142.1,0-154.2c0.5-9.7,8.6-17.5,18.4-17.5
		c10.2,0,18.5,8.3,18.5,18.5c0,12.9,10.5,23.4,23.4,23.4s23.4-10.5,23.4-23.4l0-113.2c0-0.5-1.6-46.3,25-95.9
		c14.8-27.5,35.3-43.2,50.6-51.7v20.7c0,5,4.1,9.1,9.1,9.1h25.8c5,0,9.1-4.1,9.1-9.1v-54.6c0-5-4.1-9.1-9.1-9.1h-25.8
		c-5,0-9.1,4.1-9.1,9.1v28.2c-16.1,8.4-38.6,24.8-54.9,55.1c-27.3,50.9-25.6,98-25.6,98.3v113.1c0,10.2-8.3,18.5-18.5,18.5
		s-18.5-8.3-18.5-18.5c0-12.9-10.5-23.4-23.4-23.4c-12,0-21.9,9.1-23.2,20.7c0,0.2-0.1,0.3-0.1,0.5c0,0.1,0,0.5,0,1.1
		c0,0.3,0,0.6,0,1c0,0.1,0,0.2,0,0.2c0,16.8-0.1,119.3,0,153c0.1,33.2,22.3,39.2,24.9,39.8V1004.6z M372.9,1112.8
		c-46.1,0-85-34.4-91.3-79.4c7.1,6.5,16.5,10.5,26.8,10.5c9.3,0,18.4-3.3,25.5-9.3h77.9c7.2,6,16.2,9.3,25.5,9.3
		c10.3,0,19.7-4,26.8-10.5C457.9,1078.4,419,1112.8,372.9,1112.8z M255.6,916.6l48.4-0.4c0.7,0,1.4-0.3,1.8-0.9
		c0.4-0.5,42.2-48,106.9-17.6c40.5,19,47.7,54.9,49,64.9c-6.1-0.5-21.2-3-29.9-15.2c-9.3-13.1-10-19.8-10-21.4
		c0-0.4,0.1-0.7,0.1-0.7c0.1-1.3-0.8-2.4-2.1-2.6c-1.3-0.2-2.5,0.7-2.7,1.9c0,0.1-0.1,0.5-0.1,1c-0.3,3.1-2.3,17.5-11.9,27.1
		c-10.6,10.6-23.7,10.1-24,10.1H304C278.1,962.7,256.9,942.2,255.6,916.6z M408.5,956c6.1-6.1,9.4-13.6,11.2-19.7
		c1.6,3.7,4.2,8.2,8.2,13.8c5.3,7.4,12.4,11.6,19,14.1h-50.3C400.5,962.5,404.6,959.9,408.5,956z M281.1,969.1c0.1,0,0.1,0,0.2,0
		c0.1,0,0.1,0,0.2,0h183.3c4.2,0,7.6,3.4,7.6,7.6c0,0,0,0.1,0,0.1c0,0,0,0.1,0,0.1v27.4c0,0.1,0,0.2,0,0.3c-0.3,19-16,34.4-35,34.4
		c-8.5,0-16.6-3.1-23-8.7c-0.4-0.4-1-0.6-1.6-0.6H333c-0.6,0-1.2,0.2-1.6,0.6c-6.4,5.6-14.6,8.7-23,8.7c-19,0-34.7-15.4-35-34.4
		c0-0.1,0-0.2,0-0.3v-22.3v-5.2C273.4,972.5,276.9,969.1,281.1,969.1z M252,981.9c0-4.6,3.7-8.3,8.3-8.3c4.6,0,8.3,3.7,8.3,8.3v22.7
		c0,4.6-3.7,8.3-8.3,8.3c-4.6,0-8.3-3.7-8.3-8.3V981.9z M395.4,506h25.8c1.4,0,2.6,0.7,3.4,1.8H392C392.7,506.7,394,506,395.4,506z
		 M391.2,512.7h34.1v52.2c0,2.3-1.9,4.2-4.2,4.2h-11.7c3.1-0.6,5.4-3.3,5.4-6.5c0-3.7-3-6.7-6.6-6.7c-3.7,0-6.6,3-6.6,6.7
		c0,3.3,2.4,6,5.4,6.5h-11.7c-2.3,0-4.2-1.9-4.2-4.2v-23.3c9.5-4.7,16-6.3,16.2-6.4c1.3-0.3,2.1-1.6,1.8-2.9
		c-0.3-1.3-1.6-2.1-2.9-1.8c-0.7,0.2-6.5,1.6-15.1,5.6V512.7z M408.2,564.3c-1,0-1.8-0.8-1.8-1.8s0.8-1.8,1.8-1.8
		c1,0,1.8,0.8,1.8,1.8S409.2,564.3,408.2,564.3z"/>
	<path d="M301.6,1004.4H416c1.3,0,2.4-1.1,2.4-2.4s-1.1-2.4-2.4-2.4H301.6c-1.3,0-2.4,1.1-2.4,2.4S300.3,1004.4,301.6,1004.4z"/>
	<path d="M435.7,1004.4h15.6c1.3,0,2.4-1.1,2.4-2.4s-1.1-2.4-2.4-2.4h-15.6c-1.3,0-2.4,1.1-2.4,2.4S434.3,1004.4,435.7,1004.4z"/>
	<path d="M455.7,1136.8c-0.3-0.1-0.5-0.2-0.8-0.2h-164c-25.1,0-45.5,20.4-45.5,45.5v36.5c0,1.3,1.1,2.4,2.4,2.4
		c1.3,0,2.4-1.1,2.4-2.4v-36.5c0-22.4,18.2-40.7,40.7-40.7h163.3c0.2,0.1,0.4,0.1,0.6,0.1c21.7,1.1,38.6,18.9,38.6,40.6v41.4
		c0,1.3,1.1,2.4,2.4,2.4c1.3,0,2.4-1.1,2.4-2.4v-41.4C498.3,1158.1,479.7,1138.3,455.7,1136.8z"/>
	<path d="M318.9,386.8h291.5c20.9,0,37.9-17,37.9-37.9V174.1c0-20.9-17-37.9-37.9-37.9h-44c-0.4,0-0.7,0.1-1,0.3l-76-38
		c-1-0.5-2.3-0.2-3,0.6l-30.2,37.1h-32l-2.1-19.3c0-0.1-0.1-0.3-0.1-0.4c0-0.1,0-0.2-0.1-0.3c0,0-0.1-0.1-0.1-0.1
		c-0.1-0.2-0.2-0.4-0.4-0.5c-0.1-0.1-0.1-0.2-0.2-0.2c-0.2-0.2-0.4-0.3-0.7-0.4c0,0-0.1-0.1-0.1-0.1l-0.1,0c0,0,0,0-0.1,0l-14-4.8
		L404,93.7c0-0.1,0-0.1,0-0.2c0-0.1-0.1-0.2-0.1-0.4c-0.1-0.1-0.1-0.3-0.2-0.4c-0.1-0.1-0.1-0.2-0.2-0.3c-0.1-0.1-0.2-0.2-0.3-0.3
		c0,0-0.1-0.1-0.1-0.1l-31.9-22.7c0,0-0.1,0-0.1-0.1c-0.2-0.1-0.4-0.2-0.6-0.3c-0.1,0-0.2-0.1-0.3-0.1c0,0-0.1,0-0.1,0l-28-2.1
		c-1.1-0.1-2,0.5-2.4,1.5L327,97.2c0,0.1-0.1,0.2-0.1,0.3l-10.4,38c0,0,0,0.1,0,0.1c0,0,0,0,0,0c-0.2,0.2-0.3,0.5-0.4,0.7
		c-19.5,1.5-35,17.8-35,37.7v174.8C281.1,369.8,298.1,386.8,318.9,386.8z M437.5,305l-10.4,9.2L392.1,181l26.1-55L437.5,305z
		 M387.5,182.8l34.7,131.8l-21.7-8.2l-78.4-139.1L387.5,182.8z M332.7,195.9l64.1,113.8c0.3,0.5,0.7,0.9,1.3,1.1l26.9,10.2
		c0.3,0.1,0.6,0.2,0.9,0.2c0.3,0,0.6-0.1,0.9-0.2c0.2-0.1,0.3-0.2,0.5-0.3c0.1-0.1,0.2-0.1,0.3-0.2l0,0c0,0,0,0,0,0c0,0,0,0,0,0
		l14.2-12.6c0.6-0.5,0.9-1.3,0.8-2.1l-15.7-144.9h14.1l27.7,141.1c0.2,0.8,0.7,1.5,1.5,1.8l16.7,6.3c0,0,0.1,0,0.1,0
		c0.3,0.1,0.5,0.1,0.8,0.1c0,0,0,0,0,0c0,0,0,0,0,0c0.3,0,0.7-0.1,1-0.2c0,0,0,0,0.1,0c0.1,0,0.1-0.1,0.2-0.2
		c0.2-0.2,0.4-0.3,0.6-0.6c0,0,0.1-0.1,0.1-0.1l11.4-17.7c0.1-0.1,0.1-0.2,0.2-0.3l58.4-130.2h13.9v201.5H332.7V195.9z M531.8,191.3
		l23-31.4l-57.3,127.8L531.8,191.3z M486.2,304.5l-13.1-5l-27.2-138.9l80.6,31L486.2,304.5z M489,103.8l73.8,36.9l-34.1,46.6
		l-82-31.5L489,103.8z M452.2,141.1l-11.5,14.1c0,0,0,0,0,0.1c-0.1,0.2-0.3,0.4-0.3,0.6h-14.1l-1.6-14.7H452.2z M416.3,118.6
		L388.2,178l-66.9-15.9l3.8-5.9c0.3,0.6,0.9,1.1,1.6,1.3l55.8,12.4c0.2,0,0.3,0.1,0.5,0.1c0,0,0,0,0,0c0,0,0,0,0,0c0,0,0,0,0,0
		c0,0,0,0,0,0c0.2,0,0.4,0,0.6-0.1c0,0,0,0,0,0c0.3-0.1,0.5-0.2,0.8-0.4c0.1,0,0.1-0.1,0.2-0.1c0.2-0.1,0.3-0.3,0.4-0.5
		c0-0.1,0.1-0.1,0.1-0.2c0,0,0.1-0.1,0.1-0.1l22.5-46.5c0.2-0.4,0.3-0.9,0.2-1.4l-0.7-5.1L416.3,118.6z M383.7,160.3l-2.9-11.5
		l19.6-45.9l2.5,17.5L383.7,160.3z M379.7,164.2l-50.8-11.3l-6.2-12.4l53.6,10.3L379.7,164.2z M392.6,108.8l-14.5,33.8l-18.5-39.9
		l11.2-27.6l27.8,19.7L392.6,108.8z M343.3,71.9l22.9,1.7l-10.7,26.5l-22.9-3.6L343.3,71.9z M330.9,101.2l24.4,3.8l18.7,40.3
		l-52.5-10.1L330.9,101.2z M286,174.1c0-17.7,14.1-32.2,31.7-32.9l4.9,9.8l-7.2,11.3c0,0,0,0.1-0.1,0.2c-0.1,0.2-0.2,0.4-0.2,0.6
		c0,0.1,0,0.2-0.1,0.2c0,0.3,0,0.5,0,0.8c0,0,0,0,0,0c0.1,0.2,0.1,0.5,0.3,0.7l12.8,22.6c-0.1,0.3-0.2,0.6-0.2,0.9v176.3
		c0,1.3,1.1,2.4,2.4,2.4H576c1.3,0,2.4-1.1,2.4-2.4V158.3c0-1.3-1.1-2.4-2.4-2.4h-14.1l6.6-14.7h41.9c18.2,0,33,14.8,33,33v174.8
		c0,18.2-14.8,33-33,33H318.9c-18.2,0-33-14.8-33-33V174.1z"/>
	<path d="M307.6,269.7c4.5,0,8.2-3.7,8.2-8.2c0-4.5-3.7-8.2-8.2-8.2c-4.5,0-8.2,3.7-8.2,8.2C299.4,266,303.1,269.7,307.6,269.7z
		 M307.6,258.2c1.8,0,3.3,1.5,3.3,3.3c0,1.8-1.5,3.3-3.3,3.3c-1.8,0-3.3-1.5-3.3-3.3C304.3,259.7,305.8,258.2,307.6,258.2z"/>
	<path d="M610.1,281c10.7,0,19.5-8.7,19.5-19.5c0-10.7-8.7-19.5-19.5-19.5c-10.7,0-19.5,8.7-19.5,19.5
		C590.6,272.3,599.4,281,610.1,281z M610.1,246.9c8.1,0,14.6,6.5,14.6,14.6c0,8.1-6.6,14.6-14.6,14.6c-8,0-14.6-6.6-14.6-14.6
		C595.5,253.5,602.1,246.9,610.1,246.9z"/>
	<path d="M1084.2,1029.2H860.8c-16.3,0-29.6,13.3-29.6,29.6v64.6h-25.1c-1.3,0-2.4,1.1-2.4,2.4s1.1,2.4,2.4,2.4h25.1v64.6
		c0,16.3,13.3,29.6,29.6,29.6h223.4c16.3,0,29.6-13.3,29.6-29.6v-134C1113.8,1042.5,1100.6,1029.2,1084.2,1029.2z M1109,1192.8
		c0,13.6-11.1,24.7-24.7,24.7H860.8c-13.6,0-24.7-11.1-24.7-24.7v-64.6H867v76.7c0,1.3,1.1,2.4,2.4,2.4h188.4c1.3,0,2.4-1.1,2.4-2.4
		v-158.2c0-1.3-1.1-2.4-2.4-2.4H869.5c-1.3,0-2.4,1.1-2.4,2.4v76.7h-30.9v-64.6c0-13.6,11.1-24.7,24.7-24.7h223.4
		c13.6,0,24.7,11.1,24.7,24.7V1192.8z M895.5,1146c0.5,0.4,1.1,0.6,1.6,0.6c0.7,0,1.3-0.3,1.8-0.8l16.8-18.3
		c0.1-0.1,0.1-0.2,0.2-0.3c0.1-0.1,0.1-0.2,0.2-0.3c0,0,0.1-0.1,0.1-0.1c0,0,0-0.1,0-0.1c0.1-0.1,0.1-0.3,0.1-0.4
		c0-0.1,0.1-0.3,0.1-0.4c0,0,0,0,0,0c0,0,0,0,0-0.1c0-0.1-0.1-0.3-0.1-0.4c0-0.1,0-0.3-0.1-0.4c0,0,0-0.1,0-0.1
		c0-0.1-0.1-0.2-0.2-0.3c0-0.1-0.1-0.1-0.1-0.2c-0.1-0.1-0.1-0.2-0.2-0.2l0,0c0,0,0,0,0,0l-16.3-16.9c-0.9-1-2.5-1-3.5-0.1
		c-1,0.9-1,2.5-0.1,3.5l12.3,12.8h-36.3v-74.2h183.5v153.4H871.9v-74.2h36.5l-13,14.3C894.5,1143.5,894.5,1145,895.5,1146z"/>
	<path d="M1084,1110.3c-8.5,0-15.5,7-15.5,15.5c0,8.6,7,15.5,15.5,15.5c8.5,0,15.5-7,15.5-15.5
		C1099.5,1117.3,1092.6,1110.3,1084,1110.3z M1084,1136.5c-5.9,0-10.6-4.8-10.6-10.6c0-5.9,4.8-10.6,10.6-10.6
		c5.9,0,10.6,4.8,10.6,10.6C1094.6,1131.7,1089.9,1136.5,1084,1136.5z"/>
	<path d="M665.2,1141.9c0-1.3-1.1-2.4-2.4-2.4h-44.5c-1.3,0-2.4,1.1-2.4,2.4c0,1.3,1.1,2.4,2.4,2.4h44.5
		C664.2,1144.4,665.2,1143.3,665.2,1141.9z"/>
	<path d="M628.4,1127.8c0,1.3,1.1,2.4,2.4,2.4h55.3c1.3,0,2.4-1.1,2.4-2.4c0-1.3-1.1-2.4-2.4-2.4h-55.3
		C629.5,1125.3,628.4,1126.4,628.4,1127.8z"/>
	<path d="M708.8,1113.8c0-1.3-1.1-2.4-2.4-2.4h-59.6c-1.3,0-2.4,1.1-2.4,2.4c0,1.3,1.1,2.4,2.4,2.4h59.6
		C707.7,1116.3,708.8,1115.2,708.8,1113.8z"/>
	<path d="M608.9,1139.5H595c-1.3,0-2.4,1.1-2.4,2.4c0,1.3,1.1,2.4,2.4,2.4h13.9c1.3,0,2.4-1.1,2.4-2.4
		C611.4,1140.6,610.3,1139.5,608.9,1139.5z"/>
	<path d="M622.1,1127.8c0-1.3-1.1-2.4-2.4-2.4h-8.2c-1.3,0-2.4,1.1-2.4,2.4c0,1.3,1.1,2.4,2.4,2.4h8.2
		C621,1130.2,622.1,1129.1,622.1,1127.8z"/>
	<path d="M635.7,1116.3c1.3,0,2.4-1.1,2.4-2.4c0-1.3-1.1-2.4-2.4-2.4h-4c-1.3,0-2.4,1.1-2.4,2.4c0,1.3,1.1,2.4,2.4,2.4H635.7z"/>
	<path d="M700.8,1172.2c0-1.3-1.1-2.4-2.4-2.4h-38.5c-0.8,0-1.4-0.5-1.4-0.8V1149c0-1.3-1.1-2.4-2.4-2.4c-1.3,0-2.4,1.1-2.4,2.4
		v19.9c0,3.2,2.8,5.7,6.2,5.7h38.5C699.7,1174.6,700.8,1173.5,700.8,1172.2z"/>
	<path d="M817.6,1131.3c-1.3,0-2.4,1.1-2.4,2.4v35.2c0,0.4-0.6,0.8-1.4,0.8h-14.7c-0.4,0-0.8,0.1-1.2,0.3c0-1.1,0-2.3,0-3.4
		c0-7.7,0-15.4,0-23.1c0-3.8-1.3-7.1-3.7-9.4c-2.1-2.1-5-3.2-8.1-3.2c-6.7,0.1-11.5,5.4-11.5,12.6l0,37.1c0,1.2-0.3,1.9-0.5,2.1
		c-0.2-0.2-0.5-1.3-0.5-2.3v-14c0-13.4,0-26.8,0-40.2c0-2.3-0.2-4.2-0.8-5.8c-1.7-5.3-7.1-8.5-12.9-7.6c-5.7,0.9-9.7,5.5-9.7,11.4
		c0,12.1,0,24.1,0,36.2l0,13.3l0,0.7c0,0.4,0,0.8,0,1.3c-0.1,0.6-0.2,0.8-0.2,0.9c0,0-0.1,0-0.3,0c-0.3,0-0.5,0-0.6-1
		c-0.1-0.4,0-0.9,0-1.3l0-0.6l0-13.8c0-13.8,0-27.7,0-41.5c0-3.9-1.4-6.9-4.1-9.2c-3.7-3-8.1-3.6-12.3-1.7c-4.4,2-6.8,5.8-6.8,11
		c0,18.4,0,36.9,0,55.3c0,1.8-0.4,2.5-0.7,2.5c0,0-0.5-0.4-0.5-2.4l0-16.4c0-9.1,0-18.2,0-27.3c0-5.2-3.3-9.6-8.1-11.1
		c-3.6-1.1-7.4-0.5-10.3,1.7c-3,2.2-4.8,5.8-4.8,9.9c0,17.6,0,35.2,0,52.8v15.2c-0.4-0.6-0.9-1.2-1.3-1.8c-2.3-3.2-4.7-6.5-7.1-9.7
		c-3.6-4.7-8.4-6.7-14-5.9c-5.1,0.8-8.7,3.9-10.2,8.9c-1.4,4.4-0.7,8.8,2,12.9l9,13.7c6.6,10.1,13.3,20.2,20,30.2
		c6,8.9,14.2,15.3,24.3,18.9c7.4,2.6,15.3,3.9,24,3.9c2.6,0,5.4-0.1,8.2-0.4c9.6-0.8,17.4-3.5,23.9-8.1
		c11.6-8.3,17.5-20.5,17.7-36.4c0.2-17,0.1-34.2,0.1-51c0.4,0.2,0.7,0.3,1.2,0.3h14.7c3.4,0,6.2-2.6,6.2-5.7v-35.2
		C820,1132.4,818.9,1131.3,817.6,1131.3z M792.9,1225.3c-0.1,14.2-5.4,25.1-15.6,32.4c-5.7,4.1-12.8,6.5-21.5,7.2
		c-11.3,1-21.1-0.1-30.1-3.3c-9.2-3.3-16.5-9-21.9-17.1c-6.7-10-13.3-20.1-20-30.1l-9-13.7c-1.9-2.9-2.4-5.8-1.4-8.8
		c1-3.2,3.1-5,6.3-5.5c0.6-0.1,1.1-0.1,1.7-0.1c3,0,5.6,1.4,7.7,4.1c2.4,3.1,4.7,6.3,7,9.6c1.1,1.5,2.2,3,3.2,4.5
		c0.5,0.6,0.9,1.3,1.4,1.9l0.6,0.8c0.6,0.8,1.7,1.2,2.7,0.9l0.5-0.1c1-0.3,1.8-1.3,1.8-2.3l0-21.8c0-17.6,0-35.2,0-52.8
		c0-2.5,1-4.6,2.8-5.9c1.7-1.3,3.8-1.6,6-0.9c2.8,0.9,4.7,3.4,4.7,6.4c0,9.1,0,18.2,0,27.3v16.4c0,1,0,4,1.9,5.9
		c1,0.9,2.3,1.4,3.7,1.4c2.6-0.1,5.3-2,5.3-7.4c0-18.4,0-36.9,0-55.3c0-3.2,1.3-5.3,4-6.5c2.6-1.2,4.9-0.9,7.2,1
		c1.6,1.3,2.3,3,2.3,5.4c0,13.8,0,27.7,0,41.5l0,13.8l0,0.5c0,0.7,0,1.3,0.1,2c0.4,3.2,2.5,5.2,5.5,5.2c0,0,0,0,0,0
		c3,0,5.1-2.1,5.4-5.4c0.1-0.6,0-1.2,0-1.8l0-13.9c0-12.1,0-24.1,0-36.2c0-3.4,2.3-6.1,5.5-6.6c3.4-0.5,6.5,1.2,7.5,4.3
		c0.3,1.1,0.5,2.5,0.5,4.3c0,13.4,0,26.8,0,40.1l0,14c0,4.2,2,7,5.1,7.1c1.5,0.1,2.8-0.4,3.8-1.4c1.7-1.6,1.9-4.1,1.9-5.5l0-37.1
		c0-4.5,2.7-7.6,6.7-7.7c1.7-0.1,3.4,0.6,4.6,1.8c1.4,1.4,2.2,3.5,2.2,6c0,7.7,0,15.4,0,23.2C793,1185.9,793.1,1205.7,792.9,1225.3z
		"/>
	<path d="M817.6,1119.8c1.3,0,2.4-1.1,2.4-2.4v-23.6c0-3.2-2.8-5.7-6.2-5.7H659.9c-3.4,0-6.2,2.6-6.2,5.7v12.2
		c0,1.3,1.1,2.4,2.4,2.4c1.3,0,2.4-1.1,2.4-2.4v-12.2c0-0.4,0.6-0.8,1.4-0.8h153.9c0.8,0,1.4,0.5,1.4,0.8v23.6
		C815.2,1118.7,816.2,1119.8,817.6,1119.8z"/>
	<path d="M637.6,903v-79.6c0-6.7-5.4-12.1-12.1-12.1H588c-6.7,0-12.1,5.4-12.1,12.1V903c0,6.7,5.4,12.1,12.1,12.1h37.5
		C632.2,915.1,637.6,909.7,637.6,903z M588,816.2h37.5c3.1,0,5.8,2,6.8,4.8h-51.1C582.2,818.2,584.9,816.2,588,816.2z M580.8,903
		v-77.2h52V903c0,4-3.2,7.2-7.2,7.2H588C584,910.2,580.8,907,580.8,903z"/>
	<path d="M606.8,891c-4.7,0-8.6,3.8-8.6,8.6c0,4.7,3.8,8.6,8.6,8.6s8.6-3.8,8.6-8.6C615.3,894.9,611.5,891,606.8,891z M606.8,903.3
		c-2,0-3.7-1.7-3.7-3.7c0-2,1.7-3.7,3.7-3.7c2,0,3.7,1.7,3.7,3.7C610.4,901.6,608.8,903.3,606.8,903.3z"/>
	<path d="M1057.9,612.7c5.5,0,10-4.5,10-10v-62.3c0-5.5-4.5-10-10-10h-29.4c-5.5,0-10,4.5-10,10v62.3c0,5.5,4.5,10,10,10H1057.9z
		 M1028.6,535.2h29.4c1.9,0,3.6,1.1,4.5,2.7h-38.3C1025,536.3,1026.6,535.2,1028.6,535.2z M1023.4,602.7v-59.8h39.6v59.8
		c0,2.8-2.3,5.1-5.1,5.1h-29.4C1025.7,607.8,1023.4,605.5,1023.4,602.7z"/>
	<path d="M1043.3,607.2c4,0,7.2-3.2,7.2-7.2s-3.3-7.2-7.2-7.2c-4,0-7.2,3.3-7.2,7.2S1039.3,607.2,1043.3,607.2z M1043.3,597.6
		c1.3,0,2.4,1.1,2.4,2.4c0,1.3-1.1,2.4-2.4,2.4c-1.3,0-2.4-1.1-2.4-2.4C1040.9,598.7,1042,597.6,1043.3,597.6z"/>
	<path d="M1196,707.5h-35.2c-6.3,0-11.5,5.2-11.5,11.5V744c-16.8-15.8-44.3-29.8-84.6-16.8c-46.4,14.9-82.4,67.6-107.2,156.6
		c-18.4,65.9-23.3,128.3-23.4,129c-0.1,1.3,0.9,2.5,2.2,2.6c0.1,0,0.1,0,0.2,0c1.3,0,2.3-1,2.4-2.3c0.2-2.5,20.3-246.9,127.3-281.3
		c41.1-13.2,67.7,2.5,83.1,18.6v43.3c0,6.3,5.2,11.5,11.5,11.5h35.2c6.3,0,11.5-5.2,11.5-11.5V719
		C1207.6,712.7,1202.4,707.5,1196,707.5z M1160.8,712.4h35.2c2.8,0,5.2,1.7,6.2,4.2h-47.5C1155.7,714.1,1158,712.4,1160.8,712.4z
		 M1196,800.3h-35.2c-3.7,0-6.6-3-6.6-6.6v-37.8c7.8,9.6,11.6,18.2,12,19.1c0.5,1.2,2,1.8,3.2,1.3c1.2-0.5,1.8-2,1.3-3.2
		c-0.1-0.3-5.3-12.1-16.5-24.2v-27.4h48.5v72.2C1202.7,797.4,1199.7,800.3,1196,800.3z"/>
	<path d="M1178.4,782.3c-4.5,0-8.2,3.7-8.2,8.2c0,4.5,3.7,8.2,8.2,8.2c4.5,0,8.2-3.7,8.2-8.2C1186.6,786,1183,782.3,1178.4,782.3z
		 M1178.4,793.8c-1.8,0-3.3-1.5-3.3-3.3c0-1.8,1.5-3.3,3.3-3.3c1.8,0,3.3,1.5,3.3,3.3C1181.7,792.3,1180.3,793.8,1178.4,793.8z"/>
	<path d="M731.6,568.8c2.3,0,4.2-1.9,4.2-4.2s-1.9-4.2-4.2-4.2s-4.2,1.9-4.2,4.2S729.3,568.8,731.6,568.8z M731.6,563.9
		c0.4,0,0.7,0.3,0.7,0.7c0,0.8-1.4,0.8-1.4,0C731,564.2,731.3,563.9,731.6,563.9z"/>
	<path d="M731.6,649.3c-4.2,0-7.6,3.4-7.6,7.6c0,4.2,3.4,7.6,7.6,7.6c4.2,0,7.6-3.4,7.6-7.6C739.3,652.7,735.9,649.3,731.6,649.3z
		 M731.6,659.7c-1.5,0-2.8-1.2-2.8-2.8c0-1.5,1.2-2.8,2.8-2.8c1.5,0,2.8,1.2,2.8,2.8C734.4,658.4,733.2,659.7,731.6,659.7z"/>
	<path d="M972,470.1h21.8c4.4,0,8.1-3.6,8.1-8.1v-46.3c0-4.4-3.6-8.1-8.1-8.1H972c-4.4,0-8.1,3.6-8.1,8.1v46.3
		C963.9,466.5,967.5,470.1,972,470.1z M981.8,460.1c0-0.6,0.5-1.1,1.1-1.1c0.6,0,1.1,0.5,1.1,1.1c0,0.6-0.5,1.1-1.1,1.1
		C982.3,461.2,981.8,460.7,981.8,460.1z M993.8,465.3h-7.9c1.8-1,3-3,3-5.2c0-3.3-2.7-6-6-6c-3.3,0-6,2.7-6,6c0,2.2,1.2,4.1,3,5.2
		H972c-1.8,0-3.2-1.4-3.2-3.2v-43.8H997v43.8C997,463.8,995.5,465.3,993.8,465.3z M993.8,412.7c0.7,0,1.4,0.3,2,0.7H970
		c0.5-0.4,1.2-0.7,2-0.7H993.8z"/>
	<path d="M714,512.9c5.8,0,10.5-4.7,10.5-10.5v-66c0-5.8-4.7-10.5-10.5-10.5h-39.6c-5.8,0-10.5,4.7-10.5,10.5v66
		c0,5.8,4.7,10.5,10.5,10.5H714z M694.2,432.7c0.6,0,1.1,0.5,1.1,1.1c0,0.6-0.5,1.1-1.1,1.1c-0.6,0-1.1-0.5-1.1-1.1
		C693,433.2,693.6,432.7,694.2,432.7z M694.2,500.9c0.8,0,1.4,0.6,1.4,1.4c0,0.8-0.6,1.4-1.4,1.4c-0.8,0-1.4-0.6-1.4-1.4
		C692.8,501.6,693.4,500.9,694.2,500.9z M714,508h-17.1c2.1-1,3.6-3.2,3.6-5.6c0-2.2-1.2-4.2-2.9-5.3h20c0.9,0,1.6-0.5,2-1.1v6.5
		C719.6,505.5,717.1,508,714,508z M673.2,492.2v-50.8h41.9v50.8H673.2z M719.6,436.4v1.2c-0.4-0.7-1.2-1.1-2-1.1h-20.8
		c0.7-0.7,1.1-1.6,1.1-2.7c0-1.2-0.6-2.3-1.6-3H714C717.1,430.8,719.6,433.3,719.6,436.4z M674.4,430.8H692c-0.9,0.7-1.6,1.8-1.6,3
		c0,1.1,0.4,2,1.1,2.7h-20.8c-0.9,0-1.6,0.5-2,1.1v-1.2C668.8,433.3,671.3,430.8,674.4,430.8z M668.8,502.4V496
		c0.4,0.7,1.2,1.1,2,1.1h20c-1.7,1.1-2.9,3.1-2.9,5.3c0,2.5,1.5,4.6,3.6,5.6h-17.1C671.3,508,668.8,505.5,668.8,502.4z"/>
	<path d="M749.2,381.6c1.2,0.6,2.7,0.2,3.3-1c19.9-36.9,44.1-56.3,71.9-57.6c1,0,2-0.1,3-0.1c64,0,127,93.3,127.7,94.2
		c0.5,0.7,1.2,1.1,2,1.1c0.5,0,0.9-0.1,1.4-0.4c1.1-0.7,1.4-2.3,0.7-3.4c-2.7-4.1-67.2-99.5-135-96.3c-29.6,1.4-55.2,21.6-76,60.1
		C747.6,379.5,748,380.9,749.2,381.6z"/>
	<path d="M1399,492.5c-0.3-0.2-24.8-13-75.1-33.8c-58-69.2-111.1-100.2-158.5-91.9c-26.8,4.6-48.5,21.1-65.7,41.6
		c-52.5,3.5-85.3,17.6-85.9,17.8c-1.2,0.5-1.8,2-1.2,3.2c0.5,1.2,2,1.8,3.2,1.2c0.6-0.2,30.8-13.2,79.7-17.1
		c-33.9,43.4-48.9,100.9-49.9,104.6c-0.3,1.3,0.5,2.6,1.8,3c1.3,0.3,2.6-0.5,3-1.8c0.2-0.9,16.3-62.6,52.2-106.3
		c40.4-2.4,92.3,1.6,150.1,23.1c26.5,9.8,49.2,18.8,68.3,26.7c15.3,18.4,30.9,39.4,47,63.3c0.5,0.7,1.2,1.1,2,1.1
		c0.5,0,0.9-0.1,1.4-0.4c1.1-0.8,1.4-2.3,0.7-3.4c-14.1-20.9-27.9-39.8-41.5-56.6c44.2,18.6,65.8,29.9,66.2,30.1
		c0.4,0.2,0.8,0.3,1.1,0.3c0.9,0,1.7-0.5,2.2-1.3C1400.6,494.6,1400.2,493.1,1399,492.5z M1254.4,431.5
		c-56.4-20.9-107.2-25.5-147.5-23.6c16-18.1,35.7-32.3,59.4-36.4c44-7.6,93.6,20.3,147.9,83.1
		C1296.9,447.7,1277.1,439.9,1254.4,431.5z"/>
	<path d="M649.9,569.8c17.2,12,27.9,22,28.1,22.2c0.5,0.5,1.1,0.7,1.7,0.7c0.6,0,1.3-0.3,1.8-0.8c0.9-1,0.9-2.5-0.1-3.5
		c-0.2-0.2-11-10.5-28.6-22.6c15.2-20.1,28.2-31,28.4-31.2c1-0.9,1.2-2.4,0.3-3.4c-0.9-1-2.4-1.2-3.4-0.3
		c-0.3,0.2-13.7,11.5-29.4,32.3c-18.2-12.2-42.7-25.7-69.8-32.7c-71.7-18.7-137.8-8.3-138.4-8.2c-1.3,0.2-2.2,1.5-2,2.8
		c0.2,1.3,1.5,2.2,2.8,2c0.6-0.1,65.8-10.3,136.4,8.1c26.5,6.9,50.3,20,68.1,31.9c-16.1,22.3-33.7,54.2-41.5,94.5
		c-15.8,82.1-5.4,127.6-5,129.4c0.3,1.1,1.3,1.9,2.4,1.9c0.2,0,0.4,0,0.6-0.1c1.3-0.3,2.1-1.6,1.8-2.9c-0.1-0.5-10.6-46.4,5-127.4
		C616.8,623,634.1,591.6,649.9,569.8z"/>
	<path d="M771.6,600.8v-32.8c0-7.3-5.9-13.2-13.2-13.2H705c-7.3,0-13.2,5.9-13.2,13.2V657c0,7.3,5.9,13.2,13.2,13.2h53.3
		c7.3,0,13.2-5.9,13.2-13.2v-51.3c43.1-4.2,116.5-5.5,194.1,18.4c111.8,34.5,173.2,87.1,173.8,87.7c0.5,0.4,1,0.6,1.6,0.6
		c0.7,0,1.4-0.3,1.8-0.8c0.9-1,0.8-2.6-0.2-3.4c-0.6-0.5-62.7-53.8-175.6-88.7C889.1,595.4,815.2,596.6,771.6,600.8z M766.7,657
		c0,4.6-3.8,8.4-8.4,8.4H705c-4.6,0-8.4-3.8-8.4-8.4v-88.9c0-4.6,3.8-8.4,8.4-8.4h53.3c4.6,0,8.4,3.8,8.4,8.4v33.2
		c-0.4,0-0.7,0.1-1.1,0.1v-29.9c0-1.3-1.1-2.4-2.4-2.4h-63c-1.3,0-2.4,1.1-2.4,2.4v75c0,1.3,1.1,2.4,2.4,2.4h63
		c1.3,0,2.4-1.1,2.4-2.4v-40.2c0.4,0,0.7-0.1,1.1-0.1V657z M729.3,609.5c0.3,1.3,1.6,2.1,2.9,1.8c0.3-0.1,10.8-2.4,28.5-4.5V644
		h-58.1V574h58.1v28c-18.4,2.2-29.2,4.6-29.6,4.6C729.8,606.9,729,608.2,729.3,609.5z"/>
	<path d="M439.1,496.9c-0.9,1-0.8,2.6,0.2,3.4c0.5,0.4,1,0.6,1.6,0.6c0.7,0,1.4-0.3,1.8-0.8c0.6-0.7,62.1-70.2,175.4-92.5
		c171.3-33.7,325.5,32.9,327.1,33.5c1.2,0.5,2.7,0,3.2-1.3c0.5-1.2,0-2.7-1.3-3.2c-1.5-0.7-157.2-67.9-330-33.9
		C502.3,425.5,439.7,496.2,439.1,496.9z"/>
	<path d="M375.8,522.2c1.4,0.1,2.5-0.9,2.6-2.3c0.1-1.3-0.9-2.5-2.3-2.6c-1.2-0.1-121.6-8.2-206.4,30.2
		c-29.6,13.4-50.2,27.6-64.4,40.5c0,0,0,0,0,0H56.4c-6.8,0-12.3,5.5-12.3,12.3v81.5c0,6.8,5.5,12.3,12.3,12.3h48.9
		c6.8,0,12.3-5.5,12.3-12.3v-81.5c0-4.7-2.6-8.7-6.5-10.8c13.8-12.1,33.2-25.3,60.6-37.6C255.5,514.1,374.6,522.1,375.8,522.2z
		 M112.8,600.4v81.5c0,4.1-3.3,7.5-7.5,7.5H56.4c-4.1,0-7.5-3.3-7.5-7.5v-81.5c0-4.1,3.3-7.5,7.5-7.5h43.8c-2.8,2.8-5.4,5.6-7.7,8.2
		H82c1.7-0.5,3-2,3-3.9c0-2.2-1.8-4-4-4c-2.2,0-4.1,1.8-4.1,4c0,1.9,1.3,3.4,3,3.9H52c-1.3,0-2.4,1.1-2.4,2.4v68.7
		c0,1.3,1.1,2.4,2.4,2.4h27.8c-3.5,0.5-6.1,3.5-6.1,7.1c0,4,3.2,7.2,7.2,7.2c4,0,7.2-3.2,7.2-7.2c0-3.6-2.7-6.6-6.1-7.1h27.8
		c1.3,0,2.4-1.1,2.4-2.4v-68.7c0-1.3-1.1-2.4-2.4-2.4H99.3c2.4-2.6,5-5.2,7.9-7.9C110.4,594,112.8,596.9,112.8,600.4z M75.6,636.4
		c0.2,0,0.3,0.1,0.5,0.1c1.1,0,2.1-0.8,2.4-1.9c0-0.2,2.8-12,16.6-28.5h12.2v63.8H54.5V606h34.1c-12.1,15.5-14.6,26.6-14.8,27.5
		C73.5,634.8,74.3,636.1,75.6,636.4z M80.1,597.2c0-0.5,0.4-0.8,0.8-0.8c0.5,0,0.8,0.4,0.8,0.8s-0.4,0.8-0.8,0.8
		C80.4,598.1,80.1,597.7,80.1,597.2z M80.9,679.5c1.3,0,2.3,1,2.3,2.3c0,1.3-1,2.3-2.3,2.3c-1.3,0-2.3-1-2.3-2.3
		C78.6,680.5,79.6,679.5,80.9,679.5z"/>
	<path d="M368.7,500.7c0.3,0.1,0.7,0.2,1,0.2c0.9,0,1.8-0.5,2.2-1.4c0.6-1.2,0-2.7-1.2-3.2c-1.8-0.8-178.5-80.7-187.3-138.7
		c-1.5-9.7,1.9-18,10.3-25.5c20.5-18.1,72.5-25.2,73.1-25.3c1.3-0.2,2.3-1.4,2.1-2.7c-0.2-1.3-1.4-2.3-2.7-2.1
		c-2.2,0.3-54,7.4-75.6,26.5c-9.6,8.5-13.6,18.5-11.9,29.9C187.8,418.9,361.3,497.4,368.7,500.7z"/>
</g>
</svg>
