<svg xmlns="http://www.w3.org/2000/svg" xmlns:xlink="http://www.w3.org/1999/xlink" version="1.1" width="800" height="800" enable-background="new 0 0 800 800" xml:space="preserve"><rect id="backgroundrect" width="100%" height="100%" x="0" y="0" fill="none" stroke="none"/>








<g class="currentLayer" style=""><title>Layer 1</title><g id="svg_1" class="selected" fill="#ffff00" fill-opacity="1">
	<polygon fill="#ffff00" points="90.72,302.266 13.226,302.266 13.226,767.007 13.244,767.007 90.72,767.007 245.708,767.007    245.708,689.493 90.72,689.493  " id="svg_2" fill-opacity="1"/>
	<polygon fill="#ffff00" points="709.301,34 554.313,34 554.313,111.513 709.301,111.513 709.301,498.74 786.814,498.74    786.814,111.513 786.814,34  " id="svg_3" fill-opacity="1"/>
</g><polygon fill="#121313" points="554.952,340.929 438.739,340.929 438.739,224.753 361.263,224.753 361.263,340.929 245.087,340.929   245.087,418.441 361.263,418.441 361.263,534.617 438.739,534.617 438.739,418.441 554.952,418.441 " id="svg_4"/><g id="svg_5">
</g><g id="svg_6">
</g><g id="svg_7">
</g><g id="svg_8">
</g><g id="svg_9">
</g><g id="svg_10">
</g></g></svg>