<?xml version="1.0" encoding="utf-8"?>
<!-- Generator: Adobe Illustrator 16.0.0, SVG Export Plug-In . SVG Version: 6.00 Build 0)  -->
<!DOCTYPE svg PUBLIC "-//W3C//DTD SVG 1.1//EN" "http://www.w3.org/Graphics/SVG/1.1/DTD/svg11.dtd">
<svg version="1.1" id="Layer_1" xmlns="http://www.w3.org/2000/svg" xmlns:xlink="http://www.w3.org/1999/xlink" x="0px" y="0px"
	 width="800px" height="800px" viewBox="0 0 800 800" enable-background="new 0 0 800 800" xml:space="preserve">
<g>
	<polygon fill="#00F6FF" points="90.72,302.266 13.226,302.266 13.226,767.007 13.244,767.007 90.72,767.007 245.708,767.007 
		245.708,689.493 90.72,689.493 	"/>
	<polygon fill="#00F6FF" points="709.301,34 554.313,34 554.313,111.513 709.301,111.513 709.301,498.74 786.814,498.74 
		786.814,111.513 786.814,34 	"/>
</g>
<polygon fill="#121313" points="554.952,340.929 438.739,340.929 438.739,224.753 361.263,224.753 361.263,340.929 245.087,340.929 
	245.087,418.441 361.263,418.441 361.263,534.617 438.739,534.617 438.739,418.441 554.952,418.441 "/>
<g>
</g>
<g>
</g>
<g>
</g>
<g>
</g>
<g>
</g>
<g>
</g>
</svg>
