<?xml version="1.0" encoding="utf-8"?>
<!-- Generator: Adobe Illustrator 21.0.2, SVG Export Plug-In . SVG Version: 6.00 Build 0)  -->
<svg version="1.1" id="Layer_1" xmlns="http://www.w3.org/2000/svg" xmlns:xlink="http://www.w3.org/1999/xlink" x="0px" y="0px"
	 viewBox="0 0 841.9 595.3" style="enable-background:new 0 0 841.9 595.3;" xml:space="preserve">
	 <style>
	 	path { fill: #00f6ff; }
	 </style>
<g>
	<path d="M389.2,157c0.5,0,1-0.2,1.4-0.6l6.2-6.2c0.8-0.8,0.8-2,0-2.7c-0.8-0.8-2-0.8-2.7,0l-6.2,6.2c-0.8,0.8-0.8,2,0,2.7
		C388.2,156.8,388.7,157,389.2,157z"/>
	<path d="M374.4,171.8c0.5,0,1-0.2,1.4-0.6l6.2-6.2c0.8-0.8,0.8-2,0-2.7s-2-0.8-2.7,0l-6.2,6.2c-0.8,0.8-0.8,2,0,2.7
		C373.4,171.7,373.9,171.8,374.4,171.8z"/>
	<path d="M359.5,186.7c0.5,0,1-0.2,1.4-0.6l6.2-6.2c0.8-0.8,0.8-2,0-2.7c-0.8-0.8-2-0.8-2.7,0l-6.2,6.2c-0.8,0.8-0.8,2,0,2.7
		C358.5,186.5,359,186.7,359.5,186.7z"/>
	<path d="M376.9,202.2c-0.8,0.8-0.8,2,0,2.7c0.4,0.4,0.9,0.6,1.4,0.6s1-0.2,1.4-0.6l34.7-34.7c0.8-0.8,0.8-2,0-2.7s-2-0.8-2.7,0
		L376.9,202.2z"/>
	<path d="M404.1,142.1c0.5,0,1-0.2,1.4-0.6l6.2-6.2c0.8-0.8,0.8-2,0-2.7c-0.8-0.8-2-0.8-2.7,0l-6.2,6.2c-0.8,0.8-0.8,2,0,2.7
		C403.1,142,403.6,142.1,404.1,142.1z"/>
	<path d="M430.8,214l-6.2,6.2c-0.8,0.8-0.8,2,0,2.7c0.4,0.4,0.9,0.6,1.4,0.6c0.5,0,1-0.2,1.4-0.6l6.2-6.2c0.8-0.8,0.8-2,0-2.7
		C432.8,213.2,431.5,213.2,430.8,214z"/>
	<path d="M401.1,243.7l-6.2,6.2c-0.8,0.8-0.8,2,0,2.7c0.4,0.4,0.9,0.6,1.4,0.6c0.5,0,1-0.2,1.4-0.6l6.2-6.2c0.8-0.8,0.8-2,0-2.7
		S401.8,242.9,401.1,243.7z"/>
	<path d="M445.6,199.1l-6.2,6.2c-0.8,0.8-0.8,2,0,2.7c0.4,0.4,0.9,0.6,1.4,0.6c0.5,0,1-0.2,1.4-0.6l6.2-6.2c0.8-0.8,0.8-2,0-2.7
		C447.6,198.4,446.4,198.4,445.6,199.1z"/>
	<path d="M415.9,228.8l-6.2,6.2c-0.8,0.8-0.8,2,0,2.7c0.4,0.4,0.9,0.6,1.4,0.6c0.5,0,1-0.2,1.4-0.6l6.2-6.2c0.8-0.8,0.8-2,0-2.7
		C417.9,228.1,416.7,228.1,415.9,228.8z"/>
	<path d="M460.5,184.3l-6.2,6.2c-0.8,0.8-0.8,2,0,2.7c0.4,0.4,0.9,0.6,1.4,0.6c0.5,0,1-0.2,1.4-0.6l6.2-6.2c0.8-0.8,0.8-2,0-2.7
		C462.5,183.5,461.2,183.5,460.5,184.3z"/>
	<path d="M478.6,186.1c0.1-2.1-0.7-4.1-2.3-5.8l-9.1-9.1c-0.4-0.5-4.2-4.5-8.3-3.5c-1.6,0.4-3.2,1.1-4.9,1.8
		c-5.8,2.6-12.5,5.5-22.3-4.1c-9.6-9.9-6.7-16.5-4.1-22.3c0.8-1.7,1.5-3.3,1.8-4.9c0.9-4.1-3.1-7.9-3.5-8.3l-8.6-8.6l-0.6-0.5
		c-1.7-1.6-3.7-2.4-5.8-2.3c-4,0.2-7,3.5-7.2,3.8L356,169.8c0,0,0,0,0,0l-4.7,4.7c0,0,0,0,0,0l-47.5,47.5c-0.4,0.3-3.7,3.3-3.9,7.3
		c-0.1,2.1,0.7,4.1,2.3,5.8l9.1,9.1c0.4,0.5,4.3,4.5,8.3,3.5c1.6-0.4,3.2-1.1,4.9-1.8c5.8-2.6,12.5-5.5,22.3,4.1
		c9.6,9.9,6.7,16.5,4.1,22.3c-0.8,1.7-1.5,3.3-1.8,4.9c-0.9,4.1,3.1,7.9,3.5,8.3l8.6,8.7l0.6,0.5c1.6,1.5,3.5,2.3,5.4,2.3
		c0.1,0,0.3,0,0.4,0c4-0.2,7-3.5,7.2-3.8l52.4-52.4c0,0,0,0,0.1-0.1l47.5-47.5C475,193.1,478.4,190.1,478.6,186.1z M472,190.6
		L419.6,243c0,0,0,0-0.1,0.1l-47.7,47.7c-0.5,0.6-2.6,2.5-4.6,2.6c-1,0.1-2-0.3-3-1.2l-9.2-9.2c-0.9-0.9-2.7-3.1-2.4-4.6
		c0.3-1.3,0.9-2.7,1.6-4.2c2.8-6.3,6.6-14.9-4.9-26.6c-6.1-6-11.3-7.8-15.9-7.8c-4.2,0-7.7,1.6-10.7,2.9c-1.5,0.7-3,1.3-4.2,1.6
		c-1.5,0.3-3.8-1.5-4.7-2.4l-8.6-8.5l-0.5-0.6c-0.9-0.9-1.3-1.9-1.2-3c0.1-2,1.9-4,2.7-4.7l52.4-52.4c0,0,0,0,0,0l47.8-47.8
		c0.5-0.6,2.6-2.5,4.6-2.6c1-0.1,2,0.3,3,1.2l9.2,9.1c0.9,0.8,2.7,3.1,2.4,4.6c-0.3,1.3-0.9,2.7-1.6,4.2c-2.8,6.3-6.6,14.9,4.9,26.6
		c11.7,11.5,20.3,7.7,26.6,4.9c1.5-0.7,3-1.3,4.2-1.6c1.5-0.4,3.8,1.5,4.7,2.4l8.6,8.6l0.5,0.5c0.9,0.9,1.3,1.9,1.2,3
		C474.6,187.9,472.8,189.9,472,190.6z"/>
	<path d="M368.6,247.8c0.1,0,0.2,0,0.3,0c0.7-0.1,1.3-0.6,1.5-1.3l3.1-9.9l10-3.1c0.7-0.2,1.2-0.8,1.3-1.5c0.1-0.7-0.2-1.5-0.8-1.9
		l-8.5-6l0.1-10.4c0-0.7-0.4-1.4-1.1-1.7c-0.7-0.3-1.4-0.3-2,0.2l-8.4,6.2l-9.9-3.3c-0.7-0.2-1.5-0.1-2,0.5c-0.5,0.5-0.7,1.3-0.5,2
		l3.3,9.9l-6.2,8.4c-0.4,0.6-0.5,1.4-0.2,2c0.3,0.6,1,1.1,1.7,1.1c0,0,0,0,0,0l10.4-0.1l6,8.5C367.3,247.5,367.9,247.8,368.6,247.8z
		 M362,234.6C362,234.6,361.9,234.6,362,234.6l-7.6,0.1l4.5-6c0.4-0.5,0.5-1.2,0.3-1.8l-2.4-7.1l7.1,2.4c0.6,0.2,1.3,0.1,1.8-0.3
		l6-4.5l-0.1,7.5c0,0.6,0.3,1.2,0.8,1.6l6.1,4.3l-7.2,2.2c-0.6,0.2-1.1,0.7-1.3,1.3l-2.2,7.2l-4.3-6.1
		C363.2,234.9,362.6,234.6,362,234.6z"/>
	<path d="M352.2,192.1c-0.8-0.8-2-0.8-2.7,0l-6.2,6.2c-0.8,0.8-0.8,2,0,2.7c0.4,0.4,0.9,0.6,1.4,0.6c0.5,0,1-0.2,1.4-0.6l6.2-6.2
		C353,194,353,192.8,352.2,192.1z"/>
	<path d="M319.8,221.8l-6.2,6.2c-0.8,0.8-0.8,2,0,2.7c0.4,0.4,0.9,0.6,1.4,0.6s1-0.2,1.4-0.6l6.2-6.2c0.8-0.8,0.8-2,0-2.7
		C321.8,221,320.5,221,319.8,221.8z"/>
	<path d="M334.6,206.9l-6.2,6.2c-0.8,0.8-0.8,2,0,2.7c0.4,0.4,0.9,0.6,1.4,0.6c0.5,0,1-0.2,1.4-0.6l6.2-6.2c0.8-0.8,0.8-2,0-2.7
		C336.6,206.2,335.4,206.2,334.6,206.9z"/>
	<path d="M386.2,258.5l-6.2,6.2c-0.8,0.8-0.8,2,0,2.7c0.4,0.4,0.9,0.6,1.4,0.6s1-0.2,1.4-0.6l6.2-6.2c0.8-0.8,0.8-2,0-2.7
		C388.2,257.8,387,257.8,386.2,258.5z"/>
	<path d="M411.5,198.1c-0.8-0.8-2-0.8-2.7,0L390.8,216c-0.8,0.8-0.8,2,0,2.7c0.4,0.4,0.9,0.6,1.4,0.6c0.5,0,1-0.2,1.4-0.6l17.9-17.9
		C412.2,200.1,412.2,198.9,411.5,198.1z"/>
	<path d="M371.4,273.4l-6.2,6.2c-0.8,0.8-0.8,2,0,2.7c0.4,0.4,0.9,0.6,1.4,0.6c0.5,0,1-0.2,1.4-0.6l6.2-6.2c0.8-0.8,0.8-2,0-2.7
		C373.4,272.6,372.1,272.6,371.4,273.4z"/>
	<path d="M455.1,253.8v53.3c0,1.1,0.9,1.9,1.9,1.9h14.6l6.3,11.3c0.3,0.6,1,1,1.7,1c0.7,0,1.3-0.4,1.7-1l6.3-11.3h2.1
		c1.1,0,1.9-0.9,1.9-1.9s-0.9-1.9-1.9-1.9h-3.2c-0.7,0-1.3,0.4-1.7,1l-5.2,9.3l-5.2-9.3c-0.3-0.6-1-1-1.7-1H459v-49.4h41.3v21.1
		c0,1.1,0.9,1.9,1.9,1.9s1.9-0.9,1.9-1.9v-23c0-1.1-0.9-1.9-1.9-1.9h-45.1C456,251.9,455.1,252.8,455.1,253.8z"/>
	<path d="M556.3,371.1c2.4,0,4.4-2,4.4-4.5s-2-4.5-4.4-4.5c-2.4,0-4.4,2-4.4,4.5S553.8,371.1,556.3,371.1z M556.3,366.1
		c0.3,0,0.6,0.3,0.6,0.6c0,0.7-1.2,0.7-1.2,0C555.7,366.3,555.9,366.1,556.3,366.1z"/>
	<path d="M566.9,371.1c2.4,0,4.4-2,4.4-4.5s-2-4.5-4.4-4.5c-2.4,0-4.4,2-4.4,4.5S564.5,371.1,566.9,371.1z M566.9,366.1
		c0.3,0,0.6,0.3,0.6,0.6c0,0.7-1.2,0.7-1.2,0C566.4,366.3,566.6,366.1,566.9,366.1z"/>
	<path d="M579.8,374v-17.1c0-1.1-0.9-1.9-1.9-1.9H455.4c-1.1,0-1.9,0.9-1.9,1.9V374c0,1.1,0.9,1.9,1.9,1.9h122.5
		C578.9,375.9,579.8,375.1,579.8,374z M532.9,372.1h-75.6v-13.2h75.6V372.1z M575.9,372.1h-39.2v-13.2h39.2V372.1z"/>
	<path d="M584.5,307.2v-53.3c0-1.1-0.9-1.9-1.9-1.9h-45.1c-1.1,0-1.9,0.9-1.9,1.9v23c0,1.1,0.9,1.9,1.9,1.9s1.9-0.9,1.9-1.9v-21.1
		h41.3v49.4h-13.8c-0.7,0-1.3,0.4-1.7,1l-5.2,9.3l-5.2-9.3c-0.3-0.6-1-1-1.7-1h-3.2c-1.1,0-1.9,0.9-1.9,1.9s0.9,1.9,1.9,1.9h2.1
		l6.3,11.3c0.3,0.6,1,1,1.7,1c0.7,0,1.3-0.4,1.7-1l6.3-11.3h14.6C583.6,309.1,584.5,308.2,584.5,307.2z"/>
	<path d="M479.2,279c5.1,0,9.3-4.2,9.3-9.4s-4.2-9.4-9.3-9.4c-5.1,0-9.3,4.2-9.3,9.4S474.1,279,479.2,279z M479.2,264.1
		c3,0,5.5,2.5,5.5,5.5s-2.4,5.5-5.5,5.5c-3,0-5.5-2.5-5.5-5.5S476.2,264.1,479.2,264.1z"/>
	<path d="M548.7,299.4c0,1.1,0.9,1.9,1.9,1.9h23.8c0.9,0,1.7-0.6,1.9-1.5c0.1-0.4,1.7-8.7-6.7-13.8c-10.8-6.5-19.8,0.3-20.2,0.5
		c-0.8,0.6-1,1.9-0.4,2.7c0.6,0.8,1.9,1,2.7,0.4c0.3-0.2,7.4-5.4,15.8-0.3c4.2,2.5,4.9,6.2,5,8.2h-22
		C549.5,297.4,548.7,298.3,548.7,299.4z"/>
	<path d="M545.6,371.1c2.4,0,4.4-2,4.4-4.5s-2-4.5-4.4-4.5c-2.4,0-4.4,2-4.4,4.5S543.1,371.1,545.6,371.1z M545.6,366.1
		c0.3,0,0.6,0.3,0.6,0.6c0,0.7-1.2,0.7-1.2,0C545,366.3,545.3,366.1,545.6,366.1z"/>
	<path d="M463.4,299.7c0.2,0.9,1,1.5,1.9,1.5H489c1.1,0,1.9-0.9,1.9-1.9s-0.9-1.9-1.9-1.9h-22c0.1-2,0.8-5.6,5-8.2
		c8.4-5.1,15.5,0.1,15.8,0.3c0.8,0.6,2.1,0.5,2.7-0.4c0.6-0.8,0.5-2.1-0.4-2.7c-0.4-0.3-9.4-7.1-20.2-0.5
		C461.6,291,463.3,299.4,463.4,299.7z"/>
	<path d="M534.4,330.2c0.4-0.4,0.6-0.9,0.6-1.4c-0.1-4.8-3.5-14-15.6-14c-10.8,0-14.7,9-15.2,13.8c-0.1,0.5,0.1,1.1,0.5,1.5
		c0.4,0.4,0.9,0.6,1.4,0.6h27C533.5,330.7,534,330.5,534.4,330.2z M508.4,326.9c1-3.1,3.7-8.2,10.9-8.2c8.4,0,10.8,5.2,11.5,8.2
		H508.4z"/>
	<path d="M519.5,309.6c5.1,0,9.3-4.2,9.3-9.4c0-5.2-4.2-9.4-9.3-9.4c-5.1,0-9.3,4.2-9.3,9.4C510.2,305.4,514.4,309.6,519.5,309.6z
		 M519.5,294.7c3,0,5.4,2.5,5.4,5.5s-2.4,5.5-5.4,5.5c-3,0-5.5-2.5-5.5-5.5S516.5,294.7,519.5,294.7z"/>
	<path d="M569.8,269.6c0-5.2-4.2-9.4-9.3-9.4c-5.1,0-9.3,4.2-9.3,9.4c0,5.2,4.2,9.4,9.3,9.4C565.6,279,569.8,274.8,569.8,269.6z
		 M555,269.6c0-3,2.4-5.5,5.5-5.5s5.5,2.5,5.5,5.5c0,3-2.4,5.5-5.5,5.5S555,272.7,555,269.6z"/>
	<path d="M495,284.5v53.3c0,1.1,0.9,1.9,1.9,1.9h14.6l6.3,11.3c0.3,0.6,1,1,1.7,1c0.7,0,1.3-0.4,1.7-1l6.3-11.3h14.5
		c1.1,0,1.9-0.9,1.9-1.9v-30.2c0,0,0-0.1,0-0.1v-23c0-1.1-0.9-1.9-1.9-1.9H497C495.9,282.6,495,283.4,495,284.5z M498.9,286.4h41.3
		v49.4h-13.7c-0.7,0-1.3,0.4-1.7,1l-5.2,9.3l-5.2-9.3c-0.3-0.6-1-1-1.7-1h-13.8V286.4z"/>
	<path d="M260,440.4l-26.7-8.7c0,0-0.1,0-0.1,0l-43.9-14.3l10.9-33.4c0,0,0,0,0,0l33.3,10.8c0.4,0.1,0.8,0.1,1.1,0l20.5-5.9
		c0.6-0.2,1.1-0.7,1.3-1.3c0.2-0.6,0-1.3-0.4-1.8L242.4,371c-0.2-0.2-0.5-0.4-0.8-0.5l-33.5-10.9l4.2-12.9l30.6,9.9
		c1,0.3,2.1-0.2,2.4-1.2l6.7-20.7c0.2-0.5,0.1-1-0.1-1.5c-0.2-0.5-0.6-0.8-1.1-1l-30.6-9.9l3.4-10.5c0.3-1-0.2-2.1-1.2-2.4
		c-1-0.3-2.1,0.2-2.4,1.2l-3.4,10.5L182.2,310c-0.4-0.1-0.8-0.1-1.1,0l-20.5,5.9c-0.6,0.2-1.1,0.7-1.3,1.3c-0.2,0.6,0,1.3,0.4,1.8
		l13.6,14.8c0.2,0.2,0.5,0.4,0.8,0.5l34.5,11.2l-4.2,12.9l-31.6-10.3c-1-0.3-2.1,0.2-2.4,1.2l-6.7,20.7c-0.2,0.5-0.1,1,0.1,1.5
		c0.2,0.5,0.6,0.8,1.1,1l31.6,10.3c0,0,0,0,0,0l-10.9,33.4l-65-21.1c-0.9-0.3-2,0.2-2.4,1.1L97,446.3c0,0,0,0.1,0,0.1L83.2,479
		c-0.2,0.5-0.2,1.1,0,1.6c0.2,0.5,0.6,0.9,1.2,1l111.1,36.1c0,0,0,0,0.1,0l18.7,6.1c0,0,0.1,0,0.1,0l24.8,8c0.2,0.1,0.4,0.1,0.6,0.1
		c0.3,0,0.7-0.1,1-0.3c0.5-0.3,0.8-0.7,0.9-1.3l19.7-87.8C261.6,441.7,261,440.7,260,440.4z M175.8,330.8l-11.2-12.1l17-4.9
		l66.2,21.5l-5.5,17L175.8,330.8z M167.9,369.5l5.5-17l31.5,10.2c0,0,0.1,0,0.1,0c0,0,0.1,0,0.1,0l34.8,11.3l11.2,12.1l-17,4.9
		L167.9,369.5z M188.1,421.1l41.6,13.5l-19,29.3l-33-10.7L188.1,421.1z M184.4,419.9L174,452l-27.1-8.8l10.4-32.1L184.4,419.9z
		 M121.1,399.3l17,5.5l-10.4,32.1l-19.7-6.4L121.1,399.3z M194.7,513.4L87.6,478.5l12.3-29l101.2,32.9L194.7,513.4z M213.5,519.4
		l-15.1-4.9l6.8-33.1c0.2-1-0.4-1.9-1.3-2.2l-102.6-33.3l5-11.8l21.9,7.1c1,0.3,2.1-0.2,2.4-1.2l11-33.9l11.9,3.9l-11,34
		c-0.2,0.5-0.1,1,0.1,1.5c0.2,0.5,0.6,0.8,1.1,1l67.1,21.8c0.8,0.3,1.7-0.1,2.2-0.8l20.4-31.4l14.9,4.8l-28,45.5
		c-0.1,0.2-0.2,0.4-0.2,0.6L213.5,519.4z M238.3,527.5l-21.2-6.9l6.8-32.7l28.3-46l5,1.6L238.3,527.5z"/>
	<path d="M159.4,63.4c-1.1,0.2-1.8,1.2-1.6,2.2c0.2,0.9,1,1.6,1.9,1.6c0.1,0,0.2,0,0.3,0l93.8-14.9c1.1-0.2,1.8-1.2,1.6-2.2
		c-0.2-1-1.1-1.8-2.2-1.6L159.4,63.4z"/>
	<path d="M268.8,68.8c-0.4-0.3-0.9-0.4-1.4-0.3l-102,16.2c-0.8,0.1-19.1,2.5-21.8-16.8c-2.8-19.3,12.4-22.2,13-22.3l107-17
		c1.1-0.2,1.8-1.2,1.6-2.2c-0.2-1.1-1.1-1.8-2.2-1.6l-107.1,17c-0.2,0-18.4,3.4-16.4,24.8c0,0.2,0,0.4,0,0.5l18.1,114
		c0.1,0.6,2.1,13.7,11.3,19.2c3.9,2.3,8.6,2.9,12.3,2.9c3.6,0,6.3-0.6,6.5-0.6l98.5-15.6c1.1-0.2,1.8-1.2,1.6-2.2L269.6,70.1
		C269.5,69.6,269.2,69.1,268.8,68.8z M186.9,198.7c-0.1,0-9.6,2-16.1-1.8c-7.6-4.5-9.4-16.3-9.5-16.4l-15.6-98.5
		c0.8,0.8,1.6,1.5,2.5,2.2c7.6,5.7,17.3,4.4,17.7,4.3l100.1-15.9l17.5,110.8L186.9,198.7z"/>
	<path d="M365.4,416.2l8.4-8.5c0.8-0.8,0.7-2,0-2.7c-0.8-0.7-2-0.7-2.7,0l-8.4,8.5l-8.5-8.4c-0.8-0.7-2-0.7-2.7,0
		c-0.7,0.8-0.7,2,0,2.7l8.5,8.4l-8.4,8.5c-0.8,0.8-0.7,2,0,2.7c0.4,0.4,0.9,0.6,1.4,0.6c0.5,0,1-0.2,1.4-0.6l8.4-8.5l8.5,8.4
		c0.8,0.7,2,0.7,2.7,0c0.7-0.8,0.7-2,0-2.7L365.4,416.2z"/>
	<circle cx="354.4" cy="382.7" r="3.7"/>
	<path d="M398.8,401.6l8.4-8.5c0.8-0.8,0.7-2,0-2.7c-0.8-0.7-2-0.7-2.7,0l-8.4,8.5l-8.5-8.4c-0.8-0.8-2-0.7-2.7,0
		c-0.7,0.8-0.7,2,0,2.7l8.5,8.4l-8.4,8.5c-0.8,0.8-0.7,2,0,2.7c0.4,0.4,0.9,0.6,1.4,0.6c0.5,0,1-0.2,1.4-0.6l8.4-8.5l8.5,8.4
		c0.8,0.7,2,0.7,2.7,0c0.7-0.8,0.7-2,0-2.7L398.8,401.6z"/>
	<path d="M406.9,328.8c0-6-4.9-10.9-10.9-10.9c-6,0-10.9,4.9-10.9,10.9c0,6,4.9,10.9,10.9,10.9C402.1,339.7,406.9,334.8,406.9,328.8
		z M389.1,328.8c0-3.9,3.1-7,7-7c3.9,0,7,3.1,7,7c0,3.9-3.1,7-7,7C392.2,335.8,389.1,332.7,389.1,328.8z"/>
	<path d="M396.9,348.2C396.9,348.1,396.8,348.1,396.9,348.2c-0.4-0.3-0.8-0.5-1.2-0.5c0,0,0,0,0,0c-0.1,0-0.2,0-0.3,0
		c-0.4,0-0.8,0.2-1.2,0.5l-11.1,10.7c-0.8,0.7-0.8,2-0.1,2.7c0.7,0.8,2,0.8,2.7,0.1l8-7.7c0,4.3-0.3,11.2-1.8,17.4
		c-2.1,8.8-16.9,9.9-17,9.9c-1.1,0.1-1.9,1-1.8,2c0.1,1,0.9,1.8,1.9,1.8c0,0,0.1,0,0.1,0c0.7,0,17.7-1.3,20.5-12.8
		c1.6-6.6,1.9-13.7,1.9-18.2l8.7,8c0.8,0.7,2,0.7,2.7-0.1c0.7-0.8,0.7-2-0.1-2.7L396.9,348.2z"/>
	<path d="M331.8,410.3c-6,0-10.9,4.9-10.9,10.9c0,6,4.9,10.9,10.9,10.9c6,0,10.9-4.9,10.9-10.9C342.7,415.2,337.8,410.3,331.8,410.3
		z M331.8,428.2c-3.9,0-7-3.1-7-7c0-3.9,3.1-7,7-7s7,3.1,7,7C338.8,425.1,335.7,428.2,331.8,428.2z"/>
	<circle cx="365.5" cy="382.2" r="3.7"/>
	<circle cx="335" cy="391" r="3.7"/>
	<circle cx="331.8" cy="401.6" r="3.7"/>
	<ellipse cx="343.4" cy="384" rx="3.7" ry="3.7"/>
	<path d="M363.8,345.4c-0.8-0.7-2-0.7-2.7,0l-8.4,8.5l-8.5-8.4c-0.8-0.7-2-0.7-2.7,0c-0.8,0.8-0.7,2,0,2.7l8.5,8.4l-8.4,8.5
		c-0.7,0.8-0.7,2,0,2.7c0.4,0.4,0.9,0.6,1.4,0.6c0.5,0,1-0.2,1.4-0.6l8.4-8.5l8.5,8.4c0.8,0.8,2,0.7,2.7,0c0.8-0.8,0.7-2,0-2.7
		l-8.5-8.4l8.4-8.5C364.6,347.4,364.6,346.2,363.8,345.4z"/>
	<path d="M735.6,130.5c3.2-0.2,5.8-0.5,6-0.6c1-0.1,1.7-0.9,1.7-1.9l0-16.7c0-0.2,0-0.3,0-0.5c-0.2-1.9-0.4-1.9-11.6-2.4
		c-5.1-0.2-8.6,1.4-10.8,3.4c0.6-4.7,1-9.7,1.1-14.9c0.8-31.8-12.2-56.2-16.1-62.7c3.1-0.7,6.7-1.7,10-3.3
		c8.8-4.1,9.8-12.2,9.9-12.6c0.1-0.5-0.1-1.1-0.5-1.5c-0.4-0.4-0.9-0.6-1.4-0.6l-155.8,0c-0.7,0-16.8-0.9-27.9,11.4
		c-9,10.1-8.6,20.4-8.5,20.8v90.4c-6.8,8.6-8.1,18.9-8.1,19.1c-0.1,0.5,0.1,1.1,0.5,1.5c0.4,0.4,0.9,0.6,1.4,0.6h12.7
		c-0.4,1.5-0.5,3-0.5,4.6c0,10.9,8.8,19.7,19.7,19.7s19.7-8.8,19.7-19.7c0-1.5-0.2-3.1-0.5-4.6h125.5c-0.4,1.5-0.5,3-0.5,4.6
		c0,10.9,8.8,19.7,19.7,19.7c10.9,0,19.7-8.8,19.7-19.7c0-1.5-0.2-3.1-0.5-4.6h4.2c1,0.1,5.1,0.4,7.3-2.5c1.6-2.2,1.6-5.3-0.2-9.4
		C747.9,139.9,742.9,134.3,735.6,130.5z M721.4,118.1c0-0.1,1.3-6,10.1-5.7c4.3,0.2,6.6,0.3,7.9,0.4l0,13.5
		c-2.5,0.3-7.1,0.6-10.2,0.3c-3.1-0.4-5.4-1.4-6.7-3.1C720.9,121.1,721.4,118.2,721.4,118.1z M718.7,124.5c0.2,0.3,0.4,0.6,0.6,1
		c-0.3,0-0.5-0.1-0.8-0.1C718.6,125.1,718.7,124.8,718.7,124.5z M717.3,80.5h-32.1V35.6h12.3c0.2,0,1.9-0.1,4.5-0.5
		C703.5,37.7,714.2,55.6,717.3,80.5z M543,30.3c9.8-10.9,24.7-10.2,24.9-10.1h153.5c-0.8,2.1-2.7,5.3-7.1,7.3
		c-7.5,3.5-17,4.2-17,4.2l-14,0c0,0-0.1,0-0.1,0l-49.8,0c-0.1,0-0.2,0-0.3,0l-36.1,0c-0.4,0-9.4-0.8-15.6,5.3
		c-6,5.9-5.7,14.4-5.7,14.7V92h-40.2V48.4C535.4,48.3,535.1,39.1,543,30.3z M635.2,111.2V98.9l26.5,0c0.9,0.1,5.1,0.6,5.1,6.5
		c0,2.5-0.8,4.1-2.4,5c-1.3,0.7-2.7,0.7-2.7,0.7H635.2z M659.3,115v28.6h-24.1V115H659.3z M663.2,114.9c1.3-0.2,3.3-0.8,4.9-2.4
		c1.7-1.7,2.6-4.1,2.6-7.1c0-7.9-5.8-10.2-8.9-10.3h-26.6V35.6h46.1v108h-18.1V114.9z M602.6,103.6c-5.1-11.1-21.3-11.6-22-11.7h-1
		l0-40.4c0-0.1-0.2-7.2,4.6-11.9c4.9-4.8,12.5-4.2,12.7-4.2l34.5,0v108h-25.8l-0.1-25.7C605.6,116.9,606,111.1,602.6,103.6z
		 M557.2,180.5c-8.7,0-15.8-7.1-15.8-15.8c0-1.2,0.1-2.3,0.4-3.4h30.9c0.2,1.1,0.4,2.3,0.4,3.4C573.1,173.4,566,180.5,557.2,180.5z
		 M527.6,156.3c1.3-6.5,7.1-25.2,29.2-25.2c25,0,29.4,18.9,30.2,25.2H527.6z M587,143.6c-4.2-8-12.8-16.4-30.1-16.4
		c-9.6,0-16.5,3.2-21.4,7.6v-39h45.1c0.1,0,14.5,0.5,18.6,9.4c3.2,6.9,2.6,12.2,2.6,12.3c0,0.1,0,0.2,0,0.3l0.1,25.8h-14.6
		C587.1,143.6,587,143.6,587,143.6z M590.9,156.3c-0.2-1.9-0.8-5.2-2.2-8.8h94.6c1.1,0,1.9-0.9,1.9-1.9V84.4h32.6
		c0.4,4,0.5,8.2,0.4,12.6c-0.8,29.5-10.8,52.5-14.1,59.4H590.9z M721.1,180.5c-8.7,0-15.8-7.1-15.8-15.8c0-1.2,0.1-2.3,0.4-3.4h30.9
		c0.2,1.1,0.4,2.3,0.4,3.4C736.9,173.4,729.8,180.5,721.1,180.5z M748.6,155.3c-0.8,1.1-3.1,1.1-3.8,1c-0.1,0-0.2,0-0.3,0h-36.2
		c2.3-5,6.3-14.5,9.3-27.1c1.9,0.2,7.2,0.9,12.8,3.2c8.3,3.4,13.7,8.7,17.5,17.4C749.1,152.4,749.3,154.4,748.6,155.3z"/>
	<path d="M698.2,93.8h-2.9c-1.1,0-1.9,0.9-1.9,1.9s0.9,1.9,1.9,1.9h2.9c1.1,0,1.9-0.9,1.9-1.9S699.3,93.8,698.2,93.8z"/>
	<path d="M752.2,109c0.2,0,0.5,0,0.7-0.1l3.6-1.4c1-0.4,1.5-1.5,1.1-2.5c-0.4-1-1.5-1.5-2.5-1.1l-3.6,1.4c-1,0.4-1.5,1.5-1.1,2.5
		C750.7,108.5,751.4,109,752.2,109z"/>
	<path d="M756.8,116.9L753,117c-1.1,0-1.9,0.9-1.9,2c0,1,0.9,1.9,1.9,1.9c0,0,0,0,0.1,0l3.8-0.1c1.1,0,1.9-0.9,1.9-2
		C758.8,117.7,757.8,116.9,756.8,116.9z"/>
	<path d="M756.6,130.3l-3.5-1.6c-1-0.4-2.1,0-2.6,1c-0.4,1,0,2.1,1,2.6l3.5,1.6c0.3,0.1,0.5,0.2,0.8,0.2c0.7,0,1.4-0.4,1.8-1.1
		C758,131.9,757.5,130.7,756.6,130.3z"/>
	<path d="M477.1,469.3c0,1.1,0.9,1.9,1.9,1.9h70.7c1.1,0,1.9-0.9,1.9-1.9s-0.9-1.9-1.9-1.9H479C478,467.3,477.1,468.2,477.1,469.3z"
		/>
	<path d="M637.2,416.2c-12.6,0-22.9,10.3-22.9,22.9c0,12.6,10.3,22.9,22.9,22.9s22.9-10.3,22.9-22.9
		C660.1,426.4,649.8,416.2,637.2,416.2z M637.2,458.1c-10.5,0-19-8.5-19-19c0-10.5,8.5-19,19-19s19,8.5,19,19
		C656.3,449.5,647.7,458.1,637.2,458.1z"/>
	<path d="M523.8,453.7h-50.6c-1.1,0-1.9,0.9-1.9,1.9s0.9,1.9,1.9,1.9h50.6c1.1,0,1.9-0.9,1.9-1.9S524.9,453.7,523.8,453.7z"/>
	<path d="M472,469.3c0-1.1-0.9-1.9-1.9-1.9h-13.3c-1.1,0-1.9,0.9-1.9,1.9s0.9,1.9,1.9,1.9h13.3C471.1,471.2,472,470.3,472,469.3z"/>
	<path d="M478.3,494.2h-3.8c-1.1,0-1.9,0.9-1.9,1.9s0.9,1.9,1.9,1.9h3.8c1.1,0,1.9-0.9,1.9-1.9S479.3,494.2,478.3,494.2z"/>
	<path d="M476.4,482.8c0-1.1-0.9-1.9-1.9-1.9h-7.8c-1.1,0-1.9,0.9-1.9,1.9s0.9,1.9,1.9,1.9h7.8C475.5,484.7,476.4,483.8,476.4,482.8
		z"/>
	<path d="M647.8,503.9h-23.7l-5.1-37.8c-0.1-0.5-0.3-0.9-0.7-1.2l-28.7-24.2c-0.3-0.3-0.8-0.5-1.2-0.5h-45.4
		c-0.8-0.1-3.9-0.3-6.5,1.7c-1.9,1.5-2.9,3.7-3.1,6.6c-0.2,3,0.5,5.3,2.2,7c2.4,2.5,5.8,2.4,6.1,2.4l42.6-0.7c1.4,0,2.3,0.2,2.8,0.7
		c0.1,0.1,0.2,0.2,0.2,0.3l-36,29.1c-0.4,0.3-9.8,8.1-11.3,19.1c-1.6,11.4,7.9,18.4,8.4,18.8l35.8,23.1l-26.2,12.7
		c-1.2,0.3-6.1,1.9-7.7,5.8c-0.6,1.5-1,3.8,0.7,6.9c1.5,2.7,3.5,4.4,6,4.9c0.7,0.2,1.3,0.2,2,0.2c2.7,0,4.9-1.2,5.5-1.6l32-14.4
		c0.9-0.4,8.9-3.9,11-8.8c3.6-8.4-3.1-15-3.3-15.3l-22.3-22.9l22.4-20c0.6,3.6,1.6,9.6,2.2,15.6c1,9,8.3,10.9,11.9,10.7l29.8,0
		c0.4,0,4,0.2,6.7-2.3c1.7-1.6,2.6-3.8,2.6-6.7c0-3-0.9-5.3-2.7-7C651.7,503.6,647.8,503.9,647.8,503.9z M652,517.1
		c-1.5,1.4-3.8,1.3-4,1.3l-30,0c-0.7,0-7.1,0.2-7.9-7.2c-1-9.5-2.9-19.2-2.9-19.3c-0.1-0.7-0.6-1.2-1.3-1.5
		c-0.7-0.2-1.4-0.1-1.9,0.4l-26.4,23.6c-0.4,0.4-0.6,0.8-0.6,1.4c0,0.5,0.2,1,0.5,1.4l23.8,24.4c0.2,0.2,5.1,5.1,2.5,11
		c-1.3,3-6.9,5.9-9,6.8l-32.1,14.4c-0.1,0-0.2,0.1-0.3,0.2c0,0-2.3,1.5-4.6,0.9c-1.4-0.3-2.6-1.4-3.5-3.1c-0.8-1.4-0.9-2.5-0.5-3.5
		c0.9-2.1,4.2-3.4,5.4-3.7c0.1,0,0.2-0.1,0.3-0.1l29.5-14.2c0.6-0.3,1-0.9,1.1-1.6c0-0.7-0.3-1.4-0.9-1.7L550.6,522
		c-0.3-0.2-8-6-6.7-15.1c1.3-9.5,9.9-16.6,9.9-16.7l36.9-29.8c0.4-0.3,0.7-0.8,0.7-1.4c0-0.2,0.1-2.2-1.4-3.8c-1.2-1.3-3.1-2-5.5-2
		c-0.1,0-0.2,0-0.2,0l-42.6,0.7c0,0-2.1,0.1-3.3-1.2c-0.8-0.9-1.2-2.2-1.1-4c0.1-1.8,0.7-3.1,1.6-3.8c1.5-1.2,3.6-0.9,3.7-0.9
		c0.1,0,0.2,0,0.3,0h44.8l27.6,23.3l5.2,38.7c0.1,1,0.9,1.7,1.9,1.7l25.5,0c0,0,2.4-0.1,3.9,1.3c1,0.9,1.5,2.3,1.5,4.2
		C653.3,514.9,652.9,516.2,652,517.1z"/>
	<path d="M462.9,455.7c0-1.1-0.9-1.9-1.9-1.9h-16.1c-1.1,0-1.9,0.9-1.9,1.9s0.9,1.9,1.9,1.9h16.1C462,457.6,462.9,456.7,462.9,455.7
		z"/>
	<path d="M534.7,482.8c0-1.1-0.9-1.9-1.9-1.9h-47.6c-1.1,0-1.9,0.9-1.9,1.9s0.9,1.9,1.9,1.9h47.6
		C533.8,484.7,534.7,483.8,534.7,482.8z"/>
	<path d="M539,530.6L503.4,571c0,0-3,3.8-6.4,4.1c-1.4,0.2-2.7-0.3-4-1.4c-1.6-1.4-2.5-2.8-2.6-4.3c-0.2-2.2,1.4-4,1.5-4.1
		l39.4-48.7c0.7-0.8,0.5-2-0.3-2.7c-0.8-0.7-2-0.5-2.7,0.3L489,562.9c-0.1,0.1-2.7,2.9-2.5,6.8c0.2,2.6,1.5,5,4,7
		c1.8,1.5,3.8,2.3,5.9,2.3c0.3,0,0.6,0,1-0.1c5.1-0.5,8.9-5.4,9-5.5l35.5-40.3c0.7-0.8,0.6-2-0.2-2.7
		C540.9,529.7,539.7,529.8,539,530.6z"/>
	<path d="M488.8,494.2c-1.1,0-1.9,0.9-1.9,1.9s0.9,1.9,1.9,1.9h37.5c1.1,0,1.9-0.9,1.9-1.9s-0.9-1.9-1.9-1.9H488.8z"/>
</g>
</svg>
