<?xml version="1.0" encoding="utf-8"?>
<!-- Generator: Adobe Illustrator 21.0.2, SVG Export Plug-In . SVG Version: 6.00 Build 0)  -->
<svg version="1.1" id="Layer_1" xmlns="http://www.w3.org/2000/svg" xmlns:xlink="http://www.w3.org/1999/xlink" x="0px" y="0px"
	 viewBox="0 0 264 196.3" style="enable-background:new 0 0 264 196.3;" xml:space="preserve">
<style type="text/css">
	.st0{fill:#FFFFFF;}
</style>
<g>
	<path class="st0" d="M41,110.2h139c6.6,0,12-5.4,12-12c0-6.6-5.4-12-12-12H41l15.5-15.5c4.7-4.7,4.7-12.3,0-17
		c-4.7-4.7-12.3-4.7-17,0l-36,36C3.2,90,3,90.2,2.7,90.5c-0.1,0.1-0.1,0.2-0.2,0.2C2.4,91,2.2,91.2,2,91.5c0,0.1-0.1,0.1-0.1,0.2
		c-0.2,0.3-0.3,0.5-0.5,0.8c0,0.1-0.1,0.1-0.1,0.2C1.2,93,1,93.3,0.9,93.6c0,0,0,0.1,0,0.1c-0.1,0.3-0.3,0.7-0.4,1c0,0,0,0.1,0,0.1
		c-0.1,0.3-0.2,0.7-0.3,1c0,0.1,0,0.2,0,0.3c-0.1,0.3-0.1,0.6-0.1,0.9C0,97.4,0,97.8,0,98.2c0,0.4,0,0.8,0.1,1.2
		c0,0.3,0.1,0.6,0.1,0.9c0,0.1,0,0.2,0,0.3c0.1,0.3,0.2,0.7,0.3,1c0,0,0,0.1,0,0.1c0.1,0.3,0.2,0.7,0.4,1c0,0,0,0.1,0,0.1
		c0.1,0.3,0.3,0.6,0.4,0.9c0,0.1,0.1,0.1,0.1,0.2c0.1,0.3,0.3,0.5,0.5,0.8c0,0.1,0.1,0.1,0.1,0.2c0.2,0.2,0.3,0.5,0.5,0.7
		c0.1,0.1,0.1,0.2,0.2,0.2c0.3,0.3,0.5,0.6,0.8,0.9l36,36c2.3,2.3,5.4,3.5,8.5,3.5c3.1,0,6.1-1.2,8.5-3.5c4.7-4.7,4.7-12.3,0-17
		L41,110.2z M41,110.2"/>
	<path class="st0" d="M165.8,0c-32.8,0-63.2,16.3-81.5,43.5c-3.7,5.5-2.2,13,3.3,16.7c5.5,3.7,13,2.2,16.7-3.3
		C118.1,36.3,141.1,24,165.8,24c40.9,0,74.2,33.3,74.2,74.2c0,40.9-33.3,74.2-74.2,74.2c-24.7,0-47.7-12.2-61.5-32.7
		c-3.7-5.5-11.2-6.9-16.7-3.2c-5.5,3.7-6.9,11.2-3.2,16.7c18.3,27.1,48.7,43.3,81.4,43.3c54.1,0,98.2-44,98.2-98.2
		C264,44,220,0,165.8,0L165.8,0z M165.8,0"/>
</g>
</svg>
