<?xml version="1.0" encoding="utf-8"?>
<!-- Generator: Adobe Illustrator 21.0.2, SVG Export Plug-In . SVG Version: 6.00 Build 0)  -->
<svg version="1.1" id="Layer_1" xmlns="http://www.w3.org/2000/svg" xmlns:xlink="http://www.w3.org/1999/xlink" x="0px" y="0px"
	 viewBox="0 0 383.5 409.2" style="enable-background:new 0 0 383.5 409.2;" xml:space="preserve">
	 <style type="text/css">
	 	.st0{fill:#ffffff;}
	 </style>
<g>
	<g>
		<path class="st0" d="M309.2,268.3c-17.9,0-34.8,7-47.4,19.7c-3.5,3.5-6.6,7.4-9.2,11.5l-116-70.4c3.1-7.7,4.8-16,4.8-24.8
			c0-8.8-1.7-17.1-4.8-24.8l116-69.9c11.9,18.7,32.8,31.2,56.6,31.2c37,0,67.1-30.1,67.1-67.1c0-37-30.1-67.1-67.1-67.1
			c-37,0-67.1,30.1-67.1,67.1c0,8.4,1.6,16.5,4.5,23.9l-116.2,69.9c-12-18.3-32.6-30.4-56.1-30.4c-37,0-67.1,30.1-67.1,67.1
			c0,37,30.1,67.1,67.1,67.1c23.5,0,44.1-12.1,56.1-30.4l116.1,70.5c-2.9,7.6-4.5,15.6-4.5,23.9c0,17.9,7,34.8,19.7,47.4
			c12.7,12.7,29.5,19.7,47.4,19.7c17.9,0,34.8-7,47.4-19.7c12.7-12.6,19.7-29.5,19.7-47.4c0-17.9-7-34.8-19.7-47.4
			C343.9,275.3,327.1,268.3,309.2,268.3L309.2,268.3z M309.2,268.3"/>
	</g>
</g>
</svg>
