<?xml version="1.0" encoding="utf-8"?>
<!-- Generator: Adobe Illustrator 21.0.2, SVG Export Plug-In . SVG Version: 6.00 Build 0)  -->
<svg version="1.1" id="Layer_1" xmlns="http://www.w3.org/2000/svg" xmlns:xlink="http://www.w3.org/1999/xlink" x="0px" y="0px"
	 viewBox="0 0 502 398" style="enable-background:new 0 0 502 398;" xml:space="preserve">
	 <style type="text/css">
	 	.st0{fill:#ffffff;}
	 </style>
<g>
	<path class="st0" d="M237.5,6.1c-4.6,0-9.2,1.3-13.2,3.7c-0.4,0.2-0.8,0.5-1.1,0.8l-113.6,96.2H20.3c-4.6,0-8.4,3.7-8.4,8.3v159.4
		c0,4.6,3.8,8.3,8.4,8.3h89l113.6,104.3c0.5,0.4,0.9,0.7,1.4,1c4.1,2.4,8.6,3.7,13.3,3.7c14.4,0,26-11.9,26-26.5V32.5
		C263.5,18,251.8,6.1,237.5,6.1z"/>
	<polygon class="st0" points="490.1,129.8 467.9,107.5 398.6,176.8 329.4,107.5 307.1,129.8 376.4,199 307.1,268.2 329.4,290.5 398.6,221.2 
		467.9,290.5 490.1,268.2 420.9,199 	"/>
</g>
</svg>
