<?xml version="1.0" encoding="utf-8"?>
<!-- Generator: Adobe Illustrator 21.0.2, SVG Export Plug-In . SVG Version: 6.00 Build 0)  -->
<svg version="1.1" id="Layer_1" xmlns="http://www.w3.org/2000/svg" xmlns:xlink="http://www.w3.org/1999/xlink" x="0px" y="0px"
	 viewBox="0 0 454 398" style="enable-background:new 0 0 454 398;" xml:space="preserve">
	 <style type="text/css">
	 	.st0{fill:#ffffff;}
	 </style>
<g>
	<path class="st0" d="M234.4,6.1c-4.6,0-9.2,1.3-13.2,3.7c-0.4,0.2-0.8,0.5-1.1,0.8l-113.6,96.2H17.2c-4.6,0-8.4,3.7-8.4,8.3v159.4
		c0,4.6,3.8,8.3,8.4,8.3h89l113.6,104.3c0.5,0.4,0.9,0.7,1.4,1c4.1,2.4,8.6,3.7,13.3,3.7c14.4,0,26-11.9,26-26.5V32.5
		C260.4,18,248.8,6.1,234.4,6.1z"/>
	<path class="st0" d="M334.2,40.1c-4.4-1.5-9.2,0.9-10.6,5.2c-1.5,4.4,0.9,9.2,5.2,10.6c59.5,20.2,99.6,76,99.6,138.8
		c0,62.8-39.9,118.6-99.4,138.8c-4.4,1.5-6.8,6.3-5.2,10.7c1.2,3.5,4.5,5.7,7.9,5.7c0.9,0,1.8-0.1,2.7-0.5
		c66.2-22.6,110.7-84.8,110.7-154.7C445.2,124.8,400.6,62.6,334.2,40.1z"/>
	<path class="st0" d="M369.7,194.8c0-50.1-33.6-94.8-81.8-108.7c-4.5-1.3-9.1,1.3-10.4,5.7c-1.3,4.5,1.3,9.1,5.7,10.4
		c41,11.8,69.6,49.9,69.6,92.6c0,42.7-28.6,80.8-69.6,92.6c-4.5,1.3-7,5.9-5.7,10.4c1.1,3.6,4.4,6.1,8,6.1c0.8,0,1.6-0.1,2.3-0.3
		C336.1,289.6,369.7,244.9,369.7,194.8z"/>
</g>
</svg>
