<?xml version="1.0" encoding="utf-8"?><svg xmlns="http://www.w3.org/2000/svg" xmlns:xlink="http://www.w3.org/1999/xlink"><symbol viewBox="0 0 64 64" id="arrow-down" xmlns="http://www.w3.org/2000/svg"><path d="M32 56.22L0 10.44h64z"/></symbol><symbol viewBox="0 0 64 64" id="arrow-down-big" xmlns="http://www.w3.org/2000/svg"><path d="M32 51.13l-32-32 4.55-4.56L32 42.02l27.45-27.45L64 19.13l-32 32z"/></symbol><symbol viewBox="0 0 64 64" id="arrow-down-small" xmlns="http://www.w3.org/2000/svg"><path d="M0 20.34l32 32 32-32-7-7-25 25-25-25z"/></symbol><symbol viewBox="0 0 64 64" id="arrow-left" xmlns="http://www.w3.org/2000/svg"><path d="M9.11 32L54.89 0v64z"/></symbol><symbol viewBox="0 0 64 64" id="arrow-left-big" xmlns="http://www.w3.org/2000/svg"><path d="M11 32L43 0l4.55 4.55L20.1 32l27.45 27.45L43 64 11 32z"/></symbol><symbol viewBox="0 0 64 64" id="arrow-left-small" xmlns="http://www.w3.org/2000/svg"><path d="M40.35 0l-32 32 32 32 7-7-25-25 25-25z"/></symbol><symbol viewBox="0 0 64 64" id="arrow-line-down" xmlns="http://www.w3.org/2000/svg"><path d="M5.23 37.21l5.84-5.84 16.81 16.82V0h8.26v48.19L53 31.37l5.84 5.84L32 64z"/></symbol><symbol viewBox="0 0 64 64" id="arrow-line-left" xmlns="http://www.w3.org/2000/svg"><path d="M26.79 5.23l5.84 5.84-16.82 16.81H64v8.26H15.81L32.63 53l-5.84 5.8L0 32z"/></symbol><symbol viewBox="0 0 64 64" id="arrow-line-right" xmlns="http://www.w3.org/2000/svg"><path d="M37.21 5.23l-5.84 5.84 16.82 16.81H0v8.26h48.19L31.37 53l5.84 5.84L64 32z"/></symbol><symbol viewBox="0 0 64 64" id="arrow-line-up" xmlns="http://www.w3.org/2000/svg"><path d="M58.78 26.79l-5.84 5.84-16.81-16.82V64h-8.26V15.81L11.05 32.63l-5.84-5.84L32 0z"/></symbol><symbol viewBox="0 0 64 64" id="arrow-right" xmlns="http://www.w3.org/2000/svg"><path d="M54.89 32L9.11 64V0z"/></symbol><symbol viewBox="0 0 64 64" id="arrow-right-big" xmlns="http://www.w3.org/2000/svg"><path d="M55.78 32l-32-32-4.55 4.55L46.67 32 19.23 59.45 23.78 64l32-32z"/></symbol><symbol viewBox="0 0 64 64" id="arrow-right-small" xmlns="http://www.w3.org/2000/svg"><path d="M19.49 64l32-32-32-32-7 7 25 25-25 25z"/></symbol><symbol viewBox="0 0 64 64" id="arrow-up" xmlns="http://www.w3.org/2000/svg"><path d="M32 10.44l32 45.78H0z"/></symbol><symbol viewBox="0 0 64 64" id="arrow-up-big" xmlns="http://www.w3.org/2000/svg"><path d="M32 14.57l32 32-4.55 4.56L32 23.68 4.55 51.13 0 46.58l32-32.01z"/></symbol><symbol viewBox="0 0 64 64" id="arrow-up-small" xmlns="http://www.w3.org/2000/svg"><path d="M64 45.36l-32-32-32 32 7 7 25-25 25 25z"/></symbol><symbol viewBox="0 0 64 64" id="close" xmlns="http://www.w3.org/2000/svg"><path d="M42.17 32.18L61.9 12.45a7.2 7.2 0 0 0 0-10.17 7.2 7.2 0 0 0-10.17 0L32 22 12.27 2.28A7.19 7.19 0 1 0 2.1 12.45l19.73 19.73L2.1 51.9a7.19 7.19 0 1 0 10.17 10.17L32 42.35l19.73 19.72A7.19 7.19 0 1 0 61.9 51.9z"/></symbol><symbol viewBox="0 0 64 64" id="close-big" xmlns="http://www.w3.org/2000/svg"><path d="M32 36.76L59.24 64 64 59.24 36.76 32 64 4.76 59.24 0 32 27.24 4.76 0 0 4.76 27.24 32 0 59.24 4.76 64 32 36.76z"/></symbol><symbol viewBox="0 0 64 64" id="close-small" xmlns="http://www.w3.org/2000/svg"><path d="M32 39.4L56.59 64 64 56.59 39.4 32 64 7.4 56.59 0 32 24.59 7.41 0 0 7.41 24.59 32 0 56.59 7.41 64 32 39.4z"/></symbol><symbol viewBox="0 0 64 64" id="facebook" xmlns="http://www.w3.org/2000/svg"><path d="M48.49 10.6h-6c-4.73 0-5.62 2.27-5.62 5.54v7.26H48.1l-1.5 11.39h-9.77V64H25.06V34.79h-9.81V23.4h9.81V15c0-9.73 6-15 14.65-15a75.12 75.12 0 0 1 8.77.46z"/></symbol><symbol id="icon-arrow" viewBox="-137.5 301.7 257.6 451.8" xmlns="http://www.w3.org/2000/svg"><style>.aust0{fill:#fff}</style><path class="aust0" d="M110.8 550L-83.4 744.2c-12.4 12.4-32.4 12.4-44.8 0s-12.4-32.4 0-44.7L43.7 527.6l-171.9-171.9c-12.4-12.4-12.4-32.4 0-44.7 12.4-12.4 32.4-12.4 44.8 0l194.2 194.2c6.2 6.2 9.3 14.3 9.3 22.4 0 8.1-3.1 16.2-9.3 22.4z"/></symbol><symbol viewBox="0 0 98.2 92" id="icon-arrow-down" xmlns="http://www.w3.org/2000/svg"><path d="M82.1 18.5h-66l33 55z"/></symbol><symbol viewBox="0 0 409.6 409.6" id="icon-facebook" xmlns="http://www.w3.org/2000/svg"><path d="M204.8 0C91.7 0 0 91.7 0 204.8c0 113.1 91.7 204.8 204.8 204.8s204.8-91.7 204.8-204.8C409.6 91.7 317.9 0 204.8 0zm0 377.6C109.4 377.6 32 300.2 32 204.8S109.4 32 204.8 32s172.8 77.4 172.8 172.8-77.4 172.8-172.8 172.8zm0 0"/><path fill-rule="evenodd" clip-rule="evenodd" d="M253.4 173.4h-35.6v-26c0-8 8.2-9.8 12.1-9.8h23v-35.1l-26.4-.1c-36 0-44.2 26.2-44.2 42.9v28.1h-26.1v36.2h26.1v97.6h35.5v-97.6h30.1l5.5-36.2zm0 0"/></symbol><symbol viewBox="0 0 314.7 314.7" id="icon-instagram" xmlns="http://www.w3.org/2000/svg"><path d="M157.3 0C70.4 0 0 70.4 0 157.3s70.4 157.3 157.3 157.3 157.3-70.4 157.3-157.3S244.2 0 157.3 0zm0 290.1c-73.3 0-132.7-59.5-132.7-132.7S84 24.6 157.3 24.6 290.1 84 290.1 157.3s-59.5 132.8-132.8 132.8z"/><path d="M215.2 81.5H99.9c-9.9 0-18.4 9.3-18.4 19.2v115.4c0 9.9 8.5 17 18.4 17h115.3c9.9 0 17.9-7.1 17.9-17V100.8c0-9.9-7.9-19.3-17.9-19.3zm-3.5 21.7c2.9 0 5.2 2.3 5.2 5.2v16.7c0 2.9-2.3 5.2-5.2 5.2H195c-2.9 0-5.2-2.3-5.2-5.2v-16.7c0-2.9 2.3-5.2 5.2-5.2h16.7zm-53.9 26.4c16.1 0 29.1 13 29.1 29s-13 29-29.1 29-29.1-13-29.1-29 13-29 29.1-29zm59.1 82.7c0 2.3-2.5 4.6-4.8 4.6H103.5c-2.3 0-5.7-2.3-5.7-4.6v-65.8h15.6c-1.1 5.4-1.6 7.9-1.6 12.1 0 25.3 20.6 45.9 46 45.9s46-20.6 46-45.9c0-4.2-.6-6.7-1.6-12.1h14.7v65.8z"/></symbol><symbol viewBox="0 0 409.6 409.6" id="icon-linkedin" xmlns="http://www.w3.org/2000/svg"><path d="M204.8 0C91.7 0 0 91.7 0 204.8c0 113.1 91.7 204.8 204.8 204.8s204.8-91.7 204.8-204.8C409.6 91.7 317.9 0 204.8 0zm0 377.6C109.4 377.6 32 300.2 32 204.8S109.4 32 204.8 32s172.8 77.4 172.8 172.8-77.4 172.8-172.8 172.8zm0 0"/><path d="M312.1 227.9v79.3h-46v-74c0-18.6-6.6-31.3-23.3-31.3-12.7 0-20.3 8.5-23.6 16.8-1.2 3-1.5 7.1-1.5 11.2v77.3h-46s.6-125.4 0-138.4h46v19.6c-.1.2-.2.3-.3.5h.3v-.5c6.1-9.4 17-22.9 41.5-22.9 30.2.1 52.9 19.9 52.9 62.4zM123.5 102.1c-15.7 0-26 10.3-26 23.9 0 13.3 10 23.9 25.4 23.9h.3c16 0 26-10.6 26-23.9-.2-13.5-9.9-23.9-25.7-23.9zm-23.3 205.1h46V168.8h-46v138.4zm0 0"/></symbol><symbol viewBox="0 0 47.9 75.9" id="icon-lock" xmlns="http://www.w3.org/2000/svg"><path d="M4.6 44.7V19.9C4.6 4.2 15.7 0 21.6 0h4.7c13.4 0 17 13 17 19.9V26h-5.9v-6.1c0-.6-.2-14.1-11.1-14.1h-4.7c-1.1 0-11.1.5-11.1 14.1v24.8"/><path d="M39.7 39.6c8.2 0 8.2 8.2 8.2 8.2v19.9c0 8.2-8.2 8.2-8.2 8.2H8.2C0 75.9 0 67.7 0 67.7V47.8c0-8.2 8.2-8.2 8.2-8.2h31.5zM28.3 52.4c0-2.4-2-4.4-4.4-4.4-2.4 0-4.4 2-4.4 4.4 0 1.8 1.1 3.3 2.6 4l-1.4 11.2h6.5l-1.4-11.2c1.5-.7 2.5-2.2 2.5-4z"/></symbol><symbol id="icon-logo" viewBox="0 0 134.22 119.65" xmlns="http://www.w3.org/2000/svg"><defs><style>.bacls-1{fill:#fff}</style></defs><path class="bacls-1" d="M141 53a33.65 33.65 0 0 0-66.85 0 33.66 33.66 0 0 0-47.93-26.5h-.05a1.69 1.69 0 0 1-.6.12A1.56 1.56 0 0 1 24 25.08v-4.69A14.07 14.07 0 0 0 10 6.32H8.68a1.54 1.54 0 0 0-.61.12 1.56 1.56 0 0 0-1 1.44v50.54a33.65 33.65 0 0 0 67 2.32 34.46 34.46 0 0 0 .9 4.78 33.66 33.66 0 0 0 55.05 16.34 1.57 1.57 0 0 0 .54-1.18 1.54 1.54 0 0 0-.43-1.08h-.05l-9.75-9.75a1.57 1.57 0 0 0-2.08-.09 16.69 16.69 0 0 1-23.12-1.57 1.5 1.5 0 0 1-.38-1 1.56 1.56 0 0 1 1.56-1.56h42.5a1.55 1.55 0 0 0 1.49-1.13 1.16 1.16 0 0 0 0-.18 33.51 33.51 0 0 0 .81-7.35A32.12 32.12 0 0 0 141 53zM40.73 73.58a16.72 16.72 0 1 1 16.72-16.72 16.72 16.72 0 0 1-16.72 16.72zm81-20.54H93.42a1.56 1.56 0 0 1-1.56-1.56 1.7 1.7 0 0 1 .06-.46.91.91 0 0 0 .06-.16 16.89 16.89 0 0 1 3.76-5.79 16.71 16.71 0 0 1 27.51 6 1.57 1.57 0 0 1-1.5 2zM12.76 119.92a9.44 9.44 0 0 1-2.66-.41l-2.92.49v-17.71l3.05-.41v6.9a4.76 4.76 0 0 1 3.33-1.53c3.16 0 5.22 2.56 5.22 6.23s-2.63 6.44-6.02 6.44zm-.08-10.11a3.55 3.55 0 0 0-2.45 1v6a3.63 3.63 0 0 0 2.25.67c2 0 3.2-1.65 3.2-3.88s-1.11-3.79-3-3.79zm10.24 4.45a3.33 3.33 0 0 0 3.57 3.26 7.38 7.38 0 0 0 3.72-1.09l.39 2.57a9.37 9.37 0 0 1-4.32 1c-3.83 0-6.36-2.43-6.36-6.23s2.59-6.47 6.15-6.47c3.16 0 4.91 1.92 4.91 4.84a8.21 8.21 0 0 1-.25 2l-7.81.1zm5.2-1.89v-.2c0-1.61-.7-2.61-2.28-2.61A2.93 2.93 0 0 0 23 112.4zm8.96 7.63c-2.66 0-4-1.17-3.95-4l.18-5.61-1.86-.2.08-1.94 1.86-.59v-2.64h3v2.79h3.31l-.08 2.51h-3.47l-.15 5.5a1.4 1.4 0 0 0 1.58 1.63 5.84 5.84 0 0 0 1.86-.36l.41 2.48a8.05 8.05 0 0 1-2.77.43zm8.61 0c-2.66 0-4.06-1.17-3.95-4l.18-5.61-1.86-.2.07-1.94 1.87-.59v-2.64h3l-.05 2.79h3.35l-.07 2.51h-3.47l-.15 5.5a1.4 1.4 0 0 0 1.57 1.63A5.84 5.84 0 0 0 48 117l.42 2.48a8.1 8.1 0 0 1-2.73.52zm6.57-5.74a3.32 3.32 0 0 0 3.56 3.26 7.39 7.39 0 0 0 3.73-1.09l.38 2.53a9.29 9.29 0 0 1-4.31 1c-3.83 0-6.36-2.43-6.36-6.23s2.58-6.47 6.15-6.47c3.15 0 4.91 1.92 4.91 4.84a7.73 7.73 0 0 1-.26 2l-7.8.1zm5.19-1.89v-.2c0-1.61-.69-2.61-2.27-2.61a2.93 2.93 0 0 0-2.84 2.84zm7.81 7.19h-3.05v-11.84l3.05-.44v1.94a3.44 3.44 0 0 1 3.1-2 4.1 4.1 0 0 1 2.12.55l-.67 2.74a3.56 3.56 0 0 0-1.71-.47c-1.06 0-2 .67-2.84 2.12zM78 113.82c0 2.66 1.66 4.58 4.14 4.58a6.38 6.38 0 0 0 3.44-1l.31 1.48a7.3 7.3 0 0 1-3.8 1c-3.42 0-5.72-2.55-5.72-6.15s2.38-6.36 5.59-6.36a4.07 4.07 0 0 1 4.31 4.37 7.51 7.51 0 0 1-.25 1.89h-8zm6.67-1.42a3 3 0 0 0 0-.52 2.72 2.72 0 0 0-2.85-3 3.81 3.81 0 0 0-3.74 3.59zm11.7 7.16v-7.65c0-2.07-.82-3-2.61-3a5.33 5.33 0 0 0-3.59 1.68v9h-1.6v-11.87l1.6-.34v1.94a6.13 6.13 0 0 1 4-1.94c2.38 0 3.78 1.48 3.78 4.06v8.12zm5.25-5.74c0 2.66 1.65 4.58 4.13 4.58a6.33 6.33 0 0 0 3.44-1l.31 1.48a7.27 7.27 0 0 1-3.8 1c-3.41 0-5.71-2.55-5.71-6.15s2.38-6.36 5.58-6.36a4.08 4.08 0 0 1 4.32 4.37 7.07 7.07 0 0 1-.26 1.89h-8zm6.67-1.42a4.52 4.52 0 0 0 0-.52c0-1.81-1-3-2.84-3a3.83 3.83 0 0 0-3.75 3.59zm5.45 7.16h-1.6v-11.84l1.6-.34v2.54a4 4 0 0 1 3.49-2.54 4.29 4.29 0 0 1 2.07.55l-.41 1.5a3.55 3.55 0 0 0-1.81-.52c-1.24 0-2.41.93-3.34 3zm5.75-1.86a2.67 2.67 0 0 1 1.94-2.25 4.14 4.14 0 0 1-1.92-3.62 4.39 4.39 0 0 1 4.66-4.45 5.6 5.6 0 0 1 2.79.7l3.28-.26.08 1.61-2.61-.26a4.1 4.1 0 0 1 1 2.66 4.35 4.35 0 0 1-4.6 4.34 5.28 5.28 0 0 1-1.76-.33c-.62.26-1.31.75-1.31 1.42s.57 1.21 2.68 1.21h1.53c3.44 0 4.91 1.17 4.91 3.1 0 2.62-2.92 4.4-6.23 4.4s-5.35-1.4-5.35-3.46a3.17 3.17 0 0 1 2.56-2.93 2.06 2.06 0 0 1-1.65-1.88zm.59 4.52c0 1.4 1.53 2.43 4 2.43s4.45-1.19 4.45-2.79c0-1.4-1.24-1.89-3.59-1.89-.8 0-1.81 0-2.48-.08-1.4.39-2.38 1.32-2.38 2.33zm4.06-7.34a3.09 3.09 0 0 0-.08-6.18 3.09 3.09 0 0 0 .08 6.18z" transform="translate(-7.08 -6.32)"/><path class="bacls-1" d="M136.7 119.43l-.95 2.56c-1.09 2.89-2.23 3.72-3.83 3.72a5.52 5.52 0 0 1-2.3-.54l.49-1.48a3.79 3.79 0 0 0 1.81.52c.91 0 1.58-.49 2.43-2.74l.8-2.09-4.62-11.66h1.73l3.72 9.77 3.64-9.77h1.69z" transform="translate(-7.08 -6.32)"/></symbol><symbol viewBox="0 0 39.5 61.5" id="icon-pin" xmlns="http://www.w3.org/2000/svg"><path d="M39.5 19.7c0 1.8-.3 3.5-.7 5.2l-19 36.6L.7 24.8c-.4-1.6-.7-3.3-.7-5C0 8.8 8.8 0 19.7 0c10.9 0 19.8 8.8 19.8 19.7M19.7 8.8C13.8 8.8 9 13.6 9 19.5c0 5.9 4.8 10.7 10.7 10.7 5.9 0 10.7-4.8 10.7-10.7.1-5.9-4.7-10.7-10.7-10.7"/></symbol><symbol viewBox="0 0 64 64" id="icon-search" xmlns="http://www.w3.org/2000/svg"><path d="M62.05 62l1.89-1.89-15.56-15.57a27.07 27.07 0 1 0-4 3.75L60.09 64 62 62.09h.06a.21.21 0 0 0-.01-.09zM6.44 27A21.55 21.55 0 1 1 28 48.52 21.58 21.58 0 0 1 6.44 27z"/></symbol><symbol viewBox="-100 192.4 409.6 409.6" id="icon-twitter" xmlns="http://www.w3.org/2000/svg"><path d="M104.8 192.4C-8.3 192.4-100 284.1-100 397.2S-8.3 602 104.8 602s204.8-91.7 204.8-204.8-91.7-204.8-204.8-204.8zm0 377.6C9.4 570-68 492.6-68 397.2S9.4 224.4 104.8 224.4s172.8 77.4 172.8 172.8S200.2 570 104.8 570z"/><path d="M213 331.2c-7.8 3.5-16.3 5.9-25.2 6.9 9.1-5.4 16-14 19.3-24.3-8.5 5-17.9 8.7-28 10.6-8-8.5-19.4-13.8-32-13.8-24.2 0-43.9 19.7-43.9 43.9 0 3.5.4 6.8 1.1 10-36.5-1.8-68.8-19.3-90.5-45.9-3.8 6.5-6 14-6 22.1 0 15.2 7.8 28.7 19.5 36.5-7.2-.2-13.9-2.2-19.8-5.5v.5c0 21.3 15.1 39 35.2 43.1-3.7 1-7.6 1.5-11.6 1.5-2.8 0-5.6-.3-8.3-.8 5.6 17.4 21.8 30.1 41 30.5-15 11.8-34 18.7-54.5 18.7-3.5 0-7-.2-10.4-.6 19.5 12.5 42.5 19.7 67.3 19.7 80.7 0 124.9-66.9 124.9-124.8l-.1-5.7c8.7-6 16.1-13.7 22-22.6zm0 0"/></symbol><symbol viewBox="0 0 64 64" id="icon_am" xmlns="http://www.w3.org/2000/svg"><path d="M63.57 49.2V12.87a4.51 4.51 0 0 0-4.51-4.51H4.86a4.5 4.5 0 0 0-4.51 4.51V49.2a4.5 4.5 0 0 0 4.51 4.51h54.2a4.51 4.51 0 0 0 4.51-4.51zM4.86 50.7a1.5 1.5 0 0 1-1.5-1.5V12.87a1.5 1.5 0 0 1 1.5-1.5h54.2a1.41 1.41 0 0 1 .54.11 1.49 1.49 0 0 1 .95 1.39V49.2a1.5 1.5 0 0 1-1.49 1.5zm32.35 6.99h-10.5a1.52 1.52 0 0 1 0-3h10.5a1.52 1.52 0 0 1 0 3z"/><path d="M18.35 42.19a.51.51 0 0 0 .36-.15l7.07-6.93a2.21 2.21 0 0 0 1.08.29 2.12 2.12 0 0 0 1.83-1l3 .89v.07a2.12 2.12 0 0 0 4.23 0 2.06 2.06 0 0 0-.46-1.36l8.77-12.16.84 4.33a.5.5 0 0 0 .5.4h.09a.51.51 0 0 0 .41-.59l-1.15-6-6 1.13a.5.5 0 0 0-.41.58.52.52 0 0 0 .6.4l4.24-.79-8.72 12.12a2.08 2.08 0 0 0-.8-.16 2.13 2.13 0 0 0-1.83 1l-3-.89v-.08a2.12 2.12 0 0 0-4.23 0 2 2 0 0 0 .31 1.07L18 41.33a.5.5 0 0 0 0 .67.51.51 0 0 0 .35.19zm15.48-7.93h.18a1.06 1.06 0 0 1 .92 1 1.08 1.08 0 0 1-1.1 1.07 1.1 1.1 0 0 1-1.07-.83 1.94 1.94 0 0 1 0-.24 1 1 0 0 1 .3-.73 1.09 1.09 0 0 1 .77-.27zm-8.06-.93a1.08 1.08 0 0 1 1.09-1.07 1.1 1.1 0 0 1 1.08.84 1.79 1.79 0 0 1 0 .23 1.1 1.1 0 0 1-.3.74 1.14 1.14 0 0 1-.8.33 1.13 1.13 0 0 1-1-.75 1.13 1.13 0 0 1-.07-.32z"/><path d="M18.35 43a1.31 1.31 0 0 1-.94-.38 1.32 1.32 0 0 1-.4-1 1.3 1.3 0 0 1 .4-.94l6.65-6.52a3 3 0 0 1-.14-.89 2.95 2.95 0 0 1 5.83-.55l1.95.57a2.94 2.94 0 0 1 2.13-.92 3.73 3.73 0 0 1 .47 0l7.17-9.93-2.21.56a1.34 1.34 0 0 1-1.56-1.1 1.32 1.32 0 0 1 .21-1 1.34 1.34 0 0 1 .86-.56l6.8-1.27 1.31 6.76a1.32 1.32 0 0 1-.21 1 1.35 1.35 0 0 1-.85.56h-.25a1.33 1.33 0 0 1-1.31-1.08l-.48-2.45L36.46 34A2.93 2.93 0 1 1 31 35.89l-2-.57a3 3 0 0 1-2.14.91 3.07 3.07 0 0 1-.9-.14l-6.68 6.54a1.3 1.3 0 0 1-.93.37zm15.48-7.92a.29.29 0 0 0-.2.08.26.26 0 0 0-.07.16.07.07 0 0 0 0 .05.26.26 0 0 0 .26.2.26.26 0 0 0 .27-.25.15.15 0 0 0 0-.09.26.26 0 0 0-.2-.15zm-7-2a.27.27 0 0 0-.27.25v.07a.29.29 0 0 0 .18.16h.08a.3.3 0 0 0 .21-.08.24.24 0 0 0 .06-.16.28.28 0 0 0-.23-.24z"/></symbol><symbol viewBox="0 0 64 64" id="icon_arrow-left-1" xmlns="http://www.w3.org/2000/svg"><path d="M48.37 62.25L18.62 32.5 48.37 2.75l1.89 1.89L22.39 32.5l27.87 27.86-1.89 1.89z"/></symbol><symbol viewBox="0 0 64 64" id="icon_arrow-left-2" xmlns="http://www.w3.org/2000/svg"><path d="M36.37 62.25L6.62 32.5 36.37 2.75l1.89 1.89L10.39 32.5l27.87 27.86-1.89 1.89z"/><path d="M60.62 62.25L30.87 32.5 60.62 2.75l1.89 1.89L34.65 32.5l27.86 27.86-1.89 1.89z"/></symbol><symbol viewBox="0 0 64 64" id="icon_arrow-right-1" xmlns="http://www.w3.org/2000/svg"><path d="M20.01 62.25L49.76 32.5 20.01 2.75l-1.89 1.89L45.98 32.5 18.12 60.36l1.89 1.89z"/></symbol><symbol viewBox="0 0 64 64" id="icon_arrow-right-2" xmlns="http://www.w3.org/2000/svg"><path d="M31.76 62.25L61.51 32.5 31.76 2.75l-1.89 1.89L57.73 32.5 29.87 60.36l1.89 1.89z"/><path d="M7.51 62.25L37.26 32.5 7.51 2.75 5.62 4.64 33.48 32.5 5.62 60.36l1.89 1.89z"/></symbol><symbol viewBox="0 0 64 64" id="icon_casestudy" xmlns="http://www.w3.org/2000/svg"><path d="M39.26 57.51a4.24 4.24 0 0 0 2.92-7.31L55.21 20a6.58 6.58 0 0 0 2.19.38 6.43 6.43 0 0 0 6.43-6.31v-.25a6.43 6.43 0 0 0-12.44-2.18H12.61a6.43 6.43 0 1 0-6.51 8.71L3.62 45a4.24 4.24 0 1 0 5.22 5L35 53.15v.12a4.24 4.24 0 0 0 4.26 4.24zm-3.45-6.71l-16.57-9.72V41a2.19 2.19 0 0 0-.17-.85l6.38-4.28 10.94 14.28a5.09 5.09 0 0 0-.58.65zM54.5 19.67l-13 30a4.22 4.22 0 0 0-4.53 0L26.1 35.38l26.18-17.55a6.49 6.49 0 0 0 2.22 1.84zM13 13.93a6.39 6.39 0 0 0-.18-1.52h38.32a7 7 0 0 0-.14 1.52 6.29 6.29 0 0 0 .89 3.25L25.63 34.76 12.18 17.14a6.37 6.37 0 0 0 .82-3.21zm-1.32 3.9L25 35.2l-6.35 4.25a2.13 2.13 0 0 0-1.53-.65 2.58 2.58 0 0 0-.4 0L9.29 19.78a6.53 6.53 0 0 0 2.43-1.95zm-7 27h-.26l2.47-24.47a6.16 6.16 0 0 0 1.67-.3L16 39.13A2.14 2.14 0 0 0 15 41a2.07 2.07 0 0 0 .06.5l-7.07 4.9a4.24 4.24 0 0 0-3.3-1.57zm4.24 4.36v-.12A4.16 4.16 0 0 0 8.38 47l7-4.82a2.13 2.13 0 0 0 1.76.92A2.15 2.15 0 0 0 19 41.86l16.38 9.61a4.17 4.17 0 0 0-.31.9z"/></symbol><symbol viewBox="0 0 64 64" id="icon_facebook" xmlns="http://www.w3.org/2000/svg"><path d="M48.52 10.62h-6c-4.73 0-5.62 2.27-5.62 5.54v7.27h11.23l-1.5 11.39h-9.77V64H25.09V34.82h-9.8V23.43h9.8v-8.38c0-9.73 6-15 14.66-15a76.53 76.53 0 0 1 8.77.46z"/></symbol><symbol viewBox="0 0 64 64" id="icon_gb" xmlns="http://www.w3.org/2000/svg"><path d="M9.44 52.9V4.53a1.34 1.34 0 0 1 1.34-1.34H43.2a1.34 1.34 0 0 1 1.33 1.34v.74h2.69v-.74a4 4 0 0 0-4-4H10.78a4 4 0 0 0-4 4V52.9a4 4 0 0 0 4 4h.74v-2.67h-.74a1.34 1.34 0 0 1-1.34-1.33z"/><path d="M49.71 7H17.29a4 4 0 0 0-4 4v48.41a4 4 0 0 0 4 4h32.42a4 4 0 0 0 4-4V11a4 4 0 0 0-4-4zm1.34 52.4a1.34 1.34 0 0 1-1.34 1.33H17.29A1.34 1.34 0 0 1 16 59.41V11a1.3 1.3 0 0 1 .1-.49 1.33 1.33 0 0 1 1.24-.85h32.37A1.35 1.35 0 0 1 51.05 11z"/><path d="M20.01 46.92v2.68h26.98v-2.68H20.01zm0 4.51v2.69h26.98v-2.69H20.01zm13.52-11.91c5.56-18.31-12.11-21.21-12.11-21.21-5.42 16.38 5.47 21.22 9.85 22.47-1.58-4.13-4.94-13-4.94-13zm13.22-11.18c-10.65.75-10.84 8.12-10.53 10.92l6.27-5.89-5 6.89c11.76-1.13 9.26-11.92 9.26-11.92z"/></symbol><symbol viewBox="0 0 64 64" id="icon_ipc" xmlns="http://www.w3.org/2000/svg"><path d="M30.88 17.07a4.28 4.28 0 0 1 2.64.61 1.16 1.16 0 0 1-.11.27l-12.2 22.74c-1 1.82-4.78 3.84-8.41 3.84H7.49a4.45 4.45 0 0 1-2.64-.6 2.31 2.31 0 0 1 .15-.27l12.16-22.74c1-1.82 4.78-3.85 8.42-3.85h5.3m0-3.13h-5.3c-4.53 0-9.56 2.47-11.18 5.49L2.21 42.18c-1.62 3 .76 5.49 5.28 5.49h5.31c4.52 0 9.55-2.48 11.17-5.49l12.2-22.75c1.62-3-.76-5.49-5.29-5.49zm25.66 2.23a4.28 4.28 0 0 1 2.64.61 1.61 1.61 0 0 1-.12.27L46.87 39.79c-1 1.81-4.78 3.84-8.42 3.84h-5.3a4.31 4.31 0 0 1-2.64-.63 1.32 1.32 0 0 1 .12-.27L42.82 20c1-1.81 4.78-3.84 8.42-3.84h5.3m0-3.14h-5.3c-4.53 0-9.56 2.48-11.18 5.5l-12.2 22.75c-1.62 3 .76 5.49 5.29 5.49h5.3c4.53 0 9.56-2.47 11.18-5.49l12.19-22.74c1.62-3-.75-5.5-5.28-5.5z"/></symbol><symbol viewBox="0 0 64 64" id="icon_ipp" xmlns="http://www.w3.org/2000/svg"><path d="M24.65 15.86L21 25.47a2.2 2.2 0 0 1-1.69 1.16h-9.18L13.81 17a2.21 2.21 0 0 1 1.69-1.17h9.15m.69-2.53H15.5a4.68 4.68 0 0 0-4.05 2.79L7.52 26.37a1.92 1.92 0 0 0 1.92 2.79h9.83a4.69 4.69 0 0 0 4.06-2.79l3.93-10.25a1.92 1.92 0 0 0-1.92-2.79zm-7.76 21.01l-3.68 9.6a2.24 2.24 0 0 1-1.7 1.17H3.06l3.68-9.6a2.22 2.22 0 0 1 1.69-1.16h9.15m.69-2.53H8.43a4.71 4.71 0 0 0-4.06 2.79L.45 44.81a1.92 1.92 0 0 0 1.92 2.8h9.83a4.7 4.7 0 0 0 4.06-2.8l3.93-10.24a1.92 1.92 0 0 0-1.92-2.79zm24.39-15.93L39 25.47a2.24 2.24 0 0 1-1.7 1.16h-9.16L31.82 17a2.21 2.21 0 0 1 1.7-1.17h9.14m.69-2.53h-9.83a4.68 4.68 0 0 0-4.06 2.79l-3.93 10.28a1.92 1.92 0 0 0 1.92 2.79h9.83a4.68 4.68 0 0 0 4.06-2.79l3.93-10.25a1.92 1.92 0 0 0-1.92-2.79zm-7.76 21.01l-3.68 9.6a2.22 2.22 0 0 1-1.7 1.17h-9.14l3.68-9.59a2.21 2.21 0 0 1 1.7-1.17h9.14m.69-2.53h-9.83a4.68 4.68 0 0 0-4.06 2.79l-3.93 10.23a1.92 1.92 0 0 0 1.92 2.8h9.83a4.69 4.69 0 0 0 4.06-2.8l3.93-10.24a1.92 1.92 0 0 0-1.92-2.79zm24.47-15.93l-3.67 9.6a2.24 2.24 0 0 1-1.7 1.17h-9.14L49.92 17a2.23 2.23 0 0 1 1.7-1.17h9.13m.7-2.53h-9.83a4.71 4.71 0 0 0-4.07 2.79l-3.92 10.28a1.92 1.92 0 0 0 1.92 2.79h9.83a4.69 4.69 0 0 0 4.06-2.79l3.93-10.25a1.92 1.92 0 0 0-1.92-2.79zm-7.77 21.01L50 43.91a2.21 2.21 0 0 1-1.69 1.17h-9.14l3.68-9.59a2.21 2.21 0 0 1 1.69-1.17h9.14m.7-2.53h-9.84a4.71 4.71 0 0 0-4.06 2.79l-3.93 10.23a1.93 1.93 0 0 0 1.92 2.8h9.84a4.7 4.7 0 0 0 4.06-2.8l3.93-10.24a1.92 1.92 0 0 0-1.92-2.79z"/></symbol><symbol viewBox="0 0 64 64" id="icon_linkedin" xmlns="http://www.w3.org/2000/svg"><path d="M7.69 15.58H7.6C3 15.58 0 12.42 0 8.46s3.1-7.13 7.77-7.13 7.62 3.09 7.66 7.13-2.95 7.12-7.74 7.12zm6.87 46.92H.81V21.21h13.75zm49.44 0H50.31V40.42c0-5.54-2-9.34-7-9.34a7.51 7.51 0 0 0-7 5 10.47 10.47 0 0 0-.46 3.38v23H22.14c.17-37.42 0-41.29 0-41.29h13.71v6h-.08a13.59 13.59 0 0 1 12.46-7c9 0 15.79 5.92 15.79 18.58z"/></symbol><symbol id="icon_logo" viewBox="0 0 146.73 130.81" xmlns="http://www.w3.org/2000/svg"><defs><style>.bpcls-1{fill:#fff}</style></defs><path class="bpcls-1" d="M147.91 52.41a36.79 36.79 0 0 0-73.09 0 36.81 36.81 0 0 0-52.4-29h-.05a1.76 1.76 0 0 1-.66.13 1.71 1.71 0 0 1-1.71-1.7v-5.12A15.39 15.39 0 0 0 4.63 1.33H3.24a1.67 1.67 0 0 0-.67.14A1.69 1.69 0 0 0 1.54 3v55.29a36.78 36.78 0 0 0 73.28 2.54 37.3 37.3 0 0 0 1 5.22A36.78 36.78 0 0 0 136 83.91a1.72 1.72 0 0 0 .12-2.48l-10.7-10.73a1.68 1.68 0 0 0-1.19-.49 1.72 1.72 0 0 0-1.08.39 18.26 18.26 0 0 1-25.27-1.71 1.7 1.7 0 0 1 1.28-2.82h46.46a1.71 1.71 0 0 0 1.64-1.23v-.19a36.75 36.75 0 0 0 .89-8 38.46 38.46 0 0 0-.24-4.24zM38.28 74.86a18.27 18.27 0 1 1 18.27-18.27 18.27 18.27 0 0 1-18.27 18.27zm88.57-22.45h-31a1.7 1.7 0 0 1-1.7-1.71 1.68 1.68 0 0 1 .07-.5l.07-.17a18.27 18.27 0 0 1 34.17.19 1.56 1.56 0 0 1 .08.48 1.71 1.71 0 0 1-1.69 1.71zM7.7 125.53a10.15 10.15 0 0 1-2.91-.46l-3.19.49v-19.3l3.33-.46v7.55a5.21 5.21 0 0 1 3.65-1.67c3.44 0 5.71 2.8 5.71 6.81s-2.89 7.04-6.59 7.04zm-.08-11a3.91 3.91 0 0 0-2.69 1.07v6.59a4 4 0 0 0 2.46.73c2.23 0 3.5-1.81 3.5-4.24s-1.21-4.2-3.27-4.2zm11.19 4.81a3.63 3.63 0 0 0 3.9 3.56 8 8 0 0 0 4.07-1.19l.42 2.77a10.18 10.18 0 0 1-4.72 1.08c-4.18 0-7-2.66-7-6.82s2.82-7.06 6.72-7.06c3.45 0 5.37 2.09 5.37 5.28a8.6 8.6 0 0 1-.28 2.18l-8.53.11zm5.68-2.06v-.23c0-1.75-.77-2.85-2.49-2.85a3.21 3.21 0 0 0-3.11 3.1zm9.8 8.28c-2.91 0-4.43-1.28-4.32-4.41l.2-6.14-2-.22.09-2.12 2-.65.06-2.88h3.22l-.06 3h3.68l-.09 2.74h-3.8l-.16 6a1.53 1.53 0 0 0 1.72 1.78 6.31 6.31 0 0 0 2-.4l.46 2.72a8.84 8.84 0 0 1-3 .58zm9.41 0c-2.91 0-4.43-1.28-4.32-4.41l.2-6.14-2-.22.09-2.12 2-.65.06-2.88h3.22l-.06 3h3.68l-.09 2.74h-3.8l-.17 6a1.54 1.54 0 0 0 1.73 1.78 6.36 6.36 0 0 0 2-.4l.46 2.72a8.84 8.84 0 0 1-3 .58zm7.18-6.22a3.63 3.63 0 0 0 3.9 3.56 8 8 0 0 0 4.07-1.19l.42 2.77a10.18 10.18 0 0 1-4.72 1.08c-4.18 0-6.95-2.66-6.95-6.82s2.83-7.06 6.73-7.06c3.44 0 5.37 2.09 5.37 5.28a8.58 8.58 0 0 1-.29 2.18l-8.53.11zm5.68-2.06v-.23c0-1.75-.76-2.85-2.49-2.85a3.21 3.21 0 0 0-3.07 3.1zm8.53 7.85h-3.33v-12.94l3.33-.48v2.12a3.76 3.76 0 0 1 3.39-2.15 4.56 4.56 0 0 1 2.32.59l-.73 3a3.9 3.9 0 0 0-1.87-.51c-1.16 0-2.23.74-3.11 2.32zM79 118.86c.06 2.91 1.81 5 4.52 5a7 7 0 0 0 3.76-1.07l.34 1.61a8 8 0 0 1-4.15 1.1c-3.73 0-6.25-2.8-6.25-6.73s2.6-7 6.11-7a4.46 4.46 0 0 1 4.72 4.78 7.82 7.82 0 0 1-.29 2.06l-8.76.06zm7.29-1.56a3.51 3.51 0 0 0 0-.56c0-2-1.07-3.34-3.11-3.34a4.18 4.18 0 0 0-4.09 3.93zm12.82 7.83v-8.36c0-2.26-.91-3.28-2.86-3.28a5.78 5.78 0 0 0-3.92 1.84v9.8h-1.76v-12.94l1.76-.37v2.12a6.67 6.67 0 0 1 4.4-2.12c2.6 0 4.13 1.61 4.13 4.44v8.87zm5.73-6.27c.06 2.91 1.81 5 4.52 5a7 7 0 0 0 3.76-1.07l.34 1.61a8 8 0 0 1-4.16 1.1c-3.73 0-6.24-2.8-6.24-6.73s2.6-7 6.1-7a4.45 4.45 0 0 1 4.72 4.78 7.83 7.83 0 0 1-.28 2.06l-8.76.06zm7.29-1.56a3.51 3.51 0 0 0 0-.56c0-2-1.08-3.34-3.11-3.34a4.19 4.19 0 0 0-4.1 3.93zm5.97 7.83h-1.76v-12.94l1.76-.37v2.77c.84-1.67 2.11-2.77 3.81-2.77a4.67 4.67 0 0 1 2.26.6l-.45 1.63a3.94 3.94 0 0 0-2-.56c-1.36 0-2.63 1-3.64 3.33zm6.28-2.03a2.92 2.92 0 0 1 2.11-2.46 4.53 4.53 0 0 1-2.09-4 4.8 4.8 0 0 1 5.09-4.86 6.12 6.12 0 0 1 3 .76l3.59-.28.08 1.75-2.85-.28a4.52 4.52 0 0 1 1 2.91 4.76 4.76 0 0 1-5 4.75 5.42 5.42 0 0 1-1.92-.37c-.68.28-1.45.82-1.45 1.56s.63 1.32 2.94 1.32h1.67c3.76 0 5.37 1.28 5.37 3.4 0 2.85-3.19 4.8-6.81 4.8s-5.85-1.53-5.85-3.79a3.44 3.44 0 0 1 2.8-3.19 2.27 2.27 0 0 1-1.68-2.02zm.62 4.9c0 1.53 1.66 2.66 4.4 2.66s4.86-1.3 4.86-3c0-1.53-1.35-2.07-3.92-2.07-.88 0-2 0-2.72-.08-1.52.41-2.62 1.43-2.62 2.49zm4.43-8a3.13 3.13 0 0 0 3.22-3.39 3.1 3.1 0 0 0-3.3-3.37 3.38 3.38 0 0 0 .08 6.76z" transform="translate(-1.5 -1.33)"/><path class="bpcls-1" d="M143.2 125l-1 2.8c-1.19 3.16-2.43 4.07-4.18 4.07a6 6 0 0 1-2.52-.6l.54-1.61a4.09 4.09 0 0 0 2 .57c1 0 1.72-.54 2.65-3l.88-2.29-5.06-12.74h1.9l4.07 10.68 4-10.68h1.84z" transform="translate(-1.5 -1.33)"/></symbol><symbol viewBox="0 0 64 64" id="icon_mail-05" xmlns="http://www.w3.org/2000/svg"><path d="M53.36 17.27a1 1 0 0 0-.6.19l-21 14.6-21-14.6a1 1 0 0 0-.6-.19 1 1 0 0 0-.86.45 1.05 1.05 0 0 0 .26 1.46l15.89 11L10.9 43.84a1 1 0 0 0 .72 1.81 1 1 0 0 0 .71-.28l14.86-13.93 4 2.76a1 1 0 0 0 1.2 0l4.11-2.86 15 14a1.05 1.05 0 1 0 1.44-1.53L38.22 30.12 54 19.18a1.05 1.05 0 0 0 .26-1.46 1 1 0 0 0-.9-.45z"/><path d="M53 12H10.53a6 6 0 0 0-6 6v27a6 6 0 0 0 6 6H53a6 6 0 0 0 6-6V18.05A6 6 0 0 0 53 12zm3.9 33a3.93 3.93 0 0 1-3.9 3.88H10.53A3.93 3.93 0 0 1 6.6 45V18.05a3.93 3.93 0 0 1 3.93-3.93H53a3.93 3.93 0 0 1 3.93 3.93z"/></symbol><symbol viewBox="0 0 64 64" id="icon_om" xmlns="http://www.w3.org/2000/svg"><path d="M63.67 49.41v-36.3a4.51 4.51 0 0 0-4.51-4.51H5a4.51 4.51 0 0 0-4.5 4.51v36.3A4.51 4.51 0 0 0 5 53.92h54.16a4.51 4.51 0 0 0 4.51-4.51zM5 50.9a1.5 1.5 0 0 1-1.5-1.49v-36.3A1.5 1.5 0 0 1 5 11.62h54.16a1.68 1.68 0 0 1 .55.1 1.5 1.5 0 0 1 .94 1.39v36.3a1.49 1.49 0 0 1-1.49 1.49zm32.33 6.99H26.84a1.51 1.51 0 0 1 0-3h10.49a1.51 1.51 0 1 1 0 3z"/><path d="M24.13 33.65a3.51 3.51 0 1 0-3.51-3.51 3.52 3.52 0 0 0 3.51 3.51zm0-5.59a2.08 2.08 0 1 1-2.08 2.08 2.08 2.08 0 0 1 2.08-2.08zm-9.85.73v.17a7.28 7.28 0 0 0-.11 1.18 8 8 0 0 0 .1 1.13v.21a.78.78 0 0 0 .69.62 10 10 0 0 1 1.07.15 8.51 8.51 0 0 0 .88 2.09 11 11 0 0 1-.69.93.72.72 0 0 0 0 .89 10.68 10.68 0 0 0 1.9 1.9.74.74 0 0 0 .9 0l.07-.07c.37-.31.65-.52.84-.65a8.12 8.12 0 0 0 2.09.87 10 10 0 0 1 .15 1.15.73.73 0 0 0 .62.65L23 40a8.61 8.61 0 0 0 1.18.11 8.76 8.76 0 0 0 1.13-.11h.17a.72.72 0 0 0 .61-.65 9.29 9.29 0 0 1 .16-1.15 8.12 8.12 0 0 0 2.09-.87c.19.13.46.34.83.65l.08.07a.72.72 0 0 0 .89 0 10.16 10.16 0 0 0 1.91-1.91.72.72 0 0 0 0-.89 7.22 7.22 0 0 1-.69-.93 7.91 7.91 0 0 0 .87-2.08 10.22 10.22 0 0 1 1.12-.15.71.71 0 0 0 .65-.62v-.22a7.9 7.9 0 0 0 .1-1.12A8 8 0 0 0 34 29v-.22a.76.76 0 0 0-.68-.62 7.75 7.75 0 0 1-1.11-.16 8.2 8.2 0 0 0-.87-2.08A6.82 6.82 0 0 1 32 25a.71.71 0 0 0 0-.89 9.82 9.82 0 0 0-1.91-1.9.72.72 0 0 0-.89 0l-.08.07a7.61 7.61 0 0 1-.83.64 8.42 8.42 0 0 0-2.09-.87 9 9 0 0 1-.16-1.14.71.71 0 0 0-.61-.65h-.17a8.48 8.48 0 0 0-2.36 0h-.17a.72.72 0 0 0-.62.65 9.41 9.41 0 0 1-.11 1.17 8.12 8.12 0 0 0-2.09.87 7.61 7.61 0 0 1-.83-.64l-.08-.07a.72.72 0 0 0-.89 0 10.06 10.06 0 0 0-1.9 1.9.71.71 0 0 0 0 .89 9.5 9.5 0 0 1 .69.93A8.14 8.14 0 0 0 16 28a10.78 10.78 0 0 1-1.11.14.72.72 0 0 0-.61.65zm1.34.75a3.64 3.64 0 0 0 1.38-.38.71.71 0 0 0 .32-.45 6.74 6.74 0 0 1 1-2.32.71.71 0 0 0 .1-.55 3.54 3.54 0 0 0-.73-1.28 9.74 9.74 0 0 1 .85-.85 3.6 3.6 0 0 0 1.27.75.75.75 0 0 0 .55-.1 6.79 6.79 0 0 1 2.33-1 .75.75 0 0 0 .46-.32 3.83 3.83 0 0 0 .38-1.44 4.82 4.82 0 0 1 1.2 0 3.58 3.58 0 0 0 .38 1.44.73.73 0 0 0 .46.32 6.87 6.87 0 0 1 2.33 1 .74.74 0 0 0 .54.1 3.6 3.6 0 0 0 1.27-.75 8.44 8.44 0 0 1 .85.84 3.45 3.45 0 0 0-.72 1.29.69.69 0 0 0 .1.54 7.12 7.12 0 0 1 1 2.32.69.69 0 0 0 .32.46 3.6 3.6 0 0 0 1.41.38v1.2a3.61 3.61 0 0 0-1.41.37.73.73 0 0 0-.32.46 6.81 6.81 0 0 1-1 2.31.7.7 0 0 0-.1.56 3.52 3.52 0 0 0 .72 1.28 8.52 8.52 0 0 1-.85.85 3.6 3.6 0 0 0-1.27-.75.69.69 0 0 0-.54.1 7.08 7.08 0 0 1-2.33 1 .69.69 0 0 0-.46.32 3.9 3.9 0 0 0-.38 1.44 4.82 4.82 0 0 1-1.2 0 3.76 3.76 0 0 0-.38-1.44.72.72 0 0 0-.46-.32 7.08 7.08 0 0 1-2.33-1 .69.69 0 0 0-.54-.1 3.5 3.5 0 0 0-1.28.74 8.33 8.33 0 0 1-.84-.84 4 4 0 0 0 .72-1.28.71.71 0 0 0-.1-.55 6.74 6.74 0 0 1-1-2.32.75.75 0 0 0-.32-.46 3.79 3.79 0 0 0-1.41-.37v-.6a4 4 0 0 1 .03-.6zm24.18 6.88A2.55 2.55 0 1 0 42.35 39a2.55 2.55 0 0 0-2.55-2.58zm0 4A1.51 1.51 0 1 1 41.31 39a1.51 1.51 0 0 1-1.51 1.47zm3.66-7.18a5.75 5.75 0 0 1-.6.46 6.11 6.11 0 0 0-1.52-.63 7.36 7.36 0 0 1-.11-.83.53.53 0 0 0-.45-.47h-.12a6.12 6.12 0 0 0-1.71 0h-.13a.52.52 0 0 0-.44.47 5.09 5.09 0 0 1-.12.83 6.2 6.2 0 0 0-1.51.63 6.14 6.14 0 0 1-.6-.46h-.06a.51.51 0 0 0-.65 0 7.51 7.51 0 0 0-1.38 1.38.53.53 0 0 0 0 .65 4.48 4.48 0 0 1 .5.67 6.2 6.2 0 0 0-.63 1.51 5.77 5.77 0 0 1-.81.11.52.52 0 0 0-.47.45v.12a5.71 5.71 0 0 0-.08.86 5.3 5.3 0 0 0 .08.82v.15a.55.55 0 0 0 .5.45 7.15 7.15 0 0 1 .78.11 6 6 0 0 0 .64 1.48 5 5 0 0 1-.5.68.51.51 0 0 0 0 .64 7.22 7.22 0 0 0 1.38 1.38.51.51 0 0 0 .65 0 6.06 6.06 0 0 1 .61-.47 6.11 6.11 0 0 0 1.52.63 7.36 7.36 0 0 1 .11.83.51.51 0 0 0 .44.47h.13a5.7 5.7 0 0 0 .85.08 7.4 7.4 0 0 0 .86-.08h.12a.52.52 0 0 0 .45-.47 7.36 7.36 0 0 1 .11-.83 6.11 6.11 0 0 0 1.52-.63c.13.09.33.24.6.46l.06.06a.53.53 0 0 0 .65 0 7.51 7.51 0 0 0 1.38-1.38.53.53 0 0 0 0-.65A6.71 6.71 0 0 1 45 42a5.72 5.72 0 0 0 .64-1.51 7.5 7.5 0 0 1 .81-.11.53.53 0 0 0 .47-.45v-.16a4.78 4.78 0 0 0 0-1.63L47 38a.56.56 0 0 0-.5-.45 7.36 7.36 0 0 1-.78-.11 5.72 5.72 0 0 0-.72-1.52 5.38 5.38 0 0 1 .5-.67.53.53 0 0 0 0-.65 7.51 7.51 0 0 0-1.38-1.38.53.53 0 0 0-.65 0zm.4 1a7.15 7.15 0 0 1 .61.62 2.46 2.46 0 0 0-.53.93.5.5 0 0 0 .08.39 5.13 5.13 0 0 1 .7 1.68.54.54 0 0 0 .23.34 2.7 2.7 0 0 0 1 .27 2.39 2.39 0 0 1 0 .87 2.52 2.52 0 0 0-1 .27.53.53 0 0 0-.24.33 5 5 0 0 1-.7 1.68.48.48 0 0 0-.07.4 2.37 2.37 0 0 0 .52.93 6 6 0 0 1-.62.62 2.42 2.42 0 0 0-.92-.54.49.49 0 0 0-.39.07 5.18 5.18 0 0 1-1.69.7.49.49 0 0 0-.33.23 2.75 2.75 0 0 0-.28 1 4.22 4.22 0 0 1-.87 0 2.67 2.67 0 0 0-.28-1 .49.49 0 0 0-.33-.23 4.89 4.89 0 0 1-1.69-.7.51.51 0 0 0-.4-.07 2.58 2.58 0 0 0-.92.54 6 6 0 0 1-.61-.62 2.74 2.74 0 0 0 .52-.92.51.51 0 0 0-.07-.4 4.92 4.92 0 0 1-.7-1.68.55.55 0 0 0-.24-.34 2.65 2.65 0 0 0-1-.27 3.22 3.22 0 0 1 0-.43 3.25 3.25 0 0 1 0-.44 2.57 2.57 0 0 0 1-.27.51.51 0 0 0 .24-.33 4.77 4.77 0 0 1 .7-1.68.52.52 0 0 0 .07-.4 2.53 2.53 0 0 0-.52-.93 6 6 0 0 1 .61-.62 2.44 2.44 0 0 0 .92.54.51.51 0 0 0 .4-.07 5 5 0 0 1 1.69-.7.49.49 0 0 0 .33-.23 2.72 2.72 0 0 0 .28-1.05 4.22 4.22 0 0 1 .87 0 2.51 2.51 0 0 0 .28 1.05.49.49 0 0 0 .33.23 5 5 0 0 1 1.69.7.45.45 0 0 0 .39.07 2.39 2.39 0 0 0 .94-.48zm-5.66-10a1.93 1.93 0 1 0-1.92-1.93 1.93 1.93 0 0 0 1.92 1.98zm0-3.07a1.14 1.14 0 1 1-1.14 1.14 1.15 1.15 0 0 1 1.14-1.09zm-5.39 1.93a.42.42 0 0 0 .38.34 5.79 5.79 0 0 1 .58.08 4.76 4.76 0 0 0 .48 1.14 4.13 4.13 0 0 1-.38.51.41.41 0 0 0 0 .49 5.45 5.45 0 0 0 1 1 .38.38 0 0 0 .48 0l.45-.35a5 5 0 0 0 1.15.48 6.17 6.17 0 0 1 .08.62.4.4 0 0 0 .34.36h.09a3.55 3.55 0 0 0 1.3 0h.09a.4.4 0 0 0 .34-.35 6.09 6.09 0 0 1 .08-.63 5 5 0 0 0 1.15-.48c.1.07.25.18.45.35a.39.39 0 0 0 .49 0 5.69 5.69 0 0 0 1-1 .4.4 0 0 0 0-.49 4.13 4.13 0 0 1-.38-.51 4.76 4.76 0 0 0 .48-1.14c.11 0 .3-.05.61-.08a.39.39 0 0 0 .35-.34v-.12a4.07 4.07 0 0 0 .06-.62 3.82 3.82 0 0 0-.06-.61v-.12a.4.4 0 0 0-.37-.34c-.3 0-.48-.06-.59-.08a4.83 4.83 0 0 0-.48-1.15 4.3 4.3 0 0 1 .38-.5.41.41 0 0 0 0-.49 5.45 5.45 0 0 0-1-1A.38.38 0 0 0 41 18q-.3.25-.45.36a4.26 4.26 0 0 0-1.19-.36c0-.11 0-.3-.08-.63a.39.39 0 0 0-.34-.35h-.1a4.64 4.64 0 0 0-1.29 0h-.09a.39.39 0 0 0-.34.35c0 .33-.06.52-.08.63a5 5 0 0 0-1.15.48l-.45-.35a.38.38 0 0 0-.48 0 4.93 4.93 0 0 0-1 1 .39.39 0 0 0 0 .49 4.13 4.13 0 0 1 .38.51 4.76 4.76 0 0 0-.48 1.14c-.11 0-.3.05-.61.08a.37.37 0 0 0-.35.33v.1a4.22 4.22 0 0 0-.06.64 4 4 0 0 0 .06.62zm.73-1.1a2 2 0 0 0 .77-.21.45.45 0 0 0 .18-.25 3.62 3.62 0 0 1 .51-1.23.36.36 0 0 0 0-.3 2 2 0 0 0-.39-.7 4.08 4.08 0 0 1 .46-.47 2 2 0 0 0 .69.41.43.43 0 0 0 .3-.05 3.66 3.66 0 0 1 1.28-.53.38.38 0 0 0 .25-.18 2 2 0 0 0 .21-.79 3.64 3.64 0 0 1 .66 0 1.94 1.94 0 0 0 .21.79.39.39 0 0 0 .25.18 3.54 3.54 0 0 1 1.27.53.4.4 0 0 0 .3.05 1.92 1.92 0 0 0 .7-.41 4.08 4.08 0 0 1 .46.47 1.76 1.76 0 0 0-.39.7.36.36 0 0 0 .05.3 3.54 3.54 0 0 1 .53 1.27.41.41 0 0 0 .18.25 2.09 2.09 0 0 0 .77.21v.65a1.88 1.88 0 0 0-.77.21.39.39 0 0 0-.18.25 3.62 3.62 0 0 1-.53 1.27.36.36 0 0 0-.05.3 2 2 0 0 0 .39.7 4 4 0 0 1-.46.46 2 2 0 0 0-.7-.4.36.36 0 0 0-.3.05 3.73 3.73 0 0 1-1.27.53.38.38 0 0 0-.25.18 2.14 2.14 0 0 0-.21.79 3.64 3.64 0 0 1-.66 0 1.94 1.94 0 0 0-.21-.79.38.38 0 0 0-.25-.18 3.54 3.54 0 0 1-1.27-.53.36.36 0 0 0-.3-.05 2 2 0 0 0-.7.4 4 4 0 0 1-.46-.46 2.08 2.08 0 0 0 .39-.7.36.36 0 0 0 0-.3 3.62 3.62 0 0 1-.53-1.27.38.38 0 0 0-.18-.25 2.09 2.09 0 0 0-.77-.21v-.33a1.77 1.77 0 0 1 .02-.36z"/></symbol><symbol viewBox="0 0 64 64" id="icon_person" xmlns="http://www.w3.org/2000/svg"><path d="M60.77 61H2a1.07 1.07 0 0 1-1-1c-.06-.37-1.3-9.14 4.37-13.18 2.29-1.63 5-2.24 7.7-2.83 3.86-.85 7.51-1.66 10.23-5.27 0 0 1.11-1.69-2.29-5.84-5.46-6.67-4.21-17.22-3.7-20.29 1.03-6.42 7.1-11.28 14.08-11.28s13.06 4.86 14.14 11.31c.51 3.07 1.76 13.62-3.7 20.29-3.4 4.15-2.32 5.8-2.31 5.82 2.74 3.63 6.39 4.44 10.25 5.29 2.66.59 5.41 1.2 7.7 2.83 5.67 4 4.42 12.81 4.37 13.18a1.08 1.08 0 0 1-1.07.97zM3 58.8h56.8c.13-2.17.07-7.6-3.58-10.2-1.93-1.37-4.36-1.91-6.92-2.48-3.88-.86-8.28-1.84-11.48-6.07-.19-.22-2.27-2.87 2.34-8.5 4.89-6 3.72-15.73 3.24-18.58-.9-5.42-6.06-9.51-12-9.51s-11.1 4.09-12 9.51c-.48 2.85-1.65 12.61 3.24 18.58 4.61 5.63 2.53 8.28 2.28 8.56-3.14 4.17-7.54 5.15-11.42 6-2.57.57-5 1.11-6.92 2.48C2.91 51.21 2.85 56.64 3 58.8z"/></symbol><symbol viewBox="0 0 64 64" id="icon_ppa" xmlns="http://www.w3.org/2000/svg"><path d="M44.13 14.99H29.15v4.87h14.98v-4.87zm-14.98 8.37v4.87h14.98v-4.87H29.15zm-3.55 8.22a27.4 27.4 0 0 0-2.44-1.74 30.16 30.16 0 0 0-10-4c-8.33 25.1 8.37 32.5 15.07 34.41l-3.39-8.9c-.57-1.52-1.15-3-1.68-4.42l-2.5-6.58 2.5 4.07 2.44 4 6.09 9.92c3.08-10.13 1.51-17.17-1.75-22a21.33 21.33 0 0 0-4.34-4.76zm26.31 9.64c-.62.05-1.22.1-1.79.18a23.84 23.84 0 0 0-2.44.41c-9.1 2-11.47 7.89-11.91 12.36a17.16 17.16 0 0 0-.07 2.44c0 .49.06.93.11 1.32l1.4-1.32 2.6-2.44 5.59-5.25-3.83 5.25-1.78 2.44-2.07 2.84a18.75 18.75 0 0 0 8.83-2.84H47a3.11 3.11 0 0 0 3.14-3.07v-.6c3.27-5.26 1.77-11.72 1.77-11.72z"/><path d="M25.6 10.79h22.08v28.54c.76-.17 1.58-.3 2.44-.41v-27.5A3.11 3.11 0 0 0 47 8.35h-4V4.89A.94.94 0 0 0 42 4H31.25a.94.94 0 0 0-.94.94v3.41h-4a3.11 3.11 0 0 0-3.15 3.07v15.33a23.85 23.85 0 0 1 2.44 1.74z"/></symbol><symbol viewBox="0 0 64 64" id="icon_search" xmlns="http://www.w3.org/2000/svg"><path d="M62.05 62l1.89-1.89-15.56-15.57a27.07 27.07 0 1 0-4 3.75L60.09 64 62 62.09h.06a.21.21 0 0 0-.01-.09zM6.44 27A21.55 21.55 0 1 1 28 48.52 21.58 21.58 0 0 1 6.44 27z"/></symbol><symbol viewBox="0 0 64 64" id="icon_telefon" xmlns="http://www.w3.org/2000/svg"><path d="M42.91 0H21a7 7 0 0 0-7 7v49.86a7 7 0 0 0 7 7h21.91a7 7 0 0 0 7-7V7a7 7 0 0 0-7-7zm5 56.82a5 5 0 0 1-5 5H21a5 5 0 0 1-5-5v-5h31.9zm0-7H16V14h31.9zM16 12V7a5 5 0 0 1 5-5h21.91a5 5 0 0 1 5 5v5z"/><path d="M36.93 6H27a1 1 0 1 0 0 2h10a1 1 0 0 0 0-2zm-4.99 54.34a3.49 3.49 0 1 0-3.49-3.48 3.48 3.48 0 0 0 3.49 3.48zm0-6a2.5 2.5 0 1 1-2.49 2.5 2.5 2.5 0 0 1 2.49-2.48z"/></symbol><symbol viewBox="0 0 64 64" id="ikoner_mail-05" xmlns="http://www.w3.org/2000/svg"><path d="M53.36 17.27a1 1 0 0 0-.6.19l-21 14.6-21-14.6a1 1 0 0 0-.6-.19 1 1 0 0 0-.86.45 1.05 1.05 0 0 0 .26 1.46l15.89 11L10.9 43.84a1 1 0 0 0 .72 1.81 1 1 0 0 0 .71-.28l14.86-13.93 4 2.76a1 1 0 0 0 1.2 0l4.11-2.86 15 14a1.05 1.05 0 1 0 1.44-1.53L38.22 30.12 54 19.18a1.05 1.05 0 0 0 .26-1.46 1 1 0 0 0-.9-.45z"/><path d="M53 12H10.53a6 6 0 0 0-6 6v27a6 6 0 0 0 6 6H53a6 6 0 0 0 6-6V18.05A6 6 0 0 0 53 12zm3.9 33a3.93 3.93 0 0 1-3.9 3.88H10.53A3.93 3.93 0 0 1 6.6 45V18.05a3.93 3.93 0 0 1 3.93-3.93H53a3.93 3.93 0 0 1 3.93 3.93z"/></symbol><symbol viewBox="0 0 64 64" id="ikoner_telefon" xmlns="http://www.w3.org/2000/svg"><path d="M42.91 0H21a7 7 0 0 0-7 7v49.86a7 7 0 0 0 7 7h21.91a7 7 0 0 0 7-7V7a7 7 0 0 0-7-7zm5 56.82a5 5 0 0 1-5 5H21a5 5 0 0 1-5-5v-5h31.9zm0-7H16V14h31.9zM16 12V7a5 5 0 0 1 5-5h21.91a5 5 0 0 1 5 5v5z"/><path d="M36.93 6H27a1 1 0 1 0 0 2h10a1 1 0 0 0 0-2zm-4.99 54.34a3.49 3.49 0 1 0-3.49-3.48 3.48 3.48 0 0 0 3.49 3.48zm0-6a2.5 2.5 0 1 1-2.49 2.5 2.5 2.5 0 0 1 2.49-2.48z"/></symbol><symbol viewBox="0 0 64 64" id="instagram" xmlns="http://www.w3.org/2000/svg"><g data-name="&amp;lt;Group&amp;gt;"><path data-name="&amp;lt;Compound Path&amp;gt;" d="M45.53 0H18.47A18.47 18.47 0 0 0 0 18.49v27.06A18.47 18.47 0 0 0 18.47 64h27.06A18.47 18.47 0 0 0 64 45.55V18.49A18.47 18.47 0 0 0 45.53 0zm12.58 46a12.26 12.26 0 0 1-12.27 12.28H18.16A12.26 12.26 0 0 1 5.89 46V18.33A12.26 12.26 0 0 1 18.16 6.07h27.68a12.26 12.26 0 0 1 12.27 12.26z"/><path data-name="&amp;lt;Compound Path&amp;gt;" d="M32 15.57a16.61 16.61 0 1 0 16.61 16.61A16.61 16.61 0 0 0 32 15.57zm0 27.37a10.76 10.76 0 1 1 10.76-10.76A10.76 10.76 0 0 1 32 42.94z"/><circle data-name="&amp;lt;Path&amp;gt;" cx="49.16" cy="14.94" r="3.87"/></g></symbol><symbol viewBox="0 0 64 64" id="linkedin" xmlns="http://www.w3.org/2000/svg"><path d="M7.66 15.67h-.08C3 15.67 0 12.5 0 8.54s3.08-7.12 7.75-7.12 7.63 3.08 7.67 7.12-2.97 7.13-7.76 7.13zm6.88 46.92H.79v-41.3h13.75zm49.46 0H50.29V40.5c0-5.54-2-9.33-7-9.33a7.51 7.51 0 0 0-7 5 10.34 10.34 0 0 0-.46 3.38v23H22.12c.17-37.42 0-41.29 0-41.29h13.71v6h-.08a13.61 13.61 0 0 1 12.46-7c9 0 15.79 5.92 15.79 18.58z"/></symbol><symbol viewBox="0 0 64 64" id="long-arrow-left" xmlns="http://www.w3.org/2000/svg"><path d="M13.39 45.61l2.92-2.92-8.4-8.41H64v-4.13H7.91l8.41-8.41-2.92-2.92L0 32.21z"/></symbol><symbol viewBox="0 0 64 64" id="long-arrow-right" xmlns="http://www.w3.org/2000/svg"><path d="M50.61 18.82l-2.92 2.92 8.41 8.41H0v4.13h56.09l-8.41 8.41 2.92 2.92L64 32.21z"/></symbol><symbol viewBox="0 0 64 64" id="mail" xmlns="http://www.w3.org/2000/svg"><path d="M54.84 7.45H9.16A9.17 9.17 0 0 0 0 16.61v30.74a9.17 9.17 0 0 0 9.16 9.16h45.68A9.17 9.17 0 0 0 64 47.35V16.61a9.17 9.17 0 0 0-9.16-9.16zM9.16 14h45.68a2.66 2.66 0 0 1 2.26 1.26L33.61 32.49a2.64 2.64 0 0 1-3.17 0L7.09 14.95A2.65 2.65 0 0 1 9.16 14zm45.68 36H9.16a2.66 2.66 0 0 1-2.66-2.65V22.64l20 15a9.11 9.11 0 0 0 10.93.05L57.5 23v24.35A2.66 2.66 0 0 1 54.84 50z"/></symbol><symbol viewBox="0 0 64 64" id="minus-big" xmlns="http://www.w3.org/2000/svg"><path d="M0 29.07h64v5.85H0z"/></symbol><symbol viewBox="0 0 64 64" id="minus-small" xmlns="http://www.w3.org/2000/svg"><path d="M64 26.21H0v11.58h64"/></symbol><symbol viewBox="0 0 64 64" id="play" xmlns="http://www.w3.org/2000/svg"><path d="M58.84 28.44L10.48.53a4.08 4.08 0 0 0-2-.55 4.08 4.08 0 0 0-4.11 4.08V59.9a4.08 4.08 0 0 0 6.12 3.53l48.35-27.92a4.08 4.08 0 0 0 0-7.06z"/></symbol><symbol viewBox="0 0 64 64" id="play-stroke" xmlns="http://www.w3.org/2000/svg"><path d="M11.42 9.65L52.13 32 11.42 54.35V9.65M5.71 0v64L64 32 5.71 0z"/></symbol><symbol viewBox="0 0 64 64" id="plus" xmlns="http://www.w3.org/2000/svg"><path d="M58.56 26.56H37.44V5.44A5.45 5.45 0 0 0 32 0a5.45 5.45 0 0 0-5.44 5.44v21.12H5.44a5.44 5.44 0 1 0 0 10.89h21.12v21.11a5.44 5.44 0 1 0 10.89 0V37.44h21.11a5.44 5.44 0 1 0 0-10.89z"/></symbol><symbol viewBox="0 0 64 64" id="plus-big" xmlns="http://www.w3.org/2000/svg"><path d="M0 34.93h29.07V64h5.85V34.93H64v-5.86H34.92V0h-5.85v29.07H0v5.86z"/></symbol><symbol viewBox="0 0 64 64" id="plus-small" xmlns="http://www.w3.org/2000/svg"><path d="M37.79 26.21V0H26.2v26.21H0v11.58h26.2V64h11.59V37.79H64V26.21H37.79z"/></symbol><symbol viewBox="0 0 64 64" id="print" xmlns="http://www.w3.org/2000/svg"><path d="M57.6 14.88h-6V8.26a6.4 6.4 0 0 0-6.4-6.4H18.75a6.4 6.4 0 0 0-6.4 6.4v6.62h-6A6.4 6.4 0 0 0 0 21.28v25.39a6.4 6.4 0 0 0 6.4 6.4h6v2.63a6.4 6.4 0 0 0 6.4 6.4h26.45a6.4 6.4 0 0 0 6.4-6.4v-2.64h6a6.4 6.4 0 0 0 6.4-6.4V21.28a6.4 6.4 0 0 0-6.45-6.4zM18.86 8.37h26.28v6.51H18.86zm26.28 47.22H18.86v-12h26.28zm12.35-9h-5.84v-5.46a4 4 0 0 0-4-4h-31.3a4 4 0 0 0-4 4v5.43H6.5V21.38h51z"/></symbol><symbol viewBox="0 0 64 64" id="quote" xmlns="http://www.w3.org/2000/svg"><path d="M21.17 26.36c5.79 2.48 8.6 6.78 8.6 11.91 0 7.94-6.62 14.22-14.88 14.22S0 46.2 0 38.26c0-3.64.17-5.62 5-13.73L14.88 8h14.89zm34.23 0c5.79 2.48 8.6 6.78 8.6 11.91 0 7.94-6.61 14.22-14.88 14.22S34.23 46.2 34.23 38.26c0-3.64.17-5.62 5-13.73L49.12 8H64z"/></symbol><symbol viewBox="0 0 64 64" id="triangle-down" xmlns="http://www.w3.org/2000/svg"><path d="M.01 16.61l32 32 32-32h-64z"/></symbol><symbol viewBox="0 0 64 64" id="triangle-left" xmlns="http://www.w3.org/2000/svg"><path d="M47.39 0l-32 32 32 32V0z"/></symbol><symbol viewBox="0 0 64 64" id="triangle-right" xmlns="http://www.w3.org/2000/svg"><path d="M16.61 64l32-32-32-32v64z"/></symbol><symbol viewBox="0 0 64 64" id="triangle-up" xmlns="http://www.w3.org/2000/svg"><path d="M64 47.39l-32-32-32 32h64z"/></symbol><symbol viewBox="0 0 64 64" id="twitter" xmlns="http://www.w3.org/2000/svg"><path d="M57.42 19v1.71C57.46 38 44.26 58 20.14 58A37.06 37.06 0 0 1 0 52.1a27.32 27.32 0 0 0 3.17.16 26.28 26.28 0 0 0 16.29-5.6 13.14 13.14 0 0 1-12.26-9.1 16.38 16.38 0 0 0 2.48.2 13.87 13.87 0 0 0 3.45-.45A13.12 13.12 0 0 1 2.6 24.45v-.16a13.19 13.19 0 0 0 5.93 1.67A13.13 13.13 0 0 1 4.46 8.41a37.28 37.28 0 0 0 27 13.73 14.93 14.93 0 0 1-.32-3 13.13 13.13 0 0 1 22.7-9A25.8 25.8 0 0 0 62.21 7a13.08 13.08 0 0 1-5.77 7.23 26.26 26.26 0 0 0 7.55-2A28.21 28.21 0 0 1 57.42 19z"/></symbol><symbol viewBox="0 0 64 64" id="youtube" xmlns="http://www.w3.org/2000/svg"><path d="M62.86 46.83A8.11 8.11 0 0 1 56 53.3a214.43 214.43 0 0 1-24 .89 214.43 214.43 0 0 1-24-.89 8.19 8.19 0 0 1-6.93-6.46C0 41.87 0 36.44 0 31.33s0-10.53 1.14-15.5A8.15 8.15 0 0 1 8 9.37a214.43 214.43 0 0 1 24-.89 214.43 214.43 0 0 1 24 .89 8.19 8.19 0 0 1 6.93 6.46C64 20.8 64 26.23 64 31.33s0 10.54-1.14 15.5zM44.64 29.4L26.36 18a2.26 2.26 0 0 0-2.36-.1 2.31 2.31 0 0 0-1.18 2v22.86a2.31 2.31 0 0 0 1.18 2 2.43 2.43 0 0 0 1.11.29 2.11 2.11 0 0 0 1.21-.36l18.32-11.43a2.27 2.27 0 0 0 0-3.86z"/></symbol></svg>