<svg xmlns="http://www.w3.org/2000/svg" width="48" height="48"><path fill-rule="evenodd" fill="#FAFAFA" d="M23.847 46.823c-.001 0 .001 0 0 0h-.01a23.285 23.285 0 0 1-11.142-2.838L.335 47.227l3.307-12.082A23.275 23.275 0 0 1 .53 23.489C.535 10.633 10.995.174 23.847.174c6.237.002 12.091 2.43 16.493 6.838a23.17 23.17 0 0 1 6.823 16.495c-.005 12.856-10.466 23.316-23.316 23.316zM37.556 9.795a19.25 19.25 0 0 0-13.701-5.683c-10.69 0-19.384 8.693-19.388 19.378A19.325 19.325 0 0 0 7.43 33.803l.46.734-1.957 7.151 7.335-1.924.707.42a19.345 19.345 0 0 0 9.864 2.701h.008c10.681 0 19.375-8.693 19.379-19.38a19.261 19.261 0 0 0-5.67-13.71zm-6.235 24.797c-1.004.15-2.273.213-3.669-.231a33.175 33.175 0 0 1-3.322-1.227c-5.844-2.523-9.661-8.408-9.952-8.797-.291-.389-2.379-3.159-2.379-6.027 0-2.867 1.505-4.277 2.039-4.86.534-.583 1.166-.729 1.554-.729.388 0 .777.004 1.117.02.357.018.837-.135 1.31 1.001.486 1.166 1.651 4.034 1.797 4.326.145.292.242.631.048 1.02s-.291.632-.583.972c-.291.34-.612.76-.874 1.021-.291.29-.594.606-.255 1.189.34.583 1.509 2.491 3.241 4.036 2.225 1.985 4.102 2.6 4.685 2.891.583.292.923.244 1.263-.145.339-.389 1.456-1.702 1.845-2.285.388-.583.776-.486 1.31-.291.534.194 3.398 1.603 3.981 1.895.582.292.971.437 1.117.681.145.243.145 1.409-.341 2.771-.485 1.36-2.812 2.602-3.932 2.769z"/></svg>