<svg xmlns="http://www.w3.org/2000/svg" width="43" height="50" viewBox="0 0 43 50"><g fill="#FFFFFF" fill-rule="evenodd"><path d="M27.156,44.671 C27.017,45.506 26.905,46.352 26.826,47.112 C26.645,47.888 25.964,48.43 25.168,48.43 L17.087,48.43 C16.414,48.43 15.801,48.026 15.533,47.416 C15.423,46.383 15.267,45.33 15.087,44.276 L27.228,44.276 C27.205,44.409 27.177,44.538 27.156,44.671 Z M9.711,28.818 L9.657,28.724 C9.472,28.397 9.287,28.079 9.124,27.811 L7.826,25.204 C7.306,23.714 7.042,22.152 7.042,20.561 C7.042,12.473 13.889,5.963 22.099,6.509 C29.198,6.986 34.828,12.709 35.193,19.821 C35.331,22.506 34.712,25.151 33.4,27.471 L33.37,27.518 C33.243,27.725 33.114,27.936 32.996,28.143 C30.411,32.539 28.576,37.432 27.516,42.705 L14.8,42.705 C13.791,37.704 12.085,33.033 9.711,28.818 Z M34.356,28.93 C34.471,28.729 34.589,28.533 34.688,28.366 L34.752,28.27 C36.221,25.683 36.916,22.734 36.761,19.74 C36.356,11.834 30.097,5.473 22.204,4.942 C13.067,4.327 5.472,11.574 5.472,20.561 C5.472,22.329 5.766,24.065 6.381,25.811 L7.747,28.564 C7.948,28.899 8.145,29.239 8.338,29.584 L8.396,29.682 C10.613,33.641 12.22,38.02 13.196,42.705 L10.899,42.705 L10.899,44.276 L13.494,44.276 C13.696,45.423 13.865,46.569 13.982,47.689 L14.029,47.886 C14.504,49.15 15.734,50 17.087,50 L25.168,50 C26.698,50 28.009,48.958 28.37,47.377 C28.462,46.555 28.571,45.735 28.704,44.925 C28.74,44.707 28.786,44.492 28.824,44.276 L31.356,44.276 L31.356,42.705 L29.118,42.705 C30.154,37.753 31.944,33.032 34.356,28.93 L34.356,28.93 Z"/><polyline points="34.869 34.041 33.717 35.168 35.809 37.31 36.962 36.183 34.869 34.041"/><polyline points="39.015 27.052 41.899 27.862 42.333 26.311 39.451 25.501 39.015 27.052"/><polyline points="42.048 15.074 39.147 15.816 39.547 17.377 42.447 16.635 42.048 15.074"/><polyline points="35.167 8.73 37.31 6.638 36.185 5.486 34.042 7.578 35.167 8.73"/><g transform="translate(15)"><polyline points="12.054 3.432 12.863 .549 11.311 .115 10.502 2.998 12.054 3.432"/><polyline points=".074 .399 .816 3.3 2.377 2.901 1.636 0 .074 .399"/></g><polyline points="7.578 8.406 8.732 7.279 6.639 5.136 5.486 6.263 7.578 8.406"/><polyline points=".55 14.585 .115 16.136 2.997 16.945 3.433 15.394 .55 14.585"/><polyline points="0 25.811 .399 27.372 3.3 26.632 2.902 25.07 0 25.811"/><polyline points="5.097 35.83 6.225 36.982 8.365 34.887 7.237 33.735 5.097 35.83"/><path d="M13.626,13.084 C12.824,13.954 8.96,18.616 11.605,24.885 L13.051,24.276 C10.781,18.892 14.095,14.894 14.781,14.148 L13.626,13.084 L13.626,13.084 Z M23.663,32.037 L21.326,43.48 L18.987,32.037 L18.446,32.037 C20.265,31.12 22.428,31.12 24.247,32.037 L23.663,32.037 Z M27.012,32.117 C23.888,28.993 18.806,28.993 15.682,32.117 L16.793,33.229 C17.014,33.009 17.249,32.815 17.493,32.633 L19.731,43.586 L22.919,43.586 L25.163,32.605 C25.419,32.794 25.668,32.997 25.901,33.229 L27.012,32.117 L27.012,32.117 Z"/></g></svg>