<svg xmlns="http://www.w3.org/2000/svg" width="59" height="54" viewBox="0 0 59 54"><g fill="#FFFFFF"><path d="M46.999,25.68 C46.125,25.68 45.414,26.391 45.414,27.265 C45.414,28.139 46.125,28.85 46.999,28.85 C47.873,28.85 48.584,28.139 48.584,27.265 C48.584,26.391 47.873,25.68 46.999,25.68"/><polygon points="12.422 16.723 13.998 16.723 13.998 15.147 12.422 15.147"/><polygon points="16.364 16.723 17.94 16.723 17.94 15.147 16.364 15.147"/><polygon points="20.306 16.723 21.882 16.723 21.882 15.147 20.306 15.147"/><path d="M10.158,34.984 C5.274,34.984 1.301,38.958 1.301,43.841 C1.301,48.726 5.274,52.7 10.158,52.7 C15.042,52.7 19.015,48.726 19.015,43.841 C19.015,38.958 15.042,34.984 10.158,34.984 Z M20.109,41.796 C20.245,42.457 20.316,43.141 20.316,43.841 C20.316,49.443 15.759,53.999 10.158,53.999 C4.557,53.999 0,49.443 0,43.841 C0,38.241 4.557,33.683 10.158,33.683 C15.058,33.683 19.161,37.172 20.109,41.796 L20.109,41.796 Z"/><path d="M5.927,45.712 C6.286,46.747 6.885,47.581 7.709,48.19 C8.53,48.796 9.486,49.104 10.549,49.104 C12.067,49.104 13.313,48.536 14.257,47.416 L13.293,46.249 C12.867,46.67 12.457,46.987 12.073,47.19 C11.651,47.415 11.138,47.53 10.549,47.53 C9.353,47.53 8.447,46.953 7.857,45.815 L7.759,45.625 L11.479,45.625 L11.479,44.525 L7.431,44.525 L7.416,44.413 C7.384,44.178 7.368,43.924 7.368,43.66 C7.368,43.396 7.373,43.203 7.384,43.072 L7.393,42.952 L11.479,42.952 L11.479,41.852 L7.651,41.852 L7.724,41.672 C7.975,41.062 8.362,40.582 8.873,40.246 C9.384,39.912 9.963,39.742 10.597,39.742 C11.225,39.742 11.763,39.847 12.196,40.055 C12.593,40.247 13.013,40.57 13.451,41.018 L14.416,39.793 C13.471,38.672 12.187,38.104 10.597,38.104 C9.504,38.104 8.513,38.44 7.656,39.104 C6.797,39.77 6.188,40.664 5.85,41.759 L5.821,41.852 L4.211,41.852 L4.211,42.952 L5.616,42.952 L5.602,43.093 C5.592,43.205 5.587,43.381 5.587,43.635 C5.587,43.879 5.602,44.129 5.633,44.378 L5.651,44.525 L4.211,44.525 L4.211,45.625 L5.897,45.625 L5.927,45.712 M49.174,10.139 L45.038,2.272 L44.993,2.21 L44.916,2.103 L44.822,2.024 L44.717,1.96 L44.599,1.92 L44.481,1.901 L44.348,1.911 L44.272,1.916 L40.424,2.988 L38.648,0.283 L38.614,0.248 L38.521,0.154 L38.425,0.082 L38.311,0.034 L38.193,0.002 L38.073,0.001 L37.942,0.018 L37.894,0.024 L15.058,9.16 C14.718,9.276 14.537,9.645 14.653,9.985 C14.745,10.255 14.998,10.425 15.268,10.425 L15.478,10.39 L37.838,1.417 L39.108,3.353 L20.602,9.783 C20.257,9.879 20.054,10.238 20.15,10.583 C20.231,10.872 20.492,11.059 20.776,11.059 L20.952,11.036 L44.087,3.318 L47.992,10.679 C48.101,10.918 48.337,11.059 48.584,11.059 C48.674,11.059 48.766,11.04 48.853,11 C49.18,10.852 49.324,10.465 49.174,10.139"/><path d="M55.65,21.697 L55.65,18.967 C56.323,19.061 56.845,19.634 56.845,20.332 C56.845,21.031 56.323,21.604 55.65,21.697 Z M56.845,29.758 C56.845,30.669 56.103,31.411 55.193,31.411 L46.472,31.411 C44.446,31.411 42.796,29.76 42.796,27.733 L42.796,26.797 C42.796,24.77 44.446,23.12 46.472,23.12 L55.65,23.12 L55.65,23.099 C56.084,23.07 56.488,22.943 56.845,22.736 L56.845,29.758 Z M58.228,20.145 C58.133,18.761 57.033,17.66 55.65,17.565 L55.65,14.606 C55.65,11.826 53.388,9.564 50.608,9.564 L11.69,9.564 C8.911,9.564 6.648,11.826 6.648,14.606 L6.648,31.021 C6.648,31.839 6.643,33.598 6.635,34.326 C7.091,34.157 7.556,34.012 8.039,33.91 C8.046,33.067 8.051,31.162 8.051,30.178 L8.051,14.606 C8.051,12.596 9.68,10.966 11.69,10.966 L50.608,10.966 C52.619,10.966 54.248,12.596 54.248,14.606 L54.248,21.717 L46.472,21.717 C43.668,21.717 41.393,23.992 41.393,26.796 L41.393,27.733 C41.393,30.539 43.668,32.813 46.473,32.813 L54.248,32.813 L54.248,39.924 C54.248,41.934 52.619,43.564 50.608,43.564 L20.799,43.564 C20.619,43.564 20.453,43.565 20.279,43.565 C20.246,44.041 20.186,44.51 20.089,44.966 L50.608,44.966 C53.388,44.966 55.65,42.705 55.65,39.924 L55.65,32.766 C57.116,32.543 58.247,31.286 58.247,29.758 L58.247,20.145 L58.228,20.145 L58.228,20.145 Z"/></g></svg>