<svg width="15" height="15" viewBox="0 0 15 15" fill="none" xmlns="http://www.w3.org/2000/svg">
<path d="M1.70239 11.1747V9.86218H13.9524V11.1747C13.925 11.9676 13.5969 12.6512 13.0774 13.1434V14.2372C13.0774 14.4833 12.8586 14.6747 12.6399 14.6747H11.7649C11.5188 14.6747 11.3274 14.4833 11.3274 14.2372V13.7997H4.32739V14.2372C4.32739 14.4833 4.10864 14.6747 3.88989 14.6747H3.01489C2.7688 14.6747 2.57739 14.4833 2.57739 14.2372V13.1434C2.03052 12.6512 1.70239 11.9676 1.70239 11.1747ZM14.3899 7.67468C14.6086 7.67468 14.8274 7.89343 14.8274 8.11218V8.54968C14.8274 8.79577 14.6086 8.98718 14.3899 8.98718H1.26489C1.0188 8.98718 0.827393 8.79577 0.827393 8.54968V8.11218C0.827393 7.89343 1.0188 7.67468 1.26489 7.67468H1.70239V2.58874C1.70239 1.54968 2.55005 0.67468 3.58911 0.67468C4.10864 0.67468 4.57349 0.89343 4.92896 1.2489L5.44849 1.76843C6.2688 1.41296 7.06177 1.54968 7.63599 2.01452V1.98718C7.71802 1.93249 7.82739 1.8778 7.93677 1.8778C8.07349 1.8778 8.18286 1.93249 8.26489 1.98718L8.56567 2.3153C8.64771 2.39734 8.70239 2.50671 8.70239 2.61609C8.70239 2.7528 8.64771 2.86218 8.56567 2.91687L5.66724 5.8153C5.61255 5.89734 5.50317 5.92468 5.36646 5.92468C5.25708 5.92468 5.14771 5.89734 5.06567 5.8153L4.76489 5.48718C4.68286 5.43249 4.62817 5.32312 4.62817 5.1864C4.62817 5.07702 4.68286 4.96765 4.76489 4.88562C4.30005 4.3114 4.16333 3.51843 4.5188 2.69812L3.99927 2.17859C3.88989 2.06921 3.75317 2.01452 3.58911 2.01452C3.26099 2.01452 3.01489 2.26062 3.01489 2.58874V7.67468H14.3899Z" fill="#464646"/>
</svg>
