<svg width="19" height="11" viewBox="0 0 19 11" fill="none" xmlns="http://www.w3.org/2000/svg">
<path d="M5.63989 5.57468C4.40942 5.57468 3.45239 4.61765 3.45239 3.38718C3.45239 2.18406 4.40942 1.19968 5.63989 1.19968C6.84302 1.19968 7.82739 2.18406 7.82739 3.38718C7.82739 4.61765 6.84302 5.57468 5.63989 5.57468ZM15.2649 2.07468C16.9329 2.07468 18.3274 3.46921 18.3274 5.13718V10.3872C18.3274 10.6333 18.1086 10.8247 17.8899 10.8247H17.0149C16.7688 10.8247 16.5774 10.6333 16.5774 10.3872V9.07468H2.57739V10.3872C2.57739 10.6333 2.35864 10.8247 2.13989 10.8247H1.26489C1.0188 10.8247 0.827393 10.6333 0.827393 10.3872V0.76218C0.827393 0.54343 1.0188 0.32468 1.26489 0.32468H2.13989C2.35864 0.32468 2.57739 0.54343 2.57739 0.76218V6.44968H8.70239V2.51218C8.70239 2.29343 8.8938 2.07468 9.13989 2.07468H15.2649Z" fill="#464646"/>
</svg>
