<svg width="15" height="12" viewBox="0 0 15 12" fill="none" xmlns="http://www.w3.org/2000/svg">
<path d="M14.4719 3.78719C14.6907 3.78719 14.8547 4.00594 14.8 4.19734L14.636 4.85359C14.6086 5.01765 14.4719 5.09969 14.3352 5.09969H13.761C14.1438 5.42781 14.3899 5.89265 14.3899 6.41219V7.72469C14.3899 8.18953 14.1985 8.57234 13.9524 8.87312V10.3497C13.9524 10.8419 13.5422 11.2247 13.0774 11.2247H12.2024C11.7102 11.2247 11.3274 10.8419 11.3274 10.3497V9.47469H4.32739V10.3497C4.32739 10.8419 3.91724 11.2247 3.45239 11.2247H2.57739C2.08521 11.2247 1.70239 10.8419 1.70239 10.3497V8.87312C1.42896 8.57234 1.26489 8.18953 1.26489 7.72469V6.41219C1.26489 5.89265 1.48364 5.42781 1.86646 5.09969H1.31958C1.15552 5.09969 1.0188 5.01765 0.991455 4.85359L0.827393 4.19734C0.772705 4.00594 0.936768 3.78719 1.15552 3.78719H2.7688L3.23364 2.66609C3.69849 1.49031 4.81958 0.724686 6.07739 0.724686H9.55005C10.8079 0.724686 11.929 1.49031 12.3938 2.66609L12.8586 3.78719H14.4719ZM4.84692 3.32234L4.32739 4.66219H11.3274L10.7805 3.32234C10.5618 2.80281 10.0969 2.47469 9.55005 2.47469H6.07739C5.53052 2.47469 5.06567 2.80281 4.84692 3.32234ZM3.45239 7.72469C3.97192 7.72469 4.76489 7.80672 4.76489 7.28719C4.76489 6.76765 3.97192 5.97469 3.45239 5.97469C2.90552 5.97469 2.57739 6.33015 2.57739 6.84969C2.57739 7.39656 2.90552 7.72469 3.45239 7.72469ZM12.2024 7.72469C12.7219 7.72469 13.0774 7.39656 13.0774 6.84969C13.0774 6.33015 12.7219 5.97469 12.2024 5.97469C11.6555 5.97469 10.8899 6.76765 10.8899 7.28719C10.8899 7.80672 11.6555 7.72469 12.2024 7.72469Z" fill="#464646"/>
</svg>
