<svg width="17" height="15" viewBox="0 0 17 15" fill="none" xmlns="http://www.w3.org/2000/svg">
<path d="M8.70239 0.0746918C10.5891 0.0746918 12.1477 1.63329 12.1477 3.52C12.1477 5.0786 9.87817 7.86766 9.03052 8.90672C8.83911 9.09813 8.53833 9.09813 8.34692 8.90672C7.49927 7.86766 5.25708 5.0786 5.25708 3.52C5.25708 1.63329 6.78833 0.0746918 8.70239 0.0746918ZM8.70239 4.66844C9.3313 4.66844 9.85083 4.17625 9.85083 3.52C9.85083 2.8911 9.3313 2.37157 8.70239 2.37157C8.04614 2.37157 7.55396 2.8911 7.55396 3.52C7.55396 4.17625 8.04614 4.66844 8.70239 4.66844ZM1.37427 5.98094L4.60083 4.69579C4.73755 5.10594 4.9563 5.5161 5.20239 5.9536V12.3247L1.40161 14.0473C1.12817 14.1841 0.827393 13.9653 0.827393 13.6372V6.80125C0.827393 6.44579 1.04614 6.11766 1.37427 5.98094ZM8.70239 9.91844C9.08521 9.91844 9.44067 9.75438 9.68677 9.4536C10.2336 8.82469 10.8079 8.11375 11.3274 7.34813V14.0747L6.07739 12.3247V7.34813C6.56958 8.11375 7.1438 8.82469 7.69067 9.4536C7.93677 9.75438 8.29224 9.91844 8.70239 9.91844ZM15.9758 4.50438C16.2493 4.36766 16.5774 4.58641 16.5774 4.91454V11.7505C16.5774 12.1059 16.3313 12.4341 16.0032 12.5708L12.2024 14.0747V6.19969L15.9758 4.50438Z" fill="#464646"/>
</svg>
