<svg width="14" height="13" viewBox="0 0 14 13" fill="none" xmlns="http://www.w3.org/2000/svg">
<path d="M13.0774 9.18093V12.2434V12.2708C13.0774 12.6262 12.7766 12.927 12.4211 12.927V12.8997H9.35864C8.75708 12.8997 8.4563 12.2161 8.8938 11.7786L9.87817 10.7942L6.95239 7.86843L3.99927 10.7942L5.01099 11.7786C5.42114 12.2161 5.12036 12.8997 4.54614 12.8997H1.48364H1.4563C1.10083 12.8997 0.800049 12.6262 0.800049 12.2708C0.800049 12.2708 0.827393 12.2708 0.827393 12.2434V9.18093C0.827393 8.60672 1.51099 8.30593 1.94849 8.71609L2.93286 9.72781L5.85864 6.77468L2.93286 3.8489L1.94849 4.83328C1.51099 5.27078 0.827393 4.97 0.827393 4.36843V1.30593C0.827393 0.950466 1.10083 0.649685 1.4563 0.649685C1.4563 0.649685 1.4563 0.649685 1.48364 0.649685H4.54614C5.12036 0.649685 5.42114 1.36062 5.01099 1.77078L3.99927 2.7825L6.95239 5.70828L9.87817 2.7825L8.8938 1.77078C8.4563 1.36062 8.75708 0.649685 9.35864 0.649685H12.4211C12.7766 0.649685 13.0774 0.950466 13.0774 1.30593V4.36843C13.0774 4.97 12.3665 5.27078 11.9563 4.83328L10.9446 3.8489L8.0188 6.77468L10.9446 9.72781L11.9563 8.74343C12.3665 8.30593 13.0774 8.60672 13.0774 9.18093Z" fill="#464646"/>
</svg>
