<svg width="17" height="13" viewBox="0 0 17 13" fill="none" xmlns="http://www.w3.org/2000/svg">
<path d="M8.48364 3.9489C8.53833 3.89421 8.62036 3.86687 8.70239 3.86687C8.75708 3.86687 8.83911 3.89421 8.8938 3.9489L13.9524 8.0778V12.5622C13.9524 12.8083 13.7336 12.9997 13.5149 12.9997H10.425C10.2063 12.9997 9.98755 12.8083 9.98755 12.5622V9.93718C9.98755 9.71843 9.79614 9.49968 9.55005 9.49968H7.80005C7.5813 9.49968 7.36255 9.71843 7.36255 9.93718V12.5622C7.36255 12.8083 7.17114 12.9997 6.95239 12.9997H3.88989C3.6438 12.9997 3.45239 12.8083 3.45239 12.5622V8.10515L8.48364 3.9489ZM16.4407 6.7653C16.5227 6.81999 16.5774 6.92937 16.5774 7.0114C16.5774 7.09343 16.55 7.17546 16.4954 7.23015L15.7844 8.0778C15.7297 8.15984 15.6477 8.18718 15.5383 8.18718C15.4563 8.18718 15.3743 8.15984 15.3196 8.10515L8.8938 2.8278C8.83911 2.77312 8.75708 2.74577 8.70239 2.74577C8.62036 2.74577 8.53833 2.77312 8.48364 2.8278L2.05786 8.10515C2.00317 8.15984 1.92114 8.18718 1.83911 8.18718C1.72974 8.18718 1.64771 8.15984 1.59302 8.0778L0.88208 7.23015C0.854736 7.17546 0.800049 7.09343 0.800049 7.0114C0.800049 6.92937 0.854736 6.81999 0.936768 6.7653L7.85474 1.05046C8.07349 0.886398 8.37427 0.777023 8.70239 0.777023C9.00317 0.777023 9.30396 0.886398 9.52271 1.05046L11.9836 3.0739V1.10515C11.9836 0.913742 12.1204 0.777023 12.3118 0.777023H13.843C14.0071 0.777023 14.1711 0.913742 14.1711 1.10515V4.87859L16.4407 6.7653Z" fill="#464646"/>
</svg>
