<?xml version="1.0" standalone="no"?>
<!DOCTYPE svg PUBLIC "-//W3C//DTD SVG 1.1//EN" "http://www.w3.org/Graphics/SVG/1.1/DTD/svg11.dtd" >
<svg xmlns="http://www.w3.org/2000/svg" xmlns:xlink="http://www.w3.org/1999/xlink" version="1.1">
<metadata>
Created by FontForge 20160407 at Sat Oct  1 10:28:54 2016
 By Jimmy Warting
Copyright (c) 2010 by Aakash Soneri. All rights reserved.
</metadata>
<defs>
<font id="AccordAltBold" horiz-adv-x="525" >
  <font-face 
    font-family="AccordAltBold"
    font-weight="700"
    font-stretch="normal"
    units-per-em="1000"
    panose-1="2 0 0 0 0 0 0 0 0 0"
    ascent="750"
    descent="-250"
    x-height="500"
    cap-height="650"
    bbox="-83 -250.078 1496 907"
    underline-thickness="50"
    underline-position="-100"
    stemh="109"
    stemv="120"
    unicode-range="U+0020-FB02"
  />
<missing-glyph horiz-adv-x="218" 
 />
    <glyph glyph-name=".notdef" horiz-adv-x="218" 
 />
    <glyph glyph-name="A" unicode="A" horiz-adv-x="620" 
d="M497 0l-53 140h-269l-53 -140h-122l249 650h122l249 -650h-123zM309 498l-93 -247h186z" />
    <glyph glyph-name="B" unicode="B" horiz-adv-x="573" 
d="M50 650h239c171 0 238 -78 238 -181c0 -53 -24 -102 -79 -132c69 -32 99 -86 99 -149c0 -110 -70 -188 -247 -188h-250v650zM300 281h-130v-170h130c96 0 127 34 127 85c0 48 -31 85 -127 85zM289 538h-119v-154h119c88 0 118 36 118 77c0 46 -30 77 -118 77z" />
    <glyph glyph-name="C" unicode="C" horiz-adv-x="530" 
d="M152 349v-48c0 -147 67 -201 168 -201c67 0 132 30 156 54l36 -109c-42 -29 -97 -56 -192 -56c-167 0 -288 90 -288 312v48c0 220 121 311 288 311c86 0 144 -28 192 -56l-36 -109c-37 26 -99 53 -156 53c-101 0 -168 -55 -168 -199z" />
    <glyph glyph-name="D" unicode="D" horiz-adv-x="576" 
d="M50 0v650h202c178 0 292 -85 292 -300v-51c0 -214 -114 -299 -292 -299h-202zM424 299v51c0 142 -60 188 -172 188h-82v-427h82c112 0 172 46 172 188z" />
    <glyph glyph-name="E" unicode="E" horiz-adv-x="518" 
d="M170 287v-176h334v-111h-454v650h454v-112h-334v-140h294v-111h-294z" />
    <glyph glyph-name="F" unicode="F" horiz-adv-x="501" 
d="M170 287v-287h-120v650h445v-112h-325v-140h285v-111h-285z" />
    <glyph glyph-name="G" unicode="G" horiz-adv-x="569" 
d="M309 261v103h228v-313c-44 -29 -109 -62 -209 -62c-172 0 -296 90 -296 312v48c0 220 124 311 296 311c91 0 146 -28 200 -57l-35 -108c-39 26 -104 53 -165 53c-106 0 -176 -55 -176 -199v-48c0 -147 70 -201 176 -201c32 0 63 6 89 14v147h-108z" />
    <glyph glyph-name="H" unicode="H" horiz-adv-x="594" 
d="M170 287v-287h-120v650h120v-252h254v252h120v-650h-120v287h-254z" />
    <glyph glyph-name="I" unicode="I" horiz-adv-x="220" 
d="M50 0v650h120v-650h-120z" />
    <glyph glyph-name="J" unicode="J" horiz-adv-x="433" 
d="M383 650v-436c0 -168 -87 -225 -200 -225c-71 0 -122 17 -171 43l35 108c32 -21 74 -40 127 -40s89 16 89 114v324h-201v112h321z" />
    <glyph glyph-name="K" unicode="K" horiz-adv-x="575" 
d="M183 340l230 310h142l-230 -310l250 -340h-142zM50 0v650h120v-650h-120z" />
    <glyph glyph-name="L" unicode="L" horiz-adv-x="473" 
d="M50 0v650h120v-539h294v-111h-414z" />
    <glyph glyph-name="M" unicode="M" horiz-adv-x="700" 
d="M50 0v650h115l186 -293l185 293h114v-650h-120v434l-179 -283l-181 283v-434h-120z" />
    <glyph glyph-name="N" unicode="N" horiz-adv-x="594" 
d="M50 0v650h115l259 -424v424h120v-650h-114l-260 422v-422h-120z" />
    <glyph glyph-name="O" unicode="O" horiz-adv-x="599" 
d="M446 301v47c0 150 -58 200 -146 200c-89 0 -147 -50 -147 -200v-47c0 -151 58 -201 147 -201c88 0 146 50 146 201zM32 301v47c0 223 113 312 268 312c154 0 267 -89 267 -312v-47c0 -224 -113 -312 -267 -312c-155 0 -268 88 -268 312z" />
    <glyph glyph-name="P" unicode="P" horiz-adv-x="558" 
d="M50 650h247c177 0 247 -87 247 -215c0 -127 -70 -213 -247 -213h-127v-222h-120v650zM297 538h-127v-205h127c96 0 127 36 127 102c0 67 -31 103 -127 103z" />
    <glyph glyph-name="Q" unicode="Q" horiz-adv-x="599" 
d="M101 -152v111c112 100 287 -100 399 0v-111c-112 -100 -287 100 -399 0zM446 301v47c0 150 -58 200 -146 200c-89 0 -147 -50 -147 -200v-47c0 -151 58 -201 147 -201c88 0 146 50 146 201zM32 301v47c0 223 113 312 268 312c154 0 267 -89 267 -312v-47
c0 -224 -113 -312 -267 -312c-155 0 -268 88 -268 312z" />
    <glyph glyph-name="R" unicode="R" horiz-adv-x="595" 
d="M458 0l-160 243h-128v-243h-120v650h247c177 0 247 -82 247 -204c0 -86 -42 -151 -124 -182l175 -264h-137zM297 538h-127v-183h127c96 0 127 36 127 91c0 59 -31 92 -127 92z" />
    <glyph glyph-name="S" unicode="S" horiz-adv-x="489" 
d="M24 46l34 108c105 -76 286 -74 286 26c0 125 -310 53 -310 290c0 210 278 231 409 133l-34 -108c-97 76 -255 71 -255 -19c0 -136 311 -61 311 -286c0 -227 -301 -242 -441 -144z" />
    <glyph glyph-name="T" unicode="T" horiz-adv-x="552" 
d="M19 538v112h513v-112h-196v-538h-120v538h-197z" />
    <glyph glyph-name="U" unicode="U" horiz-adv-x="598" 
d="M42 304v346h120v-346c0 -154 54 -204 137 -204c82 0 137 50 137 204v346h120v-346c0 -227 -109 -315 -257 -315s-257 88 -257 315z" />
    <glyph glyph-name="V" unicode="V" horiz-adv-x="594" 
d="M594 650l-236 -650h-122l-236 650h122l175 -497l175 497h122z" />
    <glyph glyph-name="W" unicode="W" horiz-adv-x="906" 
d="M513 650l136 -469l136 469h120l-196 -650h-120l-136 452l-136 -452h-120l-196 650h120l136 -469l136 469h120z" />
    <glyph glyph-name="X" unicode="X" horiz-adv-x="590" 
d="M157 650l138 -216l138 216h137l-207 -310l227 -340h-137l-158 245l-158 -245h-137l226 340l-206 310h137z" />
    <glyph glyph-name="Y" unicode="Y" horiz-adv-x="618" 
d="M618 650l-248 -398v-252h-121v250l-249 400h136l173 -290l173 290h136z" />
    <glyph glyph-name="Z" unicode="Z" 
d="M25 538v112h475v-95l-337 -444h357v-111h-515v94l337 444h-317z" />
    <glyph glyph-name="a" unicode="a" horiz-adv-x="487" 
d="M453 324v-309c-60 -18 -137 -26 -219 -26c-109 0 -215 54 -215 170v7c0 95 89 148 239 152c27 1 53 2 79 3v20c0 46 -43 61 -109 61c-64 0 -116 -16 -151 -31c-12 35 -22 69 -34 104c56 21 116 36 194 36c122 0 216 -48 216 -187zM337 106v124c-126 -1 -202 -7 -202 -64
v-7c0 -43 45 -61 102 -61c44 0 72 3 100 8z" />
    <glyph glyph-name="b" unicode="b" horiz-adv-x="517" 
d="M50 15v685h116v-202c23 9 52 13 80 13c137 0 239 -80 239 -253v-16c0 -168 -96 -253 -237 -253c-41 0 -134 5 -198 26zM368 242v16c0 117 -54 144 -130 144c-35 0 -60 -8 -72 -15v-281c23 -5 43 -8 77 -8c78 0 125 30 125 144z" />
    <glyph glyph-name="c" unicode="c" horiz-adv-x="451" 
d="M32 247v12c0 172 104 252 246 252c62 0 109 -19 151 -44c-11 -34 -23 -68 -33 -101c-28 19 -68 36 -118 36c-79 0 -129 -37 -129 -143v-12c0 -108 60 -149 139 -149c41 0 82 10 117 28c10 -33 22 -66 33 -100c-42 -24 -88 -37 -150 -37c-162 0 -256 109 -256 258z" />
    <glyph glyph-name="d" unicode="d" horiz-adv-x="517" 
d="M467 700v-685c-63 -21 -155 -26 -197 -26c-142 0 -238 85 -238 253v16c0 173 102 253 239 253c28 0 57 -4 80 -13v202h116zM149 258v-16c0 -114 47 -144 125 -144c35 0 53 3 77 8v281c-12 6 -37 15 -71 15c-77 0 -131 -27 -131 -144z" />
    <glyph glyph-name="e" unicode="e" horiz-adv-x="518" 
d="M487 258v-51h-336v-5c0 -63 49 -104 133 -104c63 0 125 11 160 23l34 -104c-53 -17 -121 -28 -194 -28c-155 0 -252 75 -252 253v16c0 178 89 253 228 253c138 0 227 -75 227 -253zM151 298v-5h217v5c0 68 -42 104 -108 104c-67 0 -109 -36 -109 -104z" />
    <glyph glyph-name="f" unicode="f" horiz-adv-x="333" 
d="M50 0v524c0 138 79 187 186 187c52 0 99 -11 133 -27l-34 -104c-25 12 -58 22 -99 22c-42 0 -70 -20 -70 -78v-24h167v-110h-167v-390h-116z" />
    <glyph glyph-name="g" unicode="g" horiz-adv-x="517" 
d="M467 485v-517c0 -147 -95 -218 -226 -218c-78 0 -140 17 -195 46c11 34 23 69 33 103c42 -25 98 -39 162 -39c65 0 110 29 110 108v29c-25 -6 -53 -8 -90 -8c-132 0 -229 85 -229 258v11c0 173 104 253 259 253c67 0 130 -8 176 -26zM149 258v-11c0 -103 38 -140 99 -147
c12 -2 25 -1 37 -1c30 0 49 4 66 8v287c-21 5 -42 8 -71 8c-80 0 -131 -30 -131 -144z" />
    <glyph glyph-name="h" unicode="h" 
d="M50 0v700h116v-197c30 3 64 8 100 8c126 0 218 -67 218 -219v-292h-115v301c0 77 -44 101 -111 101c-43 0 -72 -5 -92 -12v-390h-116z" />
    <glyph glyph-name="i" unicode="i" horiz-adv-x="221" 
d="M53 0v500h116v-500h-116zM40 637c0 39 32 70 71 70s70 -31 70 -70s-31 -71 -70 -71s-71 32 -71 71z" />
    <glyph glyph-name="j" unicode="j" horiz-adv-x="225" 
d="M170 500v-568c0 -134 -75 -182 -170 -182c-33 0 -59 8 -79 20l34 102c12 -8 26 -12 45 -12c32 0 54 18 54 72v568h116zM42 637c0 39 31 70 70 70s71 -31 71 -70s-32 -71 -71 -71s-70 32 -70 71z" />
    <glyph glyph-name="k" unicode="k" horiz-adv-x="536" 
d="M179 263l192 237h145l-192 -237l212 -263h-145zM50 0v700h116v-700h-116z" />
    <glyph glyph-name="l" unicode="l" horiz-adv-x="266" 
d="M50 174v526h116v-527c0 -55 15 -73 38 -73c14 0 21 3 30 7l33 -103c-22 -7 -45 -13 -80 -13c-77 0 -137 47 -137 183z" />
    <glyph glyph-name="m" unicode="m" horiz-adv-x="798" 
d="M50 0v485c48 15 127 26 205 26c51 0 97 -11 132 -41c42 28 105 41 163 41c119 0 207 -67 207 -219v-292h-115v301c0 77 -39 101 -100 101c-44 0 -78 -7 -99 -15c11 -28 18 -54 18 -95v-292h-115v301c0 77 -39 101 -100 101c-37 0 -54 -2 -80 -7v-395h-116z" />
    <glyph glyph-name="n" unicode="n" 
d="M50 0v485c50 15 133 26 216 26c126 0 218 -67 218 -219v-292h-115v301c0 77 -44 101 -111 101c-43 0 -63 -2 -92 -7v-395h-116z" />
    <glyph glyph-name="o" unicode="o" horiz-adv-x="529" 
d="M380 245v10c0 112 -41 147 -115 147s-116 -35 -116 -147v-10c0 -112 42 -147 116 -147s115 35 115 147zM32 245v10c0 182 99 256 233 256c133 0 232 -74 232 -256v-10c0 -182 -99 -256 -232 -256c-134 0 -233 74 -233 256z" />
    <glyph glyph-name="p" unicode="p" horiz-adv-x="517" 
d="M50 -250v735c63 21 155 26 196 26c142 0 239 -85 239 -253v-16c0 -174 -101 -253 -237 -253c-29 0 -59 4 -82 13v-252h-116zM368 242v16c0 114 -47 144 -126 144c-36 0 -57 -4 -76 -8v-281c13 -8 40 -15 73 -15c76 0 129 27 129 144z" />
    <glyph glyph-name="q" unicode="q" horiz-adv-x="517" 
d="M467 485v-735h-116v252c-23 -9 -53 -13 -81 -13c-136 0 -238 79 -238 253v16c0 168 97 253 239 253c40 0 133 -5 196 -26zM149 258v-16c0 -117 53 -144 129 -144c32 0 60 7 73 15v281c-21 5 -41 8 -76 8c-79 0 -126 -30 -126 -144z" />
    <glyph glyph-name="r" unicode="r" horiz-adv-x="349" 
d="M50 0v485c48 17 119 26 179 26c50 0 82 -5 119 -14l-35 -106c-22 6 -43 10 -76 10c-36 0 -53 -3 -71 -6v-395h-116z" />
    <glyph glyph-name="s" unicode="s" horiz-adv-x="454" 
d="M32 26l34 104c66 -41 239 -45 239 9c0 90 -261 18 -261 217c0 172 254 187 368 111l-34 -105c-69 52 -217 54 -217 -4c0 -87 261 -18 261 -208c0 -191 -296 -182 -390 -124z" />
    <glyph glyph-name="t" unicode="t" horiz-adv-x="386" 
d="M50 177v473h116v-150h176v-110h-176v-214c0 -58 28 -77 70 -77c41 0 81 10 107 23l33 -102c-37 -20 -85 -30 -140 -30c-107 0 -186 49 -186 187z" />
    <glyph glyph-name="u" unicode="u" 
d="M475 500v-485c-66 -17 -133 -26 -216 -26c-125 0 -218 67 -218 219v292h115v-301c0 -77 44 -101 112 -101c42 0 67 2 91 7v395h116z" />
    <glyph glyph-name="v" unicode="v" horiz-adv-x="520" 
d="M122 500l138 -359l138 359h122l-200 -500h-121l-199 500h122z" />
    <glyph glyph-name="w" unicode="w" horiz-adv-x="812" 
d="M129 500l108 -349l109 349h120l108 -349l109 349h120l-168 -500h-121l-109 321l-107 -321h-121l-168 500h120z" />
    <glyph glyph-name="x" unicode="x" horiz-adv-x="540" 
d="M162 500l108 -150l108 150h142l-179 -237l199 -263h-142l-128 175l-128 -175h-142l199 263l-179 237h142z" />
    <glyph glyph-name="y" unicode="y" 
d="M475 500v-532c0 -147 -95 -218 -226 -218c-79 0 -142 17 -197 46l34 103c42 -25 99 -39 163 -39c65 0 110 29 110 108v31c-27 -7 -70 -10 -100 -10c-118 0 -218 60 -218 219v292h115v-301c0 -77 44 -101 112 -101c40 0 63 3 91 8v394h116z" />
    <glyph glyph-name="z" unicode="z" horiz-adv-x="488" 
d="M27 390v110h434v-110l-273 -281h273v-109h-434v109l273 281h-273z" />
    <glyph glyph-name="comma" unicode="," horiz-adv-x="232" 
d="M34 60c0 39 32 71 72 71c54 0 76 -49 75 -102c0 -48 -21 -148 -110 -194l-35 33c29 27 58 71 62 121c-37 4 -64 34 -64 71z" />
    <glyph glyph-name="period" unicode="." horiz-adv-x="238" 
d="M48 60c0 39 32 71 71 71c40 0 72 -32 72 -71c0 -40 -32 -72 -72 -72c-39 0 -71 32 -71 72z" />
    <glyph glyph-name="zero" unicode="0" horiz-adv-x="557" 
d="M404 305v40c0 153 -50 203 -126 203c-75 0 -125 -50 -125 -203v-40c0 -155 50 -205 125 -205c76 0 126 50 126 205zM32 305v40c0 225 102 315 246 315c145 0 247 -90 247 -315v-40c0 -226 -102 -316 -247 -316c-144 0 -246 90 -246 316z" />
    <glyph glyph-name="one" unicode="1" horiz-adv-x="305" 
d="M1 538v112h254v-650h-120v538h-134z" />
    <glyph glyph-name="two" unicode="2" horiz-adv-x="483" 
d="M461 438c0 -129 -110 -209 -258 -327h258v-111h-443v111c208 165 323 229 323 327c0 57 -31 110 -125 110c-59 0 -128 -26 -166 -55l-35 107c47 33 114 60 201 60c127 0 245 -75 245 -222z" />
    <glyph glyph-name="three" unicode="3" horiz-adv-x="479" 
d="M164 289v103h38c96 0 119 36 119 79c0 47 -27 77 -108 77c-58 0 -116 -26 -153 -53l-36 109c50 27 103 56 189 56c143 0 229 -73 229 -189c0 -60 -35 -107 -82 -134c52 -28 92 -78 92 -143c0 -129 -93 -205 -239 -205c-90 0 -145 27 -199 61l36 108
c39 -32 101 -58 163 -58c87 0 118 31 118 94c0 50 -34 95 -129 95h-38z" />
    <glyph glyph-name="four" unicode="4" horiz-adv-x="523" 
d="M26 244l183 406h126l-183 -406h216v246h120v-490h-120v132h-342v112z" />
    <glyph glyph-name="five" unicode="5" horiz-adv-x="495" 
d="M49 300v350h404v-112h-284v-127h44c167 0 260 -85 260 -212c0 -143 -110 -210 -246 -210c-87 0 -136 13 -204 60l35 106c52 -39 102 -55 165 -55c93 0 130 38 130 96c0 86 -58 104 -181 104h-123z" />
    <glyph glyph-name="six" unicode="6" horiz-adv-x="520" 
d="M280 405c121 0 218 -59 218 -201c0 -151 -95 -215 -210 -215c-205 0 -256 144 -256 324c0 228 77 347 264 347c80 0 143 -22 196 -60l-35 -107c-43 34 -101 55 -165 55c-98 0 -136 -69 -136 -165c41 17 84 22 124 22zM276 303c-38 0 -75 -4 -120 -26
c0 -108 23 -177 129 -177c47 0 93 29 93 104c0 78 -52 99 -102 99z" />
    <glyph glyph-name="seven" unicode="7" horiz-adv-x="469" 
d="M198 0h-128l260 538h-319v112h447v-112z" />
    <glyph glyph-name="eight" unicode="8" horiz-adv-x="536" 
d="M268 660c129 0 223 -82 223 -173c0 -62 -24 -107 -78 -139c64 -29 100 -88 100 -158c0 -107 -86 -201 -245 -201s-245 94 -245 201c0 70 36 129 100 158c-53 32 -78 77 -78 139c0 91 95 173 223 173zM144 198c0 -60 45 -98 124 -98c80 0 125 38 125 98
c0 58 -45 98 -125 98c-79 0 -124 -40 -124 -98zM165 470c0 -48 38 -78 103 -78s103 30 103 78c0 39 -33 79 -103 79s-103 -39 -103 -79z" />
    <glyph glyph-name="nine" unicode="9" horiz-adv-x="520" 
d="M241 245c-121 0 -219 59 -219 200c0 150 96 215 210 215c206 0 256 -145 256 -323c0 -230 -76 -348 -265 -348c-78 0 -141 21 -194 60l34 106c43 -33 103 -55 165 -55c99 0 136 70 136 167c-41 -17 -84 -22 -123 -22zM244 348c38 0 75 3 120 26c0 105 -23 174 -128 174
c-47 0 -94 -28 -94 -103c0 -77 53 -97 102 -97z" />
    <glyph glyph-name="bracketleft" unicode="[" horiz-adv-x="360" 
d="M310 -166v-84h-230v1000h230v-84h-137v-832h137z" />
    <glyph glyph-name="backslash" unicode="\" horiz-adv-x="320" 
d="M-13 750h95l250 -780h-92z" />
    <glyph glyph-name="bracketright" unicode="]" horiz-adv-x="360" 
d="M50 -250v84h138v832h-138v84h231v-1000h-231z" />
    <glyph glyph-name="colon" unicode=":" horiz-adv-x="238" 
d="M48 60c0 39 32 71 71 71c40 0 72 -32 72 -71c0 -40 -32 -72 -72 -72c-39 0 -71 32 -71 72zM48 440c0 40 32 72 71 72c40 0 72 -33 72 -72s-32 -71 -72 -71c-39 0 -71 32 -71 71z" />
    <glyph glyph-name="semicolon" unicode=";" horiz-adv-x="237" 
d="M47 440c0 40 32 72 72 72c39 0 71 -33 71 -72s-32 -71 -71 -71c-40 0 -72 32 -72 71zM47 60c0 39 32 71 72 71c54 0 75 -49 75 -102c-1 -48 -22 -148 -110 -194l-36 33c30 27 59 71 62 121c-36 4 -63 34 -63 71z" />
    <glyph glyph-name="less" unicode="&#x3c;" horiz-adv-x="551" 
d="M514 129v-102l-477 261v71l477 260v-101l-358 -195z" />
    <glyph glyph-name="equal" unicode="=" horiz-adv-x="560" 
d="M517 249v-84h-475v84h475zM517 486v-84h-475v84h475z" />
    <glyph glyph-name="greater" unicode="&#x3e;" horiz-adv-x="551" 
d="M37 27v102l358 194l-358 195v101l477 -260v-71z" />
    <glyph glyph-name="at" unicode="@" horiz-adv-x="1138" 
d="M978 311c0 270 -176 355 -418 355c-245 0 -400 -122 -400 -405c0 -328 189 -424 409 -427c169 -2 285 35 341 53l28 -84c-60 -18 -193 -55 -369 -53c-276 3 -502 140 -502 511c1 306 169 489 493 489c286 0 511 -111 511 -439c0 -164 -48 -325 -213 -325
c-77 0 -123 35 -142 88c-16 -41 -74 -88 -164 -88c-201 0 -220 178 -220 265c0 103 49 262 251 262c86 0 165 -33 200 -54v-284c0 -76 21 -105 75 -105c101 0 120 120 120 241zM690 249v151c-21 13 -54 29 -107 29c-126 0 -158 -93 -158 -178c0 -54 -4 -181 127 -181
c92 0 138 48 138 179z" />
    <glyph glyph-name="parenleft" unicode="(" horiz-adv-x="384" 
d="M52 250c0 204 64 365 215 500l71 -64c-116 -89 -193 -235 -193 -436s77 -346 193 -436l-71 -64c-151 135 -215 296 -215 500z" />
    <glyph glyph-name="parenright" unicode=")" horiz-adv-x="384" 
d="M332 250c0 -204 -64 -365 -215 -500l-71 64c116 90 193 235 193 436s-77 347 -193 436l71 64c151 -135 215 -296 215 -500z" />
    <glyph glyph-name="fraction" unicode="&#x2044;" horiz-adv-x="318" 
d="M268 727h97l-318 -818h-94z" />
    <glyph glyph-name="braceleft" unicode="{" horiz-adv-x="520" 
d="M63 217v84h55c75 0 112 57 112 152v100c0 128 70 197 174 197h70v-84h-68c-58 0 -84 -41 -84 -135v-97c0 -66 -16 -140 -83 -175c65 -32 83 -105 83 -175v-115c0 -94 26 -135 84 -135h68v-84h-70c-100 0 -174 68 -174 197v118c0 96 -37 152 -112 152h-55z" />
    <glyph glyph-name="bar" unicode="|" horiz-adv-x="253" 
d="M173 750v-1000h-93v1000h93z" />
    <glyph glyph-name="braceright" unicode="}" horiz-adv-x="520" 
d="M457 301v-84h-54c-75 0 -112 -56 -112 -152v-118c0 -129 -75 -197 -174 -197h-71v84h68c58 0 84 41 84 135v115c1 70 18 143 83 175c-67 35 -83 109 -83 175v97c0 94 -26 135 -84 135h-68v84h71c103 0 174 -69 174 -197v-100c0 -95 37 -152 112 -152h54z" />
    <glyph glyph-name="slash" unicode="/" horiz-adv-x="319" 
d="M237 750h95l-252 -780h-93z" />
    <glyph glyph-name="space" unicode=" " horiz-adv-x="218" 
 />
    <glyph glyph-name="exclam" unicode="!" horiz-adv-x="318" 
d="M103 650h113v-238c0 -77 -16 -157 -16 -234h-81c0 77 -16 157 -16 234v238zM87 61c0 39 32 71 72 71c39 0 71 -32 71 -71c0 -40 -32 -72 -71 -72c-40 0 -72 32 -72 72z" />
    <glyph glyph-name="question" unicode="?" horiz-adv-x="485" 
d="M79 61c0 39 32 71 72 71c39 0 71 -32 71 -71c0 -40 -32 -72 -71 -72c-40 0 -72 32 -72 72zM453 462c0 -122 -109 -169 -175 -202c-45 -22 -67 -46 -67 -80h-120c0 81 57 135 116 166c57 32 126 49 126 116c0 58 -46 87 -125 87c-54 0 -110 -14 -137 -28l-35 107
c37 16 90 32 172 32c140 0 245 -69 245 -198z" />
    <glyph glyph-name="dotlessi" unicode="&#x131;" horiz-adv-x="221" 
d="M52 0v500h116v-500h-116z" />
    <glyph glyph-name="plus" unicode="+" horiz-adv-x="629" 
d="M586 381v-110h-213v-202h-118v202h-213v110h213v202h118v-202h213z" />
    <glyph glyph-name="hyphen" unicode="-" horiz-adv-x="334" 
d="M315 305v-110h-296v110h296z" />
    <glyph glyph-name="Lslash" unicode="&#x141;" horiz-adv-x="472" 
d="M-38 274l-30 79l125 45v252h120v-209l132 48l30 -79l-162 -59v-240h294v-111h-414v308z" />
    <glyph glyph-name="lslash" unicode="&#x142;" horiz-adv-x="271" 
d="M-25 282l-29 79l108 40v299h116v-257l82 29l29 -79l-111 -40v-180c0 -55 15 -73 38 -73c14 0 21 3 30 7l34 -103c-23 -7 -46 -13 -81 -13c-77 0 -137 47 -137 183v137z" />
    <glyph glyph-name="quotedbl" unicode="&#x22;" horiz-adv-x="320" 
d="M194 514v209h84l-1 -209h-83zM43 514l-1 209h84v-209h-83z" />
    <glyph glyph-name="numbersign" unicode="#" horiz-adv-x="696" 
d="M359 0l39 152h-183l-38 -152h-97l39 152h-122v85h143l49 191h-147v86h167l39 150h97l-39 -150h182l39 150h97l-39 -150h113v-86h-134l-48 -191h137v-85h-159l-38 -152h-97zM285 428l-48 -191h182l49 191h-183z" />
    <glyph glyph-name="dollar" unicode="$" horiz-adv-x="489" 
d="M24 46l34 108c105 -76 286 -74 286 26c0 125 -310 53 -310 290c0 101 64 158 145 179v157h115v-149c55 -5 109 -24 149 -54l-34 -108c-97 76 -255 71 -255 -19c0 -136 311 -61 311 -286c0 -115 -77 -176 -171 -194v-152h-115v148c-58 6 -114 25 -155 54z" />
    <glyph glyph-name="percent" unicode="%" horiz-adv-x="1096" 
d="M426 438c0 -143 -73 -222 -188 -222c-112 0 -188 79 -188 222c0 142 76 222 188 222c115 0 188 -80 188 -222zM312 438c0 81 -24 112 -74 112c-49 0 -73 -31 -73 -112c0 -86 24 -113 73 -113c50 0 74 27 74 113zM1046 211c0 -143 -73 -222 -188 -222
c-112 0 -188 79 -188 222c0 142 75 222 188 222c115 0 188 -80 188 -222zM932 211c0 81 -25 112 -74 112s-73 -31 -73 -112c0 -86 24 -112 73 -112s74 26 74 112zM653 650h129l-339 -650h-128z" />
    <glyph glyph-name="ampersand" unicode="&#x26;" horiz-adv-x="618" 
d="M617 295h-98v-70c0 -180 -116 -236 -243 -236c-113 0 -244 61 -244 198c0 76 36 129 103 160c-61 34 -81 85 -81 142c0 98 96 171 222 171c68 0 108 -14 150 -36l-52 -98c-21 10 -57 22 -101 22c-59 0 -99 -27 -99 -73c0 -42 21 -83 103 -83h122v100h120v-100h98v-97z
M153 196c0 -74 68 -98 123 -98c57 0 123 19 123 127v70h-122c-70 0 -124 -33 -124 -99z" />
    <glyph glyph-name="quotesingle" unicode="'" horiz-adv-x="170" 
d="M43 514l-1 209h86l-1 -209h-84z" />
    <glyph glyph-name="breve" unicode="&#x2d8;" horiz-adv-x="476" 
d="M238 750c-69 0 -139 45 -139 127v13h73v-13c0 -45 33 -64 66 -64s66 19 66 65v12h73v-13c0 -82 -69 -127 -139 -127z" />
    <glyph glyph-name="dotaccent" unicode="&#x2d9;" horiz-adv-x="238" 
d="M48 822c0 39 32 71 71 71c40 0 72 -32 72 -71c0 -40 -32 -72 -72 -72c-39 0 -71 32 -71 72z" />
    <glyph glyph-name="ring" unicode="&#x2da;" horiz-adv-x="350" 
d="M175 750c-46 0 -88 28 -88 78c0 51 42 79 88 79s88 -28 88 -79c0 -50 -42 -78 -88 -78zM175 791c22 0 37 16 37 37c0 22 -15 38 -37 38s-38 -16 -38 -38c0 -21 16 -37 38 -37z" />
    <glyph glyph-name="hungarumlaut" unicode="&#x2dd;" horiz-adv-x="497" 
d="M223 750l77 136h107l-100 -136h-84zM90 750l72 136h107l-95 -136h-84z" />
    <glyph glyph-name="ogonek" unicode="&#x2db;" horiz-adv-x="354" 
d="M104 19h77c-51 -83 18 -168 111 -113v-81c-137 -71 -246 48 -188 194z" />
    <glyph glyph-name="caron" unicode="&#x2c7;" horiz-adv-x="464" 
d="M183 750l-92 136h86l53 -86h2l54 86h86l-93 -136h-96z" />
    <glyph glyph-name="asterisk" unicode="*" horiz-adv-x="478" 
d="M286 747l-7 -142l131 52l28 -88l-135 -38l87 -108l-74 -54l-78 116l-76 -115l-75 54l89 108l-136 38l29 88l131 -51l-7 140h93z" />
    <glyph glyph-name="asciicircum" unicode="^" horiz-adv-x="568" 
d="M328 710l198 -407h-105l-138 314l-138 -315h-103l197 408h89z" />
    <glyph glyph-name="underscore" unicode="_" horiz-adv-x="521" 
d="M519 -10v-92h-518v92h518z" />
    <glyph glyph-name="grave" unicode="`" horiz-adv-x="305" 
d="M161 750l-101 136h109l76 -136h-84z" />
    <glyph glyph-name="asciitilde" unicode="~" horiz-adv-x="573" 
d="M42 199c0 123 54 182 148 182c102 0 116 -101 187 -101c46 0 65 43 65 97h89c0 -123 -52 -182 -147 -182c-102 0 -114 100 -187 100c-46 0 -65 -44 -65 -96h-90z" />
    <glyph glyph-name="Euro" unicode="&#x20ac;" horiz-adv-x="635" 
d="M232 344v-40v-19h263v-84h-246c25 -73 83 -101 159 -101c71 0 139 30 165 54l44 -103c-45 -29 -109 -62 -209 -62c-143 0 -252 62 -285 212h-103v84h92v19v40v13h-92v84h102c31 154 141 219 286 219c90 0 155 -28 209 -62l-44 -103c-39 26 -104 53 -165 53
c-78 0 -137 -31 -161 -107h248v-84h-263v-13z" />
    <glyph glyph-name="quotesinglbase" unicode="&#x201a;" horiz-adv-x="232" 
d="M34 60c0 39 32 71 72 71c54 0 76 -49 75 -102c0 -48 -21 -148 -110 -194l-35 33c29 27 58 71 62 121c-37 4 -64 34 -64 71z" />
    <glyph glyph-name="florin" unicode="&#x192;" horiz-adv-x="545" 
d="M548 669v-106c-23 3 -45 6 -63 6c-94 0 -115 -13 -139 -195h152v-108h-170c-41 -283 -44 -450 -255 -450c-26 0 -54 5 -81 11v106c30 -7 51 -9 72 -9c104 0 100 68 145 342h-112v108h128c26 178 46 299 218 303c14 0 27 1 38 0c20 -1 40 -3 67 -8z" />
    <glyph glyph-name="quotedblbase" unicode="&#x201e;" horiz-adv-x="428" 
d="M231 60c0 39 32 71 72 71c54 0 75 -49 75 -102c-1 -48 -22 -148 -110 -194l-36 33c30 27 59 71 62 121c-36 4 -63 34 -63 71zM34 60c0 39 32 71 72 71c54 0 76 -49 75 -102c0 -48 -21 -148 -110 -194l-35 33c29 27 58 71 62 121c-37 4 -64 34 -64 71z" />
    <glyph glyph-name="ellipsis" unicode="&#x2026;" horiz-adv-x="890" 
d="M699 60c0 39 32 71 72 71c39 0 71 -32 71 -71c0 -40 -32 -72 -71 -72c-40 0 -72 32 -72 72zM373 60c0 39 32 71 72 71c39 0 71 -32 71 -71c0 -40 -32 -72 -71 -72c-40 0 -72 32 -72 72zM48 60c0 39 32 71 71 71c40 0 72 -32 72 -71c0 -40 -32 -72 -72 -72
c-39 0 -71 32 -71 72z" />
    <glyph glyph-name="dagger" unicode="&#x2020;" horiz-adv-x="516" 
d="M480 520v-93h-163v-512h-118v512h-163v93h163v203h118v-203h163z" />
    <glyph glyph-name="daggerdbl" unicode="&#x2021;" horiz-adv-x="516" 
d="M480 520v-93h-163v-229h163v-92h-163v-191h-118v191h-163v92h163v229h-163v93h163v203h118v-203h163z" />
    <glyph glyph-name="circumflex" unicode="&#x2c6;" horiz-adv-x="440" 
d="M80 750l91 136h97l92 -136h-85l-54 85h-2l-54 -85h-85z" />
    <glyph glyph-name="perthousand" unicode="&#x2030;" horiz-adv-x="1546" 
d="M426 438c0 -143 -73 -222 -188 -222c-112 0 -188 79 -188 222c0 142 76 222 188 222c115 0 188 -80 188 -222zM312 438c0 81 -24 112 -74 112c-49 0 -73 -31 -73 -112c0 -86 24 -113 73 -113c50 0 74 27 74 113zM1046 211c0 -143 -73 -222 -188 -222
c-112 0 -188 79 -188 222c0 142 75 222 188 222c115 0 188 -80 188 -222zM932 211c0 81 -25 112 -74 112s-73 -31 -73 -112c0 -86 24 -112 73 -112s74 26 74 112zM653 650h129l-339 -650h-128zM1496 211c0 -143 -73 -222 -188 -222c-112 0 -188 79 -188 222
c0 142 75 222 188 222c115 0 188 -80 188 -222zM1382 211c0 81 -25 112 -74 112s-73 -31 -73 -112c0 -86 24 -112 73 -112s74 26 74 112z" />
    <glyph glyph-name="guilsinglleft" unicode="&#x2039;" horiz-adv-x="329" 
d="M297 149v-110l-265 206v43l265 206v-110l-170 -118z" />
    <glyph glyph-name="OE" unicode="&#x152;" horiz-adv-x="914" 
d="M32 301v47c0 223 113 312 268 312c55 0 106 -14 146 -42v32h454v-112h-334v-140h294v-111h-294v-176h334v-111h-454v30c-40 -28 -91 -41 -146 -41c-155 0 -268 88 -268 312zM446 301v57c-3 142 -61 190 -146 190c-89 0 -147 -50 -147 -200v-47c0 -151 58 -201 147 -201
c88 0 146 50 146 201z" />
    <glyph glyph-name="quoteleft" unicode="&#x2018;" horiz-adv-x="247" 
d="M197 542c0 -40 -32 -72 -71 -72c-54 0 -76 50 -76 103c1 47 22 148 111 194c12 -11 23 -22 35 -33c-29 -27 -59 -71 -62 -121c36 -4 63 -34 63 -71z" />
    <glyph glyph-name="quoteright" unicode="&#x2019;" horiz-adv-x="247" 
d="M50 696c0 39 32 71 71 71c54 0 76 -49 75 -102c0 -48 -21 -149 -110 -195l-35 34c29 27 58 71 62 121c-36 4 -63 34 -63 71z" />
    <glyph glyph-name="quotedblleft" unicode="&#x201c;" horiz-adv-x="444" 
d="M394 542c0 -40 -32 -72 -72 -72c-54 0 -75 50 -75 103c1 47 22 148 111 194c11 -11 23 -22 35 -33c-30 -27 -59 -71 -62 -121c36 -4 63 -34 63 -71zM197 542c0 -40 -32 -72 -71 -72c-54 0 -76 50 -76 103c1 47 22 148 111 194c12 -11 23 -22 35 -33
c-29 -27 -59 -71 -62 -121c36 -4 63 -34 63 -71z" />
    <glyph glyph-name="quotedblright" unicode="&#x201d;" horiz-adv-x="444" 
d="M50 696c0 39 32 71 71 71c54 0 76 -49 75 -102c0 -48 -21 -149 -110 -195l-35 34c29 27 58 71 62 121c-36 4 -63 34 -63 71zM246 696c0 39 32 71 72 71c54 0 76 -49 75 -102c0 -48 -21 -149 -110 -195l-35 34c29 27 58 71 62 121c-37 4 -64 34 -64 71z" />
    <glyph glyph-name="bullet" unicode="&#x2022;" horiz-adv-x="345" 
d="M304 318c0 -58 -48 -120 -132 -120c-83 0 -131 62 -131 120c0 60 49 121 131 121c80 0 132 -61 132 -121z" />
    <glyph glyph-name="endash" unicode="&#x2013;" horiz-adv-x="597" 
d="M42 265v109h513v-109h-513z" />
    <glyph glyph-name="emdash" unicode="&#x2014;" horiz-adv-x="792" 
d="M42 241v88h708v-88h-708z" />
    <glyph glyph-name="tilde" unicode="&#x2dc;" horiz-adv-x="512" 
d="M79 753c0 91 37 137 110 137c72 0 84 -72 129 -72c30 0 44 30 44 69h71c0 -90 -36 -137 -110 -137c-71 0 -83 72 -129 72c-29 0 -44 -29 -44 -69h-71z" />
    <glyph glyph-name="trademark" unicode="&#x2122;" horiz-adv-x="946" 
d="M892 650v-399h-91v324l-87 -324h-82l-90 324v-324h-91v399h154l69 -276l68 276h150zM366 650v-82h-120v-317h-90v317h-120v82h330z" />
    <glyph glyph-name="guilsinglright" unicode="&#x203a;" horiz-adv-x="329" 
d="M32 39v110l170 117l-170 118v110l265 -206v-43z" />
    <glyph glyph-name="oe" unicode="&#x153;" horiz-adv-x="823" 
d="M791 256v-52h-319v-6c0 -60 50 -100 124 -100c63 0 124 19 159 39c11 -33 23 -67 34 -101c-52 -30 -119 -47 -193 -47c-78 0 -142 22 -183 69c-38 -48 -97 -69 -162 -69c-123 0 -219 74 -219 256v10c0 182 96 256 219 256c64 0 121 -21 159 -67c38 45 94 67 162 67
c130 0 219 -75 219 -255zM353 240v24c-1 104 -40 138 -102 138c-64 0 -102 -35 -102 -147v-10c0 -112 38 -147 102 -147c62 0 102 33 102 142zM472 297v-6h200v1v4c0 70 -42 106 -100 106c-57 0 -100 -35 -100 -105z" />
    <glyph glyph-name="Ydieresis" unicode="&#x178;" horiz-adv-x="618" 
d="M618 650l-248 -398v-252h-121v250l-249 400h136l173 -290l173 290h136zM115 820c0 39 32 71 71 71s70 -32 70 -71c0 -38 -31 -70 -70 -70s-71 32 -71 70zM361 820c0 39 32 71 71 71s70 -32 70 -71c0 -38 -32 -70 -70 -70s-71 32 -71 70z" />
    <glyph glyph-name="exclamdown" unicode="&#xa1;" horiz-adv-x="318" 
d="M216 -157h-113v245c0 77 16 157 16 234h81c0 -77 16 -157 16 -234v-245zM87 440c0 39 32 71 72 71c39 0 71 -32 71 -71c0 -40 -32 -72 -71 -72c-40 0 -72 32 -72 72z" />
    <glyph glyph-name="cent" unicode="&#xa2;" horiz-adv-x="439" 
d="M24 247v12c0 150 79 230 194 248v143h93v-142c42 -6 78 -23 109 -41c-10 -34 -22 -68 -33 -101c-28 19 -67 36 -117 36c-80 0 -130 -37 -130 -143v-12c0 -108 61 -149 140 -149c40 0 82 10 116 28c11 -33 23 -66 33 -100c-35 -20 -72 -32 -118 -35v-141h-93v145
c-124 24 -194 122 -194 252z" />
    <glyph glyph-name="sterling" unicode="&#xa3;" horiz-adv-x="518" 
d="M509 111v-111h-414v269h-86v84h86v71c0 158 69 236 220 236c61 0 118 -20 149 -37l-34 -103c-24 13 -62 26 -111 28c-86 2 -104 -38 -104 -135v-60h165v-84h-165v-158h294z" />
    <glyph glyph-name="currency" unicode="&#xa4;" horiz-adv-x="687" 
d="M345 172c-22 0 -44 3 -62 11l-140 -141l-81 83l130 128c-11 20 -18 43 -18 71s7 50 17 70l-129 130l81 82l139 -140c19 8 41 12 63 12c21 0 42 -4 61 -12l137 139l81 -81l-127 -127c11 -21 18 -45 18 -73c0 -29 -8 -53 -19 -73l129 -126l-82 -83l-139 140
c-18 -7 -38 -10 -59 -10zM345 249c44 0 77 31 77 75c0 47 -33 77 -77 77c-45 0 -77 -30 -77 -77c0 -44 32 -75 77 -75z" />
    <glyph glyph-name="yen" unicode="&#xa5;" horiz-adv-x="618" 
d="M546 297v-84h-176v-52h176v-84h-176v-77h-121v77h-178v84h178v52h-178v84h148l-219 353h136l173 -282l173 282h136l-221 -353h149z" />
    <glyph glyph-name="brokenbar" unicode="&#xa6;" horiz-adv-x="223" 
d="M158 750v-403h-93v403h93zM158 174v-424h-93v424h93z" />
    <glyph glyph-name="section" unicode="&#xa7;" horiz-adv-x="541" 
d="M50 -177l35 108c36 -24 96 -54 166 -54c64 0 120 27 120 82c0 53 -50 74 -137 100c-80 24 -174 74 -174 194c0 62 23 107 60 138c-35 31 -60 73 -60 135c0 133 100 192 229 192c90 0 136 -28 181 -57l-35 -108c-35 24 -79 53 -155 53c-51 0 -99 -21 -99 -74
c0 -68 76 -88 125 -102c120 -33 185 -92 185 -188c0 -64 -24 -111 -62 -143c40 -32 62 -75 62 -129c0 -147 -122 -204 -249 -204c-90 0 -142 28 -192 57zM181 260c0 -70 85 -95 141 -108c29 14 49 41 49 79c0 55 -57 77 -144 103c-28 -12 -46 -36 -46 -74z" />
    <glyph glyph-name="dieresis" unicode="&#xa8;" horiz-adv-x="487" 
d="M50 820c0 39 32 71 71 71s70 -32 70 -71c0 -38 -31 -70 -70 -70s-71 32 -71 70zM296 820c0 39 32 71 71 71s70 -32 70 -71c0 -38 -32 -70 -70 -70s-71 32 -71 70z" />
    <glyph glyph-name="copyright" unicode="&#xa9;" horiz-adv-x="892" 
d="M250 348v14c0 137 87 200 195 200c53 0 87 -14 124 -35c-9 -27 -18 -55 -27 -82c-23 15 -50 29 -94 29c-64 0 -104 -28 -104 -117v-9c0 -87 50 -118 115 -118c37 0 67 10 90 23c9 -26 18 -54 27 -81c-34 -19 -66 -30 -125 -30c-108 0 -201 72 -201 206zM82 352
c0 202 162 364 363 364c202 0 364 -162 364 -364c0 -201 -162 -363 -364 -363c-201 0 -363 162 -363 363zM150 352c0 -162 134 -295 295 -295c163 0 296 133 296 295c0 163 -133 296 -296 296c-161 0 -295 -133 -295 -296z" />
    <glyph glyph-name="guillemotleft" unicode="&#xab;" horiz-adv-x="558" 
d="M508 40h-108l-161 210l161 210h108l-161 -210zM300 40h-107l-161 210l161 210h107l-161 -210z" />
    <glyph glyph-name="logicalnot" unicode="&#xac;" horiz-adv-x="581" 
d="M531 431v-305h-93v222h-406v83h499z" />
    <glyph glyph-name="minus" unicode="&#x2212;" horiz-adv-x="629" 
d="M586 379v-110h-544v110h544z" />
    <glyph glyph-name="registered" unicode="&#xae;" horiz-adv-x="892" 
d="M502 152l-76 151h-48v-151h-93v400h161c107 0 157 -50 157 -120c0 -55 -27 -100 -82 -119l86 -161h-105zM446 464h-68v-78h68c47 0 62 13 62 38c0 26 -14 40 -62 40zM82 352c0 202 162 364 363 364c202 0 364 -162 364 -364c0 -201 -162 -363 -364 -363
c-201 0 -363 162 -363 363zM150 352c0 -162 134 -295 295 -295c163 0 296 133 296 295c0 163 -133 296 -296 296c-161 0 -295 -133 -295 -296z" />
    <glyph glyph-name="degree" unicode="&#xb0;" horiz-adv-x="428" 
d="M377 587c0 -91 -71 -162 -163 -162c-93 0 -164 68 -164 162c0 93 72 163 164 163c91 0 163 -72 163 -163zM291 587c0 46 -32 80 -77 80c-46 0 -78 -34 -78 -80s33 -79 78 -79c40 0 77 34 77 79z" />
    <glyph glyph-name="plusminus" unicode="&#xb1;" horiz-adv-x="623" 
d="M584 387v-110h-212v-159h211v-109h-543v109h213v159h-213v110h213v202h119v-202h212z" />
    <glyph glyph-name="acute" unicode="&#xb4;" horiz-adv-x="311" 
d="M139 886h112l-104 -136h-87z" />
    <glyph glyph-name="mu" unicode="&#xb5;" horiz-adv-x="534" 
d="M484 500v-500h-102l-13 58c-24 -46 -63 -68 -111 -68c-35 0 -71 9 -93 39v-263h-115v734h115v-267c0 -101 41 -133 102 -133c58 0 101 35 101 136v264h116z" />
    <glyph glyph-name="paragraph" unicode="&#xb6;" horiz-adv-x="556" 
d="M505 727v-825h-93v728h-84v-728h-93v381c-122 15 -203 102 -203 225c0 138 93 219 260 219h213z" />
    <glyph glyph-name="periodcentered" unicode="&#xb7;" horiz-adv-x="236" 
d="M46 250c0 40 32 72 72 72c39 0 71 -32 71 -72s-32 -72 -71 -72c-40 0 -72 32 -72 72z" />
    <glyph glyph-name="cedilla" unicode="&#xb8;" horiz-adv-x="262" 
d="M87 25h59l-13 -59c49 4 87 -24 85 -74c-4 -86 -105 -107 -173 -79l1 58c23 -11 96 -15 96 20c0 36 -52 35 -79 28z" />
    <glyph glyph-name="guillemotright" unicode="&#xbb;" horiz-adv-x="555" 
d="M155 40h-107l161 210l-161 210h107l161 -210zM362 40h-107l161 210l-161 210h107l161 -210z" />
    <glyph glyph-name="questiondown" unicode="&#xbf;" horiz-adv-x="490" 
d="M406 440c0 -39 -32 -71 -71 -71c-40 0 -72 32 -72 71c0 40 32 72 72 72c39 0 71 -32 71 -72zM33 35c0 126 109 172 175 205c45 21 67 44 67 75h120c0 -78 -57 -131 -117 -161c-56 -32 -125 -49 -125 -119c0 -60 45 -89 125 -89c53 0 110 16 136 30l36 -107
c-37 -16 -91 -34 -172 -34c-140 0 -245 69 -245 200z" />
    <glyph glyph-name="AE" unicode="&#xc6;" horiz-adv-x="888" 
d="M0 0l236 650h637v-112h-351v-140h311v-111h-311v-176h351v-111h-470v180h-215l-66 -180h-122zM317 538l-89 -247h175v247h-86z" />
    <glyph glyph-name="multiply" unicode="&#xd7;" horiz-adv-x="655" 
d="M328 404l199 201l81 -81l-201 -200l202 -199l-82 -83l-199 202l-201 -202l-81 83l201 199l-201 200l81 82z" />
    <glyph glyph-name="Thorn" unicode="&#xde;" horiz-adv-x="574" 
d="M50 0v700h120v-100h127c177 0 247 -83 247 -205c0 -121 -70 -203 -247 -203h-127v-192h-120zM297 488h-127v-185h127c96 0 127 33 127 92c0 60 -31 93 -127 93z" />
    <glyph glyph-name="germandbls" unicode="&#xdf;" horiz-adv-x="542" 
d="M510 167c0 -120 -90 -178 -223 -178c-22 0 -56 5 -74 12v117c25 -14 50 -18 78 -18c73 0 99 20 99 53c0 71 -167 47 -167 179c0 98 125 109 125 164c0 35 -31 53 -75 53c-72 0 -103 -40 -103 -140v-409h-120v405c0 178 87 255 226 255c117 0 192 -63 192 -165
c0 -113 -126 -122 -126 -164c0 -37 168 -48 168 -164z" />
    <glyph glyph-name="ae" unicode="&#xe6;" horiz-adv-x="807" 
d="M775 256v-52h-319v-6c1 -60 50 -100 124 -100c60 0 118 13 151 27c12 -34 23 -68 35 -102c-50 -20 -116 -34 -186 -34c-79 0 -143 31 -176 81c-33 -50 -85 -81 -193 -81c-109 0 -192 49 -192 162v15c0 94 93 147 233 151c28 1 57 2 85 3v22c0 45 -43 60 -109 60
c-64 0 -116 -15 -151 -30c-12 34 -22 69 -34 104c56 20 116 35 194 35c69 0 129 -16 167 -55c37 38 89 55 152 55c131 0 219 -75 219 -255zM337 181v48c-114 -1 -202 -4 -202 -64v-14c0 -48 45 -66 102 -66c53 0 100 25 100 96zM456 298v-7h200v1v4c0 71 -42 106 -100 106
c-57 0 -99 -35 -100 -104z" />
    <glyph glyph-name="eth" unicode="&#xf0;" horiz-adv-x="529" 
d="M141 504l88 88c-45 21 -98 30 -138 33l31 102c50 -4 128 -22 189 -54l63 64l53 -53l-53 -54c71 -61 123 -142 123 -317c0 -180 -51 -324 -256 -324c-115 0 -210 64 -210 213c0 144 97 203 218 203c40 0 83 -5 124 -22c-7 84 -35 131 -79 168l-100 -100zM253 302
c-50 0 -103 -20 -103 -100c0 -74 47 -102 94 -102c106 0 129 68 129 176c-45 23 -82 26 -120 26z" />
    <glyph glyph-name="divide" unicode="&#xf7;" horiz-adv-x="629" 
d="M243 131c0 39 32 71 71 71c40 0 72 -33 72 -71c0 -39 -32 -72 -72 -72c-39 0 -71 32 -71 72zM243 501c0 40 32 72 71 72c40 0 72 -33 72 -72c0 -38 -32 -71 -72 -71c-39 0 -71 32 -71 71zM586 371v-110h-544v110h544z" />
    <glyph glyph-name="thorn" unicode="&#xfe;" horiz-adv-x="517" 
d="M50 -250v950h116v-256c28 51 73 67 127 67c103 0 192 -79 192 -256v-15c0 -172 -89 -251 -192 -251c-55 0 -100 21 -128 66v-305h-115zM368 240v15c0 118 -39 147 -100 147c-60 0 -99 -36 -102 -136v-26c0 -111 40 -147 102 -147c61 0 100 29 100 147z" />
    <glyph glyph-name="Zcaron" unicode="&#x17d;" 
d="M25 538v112h475v-95l-337 -444h357v-111h-515v94l337 444h-317zM214 750l-92 136h85l54 -86h2l53 86h87l-93 -136h-96z" />
    <glyph glyph-name="zcaron" unicode="&#x17e;" horiz-adv-x="488" 
d="M27 390v110h434v-110l-273 -281h273v-109h-434v109l273 281h-273zM195 560l-92 136h86l53 -86h2l54 86h86l-93 -136h-96z" />
    <glyph glyph-name="Scaron" unicode="&#x160;" horiz-adv-x="489" 
d="M195 750l-91 136h85l54 -86h2l53 86h87l-93 -136h-97zM24 46l34 108c105 -76 286 -74 286 26c0 125 -310 53 -310 290c0 210 278 231 409 133l-34 -108c-97 76 -255 71 -255 -19c0 -136 311 -61 311 -286c0 -227 -301 -242 -441 -144z" />
    <glyph glyph-name="scaron" unicode="&#x161;" horiz-adv-x="454" 
d="M174 560l-92 136h85l54 -86h2l53 86h87l-93 -136h-96zM32 26l34 104c66 -41 239 -45 239 9c0 90 -261 18 -261 217c0 172 254 187 368 111l-34 -105c-69 52 -217 54 -217 -4c0 -87 261 -18 261 -208c0 -191 -296 -182 -390 -124z" />
    <glyph glyph-name="Agrave" unicode="&#xc0;" horiz-adv-x="597" 
d="M486 0l-53 140h-269l-53 -140h-122l248 650h123l248 -650h-122zM298 498l-93 -247h186zM276 750l-101 136h108l77 -136h-84z" />
    <glyph glyph-name="Aacute" unicode="&#xc1;" horiz-adv-x="597" 
d="M486 0l-53 140h-269l-53 -140h-122l248 650h123l248 -650h-122zM298 498l-93 -247h186zM316 886h113l-105 -136h-87z" />
    <glyph glyph-name="Acircumflex" unicode="&#xc2;" horiz-adv-x="597" 
d="M486 0l-53 140h-269l-53 -140h-122l248 650h123l248 -650h-122zM298 498l-93 -247h186zM158 750l91 136h97l92 -136h-85l-54 85h-2l-54 -85h-85z" />
    <glyph glyph-name="Atilde" unicode="&#xc3;" horiz-adv-x="597" 
d="M486 0l-53 140h-269l-53 -140h-122l248 650h123l248 -650h-122zM298 498l-93 -247h186zM121 753c0 91 37 137 110 137c72 0 84 -72 129 -72c30 0 44 30 44 69h72c0 -90 -37 -137 -111 -137c-71 0 -83 72 -129 72c-29 0 -44 -29 -44 -69h-71z" />
    <glyph glyph-name="Adieresis" unicode="&#xc4;" horiz-adv-x="597" 
d="M486 0l-53 140h-269l-53 -140h-122l248 650h123l248 -650h-122zM298 498l-93 -247h186zM105 820c0 39 31 71 70 71s71 -32 71 -71c0 -38 -32 -70 -71 -70s-70 32 -70 70zM351 820c0 39 31 71 70 71s71 -32 71 -71c0 -38 -32 -70 -71 -70c-38 0 -70 32 -70 70z" />
    <glyph glyph-name="Aring" unicode="&#xc5;" horiz-adv-x="597" 
d="M486 0l-53 140h-269l-53 -140h-122l248 650h123l248 -650h-122zM298 498l-93 -247h186zM298 750c-45 0 -87 28 -87 78c0 51 42 79 87 79c46 0 88 -28 88 -79c0 -50 -42 -78 -88 -78zM298 791c23 0 38 16 38 37c0 22 -15 38 -38 38c-22 0 -37 -16 -37 -38
c0 -21 15 -37 37 -37z" />
    <glyph glyph-name="Ccedilla" unicode="&#xc7;" horiz-adv-x="530" 
d="M152 349v-48c0 -147 67 -201 168 -201c67 0 132 30 156 54l36 -109c-42 -29 -97 -56 -192 -56c-14 0 -27 1 -39 2l-5 -25c48 4 87 -24 84 -74c-4 -86 -105 -107 -173 -79l1 58c23 -11 96 -15 96 20c0 36 -52 35 -79 28l18 82c-115 30 -191 123 -191 300v48
c0 220 121 311 288 311c86 0 144 -28 192 -56l-36 -109c-37 26 -99 53 -156 53c-101 0 -168 -55 -168 -199z" />
    <glyph glyph-name="Egrave" unicode="&#xc8;" horiz-adv-x="518" 
d="M170 287v-176h334v-111h-454v650h454v-112h-334v-140h294v-111h-294zM252 750l-101 136h108l77 -136h-84z" />
    <glyph glyph-name="Eacute" unicode="&#xc9;" horiz-adv-x="518" 
d="M170 287v-176h334v-111h-454v650h454v-112h-334v-140h294v-111h-294zM313 886h112l-104 -136h-87z" />
    <glyph glyph-name="Ecircumflex" unicode="&#xca;" horiz-adv-x="518" 
d="M170 287v-176h334v-111h-454v650h454v-112h-334v-140h294v-111h-294zM145 750l91 136h97l92 -136h-85l-54 85h-2l-54 -85h-85z" />
    <glyph glyph-name="Edieresis" unicode="&#xcb;" horiz-adv-x="518" 
d="M170 287v-176h334v-111h-454v650h454v-112h-334v-140h294v-111h-294zM92 820c0 39 31 71 70 71s71 -32 71 -71c0 -38 -32 -70 -71 -70s-70 32 -70 70zM338 820c0 39 31 71 70 71s71 -32 71 -71c0 -38 -33 -70 -71 -70s-70 32 -70 70z" />
    <glyph glyph-name="Igrave" unicode="&#xcc;" horiz-adv-x="220" 
d="M50 0v650h120v-650h-120zM71 750l-100 136h108l77 -136h-85z" />
    <glyph glyph-name="Iacute" unicode="&#xcd;" horiz-adv-x="220" 
d="M50 0v650h120v-650h-120zM144 886h112l-105 -136h-86z" />
    <glyph glyph-name="Icircumflex" unicode="&#xce;" horiz-adv-x="220" 
d="M50 0v650h120v-650h-120zM-30 750l91 136h97l92 -136h-86l-53 85h-2l-54 -85h-85z" />
    <glyph glyph-name="Idieresis" unicode="&#xcf;" horiz-adv-x="220" 
d="M50 0v650h120v-650h-120zM-83 820c0 39 31 71 70 71s71 -32 71 -71c0 -38 -32 -70 -71 -70s-70 32 -70 70zM163 820c0 39 31 71 70 71s71 -32 71 -71c0 -38 -33 -70 -71 -70s-70 32 -70 70z" />
    <glyph glyph-name="Eth" unicode="&#xd0;" horiz-adv-x="604" 
d="M78 0v289h-80v94h80v267h201c178 0 292 -85 292 -300v-51c0 -214 -114 -299 -292 -299h-201zM452 299v51c0 142 -61 188 -173 188h-82v-155h85v-94h-85v-178h82c112 0 173 46 173 188z" />
    <glyph glyph-name="Ntilde" unicode="&#xd1;" horiz-adv-x="594" 
d="M50 0v650h115l259 -424v424h120v-650h-114l-260 422v-422h-120zM119 753c0 91 37 137 111 137c71 0 84 -72 129 -72c29 0 44 30 44 69h71c0 -90 -37 -137 -110 -137c-72 0 -84 72 -129 72c-30 0 -44 -29 -44 -69h-72z" />
    <glyph glyph-name="Ograve" unicode="&#xd2;" horiz-adv-x="599" 
d="M446 301v47c0 150 -58 200 -146 200c-89 0 -147 -50 -147 -200v-47c0 -151 58 -201 147 -201c88 0 146 50 146 201zM32 301v47c0 223 113 312 268 312c154 0 267 -89 267 -312v-47c0 -224 -113 -312 -267 -312c-155 0 -268 88 -268 312zM260 750l-101 136h109l76 -136
h-84z" />
    <glyph glyph-name="Ocircumflex" unicode="&#xd4;" horiz-adv-x="599" 
d="M446 301v47c0 150 -58 200 -146 200c-89 0 -147 -50 -147 -200v-47c0 -151 58 -201 147 -201c88 0 146 50 146 201zM32 301v47c0 223 113 312 268 312c154 0 267 -89 267 -312v-47c0 -224 -113 -312 -267 -312c-155 0 -268 88 -268 312zM160 750l91 136h97l92 -136h-86
l-53 85h-2l-55 -85h-84z" />
    <glyph glyph-name="Otilde" unicode="&#xd5;" horiz-adv-x="599" 
d="M446 301v47c0 150 -58 200 -146 200c-89 0 -147 -50 -147 -200v-47c0 -151 58 -201 147 -201c88 0 146 50 146 201zM32 301v47c0 223 113 312 268 312c154 0 267 -89 267 -312v-47c0 -224 -113 -312 -267 -312c-155 0 -268 88 -268 312zM122 753c0 91 37 137 111 137
c71 0 83 -72 128 -72c30 0 44 30 44 69h72c0 -90 -37 -137 -110 -137c-72 0 -84 72 -129 72c-30 0 -44 -29 -44 -69h-72z" />
    <glyph glyph-name="Odieresis" unicode="&#xd6;" horiz-adv-x="599" 
d="M446 301v47c0 150 -58 200 -146 200c-89 0 -147 -50 -147 -200v-47c0 -151 58 -201 147 -201c88 0 146 50 146 201zM32 301v47c0 223 113 312 268 312c154 0 267 -89 267 -312v-47c0 -224 -113 -312 -267 -312c-155 0 -268 88 -268 312zM106 820c0 39 32 71 71 71
s70 -32 70 -71c0 -38 -31 -70 -70 -70s-71 32 -71 70zM352 820c0 39 32 71 71 71s70 -32 70 -71c0 -38 -32 -70 -70 -70s-71 32 -71 70z" />
    <glyph glyph-name="Oslash" unicode="&#xd8;" horiz-adv-x="599" 
d="M32 301v47c0 223 113 312 268 312c154 0 267 -89 267 -312v-47c0 -224 -113 -312 -267 -312c-155 0 -268 88 -268 312zM446 301v47c0 77 -17 127 -44 157l-132 -402c9 -2 19 -3 30 -3c88 0 146 50 146 201zM153 301c0 -74 14 -123 38 -154l128 399c-6 1 -13 2 -19 2
c-89 0 -147 -50 -147 -200v-47z" />
    <glyph glyph-name="Ugrave" unicode="&#xd9;" horiz-adv-x="598" 
d="M42 304v346h120v-346c0 -154 54 -204 137 -204c82 0 137 50 137 204v346h120v-346c0 -227 -109 -315 -257 -315s-257 88 -257 315zM259 750l-101 136h109l76 -136h-84z" />
    <glyph glyph-name="Uacute" unicode="&#xda;" horiz-adv-x="598" 
d="M42 304v346h120v-346c0 -154 54 -204 137 -204c82 0 137 50 137 204v346h120v-346c0 -227 -109 -315 -257 -315s-257 88 -257 315zM333 886h112l-105 -136h-86z" />
    <glyph glyph-name="Ucircumflex" unicode="&#xdb;" horiz-adv-x="598" 
d="M42 304v346h120v-346c0 -154 54 -204 137 -204c82 0 137 50 137 204v346h120v-346c0 -227 -109 -315 -257 -315s-257 88 -257 315zM159 750l91 136h97l92 -136h-86l-53 85h-2l-55 -85h-84z" />
    <glyph glyph-name="Udieresis" unicode="&#xdc;" horiz-adv-x="598" 
d="M42 304v346h120v-346c0 -154 54 -204 137 -204c82 0 137 50 137 204v346h120v-346c0 -227 -109 -315 -257 -315s-257 88 -257 315zM105 820c0 39 32 71 71 71s70 -32 70 -71c0 -38 -31 -70 -70 -70s-71 32 -71 70zM351 820c0 39 32 71 71 71s70 -32 70 -71
c0 -38 -32 -70 -70 -70s-71 32 -71 70z" />
    <glyph glyph-name="Yacute" unicode="&#xdd;" horiz-adv-x="618" 
d="M618 650l-248 -398v-252h-121v250l-249 400h136l173 -290l173 290h136zM343 886h112l-104 -136h-87z" />
    <glyph glyph-name="agrave" unicode="&#xe0;" horiz-adv-x="487" 
d="M453 324v-309c-60 -18 -137 -26 -219 -26c-109 0 -215 54 -215 170v7c0 95 89 148 239 152c27 1 53 2 79 3v20c0 46 -43 61 -109 61c-64 0 -116 -16 -151 -31c-12 35 -22 69 -34 104c56 21 116 36 194 36c122 0 216 -48 216 -187zM337 106v124c-126 -1 -202 -7 -202 -64
v-7c0 -43 45 -61 102 -61c44 0 72 3 100 8zM213 560c-34 45 -66 91 -100 136h108c25 -45 51 -91 77 -136h-85z" />
    <glyph glyph-name="aacute" unicode="&#xe1;" horiz-adv-x="487" 
d="M453 324v-309c-60 -18 -137 -26 -219 -26c-109 0 -215 54 -215 170v7c0 95 89 148 239 152c27 1 53 2 79 3v20c0 46 -43 61 -109 61c-64 0 -116 -16 -151 -31c-12 35 -22 69 -34 104c56 21 116 36 194 36c122 0 216 -48 216 -187zM337 106v124c-126 -1 -202 -7 -202 -64
v-7c0 -43 45 -61 102 -61c44 0 72 3 100 8zM262 696h112c-35 -45 -70 -91 -105 -136h-86c26 45 53 91 79 136z" />
    <glyph glyph-name="acircumflex" unicode="&#xe2;" horiz-adv-x="487" 
d="M453 324v-309c-60 -18 -137 -26 -219 -26c-109 0 -215 54 -215 170v7c0 95 89 148 239 152c27 1 53 2 79 3v20c0 46 -43 61 -109 61c-64 0 -116 -16 -151 -31c-12 35 -22 69 -34 104c56 21 116 36 194 36c122 0 216 -48 216 -187zM337 106v124c-126 -1 -202 -7 -202 -64
v-7c0 -43 45 -61 102 -61c44 0 72 3 100 8zM113 560c30 45 61 91 91 136h97c31 -45 61 -91 92 -136h-86c-18 28 -35 57 -53 85h-2l-54 -85h-85z" />
    <glyph glyph-name="atilde" unicode="&#xe3;" horiz-adv-x="487" 
d="M453 324v-309c-60 -18 -137 -26 -219 -26c-109 0 -215 54 -215 170v7c0 95 89 148 239 152c27 1 53 2 79 3v20c0 46 -43 61 -109 61c-64 0 -116 -16 -151 -31c-12 35 -22 69 -34 104c56 21 116 36 194 36c122 0 216 -48 216 -187zM337 106v124c-126 -1 -202 -7 -202 -64
v-7c0 -43 45 -61 102 -61c44 0 72 3 100 8zM75 563c0 91 36 137 110 137c71 0 84 -72 129 -72c29 0 44 30 44 69h71c0 -90 -36 -137 -110 -137c-71 0 -84 72 -129 72c-30 0 -44 -29 -44 -69h-71z" />
    <glyph glyph-name="adieresis" unicode="&#xe4;" horiz-adv-x="487" 
d="M453 324v-309c-60 -18 -137 -26 -219 -26c-109 0 -215 54 -215 170v7c0 95 89 148 239 152c27 1 53 2 79 3v20c0 46 -43 61 -109 61c-64 0 -116 -16 -151 -31c-12 35 -22 69 -34 104c56 21 116 36 194 36c122 0 216 -48 216 -187zM337 106v124c-126 -1 -202 -7 -202 -64
v-7c0 -43 45 -61 102 -61c44 0 72 3 100 8zM58 630c0 39 31 71 70 71s71 -32 71 -71c0 -38 -32 -70 -71 -70s-70 32 -70 70zM304 630c0 39 31 71 70 71s71 -32 71 -71c0 -38 -33 -70 -71 -70s-70 32 -70 70z" />
    <glyph glyph-name="aring" unicode="&#xe5;" horiz-adv-x="487" 
d="M453 324v-309c-60 -18 -137 -26 -219 -26c-109 0 -215 54 -215 170v7c0 95 89 148 239 152c27 1 53 2 79 3v20c0 46 -43 61 -109 61c-64 0 -116 -16 -151 -31c-12 35 -22 69 -34 104c56 21 116 36 194 36c122 0 216 -48 216 -187zM337 106v124c-126 -1 -202 -7 -202 -64
v-7c0 -43 45 -61 102 -61c44 0 72 3 100 8zM251 560c-46 0 -88 28 -88 78c0 51 42 79 88 79s88 -28 88 -79c0 -50 -42 -78 -88 -78zM251 601c22 0 38 16 38 37c0 22 -16 38 -38 38s-37 -16 -37 -38c0 -21 15 -37 37 -37z" />
    <glyph glyph-name="idieresis" unicode="&#xef;" horiz-adv-x="248" 
d="M-70 630c0 39 32 71 71 71s70 -32 70 -71c0 -38 -31 -70 -70 -70s-71 32 -71 70zM176 630c0 39 32 71 71 71s70 -32 70 -71c0 -38 -32 -70 -70 -70s-71 32 -71 70zM66 0v500h116v-500h-116z" />
    <glyph glyph-name="ccedilla" unicode="&#xe7;" horiz-adv-x="439" 
d="M24 247v12c0 172 103 252 246 252c61 0 109 -19 150 -44c-10 -34 -22 -68 -33 -101c-28 19 -67 36 -117 36c-80 0 -130 -37 -130 -143v-12c0 -108 61 -149 140 -149c40 0 82 10 116 28c11 -33 23 -66 33 -100c-42 -24 -88 -37 -149 -37c-12 0 -23 1 -34 2
c-1 -8 -3 -17 -5 -25c48 4 87 -24 85 -74c-5 -86 -105 -107 -173 -79c0 19 1 39 1 58c23 -11 96 -15 96 20c0 36 -52 35 -80 28c6 27 13 56 19 83c-106 33 -165 126 -165 245z" />
    <glyph glyph-name="egrave" unicode="&#xe8;" horiz-adv-x="501" 
d="M470 258v-51h-336v-5c0 -63 49 -104 133 -104c63 0 125 11 160 23l34 -104c-53 -17 -121 -28 -194 -28c-155 0 -252 75 -252 253v16c0 178 89 253 228 253c138 0 227 -75 227 -253zM134 298v-5h217v5c0 68 -42 104 -108 104c-67 0 -109 -36 -109 -104zM212 560l-101 136
h108l77 -136h-84z" />
    <glyph glyph-name="eacute" unicode="&#xe9;" horiz-adv-x="501" 
d="M470 258v-51h-336v-5c0 -63 49 -104 133 -104c63 0 125 11 160 23l34 -104c-53 -17 -121 -28 -194 -28c-155 0 -252 75 -252 253v16c0 178 89 253 228 253c138 0 227 -75 227 -253zM134 298v-5h217v5c0 68 -42 104 -108 104c-67 0 -109 -36 -109 -104zM285 696h112
l-104 -136h-87z" />
    <glyph glyph-name="ecircumflex" unicode="&#xea;" horiz-adv-x="501" 
d="M470 258v-51h-336v-5c0 -63 49 -104 133 -104c63 0 125 11 160 23l34 -104c-53 -17 -121 -28 -194 -28c-155 0 -252 75 -252 253v16c0 178 89 253 228 253c138 0 227 -75 227 -253zM134 298v-5h217v5c0 68 -42 104 -108 104c-67 0 -109 -36 -109 -104zM111 560l91 136h97
l92 -136h-86l-53 85h-2l-54 -85h-85z" />
    <glyph glyph-name="edieresis" unicode="&#xeb;" horiz-adv-x="501" 
d="M470 258v-51h-336v-5c0 -63 49 -104 133 -104c63 0 125 11 160 23l34 -104c-53 -17 -121 -28 -194 -28c-155 0 -252 75 -252 253v16c0 178 89 253 228 253c138 0 227 -75 227 -253zM134 298v-5h217v5c0 68 -42 104 -108 104c-67 0 -109 -36 -109 -104zM58 630
c0 39 31 71 70 71s71 -32 71 -71c0 -38 -32 -70 -71 -70s-70 32 -70 70zM304 630c0 39 31 71 70 71s71 -32 71 -71c0 -38 -33 -70 -71 -70s-70 32 -70 70z" />
    <glyph glyph-name="igrave" unicode="&#xec;" horiz-adv-x="248" 
d="M85 560l-101 136h109l76 -136h-84zM66 0v500h116v-500h-116z" />
    <glyph glyph-name="iacute" unicode="&#xed;" horiz-adv-x="248" 
d="M158 696h112l-105 -136h-86zM66 0v500h116v-500h-116z" />
    <glyph glyph-name="icircumflex" unicode="&#xee;" horiz-adv-x="248" 
d="M-16 560l91 136h97l92 -136h-86l-53 85h-2l-54 -85h-85zM66 0v500h116v-500h-116z" />
    <glyph glyph-name="ntilde" unicode="&#xf1;" 
d="M50 0v485c50 15 133 26 216 26c126 0 218 -67 218 -219v-292h-115v301c0 77 -44 101 -111 101c-43 0 -63 -2 -92 -7v-395h-116zM83 563c0 91 36 137 110 137c71 0 84 -72 129 -72c29 0 44 30 44 69h71c0 -90 -37 -137 -110 -137c-72 0 -84 72 -129 72
c-30 0 -44 -29 -44 -69h-71z" />
    <glyph glyph-name="ograve" unicode="&#xf2;" horiz-adv-x="529" 
d="M380 245v10c0 112 -41 147 -115 147s-116 -35 -116 -147v-10c0 -112 42 -147 116 -147s115 35 115 147zM32 245v10c0 182 99 256 233 256c133 0 232 -74 232 -256v-10c0 -182 -99 -256 -232 -256c-134 0 -233 74 -233 256zM229 560c-34 45 -67 91 -101 136h108
c25 -45 52 -91 77 -136h-84z" />
    <glyph glyph-name="oacute" unicode="&#xf3;" horiz-adv-x="529" 
d="M380 245v10c0 112 -41 147 -115 147s-116 -35 -116 -147v-10c0 -112 42 -147 116 -147s115 35 115 147zM32 245v10c0 182 99 256 233 256c133 0 232 -74 232 -256v-10c0 -182 -99 -256 -232 -256c-134 0 -233 74 -233 256zM299 696h112c-35 -45 -70 -91 -104 -136h-87
c26 45 53 91 79 136z" />
    <glyph glyph-name="ocircumflex" unicode="&#xf4;" horiz-adv-x="529" 
d="M380 245v10c0 112 -41 147 -115 147s-116 -35 -116 -147v-10c0 -112 42 -147 116 -147s115 35 115 147zM32 245v10c0 182 99 256 233 256c133 0 232 -74 232 -256v-10c0 -182 -99 -256 -232 -256c-134 0 -233 74 -233 256zM125 560c30 45 61 91 91 136h97
c31 -45 61 -91 92 -136h-86c-18 28 -35 57 -53 85h-2l-55 -85h-84z" />
    <glyph glyph-name="otilde" unicode="&#xf5;" horiz-adv-x="529" 
d="M380 245v10c0 112 -41 147 -115 147s-116 -35 -116 -147v-10c0 -112 42 -147 116 -147s115 35 115 147zM32 245v10c0 182 99 256 233 256c133 0 232 -74 232 -256v-10c0 -182 -99 -256 -232 -256c-134 0 -233 74 -233 256zM87 563c0 91 37 137 111 137
c71 0 84 -72 129 -72c29 0 44 30 44 69h71c0 -90 -37 -137 -110 -137c-72 0 -84 73 -129 73c-30 0 -44 -29 -44 -70h-72z" />
    <glyph glyph-name="odieresis" unicode="&#xf6;" horiz-adv-x="529" 
d="M380 245v10c0 112 -41 147 -115 147s-116 -35 -116 -147v-10c0 -112 42 -147 116 -147s115 35 115 147zM32 245v10c0 182 99 256 233 256c133 0 232 -74 232 -256v-10c0 -182 -99 -256 -232 -256c-134 0 -233 74 -233 256zM71 630c0 39 32 71 71 71s70 -32 70 -71
c0 -38 -31 -70 -70 -70s-71 32 -71 70zM317 630c0 39 32 71 71 71s70 -32 70 -71c0 -38 -32 -70 -70 -70s-71 32 -71 70z" />
    <glyph glyph-name="oslash" unicode="&#xf8;" horiz-adv-x="526" 
d="M32 245v10c0 182 99 256 231 256c133 0 231 -74 231 -256v-10c0 -182 -98 -256 -231 -256c-132 0 -231 74 -231 256zM377 245v10c0 56 -11 93 -30 114c-38 -90 -75 -179 -113 -269c8 -1 16 -1 24 -2c10 0 19 1 29 2c58 7 90 45 90 145zM149 245c0 -55 9 -91 28 -113
c37 89 74 179 111 268c-9 1 -16 2 -25 2c-73 0 -114 -34 -114 -147v-10z" />
    <glyph glyph-name="ugrave" unicode="&#xf9;" 
d="M475 500v-485c-66 -17 -133 -26 -216 -26c-125 0 -218 67 -218 219v292h115v-301c0 -77 44 -101 112 -101c42 0 67 2 91 7v395h116zM218 560l-101 136h109l76 -136h-84z" />
    <glyph glyph-name="uacute" unicode="&#xfa;" 
d="M475 500v-485c-66 -17 -133 -26 -216 -26c-125 0 -218 67 -218 219v292h115v-301c0 -77 44 -101 112 -101c42 0 67 2 91 7v395h116zM292 696h112l-104 -136h-87z" />
    <glyph glyph-name="ucircumflex" unicode="&#xfb;" 
d="M475 500v-485c-66 -17 -133 -26 -216 -26c-125 0 -218 67 -218 219v292h115v-301c0 -77 44 -101 112 -101c42 0 67 2 91 7v395h116zM119 560l91 136h97l92 -136h-85l-54 85h-2l-54 -85h-85z" />
    <glyph glyph-name="udieresis" unicode="&#xfc;" 
d="M475 500v-485c-66 -17 -133 -26 -216 -26c-125 0 -218 67 -218 219v292h115v-301c0 -77 44 -101 112 -101c42 0 67 2 91 7v395h116zM64 630c0 39 32 71 71 71s70 -32 70 -71c0 -38 -31 -70 -70 -70s-71 32 -71 70zM310 630c0 39 32 71 71 71s70 -32 70 -71
c0 -38 -32 -70 -70 -70s-71 32 -71 70z" />
    <glyph glyph-name="yacute" unicode="&#xfd;" 
d="M475 500v-532c0 -147 -95 -218 -226 -218c-79 0 -142 17 -197 46l34 103c42 -25 99 -39 163 -39c65 0 110 29 110 108v31c-27 -7 -70 -10 -100 -10c-118 0 -218 60 -218 219v292h115v-301c0 -77 44 -101 112 -101c40 0 63 3 91 8v394h116zM292 696h112l-104 -136h-87z
" />
    <glyph glyph-name="ydieresis" unicode="&#xff;" 
d="M475 500v-532c0 -147 -95 -218 -226 -218c-79 0 -142 17 -197 46l34 103c42 -25 99 -39 163 -39c65 0 110 29 110 108v31c-27 -7 -70 -10 -100 -10c-118 0 -218 60 -218 219v292h115v-301c0 -77 44 -101 112 -101c40 0 63 3 91 8v394h116zM65 630c0 39 32 71 71 71
s70 -32 70 -71c0 -38 -31 -70 -70 -70s-71 32 -71 70zM311 630c0 39 32 71 71 71s70 -32 70 -71c0 -38 -32 -70 -70 -70s-71 32 -71 70z" />
    <glyph glyph-name="fi" unicode="&#xfb01;" horiz-adv-x="555" 
d="M50 0v524c0 138 79 187 186 187c52 0 99 -11 133 -27l-34 -104c-25 12 -58 22 -99 22c-42 0 -70 -20 -70 -78v-24h167v-110h-167v-390h-116zM386 0v500h116v-500h-116zM374 637c0 39 31 70 70 70s70 -31 70 -70s-31 -71 -70 -71s-70 32 -70 71z" />
    <glyph glyph-name="fl" unicode="&#xfb02;" horiz-adv-x="600" 
d="M50 0v524c0 138 79 187 186 187c52 0 99 -11 133 -27l-34 -104c-25 12 -58 22 -99 22c-42 0 -70 -20 -70 -78v-24h167v-110h-167v-390h-116zM384 174v526h115v-527c0 -55 15 -73 38 -73c14 0 21 3 30 7l34 -103c-23 -7 -46 -13 -81 -13c-77 0 -136 47 -136 183z" />
    <glyph glyph-name="Cacute" unicode="&#x106;" horiz-adv-x="530" 
d="M152 349v-48c0 -147 67 -201 168 -201c67 0 132 30 156 54l36 -109c-42 -29 -97 -56 -192 -56c-167 0 -288 90 -288 312v48c0 220 121 311 288 311c86 0 144 -28 192 -56l-36 -109c-37 26 -99 53 -156 53c-101 0 -168 -55 -168 -199zM342 886h112l-104 -136h-87z" />
    <glyph glyph-name="cacute" unicode="&#x107;" horiz-adv-x="439" 
d="M24 247v12c0 172 103 252 246 252c61 0 109 -19 150 -44c-10 -34 -22 -68 -33 -101c-28 19 -67 36 -117 36c-80 0 -130 -37 -130 -143v-12c0 -108 61 -149 140 -149c40 0 82 10 116 28c11 -33 23 -66 33 -100c-42 -24 -88 -37 -149 -37c-163 0 -256 109 -256 258z
M298 696h113c-35 -45 -70 -91 -105 -136h-87c26 45 53 91 79 136z" />
    <glyph glyph-name="Nacute" unicode="&#x143;" horiz-adv-x="594" 
d="M50 0v650h115l259 -424v424h120v-650h-114l-260 422v-422h-120zM323 886h113l-105 -136h-87z" />
    <glyph glyph-name="nacute" unicode="&#x144;" 
d="M50 0v485c50 15 133 26 216 26c126 0 218 -67 218 -219v-292h-115v301c0 77 -44 101 -111 101c-43 0 -63 -2 -92 -7v-395h-116zM284 696h112l-104 -136h-87z" />
    <glyph glyph-name="Oacute" unicode="&#xd3;" horiz-adv-x="599" 
d="M446 301v47c0 150 -58 200 -146 200c-89 0 -147 -50 -147 -200v-47c0 -151 58 -201 147 -201c88 0 146 50 146 201zM32 301v47c0 223 113 312 268 312c154 0 267 -89 267 -312v-47c0 -224 -113 -312 -267 -312c-155 0 -268 88 -268 312zM314 886h112l-104 -136h-87z" />
    <glyph glyph-name="Sacute" unicode="&#x15a;" horiz-adv-x="489" 
d="M261 886h112l-104 -136h-87zM24 46l34 108c105 -76 286 -74 286 26c0 125 -310 53 -310 290c0 210 278 231 409 133l-34 -108c-97 76 -255 71 -255 -19c0 -136 311 -61 311 -286c0 -227 -301 -242 -441 -144z" />
    <glyph glyph-name="sacute" unicode="&#x15b;" horiz-adv-x="454" 
d="M248 696h113l-105 -136h-87zM32 26l34 104c66 -41 239 -45 239 9c0 90 -261 18 -261 217c0 172 254 187 368 111l-34 -105c-69 52 -217 54 -217 -4c0 -87 261 -18 261 -208c0 -191 -296 -182 -390 -124z" />
    <glyph glyph-name="Zacute" unicode="&#x179;" 
d="M25 538v112h475v-95l-337 -444h357v-111h-515v94l337 444h-317zM251 886h113l-105 -136h-87z" />
    <glyph glyph-name="zacute" unicode="&#x17a;" horiz-adv-x="488" 
d="M27 390v110h434v-110l-273 -281h273v-109h-434v109l273 281h-273zM242 696h112l-105 -136h-86z" />
    <glyph glyph-name="Aogonek" unicode="&#x104;" horiz-adv-x="597" 
d="M608 0h-60c-30 -77 36 -144 121 -94v-81c-136 -71 -243 46 -189 190l-47 125h-269l-53 -140h-122l248 650h123zM298 498l-93 -247h186z" />
    <glyph glyph-name="aogonek" unicode="&#x105;" horiz-adv-x="487" 
d="M453 324v-309c-25 -8 -52 -13 -81 -16c-28 -76 37 -143 122 -93v-81c-129 -67 -232 34 -197 166c-20 -2 -40 -2 -63 -2c-109 0 -215 54 -215 170v7c0 95 89 148 239 152c27 1 53 2 79 3v20c0 46 -43 61 -109 61c-64 0 -116 -16 -151 -31c-12 35 -22 69 -34 104
c56 21 116 36 194 36c122 0 216 -48 216 -187zM337 106v124c-126 -1 -202 -7 -202 -64v-7c0 -43 45 -61 102 -61c44 0 72 3 100 8z" />
    <glyph glyph-name="Eogonek" unicode="&#x118;" horiz-adv-x="518" 
d="M170 287v-176h334v-111h-121c-30 -77 36 -144 121 -94v-81c-131 -68 -236 38 -195 175h-259v650h454v-112h-334v-140h294v-111h-294z" />
    <glyph glyph-name="eogonek" unicode="&#x119;" horiz-adv-x="501" 
d="M470 258v-51h-336v-5c0 -63 49 -104 133 -104c63 0 125 11 160 23c11 -34 22 -69 34 -104c-29 -10 -61 -17 -97 -22c-25 -74 40 -138 123 -89v-81c-128 -67 -231 32 -198 165c-7 -1 -15 -1 -22 -1c-155 0 -252 75 -252 253v16c0 178 89 253 228 253
c138 0 227 -75 227 -253zM134 298v-5h217v2v3c0 68 -42 104 -108 104c-67 0 -109 -36 -109 -104z" />
    <glyph glyph-name="Zdotaccent" unicode="&#x17b;" 
d="M25 538v112h475v-95l-337 -444h357v-111h-515v94l337 444h-317zM191 822c0 39 32 71 72 71c39 0 71 -32 71 -71c0 -40 -32 -72 -71 -72c-40 0 -72 32 -72 72z" />
    <glyph glyph-name="zdotaccent" unicode="&#x17c;" horiz-adv-x="488" 
d="M27 390v110h434v-110l-273 -281h273v-109h-434v109l273 281h-273zM172 632c0 39 32 71 71 71c40 0 72 -32 72 -71c0 -40 -32 -72 -72 -72c-39 0 -71 32 -71 72z" />
  </font>
</defs>
</svg>
