<svg width="15" height="15" viewBox="0 0 15 15" fill="none" xmlns="http://www.w3.org/2000/svg">
<path d="M13.9678 0.758286C14.2686 0.840317 14.4873 1.08641 14.4873 1.38719C14.4873 8.41454 8.7998 14.0747 1.7998 14.0747C1.47168 14.0747 1.22559 13.8833 1.14355 13.5825L0.487305 10.7388C0.432617 10.438 0.569336 10.1098 0.870117 9.97313L3.93262 8.66063C4.20605 8.55125 4.50684 8.63329 4.69824 8.85204L6.06543 10.52C8.19824 9.50829 9.9209 7.75829 10.9053 5.68016L9.2373 4.31297C9.01855 4.12157 8.93652 3.82079 9.0459 3.54735L10.3584 0.484848C10.4951 0.184067 10.8232 0.0200043 11.124 0.102036L13.9678 0.758286Z" fill="#BDA76E"/>
</svg>
