<svg width="162" height="51" viewBox="0 0 162 51" fill="none" xmlns="http://www.w3.org/2000/svg">
<g clip-path="url(#clip0_458_3041)">
<path d="M68.898 15.5927C68.5604 15.5927 68.2076 15.5733 67.8395 15.5332C67.4714 15.4931 67.1283 15.4834 66.81 15.5028V15.5927C67.376 15.673 67.7496 15.821 67.9281 16.0396C68.1066 16.2583 68.1162 16.6014 67.9585 17.0691C67.9281 17.1494 67.8935 17.2559 67.8547 17.3901C67.8146 17.5243 67.7745 17.6558 67.7357 17.7859C67.6956 17.9353 67.6513 18.0944 67.6015 18.2632C67.5821 18.3227 67.5572 18.3878 67.5268 18.4569C67.477 18.5967 67.423 18.7655 67.3621 18.9634C67.2528 19.2816 67.1283 19.64 66.9899 20.0371C66.8502 20.4342 66.709 20.8397 66.5651 21.252C66.4212 21.6643 66.2787 22.0698 66.1403 22.4669C66.0006 22.864 65.8719 23.2182 65.7529 23.5254C65.7529 23.5351 65.7432 23.5406 65.7225 23.5406C65.7128 23.5406 65.7072 23.5462 65.7072 23.5558L63.3965 17.397C63.2969 17.1383 63.2194 16.9224 63.1654 16.7481C63.1101 16.5737 63.0838 16.4271 63.0838 16.3081C63.0838 16.1586 63.1184 16.0452 63.1875 15.9649C63.2567 15.8861 63.3439 15.8238 63.4491 15.7781C63.5528 15.7338 63.6704 15.7006 63.7991 15.6813C63.9278 15.6619 64.0482 15.637 64.1575 15.6065V15.4875C63.9292 15.518 63.6857 15.5374 63.4269 15.547C63.1682 15.5567 62.9246 15.5678 62.6963 15.5775C62.468 15.5872 62.2632 15.5927 62.0847 15.5927H61.7125C61.5437 15.5927 61.3472 15.5899 61.1231 15.5858C60.8989 15.5803 60.6706 15.5733 60.4368 15.5637C60.2029 15.554 59.9746 15.5415 59.7505 15.5263C59.5263 15.5111 59.3298 15.4986 59.161 15.4889V15.6232C59.5388 15.673 59.8515 15.7421 60.1005 15.8321C60.3482 15.922 60.5876 16.095 60.8159 16.3537C60.9653 16.5129 61.1009 16.7163 61.2255 16.9653C61.35 17.2144 61.4662 17.4524 61.5755 17.6807L59.1153 23.5254C59.1057 23.5351 59.0946 23.5406 59.0849 23.5406C59.0752 23.5406 59.0697 23.5462 59.0697 23.5558L57.1616 17.397C57.0813 17.1286 57.0121 16.91 56.9526 16.7412C56.8931 16.5724 56.8627 16.4285 56.8627 16.3081C56.8627 16.1586 56.8973 16.0452 56.9665 15.9649C57.0357 15.8861 57.1228 15.8238 57.228 15.7781C57.3318 15.7338 57.4494 15.7006 57.5781 15.6813C57.7067 15.6619 57.8257 15.637 57.9364 15.6065V15.4875C57.7081 15.518 57.4646 15.5374 57.2059 15.547C56.9471 15.5567 56.7036 15.5678 56.4753 15.5775C56.247 15.5872 56.0422 15.5927 55.8637 15.5927H55.4915C55.3227 15.5927 55.1262 15.5899 54.902 15.5858C54.6779 15.5803 54.4495 15.5733 54.2157 15.5637C53.9819 15.554 53.7535 15.5415 53.5294 15.5263C53.3052 15.5111 53.1088 15.4986 52.9399 15.4889V15.6232C53.3177 15.673 53.6387 15.7449 53.9016 15.839C54.1645 15.9331 54.4108 16.1102 54.6391 16.3676C54.6792 16.4174 54.7415 16.5073 54.8259 16.636C54.9103 16.7647 55.0003 16.9224 55.0943 17.1051C55.1884 17.2891 55.2853 17.4925 55.3849 17.7167C55.4845 17.9408 55.5731 18.1664 55.6534 18.3947C56.0214 19.438 56.341 20.336 56.615 21.086C56.889 21.8359 57.1173 22.4752 57.3013 23.0024C57.4854 23.5295 57.6362 23.9571 57.7566 24.285C57.8769 24.613 57.9724 24.8814 58.0471 25.0903C58.1219 25.2993 58.1786 25.4584 58.2187 25.5677C58.2588 25.677 58.2934 25.7739 58.3225 25.8583C58.3529 25.9427 58.382 26.0271 58.4124 26.1115C58.4429 26.1959 58.4871 26.3177 58.5466 26.4768H58.6961C59.0738 25.5221 59.4613 24.5728 59.8598 23.6292C60.0189 23.2321 60.1905 22.8114 60.3745 22.3686C60.5585 21.9259 60.7426 21.4872 60.9266 21.0486C61.1106 20.6113 61.2919 20.181 61.4704 19.759C61.6489 19.337 61.8177 18.9412 61.9768 18.5732C62.385 19.5279 62.789 20.4716 63.1917 21.4056C63.5943 22.3396 63.9541 23.185 64.2724 23.9405C64.6501 24.8247 65.0126 25.6701 65.3613 26.4754H65.4955C65.7737 25.6798 66.067 24.8648 66.3756 24.0304C66.5042 23.6721 66.6412 23.2971 66.7851 22.9041C66.929 22.5112 67.0757 22.1085 67.2251 21.6962C67.3746 21.2838 67.5254 20.8742 67.6804 20.4661C67.834 20.0579 67.9862 19.6663 68.1356 19.2885L68.732 17.7236C68.851 17.4247 68.9755 17.1521 69.1042 16.9031C69.2329 16.6554 69.3879 16.4409 69.5663 16.2624C69.7448 16.0839 69.9621 15.9372 70.2153 15.8224C70.4685 15.7076 70.7743 15.6315 71.1327 15.5913V15.4875C70.8449 15.5069 70.499 15.5304 70.0963 15.554C69.6936 15.5789 69.2938 15.5913 68.8953 15.5913L68.898 15.5927ZM58.3557 25.3297L54.9864 15.9359H55.4928L58.6089 24.7029L58.3557 25.3297ZM65.0956 25.3297L61.0553 15.9359H61.5617L65.3489 24.7029L65.0956 25.3297Z" fill="white"/>
<path d="M83.3536 25.8597C83.2194 25.7656 83.1226 25.6466 83.0631 25.5013C83.0036 25.3574 82.9634 25.1803 82.9441 24.9713C82.9233 24.8025 82.9136 24.5535 82.9136 24.2255V23.257L82.8984 21.0652L82.9136 18.3961C82.9136 18.0778 82.9164 17.7997 82.9205 17.5617C82.9261 17.3237 82.933 17.1189 82.9427 16.9501C82.9524 16.7121 82.9897 16.5129 83.0548 16.3537C83.1198 16.1946 83.2167 16.0659 83.3453 15.9663C83.474 15.8667 83.6442 15.7906 83.8518 15.7352C84.0607 15.6813 84.3194 15.6384 84.6266 15.6079V15.5042C84.4772 15.5138 84.3015 15.5235 84.0981 15.5346C83.8947 15.5443 83.6774 15.554 83.4491 15.5636C83.2208 15.5733 82.9925 15.5816 82.7628 15.5858C82.5345 15.5913 82.32 15.5927 82.1221 15.5927C81.9533 15.5927 81.7541 15.5872 81.5258 15.5775C81.2975 15.5678 81.0609 15.5553 80.8173 15.5401C80.5738 15.5249 80.3372 15.5152 80.1089 15.5111C79.8806 15.5055 79.6869 15.5042 79.5277 15.5042V15.5941C79.8059 15.6342 80.0522 15.6785 80.2652 15.7283C80.4783 15.7781 80.6582 15.8501 80.8021 15.9442C80.946 16.0383 81.0581 16.1656 81.137 16.3247C81.2158 16.4838 81.2615 16.6969 81.2712 16.9653C81.2809 17.1743 81.2878 17.415 81.2933 17.689C81.2989 17.963 81.3002 18.2439 81.3002 18.5317V20.365L78.2727 20.3803L75.5137 20.3498L75.5289 18.3961C75.5289 18.0778 75.5316 17.7997 75.5358 17.5617C75.5413 17.3237 75.5482 17.1189 75.5579 16.9501C75.5676 16.7121 75.605 16.5129 75.67 16.3537C75.735 16.1946 75.8319 16.0659 75.9606 15.9663C76.0893 15.8667 76.2595 15.7906 76.467 15.7352C76.676 15.6813 76.9347 15.6384 77.2419 15.6079V15.5042C77.0924 15.5138 76.9167 15.5235 76.7119 15.5346C76.5085 15.5443 76.2913 15.554 76.063 15.5636C75.8347 15.5733 75.6064 15.5816 75.3767 15.5858C75.1484 15.5913 74.9339 15.5927 74.736 15.5927C74.5672 15.5927 74.368 15.5872 74.1396 15.5775C73.9113 15.5678 73.6747 15.5553 73.4312 15.5401C73.1877 15.5249 72.9511 15.5152 72.7228 15.5111C72.4944 15.5055 72.3007 15.5042 72.1416 15.5042V15.5941C72.4197 15.6342 72.666 15.6785 72.8791 15.7283C73.0922 15.7781 73.2721 15.8501 73.416 15.9442C73.5599 16.0383 73.672 16.1656 73.7508 16.3247C73.8297 16.4838 73.8754 16.6969 73.885 16.9653C73.8947 17.1743 73.903 17.4081 73.9072 17.6655C73.9127 17.9242 73.9141 18.1954 73.9141 18.4777V23.9045C73.9141 24.3376 73.9086 24.6573 73.8989 24.8662C73.8892 25.1346 73.8435 25.3491 73.7647 25.5068C73.6844 25.666 73.5765 25.7933 73.4367 25.8874C73.297 25.9814 73.1213 26.0534 72.9068 26.1032C72.6923 26.153 72.4474 26.1973 72.1693 26.2374V26.3274C72.3284 26.3177 72.5193 26.3108 72.7435 26.3052C72.9677 26.2997 73.196 26.2928 73.4298 26.2831C73.6637 26.2734 73.8947 26.2665 74.123 26.2609C74.3514 26.2554 74.5561 26.254 74.7346 26.254C74.9228 26.254 75.1373 26.2568 75.3753 26.2609C75.6133 26.2665 75.8568 26.2706 76.1059 26.2762C76.3536 26.2817 76.5902 26.2886 76.8143 26.2983C77.0385 26.308 77.2294 26.3191 77.3885 26.3287V26.225C77.0302 26.1945 76.7368 26.1503 76.5085 26.0908C76.2802 26.0313 76.099 25.9538 75.9647 25.8597C75.8305 25.7656 75.7337 25.6466 75.6742 25.5013C75.6147 25.3574 75.5745 25.1803 75.5552 24.9713C75.5358 24.8025 75.5247 24.5535 75.5247 24.2255V23.257L75.5095 21.5716V20.8853H81.2947V24.173C81.2947 24.4857 81.2892 24.7168 81.2795 24.8662C81.2698 25.1346 81.2241 25.3491 81.1453 25.5068C81.065 25.666 80.9557 25.7933 80.8173 25.8874C80.6776 25.9814 80.5018 26.0534 80.2874 26.1032C80.0729 26.153 79.828 26.1973 79.5499 26.2374V26.3274C79.709 26.3177 79.8999 26.3108 80.1241 26.3052C80.3483 26.2997 80.5766 26.2928 80.8104 26.2831C81.0443 26.2734 81.2753 26.2665 81.5036 26.2609C81.732 26.2554 81.9354 26.254 82.1152 26.254C82.3034 26.254 82.5179 26.2568 82.7559 26.2609C82.9939 26.2665 83.2374 26.2706 83.4865 26.2762C83.7355 26.2817 83.9708 26.2886 84.1949 26.2983C84.4191 26.308 84.61 26.3191 84.7691 26.3287V26.225C84.4108 26.1945 84.1174 26.1503 83.8891 26.0908C83.6608 26.0313 83.4796 25.9538 83.3453 25.8597H83.3536ZM74.6834 25.8818H74.1618V15.9359H74.6834V25.8818ZM82.035 25.897H81.5285V15.9372H82.035V25.897Z" fill="white"/>
<path d="M90.406 25.8597C90.2718 25.7656 90.1749 25.6466 90.1154 25.5013C90.0559 25.3574 90.0158 25.1803 89.9964 24.9713C89.977 24.8025 89.9674 24.5535 89.9674 24.2255V23.257L89.9521 21.0652L89.9674 18.3961C89.9674 18.0778 89.9701 17.7997 89.9743 17.5617C89.9798 17.3237 89.9867 17.1189 89.9964 16.9501C90.0061 16.7121 90.0435 16.5129 90.1085 16.3537C90.1735 16.1946 90.2704 16.0659 90.3991 15.9663C90.5277 15.8667 90.6979 15.7906 90.9055 15.7352C91.1144 15.6813 91.3732 15.6384 91.6804 15.6079V15.5042C91.5309 15.5138 91.3552 15.5235 91.1504 15.5346C90.947 15.5443 90.7298 15.554 90.5015 15.5636C90.2731 15.5733 90.0448 15.5816 89.8151 15.5858C89.5868 15.5913 89.3724 15.5927 89.1745 15.5927C89.0057 15.5927 88.8064 15.5872 88.5781 15.5775C88.3498 15.5678 88.1132 15.5553 87.8697 15.5401C87.6261 15.5249 87.3895 15.5152 87.1612 15.5111C86.9329 15.5055 86.7392 15.5042 86.5801 15.5042V15.5941C86.8582 15.6342 87.1045 15.6785 87.3176 15.7283C87.5307 15.7781 87.7106 15.8501 87.8545 15.9442C87.9984 16.0383 88.1104 16.1656 88.1893 16.3247C88.2682 16.4838 88.3138 16.6969 88.3235 16.9653C88.3332 17.1743 88.3401 17.4081 88.3457 17.6655C88.3512 17.9242 88.3526 18.1954 88.3526 18.4777V23.9045C88.3526 24.3376 88.3471 24.6573 88.3374 24.8662C88.3277 25.1346 88.2848 25.3491 88.2101 25.5068C88.1353 25.666 88.026 25.7933 87.8821 25.8874C87.7382 25.9814 87.5584 26.0534 87.3453 26.1032C87.1308 26.153 86.8859 26.1973 86.6078 26.2374V26.3274C86.7669 26.3177 86.9578 26.3108 87.182 26.3052C87.4061 26.2997 87.6345 26.2928 87.8683 26.2831C88.1021 26.2734 88.3332 26.2665 88.5615 26.2609C88.7898 26.2554 88.9946 26.254 89.1731 26.254C89.3613 26.254 89.5758 26.2568 89.8138 26.2609C90.0518 26.2665 90.2953 26.2706 90.5443 26.2762C90.792 26.2817 91.0286 26.2886 91.2528 26.2983C91.477 26.308 91.6679 26.3191 91.827 26.3287V26.225C91.4687 26.1945 91.1753 26.1503 90.947 26.0908C90.7187 26.0313 90.5374 25.9538 90.4032 25.8597H90.406ZM89.1164 25.897H88.5947V15.9511H89.1164V25.897Z" fill="white"/>
<path d="M102.984 15.2136C102.924 15.2787 102.83 15.3354 102.7 15.3852C102.571 15.435 102.401 15.4724 102.194 15.4973C101.985 15.5222 101.706 15.5402 101.359 15.5499L97.9442 15.6246L94.9776 15.5499C94.8586 15.5499 94.7161 15.543 94.5528 15.5277C94.3881 15.5125 94.2304 15.4835 94.0754 15.4378C93.9218 15.3935 93.7752 15.3312 93.6354 15.251C93.4957 15.1721 93.3864 15.0573 93.3075 14.9078L93.2175 14.9978C93.0985 15.4544 92.9934 15.8626 92.9048 16.221C92.8246 16.5392 92.7554 16.8298 92.6959 17.0927C92.6364 17.3556 92.606 17.5023 92.606 17.5327L92.7097 17.6074C92.8592 17.3487 92.9879 17.13 93.0972 16.9515C93.2065 16.773 93.3255 16.6264 93.4555 16.5115C93.5842 16.3981 93.7406 16.315 93.9246 16.2652C94.1086 16.2154 94.3494 16.1905 94.6483 16.1905L97.0642 16.1601V17.0249C97.0642 17.2836 97.067 17.5673 97.0711 17.8745C97.0767 18.183 97.078 18.4805 97.078 18.7697V22.5873C97.078 23.0647 97.0753 23.5144 97.0711 23.9364C97.0656 24.3584 97.0587 24.6698 97.049 24.869C97.0393 25.1374 96.9964 25.3519 96.9217 25.5097C96.847 25.6688 96.7377 25.7961 96.5937 25.8902C96.4498 25.9843 96.2713 26.0562 96.0569 26.106C95.8424 26.1558 95.5975 26.2001 95.3194 26.2402V26.3302C95.4785 26.3205 95.6694 26.3136 95.8936 26.308C96.1178 26.3025 96.3461 26.2956 96.5799 26.2859C96.8138 26.2762 97.0448 26.2693 97.2731 26.2638C97.5014 26.2582 97.7062 26.2569 97.8847 26.2569C98.0729 26.2569 98.2874 26.2596 98.5254 26.2638C98.7634 26.2693 99.0069 26.2735 99.256 26.279C99.5036 26.2845 99.7403 26.2914 99.9644 26.3011C100.189 26.3108 100.38 26.3219 100.539 26.3316V26.2278C100.18 26.1974 99.8869 26.1531 99.6586 26.0936C99.4303 26.0341 99.249 25.9566 99.1148 25.8625C98.9806 25.7684 98.8838 25.6494 98.8243 25.5041C98.7648 25.3602 98.7246 25.1831 98.7053 24.9742C98.6859 24.8054 98.6748 24.5563 98.6748 24.2284V19.1433C98.6748 18.2384 98.6803 17.2449 98.69 16.1615L101.121 16.1919C101.687 16.2016 102.098 16.3137 102.351 16.5268C102.604 16.7412 102.711 17.1453 102.672 17.7416L102.791 17.7721L103.269 15.0434L103.15 14.9839C103.1 15.0739 103.046 15.15 102.985 15.215L102.984 15.2136ZM97.7948 25.8819H97.3022V15.9359H97.7948V25.8819Z" fill="white"/>
<path d="M111.766 24.6961C111.626 24.9299 111.479 25.1167 111.326 25.2551C111.172 25.3949 111.002 25.4959 110.819 25.5609C110.635 25.6259 110.433 25.673 110.216 25.702C110.087 25.7214 109.991 25.7339 109.926 25.7394C109.861 25.7449 109.798 25.7463 109.739 25.7463C109.679 25.7463 109.611 25.7491 109.538 25.7532C109.463 25.7588 109.357 25.7657 109.217 25.7754C108.889 25.8058 108.615 25.7906 108.397 25.7311C108.178 25.6716 108.004 25.5747 107.875 25.4405C107.746 25.3063 107.654 25.1403 107.6 24.941C107.544 24.7418 107.518 24.519 107.518 24.2699V23.8368C107.518 23.6583 107.515 23.4715 107.511 23.2778C107.506 23.0841 107.504 22.8959 107.504 22.7105V20.9283L109.861 20.9726C110.099 20.9726 110.291 21.0155 110.435 21.0999C110.579 21.1843 110.688 21.2881 110.763 21.4126C110.837 21.5371 110.887 21.6741 110.912 21.8222C110.937 21.9716 110.954 22.11 110.965 22.24L111.099 22.2553V22.0021C111.099 21.8927 111.096 21.7737 111.092 21.6437C111.086 21.515 111.085 21.3822 111.085 21.2479V20.8826C111.085 20.8135 111.091 20.7208 111.1 20.6073C111.11 20.4938 111.122 20.3707 111.138 20.242C111.153 20.1133 111.167 19.986 111.182 19.8615C111.197 19.737 111.214 19.6249 111.235 19.5266L111.204 19.4962C111.185 19.4768 111.164 19.4657 111.145 19.4657C111.095 19.6055 111.051 19.7273 111.01 19.831C110.97 19.9348 110.914 20.0248 110.839 20.0995C110.764 20.1742 110.664 20.2337 110.54 20.278C110.415 20.3223 110.24 20.3444 110.01 20.3444C109.613 20.3541 109.249 20.3596 108.921 20.3596C108.633 20.3693 108.352 20.3748 108.078 20.3748H107.504V16.1103H108.518L109.517 16.1255C110.114 16.1352 110.557 16.2971 110.844 16.6098C111.132 16.9225 111.301 17.3584 111.351 17.9146H111.485C111.485 17.8358 111.488 17.7334 111.492 17.6088C111.497 17.4843 111.502 17.3529 111.507 17.2131C111.513 17.0734 111.52 16.9378 111.529 16.8035C111.539 16.6693 111.549 16.5476 111.558 16.4382C111.578 16.3289 111.596 16.1546 111.611 15.9166C111.626 15.6786 111.663 15.4448 111.723 15.2164L111.604 15.1417C111.554 15.2607 111.486 15.3534 111.403 15.4171C111.319 15.4821 111.212 15.5236 111.082 15.5444C110.954 15.5651 110.795 15.5748 110.605 15.5748H109.919L107.771 15.59H106.951C106.632 15.59 106.304 15.5845 105.967 15.5748C105.629 15.5651 105.301 15.5554 104.983 15.5444C104.665 15.5347 104.396 15.5195 104.178 15.5001V15.6191C104.456 15.6592 104.699 15.7035 104.908 15.7533C105.117 15.8031 105.289 15.8751 105.423 15.9692C105.557 16.0633 105.66 16.1906 105.729 16.3497C105.798 16.5088 105.838 16.7219 105.848 16.9903C105.858 17.1993 105.864 17.4331 105.87 17.6919C105.876 17.9506 105.877 18.2163 105.877 18.4889V23.8714C105.877 24.3045 105.871 24.6241 105.862 24.8331C105.852 25.1015 105.812 25.316 105.743 25.4737C105.674 25.6329 105.571 25.7602 105.437 25.8542C105.303 25.9483 105.134 26.0203 104.93 26.0701C104.727 26.1199 104.485 26.1642 104.207 26.2043V26.3233L106.935 26.2486L111.081 26.3233C111.23 26.3233 111.347 26.3109 111.431 26.286C111.515 26.261 111.582 26.2209 111.632 26.167C111.681 26.113 111.719 26.0521 111.744 25.9885C111.769 25.9234 111.791 25.857 111.81 25.7878L112.288 23.8645L112.169 23.805C112.04 24.1634 111.906 24.4595 111.766 24.6919V24.6961ZM106.607 25.8971H106.086V15.9512H106.607V25.8971Z" fill="white"/>
<path d="M124.164 21.1469C123.851 20.8535 123.508 20.5823 123.135 20.3346C122.762 20.087 122.401 19.8324 122.054 19.5736C121.795 19.3951 121.57 19.2263 121.376 19.0672C121.182 18.9081 121.016 18.7489 120.877 18.5898C120.737 18.4307 120.633 18.2674 120.564 18.0972C120.495 17.9284 120.46 17.7388 120.46 17.5299C120.46 17.2822 120.507 17.0428 120.601 16.8145C120.695 16.5862 120.825 16.3897 120.989 16.2251C121.153 16.0604 121.347 15.929 121.57 15.8293C121.794 15.7297 122.035 15.6799 122.293 15.6799C122.512 15.6799 122.749 15.7173 123.002 15.792C123.255 15.8667 123.496 15.9926 123.726 16.1725C123.954 16.351 124.156 16.5931 124.329 16.8962C124.503 17.1992 124.625 17.5797 124.694 18.0363L124.828 17.9921C124.809 17.6447 124.785 17.2905 124.762 16.9335C124.737 16.5752 124.73 16.2223 124.74 15.875C124.581 15.7754 124.397 15.6882 124.188 15.6135C123.979 15.5388 123.763 15.4793 123.539 15.435C123.315 15.3907 123.093 15.3589 122.876 15.3381C122.657 15.3188 122.458 15.3091 122.28 15.3091C121.773 15.3091 121.312 15.381 120.9 15.5249C120.488 15.6688 120.135 15.8626 119.842 16.1061C119.548 16.3496 119.323 16.6374 119.164 16.9709C119.004 17.3044 118.926 17.6641 118.926 18.0516C118.926 18.5386 119.017 18.9606 119.201 19.319C119.385 19.6774 119.623 19.997 119.916 20.2807C120.21 20.5643 120.538 20.8272 120.9 21.0708C121.263 21.3143 121.618 21.5606 121.967 21.8083C122.255 22.0172 122.504 22.2109 122.713 22.3894C122.922 22.5679 123.09 22.7423 123.219 22.9111C123.348 23.0799 123.443 23.257 123.503 23.441C123.562 23.6251 123.593 23.8368 123.593 24.0748C123.593 24.3335 123.546 24.5798 123.452 24.8123C123.357 25.0461 123.22 25.2523 123.042 25.4308C122.864 25.6093 122.649 25.7532 122.401 25.8625C122.152 25.9718 121.88 26.0271 121.581 26.0271C120.776 26.0271 120.12 25.7933 119.613 25.327C119.107 24.8593 118.813 24.1592 118.733 23.2252H118.629C118.61 23.6624 118.589 24.0402 118.57 24.3584C118.551 24.6767 118.52 25.0198 118.48 25.3879C118.898 25.7366 119.36 26.0119 119.866 26.2153C120.373 26.4187 120.896 26.5211 121.431 26.5211C121.918 26.5211 122.39 26.4561 122.848 26.3274C123.305 26.1987 123.71 26.0022 124.063 25.7379C124.416 25.475 124.7 25.1416 124.913 24.7389C125.126 24.3363 125.234 23.8672 125.234 23.3303C125.234 22.8737 125.134 22.4683 124.935 22.1154C124.736 21.7626 124.48 21.4402 124.167 21.1469H124.164ZM124.179 24.7707C124.055 25.0738 123.868 25.345 123.62 25.583C123.371 25.821 123.068 26.0133 122.711 26.1572C122.353 26.3011 121.936 26.3634 121.459 26.344V26.2693C121.867 26.2596 122.221 26.1918 122.526 26.0686C122.829 25.9441 123.079 25.7725 123.279 25.5539C123.478 25.3353 123.626 25.0848 123.726 24.8012C123.825 24.5175 123.875 24.2173 123.875 23.899C123.875 23.6804 123.818 23.4438 123.703 23.1906C123.589 22.9374 123.407 22.6855 123.16 22.4378C122.96 22.2497 122.727 22.056 122.459 21.8567C122.191 21.6574 121.91 21.4568 121.617 21.2534C121.323 21.05 121.03 20.8383 120.737 20.6197C120.443 20.4011 120.172 20.1672 119.925 19.9195C119.725 19.7203 119.566 19.492 119.447 19.2332C119.328 18.9745 119.253 18.7033 119.223 18.421C119.193 18.1373 119.205 17.8565 119.26 17.5783C119.314 17.3002 119.417 17.0415 119.566 16.8035C119.804 16.4257 120.156 16.1172 120.618 15.8792C121.08 15.6412 121.624 15.5208 122.251 15.5208V15.5955C121.683 15.6149 121.189 15.7615 120.767 16.0355C120.345 16.3095 120.031 16.6443 119.828 17.0415C119.624 17.4386 119.55 17.8661 119.604 18.3241C119.657 18.7808 119.879 19.1986 120.268 19.5764C120.456 19.7549 120.701 19.9514 120.998 20.1658C121.297 20.3803 121.602 20.5962 121.916 20.8148C122.228 21.0334 122.531 21.2479 122.825 21.4554C123.118 21.6644 123.355 21.8581 123.533 22.0366C123.842 22.3451 124.058 22.6399 124.182 22.9235C124.307 23.2072 124.369 23.513 124.369 23.8409C124.369 24.1688 124.307 24.4691 124.182 24.7735L124.179 24.7707Z" fill="white"/>
<path d="M136.354 17.7402L136.473 17.7707L136.95 15.0421L136.831 14.9826C136.782 15.0725 136.728 15.1486 136.667 15.2136C136.607 15.2787 136.513 15.3354 136.383 15.3852C136.254 15.435 136.084 15.4724 135.877 15.4973C135.668 15.5222 135.39 15.5402 135.042 15.5499L131.627 15.6246L128.661 15.5499C128.542 15.5499 128.399 15.543 128.236 15.5277C128.071 15.5125 127.914 15.4835 127.759 15.4378C127.605 15.3935 127.458 15.3312 127.319 15.251C127.179 15.1721 127.069 15.0573 126.991 14.9078L126.901 14.9978C126.782 15.4544 126.676 15.8626 126.588 16.221C126.508 16.5392 126.438 16.8298 126.379 17.0927C126.319 17.3556 126.289 17.5023 126.289 17.5327L126.393 17.6074C126.542 17.3487 126.671 17.13 126.78 16.9515C126.89 16.773 127.009 16.6264 127.139 16.5115C127.267 16.3981 127.424 16.315 127.608 16.2652C127.792 16.2154 128.033 16.1905 128.331 16.1905L130.747 16.1601V17.0249C130.747 17.2836 130.75 17.5673 130.754 17.8745C130.76 18.183 130.761 18.4805 130.761 18.7697V22.5873C130.761 23.0647 130.758 23.5144 130.754 23.9364C130.749 24.3584 130.742 24.6698 130.732 24.869C130.722 25.1374 130.68 25.3519 130.605 25.5097C130.53 25.6688 130.421 25.7961 130.277 25.8902C130.133 25.9843 129.954 26.0562 129.74 26.106C129.526 26.1558 129.281 26.2001 129.002 26.2402V26.3302C129.162 26.3205 129.353 26.3136 129.577 26.308C129.801 26.3025 130.029 26.2956 130.263 26.2859C130.497 26.2762 130.728 26.2693 130.956 26.2638C131.185 26.2582 131.389 26.2569 131.568 26.2569C131.756 26.2569 131.97 26.2596 132.208 26.2638C132.446 26.2693 132.69 26.2735 132.939 26.279C133.187 26.2845 133.423 26.2914 133.648 26.3011C133.872 26.3108 134.063 26.3219 134.222 26.3316V26.2278C133.863 26.1974 133.57 26.1531 133.342 26.0936C133.113 26.0341 132.932 25.9566 132.798 25.8625C132.664 25.7684 132.567 25.6494 132.507 25.5041C132.448 25.3602 132.408 25.1831 132.388 24.9742C132.369 24.8054 132.358 24.5563 132.358 24.2284V19.1433C132.358 18.2384 132.363 17.2449 132.373 16.1615L134.803 16.1919C135.369 16.2016 135.78 16.3137 136.033 16.5268C136.286 16.7412 136.393 17.1453 136.354 17.7416V17.7402ZM131.478 25.8819H130.985V15.9359H131.478V25.8819Z" fill="white"/>
<path d="M146.374 24.3612L142.422 15.0116H142.303C141.666 16.542 141.085 17.9436 140.558 19.2166C140.33 19.7632 140.103 20.307 139.88 20.8494C139.656 21.3918 139.448 21.8927 139.253 22.3548C139.059 22.817 138.893 23.2196 138.754 23.5628C138.614 23.9059 138.516 24.1522 138.455 24.3003C138.326 24.6185 138.202 24.887 138.083 25.1056C137.964 25.3242 137.824 25.5055 137.665 25.6494C137.506 25.7933 137.316 25.9109 137.097 25.9995C136.879 26.0894 136.605 26.1641 136.277 26.2236V26.3274C136.376 26.3274 136.536 26.3219 136.754 26.3122C136.973 26.3025 137.198 26.29 137.432 26.2748C137.666 26.2596 137.872 26.2472 138.051 26.2375C138.229 26.2278 138.329 26.2222 138.35 26.2222C138.409 26.2222 138.536 26.2278 138.73 26.2375C138.924 26.2472 139.13 26.2596 139.349 26.2748C139.567 26.29 139.773 26.3025 139.967 26.3122C140.161 26.3219 140.288 26.3274 140.348 26.3274V26.2236C140.219 26.2139 140.086 26.1918 139.952 26.1572C139.818 26.1226 139.696 26.0728 139.587 26.0078C139.477 25.9427 139.387 25.8583 139.318 25.7546C139.249 25.6508 139.214 25.5235 139.214 25.374C139.214 25.2744 139.237 25.1499 139.281 25.0018C139.325 24.8524 139.372 24.6988 139.422 24.5397C139.441 24.4608 139.497 24.2961 139.587 24.0471C139.677 23.7994 139.775 23.5351 139.886 23.257C140.005 22.9291 140.139 22.5707 140.288 22.1833L142.003 22.1528L143.732 22.1833C143.861 22.5015 143.985 22.8198 144.104 23.138C144.214 23.4064 144.323 23.6901 144.432 23.9876C144.542 24.2865 144.641 24.5494 144.731 24.7777C144.9 25.2647 144.903 25.6079 144.738 25.8071C144.573 26.0064 144.223 26.1448 143.687 26.225V26.3288C143.836 26.3288 144.014 26.3233 144.223 26.3136C144.432 26.3039 144.656 26.2914 144.894 26.2762C145.132 26.261 145.379 26.2485 145.632 26.2388C145.885 26.2292 146.126 26.2236 146.356 26.2236C146.643 26.2236 146.917 26.2292 147.176 26.2388C147.435 26.2485 147.663 26.2638 147.862 26.2831C148.1 26.3039 148.319 26.3177 148.518 26.3274V26.2236C147.981 26.1738 147.541 25.9773 147.198 25.6342C146.855 25.291 146.58 24.8662 146.371 24.3598L146.374 24.3612ZM141.961 21.6768L140.456 21.6325L141.947 17.7112C141.947 17.671 141.962 17.6517 141.991 17.6517C142.011 17.6517 142.026 17.671 142.036 17.7112C142.045 17.7513 142.055 17.7804 142.065 17.8011L143.541 21.6325L141.961 21.6768ZM145.48 25.8971L142.11 17.2186L142.348 16.5918L145.972 25.8957H145.48V25.8971Z" fill="white"/>
<path d="M160.71 21.1842C160.507 21.1939 160.289 21.2036 160.061 21.2147C159.833 21.2244 159.605 21.2327 159.378 21.2368C159.151 21.2423 158.939 21.2437 158.741 21.2437C158.574 21.2437 158.376 21.2382 158.149 21.2285C157.922 21.2188 157.687 21.2064 157.443 21.1911C157.2 21.1759 156.963 21.1662 156.735 21.1607C156.506 21.1552 156.313 21.1538 156.154 21.1538V21.2728C156.432 21.3129 156.678 21.36 156.891 21.4139C157.104 21.4693 157.284 21.5454 157.428 21.645C157.572 21.7446 157.684 21.8761 157.763 22.0407C157.842 22.2054 157.887 22.4212 157.897 22.6897C157.907 22.8391 157.912 23.0398 157.912 23.293V24.5535C157.912 24.7029 157.91 24.8524 157.905 25.0004C157.9 25.1499 157.898 25.2786 157.898 25.3879C157.889 25.5166 157.883 25.6411 157.883 25.7601C157.843 25.7808 157.768 25.8002 157.659 25.8196C157.55 25.839 157.422 25.8597 157.279 25.8791C157.135 25.8998 156.985 25.9164 156.832 25.9317C156.678 25.9469 156.536 25.9538 156.407 25.9538C155.542 25.9538 154.791 25.7919 154.156 25.4695C153.519 25.1471 152.992 24.7265 152.575 24.209C152.158 23.6929 151.848 23.1131 151.643 22.4724C151.439 21.8318 151.337 21.1925 151.337 20.556C151.337 19.9195 151.444 19.2983 151.658 18.7226C151.871 18.1456 152.17 17.642 152.553 17.2089C152.935 16.7758 153.393 16.434 153.925 16.1794C154.456 15.9262 155.045 15.7989 155.691 15.7989C156.159 15.7989 156.594 15.8612 156.996 15.9857C157.399 16.1102 157.755 16.2846 158.063 16.5074C158.372 16.7315 158.632 16.9944 158.846 17.2974C159.059 17.6005 159.212 17.9312 159.302 18.2895L159.48 18.2591L159.018 15.8432C158.7 15.7145 158.372 15.6121 158.034 15.5374C157.696 15.4627 157.373 15.4059 157.065 15.3658C156.757 15.3257 156.479 15.3036 156.231 15.2994C155.982 15.2939 155.794 15.2925 155.665 15.2925C154.879 15.2925 154.104 15.417 153.339 15.6647C152.574 15.9138 151.89 16.2763 151.289 16.7537C150.687 17.231 150.202 17.8122 149.834 18.4985C149.466 19.1848 149.282 19.9652 149.282 20.8397C149.282 21.8138 149.468 22.6592 149.84 23.3746C150.212 24.09 150.703 24.685 151.313 25.1568C151.924 25.6286 152.618 25.9815 153.397 26.2153C154.176 26.4492 154.968 26.5654 155.772 26.5654C156.149 26.5654 156.491 26.5446 156.8 26.5059C157.107 26.4658 157.385 26.4312 157.634 26.4021C157.763 26.3827 157.922 26.3551 158.11 26.3205C158.298 26.2859 158.487 26.2458 158.676 26.2015C158.864 26.1572 159.039 26.1115 159.198 26.0673C159.357 26.023 159.47 25.9801 159.54 25.94V23.2418C159.54 22.9637 159.545 22.7547 159.555 22.615C159.564 22.377 159.602 22.1805 159.667 22.0255C159.732 21.8719 159.829 21.7419 159.957 21.6381C160.086 21.5343 160.256 21.454 160.464 21.4001C160.673 21.3461 160.932 21.3032 161.239 21.2728V21.1538C161.089 21.1635 160.914 21.1732 160.709 21.1842H160.71ZM156.22 26.3883C155.109 26.3786 154.14 26.2126 153.317 25.8888C152.494 25.5664 151.81 25.143 151.269 24.6213C150.728 24.0997 150.324 23.5102 150.056 22.8543C149.787 22.1985 149.659 21.5274 149.668 20.8411C149.668 20.235 149.787 19.6331 150.027 19.0367C150.265 18.4404 150.613 17.9007 151.07 17.4192C151.527 16.9377 152.094 16.5267 152.771 16.1891C153.446 15.8515 154.226 15.6329 155.112 15.5332C155.231 15.5139 155.411 15.5014 155.649 15.4959C155.887 15.4903 156.116 15.4987 156.335 15.518V15.6218C155.539 15.5817 154.777 15.6661 154.046 15.875C153.316 16.084 152.667 16.4064 152.101 16.8436C151.535 17.2808 151.082 17.8274 150.743 18.4833C150.406 19.1391 150.237 19.9002 150.237 20.765C150.237 21.4015 150.371 22.0449 150.638 22.6952C150.907 23.3469 151.295 23.935 151.806 24.4622C152.317 24.9894 152.945 25.4239 153.689 25.767C154.434 26.1102 155.278 26.2873 156.22 26.297V26.3869V26.3883ZM158.705 25.5387L158.199 25.7172V21.6768H158.705V25.5387Z" fill="white"/>
<path d="M93.5801 32.4226C93.4514 32.3506 93.3116 32.3022 93.158 32.2745C93.0045 32.2483 92.8578 32.2344 92.718 32.2344C92.5976 32.2344 92.4759 32.2372 92.3527 32.2441C92.2296 32.251 92.1134 32.2538 92.0027 32.2538C91.9266 32.2538 91.8477 32.2538 91.7674 32.251C91.6872 32.2496 91.6111 32.2483 91.5405 32.2455C91.4686 32.2441 91.4035 32.2427 91.3426 32.24C91.2831 32.2386 91.2333 32.2358 91.1932 32.233V32.2732C91.2859 32.287 91.3675 32.3008 91.4381 32.3174C91.5087 32.334 91.5668 32.3589 91.6125 32.3922C91.6581 32.4254 91.6941 32.4683 91.7176 32.5222C91.7411 32.5762 91.7536 32.6468 91.7577 32.7367C91.7605 32.8073 91.7633 32.8848 91.7647 32.9692C91.766 33.0536 91.7674 33.1435 91.7674 33.2362V35.0475C91.7674 35.1927 91.766 35.2993 91.7619 35.3699C91.7591 35.4598 91.7439 35.5317 91.7162 35.5843C91.6899 35.6383 91.6526 35.6798 91.6069 35.7116C91.5599 35.7435 91.5018 35.767 91.4298 35.7836C91.3579 35.8002 91.2762 35.8154 91.1821 35.8279V35.8583C91.2347 35.8555 91.2997 35.8528 91.3745 35.8514C91.4492 35.85 91.5267 35.8472 91.6042 35.8445C91.683 35.8417 91.7605 35.8389 91.8366 35.8375C91.9127 35.8362 91.9819 35.8348 92.0414 35.8348C92.1051 35.8348 92.177 35.8348 92.2559 35.8375C92.3361 35.8389 92.4178 35.8403 92.5008 35.8431C92.5838 35.8445 92.6627 35.8472 92.7388 35.85C92.8135 35.8528 92.8785 35.8569 92.9311 35.8597V35.8251C92.8107 35.8154 92.7125 35.8002 92.6364 35.7808C92.5603 35.7614 92.4994 35.7351 92.4537 35.7033C92.4095 35.6715 92.3763 35.6314 92.3569 35.5829C92.3375 35.5345 92.3237 35.475 92.3168 35.4058C92.3098 35.3491 92.3071 35.2661 92.3071 35.1554V34.8302L92.3015 34.0955L92.3071 33.5655V32.4309L92.3417 32.3659C92.4012 32.3589 92.4703 32.3589 92.5465 32.3659C92.6904 32.3728 92.819 32.4074 92.9366 32.4683C93.0529 32.5305 93.1525 32.6094 93.2341 32.7063C93.3158 32.8031 93.378 32.9138 93.4209 33.0411C93.4638 33.1684 93.486 33.2999 93.486 33.4355C93.486 33.5821 93.4625 33.7108 93.4154 33.8201C93.3684 33.9294 93.3047 34.0235 93.2231 34.1024C93.1414 34.1813 93.0432 34.2421 92.9283 34.285C92.8135 34.3279 92.689 34.357 92.5561 34.3694V34.4151C92.7291 34.4248 92.9034 34.4027 93.0778 34.3473C93.2521 34.292 93.4099 34.2117 93.5496 34.1052C93.6894 33.9986 93.8042 33.8686 93.8914 33.715C93.98 33.5614 94.0242 33.3912 94.0242 33.2058C94.0242 33.0065 93.9813 32.8432 93.8969 32.7159C93.8125 32.59 93.706 32.4904 93.5773 32.4184L93.5801 32.4226ZM92.0096 35.713H91.8394V32.3852H92.0096V35.713ZM93.6534 33.7745C93.5994 33.8948 93.533 33.9945 93.4514 34.0747C93.3697 34.155 93.2812 34.2172 93.1871 34.2615C93.0916 34.3058 93.0031 34.3376 92.92 34.3542L92.9145 34.3349C92.9878 34.3155 93.0626 34.2837 93.1373 34.2421C93.212 34.2006 93.2812 34.1425 93.3448 34.0678C93.4085 33.9931 93.4597 33.899 93.4998 33.7883C93.5399 33.6762 93.5593 33.5448 93.5593 33.3912C93.5593 33.2653 93.5358 33.1407 93.4887 33.019C93.4417 32.8972 93.3794 32.7879 93.2992 32.691C93.2189 32.5942 93.1248 32.5139 93.0141 32.4517C92.9048 32.388 92.7858 32.3506 92.6599 32.3368V32.3119C92.7969 32.3188 92.9284 32.3451 93.057 32.3922C93.1857 32.4392 93.2992 32.5056 93.3988 32.5914C93.4984 32.6786 93.5801 32.7851 93.6409 32.911C93.7018 33.0383 93.7337 33.1836 93.7337 33.3511C93.7337 33.5185 93.7074 33.6555 93.6534 33.7758V33.7745Z" fill="white"/>
<path d="M97.3424 35.6438C97.2275 35.5345 97.1182 35.4114 97.0145 35.2744C96.9107 35.1374 96.8166 34.999 96.7322 34.8565C96.6478 34.7154 96.5744 34.5756 96.5122 34.4372C96.4499 34.2989 96.4029 34.173 96.3697 34.0595C96.5564 33.9626 96.7114 33.8395 96.8373 33.6901C96.9633 33.5406 97.0241 33.3621 97.0241 33.156C97.0241 32.9733 96.9812 32.8225 96.8941 32.7035C96.8069 32.5859 96.6962 32.4932 96.562 32.4267C96.4264 32.3603 96.2769 32.3133 96.1123 32.287C95.9476 32.2607 95.7844 32.2469 95.6252 32.2469C95.5284 32.2469 95.4315 32.2496 95.336 32.2538C95.2392 32.2593 95.1423 32.2607 95.0468 32.2607C94.9638 32.2607 94.8545 32.2579 94.7189 32.251C94.5833 32.2441 94.4104 32.2413 94.1973 32.2413V32.2759C94.29 32.2898 94.3716 32.3036 94.4422 32.3202C94.5127 32.3368 94.5709 32.3617 94.6165 32.3922C94.6636 32.424 94.6982 32.4669 94.7217 32.5195C94.7452 32.5734 94.7577 32.644 94.7618 32.7339C94.7646 32.8045 94.7673 32.882 94.7673 32.9692V33.9239C94.7673 33.9875 94.7673 34.0567 94.7701 34.1342C94.7715 34.2103 94.7729 34.2906 94.7729 34.3736V35.0613C94.7729 35.2024 94.7715 35.3076 94.7673 35.374C94.7646 35.4639 94.7494 35.5359 94.7231 35.5885C94.6968 35.6424 94.6594 35.684 94.6138 35.7158C94.5667 35.7476 94.5086 35.7711 94.4366 35.7877C94.3647 35.8043 94.2831 35.8196 94.189 35.832V35.8624C94.2415 35.8597 94.3066 35.8569 94.3813 35.8555C94.456 35.8541 94.5335 35.8514 94.611 35.8486C94.6899 35.8458 94.7673 35.8431 94.8434 35.8417C94.9195 35.8403 94.9887 35.8389 95.0482 35.8389C95.1119 35.8389 95.1824 35.8389 95.2627 35.8417C95.343 35.8431 95.4246 35.8445 95.5076 35.8472C95.5906 35.8486 95.6695 35.8514 95.7456 35.8541C95.8203 35.8569 95.884 35.8611 95.9379 35.8638V35.8292C95.8176 35.8196 95.7193 35.8043 95.6432 35.785C95.5671 35.7656 95.5062 35.7393 95.4606 35.7075C95.4163 35.6756 95.3831 35.6355 95.3637 35.5871C95.3443 35.5387 95.3305 35.4792 95.3236 35.41C95.3167 35.3533 95.3139 35.2702 95.3139 35.1595V34.3252C95.3568 34.3279 95.4052 34.3293 95.4592 34.3279C95.5118 34.3266 95.5644 34.3224 95.6169 34.3183C95.6681 34.3127 95.7166 34.3072 95.7594 34.3003C95.8023 34.2933 95.8397 34.285 95.8688 34.2754C95.9656 34.4981 96.0722 34.7168 96.1884 34.9298C96.3046 35.1429 96.4471 35.3339 96.616 35.5041C96.7848 35.6743 96.9868 35.8126 97.2262 35.9192C97.4641 36.0257 97.752 36.0838 98.0882 36.0935V36.0492C97.9581 36.0354 97.8308 35.9925 97.7063 35.9192C97.5818 35.8458 97.4614 35.7545 97.3465 35.6438H97.3424ZM95.0109 35.713H94.8407V32.3852H95.0109V35.713ZM95.6308 32.3299C95.7678 32.3396 95.9006 32.3631 96.0307 32.4005C96.1607 32.4378 96.277 32.4918 96.378 32.5623C96.479 32.6343 96.5606 32.7242 96.6229 32.8349C96.6851 32.9442 96.7156 33.0771 96.7156 33.2293C96.7156 33.2999 96.7045 33.3663 96.681 33.4313C96.6575 33.4963 96.627 33.5572 96.5883 33.614C96.5495 33.6707 96.5066 33.7219 96.4582 33.7662C96.4098 33.8118 96.3614 33.8492 96.3102 33.8782V33.8533C96.407 33.7634 96.4693 33.6748 96.497 33.589C96.5246 33.5019 96.5399 33.4064 96.5399 33.2999C96.5399 33.1698 96.5163 33.0508 96.4679 32.9429C96.4195 32.8349 96.3544 32.7408 96.2728 32.6606C96.1912 32.5803 96.0943 32.5153 95.9836 32.4627C95.8715 32.4115 95.7539 32.3756 95.6308 32.3548V32.3299ZM95.729 34.1245C95.5906 34.1674 95.4495 34.191 95.307 34.1951V33.9903L95.3125 33.1961V32.4309L95.3471 32.3811C95.4869 32.3811 95.6238 32.4005 95.7594 32.4392C95.895 32.4779 96.014 32.5361 96.1192 32.6163C96.2244 32.6966 96.3088 32.799 96.3738 32.9235C96.4388 33.048 96.4707 33.1975 96.4707 33.3704C96.4707 33.4867 96.4361 33.5946 96.3683 33.6956C96.3005 33.7952 96.2105 33.881 96.1012 33.953C95.9919 34.0249 95.8674 34.0816 95.729 34.1259V34.1245ZM97.5347 35.9787C97.3175 35.915 97.1293 35.8265 96.9674 35.7144C96.8055 35.6009 96.6644 35.4709 96.5426 35.3242C96.4208 35.1775 96.3129 35.0156 96.2174 34.8399C96.122 34.6628 96.032 34.4788 95.9449 34.285C95.9712 34.2754 95.9961 34.2657 96.0196 34.2574C96.0431 34.2491 96.068 34.2366 96.0943 34.22C96.1746 34.3902 96.259 34.5618 96.3489 34.7347C96.4388 34.9077 96.5412 35.0724 96.6561 35.2273C96.7709 35.3823 96.901 35.5221 97.0463 35.6466C97.1916 35.7711 97.359 35.8735 97.5486 35.9538L97.5333 35.9787H97.5347Z" fill="white"/>
<path d="M101.171 32.655C100.997 32.4945 100.789 32.3714 100.549 32.2856C100.309 32.1984 100.048 32.1555 99.764 32.1555C99.4402 32.1555 99.1538 32.2109 98.9047 32.3202C98.6543 32.4295 98.4453 32.5748 98.2752 32.7519C98.105 32.9304 97.9763 33.1338 97.8877 33.3621C97.7992 33.5904 97.7549 33.8242 97.7549 34.0636C97.7549 34.303 97.8005 34.5535 97.8919 34.7831C97.9832 35.0128 98.1146 35.2149 98.2835 35.3878C98.4536 35.5608 98.6584 35.6991 98.9006 35.8029C99.1427 35.9067 99.4125 35.9579 99.7128 35.9579C100.013 35.9579 100.27 35.9081 100.517 35.8112C100.763 35.713 100.976 35.576 101.156 35.4017C101.336 35.2273 101.476 35.0198 101.575 34.779C101.675 34.5396 101.725 34.2795 101.725 34C101.725 33.7205 101.675 33.4617 101.577 33.2348C101.478 33.0079 101.341 32.8155 101.167 32.655H101.171ZM99.6146 35.8832C99.3586 35.8763 99.122 35.8195 98.9075 35.713C98.693 35.6064 98.5076 35.4695 98.3526 35.3006C98.1977 35.1318 98.0759 34.9423 97.9873 34.7292C97.8988 34.5161 97.8545 34.2961 97.8545 34.0692C97.8545 33.8256 97.9016 33.5959 97.997 33.3773C98.0925 33.1587 98.2198 32.9664 98.3789 32.8003C98.5394 32.6343 98.7249 32.5001 98.9366 32.4004C99.1483 32.3008 99.3724 32.2468 99.609 32.2399V32.2648C99.3697 32.2884 99.1524 32.352 98.9601 32.4572C98.7677 32.5623 98.6017 32.6965 98.4633 32.8598C98.325 33.0231 98.2198 33.2099 98.1465 33.4188C98.0731 33.6291 98.0372 33.8505 98.0372 34.083C98.0372 34.2892 98.0718 34.494 98.1423 34.6946C98.2129 34.8966 98.3153 35.0793 98.4495 35.2439C98.5837 35.4086 98.7498 35.5456 98.9462 35.6563C99.1427 35.7656 99.3655 35.8334 99.6159 35.8555V35.8804L99.6146 35.8832ZM99.2797 35.6438C99.1067 35.5511 98.9587 35.421 98.8369 35.2564C98.7152 35.0917 98.6197 34.898 98.5519 34.6766C98.4841 34.4552 98.4495 34.2158 98.4495 33.9598C98.4495 33.7039 98.4799 33.4783 98.5394 33.2749C98.5989 33.0715 98.6833 32.8999 98.7913 32.7602C98.8992 32.6204 99.0265 32.5125 99.1732 32.4378C99.3198 32.3631 99.479 32.3257 99.6533 32.3257C99.8567 32.3257 100.044 32.3728 100.212 32.4655C100.383 32.5582 100.528 32.6855 100.65 32.8446C100.771 33.0051 100.865 33.1933 100.932 33.4091C100.998 33.625 101.031 33.8588 101.031 34.1093C101.031 34.4026 100.997 34.6545 100.926 34.8662C100.856 35.0779 100.766 35.2508 100.656 35.3864C100.547 35.522 100.421 35.6217 100.279 35.6867C100.138 35.7517 99.9951 35.7835 99.8512 35.7835C99.6409 35.7835 99.4499 35.7365 99.2769 35.6438H99.2797ZM101.206 34.8067C101.138 35.0253 101.043 35.2121 100.921 35.3657C100.799 35.5206 100.655 35.6424 100.489 35.731C100.323 35.8195 100.143 35.8693 99.9494 35.8832L99.9439 35.8527C100.174 35.8264 100.365 35.7559 100.515 35.641C100.668 35.5262 100.788 35.3864 100.881 35.2218C100.972 35.0571 101.036 34.8758 101.073 34.6766C101.109 34.4787 101.128 34.2809 101.128 34.0844C101.128 33.791 101.09 33.5364 101.011 33.3192C100.932 33.1033 100.832 32.9193 100.709 32.7699C100.586 32.6204 100.448 32.5042 100.294 32.4226C100.14 32.3409 99.9868 32.2884 99.8346 32.2648L99.8443 32.2344C100.024 32.2482 100.201 32.2953 100.377 32.3769C100.551 32.4585 100.709 32.5762 100.846 32.7297C100.984 32.8833 101.096 33.0715 101.181 33.2943C101.265 33.5171 101.308 33.7758 101.308 34.0692C101.308 34.3417 101.274 34.588 101.206 34.8067Z" fill="white"/>
<path d="M104.49 32.4226C104.362 32.3506 104.222 32.3022 104.068 32.2745C103.915 32.2483 103.768 32.2344 103.628 32.2344C103.508 32.2344 103.386 32.2372 103.263 32.2441C103.14 32.251 103.024 32.2538 102.913 32.2538C102.837 32.2538 102.758 32.2538 102.678 32.251C102.597 32.2496 102.521 32.2483 102.451 32.2455C102.379 32.2441 102.314 32.2427 102.253 32.24C102.193 32.2386 102.143 32.2358 102.103 32.233V32.2732C102.196 32.287 102.278 32.3008 102.348 32.3174C102.419 32.334 102.477 32.3589 102.523 32.3922C102.568 32.4254 102.604 32.4683 102.628 32.5222C102.651 32.5762 102.664 32.6468 102.668 32.7367C102.671 32.8073 102.673 32.8848 102.675 32.9692C102.676 33.0536 102.678 33.1435 102.678 33.2362V35.0475C102.678 35.1927 102.676 35.2993 102.672 35.3699C102.669 35.4598 102.654 35.5317 102.626 35.5843C102.6 35.6383 102.563 35.6798 102.517 35.7116C102.47 35.7435 102.412 35.767 102.34 35.7836C102.268 35.8002 102.186 35.8154 102.092 35.8279V35.8583C102.145 35.8555 102.21 35.8528 102.285 35.8514C102.359 35.85 102.437 35.8472 102.514 35.8445C102.593 35.8417 102.671 35.8389 102.747 35.8375C102.823 35.8362 102.892 35.8348 102.952 35.8348C103.015 35.8348 103.087 35.8348 103.166 35.8375C103.246 35.8389 103.328 35.8403 103.411 35.8431C103.494 35.8445 103.573 35.8472 103.649 35.85C103.724 35.8528 103.789 35.8569 103.841 35.8597V35.8251C103.721 35.8154 103.623 35.8002 103.547 35.7808C103.47 35.7614 103.41 35.7351 103.364 35.7033C103.32 35.6715 103.286 35.6314 103.267 35.5829C103.248 35.5345 103.234 35.475 103.227 35.4058C103.22 35.3491 103.217 35.2661 103.217 35.1554V34.8302L103.212 34.0955L103.217 33.5655V32.4309L103.252 32.3659C103.311 32.3589 103.38 32.3589 103.457 32.3659C103.601 32.3728 103.729 32.4074 103.847 32.4683C103.963 32.5305 104.063 32.6094 104.144 32.7063C104.226 32.8031 104.288 32.9138 104.331 33.0411C104.374 33.1684 104.396 33.2999 104.396 33.4355C104.396 33.5821 104.373 33.7108 104.326 33.8201C104.279 33.9294 104.215 34.0235 104.133 34.1024C104.052 34.1813 103.953 34.2421 103.838 34.285C103.724 34.3279 103.599 34.357 103.466 34.3694V34.4151C103.639 34.4248 103.814 34.4027 103.988 34.3473C104.162 34.292 104.32 34.2117 104.46 34.1052C104.6 33.9986 104.714 33.8686 104.802 33.715C104.89 33.5614 104.934 33.3912 104.934 33.2058C104.934 33.0065 104.891 32.8432 104.807 32.7159C104.723 32.59 104.616 32.4904 104.487 32.4184L104.49 32.4226ZM102.918 35.713H102.748V32.3852H102.918V35.713ZM104.562 33.7745C104.508 33.8948 104.442 33.9945 104.36 34.0747C104.279 34.155 104.19 34.2172 104.096 34.2615C104 34.3058 103.912 34.3376 103.829 34.3542L103.823 34.3349C103.897 34.3155 103.971 34.2837 104.046 34.2421C104.121 34.2006 104.19 34.1425 104.254 34.0678C104.317 33.9931 104.368 33.899 104.409 33.7883C104.449 33.6762 104.468 33.5448 104.468 33.3912C104.468 33.2653 104.445 33.1407 104.398 33.019C104.35 32.8972 104.288 32.7879 104.208 32.691C104.128 32.5942 104.034 32.5139 103.923 32.4517C103.814 32.388 103.695 32.3506 103.569 32.3368V32.3119C103.706 32.3188 103.837 32.3451 103.966 32.3922C104.094 32.4392 104.208 32.5056 104.308 32.5914C104.407 32.6786 104.489 32.7851 104.55 32.911C104.611 33.0383 104.642 33.1836 104.642 33.3511C104.642 33.5185 104.616 33.6555 104.562 33.7758V33.7745Z" fill="white"/>
<path d="M108.031 35.3159C107.984 35.3947 107.936 35.457 107.883 35.5027C107.832 35.5497 107.775 35.5829 107.713 35.6051C107.651 35.6272 107.584 35.6424 107.511 35.6521C107.468 35.659 107.435 35.6632 107.414 35.6646C107.392 35.6659 107.371 35.6673 107.352 35.6673C107.333 35.6673 107.309 35.6673 107.284 35.6701C107.259 35.6715 107.223 35.6742 107.176 35.677C107.067 35.6867 106.974 35.6825 106.901 35.6618C106.828 35.6424 106.769 35.6092 106.727 35.5649C106.684 35.5207 106.652 35.4639 106.634 35.3975C106.616 35.3311 106.606 35.2564 106.606 35.1733V35.0281C106.606 34.9686 106.606 34.9063 106.603 34.8413C106.602 34.7762 106.601 34.7126 106.601 34.6517V34.0539L107.391 34.0692C107.471 34.0692 107.535 34.083 107.583 34.1121C107.632 34.1397 107.668 34.1757 107.692 34.2172C107.717 34.2587 107.734 34.3044 107.742 34.3542C107.751 34.404 107.756 34.4511 107.76 34.494L107.804 34.4995V34.4151C107.804 34.3791 107.805 34.339 107.802 34.2947C107.8 34.2518 107.799 34.2075 107.799 34.1619V34.0401C107.799 34.0166 107.8 33.9861 107.804 33.9474C107.807 33.9087 107.811 33.8685 107.817 33.8256C107.822 33.7827 107.827 33.7398 107.832 33.6983C107.838 33.6568 107.843 33.6195 107.85 33.5863L107.84 33.5766C107.84 33.5766 107.827 33.5669 107.821 33.5669C107.804 33.6139 107.789 33.6541 107.777 33.6887C107.763 33.7232 107.745 33.7537 107.719 33.7786C107.692 33.8035 107.661 33.8229 107.619 33.8381C107.578 33.8533 107.518 33.8602 107.442 33.8602C107.309 33.863 107.187 33.8658 107.077 33.8658C106.98 33.8685 106.886 33.8713 106.794 33.8713H106.602V32.4419H106.942L107.277 32.4475C107.477 32.4503 107.626 32.5056 107.721 32.6094C107.818 32.7145 107.875 32.8598 107.892 33.0466H107.936C107.936 33.0203 107.936 32.9857 107.939 32.9442C107.94 32.9027 107.941 32.8584 107.944 32.8114C107.946 32.7643 107.948 32.7187 107.951 32.6744C107.954 32.6301 107.958 32.5886 107.961 32.5526C107.968 32.5167 107.973 32.4572 107.979 32.3783C107.984 32.298 107.997 32.2206 108.016 32.1431L107.976 32.1182C107.959 32.1583 107.937 32.1887 107.908 32.2109C107.881 32.233 107.845 32.2468 107.8 32.2538C107.757 32.2607 107.703 32.2635 107.64 32.2635H107.41L106.691 32.269H106.415C106.309 32.269 106.199 32.2676 106.086 32.2635C105.972 32.2607 105.863 32.2565 105.757 32.2538C105.65 32.251 105.56 32.2455 105.487 32.2385V32.2787C105.58 32.2925 105.661 32.3063 105.732 32.323C105.802 32.3396 105.859 32.3645 105.905 32.3949C105.949 32.4267 105.984 32.4696 106.007 32.5222C106.031 32.5762 106.043 32.6467 106.047 32.7367C106.05 32.8072 106.053 32.8847 106.054 32.9719C106.056 33.0591 106.057 33.1476 106.057 33.239V35.0433C106.057 35.1886 106.056 35.2951 106.051 35.3657C106.049 35.4556 106.035 35.5276 106.011 35.5802C105.988 35.6341 105.953 35.6756 105.909 35.7075C105.865 35.7393 105.808 35.7628 105.739 35.7794C105.671 35.796 105.589 35.8112 105.497 35.8251V35.8652L106.411 35.8403L107.8 35.8652C107.85 35.8652 107.889 35.861 107.918 35.8527C107.946 35.8444 107.969 35.8306 107.986 35.8126C108.002 35.7946 108.015 35.7739 108.023 35.7531C108.031 35.731 108.038 35.7088 108.045 35.6853L108.206 35.0405L108.166 35.0211C108.123 35.1415 108.077 35.2398 108.03 35.3186L108.031 35.3159ZM106.303 35.7185H106.129V32.3852H106.303V35.7185Z" fill="white"/>
<path d="M111.647 35.6438C111.532 35.5345 111.423 35.4114 111.319 35.2744C111.215 35.1374 111.121 34.999 111.037 34.8565C110.952 34.7154 110.879 34.5756 110.817 34.4372C110.755 34.2989 110.708 34.173 110.674 34.0595C110.861 33.9626 111.016 33.8395 111.142 33.6901C111.267 33.5406 111.329 33.3621 111.329 33.156C111.329 32.9733 111.286 32.8225 111.199 32.7035C111.112 32.5859 111.001 32.4932 110.867 32.4267C110.731 32.3603 110.582 32.3133 110.417 32.287C110.252 32.2607 110.089 32.2469 109.93 32.2469C109.833 32.2469 109.736 32.2496 109.641 32.2538C109.544 32.2593 109.447 32.2607 109.352 32.2607C109.269 32.2607 109.159 32.2579 109.024 32.251C108.888 32.2441 108.715 32.2413 108.502 32.2413V32.2759C108.595 32.2898 108.676 32.3036 108.747 32.3202C108.817 32.3368 108.876 32.3617 108.921 32.3922C108.968 32.424 109.003 32.4669 109.026 32.5195C109.05 32.5734 109.062 32.644 109.066 32.7339C109.069 32.8045 109.072 32.882 109.072 32.9692V33.9239C109.072 33.9875 109.072 34.0567 109.075 34.1342C109.076 34.2103 109.078 34.2906 109.078 34.3736V35.0613C109.078 35.2024 109.076 35.3076 109.072 35.374C109.069 35.4639 109.054 35.5359 109.028 35.5885C109.001 35.6424 108.964 35.684 108.918 35.7158C108.871 35.7476 108.813 35.7711 108.741 35.7877C108.669 35.8043 108.588 35.8196 108.494 35.832V35.8624C108.546 35.8597 108.611 35.8569 108.686 35.8555C108.761 35.8541 108.838 35.8514 108.916 35.8486C108.995 35.8458 109.072 35.8431 109.148 35.8417C109.224 35.8403 109.293 35.8389 109.353 35.8389C109.417 35.8389 109.487 35.8389 109.567 35.8417C109.648 35.8431 109.729 35.8445 109.812 35.8472C109.895 35.8486 109.974 35.8514 110.05 35.8541C110.125 35.8569 110.189 35.8611 110.243 35.8638V35.8292C110.122 35.8196 110.024 35.8043 109.948 35.785C109.872 35.7656 109.811 35.7393 109.765 35.7075C109.721 35.6756 109.688 35.6355 109.668 35.5871C109.649 35.5387 109.635 35.4792 109.628 35.41C109.621 35.3533 109.619 35.2702 109.619 35.1595V34.3252C109.661 34.3279 109.71 34.3293 109.764 34.3279C109.816 34.3266 109.869 34.3224 109.922 34.3183C109.973 34.3127 110.021 34.3072 110.064 34.3003C110.107 34.2933 110.144 34.285 110.173 34.2754C110.27 34.4981 110.377 34.7168 110.493 34.9298C110.609 35.1429 110.752 35.3339 110.921 35.5041C111.089 35.6743 111.291 35.8126 111.531 35.9192C111.77 36.0257 112.057 36.0838 112.393 36.0935V36.0492C112.263 36.0354 112.136 35.9925 112.011 35.9192C111.886 35.8458 111.766 35.7545 111.651 35.6438H111.647ZM109.316 35.713H109.145V32.3852H109.316V35.713ZM109.935 32.3299C110.072 32.3396 110.205 32.3631 110.335 32.4005C110.465 32.4378 110.582 32.4918 110.683 32.5623C110.784 32.6343 110.865 32.7242 110.928 32.8349C110.99 32.9442 111.02 33.0771 111.02 33.2293C111.02 33.2999 111.009 33.3663 110.986 33.4313C110.962 33.4963 110.932 33.5572 110.893 33.614C110.854 33.6707 110.811 33.7219 110.763 33.7662C110.714 33.8118 110.666 33.8492 110.615 33.8782V33.8533C110.712 33.7634 110.774 33.6748 110.802 33.589C110.829 33.5019 110.845 33.4064 110.845 33.2999C110.845 33.1698 110.821 33.0508 110.773 32.9429C110.724 32.8349 110.659 32.7408 110.577 32.6606C110.496 32.5803 110.399 32.5153 110.288 32.4627C110.176 32.4115 110.059 32.3756 109.935 32.3548V32.3299ZM110.032 34.1245C109.894 34.1674 109.753 34.191 109.61 34.1951V33.9903L109.616 33.1961V32.4309L109.65 32.3811C109.79 32.3811 109.927 32.4005 110.063 32.4392C110.198 32.4779 110.317 32.5361 110.423 32.6163C110.528 32.6966 110.612 32.799 110.677 32.9235C110.742 33.048 110.774 33.1975 110.774 33.3704C110.774 33.4867 110.739 33.5946 110.672 33.6956C110.604 33.7952 110.514 33.881 110.405 33.953C110.295 34.0249 110.171 34.0816 110.032 34.1259V34.1245ZM111.839 35.9787C111.622 35.915 111.434 35.8265 111.272 35.7144C111.11 35.6009 110.969 35.4709 110.847 35.3242C110.726 35.1775 110.618 35.0156 110.522 34.8399C110.427 34.6628 110.337 34.4788 110.25 34.285C110.276 34.2754 110.301 34.2657 110.324 34.2574C110.348 34.2491 110.373 34.2366 110.399 34.22C110.479 34.3902 110.564 34.5618 110.654 34.7347C110.744 34.9077 110.846 35.0724 110.961 35.2273C111.076 35.3823 111.206 35.5221 111.351 35.6466C111.496 35.7711 111.664 35.8735 111.853 35.9538L111.838 35.9787H111.839Z" fill="white"/>
<path d="M115.125 32.1375C115.106 32.1596 115.074 32.179 115.03 32.1956C114.987 32.2122 114.93 32.2247 114.86 32.233C114.789 32.2413 114.696 32.2468 114.58 32.251L113.436 32.2759L112.441 32.251C112.401 32.251 112.354 32.2482 112.299 32.2441C112.243 32.2399 112.191 32.2288 112.138 32.2136C112.087 32.1984 112.037 32.1776 111.99 32.1513C111.943 32.1251 111.907 32.0863 111.881 32.0365L111.85 32.0669C111.81 32.2205 111.775 32.3561 111.745 32.4765C111.719 32.5831 111.695 32.6799 111.674 32.7685C111.654 32.857 111.644 32.9055 111.644 32.9165L111.679 32.9414C111.728 32.8543 111.771 32.7809 111.809 32.7214C111.845 32.6619 111.885 32.6121 111.929 32.5734C111.972 32.5346 112.025 32.507 112.087 32.4903C112.148 32.4737 112.229 32.4654 112.329 32.4654L113.138 32.4558V32.7449C113.138 32.8321 113.138 32.9262 113.141 33.03C113.143 33.1338 113.144 33.2334 113.144 33.3302V34.6088C113.144 34.7693 113.144 34.9201 113.141 35.0612C113.14 35.2024 113.137 35.3075 113.134 35.374C113.132 35.4639 113.116 35.5358 113.091 35.5884C113.066 35.6424 113.029 35.6839 112.982 35.7157C112.934 35.7476 112.874 35.7711 112.802 35.7877C112.73 35.8043 112.649 35.8195 112.555 35.832V35.8624C112.607 35.8596 112.672 35.8569 112.747 35.8555C112.822 35.8541 112.899 35.8513 112.977 35.8486C113.055 35.8458 113.132 35.843 113.209 35.8416C113.285 35.8403 113.354 35.8389 113.414 35.8389C113.477 35.8389 113.549 35.8389 113.628 35.8416C113.709 35.843 113.79 35.8444 113.873 35.8472C113.956 35.8486 114.035 35.8513 114.111 35.8541C114.186 35.8569 114.25 35.861 114.303 35.8638V35.8292C114.183 35.8195 114.085 35.8043 114.009 35.7849C113.933 35.7655 113.872 35.7392 113.826 35.7074C113.78 35.6756 113.749 35.6355 113.729 35.587C113.71 35.5386 113.696 35.4791 113.689 35.4099C113.682 35.3532 113.679 35.2702 113.679 35.1595V33.4562C113.679 33.1531 113.681 32.8197 113.685 32.4571L114.5 32.4668C114.69 32.4696 114.828 32.5083 114.912 32.5789C114.997 32.6509 115.033 32.7865 115.02 32.9857L115.06 32.9954L115.221 32.0808L115.181 32.0614C115.164 32.0918 115.146 32.1168 115.125 32.1389V32.1375ZM113.386 35.713H113.221V32.3797H113.386V35.713Z" fill="white"/>
<path d="M116.628 35.706C116.584 35.6742 116.55 35.6341 116.531 35.5857C116.512 35.5372 116.498 35.4777 116.491 35.4086C116.484 35.3518 116.481 35.2688 116.481 35.1581V34.8329L116.476 34.0982L116.481 33.2043C116.481 33.0978 116.481 33.0051 116.484 32.9248C116.485 32.8446 116.488 32.7768 116.491 32.72C116.494 32.6398 116.506 32.5734 116.528 32.5208C116.55 32.4682 116.582 32.4239 116.625 32.3907C116.668 32.3575 116.725 32.3312 116.795 32.3132C116.866 32.2953 116.952 32.2814 117.056 32.2704V32.2358C117.006 32.2385 116.946 32.2427 116.878 32.2454C116.811 32.2482 116.737 32.2524 116.661 32.2551C116.585 32.2579 116.508 32.2607 116.431 32.262C116.355 32.2634 116.283 32.2648 116.217 32.2648C116.16 32.2648 116.094 32.2634 116.018 32.2593C115.942 32.2565 115.861 32.2524 115.78 32.2468C115.698 32.2413 115.619 32.2385 115.542 32.2371C115.466 32.2358 115.401 32.2344 115.347 32.2344V32.2648C115.439 32.2787 115.522 32.2925 115.594 32.3091C115.666 32.3257 115.726 32.3506 115.774 32.381C115.823 32.4129 115.86 32.4558 115.886 32.5083C115.913 32.5623 115.928 32.6329 115.932 32.7228C115.935 32.7934 115.938 32.8709 115.939 32.958C115.94 33.0452 115.942 33.1352 115.942 33.2306V35.0488C115.942 35.1941 115.94 35.3006 115.936 35.3712C115.933 35.4611 115.918 35.5331 115.893 35.5857C115.868 35.6396 115.831 35.6811 115.784 35.713C115.736 35.7448 115.676 35.7683 115.604 35.7849C115.532 35.8015 115.45 35.8167 115.356 35.8292V35.8596C115.409 35.8569 115.474 35.8541 115.549 35.8527C115.623 35.8513 115.701 35.8486 115.778 35.8458C115.857 35.843 115.935 35.8403 116.011 35.8389C116.087 35.8375 116.156 35.8361 116.216 35.8361C116.279 35.8361 116.351 35.8361 116.43 35.8389C116.51 35.8403 116.592 35.8416 116.675 35.8444C116.758 35.8458 116.837 35.8486 116.913 35.8513C116.988 35.8541 117.053 35.8583 117.105 35.861V35.8264C116.985 35.8167 116.887 35.8015 116.811 35.7822C116.735 35.7628 116.674 35.7365 116.628 35.7047V35.706ZM116.196 35.7185H116.022V32.3852H116.196V35.7185Z" fill="white"/>
<path d="M120.017 35.3159C119.97 35.3947 119.921 35.457 119.869 35.5027C119.818 35.5497 119.761 35.5829 119.699 35.6051C119.636 35.6272 119.57 35.6424 119.497 35.6521C119.454 35.659 119.42 35.6632 119.4 35.6646C119.378 35.6659 119.357 35.6673 119.337 35.6673C119.318 35.6673 119.294 35.6673 119.27 35.6701C119.245 35.6715 119.209 35.6742 119.162 35.677C119.052 35.6867 118.96 35.6825 118.886 35.6618C118.813 35.6424 118.755 35.6092 118.712 35.5649C118.669 35.5207 118.637 35.4639 118.619 35.3975C118.601 35.3311 118.592 35.2564 118.592 35.1733V35.0281C118.592 34.9686 118.592 34.9063 118.589 34.8413C118.587 34.7762 118.586 34.7126 118.586 34.6517V34.0539L119.376 34.0692C119.456 34.0692 119.52 34.083 119.568 34.1121C119.617 34.1397 119.653 34.1757 119.678 34.2172C119.703 34.2587 119.719 34.3044 119.728 34.3542C119.736 34.404 119.741 34.4511 119.746 34.494L119.79 34.4995V34.4151C119.79 34.3791 119.79 34.339 119.787 34.2947C119.786 34.2518 119.784 34.2075 119.784 34.1619V34.0401C119.784 34.0166 119.786 33.9861 119.79 33.9474C119.793 33.9087 119.797 33.8685 119.802 33.8256C119.808 33.7827 119.812 33.7398 119.818 33.6983C119.823 33.6568 119.829 33.6195 119.836 33.5863L119.826 33.5766C119.826 33.5766 119.812 33.5669 119.806 33.5669C119.79 33.6139 119.775 33.6541 119.762 33.6887C119.748 33.7232 119.73 33.7537 119.704 33.7786C119.678 33.8035 119.646 33.8229 119.604 33.8381C119.563 33.8533 119.503 33.8602 119.427 33.8602C119.294 33.863 119.173 33.8658 119.062 33.8658C118.965 33.8685 118.871 33.8713 118.78 33.8713H118.587V32.4419H118.928L119.263 32.4475C119.462 32.4503 119.611 32.5056 119.707 32.6094C119.804 32.7145 119.86 32.8598 119.877 33.0466H119.921C119.921 33.0203 119.921 32.9857 119.924 32.9442C119.925 32.9027 119.927 32.8584 119.93 32.8114C119.931 32.7643 119.934 32.7187 119.937 32.6744C119.939 32.6301 119.943 32.5886 119.946 32.5526C119.953 32.5167 119.959 32.4572 119.964 32.3783C119.97 32.298 119.982 32.2206 120.002 32.1431L119.961 32.1182C119.945 32.1583 119.923 32.1887 119.894 32.2109C119.866 32.233 119.83 32.2468 119.786 32.2538C119.743 32.2607 119.689 32.2635 119.625 32.2635H119.395L118.676 32.269H118.401C118.294 32.269 118.185 32.2676 118.071 32.2635C117.958 32.2607 117.849 32.2565 117.742 32.2538C117.635 32.251 117.546 32.2455 117.472 32.2385V32.2787C117.565 32.2925 117.647 32.3063 117.717 32.323C117.788 32.3396 117.844 32.3645 117.89 32.3949C117.934 32.4267 117.969 32.4696 117.992 32.5222C118.016 32.5762 118.028 32.6467 118.033 32.7367C118.035 32.8072 118.038 32.8847 118.039 32.9719C118.041 33.0591 118.042 33.1476 118.042 33.239V35.0433C118.042 35.1886 118.041 35.2951 118.037 35.3657C118.034 35.4556 118.02 35.5276 117.997 35.5802C117.973 35.6341 117.938 35.6756 117.894 35.7075C117.85 35.7393 117.793 35.7628 117.724 35.7794C117.656 35.796 117.575 35.8112 117.482 35.8251V35.8652L118.396 35.8403L119.786 35.8652C119.836 35.8652 119.874 35.861 119.903 35.8527C119.931 35.8444 119.955 35.8306 119.971 35.8126C119.988 35.7946 120 35.7739 120.008 35.7531C120.017 35.731 120.024 35.7088 120.031 35.6853L120.191 35.0405L120.151 35.0211C120.108 35.1415 120.062 35.2398 120.015 35.3186L120.017 35.3159ZM118.287 35.7185H118.113V32.3852H118.287V35.7185Z" fill="white"/>
<path d="M122.899 34.4511C122.833 34.3335 122.747 34.2242 122.642 34.1259C122.537 34.0277 122.422 33.9364 122.297 33.8533C122.173 33.7703 122.051 33.6845 121.935 33.5987C121.848 33.5392 121.773 33.4825 121.708 33.4285C121.643 33.376 121.587 33.322 121.54 33.268C121.493 33.2155 121.459 33.1601 121.435 33.1034C121.412 33.0467 121.401 32.983 121.401 32.9138C121.401 32.8308 121.416 32.7505 121.448 32.6744C121.479 32.5983 121.522 32.5319 121.578 32.4766C121.633 32.4212 121.698 32.3769 121.773 32.3437C121.848 32.3105 121.928 32.2939 122.015 32.2939C122.088 32.2939 122.167 32.3064 122.253 32.3313C122.337 32.3562 122.419 32.3991 122.495 32.4586C122.571 32.5181 122.639 32.5997 122.697 32.7007C122.755 32.8017 122.797 32.9304 122.819 33.0826L122.863 33.0674C122.856 32.9512 122.849 32.8322 122.841 32.7132C122.833 32.5928 122.83 32.4752 122.834 32.359C122.78 32.3257 122.719 32.2967 122.649 32.2718C122.578 32.2469 122.506 32.2275 122.431 32.2123C122.357 32.1971 122.282 32.186 122.209 32.1805C122.135 32.1735 122.069 32.1708 122.009 32.1708C121.839 32.1708 121.686 32.1957 121.547 32.2427C121.409 32.2912 121.291 32.3562 121.193 32.4378C121.095 32.5195 121.019 32.6163 120.966 32.727C120.912 32.8391 120.886 32.9595 120.886 33.0895C120.886 33.2528 120.916 33.394 120.979 33.5143C121.041 33.6347 121.12 33.7413 121.218 33.8367C121.316 33.9322 121.425 34.0194 121.547 34.101C121.669 34.1827 121.788 34.2657 121.904 34.3487C122.001 34.4193 122.084 34.4843 122.155 34.5438C122.225 34.6033 122.282 34.6614 122.325 34.7181C122.368 34.7749 122.4 34.8344 122.42 34.8953C122.441 34.9561 122.451 35.0281 122.451 35.107C122.451 35.1941 122.436 35.2758 122.404 35.3546C122.372 35.4335 122.326 35.5027 122.267 35.5622C122.207 35.6217 122.135 35.6701 122.052 35.7075C121.969 35.7448 121.878 35.7628 121.777 35.7628C121.507 35.7628 121.287 35.684 121.117 35.5276C120.947 35.3712 120.848 35.136 120.822 34.8233H120.788C120.781 34.97 120.774 35.0959 120.768 35.2024C120.761 35.309 120.752 35.4238 120.738 35.547C120.878 35.6632 121.033 35.7559 121.203 35.8237C121.373 35.8915 121.547 35.9261 121.727 35.9261C121.89 35.9261 122.048 35.904 122.202 35.8611C122.355 35.8182 122.491 35.7518 122.609 35.6632C122.726 35.5746 122.822 35.464 122.894 35.3284C122.966 35.1928 123.002 35.0364 123.002 34.8565C123.002 34.7029 122.968 34.5673 122.902 34.4497L122.899 34.4511ZM122.646 35.3408C122.604 35.4418 122.542 35.5331 122.459 35.6134C122.376 35.6936 122.274 35.7573 122.155 35.8057C122.034 35.8542 121.895 35.8749 121.735 35.868V35.8431C121.872 35.8403 121.991 35.8168 122.092 35.7753C122.193 35.7338 122.278 35.6757 122.344 35.6023C122.411 35.529 122.46 35.4446 122.494 35.3505C122.527 35.255 122.544 35.1554 122.544 35.0488C122.544 34.9755 122.524 34.8966 122.485 34.8109C122.447 34.7251 122.386 34.642 122.303 34.559C122.236 34.4954 122.157 34.4303 122.068 34.3639C121.978 34.2975 121.883 34.2297 121.785 34.1619C121.687 34.0941 121.589 34.0235 121.491 33.9502C121.392 33.8769 121.301 33.798 121.218 33.715C121.152 33.6486 121.098 33.5711 121.057 33.4853C121.017 33.3981 120.992 33.3082 120.983 33.2127C120.973 33.1172 120.977 33.0231 120.995 32.9304C121.013 32.8377 121.048 32.7505 121.098 32.6703C121.178 32.5444 121.295 32.4406 121.45 32.3603C121.605 32.2801 121.788 32.24 121.997 32.24V32.2649C121.807 32.2718 121.641 32.3202 121.5 32.4115C121.359 32.5029 121.254 32.6163 121.185 32.7492C121.117 32.882 121.092 33.0259 121.11 33.1795C121.128 33.3331 121.203 33.4728 121.333 33.5987C121.396 33.6582 121.478 33.7247 121.578 33.7966C121.677 33.8686 121.78 33.9405 121.885 34.0139C121.99 34.0872 122.091 34.1591 122.189 34.2283C122.288 34.2989 122.366 34.3639 122.427 34.4234C122.531 34.5272 122.603 34.6254 122.645 34.7209C122.686 34.8164 122.707 34.9188 122.707 35.0281C122.707 35.1374 122.686 35.2384 122.645 35.3408H122.646Z" fill="white"/>
<path d="M45.5729 0.841187H45.4346V50.16H45.5729V0.841187Z" fill="#FF0000"/>
<path d="M34.105 9.63182C33.975 8.46399 33.7176 7.32106 33.3772 6.20027C32.7656 4.187 31.9008 2.30242 30.5019 0.698725C30.2943 0.460731 30.0563 0.254561 29.8087 0.0608447C29.7616 0.0234851 29.6648 -0.0235603 29.6274 0.0137993C29.5914 0.0497752 29.6205 0.149401 29.6537 0.211667C29.8599 0.594949 30.0757 0.972696 30.2694 1.3629C30.7025 2.24292 31.0429 3.15616 31.3114 4.09845C31.5632 4.97847 31.7444 5.87234 31.8648 6.77865C31.9838 7.6656 32.0336 8.55669 32.0184 9.45056C32.0184 9.50867 32.0184 9.57509 31.9645 9.60553C31.8967 9.64289 31.8427 9.58477 31.7943 9.54742C31.1024 9.02438 30.3677 8.57468 29.5734 8.22461C28.9107 7.93265 28.216 7.71541 27.4813 7.69742C27.3236 7.69327 27.0897 7.70019 27.0731 7.81642C27.0565 7.93265 27.2627 8.01014 27.3886 8.07655C28.2728 8.54009 29.067 9.13092 29.8142 9.78956C30.459 10.3583 31.0443 10.9823 31.5106 11.7087C31.6836 11.9799 31.8289 12.2664 31.9077 12.5805C32.0585 13.1754 31.8164 13.6833 31.5037 14.1496C30.7855 15.2192 29.8197 15.9968 28.6353 16.5143C27.2959 17.101 25.9897 17.7651 24.6434 18.3366C24.1245 18.5566 23.6014 18.7669 23.0618 18.9357C22.5983 19.081 22.4378 19.0271 22.215 18.594C21.9382 18.0585 21.8538 17.4718 21.757 16.8851C21.757 16.8851 21.6241 14.6117 21.804 13.1187C22.0462 11.8803 21.0513 13.4633 20.9309 15.6218C20.924 15.9428 20.8991 16.3593 20.8991 16.6803C20.8728 17.5673 20.7926 18.3145 20.6694 19.1931C20.5974 19.6995 20.5407 20.2157 20.1989 20.6404C20.1727 20.6737 20.1436 20.7055 20.1145 20.7359C19.9471 20.913 19.7202 21.0777 19.4891 21.2299C19.3521 21.3171 19.2124 21.4015 19.0754 21.4928C19.0048 21.5371 18.9384 21.58 18.8761 21.6215C18.7613 21.6948 17.9186 22.5223 17.9159 22.5223C17.3306 22.4669 16.748 22.4738 16.2015 22.514C15.9137 22.1168 15.5691 21.7557 15.1609 21.4831C14.7638 21.2174 14.339 21.0237 14.0318 20.6418C13.6915 20.217 13.6333 19.7009 13.5614 19.1945C13.4369 18.3158 13.358 17.5673 13.3317 16.6817C13.3317 16.3607 13.3068 15.9428 13.2999 15.6232C13.1809 13.4646 12.1846 11.8831 12.4268 13.1201C12.6053 14.6131 12.4738 16.8865 12.4738 16.8865C12.3756 17.4732 12.2912 18.0599 12.0158 18.5954C11.7917 19.0284 11.6311 19.0824 11.169 18.9371C10.6307 18.7669 10.1063 18.558 9.58744 18.338C8.23973 17.7665 6.93491 17.101 5.5955 16.5157C4.41106 15.9968 3.44524 15.2205 2.72711 14.1509C2.4144 13.6846 2.17225 13.1768 2.32307 12.5818C2.40333 12.2677 2.54723 11.9799 2.72019 11.7101C3.18649 10.9837 3.77179 10.3596 4.41659 9.79094C5.1624 9.13231 5.95664 8.54147 6.8422 8.07794C6.96812 8.01152 7.17567 7.93403 7.15768 7.8178C7.13969 7.70019 6.90723 7.69466 6.74949 7.69881C6.01475 7.71818 5.32014 7.93403 4.65735 8.22599C3.86312 8.57607 3.127 9.02576 2.43653 9.5488C2.38811 9.58616 2.33414 9.64427 2.26634 9.60691C2.21099 9.57786 2.21376 9.51144 2.21238 9.45194C2.19716 8.55669 2.24697 7.66698 2.36597 6.78004C2.48773 5.87372 2.66899 4.97986 2.91944 4.09983C3.18788 3.15754 3.52826 2.24431 3.96136 1.36428C4.15369 0.972696 4.37093 0.596332 4.5771 0.21305C4.61031 0.150785 4.63937 0.0511589 4.60339 0.015183C4.56603 -0.0221766 4.46917 0.0248688 4.42213 0.0622284C4.17445 0.255945 3.93784 0.462114 3.7289 0.700109C2.32999 2.30242 1.46518 4.18562 0.853594 6.19889C0.513207 7.32106 0.255841 8.4626 0.125774 9.63044C-0.0319664 11.0556 -0.0859302 12.4753 0.232318 13.8936C0.539497 15.2648 1.23688 16.351 2.36873 17.1923C3.78563 18.2453 5.28693 19.1391 6.91553 19.8227C7.76512 20.1783 8.62716 20.5021 9.5141 20.7484C10.4398 21.0044 11.3129 21.3544 12.0546 21.9771C12.46 22.3175 12.7865 22.7104 12.9069 23.2252C12.5914 23.3096 12.2953 23.2252 11.9466 22.9789C11.6561 22.7727 11.3724 22.5555 11.068 22.3687C10.4882 22.0158 9.85864 21.818 9.16541 21.7848C9.10176 21.8982 9.0644 21.937 9.06302 21.9757C9.00906 23.5144 9.19447 25.0184 9.95135 26.3814C10.3249 27.0538 10.3028 27.6184 9.89185 28.2507C9.1239 29.4296 8.45835 30.6694 7.92424 31.9742C7.29328 33.5157 6.86295 35.1014 6.88648 36.7839C6.88924 36.9154 6.88648 37.0524 6.89893 37.1852C6.91277 37.3167 6.94459 37.4495 6.98887 37.6875C7.27668 36.5418 7.5382 35.5123 8.3352 34.6711C8.35319 34.9381 8.26048 35.1166 8.19821 35.302C7.88688 36.2111 7.66273 37.1396 7.54788 38.0998C7.27529 40.3691 7.77342 42.4432 9.04226 44.3375C9.76732 45.4251 10.7027 46.3189 11.6906 47.1616C12.7644 48.0776 13.7385 49.0836 14.5673 50.232C14.6628 50.3635 14.7182 50.5392 14.8939 50.625C14.9395 50.4755 14.8551 50.3856 14.815 50.2887C14.2242 48.9355 13.4908 47.6584 12.6966 46.4172C12.0559 45.4168 11.5135 44.3679 11.1607 43.2292C10.9047 42.4142 10.8577 41.5936 10.9891 40.7164C11.0583 40.7883 11.1026 40.8132 11.1136 40.8506C11.1469 40.9572 11.1773 41.0637 11.1925 41.1744C11.3959 42.7144 12.02 44.0884 12.9014 45.3462C13.6361 46.3923 14.2436 47.5048 14.7431 48.6795C15.0627 49.4336 15.3021 50.2168 15.5608 51.0013C15.7186 50.9045 15.7269 50.7634 15.7504 50.6361C15.9372 49.7076 16.2873 48.8442 16.7439 48.0167C17.408 46.8157 18.2438 45.7475 19.1875 44.7595C20.3235 43.5737 21.3017 42.2813 21.8898 40.7288C22.3035 39.6385 22.464 38.5274 22.1444 37.3845C22.0586 37.0773 21.9894 36.7494 21.6795 36.5252C21.3391 36.9873 21.2007 37.4744 21.1205 37.9836C20.9863 38.8207 20.8742 39.662 20.7081 40.4908C20.567 41.1951 20.2958 41.8496 19.7797 42.3768C19.6676 42.2758 19.7188 42.1928 19.7451 42.1125C20.0232 41.1882 20.1893 40.2501 20.2239 39.2801C20.2446 38.7474 20.3387 38.2174 20.5117 37.7055C20.8756 36.6221 21.5204 35.7254 22.334 34.9353C22.5194 34.7555 22.7449 34.606 22.8861 34.3376C22.6287 34.1702 22.37 34.13 22.1112 34.083C21.3128 33.9377 20.5075 34.0055 19.7077 33.9598C17.9325 33.8602 16.4242 33.1808 15.2481 31.8262C15.154 31.7196 15.0309 31.62 15.0309 31.3765C15.482 31.6477 15.8722 31.8912 16.272 32.1209C17.1507 32.6246 18.0625 33.0341 19.1045 33.0397C20.5698 33.048 21.9825 33.3399 23.3621 33.8201C23.7619 33.9612 24.1674 34.0774 24.5728 34.2061C25.0017 34.3417 25.4417 34.3929 25.8928 34.3971C26.2761 34.3971 26.5902 34.2836 26.8199 33.9626C27.0842 33.5932 27.4135 33.2984 27.8383 33.1213C28.2603 32.947 28.4416 32.6024 28.4748 32.1749C28.5412 31.2893 28.3392 30.4937 27.6764 29.853C27.1741 29.3632 26.5833 29.0076 25.9565 28.7087C25.3103 28.4016 24.6849 28.057 24.1217 27.6142C23.6568 27.2545 23.261 26.838 23.0314 26.2831C22.9802 26.1586 22.9248 26.0368 22.8639 25.9192C23.5821 24.8925 23.4202 23.322 23.3302 22.752C23.3109 22.633 23.1919 22.5569 23.0756 22.5887C22.3534 22.7879 21.7252 23.174 21.2838 23.5019C21.2865 23.4867 21.2893 23.4715 21.2907 23.4563C21.3419 23.0591 21.4885 22.7146 21.7501 22.4157C22.4391 21.6229 23.333 21.1635 24.3196 20.8729L24.7098 20.7539H24.7042L24.7195 20.7511C25.6064 20.5048 26.4684 20.1824 27.318 19.8255C28.9466 19.1433 30.4465 18.248 31.8648 17.1951C32.9967 16.3538 33.6941 15.2676 34.0012 13.8963C34.3195 12.4781 34.2655 11.0584 34.1078 9.6332L34.105 9.63182ZM11.7543 25.8597C11.7169 25.969 11.6422 26.0507 11.4623 26.0285C11.3032 25.8639 11.3433 25.6798 11.3475 25.5069C11.3724 24.5687 10.9241 23.9018 10.1575 23.4161C10.0261 23.3317 9.88631 23.2639 9.7604 23.1712C9.6497 23.0896 9.57914 22.9789 9.62895 22.8281C9.66492 22.8004 9.70505 22.745 9.72581 22.7506C10.5878 23.0135 11.2838 23.4895 11.7017 24.3045C11.9605 24.8095 11.9369 25.3353 11.7557 25.8583L11.7543 25.8597ZM22.1569 25.1485C22.2039 25.1056 22.2482 25.0641 22.2883 25.0184C23.0078 24.2394 22.709 23.1408 22.7048 23.1297C22.6854 23.0619 22.7256 22.9899 22.7934 22.9706C22.8612 22.9512 22.9317 22.9913 22.9511 23.0591C22.9663 23.1131 23.3067 24.3446 22.4447 25.2274C22.4087 25.2661 22.3686 25.3035 22.3271 25.3408C22.3022 25.3616 22.2731 25.3727 22.2427 25.3727C22.2067 25.3727 22.1721 25.3574 22.1458 25.3284C22.1001 25.2744 22.1043 25.1942 22.1569 25.1471V25.1485Z" fill="white"/>
</g>
<defs>
<clipPath id="clip0_458_3041">
<rect width="161.24" height="51" fill="white"/>
</clipPath>
</defs>
</svg>
