<svg width="99" height="99" viewBox="0 0 99 99" fill="none" xmlns="http://www.w3.org/2000/svg">
<rect x="0.549805" y="0.212891" width="98" height="98" rx="49" fill="white" fill-opacity="0.73"/>
<g clip-path="url(#clip0_301_1763)">
<path d="M60.0422 46.4782L42.7552 34.7877C41.7257 34.0914 40.4555 34.0236 39.3577 34.6065C38.2599 35.1894 37.6045 36.2794 37.6045 37.5224V60.9033C37.6045 62.1462 38.2599 63.2363 39.3577 63.8191C39.8533 64.0824 40.3839 64.2129 40.9118 64.2129C41.5532 64.2129 42.1905 64.02 42.7553 63.6381L60.0422 51.9477C60.9514 51.3328 61.4942 50.3105 61.4942 49.213C61.4942 48.1154 60.9514 47.093 60.0422 46.4782ZM59.3728 50.9578L42.0859 62.6483C41.429 63.0925 40.6186 63.1359 39.9181 62.7639C39.2176 62.392 38.7995 61.6964 38.7995 60.9033V37.5225C38.7995 36.7294 39.2176 36.0339 39.9181 35.662C40.2343 35.4941 40.5729 35.4108 40.9097 35.4108C41.319 35.4108 41.7256 35.5338 42.086 35.7775L59.3729 47.468C59.9617 47.8661 60.2993 48.5022 60.2993 49.2129C60.2993 49.9236 59.9616 50.5597 59.3728 50.9578Z" fill="black"/>
<path d="M55.8598 46.0298L54.8898 45.3724C54.6165 45.1874 54.2452 45.2587 54.06 45.5318C53.8748 45.805 53.9463 46.1765 54.2194 46.3616L55.1894 47.019C55.2922 47.0886 55.4087 47.1219 55.5241 47.1219C55.7156 47.1219 55.9037 47.0301 56.0192 46.8596C56.2044 46.5864 56.1329 46.2149 55.8598 46.0298Z" fill="black"/>
<path d="M53.0511 44.1263L41.4005 36.2308C41.1273 36.0458 40.7559 36.1171 40.5707 36.3903C40.3855 36.6634 40.457 37.0348 40.7301 37.22L52.3807 45.1155C52.4835 45.1851 52.6 45.2185 52.7154 45.2185C52.9069 45.2185 53.095 45.1266 53.2105 44.9561C53.3957 44.6829 53.3242 44.3115 53.0511 44.1263Z" fill="black"/>
</g>
<defs>
<clipPath id="clip0_301_1763">
<rect width="30" height="30" fill="white" transform="translate(34.5498 34.2129)"/>
</clipPath>
</defs>
</svg>
