<svg width="13" height="14" viewBox="0 0 13 14" fill="none" xmlns="http://www.w3.org/2000/svg">
<path d="M11.063 2.75438C12.2114 3.90282 12.9224 5.40672 12.9224 7.04735C12.9224 10.3833 10.1333 13.1177 6.77002 13.1177C5.7583 13.1177 4.77393 12.8442 3.87158 12.3794L0.672363 13.1997L1.52002 10.0552C1.00049 9.15282 0.699707 8.11375 0.699707 7.02C0.699707 3.68407 3.43408 0.949692 6.77002 0.949692C8.41064 0.949692 9.94189 1.60594 11.063 2.75438ZM6.77002 12.0786C9.55908 12.0786 11.8833 9.80907 11.8833 7.04735C11.8833 5.68016 11.3091 4.42235 10.3521 3.46532C9.39502 2.50829 8.13721 1.98875 6.79736 1.98875C4.0083 1.98875 1.73877 4.25829 1.73877 7.02C1.73877 7.97704 2.01221 8.90672 2.50439 9.72704L2.64111 9.91844L2.12158 11.7778L4.03564 11.2583L4.19971 11.3677C4.99268 11.8325 5.86768 12.0786 6.77002 12.0786ZM9.55908 8.30516C9.6958 8.38719 9.80518 8.41454 9.83252 8.49657C9.88721 8.55125 9.88721 8.85204 9.75049 9.2075C9.61377 9.56297 9.01221 9.8911 8.73877 9.91844C8.24658 10.0005 7.86377 9.97313 6.90674 9.53563C5.37549 8.87938 4.39111 7.34813 4.30908 7.2661C4.22705 7.15672 3.70752 6.44579 3.70752 5.68016C3.70752 4.94188 4.09033 4.58641 4.22705 4.42235C4.36377 4.25829 4.52783 4.23094 4.63721 4.23094C4.71924 4.23094 4.82861 4.23094 4.91064 4.23094C5.02002 4.23094 5.12939 4.2036 5.26611 4.50438C5.37549 4.80516 5.70361 5.54344 5.73096 5.62547C5.7583 5.7075 5.78564 5.78954 5.73096 5.89891C5.45752 6.47313 5.12939 6.44579 5.29346 6.71922C5.89502 7.73094 6.46924 8.08641 7.37158 8.52391C7.5083 8.60594 7.59033 8.5786 7.69971 8.49657C7.78174 8.38719 8.08252 8.03172 8.16455 7.895C8.27393 7.73094 8.3833 7.75829 8.52002 7.81297C8.65674 7.86766 9.39502 8.22313 9.55908 8.30516Z" fill="#BDA76E"/>
</svg>
