<svg width="50" height="51" viewBox="0 0 50 51" fill="none" xmlns="http://www.w3.org/2000/svg">
<rect width="50" height="50.08" rx="25" fill="black"/>
<path d="M24.0516 46.5329C23.717 45.519 23.4698 44.9147 23.0852 44.173C22.818 43.6536 22.6082 43.3064 22.1113 42.5573C21.3471 41.406 20.99 40.5544 20.8027 39.4581C20.7453 39.1035 20.7128 39.0061 20.6529 38.9737C20.5904 38.9412 20.5804 39.0011 20.5605 39.4881C20.533 40.2398 20.6504 40.7967 21.0324 41.7082C21.2822 42.3025 21.5044 42.7096 22.1937 43.8184C22.7081 44.645 23.1451 45.4491 23.4873 46.1883C23.5897 46.4131 23.6746 46.6253 23.6746 46.6603C23.6746 46.7227 23.6746 46.7227 23.6221 46.6753C23.5921 46.6503 23.5297 46.5654 23.4798 46.4905C23.0752 45.8537 22.0763 44.7748 21.1773 44.0057C20.6104 43.5187 19.8412 42.7545 19.5316 42.3725C19.0196 41.7407 18.5526 40.9315 18.2979 40.2423C17.8035 38.8988 17.7385 37.5003 18.0956 35.892C18.1856 35.485 18.3579 34.8831 18.4677 34.591C18.5027 34.4986 18.5302 34.3762 18.5302 34.3088L18.5277 34.1914L18.4278 34.3038C18.0782 34.6958 17.8334 35.2178 17.5912 36.0868C17.5313 36.3066 17.4788 36.4889 17.4738 36.4939C17.4688 36.4989 17.4514 36.424 17.4339 36.3291C17.3989 36.1143 17.3989 35.4575 17.4314 35.0904C17.5862 33.4172 18.3304 31.4544 19.5665 29.4715C19.7214 29.2243 19.8637 28.9871 19.8862 28.9471C20.0061 28.7099 20.0435 28.3328 19.9686 28.0756C19.9461 28.0007 19.8387 27.7584 19.7314 27.5362C19.3118 26.6821 19.142 25.9404 19.112 24.8141C19.0996 24.3147 19.1021 24.2423 19.1395 24.1698L19.182 24.0874L19.3368 24.1049C19.5765 24.1299 19.8962 24.2023 20.1309 24.2897C20.4106 24.3896 20.6978 24.5569 21.1498 24.8766C21.3496 25.0189 21.5744 25.1588 21.6468 25.1887C21.7866 25.2412 22.0863 25.2586 22.1138 25.2162C22.1362 25.1762 22.0089 24.8741 21.899 24.7092C21.5569 24.2023 20.8252 23.7153 19.9661 23.4207C19.8437 23.3782 19.584 23.2983 19.3892 23.2433C17.4563 22.6865 15.5534 21.7375 13.8852 20.4963C13.5306 20.2341 13.1036 19.8071 12.8788 19.4949C12.6816 19.2177 12.4218 18.7033 12.317 18.3836C11.8325 16.9178 11.9074 14.6527 12.5142 12.3902C12.9238 10.8544 13.5007 9.52332 14.2199 8.45699C14.6194 7.86513 15.019 7.39565 15.3462 7.13343C15.6558 6.8862 15.6683 6.97361 15.3936 7.47056C14.3497 9.3635 13.7779 11.5411 13.7179 13.8636C13.7054 14.4105 13.7054 14.4679 13.7454 14.5079C13.7978 14.5578 13.8278 14.5453 14.0351 14.388C14.2548 14.2207 14.7193 13.9235 15.0465 13.7437C15.8556 13.2992 16.6322 13.052 17.2491 13.0445C17.4838 13.0395 17.5363 13.047 17.5712 13.0819C17.6137 13.1219 17.6137 13.1269 17.5687 13.1768C17.5438 13.2043 17.4189 13.2817 17.289 13.3516C16.9244 13.5464 16.5873 13.7637 16.2002 14.0534C14.6619 15.2046 13.6955 16.4732 13.7704 17.2374C13.8153 17.6894 14.1849 18.2937 14.7768 18.8781C15.2662 19.3626 15.7257 19.6573 16.5973 20.0543C16.9119 20.1967 17.5063 20.4714 17.9183 20.6637C19.2619 21.2905 19.8987 21.5627 20.5255 21.7774C20.9575 21.9273 21.0849 21.9423 21.2023 21.8624C21.4345 21.705 21.6143 21.2405 21.7542 20.4439C21.8066 20.1517 21.8091 20.0518 21.8116 18.9705C21.8116 18.1864 21.8016 17.7294 21.7816 17.5595C21.7217 17.0801 21.7142 16.9402 21.7542 16.9527C21.8715 16.9902 22.0938 17.4996 22.2361 18.064C22.3785 18.6384 22.4084 18.9131 22.4509 20.0943C22.4784 20.836 22.5208 21.3279 22.6257 22.0422C22.768 23.0186 22.9079 23.2458 23.6621 23.7153C24.0267 23.9426 24.3139 24.1873 24.5511 24.4745L24.6934 24.6468L25.3802 24.6493L26.0694 24.6518L26.3891 24.3446C26.6363 24.1074 26.8036 23.975 27.1333 23.7553C27.6252 23.4281 27.7926 23.2858 27.9249 23.081C28.0623 22.8688 28.1397 22.5966 28.2196 22.0422C28.3245 21.3279 28.3669 20.836 28.3944 20.0943C28.4369 18.9131 28.4668 18.6384 28.6092 18.064C28.7515 17.4996 28.9738 16.9902 29.0911 16.9527C29.1311 16.9402 29.1236 17.0801 29.0637 17.5595C29.0437 17.7294 29.0337 18.1864 29.0337 18.9705C29.0362 20.0518 29.0387 20.1517 29.0911 20.4439C29.1661 20.8809 29.236 21.1456 29.3359 21.3929C29.4358 21.6451 29.5282 21.7824 29.643 21.8624C29.7604 21.9423 29.8878 21.9273 30.3198 21.7774C30.9466 21.5627 31.5834 21.2905 32.927 20.6637C33.339 20.4714 33.9334 20.1967 34.248 20.0543C35.1196 19.6573 35.5791 19.3626 36.0685 18.8781C36.6604 18.2937 37.03 17.6894 37.0749 17.2374C37.1498 16.4732 36.1809 15.2021 34.6451 14.0534C34.2555 13.7637 33.9209 13.5464 33.5563 13.3516C33.4264 13.2817 33.3015 13.2043 33.2766 13.1768C33.2316 13.1269 33.2316 13.1219 33.2741 13.0819C33.309 13.047 33.3615 13.0395 33.5962 13.0445C34.2131 13.052 34.9897 13.2992 35.7988 13.7437C36.126 13.9235 36.5905 14.2207 36.8102 14.388C37.0175 14.5453 37.0475 14.5578 37.0999 14.5079C37.1399 14.4679 37.1399 14.4105 37.1274 13.8636C37.0674 11.5411 36.4956 9.3635 35.4517 7.47056C35.177 6.97361 35.1895 6.8862 35.4992 7.13343C35.8263 7.39565 36.2259 7.86513 36.6254 8.45699C36.9251 8.9015 37.1249 9.25112 37.3746 9.76806C38.6157 12.3402 39.1527 15.7041 38.6682 17.8667C38.5758 18.2863 38.4784 18.5635 38.2936 18.9331C37.909 19.7172 37.4445 20.1867 36.2858 20.9733C34.7749 21.9997 33.1692 22.7439 31.2538 23.3058C30.2823 23.5905 29.7504 23.8777 29.2285 24.3996C28.9288 24.7018 28.809 24.8915 28.734 25.1787C28.6641 25.4534 28.6641 25.4534 28.9363 25.2711C29.206 25.0913 29.6905 24.8491 29.9502 24.7642C30.1325 24.7067 30.2249 24.7117 30.2649 24.7842C30.3448 24.934 30.3698 25.9004 30.3048 26.305C30.2449 26.6721 30.1075 27.0617 29.9677 27.2615C29.9252 27.3239 29.9252 27.3289 30.0576 27.6061C30.2199 27.9482 30.3523 28.1405 30.5945 28.3802C30.9816 28.7598 31.4586 29.072 32.3026 29.499C33.0543 29.8786 33.3665 30.0834 33.7161 30.4355C34.1656 30.885 34.3579 31.4094 34.3304 32.0937C34.3104 32.6156 34.2156 32.7704 33.7835 32.9952C33.5513 33.1151 33.4664 33.1775 33.3015 33.3423C33.1917 33.4522 33.0493 33.6045 32.9844 33.6844C32.7721 33.9367 32.5399 34.0016 32.013 33.9566C31.6109 33.9192 31.3462 33.8518 30.4047 33.5446C29.0262 33.0976 28.3095 32.9577 27.0883 32.9053C26.7712 32.8928 26.454 32.8653 26.3466 32.8429C25.7997 32.7255 25.1879 32.4483 24.3139 31.9214C24.0267 31.7466 23.7869 31.6117 23.7794 31.6192C23.772 31.6267 23.7794 31.6766 23.7969 31.7341C23.8369 31.8664 24.1715 32.2385 24.4937 32.5082C25.0755 32.9952 25.6849 33.3074 26.4216 33.4922C26.8486 33.5995 27.1283 33.6295 27.9324 33.6545C28.3594 33.667 28.7965 33.6844 28.9063 33.6919C29.2984 33.7219 29.7255 33.8143 29.8728 33.8992C29.9402 33.9392 29.9402 33.9417 29.9003 34.0041C29.8778 34.0391 29.6855 34.2413 29.4707 34.4536C28.809 35.1104 28.4069 35.7047 28.1347 36.4314C27.9549 36.9134 27.8875 37.273 27.845 37.9498C27.8026 38.6515 27.6952 39.2808 27.5204 39.8877C27.4629 40.0875 27.4504 40.1624 27.4704 40.1973C27.4854 40.2248 27.5054 40.2473 27.5154 40.2473C27.5453 40.2473 27.7052 40.0475 27.835 39.8477C28.1322 39.3857 28.2396 38.9862 28.4818 37.4054C28.6042 36.6038 28.6366 36.4439 28.724 36.1992C28.789 36.0244 28.9538 35.7147 28.9963 35.6873C29.0362 35.6623 29.1561 35.7896 29.2285 35.9395C29.3159 36.1218 29.4333 36.5813 29.4707 36.9009C29.6231 38.217 28.9588 39.8827 27.6727 41.4085C27.4554 41.6657 27.3206 41.8156 26.931 42.2326C25.555 43.7035 24.6635 45.2368 24.3613 46.6528C24.3189 46.8451 24.2714 46.9724 24.229 46.9999C24.219 47.0049 24.1391 46.7951 24.0516 46.5329ZM21.1273 27.3988C21.2872 27.3164 21.3821 26.7071 21.2897 26.3525C21.1998 26.0103 20.9301 25.6158 20.5954 25.3386C20.4056 25.1812 19.9811 24.949 19.7463 24.8741C19.5815 24.8216 19.5291 24.8466 19.5291 24.974C19.5291 25.0938 19.5765 25.1413 19.8812 25.3286C20.3582 25.6232 20.6504 25.9554 20.7927 26.3674C20.8451 26.5173 20.8601 26.6172 20.8751 26.9243C20.8876 27.2265 20.9001 27.3114 20.9375 27.3688C20.99 27.4463 21.025 27.4513 21.1273 27.3988ZM29.5457 26.8544C29.7579 26.6746 29.9652 26.3075 30.0301 25.9978C30.0926 25.7057 30.0676 25.1413 29.9877 25.0464C29.9527 25.0039 29.8553 25.0064 29.8179 25.0514C29.7954 25.0788 29.7954 25.1163 29.8154 25.2137C29.8553 25.396 29.8478 25.7981 29.8054 25.9854C29.7504 26.2151 29.6331 26.4374 29.4782 26.6097C29.3434 26.757 29.3184 26.8269 29.3733 26.8819C29.4183 26.9268 29.4732 26.9168 29.5457 26.8544Z" fill="white"/>
</svg>
