<?xml version="1.0" encoding="utf-8"?>
<!-- Generator: Adobe Illustrator 26.0.1, SVG Export Plug-In . SVG Version: 6.00 Build 0)  -->
<svg version="1.1" id="Layer_1" xmlns="http://www.w3.org/2000/svg" xmlns:xlink="http://www.w3.org/1999/xlink" x="0px" y="0px"
	 viewBox="0 0 1023 250" style="enable-background:new 0 0 1023 250;" xml:space="preserve">
<style type="text/css">
	.st0{fill:#FFFFFF;}
	.st1{fill:url(#SVGID_1_);}
	.st2{fill:url(#SVGID_00000017513131912104349180000001118818890671561382_);}
	.st3{fill:url(#SVGID_00000178202624301957091670000010347682676033992855_);}
	.st4{fill:url(#SVGID_00000015333596342265193980000010458150991696153261_);}
	.st5{fill:url(#SVGID_00000013178644872530205090000017562992041477231794_);}
	.st6{fill:url(#SVGID_00000070821288342237770890000004251437463306347906_);}
	.st7{fill:url(#SVGID_00000096743404197600031170000013050779403261336758_);}
	.st8{fill:url(#SVGID_00000073705743582969976410000002909009017863174026_);}
	.st9{clip-path:url(#SVGID_00000040575107286959805380000012244928350101905334_);}
	.st10{clip-path:url(#SVGID_00000058569012190025925480000002639094665185892487_);}
	.st11{fill:url(#SVGID_00000140704134275401540570000005433532070362039443_);}
	.st12{fill:url(#SVGID_00000152263053984566992750000002843646965241311154_);}
	.st13{fill:url(#SVGID_00000071529052795438313770000005918670735392672916_);}
	.st14{fill:url(#SVGID_00000020376939909011540310000004455566061692025999_);}
	.st15{fill:url(#SVGID_00000103248497762270247610000007454455401592511115_);}
	.st16{fill:url(#SVGID_00000038388294361079663180000013276622948726234025_);}
	.st17{fill:url(#SVGID_00000124884761134695206210000007156782860935707555_);}
	.st18{fill:url(#SVGID_00000042738022647995599450000006396861425378015885_);}
	.st19{fill:url(#SVGID_00000126300343532685891930000010806952476199490697_);}
	.st20{fill:url(#SVGID_00000038405341900990737050000013356603841714245048_);}
	.st21{clip-path:url(#SVGID_00000024684270849049256750000014319570035839201177_);}
	.st22{fill:#CE6AE9;}
	.st23{clip-path:url(#SVGID_00000067220004469768191260000002377244193023551643_);}
	.st24{clip-path:url(#SVGID_00000065032073261350504470000001997911907236064152_);}
	.st25{clip-path:url(#SVGID_00000154405959261704615280000005511801873877263027_);}
	.st26{clip-path:url(#SVGID_00000060006031213330924430000011580687430222919867_);}
	.st27{clip-path:url(#SVGID_00000000927294932236148600000005187109985945934482_);}
	.st28{fill:url(#SVGID_00000094620304369911249790000002976939707041498240_);}
	.st29{clip-path:url(#SVGID_00000160161444497569250750000006807967875054125212_);}
	.st30{fill:url(#SVGID_00000164493548621637825240000004048807618703356040_);}
	.st31{clip-path:url(#SVGID_00000101061818627895805340000014699989152491563437_);}
	.st32{fill:url(#SVGID_00000028301085251740961410000002195490946993234842_);}
	.st33{clip-path:url(#SVGID_00000124863967404763518320000005163881625689954976_);}
	.st34{clip-path:url(#SVGID_00000081624886270365604360000006998745245411861673_);}
	.st35{clip-path:url(#SVGID_00000093856680335144554690000001853649256714126464_);}
	.st36{clip-path:url(#SVGID_00000168837848720887858860000003852638091728883871_);fill:#CE6AE9;}
	.st37{clip-path:url(#SVGID_00000129199136742520994830000003766801040413815181_);fill:#CE6AE9;}
	.st38{clip-path:url(#SVGID_00000154426041680687059780000013825290089893921686_);fill:#FFFFFF;}
	.st39{clip-path:url(#SVGID_00000088095505995861970550000017150745945522036620_);fill:#FFFFFF;}
	.st40{fill-rule:evenodd;clip-rule:evenodd;fill:url(#SVGID_00000070810399994213685130000016463045122581386404_);}
	.st41{opacity:0.2;}
	.st42{fill-rule:evenodd;clip-rule:evenodd;fill:#6D60B3;}
	.st43{fill:#E1A75F;}
	.st44{fill:#D98A54;}
	.st45{fill:url(#SVGID_00000021089245992791731780000015840045205869422987_);}
	.st46{opacity:0.3;fill:url(#SVGID_00000000940390224932875370000004029409797911491210_);enable-background:new    ;}
	.st47{fill:url(#SVGID_00000181068184478808642240000014728872641485279164_);}
	.st48{fill:#6B449F;}
	.st49{fill:#603C99;}
	.st50{fill:url(#SVGID_00000173135769651703734040000004447096181206187183_);}
	.st51{fill:url(#SVGID_00000143616926759055242940000006918465785141753531_);}
	.st52{fill-rule:evenodd;clip-rule:evenodd;fill:url(#SVGID_00000031916474323481342190000013470213417625975717_);}
	.st53{fill-rule:evenodd;clip-rule:evenodd;fill:#603C99;}
	.st54{fill:#F5E4BC;}
	.st55{fill:#FBFCDF;}
	.st56{fill:#E6B6A6;}
	.st57{fill:#1B1B18;}
	.st58{fill:#D67A58;}
	.st59{fill:#F6F6F6;}
	
		.st60{clip-path:url(#SVGID_00000121998944860167320100000004924239652665330852_);fill:url(#SVGID_00000013183614216449743570000003812926877684584879_);}
	.st61{clip-path:url(#SVGID_00000175281829389630194090000013415435397019079097_);fill:#1B1B18;}
	.st62{clip-path:url(#SVGID_00000045598021405095455020000014641960375497700493_);fill:#FFFFFF;}
	.st63{fill:#B9B9B9;}
	.st64{fill:none;}
	.st65{opacity:0.5;fill:#F6F6F6;enable-background:new    ;}
	.st66{fill-rule:evenodd;clip-rule:evenodd;fill:#E1A75F;}
</style>
<path class="st0" d="M327.9,138.3c0-3.4-0.5-6.4-1.7-9.2c-1.1-2.8-2.6-5.2-4.6-7.2s-4.4-3.5-7.2-4.6c-2.8-1.1-5.8-1.7-9.2-1.7h-38.1
	v60.8h38.1c3.4,0,6.4-0.5,9.2-1.7c2.8-1.1,5.1-2.6,7.2-4.6c2-2,3.5-4.4,4.6-7.1c1.1-2.8,1.7-5.9,1.7-9.3
	C327.9,153.8,327.9,138.3,327.9,138.3z M345.2,153.9c0,5.8-1,11.2-3,16c-2,4.9-4.8,9.1-8.3,12.6s-7.8,6.3-12.6,8.3
	c-4.9,2-10.2,3-15.9,3h-46.8c-1.2,0-2.4-0.2-3.5-0.7s-2-1.1-2.8-1.8c-0.8-0.8-1.4-1.7-1.8-2.8c-0.5-1.1-0.7-2.2-0.7-3.5v-77.9
	c0-1.2,0.2-2.3,0.7-3.4s1.1-2,1.8-2.8c0.8-0.8,1.7-1.4,2.8-1.9s2.2-0.7,3.5-0.7h46.7c5.7,0,11,1,15.9,3s9.1,4.8,12.6,8.3
	s6.3,7.7,8.3,12.6s3,10.2,3,16L345.2,153.9L345.2,153.9L345.2,153.9z"/>
<path class="st0" d="M444.9,137c0-3.4-0.5-6.5-1.7-9.3c-1.1-2.8-2.6-5.1-4.6-7.1s-4.3-3.5-7.1-4.6c-2.8-1.1-5.8-1.7-9.1-1.7H399
	c-3.4,0-6.4,0.5-9.2,1.7c-2.8,1.1-5.1,2.6-7.2,4.6c-2,2-3.5,4.4-4.6,7.1c-1.1,2.8-1.7,5.9-1.7,9.3v18.2c0,3.4,0.5,6.5,1.7,9.3
	c1.1,2.8,2.6,5.1,4.6,7.1s4.4,3.5,7.2,4.6c2.8,1.1,5.8,1.7,9.2,1.7h23.3c3.4,0,6.4-0.5,9.2-1.7c2.8-1.1,5.1-2.6,7.2-4.6
	c2-2,3.5-4.4,4.6-7.1c1.1-2.8,1.7-5.9,1.7-9.3V137H444.9z M462.2,155.2c0,5.8-1,11.2-3,16c-2,4.9-4.8,9.1-8.3,12.6
	s-7.8,6.3-12.6,8.3c-4.8,2-10.1,2.9-15.9,2.9H399c-5.7,0-11-1-15.9-2.9c-4.9-2-9.1-4.8-12.6-8.3s-6.3-7.8-8.4-12.6
	c-2-4.9-3-10.2-3-16V137c0-5.7,1-11.1,3-16s4.8-9.1,8.4-12.6c3.5-3.5,7.8-6.3,12.6-8.3c4.9-2,10.2-3,15.9-3h23.4c5.7,0,11,1,15.9,3
	c4.8,2,9.1,4.8,12.6,8.3s6.3,7.7,8.3,12.6s3,10.2,3,16L462.2,155.2L462.2,155.2z"/>
<path class="st0" d="M573.4,185.1c0,1.2-0.2,2.4-0.7,3.5s-1.1,2-1.8,2.8c-0.8,0.8-1.7,1.4-2.8,1.8c-1.1,0.5-2.2,0.7-3.5,0.7h-62.4
	c-1.6,0-3.3-0.2-5.1-0.5c-1.8-0.4-3.6-1-5.4-1.7c-1.8-0.8-3.5-1.8-5.1-3.1c-1.7-1.3-3.1-2.8-4.4-4.6s-2.3-3.9-3-6.3
	c-0.8-2.3-1.1-5.1-1.1-8v-46.8c0-1.6,0.2-3.3,0.5-5.1c0.4-1.8,1-3.6,1.7-5.4c0.8-1.8,1.8-3.5,3.1-5.1c1.3-1.7,2.8-3.1,4.6-4.4
	c1.8-1.3,3.9-2.3,6.2-3c2.3-0.8,5-1.1,8-1.1h70.3v17.3h-70.3c-2.3,0-4,0.6-5.2,1.8c-1.2,1.2-1.8,2.9-1.8,5.3v46.7
	c0,2.2,0.6,3.9,1.8,5.1s2.9,1.8,5.1,1.8h53.8v-21.7h-46v-17.4h54.6c1.2,0,2.4,0.2,3.5,0.7s2,1.1,2.8,1.9c0.8,0.8,1.4,1.7,1.8,2.8
	c0.5,1.1,0.7,2.2,0.7,3.3v39h0.1V185.1z"/>
<path class="st0" d="M669.8,154.8h-54.6v-17.4h54.6V154.8z M677.6,193.7h-62.4c-2.4,0-5-0.5-7.9-1.3s-5.4-2.3-7.9-4.2
	c-2.4-2-4.5-4.5-6-7.5c-1.6-3.1-2.4-6.9-2.4-11.3V107c0-1.2,0.2-2.3,0.7-3.4s1.1-2,1.8-2.8c0.8-0.8,1.7-1.4,2.8-1.9s2.2-0.7,3.5-0.7
	h77.9v17.3h-69.3v53.8c0,2.3,0.6,4,1.8,5.2s2.9,1.8,5.3,1.8h62.2L677.6,193.7L677.6,193.7L677.6,193.7L677.6,193.7z"/>
<path class="st0" d="M776,137c0-3.4-0.5-6.5-1.7-9.3c-1.1-2.8-2.6-5.1-4.6-7.1s-4.4-3.5-7.1-4.6c-2.8-1.1-5.8-1.7-9.1-1.7h-23.4
	c-3.4,0-6.4,0.5-9.2,1.7c-2.8,1.1-5.1,2.6-7.2,4.6c-2,2-3.5,4.4-4.6,7.1c-1.1,2.8-1.7,5.9-1.7,9.3v18.2c0,3.4,0.5,6.5,1.7,9.3
	c1.1,2.8,2.6,5.1,4.6,7.1s4.4,3.5,7.2,4.6s5.8,1.7,9.2,1.7h23.3c3.4,0,6.4-0.5,9.2-1.7c2.8-1.1,5.1-2.6,7.2-4.6c2-2,3.5-4.4,4.6-7.1
	c1.1-2.8,1.7-5.9,1.7-9.3V137H776z M793.3,155.2c0,5.8-1,11.2-3,16c-2,4.9-4.8,9.1-8.3,12.6s-7.8,6.3-12.6,8.3s-10.1,2.9-15.9,2.9
	h-23.4c-5.7,0-11-1-15.9-2.9c-4.9-2-9.1-4.8-12.6-8.3s-6.3-7.8-8.4-12.6c-2-4.9-3-10.2-3-16V137c0-5.7,1-11.1,3-16s4.8-9.1,8.4-12.6
	c3.5-3.5,7.8-6.3,12.6-8.3c4.9-2,10.2-3,15.9-3h23.4c5.7,0,11,1,15.9,3c4.8,2,9.1,4.8,12.6,8.3s6.3,7.7,8.3,12.6s3,10.2,3,16V155.2z
	"/>
<path class="st0" d="M905.6,186.3c0,1.2-0.2,2.4-0.7,3.5s-1.1,2-1.9,2.7c-0.8,0.8-1.7,1.4-2.8,1.8c-1.1,0.5-2.2,0.7-3.4,0.7
	c-1.1,0-2.1-0.2-3.2-0.6c-1.1-0.4-2-1.1-2.9-1.9l-63.1-65.9v67.1h-17.3v-88c0-1.7,0.5-3.4,1.5-4.8s2.3-2.5,3.9-3.2
	c1.7-0.7,3.3-0.8,5.1-0.5c1.7,0.3,3.2,1.1,4.5,2.4l63.1,65.9V98.4h17.3L905.6,186.3L905.6,186.3z"/>
<path class="st0" d="M1004.1,154.8h-54.6v-17.4h54.6V154.8z M1011.9,193.7h-62.4c-2.4,0-5-0.5-7.9-1.3s-5.4-2.3-7.9-4.2
	c-2.4-2-4.5-4.5-6-7.5c-1.6-3.1-2.4-6.9-2.4-11.3V107c0-1.2,0.2-2.3,0.7-3.4s1.1-2,1.8-2.8c0.8-0.8,1.7-1.4,2.8-1.9s2.2-0.7,3.5-0.7
	h77.8v17.3h-69.3v53.8c0,2.3,0.6,4,1.8,5.2s2.9,1.8,5.3,1.8h62.2L1011.9,193.7L1011.9,193.7z"/>
<linearGradient id="SVGID_1_" gradientUnits="userSpaceOnUse" x1="275.1193" y1="63.8968" x2="490.5041" y2="81.7088">
	<stop  offset="0" style="stop-color:#F883AF"/>
	<stop  offset="9.486656e-02" style="stop-color:#F47FB0"/>
	<stop  offset="0.1955" style="stop-color:#E772B4"/>
	<stop  offset="0.2987" style="stop-color:#D25DBB"/>
	<stop  offset="0.4031" style="stop-color:#B53FC4"/>
	<stop  offset="0.6649" style="stop-color:#941ECE"/>
	<stop  offset="1" style="stop-color:#9F29CB"/>
</linearGradient>
<path class="st1" d="M292.2,81.6h-6.5V60.4l-11.4,20.2c-0.3,0.5-0.7,0.9-1.2,1.1s-1.1,0.4-1.7,0.4c-0.5,0-1.1-0.2-1.6-0.4
	c-0.5-0.2-0.9-0.7-1.1-1.1l-11.5-20.2v21.2h-6.5V48.7c0-0.8,0.2-1.4,0.7-2s1-1,1.7-1.2c0.4-0.1,0.7-0.1,1.1-0.1s0.7,0.1,1,0.2
	c0.3,0.2,0.6,0.3,0.9,0.5s0.5,0.5,0.7,0.8l14.7,25.6L286.1,47c0.4-0.6,0.9-1.1,1.6-1.4c0.7-0.3,1.4-0.3,2.1-0.2
	c0.7,0.2,1.3,0.6,1.7,1.2c0.5,0.6,0.7,1.2,0.7,2L292.2,81.6L292.2,81.6z"/>
<linearGradient id="SVGID_00000000941403481169729080000007792798313260796084_" gradientUnits="userSpaceOnUse" x1="275.3252" y1="61.4072" x2="490.71" y2="79.2192">
	<stop  offset="0" style="stop-color:#F883AF"/>
	<stop  offset="9.486656e-02" style="stop-color:#F47FB0"/>
	<stop  offset="0.1955" style="stop-color:#E772B4"/>
	<stop  offset="0.2987" style="stop-color:#D25DBB"/>
	<stop  offset="0.4031" style="stop-color:#B53FC4"/>
	<stop  offset="0.6649" style="stop-color:#941ECE"/>
	<stop  offset="1" style="stop-color:#9F29CB"/>
</linearGradient>
<rect x="299.8" y="45.9" style="fill:url(#SVGID_00000000941403481169729080000007792798313260796084_);" width="6.5" height="35.6"/>
<linearGradient id="SVGID_00000040557140222516928240000000110170411200323998_" gradientUnits="userSpaceOnUse" x1="275.4754" y1="59.5901" x2="490.8602" y2="77.4021">
	<stop  offset="0" style="stop-color:#F883AF"/>
	<stop  offset="9.486656e-02" style="stop-color:#F47FB0"/>
	<stop  offset="0.1955" style="stop-color:#E772B4"/>
	<stop  offset="0.2987" style="stop-color:#D25DBB"/>
	<stop  offset="0.4031" style="stop-color:#B53FC4"/>
	<stop  offset="0.6649" style="stop-color:#941ECE"/>
	<stop  offset="1" style="stop-color:#9F29CB"/>
</linearGradient>
<path style="fill:url(#SVGID_00000040557140222516928240000000110170411200323998_);" d="M348.1,71.1c0,1.3-0.2,2.4-0.5,3.5
	c-0.3,1-0.8,1.9-1.3,2.7c-0.5,0.8-1.1,1.4-1.9,2s-1.4,1-2.2,1.4c-0.8,0.4-1.5,0.6-2.3,0.8c-0.8,0.2-1.5,0.2-2.2,0.2h-24.9v-6.5h24.9
	c1.2,0,2.2-0.4,2.9-1.1c0.7-0.8,1.1-1.7,1.1-2.9c0-0.6-0.1-1.1-0.3-1.7c-0.2-0.5-0.5-0.9-0.8-1.3c-0.4-0.4-0.8-0.7-1.2-0.8
	c-0.5-0.2-1.1-0.3-1.7-0.3h-14.9c-1.1,0-2.2-0.2-3.4-0.5c-1.2-0.4-2.3-1-3.4-1.8c-1.1-0.8-1.9-1.9-2.6-3.2c-0.7-1.4-1.1-2.9-1.1-4.9
	s0.4-3.5,1.1-4.9s1.6-2.4,2.6-3.2c1.1-0.8,2.2-1.4,3.4-1.8c1.2-0.4,2.3-0.5,3.4-0.5h22v6.5h-22c-1.2,0-2.2,0.4-2.9,1.1
	c-0.7,0.8-1.1,1.7-1.1,2.9s0.4,2.2,1.1,2.9c0.7,0.8,1.7,1.1,2.9,1.1h14.9h0.1c0.7,0,1.4,0.2,2.2,0.3s1.6,0.5,2.3,0.8
	c0.8,0.4,1.5,0.8,2.2,1.4s1.3,1.2,1.9,2c0.5,0.8,1,1.7,1.3,2.7C347.9,68.7,348.1,69.8,348.1,71.1"/>
<linearGradient id="SVGID_00000057869900409226126250000005138812547602707872_" gradientUnits="userSpaceOnUse" x1="275.7437" y1="56.3457" x2="491.1285" y2="74.1577">
	<stop  offset="0" style="stop-color:#F883AF"/>
	<stop  offset="9.486656e-02" style="stop-color:#F47FB0"/>
	<stop  offset="0.1955" style="stop-color:#E772B4"/>
	<stop  offset="0.2987" style="stop-color:#D25DBB"/>
	<stop  offset="0.4031" style="stop-color:#B53FC4"/>
	<stop  offset="0.6649" style="stop-color:#941ECE"/>
	<stop  offset="1" style="stop-color:#9F29CB"/>
</linearGradient>
<path style="fill:url(#SVGID_00000057869900409226126250000005138812547602707872_);" d="M387.6,71.1c0,1.3-0.2,2.4-0.5,3.5
	c-0.3,1-0.8,1.9-1.3,2.7c-0.5,0.8-1.1,1.4-1.9,2c-0.8,0.5-1.4,1-2.2,1.4c-0.8,0.4-1.5,0.6-2.3,0.8c-0.8,0.2-1.5,0.2-2.2,0.2h-24.9
	v-6.5h24.9c1.2,0,2.2-0.4,2.9-1.1c0.7-0.8,1.1-1.7,1.1-2.9c0-0.6-0.1-1.1-0.3-1.7c-0.2-0.5-0.5-0.9-0.8-1.3
	c-0.4-0.4-0.8-0.7-1.2-0.8c-0.5-0.2-1.1-0.3-1.7-0.3h-14.9c-1.1,0-2.2-0.2-3.4-0.5c-1.2-0.4-2.3-1-3.4-1.8c-1.1-0.8-1.9-1.9-2.6-3.2
	c-0.7-1.4-1.1-2.9-1.1-4.9s0.4-3.5,1.1-4.9s1.6-2.4,2.6-3.2c1.1-0.8,2.2-1.4,3.4-1.8c1.2-0.4,2.3-0.5,3.4-0.5h22v6.5h-22
	c-1.2,0-2.2,0.4-2.9,1.1c-0.7,0.8-1.1,1.7-1.1,2.9s0.4,2.2,1.1,2.9s1.7,1.1,2.9,1.1h14.9h0.1c0.7,0,1.4,0.2,2.2,0.3s1.6,0.5,2.3,0.8
	c0.8,0.4,1.5,0.8,2.2,1.4s1.3,1.2,1.9,2c0.5,0.8,1,1.7,1.3,2.7C387.5,68.7,387.6,69.8,387.6,71.1"/>
<linearGradient id="SVGID_00000116222367540700171270000000578593587404931760_" gradientUnits="userSpaceOnUse" x1="275.9589" y1="53.7438" x2="491.3437" y2="71.5558">
	<stop  offset="0" style="stop-color:#F883AF"/>
	<stop  offset="9.486656e-02" style="stop-color:#F47FB0"/>
	<stop  offset="0.1955" style="stop-color:#E772B4"/>
	<stop  offset="0.2987" style="stop-color:#D25DBB"/>
	<stop  offset="0.4031" style="stop-color:#B53FC4"/>
	<stop  offset="0.6649" style="stop-color:#941ECE"/>
	<stop  offset="1" style="stop-color:#9F29CB"/>
</linearGradient>
<rect x="393.1" y="45.9" style="fill:url(#SVGID_00000116222367540700171270000000578593587404931760_);" width="6.5" height="35.6"/>
<linearGradient id="SVGID_00000039817587630400405010000008638881699453149370_" gradientUnits="userSpaceOnUse" x1="276.147" y1="51.4694" x2="491.5318" y2="69.2815">
	<stop  offset="0" style="stop-color:#F883AF"/>
	<stop  offset="9.486656e-02" style="stop-color:#F47FB0"/>
	<stop  offset="0.1955" style="stop-color:#E772B4"/>
	<stop  offset="0.2987" style="stop-color:#D25DBB"/>
	<stop  offset="0.4031" style="stop-color:#B53FC4"/>
	<stop  offset="0.6649" style="stop-color:#941ECE"/>
	<stop  offset="1" style="stop-color:#9F29CB"/>
</linearGradient>
<path style="fill:url(#SVGID_00000039817587630400405010000008638881699453149370_);" d="M438,60.4c0-1.3-0.2-2.4-0.6-3.5
	s-1-1.9-1.7-2.6c-0.8-0.8-1.6-1.3-2.6-1.7c-1.1-0.4-2.2-0.6-3.4-0.6h-8.8c-1.3,0-2.4,0.2-3.5,0.6c-1.1,0.4-1.9,1-2.6,1.7
	c-0.8,0.8-1.3,1.7-1.7,2.6c-0.4,1.1-0.6,2.2-0.6,3.5v6.8c0,1.3,0.2,2.4,0.6,3.5s1,1.9,1.7,2.6c0.8,0.8,1.7,1.3,2.6,1.7
	c1.1,0.4,2.2,0.6,3.5,0.6h8.8c1.3,0,2.4-0.2,3.5-0.6s2-1,2.6-1.7c0.8-0.8,1.4-1.7,1.7-2.6c0.4-1.1,0.6-2.2,0.6-3.5L438,60.4
	L438,60.4z M444.5,67.2c0,2.2-0.4,4.2-1.1,6s-1.8,3.4-3.1,4.8c-1.4,1.4-2.9,2.3-4.7,3.1c-1.8,0.8-3.8,1.1-5.9,1.1h-8.8
	c-2.1,0-4.1-0.4-6-1.1c-1.8-0.8-3.4-1.7-4.8-3.1s-2.3-2.9-3.1-4.8c-0.8-1.8-1.1-3.9-1.1-6v-6.8c0-2.2,0.4-4.2,1.1-6s1.8-3.4,3.1-4.8
	c1.4-1.3,2.9-2.3,4.8-3.1c1.8-0.8,3.8-1.1,6-1.1h8.7c2.1,0,4.1,0.4,5.9,1.1c1.8,0.8,3.4,1.7,4.7,3.1c1.4,1.3,2.3,2.9,3.1,4.8
	c0.8,1.8,1.1,3.9,1.1,6L444.5,67.2L444.5,67.2z"/>
<linearGradient id="SVGID_00000150062597710709276750000004493355261050384542_" gradientUnits="userSpaceOnUse" x1="276.4418" y1="47.9047" x2="491.8266" y2="65.7167">
	<stop  offset="0" style="stop-color:#F883AF"/>
	<stop  offset="9.486656e-02" style="stop-color:#F47FB0"/>
	<stop  offset="0.1955" style="stop-color:#E772B4"/>
	<stop  offset="0.2987" style="stop-color:#D25DBB"/>
	<stop  offset="0.4031" style="stop-color:#B53FC4"/>
	<stop  offset="0.6649" style="stop-color:#941ECE"/>
	<stop  offset="1" style="stop-color:#9F29CB"/>
</linearGradient>
<path style="fill:url(#SVGID_00000150062597710709276750000004493355261050384542_);" d="M486.5,78.9c0,0.5-0.1,0.9-0.2,1.3
	s-0.4,0.8-0.7,1.1c-0.3,0.3-0.6,0.5-1.1,0.7c-0.4,0.2-0.8,0.2-1.3,0.2c-0.4,0-0.8-0.1-1.2-0.2c-0.4-0.2-0.8-0.4-1.1-0.8l-23.6-24.6
	v25.1h-6.5v-33c0-0.7,0.2-1.3,0.5-1.8s0.8-0.9,1.4-1.2c0.6-0.2,1.2-0.3,1.9-0.2s1.2,0.5,1.7,0.9L480,71.1V45.9h6.5V78.9L486.5,78.9z
	"/>
<g id="Background">
	
		<linearGradient id="SVGID_00000142151076917806269710000015800247457813116595_" gradientUnits="userSpaceOnUse" x1="19" y1="-470.3102" x2="193.6" y2="-470.3102" gradientTransform="matrix(1 0 0 -1 0 -342.1102)">
		<stop  offset="0" style="stop-color:#28014D"/>
		<stop  offset="1" style="stop-color:#511D81"/>
	</linearGradient>
	<circle style="fill:url(#SVGID_00000142151076917806269710000015800247457813116595_);" cx="106.3" cy="128.2" r="87.3"/>
</g>
<g id="Rocket_x2B_Stars">
	<g>
		<g>
			<g>
				<g>
					<defs>
						<circle id="SVGID_00000034078602981142789610000005018074145298296713_" cx="106.3" cy="128.2" r="87.3"/>
					</defs>
					<clipPath id="SVGID_00000073685592695437547810000004673867972902007228_">
						<use xlink:href="#SVGID_00000034078602981142789610000005018074145298296713_"  style="overflow:visible;"/>
					</clipPath>
					<g style="clip-path:url(#SVGID_00000073685592695437547810000004673867972902007228_);">
						<path class="st0" d="M84.2,168.2c0,0.7-0.6,1.2-1.2,1.2c-0.7,0-1.2-0.6-1.2-1.2c0-0.7,0.6-1.2,1.2-1.2S84.2,167.5,84.2,168.2z
							"/>
						<path class="st0" d="M92.1,141.9c0,0.7-0.6,1.2-1.2,1.2c-0.7,0-1.2-0.6-1.2-1.2c0-0.7,0.6-1.2,1.2-1.2
							C91.5,140.6,92.1,141.2,92.1,141.9z"/>
						<path class="st0" d="M100.7,159.3c0,0.7-0.6,1.2-1.2,1.2c-0.7,0-1.2-0.6-1.2-1.2c0-0.7,0.6-1.2,1.2-1.2
							C100.1,158,100.7,158.6,100.7,159.3z"/>
						<circle class="st0" cx="56.6" cy="89.6" r="1.2"/>
						<path class="st0" d="M116.2,73.7c0,0.7-0.6,1.2-1.2,1.2c-0.7,0-1.2-0.6-1.2-1.2c0-0.7,0.6-1.2,1.2-1.2S116.2,73,116.2,73.7z"
							/>
						<path class="st0" d="M153.4,152.9c0,0.7-0.6,1.2-1.2,1.2c-0.7,0-1.2-0.6-1.2-1.2c0-0.7,0.6-1.2,1.2-1.2
							C152.8,151.7,153.4,152.2,153.4,152.9z"/>
						<path class="st0" d="M51.5,64.2c0,0.7-0.6,1.2-1.2,1.2c-0.7,0-1.2-0.6-1.2-1.2c0-0.7,0.6-1.2,1.2-1.2
							C50.9,62.9,51.5,63.5,51.5,64.2z"/>
						<circle class="st0" cx="100.4" cy="52.3" r="1.2"/>
						<path class="st0" d="M121.2,125.2c0,0.7-0.6,1.2-1.2,1.2c-0.7,0-1.2-0.6-1.2-1.2c0-0.7,0.6-1.2,1.2-1.2
							C120.7,124,121.2,124.5,121.2,125.2z"/>
						<path class="st0" d="M73.5,177c0,0.9-0.7,1.6-1.6,1.6s-1.6-0.7-1.6-1.6s0.7-1.6,1.6-1.6S73.5,176.1,73.5,177z"/>
						<path class="st0" d="M50.7,112.6c-0.5,0.5-1.3,0.4-1.7-0.1c-0.5-0.5-0.4-1.3,0.1-1.7c0.5-0.5,1.3-0.4,1.7,0.1
							C51.3,111.3,51.2,112.1,50.7,112.6z"/>
						<path class="st0" d="M32.1,127.5c-0.7,0.7-1.8,0.7-2.4-0.1c-0.5-0.6-0.4-1.4,0.1-2c0.7-0.7,1.8-0.7,2.5,0.1
							C32.7,126.1,32.6,126.9,32.1,127.5z"/>
						<path class="st0" d="M151.5,73.5c-0.7,0.7-1.8,0.7-2.4-0.1c-0.5-0.6-0.4-1.4,0.1-2c0.7-0.7,1.8-0.7,2.5,0.1
							C152.1,72.1,152,72.9,151.5,73.5z"/>
						<path class="st0" d="M186.6,111c-0.7,0.7-1.8,0.7-2.4-0.1c-0.5-0.6-0.4-1.4,0.1-2c0.7-0.7,1.8-0.7,2.5,0.1
							C187.2,109.6,187.1,110.4,186.6,111z"/>
						<path class="st0" d="M156.4,104.1c0,0.9-0.7,1.6-1.6,1.6c-0.9,0-1.6-0.7-1.6-1.6s0.7-1.6,1.6-1.6
							C155.7,102.6,156.4,103.3,156.4,104.1z"/>
						<path class="st0" d="M166.5,190.5c0,0.9-0.7,1.6-1.6,1.6c-0.9,0-1.6-0.7-1.6-1.6c0-0.9,0.7-1.6,1.6-1.6
							C165.8,189,166.5,189.7,166.5,190.5z"/>
						<circle class="st0" cx="167.5" cy="86.4" r="0.8"/>
						<path class="st0" d="M120.8,105.7c0,0.5-0.4,0.8-0.8,0.8s-0.8-0.4-0.8-0.8s0.4-0.8,0.8-0.8S120.8,105.3,120.8,105.7z"/>
						<path class="st0" d="M107.2,115.4c0,0.5-0.4,0.8-0.8,0.8c-0.5,0-0.8-0.4-0.8-0.8s0.4-0.8,0.8-0.8
							C106.9,114.5,107.2,114.9,107.2,115.4z"/>
						<path class="st0" d="M128.9,193c0,0.5-0.4,0.8-0.8,0.8s-0.8-0.4-0.8-0.8c0-0.5,0.4-0.8,0.8-0.8
							C128.5,192.1,128.9,192.5,128.9,193z"/>
						<path class="st0" d="M154.2,177.8c0,0.5-0.4,0.8-0.8,0.8c-0.5,0-0.8-0.4-0.8-0.8c0-0.5,0.4-0.8,0.8-0.8
							S154.2,177.4,154.2,177.8z"/>
						<path class="st0" d="M130.5,152.9c0,0.5-0.4,0.8-0.8,0.8c-0.5,0-0.8-0.4-0.8-0.8c0-0.5,0.4-0.8,0.8-0.8
							C130.1,152.1,130.5,152.4,130.5,152.9z"/>
						<path class="st0" d="M135.6,143c0,0.5-0.4,0.8-0.8,0.8s-0.8-0.4-0.8-0.8s0.4-0.8,0.8-0.8S135.6,142.5,135.6,143z"/>
						<path class="st0" d="M86.5,181.1c0,0.5-0.4,0.8-0.8,0.8c-0.5,0-0.8-0.4-0.8-0.8c0-0.5,0.4-0.8,0.8-0.8S86.5,180.6,86.5,181.1z
							"/>
						<path class="st0" d="M78.6,148c0,0.5-0.4,0.8-0.8,0.8S77,148.4,77,148s0.4-0.8,0.8-0.8S78.6,147.5,78.6,148z"/>
						<path class="st0" d="M66.3,74.5c0,0.5-0.4,0.8-0.8,0.8s-0.8-0.4-0.8-0.8c0-0.5,0.4-0.8,0.8-0.8S66.3,74,66.3,74.5z"/>
						<path class="st0" d="M85.1,66.6c0,0.5-0.4,0.8-0.8,0.8s-0.8-0.4-0.8-0.8c0-0.5,0.4-0.8,0.8-0.8S85.1,66.2,85.1,66.6z"/>
						<path class="st0" d="M77.8,117.3c0,0.5-0.4,0.8-0.8,0.8c-0.5,0-0.8-0.4-0.8-0.8c0-0.5,0.4-0.8,0.8-0.8S77.8,116.8,77.8,117.3z
							"/>
						<path class="st0" d="M93.9,189.1c0,0.5-0.4,0.8-0.8,0.8s-0.8-0.4-0.8-0.8c0-0.5,0.4-0.8,0.8-0.8S93.9,188.6,93.9,189.1z"/>
						<path class="st0" d="M169.2,101.2c0,0.5-0.4,0.8-0.8,0.8c-0.5,0-0.8-0.4-0.8-0.8s0.4-0.8,0.8-0.8
							C168.9,100.3,169.2,100.7,169.2,101.2z"/>
						<path class="st0" d="M72.8,204.2c0,0.5-0.4,0.8-0.8,0.8s-0.8-0.4-0.8-0.8c0-0.5,0.4-0.8,0.8-0.8S72.8,203.8,72.8,204.2z"/>
					</g>
				</g>
			</g>
		</g>
		<g>
			<g>
				<g>
					<defs>
						<circle id="SVGID_00000023267285902572419340000005174116165811557531_" cx="106.3" cy="128.2" r="87.3"/>
					</defs>
					<clipPath id="SVGID_00000158741408463644375510000012397179812241237175_">
						<use xlink:href="#SVGID_00000023267285902572419340000005174116165811557531_"  style="overflow:visible;"/>
					</clipPath>
					<g style="clip-path:url(#SVGID_00000158741408463644375510000012397179812241237175_);">
						<g>
							
								<linearGradient id="SVGID_00000000902914407309844060000007751969237420945336_" gradientUnits="userSpaceOnUse" x1="73.0172" y1="-521.9601" x2="80.7769" y2="-521.9601" gradientTransform="matrix(1 0 0 -1 0 -342.1102)">
								<stop  offset="0" style="stop-color:#8B5EA9"/>
								<stop  offset="1" style="stop-color:#511D81"/>
							</linearGradient>
							<path style="fill:url(#SVGID_00000000902914407309844060000007751969237420945336_);" d="M80.7,176l-7.6,7.7H73v-0.1l0,0
								L80.7,176z"/>
						</g>
						<g>
							
								<linearGradient id="SVGID_00000061463575075046857460000015972891157958552465_" gradientUnits="userSpaceOnUse" x1="74.6167" y1="-518.1602" x2="86.7955" y2="-518.1602" gradientTransform="matrix(1 0 0 -1 0 -342.1102)">
								<stop  offset="0" style="stop-color:#6AA0B1"/>
								<stop  offset="1" style="stop-color:#511D81"/>
							</linearGradient>
							<path style="fill:url(#SVGID_00000061463575075046857460000015972891157958552465_);" d="M86.7,170l-12,12.1h-0.1V182l0,0
								L86.7,170z"/>
						</g>
						<g>
							
								<linearGradient id="SVGID_00000131332126352781840270000010449915043464140982_" gradientUnits="userSpaceOnUse" x1="79" y1="-449.6602" x2="91.1788" y2="-449.6602" gradientTransform="matrix(1 0 0 -1 0 -342.1102)">
								<stop  offset="0" style="stop-color:#6AA0B1"/>
								<stop  offset="1" style="stop-color:#511D81"/>
							</linearGradient>
							<path style="fill:url(#SVGID_00000131332126352781840270000010449915043464140982_);" d="M91.1,101.5l-12,12.1H79v-0.1l0,0
								L91.1,101.5z"/>
						</g>
						<g>
							
								<linearGradient id="SVGID_00000049191061301146082990000002678155483543551137_" gradientUnits="userSpaceOnUse" x1="127.3438" y1="-405.9602" x2="139.5226" y2="-405.9602" gradientTransform="matrix(1 0 0 -1 0 -342.1102)">
								<stop  offset="0" style="stop-color:#6AA0B1"/>
								<stop  offset="1" style="stop-color:#511D81"/>
							</linearGradient>
							<path style="fill:url(#SVGID_00000049191061301146082990000002678155483543551137_);" d="M139.5,57.8l-12,12.1h-0.1v-0.1l0,0
								L139.5,57.8z"/>
						</g>
						<g>
							
								<linearGradient id="SVGID_00000147906966811348946770000018446272162598406075_" gradientUnits="userSpaceOnUse" x1="39.1583" y1="-442.5602" x2="54.539" y2="-442.5602" gradientTransform="matrix(1 0 0 -1 0 -342.1102)">
								<stop  offset="0" style="stop-color:#BA409C"/>
								<stop  offset="1" style="stop-color:#511D81"/>
							</linearGradient>
							<path style="fill:url(#SVGID_00000147906966811348946770000018446272162598406075_);" d="M54.5,92.8l-15.2,15.3h-0.1V108l0,0
								L54.5,92.8z"/>
						</g>
						<g>
							
								<linearGradient id="SVGID_00000121959839473885361300000015963650640885575073_" gradientUnits="userSpaceOnUse" x1="117.3246" y1="-390.6602" x2="125.0843" y2="-390.6602" gradientTransform="matrix(1 0 0 -1 0 -342.1102)">
								<stop  offset="0" style="stop-color:#B8D9C6"/>
								<stop  offset="1" style="stop-color:#511D81"/>
							</linearGradient>
							<path style="fill:url(#SVGID_00000121959839473885361300000015963650640885575073_);" d="M125,44.7l-7.6,7.7h-0.1v-0.1l0,0
								L125,44.7z"/>
						</g>
						<g>
							
								<linearGradient id="SVGID_00000083060562371615794640000018405936021474516117_" gradientUnits="userSpaceOnUse" x1="50.1" y1="-503.9602" x2="57.8597" y2="-503.9602" gradientTransform="matrix(1 0 0 -1 0 -342.1102)">
								<stop  offset="0" style="stop-color:#D98A7D"/>
								<stop  offset="1" style="stop-color:#511D81"/>
							</linearGradient>
							<path style="fill:url(#SVGID_00000083060562371615794640000018405936021474516117_);" d="M57.8,158l-7.6,7.7h-0.1v-0.1l0,0
								L57.8,158z"/>
						</g>
						<g>
							
								<linearGradient id="SVGID_00000178170621980036674390000004053364439924561073_" gradientUnits="userSpaceOnUse" x1="151.3636" y1="-526.5602" x2="159.1234" y2="-526.5602" gradientTransform="matrix(1 0 0 -1 0 -342.1102)">
								<stop  offset="0" style="stop-color:#8B5EA9"/>
								<stop  offset="1" style="stop-color:#511D81"/>
							</linearGradient>
							<path style="fill:url(#SVGID_00000178170621980036674390000004053364439924561073_);" d="M159.1,180.6l-7.6,7.7h-0.1v-0.1
								l0,0L159.1,180.6z"/>
						</g>
						<g>
							
								<linearGradient id="SVGID_00000042009811431132094910000018125833806664238254_" gradientUnits="userSpaceOnUse" x1="137.8823" y1="-466.0602" x2="145.642" y2="-466.0602" gradientTransform="matrix(1 0 0 -1 0 -342.1102)">
								<stop  offset="0" style="stop-color:#D9A7CB"/>
								<stop  offset="1" style="stop-color:#511D81"/>
							</linearGradient>
							<path style="fill:url(#SVGID_00000042009811431132094910000018125833806664238254_);" d="M145.6,120.1l-7.6,7.7h-0.1v-0.1
								l0,0L145.6,120.1z"/>
						</g>
						<g>
							
								<linearGradient id="SVGID_00000047741538006217412990000016771293720350266030_" gradientUnits="userSpaceOnUse" x1="133.3609" y1="-505.2602" x2="145.5395" y2="-505.2602" gradientTransform="matrix(1 0 0 -1 0 -342.1102)">
								<stop  offset="0" style="stop-color:#6AA0B1"/>
								<stop  offset="1" style="stop-color:#511D81"/>
							</linearGradient>
							<path style="fill:url(#SVGID_00000047741538006217412990000016771293720350266030_);" d="M145.5,157.1l-12,12.1h-0.1v-0.1
								l0,0L145.5,157.1z"/>
						</g>
					</g>
				</g>
			</g>
		</g>
		<g>
			<g>
				<g>
					<defs>
						<circle id="SVGID_00000048503558502987716130000005221602138252493728_" cx="106.3" cy="128.2" r="87.3"/>
					</defs>
					<clipPath id="SVGID_00000132799119350936016580000003349774063475920044_">
						<use xlink:href="#SVGID_00000048503558502987716130000005221602138252493728_"  style="overflow:visible;"/>
					</clipPath>
					<g style="clip-path:url(#SVGID_00000132799119350936016580000003349774063475920044_);">
						<g>
							<path class="st22" d="M89.7,177.8c0.3,0.1,0.4,0.5,0.3,0.8s-0.5,0.4-0.8,0.3c-0.3-0.1-0.4-0.5-0.3-0.8
								C89,177.7,89.4,177.6,89.7,177.8z"/>
						</g>
					</g>
				</g>
			</g>
		</g>
		<g>
			<g>
				<g>
					<defs>
						<circle id="SVGID_00000057106559750654827470000013371695304976594054_" cx="106.3" cy="128.2" r="87.3"/>
					</defs>
					<clipPath id="SVGID_00000004506974943268526750000002733137679858042785_">
						<use xlink:href="#SVGID_00000057106559750654827470000013371695304976594054_"  style="overflow:visible;"/>
					</clipPath>
					<g style="clip-path:url(#SVGID_00000004506974943268526750000002733137679858042785_);">
						<g>
							<circle class="st22" cx="83.9" cy="168.6" r="1"/>
						</g>
					</g>
				</g>
			</g>
		</g>
		<g>
			<g>
				<g>
					<defs>
						<circle id="SVGID_00000154428406885290068940000003752776161207688619_" cx="106.3" cy="128.2" r="87.3"/>
					</defs>
					<clipPath id="SVGID_00000030457191053232586230000003472653503187153540_">
						<use xlink:href="#SVGID_00000154428406885290068940000003752776161207688619_"  style="overflow:visible;"/>
					</clipPath>
					<g style="clip-path:url(#SVGID_00000030457191053232586230000003472653503187153540_);">
						<g>
							<path class="st22" d="M64.8,182.9c0.3,0.1,0.4,0.5,0.3,0.8s-0.5,0.4-0.8,0.3s-0.4-0.5-0.3-0.8S64.5,182.7,64.8,182.9z"/>
						</g>
					</g>
				</g>
			</g>
		</g>
		<g>
			<g>
				<g>
					<defs>
						<circle id="SVGID_00000173149882925045380510000007875362793168016571_" cx="106.3" cy="128.2" r="87.3"/>
					</defs>
					<clipPath id="SVGID_00000069383556367356739600000014776164921347169944_">
						<use xlink:href="#SVGID_00000173149882925045380510000007875362793168016571_"  style="overflow:visible;"/>
					</clipPath>
					<g style="clip-path:url(#SVGID_00000069383556367356739600000014776164921347169944_);">
						<g>
							<circle class="st22" cx="78.2" cy="169.7" r="0.6"/>
						</g>
					</g>
				</g>
			</g>
		</g>
		<g>
			<g>
				<g>
					<defs>
						<circle id="SVGID_00000075873805922827353060000015035641782327232921_" cx="106.3" cy="128.2" r="87.3"/>
					</defs>
					<clipPath id="SVGID_00000014631700115053790350000011377473677685518518_">
						<use xlink:href="#SVGID_00000075873805922827353060000015035641782327232921_"  style="overflow:visible;"/>
					</clipPath>
					<g style="clip-path:url(#SVGID_00000014631700115053790350000011377473677685518518_);">
						<g>
							<path class="st22" d="M30.9,153.1c0.3,0.1,0.4,0.5,0.3,0.8s-0.5,0.4-0.8,0.3c-0.3-0.1-0.4-0.5-0.3-0.8S30.6,153,30.9,153.1z"
								/>
						</g>
					</g>
				</g>
			</g>
		</g>
		<g>
			<g>
				<g>
					<defs>
						<circle id="SVGID_00000085962343465636325620000002290914308394681504_" cx="106.3" cy="128.2" r="87.3"/>
					</defs>
					<clipPath id="SVGID_00000031169216584685010660000007228546009632135587_">
						<use xlink:href="#SVGID_00000085962343465636325620000002290914308394681504_"  style="overflow:visible;"/>
					</clipPath>
					<g style="clip-path:url(#SVGID_00000031169216584685010660000007228546009632135587_);">
						<g>
							
								<linearGradient id="SVGID_00000088105065073259583930000004830839461276401583_" gradientUnits="userSpaceOnUse" x1="1917.0138" y1="634.3113" x2="1917.5277" y2="633.7972" gradientTransform="matrix(0.4324 -0.9017 -0.9017 -0.4324 -224.9458 2113.335)">
								<stop  offset="0" style="stop-color:#FFFFFF"/>
								<stop  offset="1" style="stop-color:#D0A4FC"/>
							</linearGradient>
							<path style="fill:url(#SVGID_00000088105065073259583930000004830839461276401583_);" d="M32.5,110c0.2,0.1,0.3,0.3,0.2,0.5
								s-0.3,0.3-0.5,0.2c-0.2-0.1-0.3-0.3-0.2-0.5S32.3,110,32.5,110z"/>
						</g>
					</g>
				</g>
			</g>
		</g>
		<g>
			<g>
				<g>
					<defs>
						<circle id="SVGID_00000021077836320523769200000009120627222967341738_" cx="106.3" cy="128.2" r="87.3"/>
					</defs>
					<clipPath id="SVGID_00000108280336303238274630000011923014238762166660_">
						<use xlink:href="#SVGID_00000021077836320523769200000009120627222967341738_"  style="overflow:visible;"/>
					</clipPath>
					<g style="clip-path:url(#SVGID_00000108280336303238274630000011923014238762166660_);">
						<g>
							
								<linearGradient id="SVGID_00000016782768146764507420000007216717141413465774_" gradientUnits="userSpaceOnUse" x1="1930.1271" y1="622.739" x2="1930.6412" y2="622.225" gradientTransform="matrix(0.4324 -0.9017 -0.9017 -0.4324 -224.9458 2113.335)">
								<stop  offset="0" style="stop-color:#FFFFFF"/>
								<stop  offset="1" style="stop-color:#D0A4FC"/>
							</linearGradient>
							<path style="fill:url(#SVGID_00000016782768146764507420000007216717141413465774_);" d="M48.6,103.2
								c0.2,0.1,0.3,0.3,0.2,0.5s-0.3,0.3-0.5,0.2c-0.2-0.1-0.3-0.3-0.2-0.5C48.2,103.2,48.4,103.1,48.6,103.2z"/>
						</g>
					</g>
				</g>
			</g>
		</g>
		<g>
			<g>
				<g>
					<defs>
						<circle id="SVGID_00000052071235989005280990000000819188047706076059_" cx="106.3" cy="128.2" r="87.3"/>
					</defs>
					<clipPath id="SVGID_00000114759918308491180510000005829677805412165032_">
						<use xlink:href="#SVGID_00000052071235989005280990000000819188047706076059_"  style="overflow:visible;"/>
					</clipPath>
					<g style="clip-path:url(#SVGID_00000114759918308491180510000005829677805412165032_);">
						<g>
							
								<linearGradient id="SVGID_00000171688120955206340910000010912106518082636735_" gradientUnits="userSpaceOnUse" x1="1923.2518" y1="590.7281" x2="1924.1083" y2="589.8715" gradientTransform="matrix(0.4324 -0.9017 -0.9017 -0.4324 -224.9458 2113.335)">
								<stop  offset="0" style="stop-color:#FFFFFF"/>
								<stop  offset="1" style="stop-color:#D0A4FC"/>
							</linearGradient>
							<circle style="fill:url(#SVGID_00000171688120955206340910000010912106518082636735_);" cx="74.6" cy="123.5" r="0.6"/>
						</g>
					</g>
				</g>
			</g>
		</g>
		<g>
			<g>
				<g>
					<defs>
						<circle id="SVGID_00000114058147154442987900000008997923168722516629_" cx="106.3" cy="128.2" r="87.3"/>
					</defs>
					<clipPath id="SVGID_00000048498573350523207340000011230860658655784125_">
						<use xlink:href="#SVGID_00000114058147154442987900000008997923168722516629_"  style="overflow:visible;"/>
					</clipPath>
					<g style="clip-path:url(#SVGID_00000048498573350523207340000011230860658655784125_);">
						<g>
							<ellipse class="st22" cx="81.4" cy="149.6" rx="0.6" ry="0.6"/>
						</g>
					</g>
				</g>
			</g>
		</g>
		<g>
			<g>
				<g>
					<defs>
						<circle id="SVGID_00000052073046055193510860000009093748447884718742_" cx="106.3" cy="128.2" r="87.3"/>
					</defs>
					<clipPath id="SVGID_00000181798583785660359130000002163020972542008762_">
						<use xlink:href="#SVGID_00000052073046055193510860000009093748447884718742_"  style="overflow:visible;"/>
					</clipPath>
					<g style="clip-path:url(#SVGID_00000181798583785660359130000002163020972542008762_);">
						<g>
							<circle class="st22" cx="44.7" cy="183.5" r="0.6"/>
						</g>
					</g>
				</g>
			</g>
		</g>
		<g>
			<g>
				<g>
					<defs>
						<circle id="SVGID_00000121244181706355609240000010890427058640766862_" cx="106.3" cy="128.2" r="87.3"/>
					</defs>
					<clipPath id="SVGID_00000001656373634519697910000016002612010670557313_">
						<use xlink:href="#SVGID_00000121244181706355609240000010890427058640766862_"  style="overflow:visible;"/>
					</clipPath>
					<g style="clip-path:url(#SVGID_00000001656373634519697910000016002612010670557313_);">
						<path class="st0" d="M47.8,146.9c0.3-5.3-1.5-11.5-4.4-14.5l0,0l-0.1-0.1l0,0l-0.1-0.1l0,0l-0.1-0.1l0,0L43,132l-0.1,0.1l0,0
							l-0.1,0.1l0,0l-0.1,0.1l0,0l-0.1,0.1l0,0c-2.9,2.9-5,9-4.9,14.4l-2.7,3.7c-0.3,0.5-0.5,1-0.3,1.6l1.2,5.3
							c0,0.2,0.2,0.2,0.4,0.1l4.1-3.6v1.1c0,0,0,0.1,0.1,0.1h1.6v3.1c0,0.4,0.3,0.8,0.8,0.8c0.4,0,0.8-0.3,0.8-0.7l0.1-3.1h1.6
							c0,0,0.1,0,0.1-0.1V154h-1.6l0,0h1.6l4,3.8c0.1,0.1,0.3,0.1,0.4-0.1l1.4-5.2c0.1-0.5,0-1.1-0.3-1.6L47.8,146.9z M41.6,153.8
							H40l0,0H41.6L41.6,153.8z"/>
					</g>
				</g>
			</g>
		</g>
		<g>
			<g>
				<g>
					<defs>
						<circle id="SVGID_00000130624356609498323750000012240108195598086057_" cx="106.3" cy="128.2" r="87.3"/>
					</defs>
					<clipPath id="SVGID_00000070090733662213265360000009454041122014965130_">
						<use xlink:href="#SVGID_00000130624356609498323750000012240108195598086057_"  style="overflow:visible;"/>
					</clipPath>
					<path style="clip-path:url(#SVGID_00000070090733662213265360000009454041122014965130_);fill:#CE6AE9;" d="M84.8,133.9
						l-0.2,0.4l-0.4-0.2h-0.1l0,0v0.1l0.4,0.2l-0.2,0.4v0.1l0,0h0.1l0.2-0.4l0.4,0.2h0.1l0,0v-0.1l-0.4-0.2L85,134
						C85,133.9,85,133.9,84.8,133.9L84.8,133.9C84.9,133.8,84.9,133.9,84.8,133.9z"/>
				</g>
			</g>
		</g>
		<g>
			<g>
				<g>
					<defs>
						<circle id="SVGID_00000012464429729335476670000015407586365087841433_" cx="106.3" cy="128.2" r="87.3"/>
					</defs>
					<clipPath id="SVGID_00000052079965804506572570000017893585127897703814_">
						<use xlink:href="#SVGID_00000012464429729335476670000015407586365087841433_"  style="overflow:visible;"/>
					</clipPath>
					<path style="clip-path:url(#SVGID_00000052079965804506572570000017893585127897703814_);fill:#CE6AE9;" d="M65,169.6l-0.2,0.4
						l-0.4-0.2h-0.1l0,0v0.1l0.4,0.2l-0.2,0.4v0.1l0,0h0.1l0.2-0.4l0.4,0.2h0.1l0,0v-0.1l-0.4-0.2l0.2-0.4
						C65.1,169.6,65.1,169.6,65,169.6L65,169.6C65,169.5,65,169.5,65,169.6z"/>
				</g>
			</g>
		</g>
		<g>
			<g>
				<g>
					<defs>
						<circle id="SVGID_00000137116158068866224390000004627807362447154613_" cx="106.3" cy="128.2" r="87.3"/>
					</defs>
					<clipPath id="SVGID_00000140716504808214595180000006394025965628663691_">
						<use xlink:href="#SVGID_00000137116158068866224390000004627807362447154613_"  style="overflow:visible;"/>
					</clipPath>
					<path style="clip-path:url(#SVGID_00000140716504808214595180000006394025965628663691_);fill:#FFFFFF;" d="M110.1,107.8
						l-0.2,0.4l-0.4-0.2h-0.1l0,0v0.1l0.4,0.2l-0.2,0.4v0.1l0,0h0.1l0.2-0.4l0.4,0.2h0.1l0,0v-0.1l-0.4-0.2L110.1,107.8
						C110.2,107.8,110.2,107.8,110.1,107.8L110.1,107.8C110.2,107.7,110.1,107.8,110.1,107.8z"/>
				</g>
			</g>
		</g>
		<g>
			<g>
				<g>
					<defs>
						<circle id="SVGID_00000043414827944162248710000000877785605750228641_" cx="106.3" cy="128.2" r="87.3"/>
					</defs>
					<clipPath id="SVGID_00000018949305954471968700000017568997891395399606_">
						<use xlink:href="#SVGID_00000043414827944162248710000000877785605750228641_"  style="overflow:visible;"/>
					</clipPath>
					<path style="clip-path:url(#SVGID_00000018949305954471968700000017568997891395399606_);fill:#FFFFFF;" d="M143.9,206.8
						c-4.9-1.8-10.2-2.1-15.3-1c-3.8,0.9-14.7,1.1-20-1.2c-6-2.6-9.3-7.1-10.9-9.9c-1.7-3-3.4-7.5-5.9-9.3c-2.9-2-6.8-1.8-12.6-0.1
						c-2.8,0.8-5.7,1.2-8.6,1c-7.8-0.4-16.4-5.5-22-12.8c-1.1-1.6-2.1-3.3-3-5.1l0,0c-1.5-3.8-2.3-7.8-2.3-11.6c0-0.3-0.4-0.3-0.5,0
						c0,0.2-0.1,0.4-0.1,0.7c-0.2,1.5-0.3,2.8-0.3,4.1c0.1,5,0.7,12.1,3.5,20.1c2.4,6.8,5.9,13.5,10.2,19.3
						c14.4,9.9,31.8,15.7,50.5,15.7c6.7,0,13.2-0.7,19.5-2.1c6.9-1.6,13.6-3.9,19.8-7L143.9,206.8z"/>
				</g>
			</g>
		</g>
	</g>
</g>
<g id="Moon">
	<g>
		
			<linearGradient id="SVGID_00000142141840316234187820000000248796472004708777_" gradientUnits="userSpaceOnUse" x1="38.3731" y1="-388.4017" x2="97.5449" y2="-441.1047" gradientTransform="matrix(1 0 0 -1 0 -342.1102)">
			<stop  offset="0" style="stop-color:#EAE5F2"/>
			<stop  offset="0.6053" style="stop-color:#FFFFFF"/>
		</linearGradient>
		<path style="fill-rule:evenodd;clip-rule:evenodd;fill:url(#SVGID_00000142141840316234187820000000248796472004708777_);" d="
			M33.7,72.4c0,18.8,15.2,34,34,34c16,0,29.4-11,33-25.8c0.6-2.6,1-5.4,1-8.2c0-1.2-0.1-2.5-0.2-3.7c-1.8-17-16.3-30.3-33.8-30.3
			C48.9,38.4,33.7,53.6,33.7,72.4z"/>
		<g class="st41">
			<path class="st42" d="M76.3,95.4c-0.4,0.9-0.7,1.7-1.4,2.5c-0.8,0.8-1.4,1-2.4,1.3c-0.6,0.2-0.7,0.4-1.5,0.4
				c-0.5,0-1.2-0.1-1.7,0c-1.1,0.2-1.7,1.2-2.9,1.3c-1.1,0.1-1.9-0.3-2.9-0.6c-0.9-0.3-2-0.7-2.9-1c-0.9-0.4-1.8-0.6-2.8-0.9
				c-1.1-0.3-1.6-1-2.9-0.7c-0.1,0.5,0,1.3-0.6,1.5c-0.4,0.2-1.1-0.3-1.5-0.4c-1.2-0.4-2.2-0.7-3.3-1.1c-0.5-0.2-0.9-0.2-1.5-0.6
				c-0.5-0.4-1.1-0.7-1.6-1c-1-0.7-2-1.4-3-2.1c-1.9-1.3-3.1-3.1-4.3-4.9c-0.6-1-1-2.1-1.3-3.2c-0.5-1.4-0.3-1.8,0.6-2.9
				c1.7,0.7,2.3-0.3,1.9-2.1c-0.4-1.6-0.6-3.6-0.2-5.3c0.1-0.3,0.3-0.5,0.3-0.9c0.1-0.5,0-0.8,0.1-1.2c0.2-0.7,0.3-1.3,0.3-2.1
				c0-0.8-0.1-1.7,0.1-2.5c0.1-0.5,0.3-0.7,0.3-1.2s-0.1-1,0.1-1.6c0.4-1.4,1.7-1.8,2.8-2.2c0.8-0.3,1.2-0.5,1.7,0
				c0.5,0.6,0.4,1.3,0.4,2.1c0,1.4-0.9,2.6-1.6,3.7c-0.3,0.5-0.9,1-0.9,1.7c0,0.4,0.5,0.4,0.5,0.8c0,0.5-0.5,0.6-0.8,0.9
				c-2,2.6,1.7,4.8,3.5,6.2c1,0.8,2.5,1.2,2.9,2.5c0.4,1.4-0.5,2.5-1,3.7s-1,3.4-0.2,4.5c0.3,0.5,1,0.8,1.4,1c0.7,0.3,1,0.8,1.6,1.2
				c1,0.8,2.3,1,3.6,0.9c0.8,0,1.4-0.4,2.1-0.8c0.5-0.3,1.2-1,1.7-1.1c0.4-0.1,0.7,0,1.2-0.1c0.6-0.1,0.7-0.3,1.2-0.4
				c0.9-0.2,1.5,0.4,2.2,0.7c0.6,0.3,1.3,0.7,2,0.5s1.5-0.6,2.1-0.8c1.6-0.3,4.1-0.4,5.4,0.6c0.6,0.5,0.9,1.3,1.4,1.9
				C75.1,94,76.1,94.1,76.3,95.4z"/>
			<path class="st42" d="M45,59.6c1.5,0,2.9-1.1,4.1-2c1-0.7,2.1-1.8,2.6-2.9c0.1-0.3,0.2-0.6,0.3-0.9c0-0.1,0.4-1.1,0.4-1.1
				c0-0.6-0.5-1.3-0.9-1.7c-1.2-1.3-3.1-0.4-4.3,0.4c-1.2,0.7-2.3,1.5-3.3,2.5c-0.5,0.5-1.1,0.9-1.5,1.4c-0.4,0.8-0.3,1.7-0.3,2.6
				c0,1.4-1.8,3,0.4,3.3c0.9,0.1,3.5-0.6,3.7-1.7H45V59.6z"/>
			<path class="st42" d="M72.2,103.6c0.4,0.4,0.8,0.1,1.2,0c0.4-0.1,0.8-0.2,1.2-0.2c0.9,0,1.7,0,2.6-0.2c0.8-0.2,1.6-0.3,2.4-0.5
				c0.3-0.1,0.6-0.2,0.9-0.3c0.2,0,0.4,0,0.6,0c0.1,0,0.1-0.1,0.2-0.1c0.2,0,0.3,0,0.5,0c0.8-0.1,1.5-0.4,2.2-0.6
				c0.3-0.1,0.6-0.1,0.9-0.3c0.3-0.2,0.7-0.4,1-0.6c1.1-0.8,2.3-1.5,3.3-2.5s1.9-1.8,2.9-2.7c0.2-0.2,0.4-0.5,0.7-0.7
				c0.3-0.2,0.5-0.3,0.8-0.6c0.5-0.5,0.9-1.1,1.3-1.7c0.8-1.2,1.9-2.1,2.5-3.4c0.3-0.6,0.6-1.2,1-1.8c0.2-0.4,0.5-0.8,0.6-1.2
				c0.1-0.3,0.4-0.7,0.5-1c0.1-0.4,0.1-0.9,0.2-1.3c0.1-0.2,0.2-0.3,0.2-0.5c0.1-0.2-0.1-0.5,0-0.7c0-0.2,0.2-0.3,0.2-0.5
				c0.1-0.2-0.1-0.5,0-0.7c0-0.2,0.2-0.3,0.2-0.5c0.1-0.3-0.1-0.6,0-0.8c0-0.2,0.2-0.3,0.2-0.5s0-0.5,0-0.7c0-0.5,0.2-0.9,0.2-1.4
				s0.1-1.1,0-1.6c0-0.2-0.2-0.3-0.2-0.5c-0.1-0.3,0.1-0.5,0-0.8c-0.6-0.1-0.4,1-0.4,1.3c0,0.5-0.2,0.8-0.2,1.3
				c0,0.6-0.2,0.7-0.6,1.2c-0.2,0.2-0.5,0.6-0.6,0.9c-0.1,0.2,0,0.5-0.1,0.6c-0.1,0.2-0.1,0.4-0.1,0.6c0,0.5,0,0.8-0.4,1.1
				c-0.3,0.2-0.7,0.5-1.1,0.6c-0.5,0.1-0.9,0.1-1.4,0.2c-0.2,0-0.3,0.2-0.5,0.2c-0.3,0.1-0.5-0.1-0.8,0c-0.2,0.1-0.5,0.6-0.6,0.8
				c-0.1,0.4,0,0.8,0.2,1.2c0.1,0.1,0.1,0.3,0.2,0.4c0.1,0.2,0.3,0.3,0.4,0.5c0.4,0.7-0.2,1.9-0.3,2.5c0-0.1-0.4,0.6-0.2,0.9
				s1.4,0,1.6-0.1c0.1,0.3-0.1,0.8-0.2,1c-0.1,0.3-0.2,0.8-0.4,1.1c-0.4,0.6-1,1.2-1.7,1.5c-0.4,0.2-0.7,0.3-0.7-0.2
				c0-0.3,0-0.4-0.1-0.6s-0.3-0.2-0.3-0.4c-0.1-0.2,0.1-0.5,0-0.7c0-0.2-0.2-0.3-0.2-0.4c-0.1-0.5,0.1-1,0-1.5
				c-0.2-1-0.9-1.4-1.8-1.6s-1.7-0.5-2.6-0.8c-0.9-0.4-1.9-0.6-2.9-0.3c-0.8,0.2-1.4,0.7-2.1,1.1c-0.3,0.2-0.6,0.3-1,0.4
				s-0.8,0.3-1.1,0.4c-0.7,0.2-1.5,0.3-2.1,0.7C77.8,89,77,89.4,76.6,90c-0.4,0.5-0.8,1.7-0.5,2.4c0.2,0.5,1,1,1.4,1.4
				c0.6,0.7,0.5,1.2,0,2c-0.2,0.3-0.5,0.7-0.5,0.9c-0.1,0.4,0,1,0,1.4s0.1,0.7,0.4,1c0.2,0.3,0.7,0.5,0.8,0.8c0.2,0.3,0,0.4-0.1,0.6
				c0,0.1-0.1,0.1-0.2,0.1c-0.1,0.1,0,0.3-0.1,0.4c-0.2,0.5-0.6,0.4-1,0.5s-0.8,0.1-1.2-0.1c-0.2-0.1-0.3-0.2-0.6-0.2
				c-0.3,0-0.5,0.1-0.7,0.2c-0.5,0.1-0.8-0.2-1.3-0.3c-0.4,0-0.7,0.2-1,0.5s-0.6,0.7-0.6,1.1C71.4,103,71.9,103.3,72.2,103.6z"/>
			<path class="st42" d="M76.1,88.2c-0.1-0.1-0.2-0.1-0.4-0.2c-0.3,0.4-0.7,0.7-1.1,1c-0.6,0.4-0.9,0.1-1-0.5
				c-0.1-0.3,0.1-0.5,0.2-0.8s0-0.6,0.3-0.7c0.4-0.2,1.6-0.1,1.4,0.6L76.1,88.2z"/>
			<path class="st42" d="M95.9,61.6c0.1,0.2,0.2,0.2,0.4,0.2c0.1-0.4,0.1-0.9,0-1.3c0-0.2-0.2-0.3-0.2-0.5s0-0.4,0-0.6
				c-0.1-0.3-0.3-0.7-0.3-0.9c-0.1-0.4-0.1-0.6-0.3-1c-0.1-0.3-0.2-0.8-0.4-1.1c-0.1-0.3-0.3-0.6-0.5-0.9c-0.4-0.6-0.7-1.2-1.1-1.9
				c-0.7-1.1-1.5-2.2-2.5-3.1c-0.4-0.3-0.8-0.5-1.1-0.8c-0.1-0.1-0.2-0.2-0.3-0.3c-0.1-0.1-0.3-0.1-0.4-0.2C88.9,49,88,48,87.5,48.3
				c0.3,0.8,0.8,1.5,1.2,2.3c0.4,0.9,1.2,0.8,1.8,1.4c1,1-0.7,1.4-1.2,1.7c-0.6,0.4-0.6,0.9-0.6,1.5s0,1-0.2,1.5
				c-0.1,0.2-0.2,0.5-0.2,0.7c0,0.1,0,0.3,0,0.4c0,0.1-0.1,0.2-0.2,0.2c-0.1,0.6,0.1,0.9,0.3,1.4c0.2,0.5,0.3,1,0.7,1.3
				c0.4,0.4,0.9,0.2,1.4,0.3c0.3,0,0.5-0.1,0.8-0.2c0.2,0,0.5-0.2,0.7-0.2s0.5,0,0.7-0.1c0.3-0.1,0.3-0.2,0.6-0.1
				c0.4,0.1,0.7,0.5,1.1,0.6c0.5,0.1,1.1-0.1,1.6,0C96.1,61.3,96.1,61.4,95.9,61.6z"/>
			<path class="st42" d="M57.4,87.9c0.6,0,1.4,0.7,1.7,1.2c0.5,0.7-0.4,1.4-0.9,1.8c-0.2,0.1-0.4,0.3-0.6,0.4
				c-0.1,0-0.4,0.2-0.5,0.2c-0.4,0-0.5-0.9-0.6-1.2c-0.4-0.9,0.3-1.6,0.9-2.1L57.4,87.9L57.4,87.9z"/>
			<path class="st42" d="M54.4,89.3L54.4,89.3c0.3-0.3,0-0.8-0.1-1.2c-0.3,0-0.9,0.5-0.9,0.8C53.4,89.4,54.1,89.4,54.4,89.3
				L54.4,89.3z"/>
			<path class="st42" d="M49.1,69.3c0.2-0.7,1.2,0.1,1.5,0.3c0.2,0.2,0.4,0.4,0.5,0.6c0.2,0.3,0.1,0.7,0.1,1c0,0.4,0.2,0.7,0.2,1.1
				s0,0.8-0.2,1.2C51,74.1,50.5,74.6,50,75c-0.3,0.2-0.6,0.3-0.9,0.5c-0.4,0.2-0.4,0.3-0.8,0.1c-0.5-0.2-1-0.5-1.4-0.9
				c-0.4-0.5-0.9-0.9-1.2-1.4c-0.4-0.7,0-1.2,0.4-1.8c0.4-0.7,1.1-1.3,1.6-2c0.2-0.2,0.4-0.5,0.6-0.6C48.7,68.7,49.1,69,49.1,69.3z"
				/>
			<path class="st42" d="M49.2,66.6L49.2,66.6c0.1-0.2,0.5-0.8,0.3-1c-0.2-0.1-0.5,0.3-0.7,0.4c-0.2,0.2-0.4,0.7-0.1,1
				c0.3,0.3,0.8,0,0.7-0.4H49.2L49.2,66.6z"/>
			<path class="st42" d="M56,100.2c0.2-0.2,0.8-0.4,1.2-0.3s0.7,0.2,1.1,0.3c0.8,0.1,1.7,0.5,2.4,0.9c1,0.6,2.6,2.3,1,3.1
				c-0.7,0.3-1.5,0.3-2.3,0.3c-0.4,0-0.6-0.2-1-0.2s-0.8-0.1-1.2-0.2c-0.7-0.2-1.3-0.4-2-0.7c-0.6-0.2-1-0.7-1.5-1.1
				c-0.6-0.6-0.7-1.3-0.1-1.9c0.3-0.3,0.6-0.3,1.1-0.3C55.2,100.2,55.7,100.2,56,100.2z"/>
			<path class="st42" d="M51.8,99.9c0.1,0.1,0.2,0.2,0.3,0.1c0.2-0.3-0.7-0.9-0.9-1c-0.4-0.2-1.2-0.6-1.4,0c-0.1,0.4,0.4,1,0.8,1.2
				c0.4,0.2,1.3,0,1.4-0.5L51.8,99.9z"/>
			<path class="st42" d="M39.1,70.9L39.1,70.9c0.3,0.6,0,1.2,0,1.8c0,0.6,0,1.2,0,1.8c0,0.6,0,1.2,0,1.8c0,0.2,0,0.5,0,0.7
				c0,0.1-0.1,0.2-0.1,0.3c0,0.2,0,0.4,0,0.6c0,0.3,0,0.6,0,0.9l-0.1,0.3c-0.1,0.2,0,0.2-0.1,0.3c-0.3,0.4-0.8,0.7-1.3,0.5
				c-0.4-0.2-0.7-0.5-1.1-0.7c-0.6-0.2-0.8-0.5-1.1-1.1c-0.2-0.4-0.3-0.9-0.5-1.4c0-0.1-0.1-0.2-0.2-0.3c0-0.1,0-0.3,0-0.4
				s-0.1-0.2-0.1-0.3c0-0.1,0-0.2,0-0.3c0-0.1-0.1-0.1-0.1-0.2c-0.1-0.2,0-0.5,0-0.7c0-0.3-0.1-0.6-0.2-0.9c0-0.3-0.2-0.6-0.2-0.9
				s0-0.6,0-0.9c0-0.6,0-1.2,0-1.8c0-0.3,0.1-0.5,0.2-0.8c0.1-0.3,0.1-0.6,0.1-0.9c0-0.2,0.2-0.4,0.3-0.6c0.1-0.3,0.1-0.5,0.3-0.7
				c0.3-0.5,0.5-0.7,1.1-1c0.5-0.2,1.2-0.1,1.7,0.2c0.2,0.1,0.4,0.4,0.5,0.6c0,0.1,0,0.3,0,0.4c0,0.2,0.1,0.3,0.1,0.5
				c0,0.6-0.1,1.4,0,2c0.1,0.3,0.3,0.6,0.4,0.9C38.8,71.1,38.8,71.4,39.1,70.9z"/>
			<path class="st42" d="M39.8,63c0.4-0.1,0.6,0.8,0.6,1.1c0,0.2,0.1,0.5-0.1,0.7c-0.1,0.1-0.6,0.1-0.8,0.1C39,64.8,39,64.1,39,63.7
				c0-0.4,0.4-1,0.9-0.9L39.8,63z"/>
			<path class="st42" d="M92.6,62.4L92.6,62.4c0.2-0.1,0.2-0.2,0.4-0.3c0.2,0,0.4,0,0.5,0c0.4,0,0.6-0.1,0.9-0.2c0.2,0,0.4,0,0.5,0
				c0.2,0,0.3,0.1,0.4,0.1c0.3,0.1,0.6,0,0.9,0.3c0.5,0.3,0.8,0.9,1.1,1.4c0.3,0.6,0.6,1.2,0.6,1.9c0,0.3,0,0.6-0.2,0.8
				c-0.2,0.3-0.3,0.5-0.4,0.7C97,67.8,96.8,68,96,68c-0.7,0-1.3-0.4-1.8-0.7c-0.3-0.1-0.5-0.4-0.7-0.5s-0.4-0.2-0.6-0.5
				c-0.4-0.5-0.5-1.2-0.6-1.8c-0.1-0.3-0.1-0.8-0.1-1.1c0-0.1,0.1-0.1,0.1-0.1c0-0.1,0-0.2,0-0.4C92.5,62.8,92.6,62.6,92.6,62.4z"/>
			<path class="st42" d="M90.9,63.6c0.4,0-0.1-1.1-0.6-1c-0.4,0-0.7,0.7-0.8,1c-0.4,1.4,1.7,1.5,1.7,0.2L90.9,63.6z"/>
			<path class="st42" d="M85.8,66.1c0,0.3,0.4,0.5,0.4,0.8c0.1,0.3-0.1,0.5-0.2,0.8c-0.1,0.2-0.4,0.5-0.7,0.4
				c-0.3-0.1-0.4-0.4-0.6-0.6c-0.4-0.3-1.1-0.6-0.6-1.2c0.2-0.2,0.5-0.3,0.8-0.4c0.5-0.1,0.7,0.1,1,0.3L85.8,66.1z"/>
			<path class="st42" d="M96.4,79.8c0.6,0.1,0.5-0.7,0.4-1.1c-0.2,0-0.5-0.2-0.7-0.2s-0.7,0.2-0.9,0.4c-0.4,0.3-0.7,0.8-0.4,1.3
				c0.2,0.3,0.9,0.8,1.3,0.6c0.3-0.2,0.5-1,0.5-1.4L96.4,79.8z"/>
			<path class="st42" d="M53.1,46.7c0.1-0.3,0.2-0.4,0-0.6c-0.2-0.2-0.5-0.2-0.7-0.1c-0.4,0.1-0.7,0.6-1,0.8
				C51.3,47,51,47.3,51,47.5s0.1,0.4,0.2,0.6c0.2,0.3,0.6,0.6,0.9,0.9c0.4,0.5,0.7,0.2,1.1-0.2c0.3-0.3,0.5-0.7,0.8-1.1
				c0.1-0.1,0.3-0.5,0.3-0.6c0-0.2-0.1-0.4-0.2-0.6c-0.3-0.3-0.8-0.8-1.2-0.9L53.1,46.7z"/>
			<path class="st42" d="M49.4,47.9L49.4,47.9c0.2,0.4,0.1,0.7-0.3,0.7c-0.4,0.1-0.9-0.1-0.9-0.4c-0.1-0.3,0.2-0.6,0.5-0.8
				c0.4-0.3,0.7-0.3,0.8,0.2L49.4,47.9L49.4,47.9z"/>
			<path class="st42" d="M51.7,87.3c0,0.2,0.1,0.6,0.2,0.7c0.1,0.2,0.2,0.5,0.3,0.7s0.2,0.5,0.2,0.8c0.1,0.3,0.2,0.5,0.2,0.8
				c0.1,0.6-0.6,1-1.1,0.9s-0.9-0.5-1.3-0.7c-0.3-0.2-0.3-0.1-0.5-0.5c-0.1-0.3-0.2-0.5-0.3-0.8s-0.2-0.4-0.2-0.8c0-0.3,0-0.6,0-0.9
				c0.4-1.4,1.9-0.5,2.3,0.5L51.7,87.3L51.7,87.3z"/>
			<path class="st42" d="M47.1,97.3c0.2-0.5-0.9-0.9-1.2-0.9c-0.4,0-0.5,0-0.7,0.4c-0.1,0.3-0.2,0.6,0,0.9c0.3,0.5,1.2,0.7,1.8,0.5
				c0.6-0.3,0.4-1.1-0.2-1.2L47.1,97.3z"/>
			<path class="st42" d="M53.7,86.2c0.2,0,0.4-0.3,0.5-0.5c0-0.1,0-0.3,0-0.4s0.1-0.2,0.1-0.3c0-0.1,0-0.3,0-0.5s0.1-0.3,0.2-0.5
				c0.1-0.3-0.1-0.6,0-0.9c0-0.3,0.3-0.6,0.1-0.9C54.4,82,54.1,82,53.9,82c-0.3,0-0.5,0.1-0.8,0.2s-0.7,0.2-1,0.4
				c-0.4,0.3-0.9,0.6-1,1.1s0,1.3,0.1,1.8c0.1,0.4,0.3,0.9,0.7,1.2s1.3,0.1,1.7-0.1L53.7,86.2z"/>
			<path class="st42" d="M50.1,85.9L50.1,85.9c0.1,0.6-0.7,0.6-0.9,0s0.8-0.8,0.9-0.2V85.9z"/>
		</g>
	</g>
</g>
<g id="Dogeone">
	<g>
		<g>
			<path class="st43" d="M170.7,167.6c-1.4-2-2.9-3.3-5.6-3.9c-0.1,0-0.1-0.2,0-0.2c0.8-0.1,1.6-0.2,2.4-0.2c0.1,0,0.2-0.1,0.1-0.2
				c-0.7-0.4-1.6-0.7-2.6-0.7c-0.1,0-0.1-0.1,0-0.2l0,0l0,0c2.5-0.9,2.9-3.2,2.9-5.3c0-0.1-0.1-0.1-0.2-0.1c-4.8,5-7.2,2.7-11.3,1.6
				l0,0l-2.7,0.6c0,0,0,0-0.1,0c-2.9-1.4-8.9-2.3-11.7,0.5c-0.1,0.1-0.2,0-0.2-0.1c0.1-0.5,0.2-1.1,0.4-1.6c0-0.1-0.1-0.2-0.2-0.1
				c-0.8,0.6-1.7,1.2-2.3,2c-0.1,0.1-0.2,0-0.2-0.1c0-0.6,0.1-1.2,0.1-1.8c0-0.1-0.1-0.1-0.2-0.1c-0.8,0.9-1.1,1.6-1.4,2.6
				c0,0.1-0.2,0.1-0.2,0c-0.5-1-2.4-1.4-3.6-1.5c-0.1,0-0.2,0.1-0.1,0.2c0.4,0.3,0.8,0.8,1,1.3c0,0.1-0.1,0.2-0.2,0.1
				c-1.4-1.2-4.9-0.5-6.9,0.2c-0.1,0-0.1,0.2,0,0.2c1.3,0.1,2.7,0.4,3.7,1c0,0,0.1,0.1,0,0.1v0.1c0,0.1-0.1,0.1-0.1,0.1
				c-2-0.4-5.1,0.7-6.7,1.4c-0.9,0.4-1.7,0.9-2.4,1.3c-0.1,0.1,0,0.2,0.1,0.2c1.7-0.5,3.8-0.6,5,0.2c0.1,0.1,0,0.2-0.1,0.2
				c-2.8-0.3-6.2,2.1-8.7,3.5c-0.1,0-0.1,0.2,0,0.2c1,0.1,2.1,0.5,2.5,1.3v0.1l-5.1,4.4l0,0c-0.7,1.8-2,3.5-2.9,5.3
				c-0.5,1-0.8,2.3-1.8,3.1s-2.3,1.3-3.6,1.3c-0.1,0-0.1,0.2,0,0.2c2.4,1,6.1,1.6,7.6-1.2l0,0l0.2-0.3c-1.4,2.8-2.9,5.4-1.8,8.5
				c0.6,1.5,1.6,3.2,3,4.1c0.1,0.1,0.2,0,0.1-0.1c-1-2-1.1-5.1,0.1-7.2c0.1-0.1,0.2-0.1,0.2,0.1c-0.1,3.6,0.4,5.4,1.4,8.8l0,0
				c-0.5,5.4,1.6,9.6,7.4,11.7c0.1,0,0.2-0.1,0.1-0.2c-1.3-1.2-1.3-2.3-1.4-3.7c-0.1-1.6-1.2-2.9-2.8-3.2l0,0c0.4,1.1,1.1,2.1,2,3
				l-0.1-0.2c1.1,2.2,3,3.9,5.8,4.5h0.1l0,0h0.1c2.9,2.5,7,3.6,11.8,2.7c0.1,0,0.1-0.2,0-0.2c-3.8-0.3-6.1-2-8.1-4.8
				c-0.2-0.3-0.4-0.7-0.6-1.1l0,0c2.4,2.5,5.4,4.3,9.1,4.4l0,0c1.9,1.2,5.1,1,7.4,1.5c3.2,0.8,6.7,2.4,7.5,5.4c0,0.1,0.2,0.1,0.2,0
				c0.1-0.7,0.1-1.4,0.1-2l0,0h0.1c1.7-2.1,0.8-4.9-0.8-6.5c-0.1-0.1,0-0.2,0.1-0.2c1.4,0.4,2.5,1.2,3.2,2.3c0.1,0.1,0.2,0.1,0.2,0
				c0.4-4.7,5.1-9.9,2.5-14.2c-0.1-0.1,0.1-0.2,0.2-0.1c1.2,1,1.9,2.2,2,3.8c0,0.1,0.1,0.1,0.2,0l0.2-0.5l0,0c0.5-2.6,2.1-5,3.5-7.3
				c0,0,0,0,0.1,0h0.1c0,0,0.1,0,0.1-0.1c0.7-2.3,6.1-8.9,6.9-11.4c0.9-3.7-2.9-2.6-5.4-5.2c-0.4-0.5-0.9-0.9-1.5-1.3
				c-0.1-0.1,0-0.2,0.1-0.2c1.6,0.2,2.9,1.3,3.8,2.4c0.1,0.1,0.2,0,0.2-0.1c-0.2-1.3-0.4-2.7-1-3.7c-0.3-0.4-0.6-0.8-1.1-1.2h0.1
				c-0.8-2.1-2.2-4.1-4.7-4.7l0,0l-0.3-0.2c-0.1-0.1-0.1-0.2,0.1-0.2c1.5,0,2.9,0.5,4.2,1.1C170.7,167.8,170.8,167.7,170.7,167.6z"
				/>
			<path class="st44" d="M176.2,181c-0.7,2.5-6.2,9.1-6.9,11.4c0,0,0,0.1-0.1,0.1h-0.1H169c-1.4,2.4-3,4.7-3.5,7.3l0,0l-0.2,0.5
				c0,0.1-0.2,0.1-0.2,0c-0.1-1.5-0.8-2.7-2-3.8c-0.1-0.1-0.2,0-0.2,0.1c1.7,2.8,0.3,6-1,9.2c-2.9-27.3-30.7-19.5-30.7-19.5
				l1.5-26.4c0.9,0,1.8,0.2,2.3,0.7c0.1,0.1,0.2,0,0.2-0.1c-0.2-0.5-0.6-1-1-1.3c-0.1-0.1,0-0.2,0.1-0.2c1.2,0.1,3.2,0.6,3.6,1.5
				c0,0.1,0.2,0.1,0.2,0c0.3-1,0.5-1.8,1.4-2.6c0.1-0.1,0.2,0,0.2,0.1c0,0.6-0.1,1.2-0.1,1.8c0,0.1,0.1,0.1,0.2,0.1
				c0.6-0.9,1.4-1.5,2.3-2c0.1-0.1,0.2,0,0.2,0.1c-0.2,0.5-0.3,1.1-0.4,1.6c0,0.1,0.1,0.2,0.2,0.1c2.8-2.8,8.8-1.9,11.7-0.5
				c0,0,0,0,0.1,0l2.7-0.6l0,0c4.1,1.1,6.5,3.4,11.3-1.6c0.1-0.1,0.2,0,0.2,0.1c-0.1,2.1-0.5,4.4-2.9,5.3l0,0
				c-0.1,0.1-0.1,0.2,0,0.2c0.9,0,1.9,0.3,2.6,0.7c0.1,0.1,0,0.2-0.1,0.2c-0.8-0.1-1.6,0-2.4,0.2c-0.1,0-0.1,0.2,0,0.2
				c2.7,0.6,4.2,1.9,5.6,3.9c0.1,0.1,0,0.2-0.1,0.2c-1.3-0.6-2.7-1.1-4.2-1.1c-0.1,0-0.2,0.1-0.1,0.2l0.3,0.2l0,0
				c2.5,0.6,3.9,2.6,4.7,4.7h-0.1c0.4,0.4,0.8,0.8,1.1,1.2c0.7,1,0.8,2.4,1,3.7c0,0.1-0.1,0.2-0.2,0.1c-0.9-1-2.3-2.1-3.8-2.4
				c-0.1,0-0.2,0.1-0.1,0.2c0.6,0.4,1.1,0.8,1.5,1.3C173.3,178.4,177.1,177.3,176.2,181z"/>
		</g>
		
			<linearGradient id="SVGID_00000024712439609576188890000005312497557382860161_" gradientUnits="userSpaceOnUse" x1="139.2112" y1="-424.2527" x2="150.0906" y2="-436.5088" gradientTransform="matrix(0.9987 -5.005784e-02 -5.005784e-02 -0.9987 -56.6946 -232.3437)">
			<stop  offset="0" style="stop-color:#625958"/>
			<stop  offset="0.1453" style="stop-color:#524949"/>
			<stop  offset="0.3463" style="stop-color:#433B3B"/>
			<stop  offset="0.5863" style="stop-color:#3B3333"/>
			<stop  offset="0.9637" style="stop-color:#383031"/>
		</linearGradient>
		<path style="fill:url(#SVGID_00000024712439609576188890000005312497557382860161_);" d="M119,197.4c0-0.1-0.1-0.1-0.2-0.2l0,0
			c-0.1-0.2-0.3-0.4-0.5-0.6c0,0,0,0-0.1-0.1c-0.1-0.2-0.3-0.4-0.5-0.6c0,0,0-0.1-0.1-0.1l-0.1-0.1l0,0l-0.1-0.1
			c-0.1-0.1-0.2-0.2-0.2-0.3l-0.1-0.1c-0.4-0.4-0.8-0.8-1.3-1.2c-0.1-0.1-0.1-0.1-0.2-0.2c-0.6-0.6-1.4-1.1-2.2-1.7
			c0,0-0.1-0.1-0.2-0.1c-0.1-0.1-0.3-0.2-0.4-0.3l-0.1-0.1c-1-0.6-2.1-1.2-3.3-1.7c-0.1,0-0.1,0-0.2-0.1c-0.2-0.1-0.3-0.1-0.5-0.2
			c-0.1,0-0.1,0-0.2-0.1c-0.1,0-0.1,0-0.2-0.1c-0.1,0-0.2-0.1-0.3-0.1c-0.1,0-0.1,0-0.2-0.1c-0.1,0-0.1,0-0.2-0.1
			c-0.1,0-0.2,0-0.2-0.1c-0.1,0-0.1,0-0.2,0c-0.5-0.1-1.1-0.2-1.7-0.3h-0.1c-0.3,0-0.6-0.1-0.9-0.1c0.3-0.5,0.6-1,0.8-1.5l0,0
			C109.2,188.2,114.2,190.8,119,197.4z"/>
		<path class="st43" d="M118.8,197.2c-0.1-0.2-0.3-0.4-0.5-0.6c0,0,0,0-0.1-0.1c-0.1-0.2-0.3-0.4-0.5-0.6c0,0,0-0.1-0.1-0.1
			l-0.1-0.1l0,0l-0.1-0.1c-0.1-0.1-0.2-0.2-0.2-0.3l-0.1-0.1c-0.4-0.4-0.8-0.8-1.3-1.2c-0.1-0.1-0.1-0.1-0.2-0.2
			c-0.6-0.6-1.4-1.1-2.2-1.7c0,0-0.1-0.1-0.2-0.1c-0.1-0.1-0.3-0.2-0.4-0.3l-0.1-0.1c-1-0.6-2.1-1.2-3.3-1.7c-0.1,0-0.1,0-0.2-0.1
			c-0.2-0.1-0.3-0.1-0.5-0.2c-0.1,0-0.1,0-0.2-0.1c-0.1,0-0.1,0-0.2-0.1c-0.1,0-0.2-0.1-0.3-0.1c-0.1,0-0.1,0-0.2-0.1
			c-0.1,0-0.1,0-0.2-0.1c-0.1,0-0.2,0-0.2-0.1c-0.1,0-0.1,0-0.2,0c-0.5-0.1-1.1-0.2-1.7-0.3h-0.1c-0.3,0-0.6-0.1-0.9-0.1
			c0.3-0.5,0.6-1,0.8-1.5C109.2,188.2,114,190.7,118.8,197.2z"/>
		
			<radialGradient id="SVGID_00000052085242470401203350000014325309101371486120_" cx="117.8545" cy="-360.3581" r="53.202" gradientTransform="matrix(0.9987 -5.005784e-02 -5.005784e-02 -0.9987 -56.6946 -232.3437)" gradientUnits="userSpaceOnUse">
			<stop  offset="0" style="stop-color:#98CDE6"/>
			<stop  offset="0.338" style="stop-color:#909EC7"/>
			<stop  offset="1" style="stop-color:#863693"/>
		</radialGradient>
		<path style="opacity:0.3;fill:url(#SVGID_00000052085242470401203350000014325309101371486120_);enable-background:new    ;" d="
			M168.5,153c13.8-27.5,7.4-58.8-12.1-73.9c-26.3-20.4-71-6.8-85.8,24.9c-11.5,24.7-3.2,56.7,21.4,75.2c0.6,0.4,1.4,0.3,1.8-0.2
			c4.9-5.9,16.7-18.1,36-24.2C147,149.4,161.6,151.5,168.5,153z"/>
		
			<linearGradient id="SVGID_00000128486853764124985880000012651766635531328652_" gradientUnits="userSpaceOnUse" x1="144.0847" y1="-343.4728" x2="195.4865" y2="-400.4482" gradientTransform="matrix(0.9987 -5.005784e-02 -5.005784e-02 -0.9987 -56.6946 -232.3437)">
			<stop  offset="0" style="stop-color:#FFFFFF"/>
			<stop  offset="1" style="stop-color:#9680AC"/>
		</linearGradient>
		<path style="fill:url(#SVGID_00000128486853764124985880000012651766635531328652_);" d="M95,176.9c1.4-1.6,1.9-3.9,1.3-6
			c-2.9-9.3-8.2-31.9,3.1-54.7c9.4-19,33.5-44.7,61.7-37.9c24.8,5.9,39.4,33.5,37.8,57.5c-1.1,16.2-9.4,27.9-14.6,33.9
			c-1.6,1.8-4.1,2.6-6.5,1.8c-9.9-3-35-8.6-57.2,5.2c-5.3,3.3-9.5,7.1-12.9,10.9c-2.1,2.4-5.7,2.8-8.3,0.9c-1.2-0.9-2.3-1.7-3.5-2.6
			C93,183.8,92.5,179.6,95,176.9L95,176.9z"/>
		<g>
			<path class="st48" d="M185.4,178.1c-0.6,1.9-2.4,3.4-4.7,3.2c-14.5-1.3-25.5-0.2-33.6,2.2c-5.7,1.7-10.1,4.2-13.2,7
				c0,0-15.2,11.1-24.6,9.3c-0.4-0.1-1.1-0.2-1.9-0.5c-1.1-0.4-2.3-1.1-3.2-2.3c-2.3-3.1-0.9-6.8-0.8-7c2.5-7.5,6.5-10.6,9.2-12.8
				c23.8-19.7,61.5-9.5,67.4-6.7c1.7,0.8,2.3,1.1,3.3,2c0.7,0.6,1.3,1.4,1.8,2.4c0,0.1,0.1,0.1,0.1,0.2
				C185.7,176.1,185.7,177.2,185.4,178.1z"/>
			<path class="st49" d="M185.4,178.1c-0.6,1.9-2.4,3.4-4.7,3.2c-14.5-1.3-25.5-0.2-33.6,2.2c-5.7,1.7-10.1,4.2-13.2,7
				c0,0-15.2,11.1-24.6,9.3c-0.4-0.1-1.1-0.2-1.9-0.5c0.1-1.2,0.4-2,0.5-2.2c2.5-7.5,6.5-10.6,9.2-12.8c23.8-19.7,61.5-9.5,67.4-6.7
				C184.9,177.9,185.2,178,185.4,178.1z"/>
		</g>
		<g>
			
				<linearGradient id="SVGID_00000174563198867139625680000012474791233644257958_" gradientUnits="userSpaceOnUse" x1="129.8233" y1="-366.7021" x2="214.3516" y2="-366.7021" gradientTransform="matrix(0.9987 -5.005784e-02 -5.005784e-02 -0.9987 -56.6946 -232.3437)">
				<stop  offset="0" style="stop-color:#508385"/>
				<stop  offset="1" style="stop-color:#10113D"/>
			</linearGradient>
			<path style="fill:url(#SVGID_00000174563198867139625680000012474791233644257958_);" d="M168.2,152.4
				c13.8-27.5,7.4-58.8-12.1-73.9c-0.5-0.4-1-0.8-1.5-1.1c-25.5-1.9-46.7,21.4-55.3,38.9c-13,26.2-4.1,52.2-2,57.9l0,0
				c6.1-6.4,16.7-15.2,32.3-20C146.7,148.8,161.3,150.9,168.2,152.4z"/>
		</g>
		<g>
			
				<radialGradient id="SVGID_00000005259734034813649630000006627348245494942899_" cx="172.0875" cy="-366.7021" r="44.7264" gradientTransform="matrix(0.9987 -5.005784e-02 -5.005784e-02 -0.9987 -56.6946 -232.3437)" gradientUnits="userSpaceOnUse">
				<stop  offset="0" style="stop-color:#88C4EF"/>
				<stop  offset="0.1547" style="stop-color:#76AAD0"/>
				<stop  offset="0.4944" style="stop-color:#496980"/>
				<stop  offset="0.9913" style="stop-color:#010202"/>
				<stop  offset="1" style="stop-color:#000000"/>
			</radialGradient>
			<path style="fill:url(#SVGID_00000005259734034813649630000006627348245494942899_);" d="M168.2,152.4
				c13.8-27.5,7.4-58.8-12.1-73.9c-0.5-0.4-1-0.8-1.5-1.1c-25.5-1.9-46.7,21.4-55.3,38.9c-13,26.2-4.1,52.2-2,57.9l0,0
				c6.1-6.4,16.7-15.2,32.3-20C146.7,148.8,161.3,150.9,168.2,152.4z"/>
		</g>
		
			<linearGradient id="SVGID_00000112634758798622175890000007139251585713616317_" gradientUnits="userSpaceOnUse" x1="223.3272" y1="-411.8479" x2="223.0171" y2="-374.9496" gradientTransform="matrix(0.9987 -5.005784e-02 -5.005784e-02 -0.9987 -56.6946 -232.3437)">
			<stop  offset="0" style="stop-color:#CFC1DD"/>
			<stop  offset="1" style="stop-color:#EDDDEB"/>
		</linearGradient>
		<path style="fill-rule:evenodd;clip-rule:evenodd;fill:url(#SVGID_00000112634758798622175890000007139251585713616317_);" d="
			M193.1,154.4c-4.2,3.5-11.5,1.8-11.7-12.3c-0.2-14.2,8.3-27.6,8.3-27.6c-11.7,0.9-11.3,25.4-11.3,25.4c0.2,1,0.3,2,0.5,2.9v0.1
			C183.1,162.3,192.3,155.1,193.1,154.4z"/>
		<path class="st53" d="M198,123.5c-1.6-5.6-5.2-9.4-8.3-9.1c-3.1,0.2-10.8,15.1-8.3,31.6c2.5,16.4,12.3,10.7,14.1,4.4l1-3.5
			c0,0-7.2,10.7-11.7,0.8c-5.1-11.3,3.4-26.4,8.2-24.6s5.6,11.1,5.6,11.1S199.1,127.2,198,123.5z"/>
		<polygon class="st0" points="182.8,126 180.3,125.2 179.4,129.2 181.8,130.1 		"/>
		<g>
			<g>
				<path class="st43" d="M108.2,165c0-0.1,0-0.1,0-0.2C108.2,164.9,108.2,164.9,108.2,165 M163.3,151.4c0-0.1,0-0.2,0-0.4
					s0-0.4,0-0.5c0-0.5,0-1,0-1.6l0,0l0,0c0-0.3,0-0.5,0-0.8c0-0.1,0-0.2,0-0.3c0-0.3,0-0.6,0-0.9c0-0.1,0-0.2,0-0.3
					c0-0.2,0-0.4,0-0.7c0-0.1,0-0.2,0-0.3s0-0.3,0-0.4c0-0.1,0-0.3,0-0.4c0-0.1,0-0.3,0-0.4c0-0.3-0.1-0.5-0.1-0.8
					c0-0.1,0-0.2,0-0.3s0-0.3-0.1-0.4c0-0.1,0-0.3-0.1-0.4c0-0.1,0-0.2,0-0.3s0-0.3-0.1-0.4c0-0.1,0-0.3-0.1-0.4c0-0.1,0-0.2,0-0.3
					l0,0c-0.1-0.4-0.1-0.7-0.2-1.1c0-0.1,0-0.2,0-0.3c0,0,0,0,0-0.1l0,0c0,0,0,0,0-0.1c-0.1-0.3-0.1-0.6-0.2-0.9
					c0-0.1,0-0.2-0.1-0.3c0-0.2-0.1-0.4-0.1-0.7c-0.1-0.3-0.1-0.7-0.2-1v-0.1c-0.1-0.3-0.1-0.6-0.2-0.9l0,0l0,0c0-0.1,0-0.2-0.1-0.3
					c0-0.2-0.1-0.4-0.1-0.6c0-0.1,0-0.2,0-0.3c0-0.2-0.1-0.4-0.1-0.6c0-0.3-0.1-0.5-0.1-0.8c0-0.2,0-0.4-0.1-0.6c0-0.1,0-0.2,0-0.3
					s0-0.2,0-0.3s0-0.2,0-0.3c0-0.3-0.1-0.7-0.1-1c0,0,0,0,0-0.1s0-0.2,0-0.3s0-0.2,0-0.3l0,0v-0.1c0-0.4,0-0.7-0.1-1
					c0-0.2,0-0.4,0-0.6c0-0.2,0-0.4,0-0.6c0-0.1,0-0.2,0-0.2c0-0.1,0-0.2,0-0.2V127c0-0.1,0-0.2,0-0.2s0,0,0-0.1s0-0.2,0-0.3
					c0-0.1,0-0.1,0-0.2c0-0.5,0-1.1,0-1.6c0-0.1,0-0.2,0-0.3v-0.1c0-0.1,0-0.1,0-0.2c0-0.3,0-0.6,0.1-0.9c0-0.1,0-0.2,0-0.3
					c0-0.1,0-0.1,0-0.2c0-0.3,0-0.5,0.1-0.8c0-0.1,0-0.1,0-0.2s0-0.1,0-0.2c0-0.4,0.1-0.7,0.1-1.1s0.1-0.8,0.1-1.2V119
					c0-0.1,0-0.2,0-0.4l0,0c0-0.1,0-0.3,0-0.4c0-0.4,0-0.7,0.1-1.1l0,0c0-0.1,0-0.2,0-0.3c0-0.1,0-0.2,0-0.3v-0.1v-0.1
					c0-0.2,0-0.4,0-0.6l0,0c0-0.1,0-0.3,0-0.4v-0.1c0-0.1,0-0.2,0-0.3c0-1.3,0-2.7,0-4.3c0-0.1,0-0.2,0-0.4c0-0.6,0-1.3-0.1-2
					c0-0.3,0-0.6,0-0.9c0-0.1,0-0.3,0-0.4V106l0,0c0-0.1,0-0.2,0-0.3c0-0.2,0-0.4,0-0.6c0-0.3,0-0.6-0.1-0.9c0-0.1,0-0.2,0-0.4l0,0
					c0-0.2,0-0.4,0-0.7c0-0.1,0-0.3,0-0.4c0-0.5-0.1-1-0.1-1.5c0-0.1,0-0.2,0-0.4c0-0.1,0-0.3,0-0.4v-0.1v-0.1l0,0
					c0-0.1,0-0.1,0-0.2c0-0.2,0-0.3,0-0.5c0-0.1,0-0.3,0-0.4c0-0.2,0-0.4,0-0.5l0,0l0,0c-0.1-1.1-0.2-2.1-0.3-3
					c0-0.3-0.1-0.6-0.1-0.9v-0.1c0-0.2,0-0.4-0.1-0.6c0-0.2,0-0.4-0.1-0.6l0,0c0-0.3-0.1-0.5-0.1-0.8c-0.1-1-0.3-2-0.4-2.9
					c-0.2-0.9-0.3-1.8-0.5-2.5l0,0c0-0.2-0.1-0.4-0.1-0.5l0,0c0-0.2-0.1-0.3-0.1-0.5c0-0.1-0.1-0.2-0.1-0.3c0-0.2-0.1-0.4-0.1-0.5
					s-0.1-0.2-0.1-0.3c0-0.1-0.1-0.2-0.1-0.3v-0.1c-0.1-0.2-0.1-0.3-0.2-0.5c-0.1-0.2-0.1-0.3-0.2-0.4c-0.1-0.2-0.2-0.3-0.3-0.5
					s-0.3-0.4-0.4-0.5c0,0,0,0-0.1-0.1c-0.2-0.2-0.4-0.2-0.6-0.2c-1.1-0.1-3,3.3-6.6,10.2c-1.1,2.1-1.8,3.5-2.4,4.6
					c0,0.1-0.1,0.1-0.1,0.2v0.1c0,0.1-0.1,0.1-0.1,0.2l0,0c0,0.1-0.1,0.1-0.1,0.2c0,0,0,0,0,0.1l-0.1,0.1c0,0,0,0-0.1,0.1l-0.1,0.1
					c0,0,0,0-0.1,0.1l-0.1,0.1c0,0,0,0-0.1,0.1l-0.1,0.1c0,0,0,0-0.1,0.1l-0.1,0.1v0.1l-0.1,0.1l0,0l-0.1,0.1l0,0l-0.1,0.1
					c0,0,0,0-0.1,0l-0.1,0.1c0,0,0,0-0.1,0l-0.1,0.1c0,0,0,0-0.1,0c0,0-0.1,0-0.1,0.1c0,0,0,0-0.1,0l-0.1,0.1c0,0,0,0-0.1,0
					s-0.1,0.1-0.2,0.1c0,0,0,0-0.1,0l0,0l0,0l0,0c0,0,0,0-0.1,0l0,0c0,0,0,0-0.1,0l0,0c0,0,0,0-0.1,0l0,0c0,0,0,0-0.1,0l0,0
					c0,0,0,0-0.1,0l0,0c0,0-0.1,0-0.2,0.1l0,0c0,0,0,0-0.1,0l0,0h-0.1l0,0c0,0,0,0-0.1,0l0,0c0,0,0,0-0.1,0l0,0h-0.1l0,0h-0.1l0,0
					c-0.1,0-0.1,0-0.2,0l0,0H144l0,0h-0.1l0,0h-0.1l0,0h-0.1l0,0h-0.1l0,0h-0.1l0,0h-0.1l0,0c0,0-0.1,0-0.2,0H143l0,0
					c-0.1,0-0.1,0-0.2,0l0,0h-0.1c0,0,0,0-0.1,0c0,0-0.1,0-0.2,0l0,0c-0.1,0-0.1,0-0.2,0l0,0c0,0-0.1,0-0.2,0c0,0,0,0-0.1,0
					s-0.1,0-0.2,0c-1.1,0-2.6-0.2-4.5-0.4c-3.9-0.5-5.7-1.1-7-1.5c-0.1-0.3-0.2-0.6-0.3-1s-0.2-0.6-0.3-1c-0.3-1.1-0.6-2.3-1-3.4
					c-0.1-0.3-0.2-0.6-0.3-0.9c-0.2-0.6-0.4-1.3-0.6-1.9s-0.4-1.2-0.6-1.8c-0.2-0.6-0.4-1.2-0.6-1.8c-0.1-0.4-0.3-0.8-0.4-1.2
					c-0.1-0.3-0.2-0.5-0.3-0.8c-0.1-0.4-0.3-0.7-0.4-1l0,0c-0.1-0.2-0.2-0.4-0.2-0.6l0,0c0-0.1-0.1-0.2-0.1-0.3l0,0
					c-0.1-0.2-0.2-0.4-0.2-0.5c-0.1-0.2-0.2-0.3-0.2-0.5c0-0.1-0.1-0.2-0.2-0.3s-0.1-0.2-0.2-0.3c-0.1-0.3-0.3-0.5-0.4-0.8l0,0
					c0-0.1-0.1-0.2-0.2-0.3c-0.1-0.1-0.2-0.3-0.3-0.4c-0.1-0.2-0.2-0.3-0.3-0.5c-0.1-0.1-0.1-0.2-0.2-0.2c-0.1-0.1-0.1-0.1-0.2-0.2
					l-0.1-0.1c-0.1-0.1-0.1-0.1-0.2-0.2c0,0,0-0.1-0.1-0.1l-0.1-0.1c0,0,0-0.1-0.1-0.1c-0.1-0.1-0.2-0.2-0.2-0.2
					c-0.6-0.6-1.1-0.8-1.7-0.8c-0.8,0.1-1.7,0.9-3.3,5.3c-1.1,2.8-2.3,6.4-3.2,10.8c0,0.2-0.1,0.5-0.1,0.7c0,0.1,0,0.2-0.1,0.4
					c0,0.1,0,0.2-0.1,0.4c0,0.1,0,0.2-0.1,0.4c0,0.2-0.1,0.5-0.1,0.7c0,0.1,0,0.2-0.1,0.4c0,0.2-0.1,0.5-0.1,0.8
					c-0.1,0.5-0.2,1-0.2,1.6c-0.1,0.4-0.1,0.9-0.2,1.3c0,0.2,0,0.3-0.1,0.5c-0.1,1-0.2,2.1-0.3,3.2c-0.6,0.6-1.2,1.3-1.8,2
					c-2.4,3.3-2.5,6.7-6.2,8.6c-1.1,0.6-2.4,0.7-4.9,1c-0.1,0-0.2,0-0.4,0c-0.6,0.1-1.2,0.1-1.7,0.2c-0.4,0-0.8,0.1-1.2,0.1
					c-0.7,0-1.3,0.1-1.8,0.1c-0.1,0-0.2,0-0.2,0c-0.2,0-0.3,0-0.5,0c-0.1,0-0.1,0-0.2,0s-0.3,0-0.4,0c-0.2,0-0.4,0-0.6,0
					s-0.5,0-0.7,0c-0.4,0-0.8,0-1.2,0l0,0c-0.2,0-0.3,0-0.5,0h-0.1c-0.2,0-0.3,0-0.5,0s-0.3,0.1-0.5,0.1c-0.1,0-0.1,0-0.2,0.1
					c-0.3,0.1-0.6,0.3-0.9,0.5c-0.2,0.1-0.4,0.3-0.5,0.5l-0.1,0.1c-0.1,0.1-0.1,0.2-0.2,0.2c-0.1,0.1-0.1,0.2-0.2,0.3v0.1
					c0,0,0,0,0,0.1l0,0l0,0c-0.1,0.2-0.2,0.4-0.2,0.6c0,0.1-0.1,0.2-0.1,0.3c-0.1,0.3-0.1,0.7-0.2,1.1c0,0.1,0,0.2,0,0.3l0,0
					c0,0.3,0,0.6,0,0.9c0,0.9,0.1,2,0.3,3c0,0.2,0.1,0.5,0.1,0.8s0.1,0.6,0.2,0.9s0.1,0.6,0.2,0.9c0,0.2,0.1,0.3,0.1,0.5
					c0.1,0.3,0.1,0.6,0.2,0.9c0,0.2,0.1,0.3,0.1,0.5c0.1,0.3,0.1,0.7,0.2,1c0,0.2,0.1,0.4,0.1,0.5c0,0.2,0.1,0.4,0.1,0.6
					c0,0.1,0,0.2,0,0.2l0,0l0,0l0,0l0,0c0,0.2,0.1,0.4,0.1,0.6c0,0,0,0,0,0.1c0,0.2,0.1,0.4,0.1,0.6c0,0.1,0,0.1,0,0.2l0,0l0,0
					c0,0,0,0,0,0.1l0,0l0,0l0,0c0,0.1,0.1,0.2,0.1,0.4c0,0,0,0,0,0.1c0.1,0.4,0.2,0.9,0.4,1.3l0,0c0.2,0.7,0.5,1.4,0.7,2
					c0,0.1,0.1,0.2,0.1,0.2c0,0.1,0.1,0.2,0.1,0.3s0.1,0.2,0.2,0.3c0,0.1,0.1,0.1,0.1,0.2c0,0.1,0.1,0.2,0.1,0.2
					c0,0.1,0.1,0.1,0.1,0.2c0.1,0.2,0.2,0.4,0.3,0.5c0,0,0,0.1,0.1,0.1c0.1,0.1,0.1,0.2,0.2,0.2c0,0,0,0.1,0.1,0.1
					c0,0,0,0.1,0.1,0.1l0.1,0.1l0.1,0.1c0.1,0.1,0.2,0.2,0.3,0.3c0,0.1,0.1,0.1,0.1,0.2l0,0c0,0.1,0.1,0.1,0.2,0.2
					c0,0.1,0.1,0.1,0.2,0.2c0,0.1,0.1,0.1,0.2,0.2l0,0c0.1,0.1,0.1,0.1,0.2,0.2l0,0c0.3,0.3,0.6,0.5,0.9,0.8c0.1,0,0.1,0.1,0.2,0.1
					l0,0l0,0l0,0c0.1,0.1,0.2,0.1,0.2,0.2l0,0c0.1,0.1,0.2,0.1,0.2,0.2c0.1,0.1,0.2,0.1,0.3,0.2c0.1,0.1,0.2,0.1,0.3,0.2
					c0.2,0.1,0.3,0.2,0.5,0.3s0.3,0.2,0.5,0.3c2.1,1,4.2,1.4,5.9,1.7l0,0l0,0c0,0,0,0,0.1,0h0.1l0,0c0.1,0,0.2,0,0.4,0h0.1
					c0,0,0,0,0.1,0l0,0c0.8,0.1,2.1,0.3,3.4,0.8l0,0c0.1,0.1,0.2,0.2,0.2,0.4v0.1c0,0.1,0.1,0.2,0.1,0.3s0,0.1,0.1,0.2v0.1
					c0,0,0,0,0,0.1s0,0.2,0.1,0.3c0,0,0,0.1,0,0.2v0.1c0,0.1,0,0.1,0,0.2c0,0.1,0,0.2,0,0.3c0.2,0.8,0.3,1.7,0.5,2.7
					c0,0.1,0,0.2,0,0.2c0,0.2,0.1,0.5,0.1,0.7s0.1,0.3,0.1,0.5c0,0.1,0,0.3,0.1,0.4c0.1,0.4,0.1,0.8,0.2,1.2c0,0,0,0.1,0,0.2
					c0,0.1,0,0.1,0,0.2c0,0.1,0,0.1,0,0.2c0,0.1,0,0.2,0,0.2c0,0.1,0.1,0.3,0.1,0.4c0,0.1,0,0.1,0,0.2c0,0.1,0,0.2,0,0.2
					c0,0.1,0,0.2,0,0.2v0.1c0,0.1,0,0.1,0,0.2c0,0.1,0,0.2,0,0.3c0,0.2,0.1,0.3,0.1,0.4c0,0.1,0,0.2,0,0.3s0,0.2,0.1,0.3v0.1
					c0,0,0,0,0,0.1c0,0.2,0.1,0.4,0.1,0.6v0.1c0,0.1,0,0.2,0,0.2v0.1c0,0.1,0,0.2,0,0.3s0,0.2,0,0.3v0.1c0,0.1,0,0.2,0,0.4
					c0,0.1,0,0.3,0.1,0.4c0,0.2,0,0.3,0.1,0.5v0.1c0,0.1,0,0.2,0,0.3l0,0v0.1c0,0,0,0,0,0.1s0,0.1,0,0.2c0,0.1,0,0.1,0,0.2
					c0,0.1,0,0.1,0,0.2c0,0.1,0,0.1,0,0.2c0,0.3,0.1,0.7,0.1,1.1c0,0.2,0.1,0.4,0.1,0.6l0,0c0,0.2,0,0.3,0.1,0.5l0,0l0,0
					c0,0.1,0,0.1,0,0.2c0,0.1,0,0.1,0,0.2c0,0.2,0,0.3,0.1,0.5c0,0.1,0,0.2,0,0.3s0,0.2,0,0.3c0,0,0,0,0,0.1v0.1v0.1l0,0l0,0
					c0.8-0.5,1.5-1.1,2.3-1.6c5.3-3.5,11.7-6.8,19.3-9.2c2-0.6,4-1.2,6-1.6c5.8-1.3,11.3-1.8,16.1-1.8c3.8,0,7.2,0.2,10.1,0.6
					C162.5,151.2,163,151.3,163.3,151.4 M121.8,98.2L121.8,98.2C121.9,98.2,121.9,98.2,121.8,98.2C121.9,98.2,121.8,98.2,121.8,98.2
					z"/>
				<g>
					<g>
						<g>
							<g>
								<g>
									<defs>
										<path id="SVGID_00000029754005115785632080000004425013694240849805_" d="M163.3,151.4c-0.4-0.1-0.8-0.1-1.2-0.2
											c-1.8-6.3-3.8-9.8-5.7-12.6c-1.4-2-2.8-3.7-3.9-6c-4.3-8.1-7.1-7.1-9.6-13.1c-5.3-12.7-10.7-12.3-17.4-10.1
											c-0.6,0.2-1.3,0.4-1.9,0.6c-1.4,0.5-3.7,2-6.2,3.5c-3.1,1.8-6.4,3.6-8.6,3.3c-2.5-0.4-6.6-2-9.2-2h-0.1l0,0h-0.1
											c-0.1,0-0.1,0-0.2,0h-0.1l0,0l0,0H99c2.5-0.3,3.8-0.5,4.9-1c3.7-1.8,3.8-5.3,6.2-8.6c0.5-0.7,1.1-1.4,1.8-2
											c0.1-0.1,0.2-0.2,0.3-0.3c0,0,0,0,0.1-0.1s0.2-0.1,0.2-0.2l0.1-0.1c0.1-0.1,0.2-0.1,0.2-0.2c0.1-0.1,0.2-0.2,0.4-0.3
											l0.1-0.1l0,0c0.1-0.1,0.2-0.1,0.3-0.2l0,0c0.1-0.1,0.2-0.2,0.3-0.2c0.1-0.1,0.2-0.1,0.3-0.2c0,0,0.1,0,0.1-0.1
											c0,0,0.1,0,0.1-0.1s0.1,0,0.1-0.1l0,0c0,0,0.1,0,0.1-0.1c0,0,0.1,0,0.1-0.1c0,0,0,0,0.1,0l0,0c0.1-0.1,0.2-0.1,0.3-0.2
											c0.1-0.1,0.2-0.1,0.4-0.2l0,0c0,0,0,0,0.1,0c0.1-0.1,0.2-0.1,0.4-0.2c0.1,0,0.2-0.1,0.3-0.1c0,0,0.1,0,0.1-0.1h0.1
											c0.1-0.1,0.3-0.1,0.4-0.2c0.1,0,0.2-0.1,0.3-0.1l0,0c0,0,0,0,0.1,0c0.2-0.1,0.3-0.1,0.5-0.2h0.1c0.1,0,0.1,0,0.2-0.1h0.1
											c0,0,0,0,0.1,0s0.2-0.1,0.3-0.1l0,0c0.1,0,0.2-0.1,0.3-0.1l0,0h0.1l0,0c0.1,0,0.2-0.1,0.3-0.1c0.1,0,0.1,0,0.2-0.1
											c0.1,0,0.2-0.1,0.4-0.1h0.1c0.1,0,0.2-0.1,0.3-0.1c0.1,0,0.2-0.1,0.4-0.1c0.1,0,0.2,0,0.3-0.1c0,0,0,0,0.1,0l0,0
											c0.1,0,0.1,0,0.2,0c0,0,0,0,0.1,0c0.2-0.1,0.4-0.1,0.7-0.1h0.1l0,0l0,0l0,0h0.1h0.1l0,0l0,0h0.1l0,0h0.1l0,0
											c0,0,0,0,0.1,0s0.2,0,0.3-0.1c0.1,0,0.2,0,0.3,0c0.1,0,0.3,0,0.4,0l0,0c0,0,0,0,0.1,0s0.2,0,0.3,0l0,0l0,0
											c0.1,0,0.2,0,0.3,0l0,0h0.1c0.6,0,1.2-0.1,1.7,0c0.2,0,0.3,0,0.5,0c0,0,0.1,0,0.2,0c0.2,0,0.4,0,0.6,0.1
											c0.1,0,0.1,0,0.2,0l0,0h0.1c0.4,0.1,0.7,0.1,1.1,0.2c0.1,0,0.1,0,0.2,0.1c0.2,0,0.4,0.1,0.6,0.2l0,0l0,0
											c1.3,0.4,3.1,0.9,7,1.5c1.9,0.3,3.4,0.4,4.5,0.4c0,0,0.1,0,0.2,0c0.1,0,0.3,0,0.4,0c0.1,0,0.2,0,0.4,0c0.1,0,0.1,0,0.2,0
											c1.7,0,2.5-0.4,3.1-0.7c0.1,0,0.1-0.1,0.2-0.1c0.1,0,0.1-0.1,0.2-0.1c0.1,0,0.1-0.1,0.2-0.1c0.2-0.1,0.3-0.2,0.5-0.4
											c0,0,0.1,0,0.1-0.1c0.1-0.1,0.3-0.3,0.4-0.4c0,0,0,0,0.1-0.1c0,0,0-0.1,0.1-0.1c0-0.1,0.1-0.1,0.1-0.2c0,0,0-0.1,0.1-0.1
											s0-0.1,0.1-0.1c0.2-0.3,0.4-0.6,0.6-0.9c0,0,0.1-0.1,0.1-0.2c0.6-1.1,1.3-2.5,2.4-4.6c3.6-6.9,5.4-10.3,6.6-10.2
											c0.2,0,0.4,0.1,0.6,0.2c0,0,0.1,0,0.1,0.1c0.1,0.1,0.3,0.3,0.4,0.5c0.1,0.1,0.2,0.3,0.3,0.5c0.1,0.1,0.1,0.3,0.2,0.4
											c0.1,0.2,0.1,0.3,0.2,0.5v0.1c0,0.1,0.1,0.2,0.1,0.3c0,0.1,0.1,0.2,0.1,0.3c0,0.2,0.1,0.3,0.1,0.5c0,0.1,0.1,0.2,0.1,0.3
											c0,0.2,0.1,0.3,0.1,0.5l0,0c0,0.2,0.1,0.3,0.1,0.5l0,0c0.2,0.7,0.3,1.6,0.5,2.5c0.1,0.9,0.3,1.8,0.4,2.9
											c0,0.3,0.1,0.5,0.1,0.8l0,0c0,0.2,0,0.4,0.1,0.6c0,0.2,0,0.4,0.1,0.6v0.1c0,0.3,0.1,0.6,0.1,0.9c0.1,1,0.2,2,0.3,3l0,0
											c0,0.2,0,0.4,0,0.6c0,0.1,0,0.2,0,0.3c0,0.1,0,0.1,0,0.2c0,0.2,0,0.3,0,0.5c0,0.1,0,0.2,0,0.3v0.1c0,0.1,0,0.3,0,0.4
											c1.7,21.8-2.1,21.9,0.8,34.9l0,0l0,0c0.1,0.3,0.1,0.6,0.2,0.9v0.1c0.1,0.4,0.1,0.7,0.2,1c0,0.2,0.1,0.5,0.1,0.7
											c0,0.1,0,0.2,0.1,0.3c0.1,0.3,0.1,0.7,0.2,1l0,0c0,0,0,0,0,0.1C163.2,145,163.4,148.9,163.3,151.4z"/>
									</defs>
									<clipPath id="SVGID_00000071537076965057699750000008003034486935271571_">
										<use xlink:href="#SVGID_00000029754005115785632080000004425013694240849805_"  style="overflow:visible;"/>
									</clipPath>
								</g>
							</g>
						</g>
					</g>
				</g>
				<path class="st54" d="M139,146.1c-1.6,2-2.6,4.1-3.2,6.3c-2,0.4-4,1-6,1.6c-7.6,2.4-14,5.7-19.3,9.2c-0.8,0.5-1.6,1.1-2.3,1.6
					l0,0c0-0.1,0-0.2,0-0.3s0-0.2,0-0.3s0-0.2,0-0.3c0-0.2,0-0.3-0.1-0.5c0-0.1,0-0.1,0-0.2c0-0.1,0-0.1,0-0.2l0,0l0,0
					c0-0.2,0-0.3-0.1-0.5l0,0c0-0.2-0.1-0.4-0.1-0.6c0-0.4-0.1-0.7-0.1-1.1c0-0.3-0.1-0.6-0.1-0.9l0,0c0-0.2,0-0.3-0.1-0.4
					c0-0.2,0-0.3-0.1-0.5c0-0.3-0.1-0.5-0.1-0.8v-0.1c-0.1-0.4-0.1-0.8-0.2-1.2c-0.1-0.6-0.2-1.2-0.3-1.8c0-0.1,0-0.2,0-0.3
					s0-0.1,0-0.2v-0.1c0-0.1,0-0.2,0-0.2c0-0.1,0-0.1,0-0.2c0-0.3-0.1-0.6-0.2-0.9c0-0.1,0-0.1,0-0.2c0-0.1,0-0.1,0-0.2
					c0-0.1,0-0.1,0-0.2c-0.1-0.4-0.1-0.8-0.2-1.2c0-0.1,0-0.3-0.1-0.4c0-0.2-0.1-0.3-0.1-0.5s-0.1-0.5-0.1-0.7c0-0.1,0-0.2,0-0.2
					c-0.2-1-0.3-1.9-0.5-2.7c0-0.1,0-0.2,0-0.3s0-0.1,0-0.2v-0.1c0,0,0-0.1,0-0.2c0-0.1,0-0.2-0.1-0.3c0,0,0,0,0-0.1v-0.1
					c0-0.1,0-0.1-0.1-0.2c0-0.1-0.1-0.2-0.1-0.3c-0.1-0.2-0.2-0.4-0.3-0.5l0,0c-0.7-0.7-2-0.7-3.4-0.8l0,0h-0.1
					c-0.2,0-0.4,0-0.6-0.1l0,0l0,0c-2.2-0.4-5.3-1-8-3.1c-0.1-0.1-0.1-0.1-0.2-0.2c-0.5-0.4-1-0.8-1.4-1.3c-0.1-0.1-0.2-0.2-0.3-0.4
					c-0.1-0.1-0.2-0.2-0.3-0.3l-0.1-0.1c-0.1-0.2-0.3-0.4-0.4-0.6l-0.1-0.1c-0.4-0.6-0.7-1.3-1-2c0-0.1,0-0.1-0.1-0.2
					c-0.1-0.2-0.2-0.4-0.2-0.6c0-0.1-0.1-0.3-0.1-0.4c0-0.1-0.1-0.3-0.1-0.4c0-0.1-0.1-0.3-0.1-0.4c0,0,0,0,0-0.1s-0.1-0.3-0.1-0.4
					c0-0.1-0.1-0.3-0.1-0.4l0,0c-0.1-0.3-0.2-0.7-0.3-1c0,0,0,0,0-0.1s0-0.1,0-0.2c-0.1-0.4-0.2-0.9-0.3-1.3l0,0l0,0
					c0-0.2-0.1-0.3-0.1-0.5c0-0.1,0-0.2-0.1-0.4c-0.1-0.5-0.2-1-0.3-1.5c-0.5-2.7-1-5.2-1-7.3c0-0.1,0-0.1,0-0.2c0-0.4,0-0.8,0-1.2
					c0-0.1,0-0.1,0-0.2s0-0.1,0-0.2l0,0c0-0.1,0-0.1,0-0.2s0-0.1,0-0.2s0-0.1,0-0.2s0-0.1,0-0.2s0.1-0.2,0.1-0.3v-0.1c0,0,0,0,0-0.1
					v-0.1c0-0.1,0.1-0.2,0.1-0.3c0,0,0,0,0-0.1c0.2-0.5,0.6-0.9,1-1.3c0.6-0.5,1.2-0.7,2.1-0.7l0,0c0.2,0,0.3,0,0.5,0
					c1.7,0,4.3,0.3,9-0.3c2.5-0.3,5.9,1.8,8.5,2.8c2,0.8,7,0.2,9.6-0.4c0.6-0.1,1.1-0.3,1.3-0.4c1.5-0.7,8.1,0.2,10.7,1.4
					c1.4,0.6,3.9,2,6.5,4.1c2.3,1.8,4.7,4.2,6.6,7.2c1.1,1.7,1.6,3.3,1.8,4.8C144.4,139.9,140.4,144.4,139,146.1z"/>
				<path class="st55" d="M130.9,144.1c-1.7,1.8-6.5,0.9-11.1,2.7c-1,0.4-4.5,4.2-6.4,8.5c-1,2.2-2,5.2-2.8,7.9
					c-0.8,0.5-1.6,1.1-2.3,1.6l0,0c0-0.1,0-0.1,0-0.2c0,0,0,0,0-0.1s0-0.2,0-0.3s0-0.2,0-0.3c0-0.2,0-0.3-0.1-0.5c0-0.1,0-0.1,0-0.2
					c0-0.1,0-0.1,0-0.2l0,0l0,0c0-0.2,0-0.3-0.1-0.5l0,0c0-0.2-0.1-0.4-0.1-0.6c0-0.4-0.1-0.7-0.1-1.1c0-0.3-0.1-0.6-0.1-0.9l0,0
					c0-0.2,0-0.3-0.1-0.4c0-0.2,0-0.3-0.1-0.5c0-0.3-0.1-0.5-0.1-0.8v-0.1c-0.1-0.4-0.1-0.8-0.2-1.2c-0.1-0.6-0.2-1.2-0.3-1.8
					c0-0.1,0-0.2,0-0.3s0-0.1,0-0.2v-0.1c0-0.1,0-0.2,0-0.2c0-0.1,0-0.1,0-0.2c0-0.3-0.1-0.6-0.2-0.9c0-0.1,0-0.1,0-0.2
					c0-0.1,0-0.1,0-0.2c0-0.1,0-0.1,0-0.2c-0.1-0.4-0.1-0.8-0.2-1.2c0-0.1,0-0.3-0.1-0.4c0-0.2-0.1-0.3-0.1-0.5s-0.1-0.5-0.1-0.7
					c0-0.1,0-0.2,0-0.2c-0.2-1-0.3-1.9-0.5-2.7c0-0.1,0-0.2,0-0.3s0-0.1,0-0.2v-0.1c0,0,0-0.1,0-0.2c0-0.1,0-0.2-0.1-0.3
					c0,0,0,0,0-0.1v-0.1c0-0.1,0-0.1-0.1-0.2c0-0.1-0.1-0.2-0.1-0.3c-0.1-0.2-0.2-0.4-0.3-0.5c-1.4-0.5-2.7-0.7-3.5-0.8h-0.1
					c-0.1,0-0.3,0-0.4,0l0,0h-0.1l0,0l0,0l0,0c-2.6-0.7-5.7-1.4-7.9-3l0,0l0,0c-0.1-0.1-0.1-0.1-0.2-0.2c-0.5-0.4-1-0.8-1.4-1.3
					c-0.1-0.1-0.2-0.2-0.3-0.4c-0.1-0.1-0.2-0.2-0.3-0.3l-0.1-0.1c-0.1-0.2-0.3-0.4-0.4-0.6l-0.1-0.1c-0.4-0.6-0.7-1.3-1-2
					c0-0.1,0-0.1-0.1-0.2c-0.1-0.2-0.2-0.4-0.2-0.6c0-0.1-0.1-0.3-0.1-0.4c0-0.1-0.1-0.3-0.1-0.4c0-0.1-0.1-0.3-0.1-0.4
					c0,0,0,0,0-0.1s-0.1-0.3-0.1-0.4c0-0.1-0.1-0.3-0.1-0.4l0,0c-0.1-0.3-0.2-0.7-0.3-1c0,0,0,0,0-0.1s0-0.1,0-0.2
					c-0.1-0.4-0.2-0.9-0.3-1.3l0,0l0,0c0-0.2-0.1-0.3-0.1-0.5c0-0.1,0-0.2-0.1-0.4c-0.1-0.5-0.2-1-0.3-1.5c-0.5-2.7-1-5.2-1-7.3
					c0-0.1,0-0.1,0-0.2c0-0.4,0-0.8,0-1.2c0-0.1,0-0.1,0-0.2s0-0.1,0-0.2l0,0c0-0.1,0-0.1,0-0.2s0-0.1,0-0.2s0-0.1,0-0.2
					s0-0.1,0-0.2s0.1-0.2,0.1-0.3v-0.1c0,0,0,0,0-0.1v-0.1c0-0.1,0.1-0.2,0.1-0.3c0,0,0,0,0-0.1c0.2-0.5,0.6-0.9,1-1.3
					c0.6-0.5,1.2-0.7,2.1-0.7l0,0c0.2,0,0.3,0,0.5,0c1.7,0,4.3,0.3,9-0.3c0.1,0,0.2,0,0.2,0c0.1,0,0.2,0,0.3,0
					c2.4,0,5.6,1.7,7.9,2.8c0,0,0.1,0,0.1,0.1c2.1,1.2,3.3,6.2,7.8,7.8c6,2.1,11.7,1.9,15.4,5C135.5,134.8,133.3,141.6,130.9,144.1z
					"/>
				<g>
					<g>
						<g>
							<g>
								<g>
									<defs>
										<path id="SVGID_00000025426698592398110780000009242422770234524302_" d="M100.8,142.6c-2.8,0.3-6.2,0-8.4-1.8
											c-3.8-3.1-4.7-7.6-5.7-12.8c-1-5.5-1.9-10.1,0.5-12.1c1.8-1.5,3.7-0.1,11.6-1c2.5-0.3,6,1.6,8.5,2.8
											c1.8,0.9,3.8,5.7,4.2,9.2C111.8,130.8,110,141.5,100.8,142.6z"/>
									</defs>
									<clipPath id="SVGID_00000125582426333403958030000017967057577186636705_">
										<use xlink:href="#SVGID_00000025426698592398110780000009242422770234524302_"  style="overflow:visible;"/>
									</clipPath>
								</g>
							</g>
						</g>
					</g>
				</g>
				<path class="st44" d="M129.3,98.4c-1.1-0.3-1.9-0.6-3.4-0.6c-4.6-0.1-10.5,1.7-14.3,5.5c0.8-9.3,2.9-16.3,4.7-20.9
					c1.7-4.3,2.5-5.2,3.3-5.3C122.9,76.7,126.6,88.1,129.3,98.4z"/>
				<path class="st56" d="M150.5,118.1c2.7,0.2,5.5-8,6.6-12.2c0.4-1.5,1.6-7,0.7-14.3c-0.3-2.6-0.9-4.8-1.3-6.4
					c-2.5,4.9-5.5,11.6-8.2,18.9c-0.7,2-2,5.5-0.8,9.5C147.6,114.3,148.7,118,150.5,118.1z"/>
				<path class="st57" d="M96.8,120.1c0.1-0.8-0.8-1.5-2.7-2.8c-1.8-1.3-3-2.2-4.7-2c-0.3,0-1.3,0.1-2.1,0.7
					c-3.1,2.4-0.6,10.7,0.7,10.7c0.4,0,0.3-0.7,1.4-1.7c1.1-0.9,1.8-0.7,2.2-1.5c0.4-0.6,0.4-1.6,0-2c-0.5-0.5-1.4,0-2-0.5
					c-0.7-0.6-0.7-2.1,0-2.5c0.5-0.3,1.4,0.1,1.8,0.4c1.1,0.8,0.7,1.9,1.5,2.4C94,122.1,96.6,121.2,96.8,120.1z"/>
				<path class="st57" d="M87.2,130.3c0.1,0.5,0.2,1.1,0.4,1.6c0.7-0.2,1.9-0.4,3.3-0.1c3.3,0.7,4.2,3.4,7.9,5.1
					c0.8,0.4,2,0.9,5.3,1.4c7.1,1,11.5,1.1,12.1,0.1c0.1-0.2,0.1-0.5,0-0.7c-0.3-0.7-3.4,0.6-5.8,0.4c-1-0.1-1.9,0-2.9-0.1
					c-2-0.2-6.5-0.5-10.1-3c-2.7-1.9-2.6-3.3-5.3-4.3C90.2,130.1,88.4,130.1,87.2,130.3z"/>
				<g>
					<g>
						<g>
							<g>
								<g>
									<g>
										<defs>
											<path id="SVGID_00000159468096691365144870000007076776361144214657_" d="M163.3,151.4c-0.4-0.1-0.8-0.1-1.2-0.2
												c-2.9-0.4-6.3-0.6-10.1-0.6c0.5-1,1.1-2,1.7-2.9c2.5-3.3,2.9-6.3,2.7-9.1c-0.6-6.4-4.8-12.1,1.1-19.6
												c3.6-4.5,3.1-20.3,3.1-20.8l0,0l0,0c0,0.2,0,0.4,0,0.6c0,0.1,0,0.2,0,0.3c0,0.3,0,0.6,0.1,0.8l0,0v0.1
												c0,0.3,0,0.6,0.1,0.9c0,0.5,0.1,1,0.1,1.5c0,0.1,0,0.3,0,0.4s0,0.2,0,0.3c0,0.1,0,0.2,0,0.3l0,0c0,0.6,0.1,1.2,0.1,1.8
												c0,0.1,0,0.2,0,0.3l0,0c0,0.3,0,0.6,0,0.9c0,0.1,0,0.3,0,0.4c0.1,3.1,0.2,5.7,0.1,7.9v0.1c0,0.1,0,0.3,0,0.4l0,0
												c0,0.2,0,0.5,0,0.7s0,0.3,0,0.5c0,0.1,0,0.2,0,0.3l0,0c0,0.4,0,0.7-0.1,1.1c0,0.2,0,0.3,0,0.4s0,0.3,0,0.4v0.1
												c0,0.4-0.1,0.8-0.1,1.2c0,0.4-0.1,0.9-0.1,1.3c0,0.5-0.1,1-0.1,1.5c0,0.4,0,0.7-0.1,1.1v0.1c0,0.1,0,0.2,0,0.3
												c0,0.5,0,1.1,0,1.6c0,0.2,0,0.3,0,0.5c0,0,0,0,0,0.1s0,0.3,0,0.4s0,0.2,0,0.2c0,0.1,0,0.2,0,0.2c0,0.2,0,0.4,0,0.6
												c0,0.1,0,0.3,0,0.4c0,0.4,0,0.8,0.1,1.2v0.1l0,0c0,0.1,0,0.2,0,0.3s0,0.2,0,0.3c0,0,0,0,0,0.1c0,0.3,0.1,0.7,0.1,1
												c0,0.1,0,0.2,0,0.3s0,0.2,0,0.3s0,0.2,0,0.3c0,0.2,0,0.4,0.1,0.6c0,0.3,0.1,0.5,0.1,0.8c0,0.2,0.1,0.4,0.1,0.6
												c0,0.1,0,0.2,0,0.3c0,0.2,0.1,0.4,0.1,0.6c0,0.1,0,0.2,0.1,0.3l0,0l0,0c0.2,1.3,0.5,2.6,0.8,4c0,0,0,0,0,0.1l0,0v0.1
												c0,0.1,0,0.2,0,0.3c0.1,0.4,0.1,0.7,0.2,1.1l0,0c0,0.1,0,0.2,0,0.3s0,0.3,0.1,0.4c0,0.1,0,0.3,0.1,0.4c0,0.1,0,0.2,0,0.3
												s0,0.3,0.1,0.4c0,0.1,0,0.3,0.1,0.4c0,0.1,0,0.2,0,0.3c0,0.3,0.1,0.5,0.1,0.8c0,0.1,0,0.3,0,0.4c0,0.1,0,0.3,0,0.4
												c0,0.1,0,0.3,0,0.4c0,0.1,0,0.2,0,0.3c0,0.2,0,0.4,0,0.7c0,0.1,0,0.2,0,0.3c0,0.3,0,0.6,0,0.9c0,0.1,0,0.2,0,0.3
												c0,0.3,0,0.5,0,0.8l0,0l0,0c0,0.5,0,1,0,1.6c0,0.2,0,0.4,0,0.5C163.3,151.1,163.3,151.2,163.3,151.4"/>
										</defs>
										<clipPath id="SVGID_00000041256331984906873570000003513294466664373171_">
											<use xlink:href="#SVGID_00000159468096691365144870000007076776361144214657_"  style="overflow:visible;"/>
										</clipPath>
									</g>
								</g>
							</g>
						</g>
					</g>
				</g>
				<path class="st56" d="M125.9,97.8c-3.7-0.1-8.3,1.1-12,3.5c1-4.5,1.9-8.6,2.6-12c1.6-7,2.4-8.7,3.4-8.8c1.4-0.1,2.5,4,3.9,8.5
					C124.9,92.8,125.6,95.8,125.9,97.8z"/>
				<path class="st58" d="M140.9,100.3c2.5,0.1,3.5-0.3,4.2-0.7c1.1-0.6,1.8-1.4,2.6-2.8c0,0-1.7,6.6-1.7,9.3c0,3,1.7,10.2,1.7,10.2
					s-3.1-8-4.2-10.5C142.8,104.2,140.9,100.3,140.9,100.3z"/>
				<path class="st43" d="M135.4,122.4c0-0.3-0.9-7.1-5.8-8.9c-2.2-0.8-4.4-0.3-6.7,0.3c-3,0.7-6.4,2.4-6.1,3.4
					c0.2,0.6,0.9,1.2,3,1.6c0.8,0.1,1.2,1.4,2.6,2.4c1.9,1.3,3.6,0.4,7.7,0.5C131.3,121.8,133.2,121.9,135.4,122.4z"/>
				<g>
					<g>
						<path id="SVGID_00000105416873572970705100000014548003962835643801_" class="st59" d="M128.5,120.6c1.1,0,2.7,0,4.5-0.2
							c-1.1-2.9-2.1-4.4-2.9-5.3c-0.4-0.5-1.3-1.1-2.2-1.4c-1.4-0.3-2.3-0.5-5.5,1.1c-3.2,1.5-5,1.8-4.9,2.3c0,0.6,1.3,0.8,2.2,0.8
							c0.9,0.1,2.1,1.1,2.5,1.6C124.1,121.7,126.6,120.5,128.5,120.6z"/>
					</g>
					<g>
						<g>
							<g>
								<defs>
									<path id="SVGID_00000113355387373322256710000015312631877664671360_" d="M128.5,120.6c1.1,0,2.7,0,4.5-0.2
										c-1.1-2.9-2.1-4.4-2.9-5.3c-0.4-0.5-1.3-1.1-2.2-1.4c-1.4-0.3-2.3-0.5-5.5,1.1c-3.2,1.5-5,1.8-4.9,2.3
										c0,0.6,1.3,0.8,2.2,0.8c0.9,0.1,2.1,1.1,2.5,1.6C124.1,121.7,126.6,120.5,128.5,120.6z"/>
								</defs>
								<clipPath id="SVGID_00000177477940435128279450000013970484475972965309_">
									<use xlink:href="#SVGID_00000113355387373322256710000015312631877664671360_"  style="overflow:visible;"/>
								</clipPath>
								
									<linearGradient id="SVGID_00000160149382791943881430000005535312066483992968_" gradientUnits="userSpaceOnUse" x1="-752.8998" y1="-518.9182" x2="-752.8998" y2="-511.4125" gradientTransform="matrix(0.9972 -7.534608e-02 -7.534608e-02 -0.9972 836.7261 -453.6942)">
									<stop  offset="0" style="stop-color:#CF6237"/>
									<stop  offset="0.966" style="stop-color:#A84932"/>
								</linearGradient>
								
									<path style="clip-path:url(#SVGID_00000177477940435128279450000013970484475972965309_);fill:url(#SVGID_00000160149382791943881430000005535312066483992968_);" d="
									M128.5,116.5c0.2,2.1-1.4,3.9-3.5,4c-2.1,0.2-3.9-1.4-4-3.5c-0.2-2.1,1.4-3.9,3.5-4C126.5,112.9,128.3,114.4,128.5,116.5z"
									/>
							</g>
						</g>
					</g>
					<g>
						<g>
							<g>
								<defs>
									<path id="SVGID_00000023264977197025896160000000884395962924267436_" d="M129.2,119.6c1.1-0.2,2.6-0.6,4.3-1.2
										c-1.7-2.5-3-3.8-4-4.6c-0.6-0.4-1.5-0.8-2.5-0.9c-1.4,0-2.3,0.1-5.1,2.2c-2.8,2.2-4.4,2.8-4.4,3.3c0.2,0.6,1.5,0.4,2.4,0.3
										s2.3,0.7,2.7,1C125.1,121.7,127.4,120,129.2,119.6z"/>
								</defs>
								<clipPath id="SVGID_00000066483792751015028230000016744840435225034122_">
									<use xlink:href="#SVGID_00000023264977197025896160000000884395962924267436_"  style="overflow:visible;"/>
								</clipPath>
								
									<ellipse style="clip-path:url(#SVGID_00000066483792751015028230000016744840435225034122_);fill:#1B1B18;" cx="124.5" cy="116.7" rx="3.1" ry="3.1"/>
							</g>
						</g>
					</g>
					<g>
						<g>
							<g>
								<defs>
									<path id="SVGID_00000000914733674069949890000012590586944101167287_" d="M128.5,120.6c1.1,0,2.7,0,4.5-0.2
										c-1.1-2.9-2.1-4.4-2.9-5.3c-0.4-0.5-1.3-1.1-2.2-1.4c-1.4-0.3-2.3-0.5-5.5,1.1c-3.2,1.5-5,1.8-4.9,2.3
										c0,0.6,1.3,0.8,2.2,0.8c0.9,0.1,2.1,1.1,2.5,1.6C124.1,121.7,126.6,120.5,128.5,120.6z"/>
								</defs>
								<clipPath id="SVGID_00000178921860302513205540000006792061741404856736_">
									<use xlink:href="#SVGID_00000000914733674069949890000012590586944101167287_"  style="overflow:visible;"/>
								</clipPath>
								<path style="clip-path:url(#SVGID_00000178921860302513205540000006792061741404856736_);fill:#FFFFFF;" d="M122.7,116
									c0.1-0.1,0.1-0.1,0.2-0.2c0.2-0.3,0.6-0.3,0.8-0.1c0.1,0.1,0.1,0.1,0.2,0.2c0.3,0.2,0.3,0.6,0.1,0.8
									c-0.1,0.1-0.1,0.1-0.2,0.2c-0.2,0.3-0.6,0.3-0.8,0.1c-0.1-0.1-0.1-0.1-0.2-0.2C122.5,116.6,122.4,116.2,122.7,116z"/>
							</g>
						</g>
					</g>
				</g>
				<path class="st0" d="M124,111.3c-1.2,1.3-2.7,1.9-3.3,2c-1,0.3-2.7,0.9-3.4,0.3c-1-0.8-0.1-3.4,1.7-4.8c2.1-1.6,5.7-1.7,6.3-0.6
					C125.9,109.2,124.4,110.9,124,111.3z"/>
				<path class="st0" d="M109,109.9c0.3,0.3,0.9,0.2,1.3,0.1c1.6-0.7,1.8-3.9,1.1-4.2c-0.5-0.2-1.5,1.1-1.6,1.2
					C109.1,107.8,108.5,109.3,109,109.9z"/>
				<g>
					<circle class="st57" cx="102.4" cy="120.6" r="0.3"/>
					<circle class="st57" cx="103.2" cy="127.5" r="0.2"/>
					<circle class="st57" cx="102.9" cy="125.2" r="0.2"/>
					<circle class="st57" cx="100.4" cy="126.5" r="0.3"/>
					<circle class="st57" cx="105.4" cy="128.1" r="0.3"/>
					<circle class="st57" cx="102.8" cy="132.3" r="0.3"/>
					<circle class="st57" cx="102.1" cy="129.8" r="0.3"/>
					<circle class="st57" cx="98.8" cy="131.2" r="0.3"/>
					<circle class="st57" cx="97.4" cy="124.2" r="0.2"/>
					<circle class="st57" cx="94.8" cy="126.1" r="0.2"/>
					<circle class="st57" cx="96.8" cy="128.6" r="0.4"/>
				</g>
			</g>
			<path class="st63" d="M174.8,110.8c-2.3-13.4-8.9-24.9-18.5-32.3c-11.6-9-27.6-11.9-44-7.9c-8.8,2.1-17.3,6.2-24.4,11.6
				c-7.5,5.7-13.4,13-17.2,21.1C65,115.5,64,129.8,68,143.7c2,6.9,5.1,13.4,9.2,19.4c4.3,6.1,9.5,11.5,15.7,16
				c0.2,0.1,0.7,0.1,0.8,0l14.6-14.1h0.1c0.7-0.5,1.5-1.1,2.3-1.6c6-4,12.4-7.1,19.2-9.2c2-0.6,4-1.2,6-1.6c5.2-1.2,10.6-1.8,16-1.8
				c3.4,0,6.8,0.2,10.1,0.6c0.4,0,0.7,0.1,1.2,0.2l0,0h0.1c1.6,0.2,3.3,0.5,4.9,0.9l0,0c0.1,0,0.2,0,0.2-0.1l0,0
				C174.9,139.3,177.2,124.5,174.8,110.8z M168.2,151.8c0,0.1-0.1,0.1-0.2,0.1c-1.5-0.3-3-0.6-4.5-0.8l0,0h-0.1
				c-0.5-0.1-0.9-0.1-1.2-0.2c-3.4-0.4-6.8-0.6-10.2-0.6c-5.4,0-10.9,0.6-16.1,1.8c-2,0.5-4,1-6,1.6c-6.8,2.1-13.3,5.2-19.3,9.2
				c-0.8,0.5-1.6,1.1-2.3,1.6h-0.1c-5.1,3.7-9.8,8-13.8,12.8c-0.6,0.7-1.7,0.8-2.5,0.3c-23.3-18-32.2-49.5-20.7-74.2
				c7.4-15.9,22.9-28,41.3-32.5c3.8-0.9,7.6-1.5,11.3-1.6c12.2-0.6,23.6,2.7,32.4,9.5C176,94.3,181.1,125.6,168.2,151.8z"/>
			<line class="st64" x1="142.6" y1="130" x2="143.6" y2="130.8"/>
		</g>
		<path class="st65" d="M70.8,128.5c0-0.2-0.1-0.4-0.2-0.6c-0.3-0.4-0.7-0.5-1.1-0.3c-0.4,0.1-1,0.5-1,1.3c-0.1,0.7,0,1.5,0.1,2.2
			c0.1,0.8,0.2,1.5,0.3,2.3c0.1,0.6,0.2,1.1,0.4,1.6c0.1,0.2,0.1,0.4,0.2,0.5c0.2,0.4,0.7,0.3,1,0.1c0.2-0.2,0.5-0.5,0.6-0.9
			c0-0.3,0-0.6,0-0.9c-0.2-1.3-0.2-2.6-0.1-3.9C70.8,129.5,70.8,129,70.8,128.5z"/>
		<path class="st65" d="M69.7,138.8c0.3-1.9,1.1-2.5,1.5-2.7c0.2-0.1,0.3,0.1,0.4,0.5l0.1,0.3c1.7,15.9,7.1,16.5,4.9,16.2
			C73,152.6,69.2,141.6,69.7,138.8z"/>
		<path class="st66" d="M178.2,206.2l0.1-0.1C178.3,206.1,178.3,206.2,178.2,206.2L178.2,206.2z"/>
	</g>
</g>
</svg>
