<?xml version="1.0" encoding="utf-8"?>
<!-- Generator: Adobe Illustrator 26.0.1, SVG Export Plug-In . SVG Version: 6.00 Build 0)  -->
<svg version="1.1" xmlns="http://www.w3.org/2000/svg" xmlns:xlink="http://www.w3.org/1999/xlink" x="0px" y="0px"
	 viewBox="0 0 816.2 886.2" style="enable-background:new 0 0 816.2 886.2;" xml:space="preserve">
<style type="text/css">
	.st0{fill:#FFFFFF;}
</style>
<g id="Layer_2">
</g>
<g id="Layer_1">
	<g>
		<g>
			<g>
				<path class="st0" d="M716.1,476c-1.4-1.5-3.1-2.9-5.1-4c-16.6-9.6-33.2-19.2-49.8-28.7c12.9-7.5,25.9-15,38.8-22.6
					c9.3-5.4,20.6-9,20.8-21.2c0.3-15.6,0.1-31.3,0.1-46.9c0-12.9-20-12.9-20,0c0,13.2-0.1,26.5-0.1,39.7c0,1.2-0.1,2.7-0.2,4.1
					c-3.3,1.9-6.9,4.9-8.9,6c-18.5,10.8-37,21.5-55.5,32.3l0,0c-3.6,2.1-7.2,4.2-10.8,6.3c-7,4-13.9,8.1-20.9,12.1
					c-0.4,0.2-0.8,0.4-1.1,0.7c0-10.2,0.1-20.4,0.1-30.6c0-0.3,0-0.5,0-0.8c0.1-25,0.9-50.1,0.5-75.2c0.2-2,0.3-4.2,0.4-6.2
					c2.2-1.4,4.4-2.9,6.3-4c2.2-1.3,4.3-2.5,6.5-3.8c16.9-9.8,33.8-19.6,50.7-29.5c10.8-6.3,21.6-12.6,32.5-18.9
					c0.3-0.2,0.6-0.4,1-0.6c0,2.6,0,5.1,0,7.7c0,7.9,0,15.7-0.1,23.6c0,12.9,20,12.9,20,0c0-8.7,0-17.4,0.1-26.1
					c0-7.8,2.3-19.9-1.8-26.9c-0.1-0.2-0.3-0.4-0.4-0.6c-2.4-3.8-7.3-6.4-11.3-8.7c-8.9-5.1-17.8-10.3-26.7-15.4
					c-22.2-12.8-44.4-25.6-66.6-38.4c-5.2-3-10.4-6.7-15.9-9.2c-8-3.7-14.4,1.7-21.1,5.6c-13.9,8.1-27.7,16.1-41.6,24.2
					c0-12.2,0.1-24.5,0.1-36.7c0-8.2,2.6-21.6-1.7-29.2c-0.1-0.1-0.1-0.2-0.2-0.3c-2.3-4.5-7.9-7-12.3-9.5c-20.8-12-41.6-24-62.4-36
					c-15.1-8.7-30.2-19.3-46-26.6c-7.2-3.3-12.2,0.5-18.1,3.9c-8.9,5.1-17.7,10.3-26.6,15.4c-22.2,12.9-44.4,25.8-66.6,38.7
					c-5.1,3-10.7,5.6-15.5,9c-3.2,2.3-4.8,4.9-5.2,7.6c-0.8,1.9-1.3,4.2-1.3,6.6c-0.4,19-0.3,38-0.2,57c-9.7-5.6-19.3-11.2-29-16.7
					c-7.4-4.3-14.8-9.5-22.6-13.1c-7.2-3.3-12.2,0.4-18.2,3.9c-8.9,5.1-17.7,10.3-26.6,15.4c-22.2,12.9-44.4,25.8-66.6,38.7
					c-5.1,3-10.7,5.6-15.5,9c-2.6,1.9-4.1,4-4.8,6.1c-1.5,3.6-1.7,8.2-1.7,12.1c0,10-0.1,20-0.1,30c-0.1,26-0.1,52-0.2,77.9
					c0,6.1-0.6,12.4-0.1,18.5c0.7,8.6,8,11.2,14.5,15c15.1,8.7,30.1,17.7,45.1,26.6c-8.4,4.9-16.7,9.7-25.1,14.6
					c-5.4,3.1-22,10.1-29.5,18.5c-2.4,1.5-4.1,4.2-4.6,8.6c-1,8.7-0.1,18-0.1,26.8c0,12.9,20,12.9,20,0c0-3.7,0-7.3,0-11
					c2,1.2,4.1,2.4,6.1,3.5c2.8,1.6,5.5,3.2,8.3,4.8c18.4,10.6,36.8,21.2,55.2,31.9c6.2,3.6,12.4,7.2,18.6,10.8
					c2.8,1.6,6.3,4.3,9.7,6.3c-0.4,9.4,0.3,19.2,0.3,28.5c-0.1,21.1-0.1,42.2-0.2,63.2c0,6.9,0,13.8-0.1,20.7
					c-0.6-0.4-1.3-0.7-1.9-1.1c-12.1-7-24.2-13.9-36.2-20.9c-12.8-7.4-25.6-14.8-38.4-22.2c-6.9-4-14.3-9.5-21.7-13
					c0-0.2,0-0.3,0-0.5c0-6.8,0-13.5,0.1-20.3c0-12.9-20-12.9-20,0c0,8.5-0.8,17.4-0.1,25.9c0.6,7.1,4.9,9.6,10.3,12.7
					c16.4,9.5,32.8,18.9,49.1,28.4c18.1,10.4,36.1,20.9,54.2,31.3c3.7,2.1,7.8,5.3,12.1,6c1,0.2,1.9,0.2,2.8,0.1c0.1,0,0.2,0,0.3,0
					c4.7,0,8.2-2.7,12.1-4.9c6.3-3.7,12.6-7.3,18.9-11c8.5-4.9,17-9.9,25.5-14.8c-0.2,20-1.1,40.2-0.1,60.2
					c0.4,7.7,5.2,10.2,10.9,13.5c8.4,4.8,16.8,9.7,25.2,14.5c22.6,13,45.1,26.1,67.7,39.1c5.8,3.4,11.5,7,17.5,10.1
					c2,1,3.9,1.5,5.7,1.6c0.6,0.1,1.2,0.2,1.8,0.2c5.7,0,11.3-4.5,16-7.2c9.6-5.6,19.2-11.1,28.7-16.7
					c21.4-12.4,42.8-24.9,64.2-37.3c4.2-2.4,8.9-4.6,12.8-7.4c7.3-5.4,5.4-15.2,5.4-23.3c0-15.8,0.1-31.6,0.1-47.3
					c8.4,4.8,16.8,9.7,25.1,14.5c7.4,4.3,14.8,8.5,22.1,12.8c2,1.1,4.1,2,6.2,2.5c1.4,0.7,2.9,1.1,4.4,1.1c5.7,0,11.3-4.5,16-7.2
					c9.6-5.6,19.2-11.1,28.7-16.7c21.4-12.4,42.8-24.9,64.2-37.3c4.2-2.4,8.9-4.6,12.8-7.4c6.3-4.7,5.4-11.4,5.4-18.3
					c0.1-23.5,0.1-47,0.2-70.5c0-13.3,0.1-26.5,0.1-39.8c0-6.2,1.5-14.9-1.8-20.6C718.6,478,717.5,476.9,716.1,476z M530.7,246.3
					L530.7,246.3c14.9-8.7,29.8-17.3,44.7-26c4.4-2.6,8.8-5.1,13.2-7.7c0.6-0.4,2.6-1.2,4.5-2.2c1.5,0.8,3,1.5,4.3,2.3
					c20.2,11.6,40.3,23.3,60.5,34.9c10.8,6.2,21.5,12.4,32.3,18.6c0.3,0.2,0.7,0.4,1,0.6c-2,1.1-4,2.3-5.9,3.4
					c-6.7,3.9-13.3,7.8-20,11.6c-17,9.9-34.1,19.8-51.1,29.7c-3.8,2.2-7.6,4.4-11.4,6.6c-2.7,1.5-6.4,3.1-9.6,4.9
					c-1.6-0.9-3.3-1.8-4.9-2.7c-5.1-2.9-10.2-5.9-15.3-8.8c-14-8.1-28-16.2-42-24.2c-11.9-6.9-23.8-13.7-35.6-20.6
					c3.2-1.9,6.4-3.7,9.6-5.6C513.4,256.3,522.7,251.9,530.7,246.3z M535.9,375.9c0-0.4-0.1-0.7-0.2-1.1c0-0.1-0.1-0.3-0.1-0.4
					c-0.1-0.5-0.3-1-0.4-1.5c0-0.1-0.1-0.2-0.1-0.3c-0.2-0.6-0.5-1.1-0.8-1.7c0,0,0,0,0-0.1c-0.4-0.8-0.9-1.5-1.4-2.2
					c-0.1-0.1-0.1-0.2-0.2-0.3c-2.1-2.7-5.6-4.2-8.5-5.9c-5.4-3.1-10.8-6.2-16.2-9.4c-7.6-4.4-15.1-8.7-22.7-13.1
					c0-5.9,0-11.9,0.1-17.8c0.2-2.5,0-5.1,0-7.8c0-9.4,0.1-18.8,0.1-28.2c0-0.7,0-1.4,0-2.1c29.4,17,58.9,34,88.3,51
					c2.9,1.7,6.4,4.5,9.9,6.4c0,1.6,0.1,3.3,0.1,4.8c-0.1,22.9-0.1,45.8-0.2,68.6c0,12.9-0.1,25.9-0.1,38.8
					c-7.8-4.5-15.6-9-23.4-13.5c-8-4.6-16-9.2-24-13.8c0-8.1,0-16.3,0.1-24.4c0-5.3,0-10.6,0-15.9
					C536.1,382.8,536.4,379.2,535.9,375.9z M515.8,464.8c0,9.7-0.1,19.4-0.1,29.1c0,3.9,0,7.7,0,11.6c-1.7,1-3.4,2.1-5.1,3.1
					c-6.6,3.8-13.2,7.7-19.8,11.5c-0.1,0.1-0.2,0.1-0.3,0.2c-1.1,0.7-2.2,1.3-3.4,2c-2.7,1.6-5.5,3.2-8.2,4.8
					c-2.6,1.5-5.5,2.9-7.9,4.6c-0.3,0.2-0.6,0.4-0.9,0.5l0,0c-6.4,3.7-12.7,7.4-19.1,11.1c-10.9,6.4-21.9,12.7-32.8,19.1
					c0-10.2,0.1-20.4,0.1-30.6c0-8,0-16.1,0.1-24.1c0-14.4,0.1-28.9,0.1-43.3c0-2.4,0.1-4.8,0.2-7.2c0.2-2.4,0.5-5.1,0.5-7.6
					c2.7-1.5,5.4-3.3,8-4.9c6.3-3.7,12.6-7.3,18.9-11c0.7-0.4,1.3-0.8,2-1.1c11-6.4,22.1-12.8,33.1-19.3
					c11.6-6.7,23.4-13.1,34.9-19.9c0,6.6,0,13.1-0.1,19.7c0,10.2-0.1,20.5-0.1,30.7c0,3.6,0,7.3,0,10.9v0c0,0.4,0,0.8,0,1.1
					C515.6,458.5,515.8,461.6,515.8,464.8z M280.2,377.7c0,0.7,0,1.3,0,2c0,0.6,0,1.2,0,1.9c0,2.8,0,5.6,0,8.3
					c0,12.2-0.1,24.4-0.1,36.5c-4.7,2.7-9.4,5.5-14.2,8.2c-4.1,2.4-8.1,4.7-12.2,7.1c-6.9,4-13.8,8-20.6,12
					c0-10.2,0.1-20.4,0.1-30.6c0.1-23.8,0.1-47.7,0.2-71.5c0-2.9,0.6-7.1,0.6-10.8c2.7-1.5,5.4-3.3,8-4.9
					c18.2-10.6,36.5-21.2,54.7-31.8c3.9-2.3,7.8-4.5,11.6-6.8c6.2-3.6,12.5-7.3,18.7-10.9c1.1-0.6,2.4-1.3,3.8-2
					c0,9.1-0.1,18.3-0.1,27.4c0,9.4-0.1,18.9-0.1,28.3c-8.4,4.9-16.9,9.8-25.3,14.7c-4.5,2.6-12.4,5.9-18,10.4
					c-1.2,0.5-2.3,1.3-3.3,2.4c-0.9,0.9-1.5,2-1.9,3.1c-0.7,0.9-1.3,2-1.6,3.3C280.2,375.3,280.1,376.5,280.2,377.7z M299.9,495.3
					c0-4,0-8,0-12c0-5.7,0-11.4,0-17.1c0-10.9,0.1-21.8,0.1-32.7c0-0.6,0-1.3,0-1.9c0.5-5.2,0-10.6,0-15.8c0-0.9,0-1.7,0-2.6
					c0-1.8,0-3.6,0-5.4c0-1.6,0-3.3,0-4.9c0-3.4,0-6.9,0-10.3c2.5,1.5,5,2.9,7.5,4.4c6.2,3.6,12.5,7.2,18.7,10.8
					c19.8,11.4,39.7,22.9,59.5,34.3c1.5,0.9,3.1,1.8,4.6,2.8c2.4,1.6,5.2,3.6,7.9,5.1c0,1.6,0.1,3.3,0.1,4.8
					c-0.1,22.9-0.1,45.8-0.2,68.6c0,12.9-0.1,25.9-0.1,38.8c-4-2.3-8-4.6-12-6.9c-7.1-4.1-14.2-8.2-21.3-12.3
					c-6.3-3.7-12.7-7.3-19-11c-12.7-7.3-25.4-14.7-38.2-22c-0.6-0.4-1.2-0.7-1.9-1.1c-1.8-1-3.8-2.6-5.9-3.8c0-0.8,0-1.6,0-2.3
					C299.9,500.3,299.9,497.8,299.9,495.3z M351.4,399c-1-0.6-2-1.1-3-1.7c-12.6-7.3-25.2-15.1-37.9-22.3c3.1-1.8,6.2-3.6,9.2-5.4
					c8.5-4.9,17.8-9.3,25.8-15c0.1,0,0.1-0.1,0.2-0.1h0c1.2-0.7,2.5-1.4,3.7-2.2c12.1-7,24.2-14.1,36.3-21.1
					c5.4-3.2,10.9-6.3,16.3-9.5c1.6-0.9,4-1.9,6.1-3.1c14.3,8.2,28.6,16.5,42.8,24.7c4.4,2.5,8.7,5,13.1,7.6c1.8,1,3.6,2.1,5.4,3.1
					c0.1,0.1,0.2,0.1,0.3,0.2c0.1,0,0.2,0.1,0.2,0.1c8.3,4.8,16.5,9.6,24.8,14.3c3.6,2.1,7.3,4.2,10.9,6.3c-2.1,1.4-4,2.7-5.8,3.7
					c-9.3,5.4-18.5,10.8-27.8,16.1c-5.3,3.1-10.7,6.2-16,9.3c-7.6,4.4-15.1,8.8-22.7,13.2c-1,0.6-2.1,1.2-3.1,1.8
					c-2.8,1.6-5.7,3.3-8.5,4.9c-4.1,2.4-9.3,4.6-13.9,7.4c-1.6-0.9-3.3-1.8-4.9-2.7C385.9,419,368.7,409,351.4,399z M516,198.7
					c0,11-0.1,22-0.1,33c-10.7,6.1-21.6,12-32.2,18.3c-3.9,2-8.2,4.4-11.5,7.1c-2,1.3-3.5,3-4.5,4.9c-0.6,1-1,2-1.4,3.2
					c-2.5,7.3-1,18.1-1,24.3c0,9.5-0.1,19-0.1,28.5c-3,1.8-6.1,3.5-9.1,5.3c-12.4-7.2-24.9-14.3-37.3-21.5c-0.2-0.1-0.3-0.2-0.5-0.3
					c0-12.5,0.1-25,0.1-37.6c0-4.5,0-9.1,0-13.6c0-3.7,0-7.5,0-11.2c0-1.9,0.1-3.8,0.1-5.8c0-0.1,0-0.3,0-0.4c2.1-1.4,4.3-3,5-3.5
					c9.4-5.4,18.7-10.9,28.1-16.3c14.8-8.6,29.7-17.3,44.5-25.9c6.6-3.8,13.1-7.6,19.7-11.5C516,183.5,516,191.1,516,198.7z
					 M336.1,143.3c20.8-12.1,41.7-24.2,62.5-36.3c2.7-1.5,6.4-3.1,9.6-4.9c1.6,0.9,3.3,1.8,4.9,2.7c19.9,11.5,39.8,23,59.7,34.5
					c10.8,6.2,21.5,12.4,32.3,18.6c0.3,0.2,0.7,0.4,1,0.6c-1.4,0.8-2.8,1.6-4.2,2.5c-13.4,7.8-26.7,15.5-40.1,23.3
					c-7.3,4.2-14.5,8.4-21.8,12.7c-10.3,6-21.5,11.4-31.6,18c-4.6-2.8-9.5-5.2-14.1-7.8c-13.2-7.6-26.4-15.2-39.5-22.8
					c-11.3-6.5-22.6-13-33.8-19.5c-3.6-2.1-7.2-4.2-10.8-6.3C318.9,153.3,327.5,148.3,336.1,143.3z M300.1,198.7
					c0-7.6,0-15.3,0.1-22.9c26,15.1,51.9,30.6,78.1,45.4c6.5,4,13,8.1,19.7,11.3c-0.5,7,0.5,14.6,0.5,20c0,15.9-0.1,31.8-0.1,47.7
					c-5.9,3-11.7,7.4-15.5,9.7c-7.7,4.4-15.3,8.9-23,13.3c-3-1.7-6-3.5-9-5.2c0-0.8,0-1.6,0-2.4c0-7.3,0-14.7,0.1-22
					c0-5.9,0-11.8,0.1-17.8c0-2.4,0.2-4.8,0-7.1c0-0.3-0.1-0.6-0.1-0.8c0-0.2,0-0.4-0.1-0.6c-0.1-0.5-0.2-0.9-0.3-1.4
					c0-0.1,0-0.1,0-0.2c-0.1-0.5-0.3-1-0.5-1.5c0,0,0-0.1,0-0.1c-0.2-0.5-0.5-1-0.8-1.6c-0.3-0.5-0.7-1-1.1-1.5
					c-1.7-2.4-4.3-4.5-7.1-6.3c-5.3-3.5-11.6-6.3-15.5-8.5c-8.5-4.9-17-9.8-25.5-14.7C300,220.7,300.1,209.7,300.1,198.7z
					 M151,251.8c20.8-12.1,41.7-24.2,62.5-36.3c2.7-1.6,6.5-3.1,9.7-5c3.5,2,7,4,10.5,6.1c17.1,9.9,34.1,19.7,51.2,29.6c0,0,0,0,0,0
					l0,0c8.3,4.8,16.5,9.6,24.8,14.3c3.6,2.1,7.3,4.2,10.9,6.3c-2.1,1.4-4,2.7-5.8,3.7c-6.9,4-13.8,8-20.7,12
					c-2.4,1.4-4.7,2.7-7.1,4.1c-8.4,4.9-16.8,9.7-25.2,14.6c-8.4,4.9-16.8,9.8-25.2,14.6c-4.1,2.4-9.2,4.6-13.8,7.3
					c-2.1-1.1-4.2-2.1-5.9-3.1c-1-0.6-1.9-1.1-2.9-1.7c-1.7-1-3.3-1.9-5-2.9c-13.2-7.6-26.4-15.2-39.5-22.8
					c-13.2-7.6-26.4-15.2-39.5-22.8c-1.3-0.8-2.6-1.5-4-2.3c-0.4-0.2-0.8-0.5-1.2-0.7C133.7,261.8,142.3,256.8,151,251.8z
					 M131.7,406.9c-5.2-3-11-7.6-16.8-10.4c0-1.7-0.2-3.3-0.2-4.9c0.1-22.9,0.1-45.8,0.2-68.6c0-12.5,0.1-25,0.1-37.5
					c0-0.4,0-0.8,0-1.2c30.4,17.7,60.7,35.8,91.5,53c2.1,1.5,4.5,3.1,6.8,4.4c0,1.6,0.1,3.3,0.1,4.8c-0.1,22.9-0.1,45.8-0.2,68.6
					c0,12.9-0.1,25.9-0.1,38.8c-3.3-1.9-6.5-3.8-9.8-5.7c-7.8-4.5-15.7-9-23.5-13.6l0,0C163.7,425.4,147.7,416.1,131.7,406.9z
					 M223.4,540.4c-0.3-0.2-0.6-0.3-0.9-0.5c-4.4-2.6-8.8-5.1-13.3-7.7c-13.2-7.6-26.4-15.2-39.5-22.8
					c-13.2-7.6-26.4-15.2-39.5-22.8c-1.7-1-3.4-2-5.2-3c6.9-4,13.7-8,20.6-11.9c9.5-5.5,19-11,28.4-16.5
					c13.2,7.7,26.5,15.2,39.9,22.3c0.6,0.3,1.2,0.7,1.8,1c0.2,0.1,0.4,0.2,0.6,0.3c0.1,0.1,0.3,0.1,0.4,0.2c0.2,0.1,0.4,0.2,0.6,0.2
					c1.4,0.5,2.8,0.9,4.2,1c0.6,0.1,1.2,0.2,1.9,0.2c0.6,0,1.3-0.1,1.9-0.2c0.1,0,0.2,0,0.2,0c0.5-0.1,1.1-0.2,1.6-0.4
					c0.1,0,0.2-0.1,0.3-0.1c0.3-0.1,0.7-0.2,1-0.4c3.2-1.2,6.2-3.4,9.1-5c5.2-3,10.3-6,15.5-9c6-3.5,12-7,18-10.4c3,1.7,6,3.5,9,5.2
					c0,9.4-0.1,18.8-0.1,28.2c0,5.5-1.1,12.9-0.3,19.5c-10.4,6-20.7,12.1-31.1,18.1c-0.5,0.3-1,0.6-1.6,0.9
					c-7.2,4.2-14.4,8.4-21.6,12.6C224.6,539.7,224,540.1,223.4,540.4z M285.5,583.9c-1.8,1.2-3.1,3.1-3.9,5.4
					c-0.1,0.2-0.2,0.4-0.2,0.6v0c-2.9,7.3-1.2,18.6-1.3,24.9c0,3.1,0,6.2,0,9.2c0,6.4,0,12.8-0.1,19.3c-9.3,5.4-18.6,10.8-27.9,16.2
					c-6.4,3.7-12.7,7.4-19.1,11.1c0.1-26,0.1-52,0.2-78c0-7.7,0-15.4,0.1-23c0-2.5,0.2-5.1,0.3-7.8c0.8-0.7,1.3-2.2,1-4.7
					c19-11.1,38.1-22.1,57.1-33.2c7.3,4.2,14.6,8.4,21.8,12.6c5.7,3.3,11.5,6.6,17.2,9.9c0,3.5,0,7,0,10.6c-0.9,0.5-1.8,1-2.7,1.5
					c-7.5,4.4-15.1,8.8-22.6,13.2C300.4,574.6,291,578.5,285.5,583.9z M398.3,741.9c0,7.9,0,15.9-0.1,23.8c0,2.8,0,5.7,0,8.5
					c0,1.6,0,3.2,0,4.9c-8.5-4.9-17-9.8-25.6-14.8c-20.9-12.1-41.8-24.1-62.7-36.2c-2.8-1.6-6.4-4.5-9.9-6.4
					c0.1-3.5-0.2-7.2-0.1-10.7c0.1-20.5,0.1-41.1,0.2-61.6c0-0.3,0-0.7,0-1c0.5-5.2,0-10.6,0-15.8c0-0.2,0-0.4,0-0.6
					c0-2.5,0-5,0-7.4c0-5.1,0-10.2,0-15.2c1.7,1,3.4,2,5.1,2.9c13.2,7.6,26.4,15.2,39.5,22.8c3.7,2.1,7.4,4.3,11.1,6.4
					c4.6,2.7,9.3,5.4,13.9,8c9.4,5.4,18.8,11.9,28.6,16.9c0,1.5,0.1,2.9,0.1,4.2C398.4,694.5,398.4,718.2,398.3,741.9z M408.2,648.5
					c-1.7-0.9-3.5-1.8-5-2.7c-9.7-5.6-19.5-11.3-29.2-16.9c-21.2-12.3-42.5-24.5-63.7-36.8c0,0,0,0,0,0c0.3-0.2,0.6-0.3,0.9-0.5
					c0.1-0.1,0.3-0.2,0.4-0.3c8.5-4.9,17-9.9,25.5-14.8c2.6-1.5,5.5-2.9,7.9-4.6c0.3-0.2,0.6-0.4,0.9-0.5l0,0
					c4.7-2.7,9.4-5.4,14.1-8.2c8.7,5,17.5,10.1,26.2,15.1c4.9,2.8,9.8,5.9,14.8,8.6c0,0,0,0,0,0c1,0.8,2.3,1.4,3.7,1.6
					c1.2,0.3,2.3,0.3,3.4,0.2c0.1,0,0.3,0,0.4,0c1.2,0.2,2.5,0.1,3.8-0.3c0.6-0.2,1.2-0.4,1.7-0.6c7.2-2.4,14.8-8.6,20.4-11.9
					c7.3-4.2,14.6-8.5,21.8-12.7c4.7,2.7,9.3,5.4,14,8.1c8.3,4.8,16.5,9.6,24.8,14.3c0.3,0.2,0.6,0.4,0.9,0.5
					c3.2,1.8,6.3,3.7,9.5,5.5c0.3,0.2,0.5,0.3,0.8,0.5c-28.9,16.8-57.8,33.6-86.7,50.4C416.3,644.3,412,646.2,408.2,648.5z
					 M516,619.7c0,9.6-0.1,19.2-0.1,28.8c-0.1,17.9-0.1,35.8-0.2,53.6c0,5.1,0,10.2,0,15.3c0,0.7-0.3,2.8-0.4,4.9
					c-1.5,0.9-3,1.9-4.4,2.7c-19.8,11.5-39.6,23-59.3,34.5c-10.8,6.3-21.6,12.6-32.5,18.9c-0.2,0.1-0.4,0.2-0.6,0.4
					c0.7-34.3,0.1-68.8,0-103.1c0.1-2.8,0.6-6.4,0.6-9.6c2.7-1.5,5.4-3.3,8-4.9c5.3-3.1,10.5-6.1,15.8-9.2c1.9-1.1,3.7-2.2,5.6-3.3
					c11.1-6.5,22.2-12.9,33.3-19.4c9.4-5.5,18.8-10.9,28.3-16.4c1.5-0.9,3.6-1.9,5.9-3.1C516,613.2,516,616.5,516,619.7z
					 M583.5,633.5c0,7.9,0,15.9-0.1,23.8c0,2.8,0,5.7,0,8.5c0,1.6,0,3.2,0,4.9c-6.4-3.7-12.9-7.4-19.3-11.2
					c-9.3-5.4-18.7-10.8-28-16.2c0-7.3,0-14.6,0.1-21.9c0-6.9,0-13.9,0.1-20.8c0-2.3,0.1-4.5,0-6.7c0-0.3-0.1-0.5-0.1-0.8
					c0-0.2,0-0.4-0.1-0.7c-0.1-0.4-0.2-0.8-0.3-1.2c0-0.1,0-0.2-0.1-0.3c-0.1-0.5-0.3-0.9-0.5-1.3c0-0.1,0-0.1-0.1-0.2
					c-0.2-0.5-0.4-1-0.7-1.5c0,0,0,0,0-0.1c-0.8-1.7-2-3.1-3.4-4.2c-0.6-0.5-1.2-0.9-1.8-1.4c-8-5.1-16.5-9.5-24.7-14.3
					c-6.4-3.7-12.8-7.4-19.1-11c0-3.5,0-7,0-10.6c5.2-3,10.5-6.1,15.7-9.1c2.5-1.5,5-2.9,7.5-4.4c5.3-3.1,10.7-6.2,16-9.3
					c17.8,10.3,35.7,20.6,53.5,30.9c1.9,1.1,3.7,2.3,5.6,3.4c0,1.6,0.1,3.1,0.1,4.4C583.6,586,583.5,609.8,583.5,633.5z
					 M593.5,540.2c-1.2-0.6-2.3-1.2-3.4-1.8c-5.9-3.4-11.8-6.8-17.7-10.2c-12.1-7-24.2-14-36.3-20.9c0.6-6.6-0.4-13.9-0.3-18.9
					c0-9.4,0.1-18.8,0.1-28.2c3-1.7,5.9-3.4,8.9-5.2c12.5,7.5,25.1,14.9,37.9,21.7c1.1,0.6,2.2,1.2,3.4,1.8c1.6,0.8,3.2,1.3,4.9,1.5
					c0.9,0.3,1.8,0.4,2.8,0.4c0.4,0,0.9,0,1.3-0.1c0.2,0,0.4,0,0.6-0.1c0.2,0,0.4-0.1,0.6-0.1c0.3-0.1,0.7-0.1,1-0.2
					c0.3-0.1,0.6-0.2,0.9-0.3c0,0,0.1,0,0.1,0c3.8-1.3,7.4-4,10.7-5.9c4.9-2.9,9.8-5.7,14.7-8.6c5.9-3.4,11.7-6.8,17.6-10.2
					c9.8,5.6,19.5,11.3,29.3,16.9c6.9,4,13.8,8,20.7,12c-27.3,15.9-54.6,31.7-81.9,47.6c-1.9,1.1-3.7,2.2-5.6,3.2
					C600.6,536.4,596.8,538.1,593.5,540.2z M701.1,530.2c-0.1,24-0.1,48-0.2,72c0,1.6-0.8,7.6-0.8,12c-1.4,0.8-2.7,1.8-4,2.5
					c-19.8,11.5-39.6,23-59.3,34.5c-10.8,6.3-21.6,12.6-32.5,18.9c-0.2,0.1-0.4,0.2-0.6,0.3c-0.1-5.1-0.4-10.3-0.3-15.2
					c0-5.1,0-10.1,0-15.2c0-4.9,0-9.8,0-14.7c0-11.1,0.1-22.2,0.1-33.3c0-8,0.1-16,0.1-23.9c0-2.9,0.6-6.8,0.6-10.3
					c5.1-2.8,10-6.1,14.9-9c16.2-9.4,32.4-18.8,48.6-28.2c8.3-4.8,16.6-9.7,24.9-14.5c2.8-1.6,5.7-3.2,8.5-4.8
					C701.2,510.9,701.1,520.5,701.1,530.2z"/>
			</g>
			<g>
				<path class="st0" d="M114.8,562.7c0-6.2,0.1-12.4,0.1-18.6c0.1-12.9-20-12.9-20,0c0,6.2-0.1,12.4-0.1,18.6
					C94.8,575.6,114.8,575.6,114.8,562.7z"/>
			</g>
		</g>
	</g>
</g>
</svg>
