<?xml version="1.0" encoding="utf-8"?>
<!-- Generator: Adobe Illustrator 26.0.1, SVG Export Plug-In . SVG Version: 6.00 Build 0)  -->
<svg version="1.1" xmlns="http://www.w3.org/2000/svg" xmlns:xlink="http://www.w3.org/1999/xlink" x="0px" y="0px"
	 viewBox="0 0 816.2 886.2" style="enable-background:new 0 0 816.2 886.2;" xml:space="preserve">
<style type="text/css">
	.st0{fill:#FFFFFF;}
</style>
<g id="Layer_2">
</g>
<g id="Layer_1">
	<g>
		<g>
			<g>
				<path class="st0" d="M595.9,655.2c-45.9,0-91.9,0-137.8,0c-6.6,0-13.2,0-19.8,0c-19.3,0-19.4,30,0,30c45.9,0,91.9,0,137.8,0
					c6.6,0,13.2,0,19.8,0C615.2,685.3,615.3,655.2,595.9,655.2z"/>
			</g>
			<g>
				<path class="st0" d="M679.3,655.2c-8.1,0-16.1,0-24.2,0c-7.9,0-15.4,6.9-15,15c0.4,8.1,6.6,15,15,15c8.1,0,16.1,0,24.2,0
					c7.9,0,15.4-6.9,15-15C694,662.1,687.7,655.2,679.3,655.2z"/>
			</g>
		</g>
		<g>
			<g>
				<path class="st0" d="M790,380.4c-4.8-6.1-10.7-10.9-17.2-14.5c0-33.3,0-66.7,0-100c0-14.8,0.1-29.6,0-44.4
					c-0.2-26.6-14.4-51.4-38.8-63.1c-19.4-9.3-42.2-6.9-63.2-6.9c-34.5,0-69,0-103.5,0c-88.7,0-177.3,0-266,0c-28.3,0-56.5,0-84.8,0
					c-4.4,0-8.9-0.1-13.3,0c-30.5,0.5-58,20.6-66.2,50.4c-3.3,11.9-2.4,24.6-2.4,36.8c0,19.3,0,38.6,0,57.9c0,38.9,0,77.9,0,116.8
					c0,0.8,0,1.7,0,2.5c-33.1,8.5-63.5,27.1-85.5,54.3C6.4,523.1,0.5,598.9,36.2,657.2c29.6,48.4,82.7,77.2,138.1,77.6
					c0.7,0.1,1.4,0.2,2.2,0.2c31.7,0,63.3,0,95,0c66.8,0,133.6,0,200.5,0c60.9,0,121.7,0,182.6,0c15,0,30.1,0,45.1,0
					c31,0,58.6-16.1,69.4-46.2c3.9-10.8,3.8-21.9,3.8-33.1c0-14.1,0-28.1,0-42.2c0-29.9,0-59.8,0-89.8c0-0.9,0-1.8,0-2.7
					c8.9-4.9,16.5-12,21.9-21c7.3-12.2,8.2-25.3,8.2-39.1C802.8,434.2,807.6,402.7,790,380.4z M64.6,662.8
					c-37.9-45.7-42.2-112.8-11.7-163.4c30.4-50.5,91-77.8,149-66.3c66.4,13.2,114.5,72.1,115,139.6c-0.4,58.9-37.5,113.5-93.4,133.6
					C166.9,726.8,103,709.1,64.6,662.8z M752.7,664.9c-0.2,29.1-22.3,50-51,50.1c-13.1,0-26.2,0-39.3,0c-57.7,0-115.5,0-173.2,0
					c-66.7,0-133.4,0-200.2,0c-11.9,0-23.9-0.1-35.8-0.3c50.2-28.2,83.3-82.7,83.7-141.9c-0.5-67.9-43.2-129.1-107-152.5
					c-24.3-8.9-50.2-11.4-75.3-8.2c0-62.3,0-124.7,0-187c0-19.1,6.7-36.8,24.1-46.9c9.5-5.6,19.6-6.6,30.3-6.6c23,0,46.1,0,69.1,0
					c85.1,0,170.1,0,255.2,0c56.5,0,113-0.3,169.5,0c20,0.1,38.5,11,46.3,29.8c5.2,12.4,3.7,26.9,3.7,40.1c0,39.2,0,78.4,0,117.7
					c-2.8-0.4-5.7-0.7-8.5-0.7c-5.6-0.1-11.3,0-16.9,0c-26.5,0-53,0-79.5,0c-21.3,0-42.6,0-63.9,0c-32.7,0.1-63.6,16.5-78.6,46.3
					c-18,35.8-8.7,80.5,22.9,105.4c15.2,12,33.6,18.2,52.9,18.5c5.2,0.1,10.3,0,15.5,0c48.1,0,96.2,0,144.3,0c1.2,0,2.4,0,3.6,0
					c0.4,0,0.8,0,1.2-0.1c2.4-0.1,4.8-0.3,7.1-0.7C752.8,573.5,753,619.2,752.7,664.9z M782.7,472.5c-1.2,20.4-18.3,35.5-38.3,36
					c-39.9,0-79.7,0-119.6,0c-14.6,0-29.2,0.2-43.8,0c-34.5-0.4-64.1-27.8-65.2-62.8c-1.1-35.4,27.1-66.3,62.7-67.4
					c13.9-0.4,27.9,0,41.8,0c41.2,0,82.6-0.8,123.8,0c17.8,0.3,33.4,12.1,37.6,29.6c2.5,10.4,1,22.5,1,33
					C782.7,451.4,783.3,462.1,782.7,472.5z"/>
			</g>
			<g>
				<path class="st0" d="M614.6,440.7c-2.1-18.1-16.3-32.8-35.4-32.8c-19.4,0-35.5,16.3-35.6,35.6c-0.1,19.3,16.3,35.6,35.6,35.6
					c19,0,33.3-14.8,35.4-32.8c0.2-0.8,0.3-1.8,0.2-2.7C614.9,442.4,614.8,441.5,614.6,440.7z M563.7,443.4c0-20.2,30.2-20,31.1,0
					C593.9,463.4,563.7,463.7,563.7,443.4z"/>
			</g>
			<g>
				<path class="st0" d="M196.7,683.2c52.5-10,90.1-57.6,90.6-110.4c-0.5-47.3-30.1-89.6-74.6-106c-43.9-16.1-95.3-1.7-124.8,34.4
					c-29.8,36.5-34.2,89.1-9.7,129.7C102.7,671.3,150.4,692,196.7,683.2z M103.4,631.9c-25.1-29.8-28-73.9-7.9-107.1
					c19.8-32.7,59.3-50.5,96.9-42.9c43.3,8.7,74.3,46.9,74.8,90.9c-0.4,38.4-24.4,74.1-60.9,87.1
					C169.7,672.9,128.5,661.7,103.4,631.9z"/>
			</g>
		</g>
	</g>
</g>
</svg>
