<?xml version="1.0" encoding="utf-8"?>
<!-- Generator: Adobe Illustrator 26.0.1, SVG Export Plug-In . SVG Version: 6.00 Build 0)  -->
<svg version="1.1" id="Layer_1" xmlns="http://www.w3.org/2000/svg" xmlns:xlink="http://www.w3.org/1999/xlink" x="0px" y="0px"
	 viewBox="0 0 816.2 886.2" style="enable-background:new 0 0 816.2 886.2;" xml:space="preserve">
<style type="text/css">
	.st0{fill:#FFFFFF;}
</style>
<g id="Layer_2_00000008848955369591828100000013728087632157543080_">
</g>
<g>
	<path class="st0" d="M705.5,287.2c4.6-1.7,7.7-6.2,7.7-11.1V157.2c0-5-3.1-9.4-7.7-11.1l-95.1-35.7c-2.7-1-5.7-1-8.3,0L507,146.1
		c-4.6,1.7-7.7,6.2-7.7,11.1v47.5H214v-47.5c0-5-3.1-9.4-7.7-11.1l-95.1-35.7c-2.7-1-5.7-1-8.3,0L7.8,146.1
		c-4.6,1.7-7.7,6.2-7.7,11.1v118.9c0,5,3.1,9.4,7.7,11.1L95.1,320v245L7.7,597.8C3.1,599.5,0,604,0,608.9v118.9
		c0,5,3.1,9.4,7.7,11.1l95.1,35.7c1.3,0.5,2.8,0.8,4.2,0.8s2.8-0.2,4.2-0.8l95.1-35.7c4.6-1.7,7.7-6.2,7.7-11.1v-47.5h285.3v47.5
		c0,5,3.1,9.4,7.7,11.1l95.1,35.7c1.3,0.5,2.8,0.8,4.2,0.8s2.8-0.2,4.2-0.8l95.1-35.7c4.6-1.7,7.7-6.2,7.7-11.1V608.9
		c0-5-3.1-9.4-7.7-11.1L618.1,565V320L705.5,287.2z M606.2,631.9l-61.2-23l61.2-23l61.2,23L606.2,631.9z M107,631.9l-61.2-23
		l61.2-23l61.2,23L107,631.9z M118.9,201.1l71.3-26.7v93.5l-71.3,26.7V201.1z M199.1,595.1L118.9,565V320l80.2-30.1l37.6,37.6
		c-28.7,29.9-46.5,70.4-46.5,115s17.8,85.1,46.5,115L199.1,595.1z M214,442.5c0-78.7,64-142.6,142.6-142.6s142.6,64,142.6,142.6
		s-64,142.6-142.6,142.6S214,521.2,214,442.5z M523,442.5c0-44.6-17.8-85.1-46.5-115l37.6-37.6l80.2,30.1v245l-80.2,30.1l-37.6-37.6
		C505.3,527.6,523,487.1,523,442.5z M594.3,201.1v93.5L523,267.9v-93.5L594.3,201.1z M618.1,294.6v-93.5l71.3-26.7v93.5L618.1,294.6
		z M606.2,134.3l61.2,23l-61.2,23l-61.2-23L606.2,134.3z M499.2,228.6v42.6l-40.3,40.3c-28.3-22.1-63.7-35.4-102.3-35.4
		s-74,13.3-102.3,35.4L214,271.2v-42.6H499.2z M107,134.3l61.2,23l-61.2,23l-61.2-23L107,134.3z M23.8,174.4l71.3,26.7v93.5
		l-71.3-26.7V174.4z M23.8,626.1l71.3,26.7v93.5l-71.3-26.7V626.1z M118.9,746.3v-93.5l71.3-26.7v93.5L118.9,746.3z M214,656.5
		v-42.6l40.3-40.3C282.6,595.7,318,609,356.6,609s74-13.3,102.3-35.4l40.3,40.3v42.6H214z M523,626.1l71.3,26.7v93.5L523,719.6
		V626.1z M618.1,746.3v-93.5l71.3-26.7v93.5L618.1,746.3z"/>
	<path class="st0" d="M487.4,442.5c0-72.1-58.7-130.8-130.8-130.8s-130.8,58.7-130.8,130.8s58.7,130.8,130.8,130.8
		S487.4,514.6,487.4,442.5z M249.6,442.5c0-59,48-107,107-107s107,48,107,107s-48,107-107,107S249.6,501.5,249.6,442.5z"/>
	<path class="st0" d="M362.7,524l59.4-35.7c3.6-2.1,5.8-6,5.8-10.2v-71.3c0-4.2-2.2-8-5.8-10.2L362.7,361c-3.8-2.3-8.5-2.3-12.2,0
		l-59.4,35.7c-3.6,2.1-5.8,6-5.8,10.2v71.3c0,4.2,2.2,8,5.8,10.2l59.4,35.7c1.9,1.1,4,1.7,6.1,1.7S360.8,525.2,362.7,524z
		 M309.1,471.4v-57.9l47.5-28.5l47.5,28.5v57.9L356.6,500L309.1,471.4z"/>
</g>
</svg>
