<?xml version="1.0" encoding="utf-8"?>
<!-- Generator: Adobe Illustrator 26.0.1, SVG Export Plug-In . SVG Version: 6.00 Build 0)  -->
<svg version="1.1" id="Layer_1" xmlns="http://www.w3.org/2000/svg" xmlns:xlink="http://www.w3.org/1999/xlink" x="0px" y="0px"
	 viewBox="0 0 816.2 886.2" style="enable-background:new 0 0 816.2 886.2;" xml:space="preserve">
<style type="text/css">
	.st0{fill:#FFFFFF;}
</style>
<g id="Layer_2_00000124142023276205152500000003414077633726071960_">
</g>
<g id="Layer_1_00000034076738368646865340000016353286763274529192_">
	<g>
		<g>
			<g>
				<path class="st0" d="M150.2,291.8c5.3-0.2,9.8-4.3,9.8-9.8c0-4,0-8,0-12c0-5.1-4.5-10-9.8-9.8s-9.8,4.3-9.8,9.8c0,4,0,8,0,12
					C140.4,287.2,144.9,292.1,150.2,291.8z"/>
			</g>
			<g>
				<path class="st0" d="M787.6,365.1c-11.7-47.1-37.1-89.4-68.5-125.9c-15.4-18-32-35.2-44.6-55.3c-11.6-18.4-17.3-39.4-19.6-60.9
					c-1.3-12.6-1.9-25.5-1-38.1c0.6-7.8-8.6-11.5-14.7-8.4c-54.8,28-87.5,83.3-93.7,143.5c-0.4,3.6-0.6,7.1-0.8,10.7
					c-12.3-4.6-27.3-2.8-40-2.8c-26,0-52,0-78,0c-70.2,0-140.4,0-210.7,0c-26.3,0-52.7,0-79,0c-13.9,0-31.5-2.3-44.2,4.4
					c-19.7,10.5-19.7,29.9-19.7,48.8c0,21.2,0,42.5,0,63.7c0,68,0,135.9,0,203.9c0,60.8,0,121.7,0,182.5c0,12.3-0.3,24.7,0,37
					c0.5,18.4,12.7,34.6,31.5,37.5c4.8,0.7,9.7,0.5,14.5,0.5c56.7,0,113.5,0,170.2,0c57.4,0,114.9,0,172.3,0c3.2,0,6.4,0,9.6,0
					c11.5,2.4,23.2,4,35,4.6c63.2,3.2,126.1-21.4,170.6-66.3c51-51.6,73.2-124.6,61.9-195.8c2.6-2.7,5.1-5.4,7.6-8.3
					C788.3,491.5,802.3,427.3,787.6,365.1z M510.3,247.3c5.9,0,11.7,0,17.6,0c1,0,2-0.1,3,0c3.7,0.2,7,1,10.2,3.2
					c3.4,2.4,2.8,1.9,2.8,6.2c0,4.3,0,8.5,0,12.8c0,5.5,0.1,11.3-0.1,17.3c-0.3,4.3-0.8,8.6-1.5,12.8c-0.6,3.9-1.5,8.5-2.9,12.9
					c-1,2.5-2.1,5-3.5,7.3c-2.6,4.2-6.5,7.2-11.1,7.5c-5,0.1-10-2.9-13.2-7.1c-1.3-1.6-2.4-3.3-3.4-5.1c-1.8-3.3-3.1-6.9-4.2-10
					c-1.5-4.2-2.7-8.6-3.7-13c-0.6-2.9-1.1-5.7-1.6-8.4c-2.1-11.9-3.1-24.1-3.2-36.3C500.3,247.3,505.3,247.3,510.3,247.3z
					 M92.6,265.2c0.5-10.9,8.5-17.8,19.1-17.9c14.3-0.2,28.5,0,42.8,0c62.4,0,124.8,0,187.2,0c42.8,0,85.7,0,128.5,0
					c-17.1,21.5-31.2,45.3-41.4,70.7c0-16,0-31.9,0-47.9c0-12.6-19.5-12.6-19.5,0c0,27.9,0,55.7,0,83.6c-15.9,0-31.8,0-47.7,0
					c0-27.9,0-55.7,0-83.6c0-12.6-19.5-12.6-19.5,0c0,27.9,0,55.7,0,83.6c-11.5,0-23.1,0-34.6,0c-4.4,0-8.7,0-13.1,0
					c0-27.9,0-55.7,0-83.6c0-12.6-19.5-12.6-19.5,0c0,27.9,0,55.7,0,83.6c-15.9,0-31.8,0-47.7,0c0-27.9,0-55.7,0-83.6
					c0-12.6-19.5-12.6-19.5,0c0,27.9,0,55.7,0,83.6c-15.9,0-31.8,0-47.7,0c0-11.6,0-23.2,0-34.8c0-12.6-19.5-12.6-19.5,0
					c0,11.6,0,23.2,0,34.8c-5.1,0-10.3,0-15.4,0c-10.8,0-21.6,0-32.4,0c0-26.4,0-52.9,0-79.3C92.6,271.3,92.5,268.2,92.6,265.2z
					 M438.7,517.7c0.3,0.5,0.6,0.9,0.9,1.4c0.8,1.2,1.6,2.4,2.4,3.6c0.2,0.4,0.5,0.7,0.7,1.1c0.6,0.8,1.1,1.7,1.7,2.6
					c0.2,0.3,0.4,0.5,0.6,0.8c4.3,6,9.1,11.9,14.3,17.6c38.6,42.1,96.3,65.9,153.4,62.2c10.7-0.7,21.2-2.3,31.6-4.7
					c0.9-0.2,1.8-0.4,2.7-0.6c-7.7,61-58,111.2-120.8,115.2c-71.8,4.6-136.3-51.3-139.8-123.6c-1.8-38.1,12.8-73.9,39.2-100.4
					C429.3,501.3,433.7,509.6,438.7,517.7z M92.6,519.5c15.9,0,31.9,0,47.8,0c0,39.4,0,78.8,0,118.1c0,0.7,0,1.5,0,2.2
					c0,2.2,0,4.3,0,6.5c-9.7,0-19.3,0-29,0c-6.3,0-12.6,0-18.9,0c0-9.6,0-19.2,0-28.8C92.6,584.9,92.6,552.2,92.6,519.5z
					 M111.5,786.5c-17.9-0.2-18.9-15-18.9-28.3c0-30.8,0-61.6,0-92.4c15.9,0,31.9,0,47.8,0c0,34,0,67.9,0,101.9c0,6.2,0,12.3,0,18.5
					c0,0.1,0,0.2,0,0.3C130.8,786.6,121.2,786.7,111.5,786.5z M140.4,465.2c0,11.6,0,23.2,0,34.8c-9.7,0-19.3,0-29,0
					c-6.3,0-12.6,0-18.9,0c0-28.9,0-57.8,0-86.7c0-13.4,0-26.8,0-40.1c34.9,0,69.7,0,104.6,0c60.8,0,121.6,0,182.5,0
					c11.1,0,22.2,0,33.3,0c-0.8,4.9-1.6,9.8-2.1,14.7c-0.7,0.4-1.4,0.8-2.1,1.2c-0.7,0.4-1.3,0.7-2,1.1c-1.4,0.8-2.9,1.7-4.3,2.5
					c-0.7,0.4-1.4,0.9-2.1,1.3c-1.5,0.9-2.9,1.8-4.4,2.8c-0.5,0.3-1.1,0.7-1.6,1c-4.1,2.7-8.2,5.6-12.1,8.6
					c-0.1,0.1-0.2,0.2-0.3,0.3c-31.8,24.2-57.1,56.6-72.5,93.4c-5,0-9.9,0-14.9,0c0-27.9,0-55.7,0-83.6c0-12.6-19.5-12.6-19.5,0
					c0,27.9,0,55.7,0,83.6c-15.9,0-31.8,0-47.7,0c0-27.9,0-55.7,0-83.6c0-12.6-19.5-12.6-19.5,0c0,27.9,0,55.7,0,83.6
					c-15.9,0-31.8,0-47.7,0c0-11.6,0-23.2,0-34.8C160,452.7,140.4,452.7,140.4,465.2z M297.5,537.5c-1.6,7.3-2.8,14.6-3.6,21.9
					c-3.2-9-19-7.9-19,3.4c0,27.9,0,55.7,0,83.6c-15.9,0-31.8,0-47.7,0c0-27.9,0-55.7,0-83.6c0-12.6-19.5-12.6-19.5,0
					c0,27.9,0,55.7,0,83.6c-15.9,0-31.8,0-47.7,0c0-2.2,0-4.3,0-6.5c0-37.2,0-74.4,0-111.6c0-2.9,0-5.8,0-8.7c42,0,83.9,0,125.9,0
					c5.4,0,10.9,0,16.3,0C300.4,525.4,298.8,531.4,297.5,537.5z M350.7,786.5c-18.8,0-37.6,0-56.3,0c0-0.1,0-0.2,0-0.3
					c0-31.1,0-62.2,0-93.3c0-12.6-19.5-12.6-19.5,0c0,31.1,0,62.2,0,93.3c0,0.1,0,0.2,0,0.3c-15.9,0-31.8,0-47.7,0
					c0-0.1,0-0.2,0-0.3c0-31.1,0-62.2,0-93.3c0-12.6-19.5-12.6-19.5,0c0,31.1,0,62.2,0,93.3c0,0.1,0,0.2,0,0.3
					c-15.9,0-31.8,0-47.7,0c0-0.1,0-0.2,0-0.3c0-40.1,0-80.2,0-120.3c42,0,83.9,0,125.9,0c7,0,14.1,0,21.1,0
					c7.4,19.6,17.5,38.1,30.2,55c6.3,8.3,13.1,16.2,20.5,23.5c14.3,14.5,30.6,27.1,48.6,37.4c2.9,1.7,5.9,3.2,9,4.8
					C393.7,786.5,372.2,786.5,350.7,786.5z M675.9,716.3c-35.9,43.4-88.8,71.2-145.1,74.7c-30.9,1.9-61.6-3.1-89.7-14.4
					c-55-22.4-97.6-67.5-117.4-122.6c-0.2-1-0.5-2-1-2.9c-4.4-13-7.6-26.6-9.4-40.6c-0.2-1.3-0.3-2.6-0.5-3.9c0,0,0,0,0-0.1
					c-0.9-8.6-1.2-17.3-1-26.1c0.9-28.1,7.4-55.8,19.1-81.1c17-36,44.4-66.7,78.5-88c-0.1,20.8,2.7,41.6,8.7,61.6
					c-61.9,54.3-68.3,151.1-13.4,213.2c53.9,61.1,149.6,66.4,211,13.6c30.6-26.3,48.7-64.4,51.4-104.4c2-0.7,3.9-1.5,5.8-2.3
					c0.2-0.1,0.5-0.2,0.7-0.3c0.9-0.4,1.8-0.7,2.6-1.1c16.1-7,31.3-16.1,45-27.1C726.8,618.5,710.9,674.1,675.9,716.3z M722.1,537.6
					c-0.3,0.2-0.5,0.4-0.7,0.6c-11.6,11.2-24.6,20.8-38.6,28.5c-0.5,0.3-1,0.6-1.5,0.8s-0.9,0.5-1.4,0.7
					c-9.3,4.8-18.9,8.8-28.9,11.9c-60.2,17.8-125.7,1.4-170.3-41.5c-26.9-26.2-43.6-59.9-49.4-96.3c-2.4-15.6-2.9-31.4-1.6-47.4
					c0-0.1,0-0.2,0-0.3c1.3-6.8,1.5-13.9,2.8-20.8c2.6-13.9,6.4-27.5,11.3-40.8c7.5-20.5,17.8-40.1,30.2-58.2
					c0.1-0.1,0.2-0.3,0.3-0.4c0.9-1.2,1.7-2.5,2.6-3.7c1.6,17.4,5.3,34.8,12.5,50.1c5.1,10.9,13.7,21.4,25.9,24.6
					c0.1,0,0.2,0.1,0.4,0.1c4.9,1.4,10.4,1.5,16.3,0.1c6-1.5,10.9-4.6,14.8-8.6c0.1-0.1,0.1-0.1,0.2-0.2l0.1-0.1
					c0.6-0.6,1.2-1.3,1.7-2c13.5-15.9,14.5-40.9,14.5-60.7c0-0.3,0-0.5,0-0.8c0-6.3,0.2-12.7,0.1-19.1c0.5-29.6,2.7-59.1,15.3-86.6
					c12.4-26.8,30.9-49.3,55-65.4c0.2,25.9,4.9,52.6,15.2,75.7c9.6,21.5,25.6,39.9,41,57.5c16.1,18.4,31.9,36.7,45,57.4
					c15.1,24,27,49.8,33.8,77.4c11.8,50.4,3,102.2-27.1,144.5C735.8,523,729.3,530.6,722.1,537.6z"/>
			</g>
			<g>
				<path class="st0" d="M664.2,510.3c-14.5,8-30,12.1-46.6,10.8c-12.5-1-12.5,18.6,0,19.5c19.9,1.5,39.1-3.9,56.4-13.5
					C685.1,521.1,675.3,504.2,664.2,510.3z"/>
			</g>
			<g>
				<path class="st0" d="M707,395.6c7.3,31.1,4.6,63.5-14.3,90c-7.3,10.2,9.6,20,16.9,9.9c21.9-30.6,24.6-69.3,16.3-105
					C723,378.2,704.2,383.4,707,395.6z"/>
			</g>
		</g>
	</g>
</g>
</svg>
