<?xml version="1.0" encoding="utf-8"?>
<!-- Generator: Adobe Illustrator 26.0.1, SVG Export Plug-In . SVG Version: 6.00 Build 0)  -->
<svg version="1.1" id="Layer_1" xmlns="http://www.w3.org/2000/svg" xmlns:xlink="http://www.w3.org/1999/xlink" x="0px" y="0px"
	 viewBox="0 0 816.2 886.2" style="enable-background:new 0 0 816.2 886.2;" xml:space="preserve">
<style type="text/css">
	.st0{fill:#FFFFFF;}
</style>
<g id="Layer_2_00000060736528730553577550000015316877741454071722_">
</g>
<g>
	<path class="st0" d="M435.6,522c43.8,0,79.5-35.7,79.5-79.5c0-43.8-35.7-79.5-79.5-79.5c-43.8,0-79.5,35.7-79.5,79.5
		C356.1,486.3,391.8,522,435.6,522z M435.6,383.8c32.4,0,58.7,26.3,58.7,58.7c0,32.4-26.3,58.7-58.7,58.7
		c-32.4,0-58.7-26.3-58.7-58.7C376.9,410.1,403.2,383.8,435.6,383.8z"/>
	<path class="st0" d="M435.6,186.1c34.2,0,62.1-27.8,62.1-62.1c0-34.2-27.9-62.1-62.1-62.1c-34.2,0-62.1,27.8-62.1,62.1
		C373.5,158.2,401.4,186.1,435.6,186.1z M435.6,82.7c22.8,0,41.3,18.5,41.3,41.3c0,22.8-18.5,41.3-41.3,41.3
		c-22.8,0-41.3-18.5-41.3-41.3C394.3,101.2,412.8,82.7,435.6,82.7z"/>
	<path class="st0" d="M435.6,698.9c-34.2,0-62.1,27.8-62.1,62.1s27.8,62.1,62.1,62.1c34.2,0,62.1-27.8,62.1-62.1
		S469.8,698.9,435.6,698.9z M435.6,802.3c-22.8,0-41.3-18.5-41.3-41.3c0-22.8,18.5-41.3,41.3-41.3c22.8,0,41.3,18.5,41.3,41.3
		C476.9,783.8,458.4,802.3,435.6,802.3z"/>
	<path class="st0" d="M660.8,279.3c15.9,0,31.8-6.1,43.9-18.2c11.7-11.7,18.2-27.3,18.2-43.9c0-16.6-6.5-32.2-18.2-43.9
		c-24.2-24.2-63.6-24.2-87.8,0c-11.7,11.7-18.2,27.3-18.2,43.9c0,16.6,6.5,32.2,18.2,43.9C629,273.3,644.9,279.3,660.8,279.3z
		 M631.6,188.1c8-8,18.6-12.1,29.2-12.1c10.6,0,21.1,4,29.2,12.1c7.8,7.8,12.1,18.2,12.1,29.2c0,11-4.3,21.4-12.1,29.2
		c-16.1,16.1-42.3,16.1-58.4,0c-7.8-7.8-12.1-18.2-12.1-29.2C619.6,206.3,623.9,195.9,631.6,188.1z"/>
	<path class="st0" d="M210.4,605.6c-16.6,0-32.2,6.5-43.9,18.2c-24.2,24.2-24.2,63.6,0,87.8c12.1,12.1,28,18.2,43.9,18.2
		c15.9,0,31.8-6.1,43.9-18.2c11.7-11.7,18.2-27.3,18.2-43.9c0-16.6-6.5-32.2-18.2-43.9C242.5,612.1,227,605.6,210.4,605.6z
		 M239.6,696.9c-16.1,16.1-42.3,16.1-58.4,0c-16.1-16.1-16.1-42.3,0-58.4c7.8-7.8,18.2-12.1,29.2-12.1c11,0,21.4,4.3,29.2,12.1
		c7.8,7.8,12.1,18.2,12.1,29.2C251.6,678.7,247.3,689.1,239.6,696.9z"/>
	<path class="st0" d="M754.1,380.4c-34.2,0-62.1,27.8-62.1,62.1c0,34.2,27.9,62.1,62.1,62.1c34.2,0,62.1-27.8,62.1-62.1
		C816.2,408.3,788.4,380.4,754.1,380.4z M754.1,483.8c-22.8,0-41.3-18.5-41.3-41.3c0-22.8,18.5-41.3,41.3-41.3
		c22.8,0,41.3,18.5,41.3,41.3C795.4,465.3,776.9,483.8,754.1,483.8z"/>
	<path class="st0" d="M179.2,442.5c0-34.2-27.8-62.1-62.1-62.1c-34.2,0-62.1,27.8-62.1,62.1c0,34.2,27.8,62.1,62.1,62.1
		C151.3,504.6,179.2,476.7,179.2,442.5z M117.1,483.8c-22.8,0-41.3-18.5-41.3-41.3c0-22.8,18.5-41.3,41.3-41.3
		c22.8,0,41.3,18.5,41.3,41.3C158.3,465.3,139.8,483.8,117.1,483.8z"/>
	<path class="st0" d="M616.9,623.8c-11.7,11.7-18.2,27.3-18.2,43.9c0,16.6,6.5,32.2,18.2,43.9c12.1,12.1,28,18.2,43.9,18.2
		c15.9,0,31.8-6,43.9-18.2c11.7-11.7,18.2-27.3,18.2-43.9c0-16.6-6.5-32.2-18.2-43.9C680.5,599.6,641.1,599.6,616.9,623.8z
		 M690,696.9c-16.1,16.1-42.3,16.1-58.4,0c-7.8-7.8-12.1-18.2-12.1-29.2c0-11,4.3-21.4,12.1-29.2c16.1-16.1,42.3-16.1,58.4,0
		c7.8,7.8,12.1,18.2,12.1,29.2C702.1,678.7,697.8,689.1,690,696.9z"/>
	<path class="st0" d="M210.4,279.3c16.6,0,32.2-6.5,43.9-18.2c11.7-11.7,18.2-27.3,18.2-43.9c0-16.6-6.5-32.2-18.2-43.9
		c-24.2-24.2-63.6-24.2-87.8,0c-24.2,24.2-24.2,63.6,0,87.8C178.2,272.9,193.8,279.3,210.4,279.3z M181.2,188.1
		c8-8,18.6-12.1,29.2-12.1c10.6,0,21.1,4,29.2,12.1c7.8,7.8,12.1,18.2,12.1,29.2c0,11-4.3,21.4-12.1,29.2
		c-7.8,7.8-18.2,12.1-29.2,12.1c-11,0-21.4-4.3-29.2-12.1C165.1,230.4,165.1,204.2,181.2,188.1z"/>
	<path class="st0" d="M601.7,488c2,2,4.7,3,7.4,3c2.7,0,5.3-1,7.4-3l38.2-38.2c4.1-4.1,4.1-10.7,0-14.7L616.4,397
		c-4.1-4.1-10.7-4.1-14.7,0c-4.1,4.1-4.1,10.7,0,14.7l20.5,20.5h-60c-2.2-27.3-13-52.1-29.7-71.8l42.4-42.4v28.8
		c0,5.7,4.7,10.4,10.4,10.4c5.7,0,10.4-4.7,10.4-10.4v-54c0-5.7-4.7-10.4-10.4-10.4h-54c-5.7,0-10.4,4.7-10.4,10.4
		c0,5.7,4.7,10.4,10.4,10.4h29l-42.5,42.5c-19.7-16.7-44.5-27.5-71.7-29.8v-60l20.3,20.3c2,2,4.7,3,7.4,3c2.7,0,5.3-1,7.4-3
		c4.1-4.1,4.1-10.7,0-14.7l-38.2-38.2c-4.1-4.1-10.7-4.1-14.7,0L390,261.6c-4.1,4.1-4.1,10.7,0,14.7c4.1,4.1,10.7,4.1,14.7,0
		l20.5-20.5v60.1c-27.3,2.2-52.1,13.1-71.8,29.8l-42.6-42.6h29c5.7,0,10.4-4.7,10.4-10.4c0-5.7-4.7-10.4-10.4-10.4h-54
		c-5.7,0-10.4,4.7-10.4,10.4v54c0,5.7,4.7,10.4,10.4,10.4c5.7,0,10.4-4.7,10.4-10.4V318l42.5,42.5C322,380.2,311.2,405,309,432.2
		h-60.2l20.5-20.5c4.1-4.1,4.1-10.7,0-14.7c-4.1-4.1-10.7-4.1-14.7,0l-38.2,38.2c-4.1,4.1-4.1,10.7,0,14.7l38.2,38.2
		c2,2,4.7,3,7.4,3c2.7,0,5.3-1,7.4-3c4.1-4.1,4.1-10.7,0-14.7L249,453H309c2.2,27.2,13,52,29.7,71.6l-42.6,42.6v-29
		c0-5.7-4.7-10.4-10.4-10.4c-5.7,0-10.4,4.7-10.4,10.4v54c0,5.7,4.7,10.4,10.4,10.4h54c5.7,0,10.4-4.7,10.4-10.4
		c0-5.7-4.7-10.4-10.4-10.4H311l42.5-42.5c19.7,16.7,44.5,27.5,71.7,29.7v60.1l-20.5-20.5c-4.1-4.1-10.7-4.1-14.7,0
		c-4.1,4.1-4.1,10.7,0,14.7l38.2,38.2c2,2,4.7,3,7.4,3c2.7,0,5.3-1,7.4-3l38.2-38.2c4.1-4.1,4.1-10.7,0-14.7
		c-4.1-4.1-10.7-4.1-14.7,0L446,629v-60c27.2-2.2,51.9-13,71.6-29.6l42.4,42.4h-28.8c-5.7,0-10.4,4.7-10.4,10.4
		c0,5.7,4.7,10.4,10.4,10.4h54c5.7,0,10.4-4.7,10.4-10.4v-54c0-5.7-4.7-10.4-10.4-10.4c-5.7,0-10.4,4.7-10.4,10.4v29l-42.5-42.5
		c16.8-19.7,27.6-44.5,29.8-71.7H622l-20.3,20.3C597.6,477.4,597.6,484,601.7,488z M435.6,336.2c29.3,0,55.8,11.9,75.1,31.1
		c0,0,0,0.1,0.1,0.1c0,0,0.1,0,0.1,0.1c19.1,19.1,30.9,45.4,31.1,74.5c0,0.2-0.1,0.4-0.1,0.6c0,0.2,0,0.4,0.1,0.6
		c-0.2,29-12.1,55.4-31.2,74.5c0,0-0.1,0-0.1,0.1c0,0,0,0,0,0c-19.2,19.2-45.7,31-75,31c-58.6,0-106.3-47.7-106.3-106.3
		S377,336.2,435.6,336.2z"/>
</g>
</svg>
