<?xml version="1.0" encoding="utf-8"?>
<!-- Generator: Adobe Illustrator 26.0.1, SVG Export Plug-In . SVG Version: 6.00 Build 0)  -->
<svg version="1.1" xmlns="http://www.w3.org/2000/svg" xmlns:xlink="http://www.w3.org/1999/xlink" x="0px" y="0px"
	 viewBox="0 0 816.2 886.2" style="enable-background:new 0 0 816.2 886.2;" xml:space="preserve">
<style type="text/css">
	.st0{fill:#FFFFFF;}
</style>
<g id="Layer_2">
</g>
<g id="Layer_1">
	<g>
		<g>
			<g>
				<path class="st0" d="M550.2,333c-4.4,0-8.2,3.7-8.2,8.2c0,4.8,0,9.7,0,14.5c0,4.4,3.8,8.2,8.2,8.2c4.4,0,8.2-3.7,8.2-8.2
					c0-4.8,0-9.7,0-14.5C558.4,336.8,554.6,333,550.2,333z"/>
			</g>
			<g>
				<path class="st0" d="M558.4,303c0-3.3-2.5-7.3-6-7.9c-25.4-4.5-50.5-10.3-75.2-17.9c-12.7-3.9-25.2-8.3-37.6-13.2
					c-5.5-2.2-11-4.5-16.4-7c-5-2.3-12-7.5-17.7-7.5c-5.6,0-12.6,5.2-17.7,7.5c-5.4,2.4-10.9,4.8-16.4,7
					c-12.3,4.9-24.9,9.3-37.6,13.2c-24.6,7.6-49.8,13.4-75.2,17.9c-3.5,0.6-6,4.5-6,7.9c0,26.3,0,52.6,0,79c0,25.3-0.8,50.7-0.3,76
					c0.5,25.7,4.8,50,13.9,74.1c8.2,21.7,21.6,43,37.2,60c30.2,33,75,59.4,121.4,49.7c47.7-10,84.5-44,108-85.6
					c13.4-23.7,23.2-51.1,24.8-78.5c1.7-29.4,0.6-59.2,0.6-88.6c0-10.5-16.4-10.5-16.4,0c0,24.2,0.3,48.4-0.1,72.6
					c-0.3,23.4-4.4,47.1-14,68.7c-17.3,38.7-48.7,78-90.5,91.2c-20.8,6.6-40.4,7-61.3,0.7c-21.3-6.4-39.6-19.9-55-35.5
					c-31.9-32.5-50.6-76.9-52.1-122.3c-0.9-26.6,0.2-53.3,0.2-79.9c0-25,0-49.9,0-74.9c47.1-8.8,93.1-22.4,136.4-43.1
					c43.3,20.6,89.3,34.3,136.4,43.1c0,2.3,0,4.5,0,6.8c0,10.5,16.4,10.5,16.4,0C558.4,312,558.4,307.5,558.4,303z"/>
			</g>
			<g>
				<path class="st0" d="M405.6,498.2c14.8,0,26.8-12,26.8-26.8v-31.6c8.8-7.5,14.4-18.7,14.4-31.3c0-22.7-18.4-41.2-41.2-41.2
					s-41.2,18.4-41.2,41.2c0,12.5,5.6,23.7,14.4,31.3v31.6C378.9,486.2,390.8,498.2,405.6,498.2z"/>
			</g>
			<g>
				<path class="st0" d="M746.9,485.6c-7,0-13.1,4-16.1,9.9c-10,0-20,0-29.9,0c0-6.1,0-12.3,0-18.4c0-4.4-3.7-8.2-8.2-8.2
					c-25.8,0-51.5,0-77.3,0c0.5-13.1,0.3-26.2,0.3-39.3c0-3.1,0-6.2,0-9.3c16.5,0,33,0,49.5,0c4.9,14.6,18.9,25.5,35,25.5
					c19.9,0,35.3-16,36.7-35.3c0.1-0.5,0.1-1,0.1-1.5c0-0.5,0-1.1-0.1-1.5c-1.4-19.3-16.8-35.3-36.7-35.3
					c-18.3,0-33.9,14.1-36.5,31.8c-16,0-32,0-48,0c0-14,0-28,0-42c16.8,0,33.6,0,50.4,0c4.4,0,8.2-3.7,8.2-8.2c0-15.5,0-30.9,0-46.4
					c18.8,0,37.7,0,56.5,0c3,5.9,9.1,9.9,16.1,9.9c10,0,18.1-8.1,18.1-18.1c0-10-8.1-18.1-18.1-18.1c-7,0-13.1,4-16.1,9.9
					c-21.6,0-43.1,0-64.7,0c-4.4,0-8.2,3.7-8.2,8.2c0,15.5,0,30.9,0,46.4c-14.1,0-28.1,0-42.2,0c0-6.7,0-13.4,0-20.2
					c0-23.9,0-47.8,0-71.7c0-4.8-3.8-7.7-8.2-8.2c-57.6-6.1-115.7-19.3-168.2-44.2c-5.4-2.6-10.7-5.2-15.9-8
					c-5.1-2.7-10.5-7.2-16.3-7.7c-9.2-0.8-18.5,7.3-26.4,11.4c-24,12.2-49.3,21.6-75.2,29.1c-33.3,9.6-67.5,15.9-101.9,19.5
					c-4.4,0.5-8.2,3.4-8.2,8.2c0,21.5,0,43.1,0,64.6c-12.4,0-24.8,0-37.2,0c0-15.5,0-30.9,0-46.4c0-4.4-3.7-8.2-8.2-8.2
					c-21.6,0-43.1,0-64.7,0c-3-5.9-9.1-9.9-16.1-9.9c-10,0-18.1,8.1-18.1,18.1c0,10,8.1,18.1,18.1,18.1c7,0,13.1-4,16.1-9.9
					c18.8,0,37.7,0,56.5,0c0,15.5,0,30.9,0,46.4c0,4.4,3.7,8.2,8.2,8.2c15.1,0,30.3,0,45.4,0c0,0.9,0,1.8,0,2.7
					c0,10.5,16.4,10.5,16.4,0c0-25.5,0-50.9,0-76.4c55.9-6.5,111.4-19.5,162.8-43c5.5-2.5,10.9-5.1,16.2-7.9c2.9-1.5,5.7-3,8.6-4.6
					c1.3-0.7,6.8-3.4,5.9-3.7c0.1,0,0.2,0,0.3,0c-0.5,0.4,3.4,2.2,4.5,2.8c5.7,3.2,11.5,6.2,17.3,9.1c24.7,12.1,50.6,21.6,77.1,29
					c31,8.7,62.8,14.5,94.8,18.3c0,50.8,0,101.7,0,152.5c0,19.6,0.6,39.4-0.2,59c-2,49.6-21.8,98.9-52.9,137.4
					c-34.5,42.8-84.3,74.2-140.6,74.6c0,0,0,0-0.1,0c0,0-0.1,0-0.1,0c0,0,0,0-0.1,0c-62.7-0.4-117.6-39.3-151.8-89.9
					c-17.6-26-30.3-55.1-37-85.8c-4.4-20.4-4.9-40.8-4.9-61.5c0-18.9,0-37.9,0-56.8c0-10.5-16.4-10.5-16.4,0c0,4.4,0,8.9-0.1,13.4
					c-14.3,0-28.6,0-42.9,0c-2.5-17.7-18.1-31.8-36.5-31.8c-19.9,0-35.3,16-36.7,35.3c-0.1,0.5-0.1,1-0.1,1.5c0,0.5,0,1.1,0.1,1.5
					c1.4,19.3,16.8,35.3,36.7,35.3c16.1,0,30.1-10.8,35-25.5c14.7,0,29.5,0,44.2,0c-0.3,16.2-0.5,32.5,0.3,48.6c-24,0-48,0-71.9,0
					c-4.4,0-8.2,3.7-8.2,8.2c0,6.1,0,12.3,0,18.4c-10,0-20,0-29.9,0c-3-5.9-9.1-9.9-16.1-9.9c-10,0-18.1,8.1-18.1,18.1
					c0,10,8.1,18.1,18.1,18.1c7,0,13.1-4,16.1-9.9c12.7,0,25.4,0,38.1,0c4.4,0,8.2-3.7,8.2-8.2c0-6.1,0-12.3,0-18.4
					c21.6,0,43.3,0,64.9,0c0.7,7.2,1.7,14.3,3,21.3c0.6,3.4,1.3,6.7,2.1,10c-7.7,0-15.4,0-23,0c-6.3,0-12.5,0-18.8,0
					c-3.2,0-7.2-0.6-10.2,0.7c-3.1,1.3-5.5,4.8-7.8,7.2c-4.2,4.6-8.4,9.1-12.6,13.7c-3.9,4.2-7.8,8.5-11.8,12.7
					c-2.7,3-5.2,5.2-5.6,9.6c-0.8,8.2-0.4,16.8-0.1,25.2c-15.8,3.7-27.2,17.8-28.4,34.3c-0.1,0.5-0.1,1-0.1,1.5c0,0.5,0,1.1,0.1,1.5
					c1.4,19.3,16.8,35.3,36.7,35.3c20,0,36.8-16.8,36.8-36.8c0-17.2-12.4-32-28.6-35.9c0-7.4,0-14.9,0-22.3
					c9.4-10.2,18.7-20.3,28.1-30.5c16.5,0,33,0,49.6,0c0.1,0,0.1,0,0.2,0c16.4,54.1,51.1,103.5,97.7,135.2
					c30,20.4,65.2,32.4,101.6,32.7c0,0,0.1,0,0.1,0c0.1,0,0.2,0,0.3,0c0,0,0.1,0,0.1,0c96.1-0.7,173.2-80.7,199.7-169.3
					c1.2,0.9,2.8,1.5,4.7,1.5c16.5,0,33,0,49.6,0c9.4,10.2,18.7,20.3,28.1,30.5c0,7.4,0,14.9,0,22.3c-16.2,3.8-28.6,18.6-28.6,35.9
					c0,20,16.8,36.8,36.8,36.8c19.9,0,35.3-16,36.7-35.3c0.1-0.5,0.1-1,0.1-1.5c0-0.5,0-1.1-0.1-1.5c-1.2-16.6-12.7-30.7-28.5-34.3
					c0.1-7.7,0.1-15.4,0-23.1c-0.2-8.7-8.3-14.6-13.8-20.6c-6.9-7.5-13.4-16.2-21.1-22.8c-5.9-5.2-19.3-2.6-26.5-2.6
					c-10.9,0-21.7,0-32.6,0c-0.3,0-0.5,0-0.8,0c0.9-4,1.8-8,2.5-11.9c1.2-6.5,2-13,2.5-19.5c23.4,0,46.7,0,70.1,0
					c0,6.1,0,12.3,0,18.4c0,4.4,3.7,8.2,8.2,8.2c12.7,0,25.4,0,38.1,0c3,5.9,9.1,9.9,16.1,9.9c10,0,18.1-8.1,18.1-18.1
					C765,493.7,756.9,485.6,746.9,485.6z M699.3,388.5c11.8-0.6,21,8.9,21.4,20.4c-0.4,11.2-9,20.5-20.5,20.5
					c-11.2,0-20.5-9.3-20.5-20.5C679.8,398,688.5,389,699.3,388.5z M116.9,429.3c-11.8,0.6-21-8.9-21.4-20.4
					c0.4-11.2,9-20.5,20.5-20.5c11.2,0,20.5,9.3,20.5,20.5C136.4,419.7,127.7,428.8,116.9,429.3z M140.5,621.6
					c0,10.8-8.7,19.9-19.5,20.4c-11.8,0.6-21-8.9-21.4-20.4c0.4-11.2,9-20.5,20.5-20.5C131.2,601.1,140.5,610.4,140.5,621.6z
					 M716.6,621.6c-0.4,11.2-9,20.5-20.5,20.5c-11.2,0-20.5-9.3-20.5-20.5c0-10.8,8.7-19.9,19.5-20.4
					C707,600.6,716.2,610.1,716.6,621.6z"/>
			</g>
		</g>
	</g>
</g>
</svg>
