<?xml version="1.0" encoding="utf-8"?>
<!-- Generator: Adobe Illustrator 26.0.1, SVG Export Plug-In . SVG Version: 6.00 Build 0)  -->
<svg version="1.1" id="Layer_1" xmlns="http://www.w3.org/2000/svg" xmlns:xlink="http://www.w3.org/1999/xlink" x="0px" y="0px"
	 viewBox="0 0 816.2 886.2" style="enable-background:new 0 0 816.2 886.2;" xml:space="preserve">
<style type="text/css">
	.st0{fill:#FFFFFF;}
</style>
<g id="Layer_2_00000182519432214878260800000017778216285492871340_">
</g>
<g>
	<path class="st0" d="M692.8,324.2v-58h27.5c5.2,14.6,19.1,25.2,35.4,25.2c20.8,0,37.8-16.9,37.8-37.8s-16.9-37.8-37.8-37.8
		c-16.4,0-30.2,10.6-35.4,25.2h-40.1c-7,0-12.6,5.6-12.6,12.6v57c-23.3-10.6-48.7-17-75.5-18.6V264c14.6-5.2,25.2-19.1,25.2-35.4
		c0-20.8-16.9-37.8-37.8-37.8c-20.8,0-37.8,16.9-37.8,37.8c0,16.4,10.6,30.2,25.2,35.4v28.1c-23.4,1.4-45.7,6.4-66.5,14.7
		l-11.3-67.6c-4.8-29-23.3-52.5-48.1-64.7V153c0-20.8-16.9-37.8-37.8-37.8h-25.2c-20.8,0-37.8,16.9-37.8,37.8v12.6H290V153
		c0-6.9,5.6-12.6,12.6-12.6c20.8,0,37.8-16.9,37.8-37.8V64.9h-25.2v37.8c0,6.9-5.6,12.6-12.6,12.6c-20.8,0-37.8,16.9-37.8,37.8v12.6
		h-50.3V153c0-20.8-16.9-37.8-37.8-37.8h-25.2c-20.8,0-37.8,16.9-37.8,37.8v21.6c-24.9,12.1-43.3,35.7-48.1,64.7L38,404.9
		c-3.7,21.9,2.5,44.3,16.9,61.2c14.4,17,35.4,26.7,57.6,26.7h19.8c39,0,71.3-29.2,75.2-68l5.8-57.9h128.3l5.8,57.9
		c1.7,17.1,9.4,32.9,21.4,45.1c-1.3,7.5-2.1,15.1-2.6,22.9h-65.9c-5.2-14.6-19.1-25.2-35.4-25.2c-20.8,0-37.8,16.9-37.8,37.8
		s16.9,37.8,37.8,37.8c16.4,0,30.2-10.6,35.4-25.2h65.9c1,17.4,3.9,34.3,8.8,50.3h-22.1c-7,0-12.6,5.6-12.6,12.6v65.3
		c-14.6,5.2-25.2,19.1-25.2,35.4c0,20.8,16.9,37.8,37.8,37.8s37.8-16.9,37.8-37.8c0-16.4-10.6-30.2-25.2-35.4v-52.7h19.2
		c25.1,55.4,73,98.3,131.8,116.4v34.6H489c-5.2-14.6-19.1-25.2-35.4-25.2c-20.8,0-37.8,16.9-37.8,37.8c0,20.8,16.9,37.8,37.8,37.8
		c16.4,0,30.2-10.6,35.4-25.2h40.1c7,0,12.6-5.6,12.6-12.6v-41.3c12.3,2.2,24.9,3.5,37.8,3.5c12.9,0,25.5-1.3,37.8-3.5v31
		c-14.6,5.2-25.2,19.1-25.2,35.4c0,20.8,16.9,37.8,37.8,37.8c20.8,0,37.8-16.9,37.8-37.8c0-16.4-10.6-30.2-25.2-35.4v-37
		c27.7-8.5,53-22.6,74.7-40.9h26v27.5c-14.6,5.2-25.2,19.1-25.2,35.4c0,20.8,16.9,37.8,37.8,37.8c20.8,0,37.8-16.9,37.8-37.8
		c0-16.4-10.6-30.2-25.2-35.4v-40.1c0-7-5.6-12.6-12.6-12.6h-13.4c31.8-37.4,51.1-85.7,51.1-138.5
		C793.5,429.1,753.1,362.1,692.8,324.2z M755.7,241.1c6.9,0,12.6,5.6,12.6,12.6c0,6.9-5.6,12.6-12.6,12.6c-6.9,0-12.6-5.6-12.6-12.6
		C743.1,246.8,748.7,241.1,755.7,241.1z M352.9,694.2c-6.9,0-12.6-5.6-12.6-12.6c0-6.9,5.6-12.6,12.6-12.6s12.6,5.6,12.6,12.6
		C365.5,688.6,359.9,694.2,352.9,694.2z M453.6,769.8c-6.9,0-12.6-5.6-12.6-12.6c0-6.9,5.6-12.6,12.6-12.6c6.9,0,12.6,5.6,12.6,12.6
		C466.2,764.1,460.5,769.8,453.6,769.8z M629.8,794.9c-6.9,0-12.6-5.6-12.6-12.6s5.6-12.6,12.6-12.6c6.9,0,12.6,5.6,12.6,12.6
		S636.8,794.9,629.8,794.9z M755.7,744.6c-6.9,0-12.6-5.6-12.6-12.6c0-6.9,5.6-12.6,12.6-12.6c6.9,0,12.6,5.6,12.6,12.6
		C768.3,738.9,762.6,744.6,755.7,744.6z M579.5,215.9c6.9,0,12.6,5.6,12.6,12.6c0,6.9-5.6,12.6-12.6,12.6c-6.9,0-12.6-5.6-12.6-12.6
		C566.9,221.6,572.5,215.9,579.5,215.9z M365.5,153c0-6.9,5.6-12.6,12.6-12.6h25.2c6.9,0,12.6,5.6,12.6,12.6v13.7
		c-4.5-0.7-9-1.1-13.6-1.1h-36.7V153z M138.9,153c0-6.9,5.6-12.6,12.6-12.6h25.2c6.9,0,12.6,5.6,12.6,12.6v12.6h-36.7
		c-4.6,0-9.2,0.4-13.6,1.1V153z M372.4,422.3l-6.9-69.2c-0.6-6.4-6.1-11.3-12.5-11.3h-151c-6.5,0-11.9,4.9-12.5,11.3l-6.9,69.2
		c-2.6,25.9-24.1,45.3-50.1,45.3h-19.8c-14.8,0-28.8-6.5-38.4-17.8c-9.6-11.3-13.7-26.2-11.2-40.8l27.6-165.7
		c5.1-30.5,31.2-52.6,62.1-52.6h249.7c30.9,0,57,22.1,62.1,52.6l12.4,74.5c-46.8,25.8-82.9,68.6-100.1,120
		C374.4,432.9,372.9,427.8,372.4,422.3z M264.8,518c-6.9,0-12.6-5.6-12.6-12.6s5.6-12.6,12.6-12.6s12.6,5.6,12.6,12.6
		S271.7,518,264.8,518z M579.5,694.2c-104.1,0-188.8-84.7-188.8-188.8s84.7-188.8,188.8-188.8s188.8,84.7,188.8,188.8
		S683.6,694.2,579.5,694.2z"/>
	<path class="st0" d="M579.5,341.8c-90.2,0-163.6,73.4-163.6,163.6s73.4,163.6,163.6,163.6s163.6-73.4,163.6-163.6
		S669.7,341.8,579.5,341.8z M579.5,643.9c-76.3,0-138.5-62.1-138.5-138.5S503.1,367,579.5,367s138.5,62.1,138.5,138.5
		S655.8,643.9,579.5,643.9z"/>
	<path class="st0" d="M662,444.6l-75.5-50.3c-4.2-2.8-9.7-2.8-14,0L497,444.6c-3.5,2.3-5.6,6.3-5.6,10.5v99.8
		c0,4.2,2.1,8.1,5.6,10.5l75.5,50.3c2.1,1.4,4.5,2.1,7,2.1c2.4,0,4.9-0.7,7-2.1l75.5-50.3c3.5-2.3,5.6-6.3,5.6-10.5v-99.8
		C667.6,450.9,665.5,446.9,662,444.6z M642.4,548.2l-62.9,42l-62.9-42v-86.3l62.9-42l62.9,42V548.2z"/>
	<polygon class="st0" points="176.7,215.9 151.5,215.9 151.5,253.7 113.8,253.7 113.8,278.9 151.5,278.9 151.5,316.6 176.7,316.6 
		176.7,278.9 214.5,278.9 214.5,253.7 176.7,253.7 	"/>
	<rect x="227" y="291.5" class="st0" width="37.8" height="25.2"/>
	<rect x="264.8" y="253.7" class="st0" width="25.2" height="25.2"/>
	<rect x="290" y="291.5" class="st0" width="37.8" height="25.2"/>
	<circle class="st0" cx="390.7" cy="228.5" r="12.6"/>
	<circle class="st0" cx="393" cy="302.9" r="12.6"/>
	<circle class="st0" cx="352.9" cy="266.3" r="12.6"/>
	<circle class="st0" cx="428.4" cy="266.3" r="12.6"/>
</g>
</svg>
