<?xml version="1.0" encoding="utf-8"?>
<!-- Generator: Adobe Illustrator 26.0.1, SVG Export Plug-In . SVG Version: 6.00 Build 0)  -->
<svg version="1.1" id="Layer_1" xmlns="http://www.w3.org/2000/svg" xmlns:xlink="http://www.w3.org/1999/xlink" x="0px" y="0px"
	 viewBox="0 0 816.2 886.2" style="enable-background:new 0 0 816.2 886.2;" xml:space="preserve">
<style type="text/css">
	.st0{fill:#FFFFFF;}
</style>
<g id="Layer_2_00000014631791702084328620000001375039334819180172_">
</g>
<g>
	<path class="st0" d="M538.9,288.4c0-111.1-90.4-201.5-201.5-201.5s-201.5,90.4-201.5,201.5c0,107.1,84.1,194.7,189.7,200.9v54.6
		c-15.3-18.5-38.3-29.8-62.6-30.2c-7.8-14.1-29.1-23.8-55.9-23.8c-33.8,0-59.3,15.3-59.3,35.6c0,20.3,25.5,35.6,59.3,35.6
		c26.7,0,48-9.6,55.8-23.6c20.2,0.4,39.1,11.3,49.6,28.7l13.2,21.9v20.4h-94.8c-3.4,0-6.7,1.5-9,4.1c-2.3,2.6-3.3,6-2.8,9.4
		l23.7,166c0.8,5.8,5.8,10.2,11.7,10.2h166c5.9,0,10.9-4.3,11.7-10.2l23.7-166c0.5-3.4-0.5-6.9-2.8-9.4c-2.3-2.6-5.5-4.1-9-4.1
		h-94.8V588l13.2-21.9c10.4-17.4,29.3-28.3,49.6-28.7c7.9,14,29.1,23.6,55.8,23.6c33.8,0,59.3-15.3,59.3-35.6
		c0-20.3-25.5-35.6-59.3-35.6c-26.8,0-48.1,9.7-55.9,23.8c-24.3,0.4-47.3,11.7-62.6,30.2v-54.6C454.8,483.1,538.9,395.5,538.9,288.4
		z M207,537.3c-23,0-35.6-8.9-35.6-11.9s12.6-11.9,35.6-11.9s35.6,8.9,35.6,11.9S229.9,537.3,207,537.3z M410.1,774.4H264.7
		l-20.3-142.2h186L410.1,774.4z M467.8,513.6c23,0,35.6,8.9,35.6,11.9s-12.6,11.9-35.6,11.9c-23,0-35.6-8.9-35.6-11.9
		S444.8,513.6,467.8,513.6z M159.6,288.4c0-98.1,79.8-177.8,177.8-177.8s177.8,79.8,177.8,177.8s-79.8,177.8-177.8,177.8
		S159.6,386.4,159.6,288.4z"/>
	<path class="st0" d="M491.5,288.4c0-85-69.1-154.1-154.1-154.1s-154.1,69.1-154.1,154.1s69.1,154.1,154.1,154.1
		S491.5,373.4,491.5,288.4z M207,288.4c0-71.9,58.5-130.4,130.4-130.4s130.4,58.5,130.4,130.4s-58.5,130.4-130.4,130.4
		S207,360.3,207,288.4z"/>
	<polygon class="st0" points="621.9,324 598.2,324 598.2,300.2 574.5,300.2 574.5,324 550.8,324 550.8,347.7 574.5,347.7 
		574.5,371.4 598.2,371.4 598.2,347.7 621.9,347.7 	"/>
	<polygon class="st0" points="100.3,158 76.6,158 76.6,181.7 52.9,181.7 52.9,205.4 76.6,205.4 76.6,229.1 100.3,229.1 100.3,205.4 
		124,205.4 124,181.7 100.3,181.7 	"/>
</g>
</svg>
