<?xml version="1.0" encoding="utf-8"?>
<!-- Generator: Adobe Illustrator 26.0.1, SVG Export Plug-In . SVG Version: 6.00 Build 0)  -->
<svg version="1.1" xmlns="http://www.w3.org/2000/svg" xmlns:xlink="http://www.w3.org/1999/xlink" x="0px" y="0px"
	 viewBox="0 0 816.2 886.2" style="enable-background:new 0 0 816.2 886.2;" xml:space="preserve">
<style type="text/css">
	.st0{fill:#FFFFFF;}
</style>
<g id="Layer_2">
</g>
<g id="Layer_1">
	<g>
		<g>
			<g>
				<path class="st0" d="M369.9,273.8c50.9,0,101.9,0,152.8,0c7.2,0,14.4,0,21.6,0c13.5,0,13.5-21,0-21c-50.9,0-101.9,0-152.8,0
					c-7.2,0-14.4,0-21.6,0C356.4,252.8,356.3,273.8,369.9,273.8z"/>
			</g>
			<g>
				
					<ellipse transform="matrix(0.3827 -0.9239 0.9239 0.3827 147.3879 744.1917)" class="st0" cx="630.6" cy="261.8" rx="22" ry="22"/>
			</g>
			<g>
				
					<ellipse transform="matrix(0.7071 -0.7071 0.7071 0.7071 -127.573 575.2278)" class="st0" cx="630.6" cy="441.6" rx="22" ry="22"/>
			</g>
			<g>
				<path class="st0" d="M765.6,545.3c-17.7-12.2-44.8-8.3-65.2-8.3c-37.5,0-75,0-112.5,0c-64.8,0-129.6,0-194.4,0c0-2.7,0-5.3,0-8
					c53.7,0,107.5,0,161.2,0c61,0,122.1,1.3,183.1,0c23.9-0.5,45-16.9,48.7-41.1c2.5-15.9,0.7-33.2,0.7-49.2c0-16,2.6-35.5-3.5-50.7
					c-7.8-19.5-26.3-30.6-46.9-30.8c-61.4-0.5-122.8,0-184.3,0c-62.5,0-125.1-0.8-187.6-0.1c-0.1-2.7-0.3-5.3-0.5-7.9
					c60.8,0,121.6,0,182.4,0c63.8,0,127.9,1.7,191.7,0c29.5-0.8,48.6-24.2,48.6-52.6c0-20.7,0-41.3,0-62c0-8.5,0.1-16.9-2.9-25.1
					c-5.7-15.5-19.4-27.8-35.8-31c-7.6-1.5-15.5-1-23.1-1c-80.4,0-160.8,0-241.2,0c-37.1,0-74.3,0-111.4,0c-7.3,0-14.7-0.1-22,0
					c-27.6,0.6-48.6,21.6-49.3,49.2c-0.1,2.7-0.1,5.4-0.1,8.2c-3.8-2.8-7.7-5.4-11.8-7.9c-42.8-25.6-96.1-28.1-141.6-8
					c-43.4,19.3-76.4,59.8-86.8,106.1c-6.5,29.3-4.1,61-3.8,91c-16.7,7.3-28.3,23.3-28.8,43.5c-0.3,13,0,26.2,0,39.2
					c0,47.7,0,95.4,0,143.1c0,17.3-1.2,34,10.3,48.6c12.2,15.6,29.3,18.3,47.6,18.3c84.2,0,168.4,0,252.6,0c2.3,0,4.5,0,6.8,0
					c0.5,0,0.9,0,1.3-0.1c1.1-0.1,2.3-0.2,3.4-0.3c0.9,0.2,1.8,0.4,2.9,0.4c54.6,0,109.3,0,163.9,0c70.2,0,140.4,0,210.6,0
					c6.9,0,13.8,0.3,20.6-1c25.3-5.1,38.7-27.7,38.7-52c0-19,0-38.1,0-57.1c0-5.1,0.2-10.3-0.1-15.4
					C786.2,567.9,778.3,554,765.6,545.3z M512.5,378.2c70.1,0,140.3,0,210.4,0c5.2,0,10.3-0.1,15.5,0c10.4,0.3,20,5.6,24.8,15
					c3.2,6.3,3,12.7,3,19.5c0,18.7,0,37.3,0,56c0,5.2,0.5,10.8-0.3,16c-2,13-13.2,22.5-26.1,23.3c-16.8,1-33.9,0-50.6,0
					c-37.5,0-75,0-112.6,0c-61,0-122,0-183,0c0-13.5,0-27,0-40.5c0-4.3,0.2-8.7-0.3-13c0-0.3-0.1-0.6-0.1-0.9c43.5,0,87,0,130.5,0
					c6.9,0,13.8,0,20.7,0c13.5,0,13.5-21,0-21c-47.9,0-95.9,0-143.8,0c-5.1,0-10.2,0-15.3,0c-5-7.3-12-13.3-20.4-17
					c0.1-12.4,0.6-24.9,0.6-37.4C414.4,378.2,463.4,378.2,512.5,378.2z M196.7,411.7c-23.4,0-46.9-0.1-70.3-0.1c0-15.3,0-30.7,0-46
					c0-28.3,9-54.2,31.6-72.6c26.7-21.7,65.3-24.6,95.1-7.5c27,15.5,42.5,44.1,42.6,75c0.1,17.1,0,34.1,0,51.2
					C262.7,411.7,229.7,411.7,196.7,411.7z M345.7,198.7c5.8-0.9,12.1-0.3,17.9-0.3c31.7,0,63.5,0,95.2,0c82.5,0,165.1,0,247.6,0
					c9.4,0,18.7,0,28.1,0c16.7,0,31.1,9.5,31.7,27.6c0.5,16.7,0,33.4,0,50.1c0,18,3.6,41.5-17,50c-6.8,2.8-15,2-22.3,2
					c-12.5,0-25,0-37.5,0c-40.6,0-81.1,0-121.7,0c-68.8,0-137.5,0-206.3,0c-5.9-28.2-19.6-54.2-39.2-75c0.1-0.7,0.2-1.4,0.2-2.2
					C322.4,231.1,319.1,202.8,345.7,198.7z M78.5,355.3c1.1-43.7,24.8-85.1,61.8-108.4c37.5-23.7,86.1-27.3,126.5-8.3
					c39.7,18.7,68,55.8,75.3,99.1c2.5,14.8,1.7,30.3,1.7,45.2c0,9.4,0,18.8,0,28.2c-9-0.5-18.3,0.2-27,0.4c0-16.8,0-33.6,0-50.5
					c-0.1-35.5-16.2-68.1-45.3-88.7c-31.7-22.5-74.6-24.8-108.9-7.2c-35,17.9-56.7,54.8-57.1,93.8c-0.2,17.5-0.1,35,0,52.6
					c-8.9,0-17.9,0-26.8,0.1c0,0-0.1,0-0.1,0C78.3,392.9,78,374.1,78.5,355.3z M79.5,687.8c-17-0.1-29.8-10.6-29.9-28.3
					c-0.4-38.3,0-76.7,0-115c0-21.6,0-43.3,0-64.9c0-12.8-2.3-28.1,7-38.4c5.8-6.4,13.4-8.2,21.3-8.6c5,0,10,0,15,0c0,0,0,0,0,0
					c19.8,0,39.6,0,59.3,0c45.3,0,90.5,0,135.8,0c8.3,0,16.5,0,24.8,0c0,0,0,0,0,0c10.5,0,20.9,0,31.4,0
					c13.5,1.4,25.3,6.5,27.9,22.3c1.7,10.6,0.3,22.4,0.3,33c0,22.6,0,45.3,0,67.9c0,35,1.1,70.2,0,105.2
					c-0.5,15-11.7,26.3-26.7,26.8c-75.6,0-151.2,0-226.8,0C105.9,687.8,92.7,687.9,79.5,687.8z M759.6,678.1
					c-7.3,8.6-17.1,9.7-27.3,9.7c-64.1,0-128.3,0-192.4,0c-51.6,0-103.4-0.7-155-0.3c5.6-8.6,8.7-19.2,8.7-30.7c0-7.8,0-15.6,0-23.4
					c43.7,0,87.4,0,131.1,0c6.6,0,13.1,0,19.7,0c13.5,0,13.5-21,0-21c-46.1,0-92.2,0-138.2,0c-4.2,0-8.4,0-12.5,0c0-3,0-5.9,0-8.9
					c0-15.2,0-30.4,0-45.5c51.7,0,103.5,0,155.2,0c62.4,0,124.7-0.3,187.1,0c16.4,0.1,29.8,10.5,30.3,27.7c0.5,15.3,0,30.6,0,45.9
					C766.2,645.9,769.6,666.3,759.6,678.1z"/>
			</g>
			<g>
				
					<ellipse transform="matrix(0.9732 -0.2298 0.2298 0.9732 -125.9024 161.4995)" class="st0" cx="630.6" cy="621.4" rx="22" ry="22"/>
			</g>
			<g>
				<path class="st0" d="M211,521.4c-17.6,0-31.8,14.2-31.8,31.8c0,9.7,4.3,18.3,11.1,24.2v24.4c0,11.4,9.3,20.7,20.7,20.7
					c11.4,0,20.7-9.3,20.7-20.7v-24.4c6.8-5.8,11.1-14.5,11.1-24.2C242.9,535.7,228.6,521.4,211,521.4z"/>
			</g>
		</g>
	</g>
</g>
</svg>
