<?xml version="1.0" encoding="utf-8"?>
<!-- Generator: Adobe Illustrator 26.0.1, SVG Export Plug-In . SVG Version: 6.00 Build 0)  -->
<svg version="1.1" id="Layer_1" xmlns="http://www.w3.org/2000/svg" xmlns:xlink="http://www.w3.org/1999/xlink" x="0px" y="0px"
	 viewBox="0 0 816.2 886.2" style="enable-background:new 0 0 816.2 886.2;" xml:space="preserve">
<style type="text/css">
	.st0{fill:#FFFFFF;}
</style>
<g id="Layer_2_00000032641240238882632110000002787857513558919605_">
</g>
<g>
	<path class="st0" d="M464.6,152.4c-1.3-0.1-2.7-0.1-4-0.1c-36.5,0-66.2,32-66.2,71.3c0,6.6,5.4,12,12,12c6.6,0,12-5.4,12-12
		c0-26.1,19-47.4,42.3-47.4c0.8,0,1.6,0,2.4,0.1c6.6,0.5,12.3-4.5,12.7-11.1C476.2,158.6,471.2,152.9,464.6,152.4z"/>
	<path class="st0" d="M773.4,235.4c0.6-6.6,0.6-10.8,0.5-12c-0.1-78.2-58.7-141.7-130.7-141.7c-34.4,0-67,14.6-91.3,40.4
		c-24.3-25.8-56.9-40.4-91.3-40.4c-72.1,0-130.7,63.7-130.7,141.9c0,1.8,0,5.9,0.5,11.5c0.9,12.1,3.3,24.1,6.9,35.3
		c-8.1-2.8-16.6-4.3-25.3-4.3c-45.2,0-81.9,39.7-81.9,87.9c0,0.1-0.2,2.9,0.3,7.9c0.6,8.2,2.3,16.4,4.9,23.7
		c5.4,17.4,16.9,42,41.4,67.6C226,464.4,173.9,488.9,128,535.7l-5.9-7.5c-17.5-22.2-48.1-28.4-72.8-14.7c-5.8,3.2-7.9,10.5-4.6,16.3
		c3.2,5.8,10.5,7.9,16.3,4.6c14.4-8,32.2-4.4,42.4,8.5l106.8,135.9l12.5,15.9c0.3,0.5,0.7,1.2,1,1.5c0.3,0.4,0.6,0.7,0.9,1.1
		c4.9,7.3,6.7,16.2,5,24.8c-1.8,9.5-7.7,17.7-16.1,22.6l-12.4,7.2L81,598.9c-4.1-5.2-11.6-6.1-16.8-2c-5.2,4.1-6.1,11.6-2,16.8
		L180,764l-29.5,17c-5.7,3.3-7.7,10.6-4.4,16.3c2.2,3.8,6.2,6,10.4,6c2,0,4.1-0.5,6-1.6l62.8-36.2c14.4-8.3,24.5-22.4,27.6-38.7
		c2.3-12.2,0.7-24.6-4.6-35.6c12-11.4,27.7-17.7,44.2-17.8l218.6-0.6c14.6,0,28.6-4.4,40.6-12.6l197.8-135.3
		c13.5-9.2,22.1-23.9,23.7-40.2c1.5-16.3-4.3-32.3-15.8-43.9c-12.5-12.5-30.1-17.9-46.9-15.4c-0.4-13.8-6.1-27-16.1-36.9
		c40.7-41.3,61.1-82,71.1-114.4C769.8,261.5,772.5,248.4,773.4,235.4z M258,378c-2-5.8-3.3-11.9-3.8-18.3c-0.3-2.7-0.3-4.3-0.2-5.1
		c0-35.6,26-64.6,58-64.6c15.3,0,29.8,6.7,40.6,18.6c0.3,0.3,0.5,0.7,0.8,0.9c1,1.1,1.9,2.2,2.8,3.3c0,0,0,0,0.1,0.1
		c2.3,3,5.8,4.7,9.5,4.7c3.7,0,7.3-1.7,9.5-4.7c11.1-14.6,27.2-22.9,44.3-22.9c32,0,58,29,58,65c0,0.3,0,2-0.3,5
		c-0.5,6.1-1.7,12.2-3.9,18.4c-0.4,1.4-0.9,2.9-1.4,4.3c-0.1,0.2-0.1,0.3-0.2,0.5c-0.5,1.3-1,2.7-1.5,4c0,0.1-0.1,0.2-0.1,0.4
		c-0.6,1.4-1.2,2.8-1.8,4.2c-0.1,0.2-0.1,0.3-0.2,0.5c-0.6,1.3-1.2,2.6-1.8,3.9c-0.1,0.2-0.2,0.4-0.3,0.6c-0.6,1.3-1.3,2.6-2,3.9
		c-0.1,0.2-0.2,0.4-0.3,0.6c-0.7,1.3-1.4,2.6-2.2,3.8c-0.1,0.2-0.3,0.4-0.4,0.7c-0.7,1.2-1.5,2.5-2.3,3.7c-0.2,0.3-0.4,0.6-0.6,0.9
		c-0.7,1.1-1.5,2.3-2.2,3.4c-8,11.9-19.1,24.7-34.3,37.6c-2.5-0.6-5-1.1-7.5-1.5c-1.3-0.2-2.5-0.4-3.7-0.6c-0.4-0.1-0.8-0.1-1.2-0.2
		c-1.6-0.2-3.2-0.4-4.8-0.6c-0.6-0.1-1.1-0.1-1.7-0.2c-2.1-0.2-4.1-0.5-6.2-0.7c-0.2,0-0.5-0.1-0.7-0.1c-27.5-2.9-58.3-3.5-90.1,0.7
		C276.1,421.6,263.5,395.8,258,378z M685.4,435.6L512.1,546.7c-0.5-2.8-1.1-5.6-1.8-8.3l55.4-59.6c46.7-23.4,83.1-48.7,111.4-74
		C685.2,412.7,688.5,424.4,685.4,435.6z M500.8,513.5c-11.6-22.7-30.4-41.4-53.5-52.9c8.2-7.8,15.2-15.5,21.1-23.1
		c20.2,14.1,42.4,27.4,66.2,39.6L500.8,513.5z M740.4,457.6c6.5,6.5,9.8,15.6,8.9,24.8c-0.9,9.2-5.7,17.5-13.3,22.7L538.2,640.4
		c-8,5.5-17.4,8.4-27.2,8.4l-218.6,0.6c-21.5,0.1-41.9,7.8-58,21.9l-62.7-79.9l-28.9-36.8c48.8-50.8,105.7-73.8,159.6-81.9
		c0.5,0,1.1,0,1.6-0.1c32.9-4.8,67.6-4.7,103.3,0.2c0.2,0,0.3,0.1,0.5,0.1c1,0.1,1.9,0.3,2.9,0.5c3.3,0.6,6.8,1.5,10.6,2.6
		c0.4,0.1,0.7,0.2,1.1,0.3c30,9.3,53.5,32.9,63,62.2l2.6,17.1H341.8c-6.6,0-12,5.4-12,12c0,6.6,5.4,12,12,12h160.1
		c0.1,0,0.2,0,0.3,0c0.1,0,0.1,0,0.2,0c0.2,0,0.4,0,0.6,0c0.1,0,0.2,0,0.3,0c0.2,0,0.3,0,0.5-0.1c0.1,0,0.1,0,0.2,0c0,0,0.1,0,0.1,0
		c0.1,0,0.2,0,0.3-0.1c0.3-0.1,0.6-0.1,0.9-0.2c0.1,0,0.3-0.1,0.4-0.1c0.2-0.1,0.4-0.1,0.5-0.2c0.1-0.1,0.3-0.1,0.4-0.2
		c0.1,0,0.1-0.1,0.2-0.1c0,0,0.1,0,0.1,0c0.1-0.1,0.2-0.1,0.4-0.2c0.1-0.1,0.3-0.1,0.4-0.2c0.2-0.1,0.4-0.2,0.6-0.3l193.4-124.1
		C714,445.6,730.2,447.4,740.4,457.6z M749.6,233.4c-0.8,11.2-3.1,22.1-6.9,33.1c-9.8,31.9-30.5,72.1-73.3,112.9
		c-0.7,0.4-1.3,0.9-1.9,1.5c-30.4,28.7-68.9,54.8-114.2,77.4c-0.4,0.2-0.9,0.5-1.3,0.8c-25.4-12.6-48.9-26.4-70-41.3
		c4.1-7,7.4-13.7,9.9-19.8c0-0.1,0.1-0.1,0.1-0.2c0.5-1.3,1-2.5,1.5-3.7c0.1-0.1,0.1-0.3,0.2-0.4c0.5-1.2,0.9-2.5,1.3-3.7
		c0-0.1,0.1-0.2,0.1-0.2c0.4-1.3,0.9-2.6,1.2-3.8c2.7-7.8,4.4-15.9,5-23.9c0.4-4.7,0.4-7.5,0.3-7.5c0-48.8-36.8-88.5-81.9-88.5
		c-1.2,0-2.4,0-3.6,0.1c-0.4,0-0.8,0.1-1.2,0.1c-0.8,0.1-1.6,0.1-2.4,0.2c-0.5,0-0.9,0.1-1.4,0.2c-0.7,0.1-1.4,0.2-2.2,0.3
		c-0.5,0.1-1,0.2-1.5,0.2c-0.7,0.1-1.4,0.2-2.1,0.4c-0.5,0.1-1,0.2-1.5,0.3c-0.7,0.1-1.3,0.3-2,0.4c-0.5,0.1-1,0.3-1.5,0.4
		c-0.6,0.2-1.3,0.3-1.9,0.5c-0.5,0.1-1,0.3-1.5,0.5c-0.6,0.2-1.3,0.4-1.9,0.6c-0.5,0.2-1,0.4-1.5,0.5c-0.6,0.2-1.2,0.5-1.9,0.7
		c-0.5,0.2-1,0.4-1.5,0.6c-0.6,0.3-1.2,0.5-1.8,0.8c-0.5,0.2-1,0.4-1.4,0.7c-0.6,0.3-1.2,0.6-1.8,0.9c-0.5,0.2-0.9,0.5-1.4,0.7
		c-0.6,0.3-1.2,0.7-1.8,1c-0.4,0.3-0.9,0.5-1.3,0.8c-0.6,0.4-1.2,0.7-1.8,1.1c-0.4,0.3-0.8,0.5-1.3,0.8c-0.6,0.4-1.2,0.8-1.8,1.2
		c-0.4,0.3-0.8,0.5-1.2,0.8c-0.6,0.5-1.2,0.9-1.9,1.4c-0.4,0.3-0.7,0.5-1.1,0.8c-0.7,0.5-1.3,1.1-2,1.6c-0.3,0.2-0.6,0.5-0.9,0.7
		c-0.1,0.1-0.2,0.2-0.3,0.2c-2.7-6.4-5-12.9-7.1-19.4c-3.7-10.6-6-21.6-6.9-33.1c-0.5-5.7-0.4-8.9-0.4-9.8
		c0.1-64.9,48-117.7,106.8-117.7c31.6,0,61.4,15.4,81.8,42.2c2.3,3,5.8,4.7,9.5,4.7c3.7,0,7.3-1.7,9.5-4.7
		c20.4-26.8,50.2-42.2,81.8-42.2c58.9,0,106.8,52.9,106.8,118.4C750.1,224.1,750.2,227.4,749.6,233.4z"/>
</g>
</svg>
