<svg id="Layer_1" data-name="Layer 1" xmlns="http://www.w3.org/2000/svg" viewBox="0 0 150 75"><defs><style>.cls-1{fill:#d2d2d1;}</style></defs><path class="cls-1" d="M39.86,27.62l.15.91h0a16.28,16.28,0,0,1,.17,2.54,23.31,23.31,0,0,1-.68,5.59,20.86,20.86,0,0,1-3.11,6.93,21.6,21.6,0,0,1-7.65,6.7l-.43.23-.43-.23a21.6,21.6,0,0,1-7.65-6.7,20.86,20.86,0,0,1-3.11-6.93,23.31,23.31,0,0,1-.68-5.59,16.28,16.28,0,0,1,.17-2.54h0l.15-.91a.57.57,0,0,0-.47-.65.58.58,0,0,0-.66.47l-.15.9h0a20.3,20.3,0,0,0-.17,2.73,24.68,24.68,0,0,0,.7,5.86,22.22,22.22,0,0,0,3.29,7.31,22.7,22.7,0,0,0,8,7l.7.38a.57.57,0,0,0,.54,0l.7-.38a22.7,22.7,0,0,0,8-7,22.22,22.22,0,0,0,3.29-7.31,24.68,24.68,0,0,0,.7-5.86,20.3,20.3,0,0,0-.17-2.73h0l-.15-.9a.58.58,0,0,0-.66-.47.57.57,0,0,0-.47.65Z"/><path class="cls-1" d="M19.86,27l8.45-2.58L37,27.06A.57.57,0,1,0,37.28,26l-8.8-2.68a.5.5,0,0,0-.34,0l-8.61,2.63a.57.57,0,0,0-.38.71.56.56,0,0,0,.71.37Z"/><path class="cls-1" d="M15.69,27.79,27.8,51.43a.57.57,0,0,0,.5.31.58.58,0,0,0,.51-.3L36.2,37.62v0l4.73-9.83a.57.57,0,0,0-1-.49L35.19,37.1,28.32,49.94,16.7,27.27a.56.56,0,0,0-.76-.25.58.58,0,0,0-.25.77Z"/><path class="cls-1" d="M21.49,38.32H35a.58.58,0,0,0,.57-.57.57.57,0,0,0-.57-.57H21.49a.56.56,0,0,0-.57.57.57.57,0,0,0,.57.57"/><path class="cls-1" d="M59.06,33.41H50.3a.57.57,0,0,0-.41.17.56.56,0,0,0-.17.4v7a.56.56,0,0,0,.17.4.57.57,0,0,0,.41.17h8.76v1.18H50.3a1.71,1.71,0,0,1-1.25-.51A1.68,1.68,0,0,1,48.54,41V34a1.68,1.68,0,0,1,.51-1.24,1.71,1.71,0,0,1,1.25-.51h8.76Z"/><path class="cls-1" d="M75.51,32.23v1.18H67.07V36.9h6.79v1.2H67.07v3.49h8.44v1.18H65.89V32.23Z"/><path class="cls-1" d="M92.89,34v3.09a1.74,1.74,0,0,1-1.76,1.76H89.52l3.31,3.92H91.26L88,38.85H84.1l-.57-.06v4H82.34V32.24h8.79A1.74,1.74,0,0,1,92.89,34ZM84.1,37.65h7a.58.58,0,0,0,.4-.16.54.54,0,0,0,.16-.4V34a.57.57,0,0,0-.16-.41.54.54,0,0,0-.4-.16h-7a.54.54,0,0,0-.4.16.54.54,0,0,0-.17.41v3.09a.51.51,0,0,0,.17.4A.58.58,0,0,0,84.1,37.65Z"/><path class="cls-1" d="M99.19,32.23h10.55v1.18h-4.67v9.36h-1.19V33.41H99.19Z"/><path class="cls-1" d="M116.13,42.77V32.23h1.19V42.77Z"/><path class="cls-1" d="M133.16,32.23h1.52l-4.41,5.27,4.42,5.27h-1.53l-3.93-4.67h-3.4v4.67h-1.2V32.23h1.2V36.9h3.4Z"/></svg>