<svg id="Layer_1" data-name="Layer 1" xmlns="http://www.w3.org/2000/svg" viewBox="0 0 150 75"><defs><style>.cls-1{fill:#d2d2d1;}</style></defs><g id="Coin_Gecko_Vector_Text" data-name="Coin Gecko Vector Text"><path class="cls-1" d="M63.13,33.61A3,3,0,0,0,60,31.1c-2.71,0-3.85,2.39-3.85,4.81s1.14,4.82,3.85,4.82c2,0,3-1.47,3.22-3.31h2.16A5.17,5.17,0,0,1,60,42.53c-3.79,0-6.05-3-6.05-6.62s2.25-6.62,6-6.62c2.85,0,5.1,1.59,5.37,4.32Z"/><path class="cls-1" d="M66.68,37.64c0-2.79,1.68-4.81,4.62-4.81s4.62,2,4.62,4.81-1.69,4.84-4.62,4.84S66.68,40.46,66.68,37.64Zm7.22,0c0-1.57-.8-3.22-2.6-3.22s-2.61,1.65-2.61,3.22.8,3.24,2.61,3.24S73.9,39.24,73.9,37.64Z"/><path class="cls-1" d="M77.65,29.59h2V31.5h-2Zm0,3.49h2v9.15h-2Z"/><path class="cls-1" d="M81.86,33.08h1.92v1.34l0,0a3.26,3.26,0,0,1,2.85-1.63c2,0,3.24,1.06,3.24,3.11v6.29h-2V36.47c0-1.43-.6-2-1.78-2a2.23,2.23,0,0,0-2.22,2.41v5.4h-2Z"/><path class="cls-1" d="M103.34,42.23h-1.42l-.33-1.49a4.55,4.55,0,0,1-3.81,1.79c-3.78,0-6-3-6-6.62s2.27-6.62,6-6.62c2.75,0,5.08,1.47,5.42,4.32H101a3,3,0,0,0-3.26-2.52c-2.71,0-3.84,2.39-3.84,4.82s1.13,4.81,3.84,4.81a3.21,3.21,0,0,0,3.54-3.47H98V35.57h5.37Z"/><path class="cls-1" d="M107,38.17a2.43,2.43,0,0,0,2.46,2.71,2.11,2.11,0,0,0,2.23-1.52h1.91a4,4,0,0,1-4.14,3.12c-2.87,0-4.48-2-4.48-4.82,0-2.6,1.71-4.83,4.43-4.83,2.88,0,4.65,2.6,4.32,5.34Zm4.71-1.32a2.36,2.36,0,1,0-4.71,0Z"/><path class="cls-1" d="M121.49,36.14a1.94,1.94,0,0,0-2.09-1.72c-1.05,0-2.52.55-2.52,3.33,0,1.52.68,3.13,2.43,3.13a2.18,2.18,0,0,0,2.18-2.09h2a3.93,3.93,0,0,1-4.19,3.69c-2.87,0-4.45-2-4.45-4.73s1.51-4.92,4.52-4.92c2.12,0,3.93,1.06,4.12,3.31Z"/><path class="cls-1" d="M125.21,29.59h2v7.19l3.64-3.7h2.48l-3.5,3.36,3.84,5.79h-2.47l-2.79-4.45L127.22,39v3.28h-2Z"/><path class="cls-1" d="M134.23,37.64c0-2.79,1.68-4.81,4.62-4.81s4.62,2,4.62,4.81-1.68,4.84-4.62,4.84S134.23,40.46,134.23,37.64Zm7.23,0c0-1.57-.8-3.22-2.61-3.22s-2.6,1.65-2.6,3.22.8,3.24,2.6,3.24S141.46,39.24,141.46,37.64Z"/></g><g id="Coin_Gecko_AI" data-name="Coin Gecko AI"><path class="cls-1" d="M24.53,33.41a2.29,2.29,0,1,1-.67-1.61A2.27,2.27,0,0,1,24.53,33.41Z"/><path class="cls-1" d="M24.54,19.4h0a18.1,18.1,0,1,0,18.18,18A18.09,18.09,0,0,0,24.54,19.4Zm9.64,20.29a14,14,0,0,0,1.66-.79h0a8.07,8.07,0,0,0,1-.64l.2-.13,0,0a11.46,11.46,0,0,1-2.77,1.77,16.53,16.53,0,0,1-3.11,1.13,9.7,9.7,0,0,1-3.31.39,4.54,4.54,0,0,1-3-1.34h0l0,0a5.75,5.75,0,0,0,3,.84,14.83,14.83,0,0,0,3.19-.26A18.43,18.43,0,0,0,34.18,39.69Zm-1-3.07a.7.7,0,1,1,1.4,0,.69.69,0,0,1-.69.7A.7.7,0,0,1,33.14,36.62Zm-7.65-3.24a3.24,3.24,0,1,1-3.24-3.24h0a3.24,3.24,0,0,1,3.24,3.24ZM27.59,54h0c-.7-4.89,3.58-9.69,6-12.15.53-.54,1.35-1.28,2.11-2.07h0c3.18-2.94,3.85-6.48-2.6-8.23-1.21-.35-2.47-.85-3.74-1.35h0v0a.94.94,0,0,0-.12-.28v0c-.78-1.61-2.84-1.8-4.54-1.27h0a9.35,9.35,0,0,0-4.39-.14c-6.14,1.7-7.17,4.69-7.43,8.29v.05c-.33,3.95-.52,6.88-2,10.24A16.74,16.74,0,0,1,24.55,20.76h0a16.74,16.74,0,0,1,3,33.22Z"/><path class="cls-1" d="M24.53,33.41a2.29,2.29,0,1,1-.67-1.61A2.27,2.27,0,0,1,24.53,33.41Z"/><path class="cls-1" d="M33.11,31.52c-1.21-.35-2.47-.85-3.74-1.35h0v0a.94.94,0,0,0-.12-.28v0c-.78-1.61-2.84-1.8-4.54-1.27h0a9.35,9.35,0,0,0-4.39-.14c-6.14,1.7-7.17,4.69-7.43,8.29v.05c-.33,3.95-.52,6.88-2,10.24h0c.11.16.22.32.34.47h0a17.13,17.13,0,0,0,1.58,1.83.12.12,0,0,1,.05.05A16.73,16.73,0,0,0,24.7,54.24,16.57,16.57,0,0,0,27.54,54h.05c-.7-4.89,3.58-9.69,6-12.15.53-.54,1.35-1.28,2.11-2.07h0C38.89,36.81,39.56,33.27,33.11,31.52Zm.73,4.39a.7.7,0,0,1,.7.7.69.69,0,0,1-.69.7.7.7,0,0,1-.71-.69A.7.7,0,0,1,33.84,35.91ZM22.25,30.14h0a3.24,3.24,0,0,1,3.24,3.24h0a3.24,3.24,0,1,1-3.24-3.24Zm12,9.79a16.53,16.53,0,0,1-3.11,1.13,9.7,9.7,0,0,1-3.31.39,4.54,4.54,0,0,1-3-1.34h0l0,0a5.75,5.75,0,0,0,3,.84,14.83,14.83,0,0,0,3.19-.26,18.43,18.43,0,0,0,3.09-1,14,14,0,0,0,1.66-.79h0a8.07,8.07,0,0,0,1-.64l.2-.13,0,0A11.46,11.46,0,0,1,34.29,39.93Z"/><path class="cls-1" d="M40.33,38.66h-.1a29.67,29.67,0,0,0-1.57-6,24.9,24.9,0,0,0-1.24-2.79c-.5-.9-1-1.77-1.63-2.62a9.68,9.68,0,0,0-2.18-2.2,12.83,12.83,0,0,0-2.78-1.37c-.94-.37-1.88-.76-2.87-1s-2-.5-3-.7v-.11a9.17,9.17,0,0,1,3.22,0,9.85,9.85,0,0,1,3.07,1,17.7,17.7,0,0,1,2.6,1.9c.82.67,1.64,1.35,2.42,2.1a12.94,12.94,0,0,1,2.06,2.49,14.33,14.33,0,0,1,1.44,2.91A13.22,13.22,0,0,1,40.33,38.66Z"/><path class="cls-1" d="M24.53,33.41a2.29,2.29,0,1,1-.67-1.61A2.27,2.27,0,0,1,24.53,33.41Z"/><path class="cls-1" d="M33.11,31.52c-1.21-.35-2.47-.85-3.74-1.35h0v0a.94.94,0,0,0-.12-.28v0a3.47,3.47,0,0,0-.79-.88c-.83-.72-2.39-.7-3.74-.39h0a9.35,9.35,0,0,0-4.39-.14c-6.14,1.7-7.17,4.69-7.43,8.29v.05C12.66,40,13,43.58,11,47.23c0,.07.09.16.16.26h0a12.6,12.6,0,0,0,1.58,1.83.12.12,0,0,1,.05.05,19.18,19.18,0,0,0,4,2.92,15.41,15.41,0,0,0,10.32,1.78h0l.46-.09h0c-.14-.34-3.05-7.83,4.06-11.46a18.75,18.75,0,0,0,4.05-2.77h0C38.89,36.81,39.56,33.27,33.11,31.52Zm.73,4.39a.7.7,0,0,1,.7.7.69.69,0,0,1-.69.7.7.7,0,0,1-.71-.69A.7.7,0,0,1,33.84,35.91ZM22.25,30.14h0a3.24,3.24,0,0,1,3.24,3.24h0a3.24,3.24,0,1,1-3.24-3.24Zm12,9.79a16.53,16.53,0,0,1-3.11,1.13,9.7,9.7,0,0,1-3.31.39,4.54,4.54,0,0,1-3-1.34h0l0,0a5.75,5.75,0,0,0,3,.84,14.83,14.83,0,0,0,3.19-.26,18.43,18.43,0,0,0,3.09-1,14,14,0,0,0,1.66-.79h0a8.07,8.07,0,0,0,1-.64l.2-.13,0,0A11.46,11.46,0,0,1,34.29,39.93Z"/><path class="cls-1" d="M29.36,30.16a17.14,17.14,0,0,0-4.66-1.59h0c1.7-.53,3.76-.34,4.54,1.27v0a2.36,2.36,0,0,1,.12.28Z"/><path class="cls-1" d="M24.53,33.41a2.29,2.29,0,1,1-.67-1.61A2.27,2.27,0,0,1,24.53,33.41Z"/><path class="cls-1" d="M24.53,33.41a2.29,2.29,0,1,1-.67-1.61A2.27,2.27,0,0,1,24.53,33.41Z"/><path class="cls-1" d="M36.84,38.26a8.07,8.07,0,0,1-1,.64C36.18,38.7,36.51,38.48,36.84,38.26Z"/><path class="cls-1" d="M37.16,38a13.74,13.74,0,0,1-1.45,1.71h0c-.76.79-1.58,1.53-2.11,2.07-2.42,2.46-6.7,7.26-6,12.15h-.05l-.41.09h0C20.72,55.4,13.8,51.74,10.86,47h0c1.49-3.36,1.68-6.29,2-10.24v-.05a.49.49,0,0,0,0-.12,6.16,6.16,0,0,0,5.81,5.23,9.28,9.28,0,0,0,4.95-1.63.94.94,0,0,1,1.21-.11h0a4.54,4.54,0,0,0,3,1.34,9.7,9.7,0,0,0,3.31-.39,16.53,16.53,0,0,0,3.11-1.13,11.46,11.46,0,0,0,2.77-1.77l0,0Z"/><polygon class="cls-1" points="37.16 38.03 37.16 38.03 37.16 38.04 37.16 38.03"/><path class="cls-1" d="M37,38.13l-.2.13a1.33,1.33,0,0,1,.19-.14Z"/></g></svg>