<svg id="Layer_1" data-name="Layer 1" xmlns="http://www.w3.org/2000/svg" viewBox="0 0 150 75"><defs><style>.cls-1{fill:#d2d2d1;fill-rule:evenodd;}</style></defs><path class="cls-1" d="M23.2,40a1.3,1.3,0,0,1-1.35.09,2,2,0,0,1-.78-1.86V35.43c0-1.33-.52-2.27-1.4-2.53-1.49-.43-2.61,1.39-3,2.08L14,39.24V34c0-1.2-.42-1.92-1.16-2.13-.49-.15-1.22-.09-1.93,1L5,42.36a10.43,10.43,0,0,1-1.2-4.86A10.26,10.26,0,0,1,14,27.17,10.26,10.26,0,0,1,24.18,37.5a0,0,0,0,0,0,0s0,0,0,0a2.53,2.53,0,0,1-1,2.4Zm3.24-2.46h0v-.06A12.55,12.55,0,0,0,14,24.87a12.63,12.63,0,0,0,0,25.26,12.29,12.29,0,0,0,8.45-3.37,1.15,1.15,0,0,0,.06-1.62,1.12,1.12,0,0,0-1.58-.08l0,0a10.06,10.06,0,0,1-14.49-.69l5.31-8.53V39.8c0,1.88.74,2.49,1.35,2.67s1.55.06,2.54-1.54l2.92-4.74.26-.4v2.4a4.24,4.24,0,0,0,1.94,3.87,3.55,3.55,0,0,0,3.65-.15A4.76,4.76,0,0,0,26.44,37.5Zm17.32-4.31a1.21,1.21,0,0,1,.56,1,1.09,1.09,0,0,1-1.06,1.07,1.29,1.29,0,0,1-.4-.08,4,4,0,0,0-2.36-.81A3.57,3.57,0,0,0,37,38.12a3.55,3.55,0,0,0,3.51,3.77,3.84,3.84,0,0,0,2.64-1.07,1.07,1.07,0,0,1,.62-.2,1,1,0,0,1,1,1,1.06,1.06,0,0,1-.5.87,5.88,5.88,0,0,1-3.74,1.41,5.86,5.86,0,0,1,0-11.71A5.74,5.74,0,0,1,43.76,33.19Zm5.82,2.44a4.08,4.08,0,0,1,4,4.1,4.14,4.14,0,0,1-4,4.18,4.21,4.21,0,0,1-4.16-4.18A4.15,4.15,0,0,1,49.58,35.63Zm0,6.26a2,2,0,0,0,1.77-2.14,1.83,1.83,0,0,0-1.77-2,1.87,1.87,0,0,0-1.89,2A2,2,0,0,0,49.56,41.89Zm5.39.77V36.88a1.14,1.14,0,0,1,1.11-1.15,1.16,1.16,0,0,1,1.14,1.15v5.78a1.15,1.15,0,0,1-1.14,1.15A1.14,1.14,0,0,1,55,42.66Zm-.18-9.11a1.32,1.32,0,0,1,1.29-1.35,1.34,1.34,0,0,1,1.34,1.35,1.32,1.32,0,0,1-1.34,1.31A1.3,1.3,0,0,1,54.77,33.55Zm6.74,6v3.13a1.15,1.15,0,0,1-1.14,1.15,1.14,1.14,0,0,1-1.11-1.15v-6a.9.9,0,0,1,.88-.89.88.88,0,0,1,.85.89,3.32,3.32,0,0,1,2.47-1c2.25,0,3.24,1.7,3.24,3.62v3.41a1.13,1.13,0,1,1-2.25,0V39.53c0-1-.12-1.82-1.53-1.82-1,0-1.41.83-1.41,1.82ZM74,40.72a.74.74,0,0,1-.58-.28l-2.63-2.85v5.07a1.15,1.15,0,0,1-1.13,1.15,1.13,1.13,0,0,1-1.11-1.15v-10a.42.42,0,0,1,.41-.28.74.74,0,0,1,.48.28l4.18,4.71a.4.4,0,0,0,.72,0l4.18-4.71a.74.74,0,0,1,.48-.28.44.44,0,0,1,.41.28v10a1.13,1.13,0,0,1-1.11,1.15,1.15,1.15,0,0,1-1.14-1.15V37.59l-2.62,2.85a.72.72,0,0,1-.54.28Zm10.82,1.17a2,2,0,0,0,1.87-2.14,1.92,1.92,0,0,0-1.87-2,1.87,1.87,0,0,0-1.79,2A2,2,0,0,0,84.84,41.89Zm2.39,1,0-.26a3.24,3.24,0,0,1-2.73,1.25,3.91,3.91,0,0,1-3.66-4.18,3.89,3.89,0,0,1,3.78-4.1,3.5,3.5,0,0,1,2.61,1.25l0-.26a.88.88,0,0,1,.85-.89.9.9,0,0,1,.88.89v6.3a.89.89,0,0,1-.88.89.87.87,0,0,1-.85-.89Zm8-5.21H95a1.57,1.57,0,0,0-1.69,1.82v3.13a1.15,1.15,0,0,1-1.13,1.15A1.14,1.14,0,0,1,91,42.66v-6a.9.9,0,0,1,.88-.89.88.88,0,0,1,.85.89,3.2,3.2,0,0,1,2.21-1h.22a1.07,1.07,0,0,1,1,1,1.05,1.05,0,0,1-1,1Zm8.67,4.43a1,1,0,0,1,.16.54,1.18,1.18,0,0,1-1.12,1.13,1.4,1.4,0,0,1-1-.62l-2.59-3v2.48a1.15,1.15,0,0,1-1.13,1.15,1.14,1.14,0,0,1-1.12-1.15V33.49a1.14,1.14,0,0,1,1.12-1.15,1.15,1.15,0,0,1,1.13,1.15v5.72l2.59-2.87a1.41,1.41,0,0,1,1-.61A1.14,1.14,0,0,1,104,36.84a1,1,0,0,1-.14.53l-2,2.24,2.09,2.53Zm4.41-4.39c-.62,0-1.61.33-1.61,1.28h3.24c0-1-1-1.28-1.63-1.28Zm3,2.71h-4.56c0,1.35,1.29,1.56,1.87,1.56a3.81,3.81,0,0,0,1.47-.29,1.11,1.11,0,0,1,.58-.18.93.93,0,0,1,.91.93,1,1,0,0,1-.49.81,4.18,4.18,0,0,1-2.45.62c-2.27,0-4.16-1.23-4.16-4.08,0-2.24,1.15-4.2,3.84-4.2a3.7,3.7,0,0,1,3.86,3.94.89.89,0,0,1-.87.89Zm6.26,3.45h-.62c-1.71,0-2.71-.74-2.71-3.43V37.71h-.57a1,1,0,0,1,0-2.08h.57V33.49a1.14,1.14,0,0,1,1.12-1.15,1.15,1.15,0,0,1,1.13,1.15v2.14h.94a1,1,0,0,1,0,2.08h-.94V40c0,1.53.08,1.85.76,1.85h.32a1,1,0,0,1,0,2Zm10.9-10.72a1.23,1.23,0,0,1,.55,1,1.08,1.08,0,0,1-1,1.07,1.29,1.29,0,0,1-.4-.08,4,4,0,0,0-2.37-.81,3.57,3.57,0,0,0-3.5,3.8,3.55,3.55,0,0,0,3.5,3.77,3.86,3.86,0,0,0,2.65-1.07,1,1,0,0,1,.62-.2,1,1,0,0,1,1,1,1.06,1.06,0,0,1-.5.87,5.81,5.81,0,1,1-3.74-10.3,5.75,5.75,0,0,1,3.25,1Zm5.7,8.7A2,2,0,0,0,136,39.75a1.92,1.92,0,0,0-1.87-2,1.88,1.88,0,0,0-1.79,2,2,2,0,0,0,1.79,2.14Zm2.39,1,0-.26a3.24,3.24,0,0,1-2.73,1.25,3.91,3.91,0,0,1-3.66-4.18,3.89,3.89,0,0,1,3.78-4.1,3.5,3.5,0,0,1,2.61,1.25l0-.26a.88.88,0,0,1,.85-.89.9.9,0,0,1,.88.89v6.3a.89.89,0,0,1-.88.89A.87.87,0,0,1,136.48,42.92Zm7.91-1a2,2,0,0,0,1.79-2.14,1.87,1.87,0,0,0-1.79-2,1.92,1.92,0,0,0-1.87,2A2,2,0,0,0,144.39,41.89Zm-1.87,1.36v2.87a1.16,1.16,0,0,1-1.13,1.15,1.14,1.14,0,0,1-1.12-1.15v-9.5a.87.87,0,1,1,1.73.08,3.59,3.59,0,0,1,2.65-1.07,3.89,3.89,0,0,1,3.78,4.1,3.91,3.91,0,0,1-3.66,4.18,4.13,4.13,0,0,1-2.25-.66Z"/></svg>