<svg id="Layer_1" data-name="Layer 1" xmlns="http://www.w3.org/2000/svg" viewBox="0 0 150 75"><defs><style>.cls-1,.cls-2{fill:#d2d2d1;}.cls-2{fill-rule:evenodd;}</style></defs><path class="cls-1" d="M29,43.77a1.06,1.06,0,0,1-.74-.21,1,1,0,0,1-.2-.69V32.47a.94.94,0,0,1,.22-.68.92.92,0,0,1,.72-.24h4.4a5.47,5.47,0,0,1,3.7,1.06,4.05,4.05,0,0,1,1.19,3.17,4,4,0,0,1-1.19,3.14,5.43,5.43,0,0,1-3.7,1H31.64v2.91a1,1,0,0,1-.21.69,1.06,1.06,0,0,1-.74.21Zm4.11-6.41a1.5,1.5,0,0,0,1.13-.4,1.54,1.54,0,0,0,.42-1.18,1.6,1.6,0,0,0-.42-1.21,1.54,1.54,0,0,0-1.13-.39H31.64v3.18Z"/><path class="cls-1" d="M42.48,44A3.55,3.55,0,0,1,39.77,43a4.37,4.37,0,0,1-1-3.07,5,5,0,0,1,.68-2.64,4.61,4.61,0,0,1,2-1.74,6.54,6.54,0,0,1,2.93-.63,8.78,8.78,0,0,1,2.41.3,7.52,7.52,0,0,1,1.94.85v7.18c0,.23,0,.38-.13.45a.75.75,0,0,1-.5.11H46.22a.83.83,0,0,1-.31-.05.58.58,0,0,1-.18-.22L45.5,43a3.11,3.11,0,0,1-1.26.81A5,5,0,0,1,42.48,44Zm1.35-2.44a1.65,1.65,0,0,0,1.09-.34,1.2,1.2,0,0,0,.4-1V37.48a2.16,2.16,0,0,0-.86-.16,1.9,1.9,0,0,0-1.53.67,2.81,2.81,0,0,0-.56,1.86C42.37,41,42.86,41.6,43.83,41.6Z"/><path class="cls-1" d="M51.18,43.77a1.06,1.06,0,0,1-.74-.21,1,1,0,0,1-.21-.69V35.7a.66.66,0,0,1,.1-.43.79.79,0,0,1,.51-.12h1.85a.56.56,0,0,1,.32.07.26.26,0,0,1,.15.22l.08.53a3.71,3.71,0,0,1,1.32-.79,5.32,5.32,0,0,1,1.83-.3,3.33,3.33,0,0,1,2.35.82,3.09,3.09,0,0,1,.9,2.41v4.76a1,1,0,0,1-.21.69,1,1,0,0,1-.72.21H57a1.12,1.12,0,0,1-.75-.21,1,1,0,0,1-.22-.69V38.35a1.07,1.07,0,0,0-.23-.78,1,1,0,0,0-.74-.23,1.26,1.26,0,0,0-.86.29,1,1,0,0,0-.3.79v4.45a1,1,0,0,1-.22.69,1,1,0,0,1-.72.21Z"/><path class="cls-1" d="M66,44a5.78,5.78,0,0,1-3.88-1.17,4.22,4.22,0,0,1-1.36-3.39,4.65,4.65,0,0,1,.62-2.41,4.3,4.3,0,0,1,1.82-1.62A6.57,6.57,0,0,1,66,34.88a8.19,8.19,0,0,1,2.08.23,4.7,4.7,0,0,1,1.53.72.37.37,0,0,1,.2.32.74.74,0,0,1-.15.38L69,37.81c-.09.16-.19.25-.31.25a.79.79,0,0,1-.34-.15,4,4,0,0,0-.92-.44,3.05,3.05,0,0,0-1-.15,1.9,1.9,0,0,0-1.45.58,2.21,2.21,0,0,0-.54,1.58,2.14,2.14,0,0,0,.55,1.58,2.12,2.12,0,0,0,1.53.54,3.39,3.39,0,0,0,1-.16,5.86,5.86,0,0,0,1-.45.82.82,0,0,1,.35-.15c.11,0,.21.09.29.25l.81,1.39a.67.67,0,0,1,.09.29.38.38,0,0,1-.22.3,5.82,5.82,0,0,1-1.65.72A7.7,7.7,0,0,1,66,44Z"/><path class="cls-1" d="M74.54,44A3.58,3.58,0,0,1,71.82,43a4.37,4.37,0,0,1-1-3.07,4.94,4.94,0,0,1,.68-2.64,4.61,4.61,0,0,1,2-1.74,6.51,6.51,0,0,1,2.93-.63,8.65,8.65,0,0,1,2.4.3,7.23,7.23,0,0,1,1.94.85v7.18a.61.61,0,0,1-.12.45.77.77,0,0,1-.5.11H78.27a.78.78,0,0,1-.3-.05.58.58,0,0,1-.18-.22L77.55,43a3,3,0,0,1-1.25.81A5,5,0,0,1,74.54,44Zm1.34-2.44a1.66,1.66,0,0,0,1.1-.34,1.22,1.22,0,0,0,.39-1V37.48a2.09,2.09,0,0,0-.86-.16A1.92,1.92,0,0,0,75,38a2.81,2.81,0,0,0-.55,1.86C74.43,41,74.91,41.6,75.88,41.6Z"/><path class="cls-1" d="M92,43.09a.48.48,0,0,1,.13.32.37.37,0,0,1-.11.27.44.44,0,0,1-.29.09H89a1.74,1.74,0,0,1-.38,0,1,1,0,0,1-.23-.2l-2.45-3.33v2.66a1,1,0,0,1-.21.69,1.06,1.06,0,0,1-.74.21H83.22a.77.77,0,0,1-.94-.9V32.47a.9.9,0,0,1,.22-.68.92.92,0,0,1,.72-.24H85a1,1,0,0,1,.74.24.94.94,0,0,1,.21.68v6l2.37-3.09a.63.63,0,0,1,.24-.2,1.13,1.13,0,0,1,.37-.05h2.79a.38.38,0,0,1,.38.36.5.5,0,0,1-.13.32l-3.07,3.52Z"/><path class="cls-1" d="M97.85,44a6.93,6.93,0,0,1-2.69-.5A4.18,4.18,0,0,1,93.31,42a4.24,4.24,0,0,1-.68-2.46,4.54,4.54,0,0,1,1.29-3.49,5.27,5.27,0,0,1,3.72-1.2,5,5,0,0,1,3.59,1.18,4.26,4.26,0,0,1,1.24,3.26c0,.59-.26.89-.79.89H96a1.38,1.38,0,0,0,.57,1.19,3.1,3.1,0,0,0,1.78.41,3.88,3.88,0,0,0,2.23-.54.94.94,0,0,1,.29-.09c.11,0,.2.08.27.22l.61,1.15a.69.69,0,0,1,.09.27c0,.11-.07.21-.22.3a5,5,0,0,1-1.67.71A9.75,9.75,0,0,1,97.85,44Zm1.39-5.6a1.37,1.37,0,0,0-.4-1.06A1.61,1.61,0,0,0,97.66,37a1.71,1.71,0,0,0-1.21.39,1.38,1.38,0,0,0-.41,1Z"/><path class="cls-1" d="M108.63,44a13.13,13.13,0,0,1-2.86-.3,6.53,6.53,0,0,1-2.17-.9c-.2-.13-.31-.27-.31-.42a.58.58,0,0,1,.11-.3l.88-1.4c.1-.15.19-.22.29-.22a.67.67,0,0,1,.3.13,7.11,7.11,0,0,0,1.51.61,6.52,6.52,0,0,0,1.67.23,2.33,2.33,0,0,0,1.24-.25.88.88,0,0,0,.42-.81,1,1,0,0,0-.45-.84,8,8,0,0,0-1.64-.77,10.33,10.33,0,0,1-2.84-1.53,2.93,2.93,0,0,1-1-2.34,3.15,3.15,0,0,1,1.27-2.71,5.66,5.66,0,0,1,3.4-.94,10.23,10.23,0,0,1,2.52.27,5.15,5.15,0,0,1,1.79.79c.21.16.31.3.31.44a.53.53,0,0,1-.11.28l-.88,1.4c-.11.15-.2.22-.29.22a.67.67,0,0,1-.3-.13,4.47,4.47,0,0,0-2.48-.68,2.4,2.4,0,0,0-1.19.25.91.91,0,0,0-.41.83,1,1,0,0,0,.21.65,2.54,2.54,0,0,0,.58.45c.25.12.63.27,1.15.46l.34.13a11.57,11.57,0,0,1,2.08,1,3.18,3.18,0,0,1,1.17,1.16,3.36,3.36,0,0,1,.4,1.73,3.08,3.08,0,0,1-1.21,2.55A5.53,5.53,0,0,1,108.63,44Z"/><path class="cls-1" d="M117.15,43.77a.78.78,0,0,1-.41-.09.57.57,0,0,1-.21-.36l-2.32-7.76a.41.41,0,0,1,0-.16c0-.17.12-.25.36-.25h2.37a.51.51,0,0,1,.34.09.37.37,0,0,1,.15.25l1,4.08,1.22-3.29a.8.8,0,0,1,.18-.29.56.56,0,0,1,.36-.09h1.13a.48.48,0,0,1,.34.09.69.69,0,0,1,.2.29l1.2,3.29,1-4.08a.53.53,0,0,1,.15-.25.44.44,0,0,1,.32-.09h2.39c.24,0,.36.08.36.25a.41.41,0,0,1,0,.16l-2.33,7.76a.57.57,0,0,1-.22.36.66.66,0,0,1-.39.09h-1.77a.63.63,0,0,1-.37-.09.77.77,0,0,1-.22-.36l-1.18-3.25-1.19,3.25a.64.64,0,0,1-.22.36.61.61,0,0,1-.37.09Z"/><path class="cls-1" d="M131.75,44A3.56,3.56,0,0,1,129,43a4.37,4.37,0,0,1-1-3.07,5,5,0,0,1,.69-2.64,4.58,4.58,0,0,1,1.95-1.74,6.54,6.54,0,0,1,2.93-.63,8.72,8.72,0,0,1,2.41.3A7.37,7.37,0,0,1,138,36v7.18c0,.23,0,.38-.13.45a.75.75,0,0,1-.5.11h-1.83a.87.87,0,0,1-.31-.05.58.58,0,0,1-.18-.22l-.23-.54a3.11,3.11,0,0,1-1.26.81A5,5,0,0,1,131.75,44Zm1.35-2.44a1.68,1.68,0,0,0,1.1-.34,1.22,1.22,0,0,0,.39-1V37.48a2.13,2.13,0,0,0-.86-.16,1.9,1.9,0,0,0-1.53.67,2.81,2.81,0,0,0-.56,1.86C131.64,41,132.13,41.6,133.1,41.6Z"/><path class="cls-1" d="M140.43,47.4a1,1,0,0,1-.73-.21,1,1,0,0,1-.2-.69V36.21a6.84,6.84,0,0,1,2-1,8.29,8.29,0,0,1,2.55-.38q5.43,0,5.43,4.6a4.7,4.7,0,0,1-1.15,3.32A4.21,4.21,0,0,1,145.1,44,5,5,0,0,1,144,43.9a2.82,2.82,0,0,1-.89-.4v3a1,1,0,0,1-.22.69,1,1,0,0,1-.74.21Zm3.9-5.78a1.28,1.28,0,0,0,1.15-.58,2.82,2.82,0,0,0,.4-1.58,2.31,2.31,0,0,0-.47-1.64,1.84,1.84,0,0,0-1.4-.48,2.36,2.36,0,0,0-1,.16v2.86a1.19,1.19,0,0,0,.34.93A1.31,1.31,0,0,0,144.33,41.62Z"/><path class="cls-2" d="M20.38,35.74A9.69,9.69,0,0,0,17.77,34c.15-.48.35-1.12.53-1.78a11.75,11.75,0,0,0,.47-2.66,4.16,4.16,0,0,0-.72-2.49,2.91,2.91,0,0,0-2.4-1.13,2.75,2.75,0,0,0-2,.8,4.3,4.3,0,0,0-1.06,1.78A14.41,14.41,0,0,0,12,32.6h-1a14.79,14.79,0,0,0-.6-4.1,4.52,4.52,0,0,0-1.06-1.78,2.77,2.77,0,0,0-2-.8A2.89,2.89,0,0,0,5,27.05a4.1,4.1,0,0,0-.73,2.49,11.75,11.75,0,0,0,.47,2.66c.18.66.38,1.3.53,1.78a9.85,9.85,0,0,0-2.61,1.76A6.9,6.9,0,0,0,.49,40.82a7.33,7.33,0,0,0,3,6,13.11,13.11,0,0,0,8.06,2.29h0a13.11,13.11,0,0,0,8.06-2.29,7.33,7.33,0,0,0,3-6A6.9,6.9,0,0,0,20.38,35.74ZM8.87,39.67c0,1.13-.53,1.72-1.18,1.72s-1.18-.59-1.18-1.72S7,37.94,7.69,37.94,8.87,38.53,8.87,39.67Zm6.52-1.73c.65,0,1.18.59,1.18,1.73s-.53,1.72-1.18,1.72-1.19-.59-1.19-1.72S14.73,37.94,15.39,37.94Z"/><path class="cls-1" d="M16.94,34.56a.43.43,0,0,1-.25-.53,20.16,20.16,0,0,0,1.11-4.62c0-1.53-.68-2.64-2.15-2.64-2.12,0-2.65,3-2.68,6.29a.4.4,0,0,1-.4.39H10.49a.38.38,0,0,1-.39-.39c0-3.26-.57-6.29-2.69-6.29-1.47,0-2.15,1.11-2.15,2.64A20.16,20.16,0,0,0,6.37,34a.43.43,0,0,1-.25.53c-1.18.47-4.66,2.19-4.66,6.13v.19C1.57,44.94,5.1,48,11.52,48h0c6.3,0,9.82-2.93,10.05-6.86v0c0-.13,0-.27,0-.41C21.6,36.75,18.12,35,16.94,34.56Zm-1.55,3.38c.65,0,1.18.59,1.18,1.73s-.53,1.72-1.18,1.72-1.19-.59-1.19-1.72S14.73,37.94,15.39,37.94Zm-7.7,0c.65,0,1.18.59,1.18,1.73s-.53,1.72-1.18,1.72-1.18-.59-1.18-1.72S7,37.94,7.69,37.94Z"/><path class="cls-1" d="M11.54,46.65c-4.8,0-10.07-2.6-10.08-5.95h0C1.46,44.87,5,48,11.54,48s10.08-3.13,10.08-7.29h0C21.61,44.05,16.33,46.65,11.54,46.65Z"/></svg>