<svg id="Layer_1" data-name="Layer 1" xmlns="http://www.w3.org/2000/svg" viewBox="0 0 150 75"><defs><style>.cls-1{fill:#d2d2d1;}</style></defs><path class="cls-1" d="M109.89,26.41l-2.31,2.31-2.31-2.31,2.31-2.32Zm5.61-5.62,4,4,2.31-2.32-6.27-6.28-6.27,6.28,2.31,2.32Zm7.92,3.3-2.31,2.32,2.31,2.31,2.31-2.31ZM115.5,32l-4-4-2.31,2.31,6.27,6.28,6.27-6.28-2.31-2.31Zm0-3.3,2.31-2.31-2.31-2.32-2.31,2.32ZM92.44,47.8v0a2.2,2.2,0,0,0-1.68-2.21,2.12,2.12,0,0,0,1.18-1.94v0c0-1.41-1.13-2.32-3-2.32H84.8v9h4.27C91.1,50.27,92.44,49.44,92.44,47.8ZM90,44c0,.67-.55.95-1.42.95H86.72V43h2c.83,0,1.3.33,1.3.92Zm.5,3.6c0,.66-.52,1-1.4,1H86.72v-2H89c1,0,1.46.38,1.46,1Zm6.11,2.71v-9h-2v9Zm10.62,0v-9h-2v5.54L101,41.28H99.22v9h2V44.55l4.35,5.72Zm11,0-3.85-9.05h-1.82l-3.85,9.05h2l.82-2h3.8l.82,2Zm-3.59-3.77h-2.39l1.19-2.92Zm13,3.76v-9h-1.95v5.54l-4.2-5.54h-1.83v9h2V44.55l4.35,5.72Zm10.2-1.45-1.26-1.28a3.23,3.23,0,0,1-2.36,1,2.66,2.66,0,0,1-2.6-2.82v0a2.66,2.66,0,0,1,2.6-2.8,3.33,3.33,0,0,1,2.3,1l1.26-1.45a4.62,4.62,0,0,0-3.55-1.39,4.57,4.57,0,0,0-4.68,4.65v0a4.75,4.75,0,0,0,8.29,3Zm8.43,1.46V48.51h-4.88V46.62h4.24V44.86h-4.24V43h4.82V41.28h-6.78v9Z"/><rect class="cls-1" x="71.81" y="25.78" width="0.71" height="10.52" transform="translate(-1.27 58.96) rotate(-44.09)"/><rect class="cls-1" x="66.91" y="30.69" width="10.52" height="0.71" transform="translate(-0.34 61.28) rotate(-45.91)"/><path class="cls-1" d="M6.16,44.57H4.05V43.32H9.81v1.25H7.69v5.37H6.16Z"/><path class="cls-1" d="M11.26,45.52A1.63,1.63,0,0,1,12,45a2.61,2.61,0,0,1,1-.19v1.36l-.33,0a1.35,1.35,0,0,0-1,.36,1.44,1.44,0,0,0-.35,1.06v2.4H9.85V44.85h1.41Z"/><path class="cls-1" d="M18.47,44.85v5.09H17.08v-.61a2.07,2.07,0,0,1-.7.51,2.34,2.34,0,0,1-.88.17,2.15,2.15,0,0,1-1.59-.58,2.28,2.28,0,0,1-.58-1.71V44.85H14.8v2.66c0,.82.34,1.23,1,1.23a1.15,1.15,0,0,0,.85-.34,1.51,1.51,0,0,0,.32-1V44.85Z"/><path class="cls-1" d="M21,50a5.19,5.19,0,0,1-1.24-.15,3.34,3.34,0,0,1-1-.4l.49-1.06a2.94,2.94,0,0,0,.82.36,3.58,3.58,0,0,0,.95.14c.62,0,.93-.16.93-.47a.32.32,0,0,0-.25-.31,4.43,4.43,0,0,0-.79-.16,6.51,6.51,0,0,1-1-.22,1.55,1.55,0,0,1-.7-.43,1.23,1.23,0,0,1-.3-.89,1.36,1.36,0,0,1,.28-.85A1.77,1.77,0,0,1,20,45a3.48,3.48,0,0,1,1.27-.21,4.79,4.79,0,0,1,1.06.12,3,3,0,0,1,.89.32l-.49,1.05a3,3,0,0,0-1.46-.38,1.57,1.57,0,0,0-.71.13.4.4,0,0,0-.24.34.36.36,0,0,0,.26.34,4.36,4.36,0,0,0,.81.17,8.91,8.91,0,0,1,1,.23,1.58,1.58,0,0,1,.69.43,1.22,1.22,0,0,1,.29.87,1.35,1.35,0,0,1-.28.84,1.92,1.92,0,0,1-.83.57A3.8,3.8,0,0,1,21,50Z"/><path class="cls-1" d="M27,49.69a1.5,1.5,0,0,1-.54.25,2.78,2.78,0,0,1-.66.07,2,2,0,0,1-1.41-.46,1.81,1.81,0,0,1-.49-1.36V46.1h-.78V45h.78V43.73h1.48V45h1.26V46.1H25.38v2.07a.72.72,0,0,0,.16.5.64.64,0,0,0,.47.17.91.91,0,0,0,.59-.19Z"/><path class="cls-1" d="M39.47,43.32l-2.16,6.62H35.66l-1.45-4.48L32.7,49.94H31.07L28.9,43.32h1.59L32,48l1.56-4.65H35L36.46,48,38,43.32Z"/><path class="cls-1" d="M41.32,44.78a2.68,2.68,0,0,1,1.82.56,2.17,2.17,0,0,1,.63,1.7v2.9H42.39V49.3a1.65,1.65,0,0,1-1.55.71,2.47,2.47,0,0,1-1-.2,1.47,1.47,0,0,1-.65-.55,1.41,1.41,0,0,1-.23-.79,1.33,1.33,0,0,1,.53-1.11A2.76,2.76,0,0,1,41.13,47H42.3a.92.92,0,0,0-.3-.74,1.27,1.27,0,0,0-.87-.26,2.5,2.5,0,0,0-.81.13,2.06,2.06,0,0,0-.66.34l-.53-1a3.47,3.47,0,0,1,1-.45A4.4,4.4,0,0,1,41.32,44.78ZM41.21,49a1.33,1.33,0,0,0,.67-.17,1,1,0,0,0,.42-.52v-.52h-1c-.61,0-.91.2-.91.59a.55.55,0,0,0,.22.46A1,1,0,0,0,41.21,49Z"/><path class="cls-1" d="M44.54,42.93H46v7H44.54Z"/><path class="cls-1" d="M46.81,42.93h1.48v7H46.81Z"/><path class="cls-1" d="M54.06,47.41s0,.15,0,.4H50.19a1.23,1.23,0,0,0,.49.75,1.66,1.66,0,0,0,1,.27,2.19,2.19,0,0,0,.7-.11,2,2,0,0,0,.57-.38l.79.85a2.63,2.63,0,0,1-2.1.82,3.37,3.37,0,0,1-1.52-.33,2.49,2.49,0,0,1-1.38-2.29,2.56,2.56,0,0,1,.35-1.34,2.48,2.48,0,0,1,1-.93,2.83,2.83,0,0,1,1.39-.34,2.75,2.75,0,0,1,1.35.32,2.25,2.25,0,0,1,.94.92A2.64,2.64,0,0,1,54.06,47.41Zm-2.63-1.52a1.24,1.24,0,0,0-.84.29,1.16,1.16,0,0,0-.42.77h2.51a1.2,1.2,0,0,0-.42-.77A1.25,1.25,0,0,0,51.43,45.89Z"/><path class="cls-1" d="M57.76,49.69a1.68,1.68,0,0,1-.54.25,2.84,2.84,0,0,1-.66.07,2,2,0,0,1-1.41-.46,1.77,1.77,0,0,1-.49-1.36V46.1h-.79V45h.79V43.73h1.47V45H57.4V46.1H56.13v2.07a.77.77,0,0,0,.16.5.66.66,0,0,0,.47.17.92.92,0,0,0,.6-.19Z"/><path class="cls-1" d="M31,37.14a1.06,1.06,0,0,1-.62-.19,27.89,27.89,0,0,0-3.27-2c-4.16-2.26-5.37-3.48-5.57-16.3a1.07,1.07,0,0,1,.31-.76,1,1,0,0,1,.76-.32h.19a11.19,11.19,0,0,0,7.51-2.41,1.07,1.07,0,0,1,1.37,0,11.23,11.23,0,0,0,7.52,2.41h.2a1,1,0,0,1,.75.32,1.07,1.07,0,0,1,.31.76c-.2,12.82-1.41,14-5.58,16.3a27.89,27.89,0,0,0-3.27,2A1,1,0,0,1,31,37.14ZM23.68,19.69c.22,11.11,1.25,11.67,4.43,13.4A31.33,31.33,0,0,1,31,34.79a32.73,32.73,0,0,1,2.87-1.71c3.19-1.72,4.22-2.28,4.44-13.39A13.23,13.23,0,0,1,31,17.32,13.25,13.25,0,0,1,23.68,19.69Z"/><path class="cls-1" d="M5.59,60.09a2,2,0,0,1-.92-.21,1.58,1.58,0,0,1-.87-1.44A1.61,1.61,0,0,1,4,57.59,1.59,1.59,0,0,1,4.67,57a2,2,0,0,1,1.84,0,1.65,1.65,0,0,1,.64.59,1.61,1.61,0,0,1,.23.85,1.67,1.67,0,0,1-.23.85,1.73,1.73,0,0,1-.64.59A2,2,0,0,1,5.59,60.09Zm0-.63a1,1,0,0,0,.52-.13A1,1,0,0,0,6.48,59a1.07,1.07,0,0,0,.13-.53,1,1,0,0,0-.13-.53.86.86,0,0,0-.37-.36,1,1,0,0,0-1,0,.86.86,0,0,0-.37.36,1,1,0,0,0-.13.53A1.07,1.07,0,0,0,4.7,59a1,1,0,0,0,.37.36A1,1,0,0,0,5.59,59.46Z"/><path class="cls-1" d="M10.06,57.43v.85h1.52v.59H10.06V60H9.31v-3.2h2.47v.59Z"/><path class="cls-1" d="M14.41,57.43v.85h1.51v.59H14.41V60h-.76v-3.2h2.47v.59Z"/><path class="cls-1" d="M18,56.84h.76V60H18Z"/><path class="cls-1" d="M22.45,60.09a2,2,0,0,1-.91-.21,1.59,1.59,0,0,1-.86-1.44,1.53,1.53,0,0,1,.23-.85,1.5,1.5,0,0,1,.63-.59,2,2,0,0,1,.91-.22,1.89,1.89,0,0,1,.77.15,1.55,1.55,0,0,1,.58.42l-.49.44a1,1,0,0,0-.82-.38,1.09,1.09,0,0,0-.54.14.86.86,0,0,0-.37.36,1,1,0,0,0-.14.53,1.08,1.08,0,0,0,.14.53,1,1,0,0,0,.37.36,1.08,1.08,0,0,0,.54.13,1,1,0,0,0,.82-.38l.49.44a1.45,1.45,0,0,1-.58.42A1.92,1.92,0,0,1,22.45,60.09Z"/><path class="cls-1" d="M25.67,56.84h.76V60h-.76Z"/><path class="cls-1" d="M30.72,59.35H29.2l-.29.69h-.78l1.46-3.2h.75L31.8,60H31Zm-.24-.56L30,57.56l-.52,1.23Z"/><path class="cls-1" d="M33.5,56.84h.75v2.59H35.9V60H33.5Z"/><path class="cls-1" d="M40.36,56.84h1.48a2.13,2.13,0,0,1,.94.2,1.46,1.46,0,0,1,.64.56,1.65,1.65,0,0,1,0,1.68,1.53,1.53,0,0,1-.64.56,2.13,2.13,0,0,1-.94.2H40.36Zm1.44,2.59a1.13,1.13,0,0,0,.79-.27,1,1,0,0,0,.29-.72.92.92,0,0,0-.29-.72,1.13,1.13,0,0,0-.79-.27h-.69v2Z"/><path class="cls-1" d="M45.57,56.84h.76V60h-.76Z"/><path class="cls-1" d="M50.68,58.39h.69v1.29a2,2,0,0,1-.62.3,2.43,2.43,0,0,1-.7.11,2,2,0,0,1-.92-.21,1.59,1.59,0,0,1-.64-.59,1.64,1.64,0,0,1-.23-.85,1.61,1.61,0,0,1,.23-.85,1.52,1.52,0,0,1,.64-.59,2.06,2.06,0,0,1,.93-.22,1.94,1.94,0,0,1,.78.15,1.46,1.46,0,0,1,.59.41l-.49.43a1.12,1.12,0,0,0-.84-.36,1.25,1.25,0,0,0-.56.13,1,1,0,0,0-.38.36,1.08,1.08,0,0,0-.13.54,1.07,1.07,0,0,0,.13.53,1,1,0,0,0,.38.36,1.09,1.09,0,0,0,.55.13,1.28,1.28,0,0,0,.59-.14Z"/><path class="cls-1" d="M53.43,56.84h.76V60h-.76Z"/><path class="cls-1" d="M57,57.44H56v-.6H58.8v.6h-1V60H57Z"/><path class="cls-1" d="M62.56,59.35H61l-.29.69H60l1.46-3.2h.75L63.64,60h-.79Zm-.24-.56-.52-1.23-.52,1.23Z"/><path class="cls-1" d="M65.34,56.84h.76v2.59h1.64V60h-2.4Z"/><path class="cls-1" d="M77.15,56.84,76.07,60h-.81l-.72-2.17L73.8,60H73l-1.08-3.2h.79l.74,2.25.77-2.25h.7l.75,2.26.76-2.26Z"/><path class="cls-1" d="M81,59.35H79.45l-.29.69h-.77l1.45-3.2h.75L82.06,60h-.8Zm-.24-.56-.52-1.23-.52,1.23Z"/><path class="cls-1" d="M83.75,56.84h.76v2.59h1.64V60h-2.4Z"/><path class="cls-1" d="M87.93,56.84h.76v2.59h1.64V60h-2.4Z"/><path class="cls-1" d="M94.64,59.44V60H92.11v-3.2h2.47v.59H92.86v.7h1.52v.57H92.86v.74Z"/><path class="cls-1" d="M97.28,57.44h-1v-.6h2.86v.6H98V60h-.76Z"/><path class="cls-1" d="M105.12,60.09a2.05,2.05,0,0,1-.93-.21,1.73,1.73,0,0,1-.64-.59,1.67,1.67,0,0,1-.23-.85,1.61,1.61,0,0,1,.23-.85,1.65,1.65,0,0,1,.64-.59,2.06,2.06,0,0,1,.93-.22A1.94,1.94,0,0,1,106,57a1.59,1.59,0,0,1,.64.59,1.53,1.53,0,0,1,.24.85,1.58,1.58,0,0,1-.24.85,1.66,1.66,0,0,1-.64.59A1.94,1.94,0,0,1,105.12,60.09Zm0-.63a1,1,0,0,0,.52-.13A.89.89,0,0,0,106,59a1.08,1.08,0,0,0,.14-.53,1,1,0,0,0-.14-.53.78.78,0,0,0-.36-.36,1.05,1.05,0,0,0-1,0,.91.91,0,0,0-.37.36,1,1,0,0,0-.13.53,1,1,0,0,0,.5.89A1,1,0,0,0,105.12,59.46Z"/><path class="cls-1" d="M109.59,57.43v.85h1.51v.59h-1.51V60h-.76v-3.2h2.48v.59Z"/><path class="cls-1" d="M118.26,58.37a.87.87,0,0,1,.44.3.8.8,0,0,1,.16.49.73.73,0,0,1-.34.65,1.71,1.71,0,0,1-1,.23h-1.69v-3.2h1.59a1.58,1.58,0,0,1,.92.22.69.69,0,0,1,.32.61.78.78,0,0,1-.11.42A.8.8,0,0,1,118.26,58.37Zm-1.65-1v.75h.75a.74.74,0,0,0,.43-.1.35.35,0,0,0,0-.56.83.83,0,0,0-.43-.09Zm.88,2.08a.79.79,0,0,0,.45-.1.32.32,0,0,0,.16-.29c0-.27-.21-.4-.61-.4h-.88v.79Z"/><path class="cls-1" d="M120.79,56.84h.75V60h-.75Z"/><path class="cls-1" d="M126.68,56.84V60h-.62l-1.63-1.95V60h-.75v-3.2h.62l1.63,1.94V56.84Z"/><path class="cls-1" d="M131,59.35h-1.52l-.29.69h-.78l1.46-3.2h.75l1.46,3.2h-.79Zm-.24-.56-.52-1.23-.52,1.23Z"/><path class="cls-1" d="M136.75,56.84V60h-.62l-1.63-1.95V60h-.75v-3.2h.62L136,58.78V56.84Z"/><path class="cls-1" d="M140.45,60.09a1.94,1.94,0,0,1-.91-.21,1.58,1.58,0,0,1-.87-1.44,1.61,1.61,0,0,1,.23-.85,1.58,1.58,0,0,1,.64-.59,2,2,0,0,1,.91-.22,1.89,1.89,0,0,1,.77.15,1.63,1.63,0,0,1,.58.42l-.49.44a1,1,0,0,0-.82-.38,1.09,1.09,0,0,0-.54.14.88.88,0,0,0-.38.36,1.12,1.12,0,0,0-.13.53,1.19,1.19,0,0,0,.13.53,1,1,0,0,0,.38.36,1.08,1.08,0,0,0,.54.13,1,1,0,0,0,.82-.38l.49.44a1.52,1.52,0,0,1-.58.42A1.92,1.92,0,0,1,140.45,60.09Z"/><path class="cls-1" d="M146.2,59.44V60h-2.53v-3.2h2.47v.59h-1.72v.7h1.52v.57h-1.52v.74Z"/></svg>